<svg width="256px" height="96px" viewBox="0 0 256 96" version="1.1" xmlns="http://www.w3.org/2000/svg" >
<g fill="none" stroke="#202020" stroke-width="2px">
<path d="M132.131,15.7c0.003,-0.383 0.315,-0.692 0.696,-0.692l8.71,0c0.71,0 1.291,0.558 1.322,1.268c0.171,4.097 0.703,16.873 0.815,19.574c0.013,0.292 -0.186,0.551 -0.471,0.617c-1.751,0.397 -7.722,1.755 -10.178,2.312c-0.259,0.059 -0.531,-0.003 -0.738,-0.17c-0.206,-0.167 -0.326,-0.417 -0.323,-0.684c0.031,-4.152 0.141,-18.854 0.167,-22.225Z"/>
<path d="M148.744,40.799c-0.382,0.114 -0.692,0.391 -0.852,0.756c-0.877,2.009 -3.806,8.717 -4.872,11.159c-0.25,0.574 -0.716,1.03 -1.296,1.269c-4.619,1.909 -25.539,10.551 -30.68,12.673c-0.253,0.106 -0.543,0.077 -0.769,-0.078c-0.227,-0.154 -0.361,-0.412 -0.356,-0.685c0.032,-2.263 0.104,-7.042 0.139,-9.407c0.012,-0.8 0.593,-1.479 1.381,-1.615c3.709,-0.634 13.919,-2.385 16.911,-2.898c0.483,-0.083 0.835,-0.5 0.835,-0.989l-0,-13.594c-0,-0.254 -0.114,-0.493 -0.311,-0.654c-0.198,-0.16 -0.454,-0.224 -0.704,-0.173c-4.782,0.981 -25.088,5.142 -30.59,6.27c-0.787,0.161 -1.333,0.883 -1.272,1.687c0.449,5.883 2.173,28.516 2.629,34.495c0.062,0.822 0.745,1.46 1.571,1.467c8.442,0.074 50.883,0.449 58.14,0.51c0.279,0.004 0.548,-0.106 0.742,-0.304c0.2,-0.195 0.309,-0.463 0.306,-0.742c-0.048,-5.923 -0.286,-34.959 -0.336,-41.173c-0.003,-0.276 -0.135,-0.536 -0.357,-0.7c-0.221,-0.163 -0.51,-0.213 -0.774,-0.133c-2.343,0.705 -7.688,2.317 -9.485,2.859Z"/>
<path d="M101.153,15.008c-0.272,0 -0.534,0.11 -0.725,0.305c-0.191,0.195 -0.295,0.46 -0.289,0.732c0.085,3.815 0.379,17.075 0.477,21.516c0.009,0.36 0.177,0.698 0.46,0.921c0.282,0.224 0.65,0.309 1.003,0.234c2.486,-0.533 7.559,-1.62 9.851,-2.111c0.678,-0.146 1.154,-0.755 1.131,-1.448c-0.126,-3.809 -0.521,-15.602 -0.638,-19.138c-0.02,-0.564 -0.481,-1.011 -1.046,-1.011l-10.224,0Z"/>
<path d="M116.314,16.346c-0.003,-0.354 0.135,-0.694 0.384,-0.945c0.25,-0.252 0.589,-0.393 0.942,-0.393l7.676,0c0.784,0 1.434,0.605 1.49,1.388c0.242,3.417 0.862,12.18 1.075,15.19c0.042,0.59 -0.366,1.115 -0.946,1.224c-2.097,0.39 -6.892,1.282 -9.185,1.708c-0.315,0.058 -0.64,-0.025 -0.886,-0.228c-0.248,-0.204 -0.392,-0.506 -0.395,-0.827c-0.033,-3.561 -0.123,-13.5 -0.155,-17.117Z"/>
<path d="M147.435,15.592c0,-0.155 0.06,-0.303 0.168,-0.413c0.108,-0.11 0.257,-0.171 0.412,-0.171l8.334,0c0.893,0 1.642,0.681 1.728,1.571c0.353,3.66 1.219,12.679 1.521,15.825c0.061,0.632 -0.355,1.212 -0.974,1.357c-2.298,0.542 -7.657,1.802 -9.947,2.342c-0.259,0.06 -0.533,0 -0.742,-0.165c-0.208,-0.164 -0.332,-0.415 -0.333,-0.681c-0.034,-3.865 -0.144,-16.763 -0.167,-19.665Z"/>
</g></svg>