<svg version="1.1" xmlns="http://www.w3.org/2000/svg" xmlns:xlink="http://www.w3.org/1999/xlink" x="0px" y="0px" width="48px" height="48px" viewBox="0 0 48 48" enable-background="new 0 0 48 48" xml:space="preserve">
<path fill="#202020" d="M13.643,35.352h6.744l-6.744-6.742V35.352z M35.563,12.311c-1.551-1.552-4.063-1.552-5.614,0l-1.69,1.69 L35,20.744l1.689-1.684c1.553-1.552,1.553-4.07,0-5.622L35.563,12.311z M14.77,27.486l6.744,6.742l11.36-11.363l-6.743-6.743 L14.77,27.486z"/>
<path fill="#202020" d="M24.001,1.386C11.511,1.386,1.386,11.511,1.386,24s10.125,22.614,22.615,22.614 c12.489,0,22.612-10.125,22.612-22.614S36.49,1.386,24.001,1.386z M24.001,42.525C13.77,42.525,5.477,34.23,5.477,24 c0-10.231,8.293-18.524,18.524-18.524c10.231,0,18.524,8.293,18.524,18.524C42.525,34.23,34.232,42.525,24.001,42.525z"/>
</svg>