<svg version="1.1" xmlns="http://www.w3.org/2000/svg" xmlns:xlink="http://www.w3.org/1999/xlink" x="0px" y="0px" width="48px" height="48px" viewBox="0 0 48 48" enable-background="new 0 0 48 48" xml:space="preserve">
<path fill="#202020" d="M45.744,20.473c0.179,1.151,0.299,2.323,0.299,3.526c0,12.628-10.236,22.865-22.864,22.865 C10.551,46.864,0.314,36.627,0.314,24c0-12.628,10.237-22.864,22.864-22.864c4.878,0,9.389,1.541,13.104,4.143l-2.954,3.027 c-2.927-1.898-6.408-3.014-10.149-3.014C12.862,5.292,4.472,13.686,4.472,24c0,10.313,8.392,18.708,18.707,18.708 c10.174,0,18.457-8.165,18.687-18.281L45.744,20.473z M41.527,5.79L23.156,24.621l-7.507-7.061l-6.046,6.053l13.554,13.108 l24.419-24.882L41.527,5.79z"/>
</svg>