<svg width="100%" height="100%" viewBox="0 0 48 48" version="1.1" xmlns="http://www.w3.org/2000/svg" xmlns:xlink="http://www.w3.org/1999/xlink" xml:space="preserve" xmlns:serif="http://www.serif.com/" style="fill-rule:evenodd;clip-rule:evenodd;stroke-linejoin:round;stroke-miterlimit:2;">
    <g transform="matrix(1,0,0,1,0.578419,0.397742)">
        <path d="M13.031,33.947L13.133,28.631C13.133,28.23 14.188,27.174 14.59,27.174L44.922,27.202C45.299,27.189 46.408,28.143 46.408,28.631L46.408,33.947L46.512,33.947C46.82,33.947 47.07,34.2 47.07,34.511L47.07,46.744C47.07,47.055 46.82,47.308 46.511,47.308L13.031,47.308C12.721,47.308 12.471,47.056 12.471,46.744L12.471,34.511C12.471,34.2 12.721,33.947 13.031,33.947ZM43.892,33.947L43.892,30.06L15.711,30.06L15.711,33.947L18.719,33.947C19.029,33.947 19.279,34.199 19.279,34.511L19.279,35.829L23.477,35.829L23.477,34.511C23.477,34.2 23.725,33.947 24.035,33.947L35.04,33.947C35.349,33.947 35.6,34.199 35.6,34.511L35.6,35.829L40.262,35.829L40.262,34.511C40.262,34.2 40.513,33.947 40.823,33.947L43.892,33.947Z" style="fill:rgb(32,32,32);fill-rule:nonzero;"/>
    </g>
    <path d="M24.816,2.028C26.404,2.028 27.692,3.314 27.692,4.903L27.692,26.126L14.57,26.113C13.426,26.159 12.273,27.26 12.136,28.476L12.133,33.172C12.133,33.172 11.487,33.823 11.471,34.438C11.471,38.101 11.391,41.765 11.446,45.428L3.16,45.428C1.571,45.428 0.286,45.969 0.286,44.381L0.286,4.903C0.286,3.314 1.571,2.028 3.16,2.028L24.816,2.028ZM22.097,23.818C22.957,23.818 23.654,23.12 23.654,22.26L23.654,18.564C23.654,17.704 22.956,17.007 22.097,17.007L5.877,17.007C5.02,17.007 4.323,17.704 4.323,18.564L4.323,22.26C4.323,23.121 5.02,23.818 5.877,23.818L22.097,23.818ZM22.097,13.43C22.957,13.43 23.654,12.733 23.654,11.873L23.654,8.178C23.654,7.318 22.956,6.621 22.097,6.621L5.877,6.621C5.02,6.621 4.323,7.318 4.323,8.178L4.323,11.873C4.323,12.733 5.02,13.43 5.877,13.43L22.097,13.43Z" style="fill:rgb(32,32,32);fill-rule:nonzero;"/>
</svg>
