<svg version="1.1" xmlns="http://www.w3.org/2000/svg" xmlns:xlink="http://www.w3.org/1999/xlink" x="0px" y="0px" width="48px" height="48px" viewBox="0 0 48 48" enable-background="new 0 0 48 48" xml:space="preserve">
<g fill="#202020" >
<path d="M20.622,46.202c-1.448-0.837-2.037-2.623-1.372-4.156l0.485-1.123c-0.26-0.317-0.509-0.646-0.744-0.985 l-1.163,0.17c-0.726,0.108-1.489-0.038-2.125-0.407c-0.76-0.439-1.304-1.149-1.529-1.998l-0.86-3.213H5.286 c-5.151,0-5.151,0-5.151,6.536c0,6.535,0,6.535,5.151,6.535h17.693L20.622,46.202z M7.078,41.975c-0.524,0-0.948-0.426-0.948-0.949 c0-0.522,0.424-0.946,0.948-0.946c0.523,0,0.948,0.424,0.948,0.946C8.026,41.549,7.602,41.975,7.078,41.975z"/>
<path d="M15.225,30.375l1.112-0.441c0.033-0.364,0.08-0.729,0.14-1.093l-0.953-0.71 c-1.34-0.995-1.724-2.836-0.891-4.282l1.776-3.075c0.812-1.401,2.661-2.011,4.149-1.368l0.943,0.409 c0.344-0.3,0.705-0.585,1.08-0.854l-0.155-1.06c-0.021-0.147-0.021-0.292-0.022-0.438H5.286c-5.151,0-5.151,0-5.151,6.536 s0,6.536,5.151,6.536h9.621C15.012,30.48,15.112,30.42,15.225,30.375z M7.078,24.949c-0.524,0-0.948-0.426-0.948-0.949 s0.424-0.948,0.948-0.948c0.523,0,0.948,0.425,0.948,0.948S7.602,24.949,7.078,24.949z"/>
<path d="M42.713,0.439H5.286c-5.151,0-5.151,0-5.151,6.536c0,6.536,0,6.536,5.151,6.536h37.427 c5.152,0,5.152,0,5.152-6.536C47.865,0.439,47.865,0.439,42.713,0.439z M7.078,7.923c-0.524,0-0.948-0.425-0.948-0.949 s0.424-0.948,0.948-0.948c0.523,0,0.948,0.425,0.948,0.948S7.602,7.923,7.078,7.923z"/>
<path d="M46.719,38.104c0.453-0.785,0.245-1.783-0.486-2.328l-1.529-1.137c0.251-0.973,0.389-1.982,0.418-3.012 l1.749-0.691c0.839-0.334,1.301-1.244,1.071-2.123l-0.918-3.42c-0.121-0.461-0.42-0.846-0.83-1.083 c-0.351-0.202-0.76-0.28-1.158-0.22l-1.799,0.264c-0.543-0.93-1.198-1.792-1.957-2.57l0.738-1.708 c0.359-0.836,0.039-1.805-0.746-2.258l-3.072-1.776c-0.784-0.453-1.784-0.245-2.326,0.483l-1.111,1.493 c-1.08-0.269-2.188-0.41-3.301-0.409l-0.695-1.759c-0.147-0.373-0.422-0.689-0.769-0.889c-0.41-0.237-0.892-0.301-1.356-0.181 l-3.427,0.919c-0.877,0.235-1.435,1.09-1.305,1.988l0.291,1.996c-0.872,0.542-1.679,1.18-2.394,1.902l-1.845-0.8 c-0.831-0.359-1.802-0.041-2.255,0.742l-1.775,3.073c-0.453,0.787-0.244,1.787,0.487,2.33l1.711,1.273 c-0.21,0.914-0.329,1.848-0.351,2.775l-2.003,0.793c-0.84,0.332-1.299,1.242-1.07,2.121l0.917,3.426 c0.123,0.463,0.419,0.848,0.831,1.086c0.348,0.201,0.76,0.279,1.158,0.221l2.115-0.309c0.502,0.836,1.091,1.619,1.761,2.332 l-0.862,1.996c-0.361,0.832-0.04,1.807,0.744,2.26l3.075,1.771c0.783,0.453,1.783,0.246,2.326-0.484l1.244-1.672 c1.01,0.26,2.053,0.406,3.104,0.434l0.759,1.918c0.148,0.373,0.422,0.688,0.77,0.889c0.412,0.238,0.893,0.303,1.355,0.184 l3.428-0.922c0.875-0.232,1.438-1.09,1.303-1.986l-0.291-2.008c0.9-0.533,1.729-1.166,2.466-1.873l1.778,0.771 c0.836,0.363,1.805,0.039,2.258-0.744L46.719,38.104z M35.927,34.018c-1.466,2.539-4.726,3.412-7.264,1.945 c-2.539-1.467-3.413-4.725-1.947-7.264c1.466-2.541,4.728-3.412,7.269-1.947C36.521,28.219,37.395,31.48,35.927,34.018z"/>
</g>
<g fill="#E0E0E0" >
<circle cx="3.885" cy="6.975" r="0.948"/>
<circle cx="3.885" cy="24" r="0.948"/>
<circle cx="3.885" cy="41.025" r="0.948"/>
</g>
</svg>