<svg version="1.1" xmlns="http://www.w3.org/2000/svg" xmlns:xlink="http://www.w3.org/1999/xlink" x="0px" y="0px" width="64px" height="48px" viewBox="0 0 64 48" enable-background="new 0 0 64 48" xml:space="preserve">
<g fill="#FFFFFF">
<path d="M44.482,47.423l-0.406-1.028c-0.482-0.045-0.963-0.111-1.438-0.201l-0.664,0.895 c-0.293,0.395-0.682,0.693-1.111,0.913h3.927C44.671,47.816,44.564,47.627,44.482,47.423z"/>
<path d="M0,0v48h37.753c-0.021-0.011-0.04-0.016-0.06-0.025l-3.071-1.771c-1.447-0.836-2.037-2.622-1.372-4.155 l0.484-1.124c-0.26-0.317-0.51-0.646-0.744-0.985l-1.162,0.17c-0.729,0.108-1.49-0.039-2.126-0.406 c-0.76-0.439-1.304-1.148-1.529-1.998l-0.917-3.424c-0.422-1.62,0.425-3.295,1.968-3.903l1.112-0.44 c0.033-0.364,0.08-0.729,0.14-1.094l-0.953-0.71c-1.34-0.995-1.724-2.836-0.891-4.282l1.776-3.075 c0.811-1.401,2.654-2.015,4.148-1.368l0.942,0.409c0.345-0.3,0.705-0.585,1.08-0.854l-0.154-1.06 c-0.239-1.651,0.792-3.222,2.401-3.653l3.427,0.081c0.879-0.227,1.751-0.098,2.494,0.331c0.642,0.369,1.144-0.05,1.414,0.637 l0.335,0.846c0.548,0.038,1.094,0.106,1.638,0.205l0.535-0.72c0.962-1.292,2.883-1.694,4.28-0.887l3.072,1.776 c1.44,0.832,2.031,2.616,1.373,4.149l-0.355,0.823c0.336,0.395,0.65,0.808,0.941,1.237l0.836-0.123 c0.707-0.109,1.483,0.036,2.125,0.405c0.766,0.441,1.309,1.152,1.531,2.001l0.916,3.412c0.424,1.616-0.422,3.291-1.965,3.905 l-0.863,0.342c-0.043,0.454-0.104,0.901-0.186,1.343l0.751,0.56c1.34,0.997,1.724,2.839,0.89,4.28l-1.771,3.078 c-0.587,1.014-1.678,1.644-2.848,1.644c-0.451,0-0.893-0.093-1.309-0.272l-0.896-0.389c-0.361,0.303-0.737,0.589-1.127,0.855 l0.152,1.053c0.19,1.269-0.381,2.486-1.39,3.179H64V0H0z"/>
</g>
</svg>