<svg version="1.1" id="Layer_1" xmlns="http://www.w3.org/2000/svg" xmlns:xlink="http://www.w3.org/1999/xlink" x="0px" y="0px" width="64px" height="48px" viewBox="0 0 64 48" enable-background="new 0 0 64 48" xml:space="preserve">
<path fill="#fff" d="M0,0v48h39.075c-2.147-0.979-3.767-2.942-3.767-6.893c0-4.851,2.356-9.269,6.323-11.933 c-1.223-1.596-1.957-3.571-1.957-5.717c0-5.263,4.363-9.544,9.728-9.544c5.363,0,9.727,4.281,9.727,9.544 c0,2.145-0.733,4.119-1.954,5.714c3.967,2.662,6.325,7.081,6.328,11.935c0,3.31-1.111,5.503-3.396,6.707 c-0.131,0.069-0.27,0.125-0.404,0.187H64V0H0z"/>
</svg>