<svg version="1.1" xmlns="http://www.w3.org/2000/svg" xmlns:xlink="http://www.w3.org/1999/xlink" x="0px" y="0px" width="48px" height="48px" viewBox="0 0 48 48" enable-background="new 0 0 48 48" xml:space="preserve">
<path fill="#202020" d="M47.313,41.054c0,0-0.447,0-0.597,0c-0.327,0-0.327-0.386-0.327-0.386V13.627 c0-0.681-0.557-1.237-1.237-1.237c0,0-7.181,0-9.574,0c-0.345,0-0.325-0.326-0.325-0.326V6.851c0-0.052,0.028-0.11,0.199-0.11 c0.379,0,0.688-0.309,0.688-0.688V4.833c0-0.378-0.309-0.688-0.688-0.688H13.22c-0.378,0-0.688,0.309-0.688,0.688v1.221 c0,0.378,0.309,0.688,0.688,0.688c0.2,0,0.2,0.179,0.2,0.2v5.002c0,0,0.034,0.446-0.258,0.446c-2.585,0-10.34,0-10.34,0 c-0.681,0-1.238,0.557-1.238,1.238c0,0,0,20.344,0,27.126c0,0.258-0.14,0.301-0.422,0.301c-0.365,0-0.474,0-0.474,0 C0.31,41.055,0,41.363,0,41.742v1.426c0,0.378,0.31,0.688,0.688,0.688h46.625c0.378,0,0.688-0.31,0.688-0.688v-1.426 C48,41.363,47.69,41.054,47.313,41.054z M26.964,18.318h4.115c0.302,0,0.55,0.248,0.55,0.55v4.115c0,0.303-0.248,0.55-0.55,0.55 h-4.115c-0.303,0-0.55-0.248-0.55-0.55v-4.115C26.414,18.566,26.661,18.318,26.964,18.318z M26.414,15.766v-4.115 c0-0.303,0.247-0.55,0.55-0.55h4.115c0.302,0,0.55,0.248,0.55,0.55v4.115c0,0.302-0.248,0.55-0.55,0.55h-4.115 C26.661,16.316,26.414,16.068,26.414,15.766z M26.964,25.282h4.115c0.302,0,0.55,0.247,0.55,0.55v4.115 c0,0.303-0.248,0.551-0.55,0.551h-4.115c-0.303,0-0.55-0.248-0.55-0.551v-4.115C26.414,25.529,26.661,25.282,26.964,25.282z M27.574,33.556c0.303,0,0.551,0.247,0.551,0.55v6.372c0,0.302-0.248,0.55-0.551,0.55h-6.372c-0.302,0-0.55-0.248-0.55-0.55 v-6.372c0-0.303,0.248-0.55,0.55-0.55H27.574z M22.265,15.766c0,0.302-0.248,0.55-0.55,0.55h-4.115c-0.302,0-0.55-0.248-0.55-0.55 v-4.115c0-0.303,0.248-0.55,0.55-0.55h4.115c0.303,0,0.55,0.248,0.55,0.55V15.766z M17.599,18.318h4.115 c0.303,0,0.55,0.248,0.55,0.55v4.115c0,0.303-0.248,0.55-0.55,0.55h-4.115c-0.302,0-0.55-0.248-0.55-0.55v-4.115 C17.049,18.566,17.297,18.318,17.599,18.318z M17.599,25.282h4.115c0.303,0,0.55,0.247,0.55,0.55v4.115 c0,0.303-0.248,0.551-0.55,0.551h-4.115c-0.302,0-0.55-0.248-0.55-0.551v-4.115C17.049,25.529,17.297,25.282,17.599,25.282z M36.871,18.741c0-0.302,0.248-0.55,0.551-0.55h4.115c0.303,0,0.55,0.248,0.55,0.55v4.115c0,0.303-0.247,0.55-0.55,0.55h-4.115 c-0.303,0-0.551-0.248-0.551-0.55V18.741z M36.871,25.959c0-0.303,0.248-0.55,0.551-0.55h4.115c0.303,0,0.55,0.247,0.55,0.55 v4.115c0,0.303-0.247,0.551-0.55,0.551h-4.115c-0.303,0-0.551-0.248-0.551-0.551V25.959z M36.871,32.923 c0-0.303,0.248-0.55,0.551-0.55h4.115c0.303,0,0.55,0.247,0.55,0.55v4.115c0,0.303-0.247,0.55-0.55,0.55h-4.115 c-0.303,0-0.551-0.247-0.551-0.55V32.923z M5.886,18.741c0-0.302,0.248-0.55,0.55-0.55h4.115c0.302,0,0.55,0.248,0.55,0.55v4.115 c0,0.303-0.248,0.55-0.55,0.55H6.436c-0.303,0-0.55-0.248-0.55-0.55V18.741z M5.886,25.959c0-0.303,0.248-0.55,0.55-0.55h4.115 c0.302,0,0.55,0.247,0.55,0.55v4.115c0,0.303-0.248,0.551-0.55,0.551H6.436c-0.303,0-0.55-0.248-0.55-0.551V25.959z M5.886,32.923 c0-0.303,0.248-0.55,0.55-0.55h4.115c0.302,0,0.55,0.247,0.55,0.55v4.115c0,0.303-0.248,0.55-0.55,0.55H6.436 c-0.303,0-0.55-0.247-0.55-0.55V32.923z"/>
</svg>