<svg width="48px" height="48px" viewBox="0 0 48 48" version="1.1" xmlns="http://www.w3.org/2000/svg" xmlns:xlink="http://www.w3.org/1999/xlink" xml:space="preserve" xmlns:serif="http://www.serif.com/" style="fill-rule:evenodd;clip-rule:evenodd;stroke-linecap:round;stroke-miterlimit:10;">
<g transform="matrix(0.687329,0,0,0.687329,15.5265,2.32391)">
<circle cx="36.331" cy="15.885" r="2.394" style="fill:rgb(32,32,32);"/>
</g>
<g transform="matrix(1.06102,0,0,1.06102,1.94971,-3.61205)"><g transform="matrix(0.942487,-0,-0,0.942487,-1.83758,3.40431)">
<path d="M44.737,4.185C45.122,3.79 45.756,3.782 46.151,4.168C46.546,4.553 46.554,5.187 46.169,5.582C45.783,5.977 45.15,5.985 44.754,5.6C44.359,5.214 44.351,4.581 44.737,4.185ZM45.095,4.535C45.287,4.337 45.604,4.333 45.802,4.526C45.999,4.718 46.003,5.035 45.811,5.233C45.618,5.43 45.301,5.434 45.104,5.242C44.906,5.049 44.902,4.732 45.095,4.535Z" style="fill:none;stroke:rgb(32,32,32);stroke-width:1px;"/>
<path d="M40.498,13.242C44.304,12.163 43.81,8.068 44.754,5.6" style="fill:none;stroke:rgb(32,32,32);stroke-width:1px;stroke-linejoin:round;stroke-miterlimit:1.5;"/>
</g></g>
<g transform="matrix(1.06102,0,0,1.06102,-35.688,17.88)">
<circle cx="38.024" cy="12.887" r="1.551" style="fill:rgb(32,32,32);"/>
</g>
<g transform="matrix(1.06102,0,0,1.06102,-34.7721,2.12974)">
<circle cx="38.024" cy="12.887" r="1.551" style="fill:rgb(32,32,32);"/>
</g>
<g transform="matrix(1.06102,0,0,1.06102,-22.9319,30.0212)">
<circle cx="38.024" cy="12.887" r="1.551" style="fill:rgb(32,32,32);"/>
</g>
<g transform="matrix(1.06102,0,0,1.06102,-1.46641,-0.511474)"><g transform="matrix(0.942487,-0,-0,0.942487,1.38208,0.482058)">
<path d="M5.83,2.979C5.655,2.456 5.937,1.889 6.46,1.714C6.984,1.538 7.551,1.821 7.726,2.344C7.902,2.867 7.619,3.435 7.096,3.61C6.573,3.785 6.005,3.503 5.83,2.979ZM6.304,2.821C6.216,2.559 6.358,2.275 6.619,2.188C6.881,2.1 7.165,2.241 7.252,2.503C7.34,2.765 7.199,3.048 6.937,3.136C6.675,3.224 6.392,3.082 6.304,2.821Z" style="fill:none;stroke:rgb(32,32,32);stroke-width:1px;"/>
<path d="M5.572,15.803C1.801,11.809 8.273,9.647 7.096,3.61" style="fill:none;stroke:rgb(32,32,32);stroke-width:1px;stroke-linejoin:round;stroke-miterlimit:1.5;"/>
</g></g>
<g transform="matrix(1.06102,0,0,1.06102,-1.94567,-0.511474)">
<path d="M5.076,28.096C4.811,26.797 4.671,25.453 4.671,24.075C4.671,21.743 5.071,19.504 5.804,17.422C6.176,17.656 6.615,17.79 7.085,17.79C8.418,17.79 9.499,16.709 9.499,15.376C9.499,14.344 8.85,13.462 7.937,13.117C11.511,7.67 17.672,4.073 24.674,4.073C30.543,4.073 35.821,6.6 39.48,10.626C38.41,10.864 37.609,11.821 37.609,12.962C37.609,14.284 38.681,15.356 40.003,15.356C40.879,15.356 41.645,14.885 42.062,14.182C43.726,17.1 44.676,20.476 44.676,24.075C44.676,33.625 37.982,41.613 29.029,43.598C29.538,43.215 29.744,41.999 30.884,41.321C32.174,40.555 33.541,39.563 34.518,38.761C35.495,37.963 35.943,36.711 36.921,36.164C37.897,35.617 41.002,30.617 40.397,29.621C39.792,28.625 37.37,29.014 36.764,28.722C36.159,28.429 36.608,27.531 35.963,27.081C35.319,26.631 34.361,26.788 32.485,25.714C30.611,24.639 29.751,25.361 29.537,25.42C29.322,25.479 27.818,26.749 27.369,26.71C26.92,26.671 24.83,26.812 24.752,25.147C24.673,23.482 23.247,23.448 23.13,23.428C23.012,23.409 23.716,22.178 23.169,21.905C22.623,21.632 21.001,24.112 20.025,22.178C19.048,20.244 20.881,19.297 21.705,19.072C24.439,18.33 24.947,20.322 25.455,20.244C25.962,20.167 24.987,18.898 25.26,18.311C25.534,17.725 26.588,17.1 26.569,16.689C26.549,16.28 26.183,14.58 27.799,14.326C27.799,14.326 27.506,13.877 27.819,13.702C28.131,13.525 28.21,13.018 28.697,13.506C28.697,13.506 29.889,12.939 29.499,12.647C29.108,12.355 27.644,12.218 29.967,10.948C29.967,10.948 28.115,9.381 27.431,9.166C26.747,8.951 26.92,9.541 25.983,8.916C25.983,8.916 24.713,8.271 24.87,9.092C25.026,9.913 25.495,11.768 23.971,10.655C22.448,9.542 21.57,9.542 22.428,8.956C23.287,8.371 23.658,8.409 23.483,8.078C23.306,7.745 24.478,7.394 23.17,7.492C21.861,7.589 21.626,6.554 20.768,6.417C19.908,6.281 19.38,6.456 19.751,6.808C20.122,7.159 20.05,7.277 18.95,6.925C17.852,6.574 17.016,5.832 15.649,6.789C14.282,7.746 12.388,8.782 12.329,9.387C12.329,9.387 14.556,8.059 14.946,8.683C15.337,9.309 14.79,11.027 15.298,11.848C15.806,12.668 14.829,10.915 14.751,12.2C14.673,13.484 13.032,14.739 14.282,17.2C15.532,19.661 14.731,19.388 15.122,19.896C15.514,20.404 15.807,21.028 15.943,20.97C16.08,20.911 15.239,18.861 15.376,18.684C15.514,18.509 15.583,19.29 15.958,19.856C16.334,20.423 17.135,21.209 17.154,21.751C17.173,22.293 17.291,23.059 18.638,23.607C19.986,24.154 21.743,24.798 22.291,25.013C22.838,25.228 22.877,24.955 23.229,25.307C23.581,25.659 23.698,26.127 23.952,26.322C24.206,26.518 25.398,27.259 25.671,27.24C25.944,27.221 26.041,26.889 26.238,26.907C26.433,26.928 27.214,27.396 27.233,27.572C27.253,27.748 27.253,28.333 27.194,28.49C27.135,28.646 25.867,30.17 26.1,31.185C26.169,31.482 25.729,31.654 26.804,32.808C27.878,33.959 27.389,34.409 29.146,35.405C30.905,36.401 29.128,39.371 28.56,40.542C28.052,41.596 28.108,43.442 28.623,43.687C27.346,43.943 26.026,44.078 24.674,44.078C23.002,44.078 21.379,43.873 19.827,43.486C20.336,43.044 20.659,42.391 20.659,41.664C20.659,40.331 19.577,39.25 18.245,39.25C16.912,39.25 15.831,40.331 15.831,41.664C15.831,41.79 15.84,41.915 15.859,42.036C11.798,40.039 8.513,36.705 6.578,32.609C7.742,32.437 8.636,31.432 8.636,30.221C8.636,28.888 7.555,27.807 6.222,27.807C5.807,27.807 5.417,27.912 5.076,28.096Z" style="fill:rgb(32,32,32);fill-rule:nonzero;"/>
</g>
<g transform="matrix(1.06102,0,0,1.06102,-1.46641,-0.511474)"><g transform="matrix(0.942487,-0,-0,0.942487,1.38208,0.482058)">
<path d="M3.765,44.619C3.851,45.164 3.478,45.676 2.933,45.762C2.388,45.848 1.875,45.475 1.789,44.93C1.703,44.385 2.076,43.872 2.621,43.786C3.167,43.701 3.679,44.073 3.765,44.619ZM3.271,44.696C3.314,44.969 3.128,45.225 2.855,45.268C2.582,45.311 2.326,45.125 2.283,44.852C2.24,44.58 2.427,44.323 2.699,44.28C2.972,44.237 3.228,44.424 3.271,44.696Z" style="fill:none;stroke:rgb(32,32,32);stroke-width:1px;"/>
<path d="M4.656,31.553C3.756,36.75 1.802,37.23 2.621,43.786" style="fill:none;stroke:rgb(32,32,32);stroke-width:1px;stroke-linejoin:round;stroke-miterlimit:1.5;"/>
</g></g>
</svg>