<svg version="1.1" xmlns:serif="http://www.serif.com/" xmlns="http://www.w3.org/2000/svg" xmlns:xlink="http://www.w3.org/1999/xlink" x="0px" y="0px" width="48px" height="48px" viewBox="0 0 48 48" enable-background="new 0 0 48 48" xml:space="preserve">
<g fill="#202020">
<path d="M39.881,32.486c-0.063-0.148-0.157-0.283-0.276-0.389l-3.348-2.996l1.759-7.431 c4.893,0,6.512-4.026,6.564-4.166c0.209-0.557-0.073-1.179-0.631-1.388l-3.626-1.357c-0.302-1.166-1.207-2.083-2.354-2.408 l-0.241-2.139c-0.049-0.426-0.344-0.783-0.753-0.91c-0.41-0.127-0.854,0.001-1.136,0.326l-0.656,0.761L34.668,8.74 c-0.14-0.445-0.551-0.751-1.018-0.755c-0.005,0-0.007,0-0.011,0c-0.464,0-0.876,0.296-1.023,0.736l-3.97,11.886l-15.301,1.475 c-2.351,0.257-4.697-0.636-6.275-2.389c-0.398-0.442-1.08-0.479-1.522-0.079c-0.442,0.398-0.479,1.08-0.08,1.521 c1.585,1.761,3.768,2.85,6.082,3.095c-1.083,0.848-2.098,2.123-2.845,4.037l-3.833,0.222c-0.297,0.019-0.574,0.157-0.765,0.387 l-3.707,4.44c-0.188,0.227-0.276,0.52-0.243,0.812c0.033,0.293,0.185,0.56,0.418,0.738l0.794,0.604 c0.195,0.149,0.425,0.221,0.652,0.221c0.304,0,0.604-0.126,0.817-0.373l2.871-3.323l4.761,1.016L8.24,35.085 c-0.232,0.217-0.357,0.522-0.343,0.839l0.28,5.969c0.024,0.521,0.419,0.952,0.938,1.018l1.396,0.183 c0.047,0.007,0.093,0.01,0.139,0.01c0.261,0,0.515-0.095,0.714-0.27c0.232-0.204,0.366-0.503,0.365-0.813l-0.019-4.314l7.307-3.698 c0.032-0.016,0.063-0.033,0.094-0.053c1.125-0.72,1.855-1.618,2.326-2.549c2.784,0.604,6.63,1.385,9.651,1.797l-0.571,3.534 l-4.707,3.944c-0.454,0.38-0.515,1.055-0.138,1.513l0.56,0.68c0.211,0.256,0.52,0.392,0.832,0.392c0.182,0,0.364-0.046,0.53-0.142 l5.756-3.247c0.263-0.15,0.451-0.399,0.521-0.693l1.224-5.176l1.867,1.454l2.916,5.369c0.189,0.349,0.554,0.565,0.948,0.565h1.147 c0.36,0,0.694-0.181,0.897-0.481c0.2-0.3,0.235-0.679,0.096-1.012L39.881,32.486z"/>
<path d="M45.184,4.734c0.004,0.04,0.004,0.08,0.004,0.12c0,0.428-0.165,0.831-0.467,1.134l-0.484,0.482 c-0.25,0.251-0.388,0.583-0.388,0.938c0,0.355,0.138,0.688,0.388,0.938c0.25,0.251,0.585,0.388,0.938,0.388 c0.354,0,0.688-0.137,0.938-0.388l0.481-0.482c0.304-0.303,0.706-0.47,1.137-0.47c0.039,0,0.079,0.001,0.119,0.004 c-0.014-0.678-0.277-1.353-0.794-1.87C46.537,5.01,45.862,4.746,45.184,4.734z"/>
<path d="M46.791,8.06L46.31,8.542c-0.305,0.303-0.707,0.47-1.135,0.47c-0.43,0-0.832-0.167-1.137-0.47 c-0.301-0.303-0.471-0.705-0.471-1.134c0-0.428,0.168-0.831,0.471-1.135l0.484-0.481c0.248-0.251,0.387-0.584,0.387-0.938 c0-0.038-0.002-0.074-0.004-0.111c-0.615,0.052-1.218,0.314-1.688,0.785c-1.059,1.058-1.059,2.776,0,3.835 c1.06,1.059,2.777,1.059,3.836,0c0.471-0.47,0.733-1.071,0.784-1.687c-0.038-0.003-0.073-0.004-0.108-0.004 C47.374,7.673,47.041,7.81,46.791,8.06z"/>
</g>
</svg>