<!DOCTYPE svg PUBLIC "-//W3C//DTD SVG 1.1//EN" "http://www.w3.org/Graphics/SVG/1.1/DTD/svg11.dtd">
<svg version="1.1" xmlns="http://www.w3.org/2000/svg" xmlns:xlink="http://www.w3.org/1999/xlink" x="0px" y="0px" width="48px" height="48px" viewBox="0 0 48 48" enable-background="new 0 0 48 48" xml:space="preserve">
<g fill="#C0C0C0">
<path d="M16.7,1.15c-0.78,0.8-1.17,1.53-1.4,2.65c-0.26,1.31-0.05,2.73,0.62,4.08c0.29,0.6,0.96,1.56,1.26,1.83 c0.18,0.17,0.18,0.17-0.14,0.64c-0.92,1.36-1.77,3.79-1.77,5.05c0,0.23-0.16,0.44-0.85,1.16c-0.47,0.49-0.94,1.01-1.06,1.17 l-0.2,0.29l0.45,0.59c1.39,1.83,3.76,3.11,6.8,3.68c0.93,0.17,1.4,0.19,3.59,0.19c2.15,0,2.68-0.04,3.58-0.19 c3.13-0.57,5.63-1.98,6.99-3.93l0.26-0.38l-0.33-0.4c-0.19-0.22-0.65-0.73-1.05-1.14c-0.7-0.74-0.71-0.74-0.76-1.33 c-0.13-1.38-0.77-3.16-1.57-4.45l-0.49-0.78l0.23-0.21c0.35-0.32,1.19-1.62,1.4-2.19c0.71-1.76,0.7-3.53-0.01-5.03 c-0.27-0.57-0.98-1.43-1.45-1.76L30.56,0.5l0.04,0.53c0.08,1.14-0.31,2.64-1,3.8c-0.4,0.69-1.75,2.11-2.1,2.22 c-0.12,0.04-0.39-0.02-0.67-0.13c-1.74-0.7-3.89-0.72-5.51-0.06c-0.34,0.15-0.65,0.21-0.78,0.18c-0.35-0.08-1.7-1.5-2.12-2.22 c-0.69-1.17-1.08-2.67-1-3.81c0.02-0.29,0.02-0.53,0-0.53C17.38,0.49,17.06,0.79,16.7,1.15z"/>
<path d="M4.51,15.28c-0.6,0.17-0.71,0.33-2.27,3.44c-1.79,3.56-1.84,3.67-1.68,4.2c0.3,1.02,1.49,1.39,2.33,0.73 c0.13-0.11,0.69-1.09,1.36-2.44c0.63-1.23,1.17-2.24,1.2-2.22c0.1,0.03,5.03,3.84,5.03,3.89c0,0.02-0.14,0.5-0.31,1.07 c-0.17,0.56-0.36,1.29-0.42,1.6c-0.08,0.42-0.16,0.58-0.27,0.58c-0.08,0-1.93,0.2-4.11,0.45c-4.3,0.48-4.27,0.48-4.69,1.08 c-0.17,0.24-0.17,0.51-0.2,3.56c-0.03,3.29-0.03,3.31,0.18,3.72c0.23,0.44,0.81,0.83,1.27,0.83c0.45,0,1.04-0.39,1.26-0.83 c0.2-0.4,0.21-0.5,0.21-2.82c0-1.41,0.04-2.42,0.08-2.42c0.12,0,4.94-0.53,5.41-0.6l0.39-0.06v0.76c0,1.33,0.27,3.72,0.51,4.63 c0.05,0.19-0.34,0.4-4.25,2.38c-2.36,1.2-4.41,2.26-4.55,2.35c-0.31,0.22-0.57,0.9-0.5,1.31c0.06,0.43,3.14,6.4,3.43,6.65 c0.94,0.85,2.43,0.17,2.43-1.11c0-0.23-0.34-0.99-1.2-2.67c-0.67-1.31-1.17-2.4-1.13-2.44c0.12-0.12,6.66-3.43,6.69-3.39 c0.02,0.02,0.29,0.55,0.59,1.19c2.34,4.87,6.67,8.23,11.23,8.71l0.73,0.07V24.01h-0.59c-0.33,0-1.08-0.06-1.68-0.14 c-3.56-0.47-6.48-1.87-8.26-3.98l-0.49-0.57l-0.21,0.37c-0.12,0.2-0.25,0.37-0.29,0.37s-1.42-1.04-3.05-2.3 c-1.65-1.27-3.13-2.36-3.3-2.44C5.04,15.18,4.87,15.17,4.51,15.28z"/>
<path d="M42.57,15.33c-0.16,0.07-1.64,1.17-3.28,2.43c-1.64,1.26-3.02,2.3-3.05,2.3c-0.04,0-0.18-0.18-0.29-0.39 l-0.21-0.38l-0.24,0.31c-0.98,1.31-3.04,2.74-4.96,3.43c-1.51,0.54-3.83,0.97-5.22,0.97h-0.59v11.74V47.5l0.71-0.07 c4.61-0.5,8.9-3.81,11.26-8.71c0.31-0.63,0.57-1.17,0.59-1.19c0.03-0.04,6.56,3.27,6.69,3.39c0.04,0.05-0.47,1.13-1.13,2.43 c-1.27,2.47-1.33,2.69-1.07,3.3c0.17,0.4,0.63,0.78,1.03,0.85c0.4,0.07,0.97-0.08,1.27-0.36c0.31-0.28,3.37-6.27,3.43-6.7 c0.05-0.4-0.24-1.09-0.55-1.3c-0.11-0.07-2.14-1.11-4.5-2.31c-3.92-1.98-4.3-2.2-4.26-2.38c0.25-0.91,0.52-3.3,0.52-4.63v-0.76 l0.4,0.06c0.47,0.06,5.28,0.6,5.4,0.6c0.05,0,0.08,1,0.08,2.42c0,2.32,0.01,2.43,0.21,2.82c0.22,0.44,0.81,0.83,1.26,0.83 c0.45,0,1.04-0.39,1.27-0.83c0.2-0.4,0.2-0.47,0.2-3.58s0-3.19-0.2-3.58c-0.37-0.72-0.38-0.72-4.75-1.21 c-2.15-0.24-3.98-0.44-4.06-0.44c-0.11,0-0.18-0.16-0.27-0.58c-0.06-0.31-0.26-1.04-0.42-1.6c-0.17-0.57-0.31-1.06-0.31-1.08 c0-0.05,4.93-3.86,5.04-3.9c0.04-0.01,0.52,0.9,1.07,2.01c0.56,1.12,1.12,2.2,1.26,2.38c0.63,0.9,2.02,0.78,2.46-0.21 c0.1-0.21,0.19-0.5,0.19-0.63c0-0.15-0.7-1.65-1.65-3.56c-1.41-2.82-1.69-3.33-1.96-3.49C43.5,15.22,42.95,15.15,42.57,15.33z"/>
</g>
</svg>