<svg version="1.1" xmlns="http://www.w3.org/2000/svg" xmlns:xlink="http://www.w3.org/1999/xlink" x="0px" y="0px" width="48px" height="48px" viewBox="0 0 48 48" enable-background="new 0 0 48 48" xml:space="preserve">
<path fill="#C0C0C0" d="M45.832,3.066c-0.818-0.339-1.518-0.2-2.097,0.419l-3.893,3.863c-2.136-2.017-4.577-3.579-7.322-4.687 S26.935,1,24,1c-3.115,0-6.09,0.609-8.924,1.827C12.24,4.045,9.794,5.682,7.738,7.738c-2.056,2.057-3.693,4.502-4.911,7.337 C1.609,17.911,1,20.885,1,24c0,3.114,0.609,6.089,1.827,8.925c1.218,2.835,2.855,5.28,4.911,7.337 c2.057,2.057,4.502,3.693,7.338,4.911C17.91,46.391,20.886,47,24,47c3.434,0,6.699-0.724,9.794-2.171 c3.094-1.447,5.728-3.489,7.905-6.126c0.161-0.198,0.234-0.423,0.225-0.673c-0.01-0.249-0.104-0.453-0.285-0.614l-4.101-4.133 c-0.222-0.18-0.471-0.268-0.75-0.268c-0.318,0.039-0.548,0.159-0.688,0.359c-1.457,1.896-3.243,3.363-5.36,4.402 c-2.115,1.038-4.361,1.558-6.738,1.558c-2.076,0-4.058-0.405-5.945-1.214c-1.887-0.808-3.519-1.901-4.896-3.279 s-2.47-3.01-3.279-4.896c-0.809-1.887-1.213-3.868-1.213-5.944s0.404-4.059,1.213-5.945c0.809-1.887,1.901-3.519,3.279-4.896 c1.378-1.378,3.009-2.472,4.896-3.28c1.887-0.809,3.869-1.212,5.945-1.212c4.014,0,7.497,1.367,10.452,4.103l-4.134,4.132 c-0.619,0.599-0.758,1.288-0.42,2.066c0.339,0.799,0.93,1.198,1.768,1.198h13.416c0.52,0,0.97-0.19,1.349-0.569S47,18.77,47,18.25 V4.833C47,3.996,46.611,3.406,45.832,3.066z"/>
</svg>