<svg version="1.1" xmlns="http://www.w3.org/2000/svg" xmlns:xlink="http://www.w3.org/1999/xlink" x="0px" y="0px" width="48px" height="48px" viewBox="0 0 48 48" enable-background="new 0 0 48 48" xml:space="preserve">
<g fill="#202020">
<path d="M17.356,47.774l-0.259-1.284L16.702,35.85L4.623,22.45L9.852,7.52l0.289-0.538l1.148,0.378l2.336-7.134 l6.685,2.089l0.064,0.497l-2.182,6.932l0.106,0.237l0.953,0.302l2.573-7.418l6.855,2.366l-5.04,15.167l-6.713-3.093l-1.29,4.14 l19.325,5.063l-1.331,21.106l-7.731-0.013"/>
<path d="M29.706,6.769l6.696,2.768l-5.719,14.025l-6.372-2.567l-0.373-0.231"/>
<path d="M37.36,11.104l6.017,2.715l-4.922,11.186l-0.793,0.869l-5.761-2.579"/>
</g>
</svg>