<svg version="1.1" xmlns="http://www.w3.org/2000/svg" xmlns:xlink="http://www.w3.org/1999/xlink" x="0px" y="0px" width="48px" height="48px" viewBox="0 0 48 48" enable-background="new 0 0 48 48" xml:space="preserve">
<g fill="#202020">
<circle cx="26.517" cy="18.876" r="2.516"/>
<path d="M18.912,20.405c-4.577,2.304-7.664,4.069-8.42,4.83c-0.761,0.756-1.197,1.754-1.197,2.731 c0,0.767,0.274,1.465,0.772,1.961c0.498,0.5,1.191,0.771,1.958,0.771c0.978,0,1.975-0.432,2.731-1.193 c0.886-0.886,2.915-4.604,4.836-8.428l-0.094-0.578L18.912,20.405z"/>
<path d="M46,41.875v-0.75H27v-1h-1v-3.639h15.609c1.383,0.001,2.516-1.135,2.516-2.516l0.002-28.188 c0-1.386-1.133-2.516-2.516-2.516L6.392,3.266c-1.383,0-2.516,1.13-2.516,2.516L3.874,33.969c0,1.382,1.134,2.516,2.518,2.517H22 v3.64h-1v1H2v0.75c0.552,0,1,0.561,1,1.25s-0.448,1.25-1,1.25v0.75h19v1h6v-1h19v-0.75c-0.553,0-1-0.561-1-1.25 S45.447,41.875,46,41.875z M40.354,5.784c0.692,0,1.258,0.565,1.257,1.257c0,0.693-0.564,1.258-1.257,1.258 s-1.258-0.564-1.258-1.258C39.096,6.349,39.661,5.784,40.354,5.784z M40.353,31.455c0.692,0,1.257,0.564,1.257,1.258 c0,0.691-0.565,1.258-1.258,1.258s-1.258-0.566-1.257-1.258C39.095,32.021,39.66,31.455,40.353,31.455z M17.066,31.818 c-1.36,1.365-3.202,2.15-5.04,2.15c-1.642,0-3.16-0.612-4.275-1.729c-1.113-1.115-1.727-2.635-1.727-4.274 c0-1.838,0.784-3.681,2.152-5.046c0.335-0.334,1.19-1.189,5.803-3.646l-0.041-0.398c0-6.946,5.631-12.578,12.578-12.578 c6.947,0.001,12.578,5.632,12.577,12.579c0,6.947-5.63,12.578-12.578,12.578c-2.799-0.001-5.358-0.944-7.449-2.492 C18.239,30.354,17.561,31.321,17.066,31.818z"/>
</g>
</svg>