<svg version="1.1" xmlns="http://www.w3.org/2000/svg" xmlns:xlink="http://www.w3.org/1999/xlink" x="0px" y="0px" width="48px" height="48px" viewBox="0 0 48 48" enable-background="new 0 0 48 48" xml:space="preserve">
<path fill="#202020" d="M34.196,0H13.402c-1.067,0-1.928,0.992-1.928,2.215v43.571c0,1.222,0.862,2.214,1.928,2.214h20.794 c1.063,0,1.929-0.992,1.929-2.214V2.215C36.123,0.991,35.26,0,34.196,0z M21.667,2.614h4.26c0.223,0,0.402,0.206,0.402,0.462 c0,0.255-0.18,0.461-0.402,0.461h-4.26c-0.221,0-0.402-0.206-0.402-0.461C21.265,2.82,21.447,2.614,21.667,2.614z M26.371,44.063 h-5.146c-0.422,0-0.765-0.393-0.765-0.876c0-0.486,0.342-0.876,0.765-0.876h5.146c0.422,0,0.761,0.39,0.761,0.876 C27.135,43.67,26.793,44.063,26.371,44.063z M33.714,38.894h-19.83V7.507h19.83V38.894z"/>
</svg>