<svg version="1.1" xmlns="http://www.w3.org/2000/svg" xmlns:xlink="http://www.w3.org/1999/xlink" x="0px" y="0px" width="48px" height="48px" viewBox="0 0 48 48" enable-background="new 0 0 48 48" xml:space="preserve">
<path fill="#202020" d="M34.984,0.384C25.208,0.384,24,1.373,24,9.72c0,6.042-2.847,8.308-4.283,9.337 c-0.537,0.383-0.929,0.625-1.209,1.098c-0.549,0.926-0.999,1.267-1.853,1.51c-0.74,0.21-1.662,0.577-2.541,1.785 c-0.878,1.208-2.197,2.197-3.075,2.197c-1.978,0-6.81-5.053-6.81-7.14c0-0.878-0.439-1.647-1.098-1.647 c-0.549,0-1.098,2.746-1.098,6.15c0,5.821,0.22,6.261,5.491,11.424c4.614,4.394,5.492,6.041,5.492,9.226 c0,3.186,0.439,3.955,2.197,3.955c1.208,0,2.197-0.44,2.197-0.989c0-0.551-0.549-1.209-1.318-1.428 c-0.878-0.329-0.219-1.538,1.648-3.517c2.637-2.632,3.186-2.744,4.613-1.316C23.23,41.245,24,43.222,24,44.76 c0,2.086,0.549,2.855,2.197,2.855c1.207,0,2.196-0.438,2.196-1.097c0-0.551-0.439-1.099-1.099-1.099 c-0.549,0-1.098-1.869-1.098-4.175c0-2.857,0.657-4.613,2.196-5.712c1.208-0.877,1.488-1.278,2.022-2.561 c0.295-0.71,0.941-1.395,1.272-1.833c0.436-0.576,1.099-1.757,1.099-3.845c0-2.086,0.55-3.843,1.098-3.843 c0.659,0,1.1,0.549,1.1,1.098c0,0.659,0.549,1.098,1.098,1.098c0.659,0,1.099-0.987,1.099-2.196c0-1.428-0.769-2.197-2.196-2.197 c-1.429,0-2.197-0.77-2.197-2.197c0-1.868,0.769-2.197,4.394-2.197c2.416,0,4.394-0.439,4.394-1.099 c0-0.549-1.428-1.098-3.296-1.098c-1.757,0-3.294-0.439-3.294-1.099c0-0.549,2.525-1.098,5.491-1.098h5.492V7.963 C45.968,1.592,44.211,0.384,34.984,0.384z M29.491,5.876c-0.548,0-1.098-0.439-1.098-1.099c0-0.549,0.55-1.098,1.098-1.098 c0.659,0,1.1,0.549,1.1,1.098C30.591,5.437,30.15,5.876,29.491,5.876z"/>
</svg>