<svg version="1.1" xmlns="http://www.w3.org/2000/svg" xmlns:xlink="http://www.w3.org/1999/xlink" x="0px" y="0px" width="48px" height="48px" viewBox="0 0 48 48" enable-background="new 0 0 48 48" xml:space="preserve">
<g fill="#202020">
<rect x="5.086" y="18.542" width="5.998" height="2.312"/>
<path d="M27.307,33.172l-1.851,1.85l2.193,2.195c1.203,1.203,2.195,2.271,2.195,2.385 c0,0.098-0.992,1.186-2.195,2.389l-2.193,2.191l1.908,1.91L29.274,48l4.103-4.104c2.252-2.252,4.103-4.18,4.103-4.293 c0-0.191-8.015-8.301-8.205-8.301C29.215,31.301,28.338,32.141,27.307,33.172z"/>
<path d="M40.023,30.238l-4.142,4.141l4.198,4.199l4.197,4.197l1.852-1.869L48,39.055l-2.156-2.156 c-1.164-1.184-2.137-2.27-2.137-2.424c0-0.172,0.953-1.238,2.1-2.387c1.162-1.145,2.08-2.154,2.062-2.232 c-0.058-0.113-3.569-3.777-3.646-3.777C44.203,26.078,42.314,27.949,40.023,30.238z"/>
<path d="M22.628,44.181l2.037-2.036H3.429V13.035h41.139v11.099c3.432,3.596,0,0,3.432,3.596V7.854 c0-1.894-1.543-3.426-3.432-3.426H3.429C1.536,4.428,0,5.96,0,7.854v34.289c0,1.892,1.536,3.428,3.429,3.428h20.588L22.628,44.181z M42.7,6.5c1.284,0,2.325,1.042,2.325,2.326c0,1.284-1.041,2.325-2.325,2.325s-2.325-1.042-2.325-2.326 C40.375,7.541,41.416,6.5,42.7,6.5z"/>
</g>
</svg>