<svg version="1.1" xmlns="http://www.w3.org/2000/svg" xmlns:xlink="http://www.w3.org/1999/xlink" x="0px" y="0px" width="48px" height="48px" viewBox="0 0 48 48" enable-background="new 0 0 48 48" xml:space="preserve">
<g fill="#202020">
<path d="M33.856,8.277c-1.434,3.541-2.891,7.07-4.337,10.605c-0.079,0.191-0.692,1.311-0.477,1.443 c0.817,0.502,1.872,0.805,2.765,1.171c0.846,0.346,1.735,0.646,2.554,1.056c1.015,0.462,0.92,0.182,1.313-0.775 c1.615-3.942,3.485-7.854,4.853-11.89c0.129-0.376-4.353-1.98-5.02-2.255C34.28,7.127,34.394,6.933,33.856,8.277 C33.608,8.89,34.102,7.657,33.856,8.277z"/>
<path d="M41.28,11.417c-1.253,2.972-2.593,5.908-3.897,8.858c-0.259,0.586-1.011,1.667-1.011,2.327 c0,0.262,2.313,1.074,2.593,1.199c0.524,0.232,2.919,1.681,3.254,0.979c1.538-3.248,2.903-6.591,4.354-9.878 c0.276-0.629,0.785-1.088,0.034-1.405c-0.694-0.296-1.38-0.608-2.07-0.916C43.999,12.341,41.51,10.924,41.28,11.417 C41.116,11.808,41.349,11.272,41.28,11.417z"/>
<circle cx="12.346" cy="25.703" r="6.957"/>
<path d="M17.871,31.491c-1.142,2.026-3.187,2.751-5.526,2.751s-4.383-0.725-5.524-2.75 c-3.075,1.943-5.129,5.46-5.129,9.475c0,6.118,4.77,5.484,10.654,5.484c5.884,0,10.654,0.635,10.654-5.484 C23,36.951,20.946,33.434,17.871,31.491z"/>
<path d="M39.223,25.605c-0.52-0.721-3.829-1.021-4.687-1.241c-2.249-0.58-4.496-1.167-6.743-1.755 c-0.828-0.216-6.672-1.426-6.511-2.028c0.229-0.851,0.536-2.968,1.142-3.58c0.193-0.225,2.642,1.146,2.838,1.242 c1.102,0.54,2.187,1.125,3.312,1.612c0.249,0.108,0.855-2.101,0.926-2.306c0.564-1.673,1.133-3.386,1.619-5.054 c0.59-2.032,1.389-4.01,2.038-6.023c0.378-1.175-0.591-1.055-1.593-1.397c-1.484-0.507-2.967-1.025-4.453-1.528 c-0.254-0.086-1.792,4.832-2.051,5.592c-0.316,0.925-0.259,1.57-1.357,1.019c-0.349-0.167,0.957-3.59,1.085-3.999 c0.07-0.219,1.131-3.084,0.786-3.167c-1.554-0.24-3.159-0.985-4.661-1.459c-1.569-0.494-1.599-0.77-2.095,0.897 c-0.456,1.532-0.931,3.059-1.412,4.583c-0.447,1.412-1.136-0.363-1.704,1.227c-0.498,1.397-1.02,2.787-1.537,4.176 c-0.593,1.596-1.119,3.22-1.655,4.84c4.586,0.089,8.292,3.841,8.292,8.449c0,1.833-0.593,3.527-1.587,4.914 c3.311,2.351,5.285,6.158,5.285,10.35c0,1.912-0.421,3.399-1.264,4.509l7.545-0.152c0.77,0.001,7.2,0.13,7.204-0.072 c0.103-3.023,0.404-6.049,0.578-9.068c0.114-2.023,0.259-4.045,0.389-6.066C39.001,29.313,39.682,26.238,39.223,25.605z"/>
</g></svg>