<svg version="1.1" xmlns="http://www.w3.org/2000/svg" xmlns:xlink="http://www.w3.org/1999/xlink" x="0px" y="0px" width="48px" height="48px" viewBox="0 0 48 48" enable-background="new 0 0 48 48" xml:space="preserve">
<g fill="#202020">
<path d="M38.17,0H13.03L5.11,8.05V43.2c0,4.7,0.1,4.8,4.72,4.8h28.34c4.75,0,4.72-0.1,4.72-4.8V4.8 C42.89-0.07,42.96,0,38.17,0z M28.28,21.52c0.15,0,0.27,0.05,0.32,0.14h0V21h0.38v1.41c0,0.14,0.01,0.28,0.01,0.37h-0.34 l-0.02-0.18h0c-0.08,0.14-0.23,0.21-0.38,0.21c-0.29,0-0.52-0.25-0.52-0.63C27.73,21.76,27.99,21.52,28.28,21.52z M27.96,27.55 v0.28h-0.27v0.44c0,0.15,0.04,0.22,0.15,0.22c0.05,0,0.08,0,0.11-0.01l0,0.29c-0.05,0.02-0.14,0.03-0.25,0.03 c-0.12,0-0.23-0.04-0.29-0.11c-0.07-0.07-0.11-0.19-0.11-0.36v-0.5h-0.16v-0.28h0.16v-0.27l0.37-0.08v0.35H27.96z M27.12,22.77 v-1.22h0.38v1.22H27.12z M27.31,21.02c0.12,0,0.2,0.08,0.2,0.19c0,0.1-0.08,0.19-0.21,0.19c-0.12,0-0.2-0.08-0.2-0.19 C27.11,21.1,27.19,21.02,27.31,21.02z M26.4,27.83c-0.11,0-0.17,0.07-0.19,0.14C26.2,28,26.2,28.03,26.2,28.07v0.71h-0.38v-0.83 c0-0.15-0.01-0.28-0.01-0.39h0.33l0.02,0.17h0.01c0.05-0.08,0.17-0.2,0.38-0.2c0.25,0,0.44,0.17,0.44,0.53v0.73H26.6V28.1 C26.6,27.94,26.54,27.83,26.4,27.83z M25.31,31.49c0.05,0,0.09,0,0.11-0.01l0,0.29c-0.05,0.02-0.14,0.03-0.25,0.03 c-0.12,0-0.22-0.04-0.29-0.11c-0.07-0.07-0.1-0.19-0.1-0.36v-0.5h-0.16v-0.28h0.16v-0.27l0.37-0.08v0.35h0.27v0.28h-0.27v0.44 C25.16,31.42,25.2,31.49,25.31,31.49z M25.19,28.77l-0.02-0.17h-0.01c-0.05,0.08-0.16,0.2-0.38,0.2c-0.25,0-0.43-0.16-0.43-0.53 v-0.72h0.38v0.66c0,0.18,0.06,0.29,0.19,0.29c0.1,0,0.17-0.07,0.19-0.13c0.01-0.02,0.01-0.05,0.01-0.08v-0.73h0.38v0.83 c0,0.16,0.01,0.29,0.01,0.39H25.19z M21.66,22.84v0.21h-0.51v-1.99h0.51v0.21h-0.24v1.57H21.66z M20.41,28.65l0.08-0.29 c0.1,0.06,0.25,0.11,0.42,0.11c0.14,0,0.24-0.05,0.24-0.16c0-0.09-0.08-0.15-0.27-0.22c-0.27-0.09-0.45-0.21-0.45-0.46 c0-0.22,0.15-0.39,0.42-0.45v-0.24h0.25v0.22c0.17,0.01,0.28,0.04,0.36,0.08l-0.07,0.28c-0.06-0.03-0.18-0.09-0.36-0.09 c-0.16,0-0.21,0.07-0.21,0.14c0,0.08,0.09,0.13,0.3,0.21c0.3,0.11,0.42,0.24,0.42,0.47c0,0.22-0.16,0.41-0.45,0.46v0.25h-0.25 v-0.24C20.67,28.75,20.51,28.7,20.41,28.65z M19.94,22.52c0.13,0,0.23-0.02,0.34-0.05l0.05,0.26c-0.13,0.05-0.28,0.07-0.44,0.07 c-0.42,0-0.65-0.24-0.65-0.62c0-0.31,0.19-0.65,0.62-0.65c0.4,0,0.55,0.31,0.55,0.61c0,0.06-0.01,0.12-0.01,0.15H19.6 C19.61,22.44,19.76,22.52,19.94,22.52z M19.94,31.5c0.09,0,0.16-0.02,0.22-0.04l0.05,0.28c-0.07,0.03-0.2,0.06-0.34,0.06 c-0.4,0-0.65-0.24-0.65-0.63c0-0.36,0.25-0.65,0.7-0.65c0.1,0,0.21,0.02,0.29,0.05l-0.06,0.28c-0.05-0.02-0.11-0.04-0.21-0.04 c-0.2,0-0.33,0.14-0.33,0.34C19.61,31.38,19.76,31.5,19.94,31.5z M18.86,33.83c-0.1,0-0.17,0.07-0.19,0.14 c-0.01,0.02-0.01,0.06-0.01,0.09v0.71h-0.38v-0.83c0-0.15-0.01-0.28-0.01-0.39h0.33l0.02,0.17h0.01c0.05-0.08,0.18-0.2,0.38-0.2 c0.25,0,0.44,0.17,0.44,0.53v0.73h-0.38V34.1C19.05,33.94,19,33.83,18.86,33.83z M17.59,34.52c0.13,0,0.23-0.02,0.34-0.05 l0.05,0.26c-0.13,0.05-0.28,0.08-0.44,0.08c-0.42,0-0.65-0.24-0.65-0.62c0-0.31,0.19-0.65,0.62-0.65c0.4,0,0.55,0.31,0.55,0.61 c0,0.07-0.01,0.12-0.01,0.15h-0.79C17.26,34.44,17.41,34.52,17.59,34.52z M15.92,30.55v0.28h-0.24v0.94H15.3v-0.94h-0.16v-0.28 h0.16V30.5c0-0.15,0.04-0.31,0.16-0.41c0.09-0.09,0.23-0.12,0.34-0.12c0.09,0,0.15,0.01,0.2,0.03l-0.01,0.29 c-0.03-0.01-0.07-0.02-0.12-0.02c-0.13,0-0.18,0.1-0.18,0.22v0.06H15.92z M15.77,25.77h-0.34l-0.02-0.18H15.4 c-0.08,0.14-0.23,0.21-0.38,0.21c-0.29,0-0.52-0.25-0.52-0.63c0-0.41,0.26-0.65,0.55-0.65c0.15,0,0.27,0.05,0.32,0.14h0V24h0.38 v1.41C15.76,25.55,15.76,25.69,15.77,25.77z M15.12,27.52c0.4,0,0.55,0.31,0.55,0.61c0,0.07-0.01,0.12-0.01,0.15h-0.79 c0.01,0.16,0.17,0.23,0.35,0.23c0.13,0,0.24-0.02,0.34-0.05l0.05,0.26c-0.13,0.05-0.28,0.08-0.44,0.08c-0.42,0-0.65-0.24-0.65-0.62 C14.5,27.87,14.69,27.52,15.12,27.52z M14.76,30.4c-0.12,0-0.2-0.08-0.2-0.19c0-0.11,0.08-0.19,0.2-0.19s0.2,0.08,0.2,0.19 C14.96,30.32,14.88,30.4,14.76,30.4z M14.95,30.55v1.22h-0.38v-1.22H14.95z M14.62,33.55v-0.27l0.37-0.08v0.35h0.27v0.28h-0.27 v0.44c0,0.15,0.04,0.22,0.15,0.22c0.05,0,0.09,0,0.11-0.01l0,0.29c-0.05,0.02-0.14,0.03-0.25,0.03c-0.12,0-0.23-0.04-0.29-0.11 c-0.07-0.07-0.1-0.19-0.1-0.36v-0.5h-0.16v-0.28H14.62z M14.57,37.41V36h0.38v0.7h0c0.07-0.11,0.2-0.17,0.37-0.17 c0.29,0,0.51,0.24,0.51,0.62c0,0.44-0.28,0.66-0.56,0.66c-0.14,0-0.28-0.05-0.37-0.2h0l-0.02,0.17h-0.32 C14.56,37.69,14.57,37.55,14.57,37.41z M15.82,28.17c0-0.36,0.25-0.65,0.7-0.65c0.1,0,0.21,0.02,0.29,0.05l-0.06,0.28 c-0.05-0.02-0.11-0.04-0.21-0.04c-0.2,0-0.33,0.14-0.33,0.34c0,0.22,0.15,0.34,0.33,0.34c0.09,0,0.16-0.02,0.22-0.04l0.05,0.28 c-0.07,0.03-0.2,0.06-0.34,0.06C16.07,28.8,15.82,28.56,15.82,28.17z M16.85,21.7c0.04-0.05,0.09-0.09,0.15-0.13 c0.06-0.03,0.13-0.05,0.2-0.05c0.24,0,0.43,0.17,0.43,0.54v0.72h-0.38V22.1c0-0.16-0.06-0.27-0.2-0.27c-0.1,0-0.16,0.06-0.19,0.13 c-0.01,0.02-0.01,0.06-0.01,0.08v0.73h-0.38V21h0.38L16.85,21.7L16.85,21.7z M17.49,18.55v0.66c0,0.18,0.06,0.29,0.19,0.29 c0.1,0,0.17-0.07,0.19-0.13c0.01-0.02,0.01-0.05,0.01-0.08v-0.73h0.38v0.83c0,0.16,0.01,0.29,0.01,0.39h-0.33l-0.02-0.17h-0.01 c-0.05,0.08-0.16,0.2-0.38,0.2c-0.25,0-0.43-0.15-0.43-0.53v-0.72H17.49z M17.2,16.77V15h0.38v1.78H17.2z M17.6,27.83 c-0.1,0-0.16,0.07-0.19,0.13c-0.01,0.02-0.01,0.06-0.01,0.08v0.73h-0.38V27h0.38v0.7h0c0.04-0.05,0.09-0.09,0.15-0.13 c0.06-0.03,0.13-0.05,0.2-0.05c0.24,0,0.43,0.17,0.43,0.54v0.72H17.8V28.1C17.8,27.94,17.74,27.83,17.6,27.83z M17.93,22.77v-1.22 h0.38v1.22H17.93z M18.12,21.4c-0.12,0-0.2-0.08-0.2-0.19c0-0.11,0.08-0.19,0.2-0.19s0.2,0.08,0.2,0.19 C18.32,21.32,18.24,21.4,18.12,21.4z M18.07,15.4c-0.12,0-0.2-0.08-0.2-0.19c0-0.11,0.08-0.19,0.2-0.19s0.2,0.08,0.2,0.19 C18.28,15.32,18.2,15.4,18.07,15.4z M18.26,15.55v1.22h-0.38v-1.22H18.26z M16.64,24.52c0.38,0,0.63,0.26,0.63,0.63 c0,0.45-0.32,0.65-0.65,0.65c-0.36,0-0.63-0.24-0.63-0.63C15.99,24.78,16.25,24.52,16.64,24.52z M16.63,30.06h0.51v0.21H16.9v1.57 h0.24v0.21h-0.51V30.06z M17.89,31.65l0.08-0.29c0.1,0.06,0.25,0.11,0.42,0.11c0.14,0,0.24-0.05,0.24-0.16 c0-0.09-0.08-0.15-0.27-0.22c-0.27-0.09-0.45-0.21-0.45-0.46c0-0.22,0.15-0.39,0.42-0.45v-0.24h0.25v0.22 c0.17,0.01,0.28,0.04,0.36,0.08l-0.07,0.28c-0.07-0.03-0.18-0.09-0.36-0.09c-0.16,0-0.22,0.07-0.22,0.14c0,0.08,0.09,0.13,0.3,0.21 c0.3,0.11,0.42,0.24,0.42,0.47c0,0.22-0.16,0.41-0.45,0.46v0.25h-0.25v-0.24C18.14,31.75,17.98,31.7,17.89,31.65z M19.16,18.83 c-0.1,0-0.17,0.07-0.19,0.14c-0.01,0.02-0.01,0.06-0.01,0.1v0.71h-0.38v-0.83c0-0.15-0.01-0.28-0.01-0.39h0.33l0.02,0.17h0.01 c0.05-0.08,0.18-0.19,0.38-0.19c0.25,0,0.44,0.17,0.44,0.53v0.73h-0.38V19.1C19.35,18.94,19.29,18.83,19.16,18.83z M19,21v1.78 h-0.38V21H19z M19.06,27.52c0.38,0,0.63,0.26,0.63,0.63c0,0.45-0.32,0.65-0.65,0.65c-0.36,0-0.63-0.24-0.63-0.63 C18.41,27.78,18.67,27.52,19.06,27.52z M20.18,19.69c-0.07-0.07-0.11-0.19-0.11-0.36v-0.5h-0.16v-0.28h0.16v-0.27l0.37-0.09v0.35 h0.27v0.28h-0.27v0.44c0,0.15,0.04,0.22,0.15,0.22c0.05,0,0.09,0,0.11-0.01l0,0.29c-0.05,0.02-0.14,0.03-0.25,0.03 C20.34,19.8,20.24,19.76,20.18,19.69z M22.25,15.55v0.28h-0.27v0.44c0,0.15,0.04,0.22,0.15,0.22c0.05,0,0.09,0,0.11-0.01l0,0.29 c-0.05,0.02-0.14,0.03-0.25,0.03c-0.12,0-0.23-0.04-0.29-0.1c-0.07-0.07-0.1-0.19-0.1-0.36v-0.5h-0.16v-0.28h0.16v-0.27l0.37-0.09 v0.35H22.25z M22.17,18.73v0.23h-1.29v-0.23H22.17z M21.3,15.96h-1.29v-0.23h1.29V15.96z M21.3,16.25v0.23h-1.29v-0.23H21.3z M20.88,19.48v-0.23h1.29v0.23H20.88z M22.45,27.52c0.1,0,0.21,0.02,0.29,0.05l-0.06,0.28c-0.05-0.02-0.11-0.04-0.21-0.04 c-0.2,0-0.33,0.14-0.33,0.34c0,0.22,0.15,0.34,0.33,0.34c0.09,0,0.16-0.02,0.22-0.04l0.04,0.28c-0.07,0.03-0.19,0.06-0.34,0.06 c-0.4,0-0.65-0.24-0.65-0.63C21.75,27.82,21.99,27.52,22.45,27.52z M22.87,22.09c-0.27-0.09-0.45-0.22-0.45-0.46 c0-0.22,0.15-0.39,0.42-0.45v-0.24h0.25v0.22c0.17,0.01,0.28,0.04,0.36,0.08l-0.07,0.28c-0.06-0.03-0.18-0.08-0.36-0.08 c-0.16,0-0.21,0.07-0.21,0.14c0,0.08,0.09,0.14,0.3,0.22c0.3,0.1,0.42,0.24,0.42,0.47c0,0.22-0.16,0.41-0.45,0.46v0.26h-0.25v-0.24 c-0.17-0.01-0.33-0.05-0.43-0.11l0.08-0.29c0.1,0.06,0.25,0.11,0.42,0.11c0.14,0,0.24-0.05,0.24-0.15 C23.13,22.21,23.05,22.15,22.87,22.09z M21.83,30.55h0.38v0.66c0,0.18,0.06,0.29,0.19,0.29c0.1,0,0.17-0.07,0.19-0.13 c0.01-0.02,0.01-0.05,0.01-0.08v-0.73h0.38v0.83c0,0.16,0,0.29,0.01,0.39h-0.33l-0.02-0.17h-0.01c-0.05,0.08-0.16,0.2-0.38,0.2 c-0.25,0-0.43-0.16-0.43-0.53V30.55z M22.85,28.17c0-0.39,0.26-0.65,0.65-0.65c0.38,0,0.63,0.26,0.63,0.63 c0,0.45-0.32,0.65-0.65,0.65C23.12,28.8,22.85,28.57,22.85,28.17z M24.12,22.77l-0.45-1.22h0.41l0.17,0.57 c0.03,0.1,0.05,0.2,0.07,0.3h0.01c0.02-0.1,0.04-0.19,0.07-0.3l0.16-0.57h0.4l-0.46,1.22H24.12z M25.5,16.52 c0.13,0,0.24-0.02,0.34-0.05l0.05,0.26c-0.13,0.05-0.28,0.07-0.44,0.07c-0.42,0-0.65-0.24-0.65-0.62c0-0.31,0.19-0.65,0.62-0.65 c0.4,0,0.55,0.31,0.55,0.61c0,0.06-0.01,0.12-0.01,0.15h-0.79C25.17,16.44,25.33,16.52,25.5,16.52z M25.43,22.8 c-0.25,0-0.4-0.18-0.4-0.38c0-0.32,0.29-0.47,0.72-0.47v-0.02c0-0.06-0.04-0.16-0.22-0.16c-0.13,0-0.26,0.04-0.34,0.09l-0.07-0.25 c0.09-0.05,0.25-0.11,0.48-0.11c0.41,0,0.54,0.24,0.54,0.53v0.43c0,0.12,0.01,0.23,0.02,0.3h-0.34l-0.02-0.12h-0.01 C25.7,22.75,25.57,22.8,25.43,22.8z M26.43,22.77V21h0.38v1.78H26.43z M25.81,12h0.38v0.7h0c0.04-0.05,0.09-0.09,0.15-0.13 c0.05-0.03,0.13-0.05,0.2-0.05c0.24,0,0.43,0.17,0.43,0.54v0.72H26.6V13.1c0-0.16-0.06-0.27-0.2-0.27c-0.1,0-0.16,0.06-0.19,0.13 c-0.01,0.02-0.01,0.06-0.01,0.08v0.73h-0.38V12z M25.04,13.29c-0.25-0.08-0.35-0.22-0.35-0.37c0-0.23,0.19-0.4,0.5-0.4 c0.14,0,0.27,0.03,0.35,0.07l-0.07,0.26c-0.05-0.03-0.16-0.07-0.27-0.07c-0.09,0-0.14,0.04-0.14,0.1c0,0.06,0.05,0.09,0.2,0.14 c0.23,0.08,0.33,0.2,0.33,0.38c0,0.23-0.18,0.4-0.53,0.4c-0.16,0-0.3-0.03-0.4-0.08l0.07-0.27c0.07,0.04,0.22,0.09,0.33,0.09 c0.12,0,0.16-0.04,0.16-0.1S25.18,13.34,25.04,13.29z M24.57,16.77h-0.33l-0.02-0.17h-0.01c-0.05,0.08-0.16,0.2-0.38,0.2 c-0.25,0-0.43-0.15-0.43-0.53v-0.72h0.38v0.66c0,0.18,0.06,0.29,0.19,0.29c0.1,0,0.17-0.07,0.19-0.13 c0.01-0.02,0.01-0.05,0.01-0.08v-0.73h0.38v0.83C24.56,16.54,24.57,16.67,24.57,16.77z M23.82,12.78c-0.13,0-0.26,0.04-0.34,0.09 l-0.07-0.25c0.08-0.05,0.25-0.11,0.48-0.11c0.41,0,0.54,0.24,0.54,0.53v0.43c0,0.12,0,0.23,0.02,0.3H24.1l-0.02-0.12h-0.01 c-0.08,0.1-0.21,0.15-0.35,0.15c-0.25,0-0.4-0.18-0.4-0.38c0-0.32,0.29-0.47,0.72-0.47v-0.02C24.05,12.88,24.01,12.78,23.82,12.78z M23.23,19.77h-0.37v-1.29h-0.01l-0.31,0.15l-0.06-0.29l0.43-0.2h0.32V19.77z M23.22,15.89c-0.03-0.01-0.06-0.01-0.1-0.01 c-0.14,0-0.24,0.08-0.26,0.19c0,0.02-0.01,0.06-0.01,0.08v0.62h-0.38v-0.82c0-0.18-0.01-0.3-0.01-0.4h0.33l0.01,0.23h0.01 c0.06-0.18,0.21-0.25,0.33-0.25c0.04,0,0.05,0,0.08,0V15.89z M21.91,13.41V12h0.38v0.7h0c0.07-0.1,0.2-0.17,0.37-0.17 c0.29,0,0.51,0.24,0.51,0.62c0,0.44-0.28,0.66-0.56,0.66c-0.14,0-0.28-0.05-0.37-0.2h0l-0.02,0.17H21.9 C21.91,13.69,21.91,13.55,21.91,13.41z M21.51,12.06h0.25l-0.54,1.81h-0.25L21.51,12.06z M19.94,12.55l0.02,0.17h0.01 c0.05-0.08,0.18-0.19,0.38-0.19c0.25,0,0.44,0.17,0.44,0.53v0.73H20.4V13.1c0-0.16-0.06-0.27-0.19-0.27c-0.1,0-0.17,0.07-0.19,0.14 C20.01,13,20,13.03,20,13.07v0.71h-0.38v-0.83c0-0.15-0.01-0.28-0.01-0.39H19.94z M19.38,15.66V15h0.38v1.41 c0,0.14,0,0.28,0.01,0.37h-0.34l-0.02-0.18H19.4c-0.08,0.14-0.23,0.21-0.38,0.21c-0.29,0-0.52-0.25-0.52-0.63 c0-0.41,0.26-0.65,0.55-0.65C19.2,15.52,19.31,15.58,19.38,15.66L19.38,15.66z M18.94,13.77v-1.22h0.38v1.22H18.94z M19.13,12.02 c0.12,0,0.2,0.08,0.2,0.19c0,0.1-0.08,0.19-0.21,0.19c-0.12,0-0.2-0.08-0.2-0.19C18.92,12.1,19,12.02,19.13,12.02z M17.44,13.41V12 h0.38v0.7h0c0.07-0.1,0.2-0.17,0.37-0.17c0.29,0,0.51,0.24,0.51,0.62c0,0.44-0.28,0.66-0.56,0.66c-0.14,0-0.28-0.05-0.37-0.2h0 l-0.02,0.17h-0.32C17.44,13.69,17.44,13.55,17.44,13.41z M17.04,12.06h0.25l-0.54,1.81H16.5L17.04,12.06z M16.32,12.09l-0.06,1.13 h-0.29l-0.06-1.13H16.32z M16.13,13.35c0.13,0,0.22,0.09,0.22,0.23c0,0.13-0.09,0.23-0.22,0.23c-0.14,0-0.23-0.1-0.23-0.23 C15.9,13.44,15.99,13.35,16.13,13.35z M16.29,15.78c-0.13,0-0.26,0.04-0.34,0.09l-0.07-0.25c0.08-0.05,0.25-0.11,0.48-0.11 c0.41,0,0.54,0.24,0.54,0.53v0.43c0,0.12,0,0.23,0.02,0.3h-0.34l-0.02-0.12h-0.01c-0.08,0.1-0.21,0.15-0.35,0.15 c-0.25,0-0.4-0.18-0.4-0.38c0-0.32,0.29-0.47,0.72-0.47v-0.02C16.51,15.88,16.48,15.78,16.29,15.78z M16.25,18.52 c0.38,0,0.63,0.26,0.63,0.63c0,0.45-0.32,0.65-0.65,0.65c-0.36,0-0.63-0.23-0.63-0.63S15.86,18.52,16.25,18.52z M15.28,12.58 l0.06-0.44h0.22l-0.06,0.44h0.2v0.23h-0.24l-0.04,0.28h0.21v0.23h-0.25l-0.06,0.45H15.1l0.06-0.45h-0.23l-0.06,0.45h-0.23 l0.07-0.45h-0.2V13.1h0.24l0.04-0.28h-0.21v-0.23h0.25l0.06-0.44h0.22l-0.06,0.44H15.28z M7.43,9.97l7.48-7.53v7.53H7.43z M14.85,15.55l0.17,0.57c0.03,0.1,0.05,0.2,0.07,0.3h0.01c0.02-0.1,0.04-0.19,0.07-0.3l0.16-0.57h0.4l-0.46,1.22h-0.38l-0.45-1.22 H14.85z M15.22,19.5c0.09,0,0.16-0.01,0.22-0.04l0.04,0.28c-0.07,0.03-0.19,0.06-0.34,0.06c-0.4,0-0.65-0.24-0.65-0.63 c0-0.36,0.25-0.65,0.7-0.65c0.1,0,0.21,0.02,0.29,0.05l-0.06,0.28c-0.05-0.02-0.11-0.04-0.21-0.04c-0.2,0-0.33,0.14-0.33,0.34 C14.89,19.38,15.04,19.5,15.22,19.5z M14.83,21.55l0.1,0.5c0.02,0.13,0.05,0.26,0.07,0.4h0c0.03-0.14,0.06-0.28,0.09-0.4l0.13-0.5 h0.3l0.12,0.49c0.03,0.14,0.07,0.28,0.09,0.42h0c0.02-0.14,0.04-0.28,0.07-0.42l0.1-0.49h0.37l-0.38,1.22h-0.36l-0.12-0.43 c-0.03-0.12-0.05-0.23-0.08-0.38h0c-0.02,0.15-0.05,0.27-0.08,0.38l-0.12,0.43H14.8l-0.36-1.22H14.83z M14.45,39.55h0.16V39.5 c0-0.34,0.26-0.53,0.64-0.53c0.13,0,0.29,0.03,0.36,0.08l-0.07,0.29c-0.06-0.03-0.16-0.06-0.28-0.06c-0.2,0-0.27,0.1-0.27,0.24 v0.04h0.74v1.22h-0.38v-0.94h-0.36v0.94h-0.38v-0.94h-0.16V39.55z M15.12,44.06h-0.27c-0.14-0.19-0.29-0.53-0.29-1.01 c0-0.49,0.15-0.82,0.29-1.01h0.27c-0.14,0.23-0.25,0.57-0.25,1.01C14.86,43.5,14.98,43.83,15.12,44.06z M15.9,44.06h-0.27 c-0.14-0.19-0.29-0.53-0.29-1.01c0-0.49,0.15-0.82,0.29-1.01h0.27c-0.14,0.23-0.25,0.57-0.25,1.01 C15.65,43.5,15.76,43.83,15.9,44.06z M15.88,33.96c-0.01,0.02-0.01,0.06-0.01,0.08v0.73h-0.38V33h0.38v0.7h0 c0.04-0.05,0.09-0.09,0.15-0.13c0.06-0.03,0.13-0.05,0.2-0.05c0.24,0,0.43,0.17,0.43,0.54v0.72h-0.38V34.1 c0-0.16-0.06-0.27-0.2-0.27C15.97,33.83,15.91,33.9,15.88,33.96z M16.05,36.55h0.33l0.01,0.23h0.01c0.06-0.18,0.21-0.25,0.33-0.25 c0.04,0,0.05,0,0.08,0v0.36c-0.03,0-0.06-0.01-0.1-0.01c-0.14,0-0.24,0.08-0.26,0.19c0,0.03-0.01,0.06-0.01,0.09v0.62h-0.38v-0.82 C16.06,36.77,16.06,36.66,16.05,36.55z M16.79,43.5c0.09,0,0.16-0.02,0.22-0.04l0.04,0.28c-0.07,0.03-0.19,0.06-0.34,0.06 c-0.4,0-0.65-0.24-0.65-0.63c0-0.36,0.25-0.65,0.7-0.65c0.1,0,0.21,0.02,0.29,0.05L17,42.85c-0.05-0.02-0.11-0.04-0.21-0.04 c-0.2,0-0.33,0.14-0.33,0.34C16.46,43.38,16.61,43.5,16.79,43.5z M16.92,37.18c0-0.31,0.19-0.65,0.62-0.65 c0.4,0,0.55,0.31,0.55,0.61c0,0.07-0.01,0.12-0.01,0.15h-0.79c0.01,0.16,0.17,0.23,0.35,0.23c0.13,0,0.23-0.02,0.34-0.05l0.05,0.26 c-0.13,0.05-0.28,0.08-0.44,0.08C17.16,37.8,16.92,37.56,16.92,37.18z M17.8,43.8c-0.36,0-0.63-0.24-0.63-0.63 c0-0.39,0.26-0.65,0.65-0.65c0.38,0,0.63,0.26,0.63,0.63C18.45,43.6,18.13,43.8,17.8,43.8z M18.23,37.43 c0-0.32,0.29-0.47,0.72-0.47v-0.02c0-0.07-0.03-0.16-0.22-0.16c-0.13,0-0.26,0.04-0.34,0.09l-0.07-0.25 c0.08-0.05,0.25-0.11,0.48-0.11c0.41,0,0.54,0.24,0.54,0.53v0.43c0,0.12,0,0.23,0.02,0.3h-0.34l-0.02-0.12h-0.01 c-0.08,0.1-0.21,0.15-0.35,0.15C18.38,37.8,18.23,37.62,18.23,37.43z M19.52,43.77L19.5,43.6h-0.01c-0.05,0.08-0.16,0.2-0.38,0.2 c-0.25,0-0.43-0.16-0.43-0.53v-0.72h0.38v0.66c0,0.18,0.06,0.29,0.19,0.29c0.1,0,0.17-0.07,0.19-0.13 c0.01-0.02,0.01-0.05,0.01-0.08v-0.73h0.38v0.83c0,0.16,0.01,0.29,0.01,0.39H19.52z M20.01,37.39v0.38h-0.38V36h0.38v1.07h0 c0.03-0.05,0.06-0.1,0.09-0.15l0.25-0.37h0.46l-0.44,0.5l0.5,0.73h-0.47l-0.29-0.5L20.01,37.39z M21.3,43.77h-0.38V43.1 c0-0.16-0.06-0.27-0.19-0.27c-0.1,0-0.17,0.07-0.19,0.14c-0.01,0.02-0.01,0.06-0.01,0.09v0.71h-0.38v-0.83 c0-0.15-0.01-0.28-0.01-0.39h0.33l0.02,0.17h0.01c0.05-0.08,0.18-0.2,0.38-0.2c0.25,0,0.44,0.17,0.44,0.53V43.77z M20.95,31.8 c-0.36,0-0.63-0.24-0.63-0.63c0-0.39,0.26-0.65,0.65-0.65c0.38,0,0.63,0.26,0.63,0.63C21.6,31.6,21.28,31.8,20.95,31.8z M22.29,42.83h-0.27v0.44c0,0.15,0.04,0.22,0.15,0.22c0.05,0,0.09,0,0.11-0.01l0,0.29c-0.05,0.02-0.14,0.03-0.25,0.03 c-0.12,0-0.23-0.04-0.29-0.11c-0.07-0.07-0.11-0.19-0.11-0.36v-0.5h-0.16v-0.28h0.16v-0.27l0.37-0.08v0.35h0.27V42.83z M23.75,43.22h-0.52v0.55h-0.25v-0.55h-0.52v-0.24h0.52v-0.54h0.25v0.54h0.52V43.22z M23.68,30.97c-0.01,0.02-0.01,0.06-0.01,0.09 v0.71h-0.38v-0.83c0-0.15-0.01-0.28-0.01-0.39h0.33l0.02,0.17h0.01c0.05-0.08,0.18-0.2,0.38-0.2c0.25,0,0.44,0.17,0.44,0.53v0.73 h-0.38V31.1c0-0.16-0.06-0.27-0.19-0.27C23.77,30.83,23.71,30.9,23.68,30.97z M25.24,43.22h-0.52v0.55h-0.25v-0.55h-0.52v-0.24 h0.52v-0.54h0.25v0.54h0.52V43.22z M25.69,44.06h-0.27c0.14-0.23,0.25-0.57,0.25-1.01s-0.11-0.78-0.25-1.01h0.27 c0.13,0.19,0.29,0.52,0.29,1.01C25.97,43.54,25.82,43.87,25.69,44.06z M26.08,30.99h0.66v0.25h-0.66V30.99z M26.47,44.06h-0.27 c0.14-0.23,0.25-0.57,0.25-1.01s-0.11-0.78-0.25-1.01h0.27c0.13,0.19,0.29,0.52,0.29,1.01C26.75,43.54,26.6,43.87,26.47,44.06z M28.09,31.28H27.3c0.01,0.16,0.17,0.23,0.35,0.23c0.13,0,0.24-0.02,0.34-0.05l0.05,0.26c-0.13,0.05-0.28,0.08-0.44,0.08 c-0.42,0-0.65-0.24-0.65-0.62c0-0.31,0.19-0.65,0.62-0.65c0.4,0,0.54,0.31,0.54,0.61C28.1,31.2,28.09,31.26,28.09,31.28z M29.51,30.92v1.35h-0.38v-0.65h-0.01c-0.08,0.12-0.2,0.18-0.36,0.18c-0.27,0-0.51-0.23-0.51-0.62c0-0.44,0.28-0.66,0.54-0.66 c0.16,0,0.27,0.06,0.34,0.17h0.01l0.01-0.14h0.37C29.52,30.67,29.51,30.79,29.51,30.92z M30.26,23.05h-0.51v-0.21h0.24v-1.58h-0.24 v-0.21h0.51V23.05z M30.72,31.8c-0.2,0-0.36-0.04-0.45-0.09l0.07-0.29c0.07,0.04,0.22,0.08,0.37,0.08c0.16,0,0.32-0.08,0.32-0.25 c0-0.17-0.13-0.27-0.46-0.27c-0.09,0-0.15,0-0.22,0.01l0.11-0.85h0.9v0.31h-0.63l-0.04,0.25c0.04,0,0.07,0,0.11,0 c0.15,0,0.31,0.04,0.43,0.12c0.12,0.08,0.2,0.22,0.2,0.41C31.42,31.53,31.16,31.8,30.72,31.8z M30.36,2.44 c0-0.82,0.66-1.49,1.47-1.49c0.81,0,1.47,0.67,1.47,1.49c0,0.82-0.66,1.49-1.47,1.49C31.02,3.93,30.36,3.26,30.36,2.44z M32.67,32.05h-0.51v-0.21h0.24v-1.58h-0.24v-0.21h0.51V32.05z M33.1,32.05l-0.25,0.02c0.08-0.22,0.15-0.48,0.18-0.71l0.38-0.02 C33.33,31.59,33.22,31.85,33.1,32.05z M33.21,30.99c-0.13,0-0.23-0.1-0.22-0.23c0-0.13,0.09-0.23,0.22-0.23 c0.13,0,0.22,0.09,0.22,0.23C33.43,30.9,33.34,30.99,33.21,30.99z M35.76,3.93c-0.81,0-1.47-0.67-1.47-1.49 c0-0.82,0.66-1.49,1.47-1.49s1.47,0.67,1.47,1.49C37.23,3.26,36.57,3.93,35.76,3.93z M39.7,3.93c-0.81,0-1.47-0.67-1.47-1.49 c0-0.82,0.66-1.49,1.47-1.49c0.81,0,1.47,0.67,1.47,1.49C41.17,3.26,40.51,3.93,39.7,3.93z"/>
<path d="M28.38,22.5c0.11,0,0.2-0.08,0.22-0.18c0.01-0.03,0.01-0.06,0.01-0.09v-0.16c0-0.02,0-0.05,0-0.07 c-0.02-0.1-0.11-0.19-0.22-0.19c-0.17,0-0.26,0.16-0.26,0.35C28.12,22.37,28.22,22.5,28.38,22.5z"/>
<path d="M15.15,24.81c-0.17,0-0.26,0.16-0.26,0.35c0,0.21,0.1,0.34,0.26,0.34c0.11,0,0.2-0.08,0.22-0.18 c0.01-0.03,0.01-0.05,0.01-0.09v-0.16c0-0.02,0-0.05,0-0.07C15.35,24.9,15.26,24.81,15.15,24.81z"/>
</g>
</svg>