<svg version="1.1" xmlns="http://www.w3.org/2000/svg" xmlns:xlink="http://www.w3.org/1999/xlink" x="0px" y="0px" width="48px" height="48px" viewBox="0 0 48 48" enable-background="new 0 0 48 48" xml:space="preserve">
<g fill="#202020">
<path d="M44.841,2.5H2.938c-1.272,0-2.303,1.031-2.303,2.304v8.172c0,1.272,1.031,2.303,2.303,2.303h41.903 c1.271,0,2.303-1.031,2.303-2.303V4.804C47.144,3.531,46.112,2.5,44.841,2.5z M4.803,13.552H2.608V4.228h2.194V13.552z M8.258,13.552H6.064V4.228h2.194V13.552z M11.713,13.552H9.52V4.228h2.194V13.552z M15.168,13.552h-2.194V4.228h2.194V13.552z M36.312,10.672c-0.984,0-1.781-0.798-1.781-1.783s0.797-1.782,1.781-1.782s1.783,0.798,1.783,1.782S37.296,10.672,36.312,10.672z M41.88,10.672c-0.984,0-1.783-0.798-1.783-1.783s0.799-1.782,1.783-1.782s1.781,0.798,1.781,1.782S42.864,10.672,41.88,10.672z"/>
<path d="M44.841,32.721H2.938c-1.272,0-2.303,1.031-2.303,2.304v8.172c0,1.272,1.031,2.304,2.303,2.304h41.903 c1.271,0,2.303-1.031,2.303-2.304v-8.172C47.144,33.752,46.112,32.721,44.841,32.721z M4.803,43.772H2.608v-9.324h2.194V43.772z M8.258,43.772H6.064v-9.324h2.194V43.772z M11.713,43.772H9.52v-9.324h2.194V43.772z M15.168,43.772h-2.194v-9.324h2.194V43.772z M36.312,40.893c-0.984,0-1.781-0.798-1.781-1.782s0.797-1.782,1.781-1.782s1.783,0.798,1.783,1.782S37.296,40.893,36.312,40.893z M41.88,40.893c-0.984,0-1.783-0.798-1.783-1.782s0.799-1.782,1.783-1.782s1.781,0.798,1.781,1.782S42.864,40.893,41.88,40.893z"/>
<path d="M44.95,17.61H3.047c-1.272,0-2.304,1.031-2.304,2.304v8.172c0,1.272,1.032,2.304,2.304,2.304H44.95 c1.271,0,2.305-1.031,2.305-2.304v-8.172C47.255,18.642,46.222,17.61,44.95,17.61z M4.912,28.662H2.718v-9.324h2.194V28.662z M8.368,28.662H6.174v-9.324h2.194V28.662z M11.823,28.662H9.629v-9.324h2.194V28.662z M15.278,28.662h-2.194v-9.324h2.194V28.662z M36.421,25.782c-0.984,0-1.781-0.798-1.781-1.782s0.797-1.782,1.781-1.782s1.783,0.798,1.783,1.782S37.405,25.782,36.421,25.782z M41.989,25.782c-0.984,0-1.783-0.798-1.783-1.782s0.799-1.782,1.783-1.782s1.781,0.798,1.781,1.782S42.974,25.782,41.989,25.782z"/>
</g>
</svg>