<svg version="1.1" xmlns="http://www.w3.org/2000/svg" xmlns:xlink="http://www.w3.org/1999/xlink" x="0px" y="0px" width="48px" height="48px" viewBox="0 0 48 48" enable-background="new 0 0 48 48" xml:space="preserve">
<g fill="#202020">
<path d="M33.614,4.825h-3.698C29.258,2.28,26.847,0.4,24.089,0.4c-2.751,0-5.347,1.88-6.005,4.425h-3.698v8.112 h19.229V4.825z M24,7.775c-0.813,0-1.479-0.664-1.479-1.475c0-0.811,0.666-1.475,1.479-1.475c0.813,0,1.479,0.664,1.479,1.475 C25.479,7.111,24.813,7.775,24,7.775z"/>
<path d="M38.791,8.513h-2.219v7.375H11.427V8.513H9.209c-1.631,0-2.958,1.323-2.958,2.95V44.65 c0,1.626,1.327,2.949,2.958,2.949h29.582c1.631,0,2.959-1.323,2.959-2.949V11.462C41.75,9.836,40.422,8.513,38.791,8.513z M21.172,38.854l-7.021-6.126l1.948-2.221l4.813,4.199L31.77,22.525l2.21,1.959L21.172,38.854z"/>
</g>
</svg>