<svg version="1.1" xmlns="http://www.w3.org/2000/svg" xmlns:xlink="http://www.w3.org/1999/xlink" x="0px" y="0px" width="48px" height="48px" viewBox="0 0 48 48" enable-background="new 0 0 48 48" xml:space="preserve">
<path fill="#202020" d="M38.876,17.565h-4.732v-2.5c2.199-1.669,3.879-3.912,4.732-6.497h-4.732V6.833c0-3.43-2.78-6.206-6.2-6.206 h-5.891c-3.425,0-6.196,2.776-6.196,6.206v1.736h-4.732c0.854,2.585,2.528,4.828,4.732,6.497v2.5h-4.732 c0.854,2.585,2.528,4.827,4.732,6.497v2.5h-4.732c0.854,2.585,2.523,4.832,4.732,6.502v5.146c0,3.425,2.776,6.206,6.196,6.206 h0.987v2.957h3.916v-2.962h0.988c3.425,0,6.2-2.781,6.2-6.206v-5.142c2.199-1.67,3.879-3.917,4.732-6.497h-4.732v-2.504 C36.348,22.393,38.022,20.151,38.876,17.565z M24.995,39.631c-2.509,0-4.551-2.041-4.551-4.55c0-2.514,2.042-4.556,4.551-4.556 c2.519,0,4.551,2.042,4.551,4.556C29.551,37.59,27.514,39.631,24.995,39.631z M24.995,27.072c-2.509,0-4.551-2.037-4.551-4.551 c0-2.514,2.042-4.556,4.551-4.556c2.519,0,4.551,2.037,4.551,4.556C29.551,25.035,27.514,27.072,24.995,27.072z M24.995,14.508 c-2.509,0-4.551-2.032-4.551-4.551c0-2.509,2.042-4.546,4.551-4.546c2.519,0,4.551,2.037,4.551,4.546 C29.551,12.476,27.514,14.508,24.995,14.508z"/>
</svg>