<svg version="1.1" xmlns="http://www.w3.org/2000/svg" xmlns:xlink="http://www.w3.org/1999/xlink" x="0px" y="0px" width="48px" height="48px" viewBox="0 0 48 48" enable-background="new 0 0 48 48" xml:space="preserve">
<path fill="#202020" d="M32.755,1.912c0-0.412-0.162-0.806-0.453-1.098c-0.291-0.291-0.686-0.454-1.098-0.454 c-2.972,0-9.437,0-12.409,0c-0.412,0-0.806,0.163-1.097,0.454c-0.291,0.292-0.454,0.686-0.454,1.098c0,4.79,0,19.266,0,23.267 c0,0.571-0.463,1.034-1.034,1.034c-2.257,0-7.678,0-10.905,0c-0.42,0-0.799,0.255-0.958,0.645c-0.159,0.389-0.066,0.835,0.235,1.129 c4.612,4.505,16.625,16.239,19.695,19.238c0.402,0.392,1.043,0.392,1.445,0c3.069-2.999,15.082-14.733,19.694-19.238 c0.302-0.294,0.395-0.74,0.235-1.129c-0.159-0.39-0.537-0.645-0.958-0.645c-3.226,0-8.647,0-10.904,0 c-0.571,0-1.035-0.463-1.035-1.034C32.755,21.178,32.755,6.702,32.755,1.912z"/>
</svg>