<svg width="48px" height="48px" viewBox="0 0 48 48" version="1.1" xmlns="http://www.w3.org/2000/svg" style="fill-rule:evenodd">
<path fill="#202020" d="M48,8.195c0,-2.755 -2.236,-4.992 -4.991,-4.992l-38.018,0c-2.755,0 -4.991,2.237 -4.991,4.992l0,31.61c0,2.755 2.236,4.992 4.991,4.992l38.018,-0c2.755,-0 4.991,-2.237 4.991,-4.992l0,-31.61Zm-6.753,5.32l-4.108,0l-10.495,10.902l0,-10.902l-3.091,0l-0,20.502l3.091,-0l0,-5.695l4.109,-4.108l6.996,9.803l4.109,-0l-9.194,-11.797l8.583,-8.705Zm-23.389,-0.203l-2.787,-0l-10.007,14.196l0,1.892l10.007,0l0,4.597l2.807,-0l-0,-4.597l2.705,0l0,-2.298l-2.725,-0l-0,-13.79Zm-2.787,4.698l0,9.092l-7.017,-0c0.061,-0.061 0.244,-0.326 0.509,-0.794c0.935,-1.342 1.708,-2.4 2.298,-3.193c0.142,-0.122 0.264,-0.325 0.407,-0.59c0.203,-0.203 0.325,-0.366 0.407,-0.508c0.528,-0.732 1.2,-1.668 1.993,-2.807c0.264,-0.325 0.427,-0.569 0.508,-0.691c0.061,-0.143 0.204,-0.366 0.407,-0.692c0.142,-0.122 0.203,-0.244 0.203,-0.305c0.061,-0.061 0.122,-0.203 0.204,-0.407c0.122,-0.122 0.183,-0.203 0.203,-0.264c-0.04,0.203 -0.081,0.59 -0.122,1.159Z"/>
</svg>