<svg width="48px" height="48px" viewBox="0 0 48 48" version="1.1" xmlns="http://www.w3.org/2000/svg" >
<path fill="#202020" d="M29.227,44.916l-0.051,-15.674l15.614,0.006c1.098,0 1.891,-0.792 1.892,-1.89l0.005,-6.586c0.001,-1.097 -0.792,-1.891 -1.89,-1.893l-15.613,-0.005l0.071,-15.673c0.001,-1.098 -0.791,-1.891 -1.889,-1.891l-6.709,-0.003c-1.097,-0 -1.891,0.793 -1.892,1.891l0.05,15.674l-15.673,-0.069c-1.098,-0 -1.891,0.793 -1.893,1.891l-0.005,6.587c-0,1.098 0.792,1.891 1.889,1.891l15.676,0.066l-0.012,15.614c-0.001,1.097 0.792,1.891 1.89,1.893l6.587,0.001c1.037,0.062 1.893,-0.793 1.953,-1.83Z"/>
</svg>