<svg width="48px" height="48px" viewBox="0 0 48 48" version="1.1" xmlns="http://www.w3.org/2000/svg" >
<g fill="#202020">
<path d="M8,12c0,0.41 -0.27,0.75 -0.61,0.75l-2.78,0c-0.34,0 -0.61,-0.34 -0.61,-0.75c0,-0.41 0.27,-0.75 0.61,-0.75l2.77,0c0.35,0 0.62,0.34 0.62,0.75Z"/>
<path d="M8,20c0,0.41 -0.27,0.75 -0.61,0.75l-2.78,0c-0.34,0 -0.61,-0.34 -0.61,-0.75c0,-0.41 0.27,-0.75 0.61,-0.75l2.77,0c0.35,0 0.62,0.34 0.62,0.75Z"/>
<path d="M8,28c0,0.41 -0.27,0.75 -0.61,0.75l-2.78,0c-0.34,0 -0.61,-0.34 -0.61,-0.75c0,-0.41 0.27,-0.75 0.61,-0.75l2.77,0c0.35,0 0.62,0.34 0.62,0.75Z"/>
<path d="M8,36c0,0.41 -0.27,0.75 -0.61,0.75l-2.78,0c-0.34,0 -0.61,-0.34 -0.61,-0.75c0,-0.41 0.27,-0.75 0.61,-0.75l2.77,0c0.35,0 0.62,0.34 0.62,0.75Z"/>
<path d="M8,44c0,0.41 -0.27,0.75 -0.61,0.75l-2.78,0c-0.34,0 -0.61,-0.34 -0.61,-0.75c0,-0.41 0.27,-0.75 0.61,-0.75l2.77,0c0.35,0 0.62,0.34 0.62,0.75Z"/>
<path d="M8,4c0,-0.41 -0.27,-0.75 -0.61,-0.75l-2.78,0c-0.34,0 -0.61,0.34 -0.61,0.75c0,0.41 0.27,0.75 0.61,0.75l2.77,0c0.35,0 0.62,-0.34 0.62,-0.75Z"/>
<path d="M45.46,13.75l-2.38,0c-0.051,0 -0.08,0.02 -0.13,0.02l0,9.95c0.04,0 0.079,0.02 0.13,0.02l2.38,0c0.59,0 1.069,-0.43 1.069,-0.96l0,-8.08c0,-0.52 -0.479,-0.95 -1.069,-0.95Z"/>
<path d="M45.46,24.75l-2.38,0c-0.051,0 -0.08,0.02 -0.13,0.02l0,9.951c0.04,0 0.079,0.02 0.13,0.02l2.38,0c0.59,0 1.069,-0.43 1.069,-0.961l0,-8.08c0,-0.52 -0.479,-0.95 -1.069,-0.95Z"/>
<path d="M45.46,35.75l-2.38,0c-0.051,0 -0.08,0.02 -0.13,0.02l0,9.951c0.04,0 0.079,0.02 0.13,0.02l2.38,0c0.59,0 1.069,-0.43 1.069,-0.961l0,-8.08c0,-0.52 -0.479,-0.95 -1.069,-0.95Z"/>
<path d="M45.46,2.75l-3.46,0l0,-1.72c0,-0.57 -0.45,-1.03 -1,-1.03l-33.99,0c-0.56,0 -1.01,0.46 -1.01,1.03l0,1.47l1.39,0c0.75,0 1.36,0.67 1.36,1.5c0,0.83 -0.61,1.5 -1.36,1.5l-1.39,0l0,5l1.39,0c0.75,0 1.36,0.67 1.36,1.5c0,0.83 -0.61,1.5 -1.36,1.5l-1.39,0l0,5l1.39,0c0.75,0 1.36,0.67 1.36,1.5c0,0.83 -0.61,1.5 -1.36,1.5l-1.39,0l0,5l1.39,0c0.75,0 1.36,0.67 1.36,1.5c0,0.83 -0.61,1.5 -1.36,1.5l-1.39,0l0,5l1.39,0c0.75,0 1.36,0.67 1.36,1.5c0,0.83 -0.61,1.5 -1.36,1.5l-1.39,0l0,5l1.39,0c0.75,0 1.36,0.67 1.36,1.5c0,0.83 -0.61,1.5 -1.36,1.5l-1.39,0l0,1.471c0,0.569 0.45,1.029 1.01,1.029l33.99,0c0.561,0 1,-0.46 1,-1.029l0,-34.221l3.46,0c0.59,0 1.069,-0.43 1.069,-0.96l0,-8.08c0,-0.53 -0.479,-0.96 -1.069,-0.96Zm-18.443,29.522c0.523,-0.291 0.957,-0.523 0.964,-0.522c0.016,0.01 0.872,9.095 0.861,9.129c-0.007,0.025 -0.637,-0.138 -1.606,-0.414c-0.323,-0.091 -0.398,-0.121 -0.546,-0.216c-0.162,-0.106 -0.177,-0.123 -0.289,-0.312c-0.071,-0.121 -0.137,-0.275 -0.167,-0.39c-0.08,-0.324 -0.444,-4.585 -0.467,-5.474c-0.01,-0.449 0.07,-0.854 0.229,-1.145l0.072,-0.128l0.949,-0.528Zm-13.031,-19.887c0.434,-0.548 1.063,-1.176 1.58,-1.578c1.723,-1.33 3.55,-1.709 5.339,-1.103c0.621,0.21 0.859,0.331 1.644,0.846c1.229,0.806 2.617,1.846 3.86,2.896c2.83,2.393 4.981,4.897 6.057,7.055c0.173,0.347 0.64,1.42 0.992,2.286c1.806,4.424 2.533,7.911 2.22,10.673c-0.193,1.728 -0.867,3.244 -1.837,4.146c-0.664,0.619 -1.519,1.296 -2.278,1.809c-0.575,0.387 -1.859,1.102 -1.91,1.067c-0.007,-0.008 -0.112,-1.129 -0.233,-2.497c-0.122,-1.367 -0.3,-3.364 -0.396,-4.432l-0.174,-1.946l0.225,-0.135c0.715,-0.423 1.218,-1.048 1.359,-1.68c0.074,-0.333 0.056,-0.72 -0.048,-1.073c-0.226,-0.774 -1.449,-3.125 -3.573,-6.875c-1.189,-2.101 -1.884,-3.284 -2.039,-3.458c-0.704,-0.803 -1.528,-1.198 -2.379,-1.139c-0.386,0.028 -0.73,0.136 -1.137,0.355l-0.214,0.117l-0.216,-0.149c-0.121,-0.082 -1.706,-1.18 -3.527,-2.443c-1.82,-1.265 -3.362,-2.332 -3.426,-2.373l-0.113,-0.073l0.224,-0.296Zm-0.676,0.977l0.04,-0.04l0.296,0.207c0.165,0.115 0.687,0.47 1.161,0.788c2.685,1.797 5.053,3.442 5.476,3.808c0.096,0.082 0.122,0.119 0.131,0.188c0.008,0.079 0.001,0.097 -0.103,0.241c-0.066,0.088 -0.172,0.198 -0.246,0.256c-0.181,0.141 -0.558,0.358 -0.754,0.435c-0.182,0.073 -0.55,0.148 -0.913,0.185l-0.24,0.026l-0.533,-0.35c-0.293,-0.194 -0.725,-0.481 -0.957,-0.641c-0.233,-0.159 -1.135,-0.767 -2.002,-1.349l-1.579,-1.056l-0.082,-0.14c-0.06,-0.096 -0.099,-0.212 -0.133,-0.388c-0.141,-0.763 0.065,-1.781 0.438,-2.17Z"/>
</g></svg>