<svg width="48px" height="48px" version="1.1" xmlns="http://www.w3.org/2000/svg">
<g fill="#202020">
<path d="M33.212,22.497c-1.903,3.379 -5.313,4.587 -9.213,4.587c-3.9,0 -7.308,-1.208 -9.211,-4.586c-5.127,3.241 -8.552,9.104 -8.552,15.797c0,10.202 7.952,9.144 17.764,9.144c9.81,0 17.764,1.059 17.764,-9.144c0,-6.695 -3.425,-12.558 -8.552,-15.798Zm-5.55,5.584c0.018,0.072 0.005,0.148 -0.036,0.209l-2.626,1.065l1.62,8.555c0.009,0.08 -0.018,0.161 -0.075,0.217l-2.36,2.36c-0.049,0.049 -0.116,0.076 -0.185,0.076l-0.008,0c-0.072,-0.002 -0.14,-0.033 -0.188,-0.088l-2.097,-2.359c-0.048,-0.054 -0.072,-0.126 -0.065,-0.198l1.358,-8.559l-2.626,-1.069c-0.041,-0.061 -0.054,-0.137 -0.036,-0.209l0.286,-0.683c0.02,-0.08 0.076,-0.146 0.152,-0.178c0.076,-0.032 0.163,-0.027 0.235,0.015l2.989,0.392l3.038,-0.392c0.072,-0.042 0.158,-0.047 0.234,-0.015c0.076,0.032 0.133,0.098 0.153,0.178l0.237,0.683Z"/>
<circle cx="24" cy="12.847" r="11.6"/>
</g></svg>