<svg version="1.1" xmlns="http://www.w3.org/2000/svg" x="0px" y="0px" width="48px" height="48px">
<g fill="#202020">
<path d="M33.936,21.047c0,0.898,0.728,1.626,1.625,1.626c0.898,0,1.627-0.729,1.627-1.626 c0-6.817-5.546-12.363-12.361-12.363c-0.898,0-1.626,0.728-1.626,1.625c0,0.898,0.728,1.626,1.626,1.626 C29.849,11.936,33.936,16.023,33.936,21.047z"/>
<path d="M24.826,0C23.927,0,23.2,0.728,23.2,1.626s0.728,1.626,1.626,1.626c9.811,0,17.791,7.983,17.791,17.795 c0,0.897,0.729,1.626,1.627,1.626c0.897,0,1.625-0.729,1.625-1.626C45.869,9.441,36.43,0,24.826,0z"/>
<path d="M9.56,7.03C9.253,6.723,8.838,6.553,8.41,6.553c-0.073,0-0.146,0.005-0.22,0.015 C7.687,6.637,7.245,6.937,6.995,7.379c-5.083,9-3.525,20.394,3.79,27.71c4.365,4.365,10.169,6.77,16.343,6.77 c0.001,0,0.002,0,0.002,0c3.982,0,7.912-1.029,11.362-2.979c0.442-0.25,0.743-0.692,0.812-1.195s-0.102-1.011-0.461-1.37L9.56,7.03 z"/>
<path d="M27.986,17.86c-1.453-1.453-3.512-1.935-5.371-1.452l6.822,6.823C29.921,21.374,29.439,19.314,27.986,17.86 z"/>
<path d="M7.466,35.317L2.302,45.646C2.05,46.15,2.077,46.75,2.374,47.229C2.669,47.709,3.193,48,3.756,48h21.49 c0.897,0,1.625-0.729,1.625-1.626v-1.916c-6.772-0.065-13.13-2.733-17.926-7.529C8.426,36.409,7.933,35.871,7.466,35.317z"/>
</g></svg>