<svg width="48px" height="48px" viewBox="0 0 48 48" version="1.1" xmlns="http://www.w3.org/2000/svg">
<path fill="#202020" d="M39.979,11.546l0,24.908c0,5.82 -4.725,10.546 -10.546,10.546l-10.866,0c-5.821,0 -10.546,-4.726 -10.546,-10.546l-0,-24.908c-0,-5.82 4.725,-10.546 10.546,-10.546l10.866,0c5.821,0 10.546,4.726 10.546,10.546Zm-15.979,4.609c-1.114,0 -2.018,0.905 -2.018,2.019c-0,1.114 0.904,2.018 2.018,2.018c1.114,0 2.018,-0.904 2.018,-2.018c0,-1.114 -0.904,-2.019 -2.018,-2.019Zm0,8c-1.114,0 -2.018,0.905 -2.018,2.019c-0,1.114 0.904,2.018 2.018,2.018c1.114,0 2.018,-0.904 2.018,-2.018c0,-1.114 -0.904,-2.019 -2.018,-2.019Zm0,-15.993c-1.105,-0 -2.002,0.897 -2.002,2.001c0,1.105 0.897,2.002 2.002,2.002c1.105,-0 2.002,-0.897 2.002,-2.002c-0,-1.104 -0.897,-2.001 -2.002,-2.001Zm0,32.399c0.472,0.008 0.947,-0.167 1.308,-0.527l8.763,-8.764c0.704,-0.704 0.704,-1.846 0,-2.55c-0.703,-0.704 -1.846,-0.704 -2.55,-0l-7.521,7.521l-7.521,-7.521c-0.704,-0.704 -1.847,-0.704 -2.55,-0c-0.704,0.704 -0.704,1.846 -0,2.55l8.763,8.764c0.361,0.36 0.836,0.535 1.308,0.527Z"/>
</svg>