<svg width="48" height="48" xmlns="http://www.w3.org/2000/svg">
<path fill="#202020" d="m0.79227,23.2744l0,9.29421c0,1.28522 1.03742,2.32355 2.3215,2.32355l2.3215,0l0,-13.94132l-2.3215,0c-1.28408,0 -2.3215,1.03834 -2.3215,2.32355zm33.66171,-11.61777l-8.12524,0l0,-4.64711c0,-1.28522 -1.03742,-2.32355 -2.3215,-2.32355s-2.3215,1.03834 -2.3215,2.32355l0,4.64711l-8.12524,0c-3.20657,0 -5.80374,2.59948 -5.80374,5.80888l0,19.7502c0,2.56317 2.08209,4.64711 4.64299,4.64711l23.21497,0c2.5609,0 4.64299,-2.08394 4.64299,-4.64711l0,-19.7502c0,-3.20941 -2.59718,-5.80888 -5.80374,-5.80888zm-15.08973,23.23553l-4.64299,0l0,-2.32355l4.64299,0l0,2.32355zm-2.3215,-8.71332c-1.60328,0 -2.90187,-1.29974 -2.90187,-2.90444s1.29859,-2.90444 2.90187,-2.90444s2.90187,1.29974 2.90187,2.90444s-1.29859,2.90444 -2.90187,2.90444zm9.28599,8.71332l-4.64299,0l0,-2.32355l4.64299,0l0,2.32355zm6.96449,0l-4.64299,0l0,-2.32355l4.64299,0l0,2.32355zm-2.3215,-8.71332c-1.60328,0 -2.90187,-1.29974 -2.90187,-2.90444s1.29859,-2.90444 2.90187,-2.90444s2.90187,1.29974 2.90187,2.90444s-1.29859,2.90444 -2.90187,2.90444zm13.92898,-5.22799l-2.3215,0l0,13.94132l2.3215,0c1.28408,0 2.3215,-1.03834 2.3215,-2.32355l0,-9.29421c0,-1.28522 -1.03742,-2.32355 -2.3215,-2.32355z"/>
</svg>