<svg width="48px" height="48px" viewBox="0 0 48 48" version="1.1" xmlns="http://www.w3.org/2000/svg" style="fill-rule:evenodd">
<g fill="#202020">
<path d="M29.012,3.28l-0,-1.571c-0,-0.628 -0.509,-1.137 -1.137,-1.137l-7.747,-0c-0.628,-0 -1.139,0.509 -1.139,1.137l0,1.571l10.023,-0Z"/>
<path d="M37.679,4.093l-27.357,-0c-0.628,-0 -1.137,0.509 -1.137,1.138l-0,41.061c-0,0.627 0.509,1.136 1.137,1.136l27.356,0c0.627,0 1.137,-0.51 1.137,-1.137l0,-41.061c-0.001,-0.629 -0.508,-1.138 -1.137,-1.138Zm-11.295,38.524l-4.768,0l0,-1.353l4.768,0l0,1.353Zm0.002,-30.811l-1.707,0l-0,1.707l-1.354,0l-0,-1.707l-1.707,0l-0,-1.354l1.707,0l-0,-1.706l1.354,0l-0,1.706l1.707,0l-0,1.354Z"/>
</g></svg>