<svg version="1.1" xmlns="http://www.w3.org/2000/svg" x="0px" y="0px" width="48px" height="48px">
<path fill="#202020" d="M10.73,35.67l2.54-0.14c0.1,0,0.19-0.1,0.19-0.24l0.05-22.66l-2.83-0.14c0-1.25,0.05-2.69,0.1-3.98 c2.4-0.05,7.15-0.14,9.89-0.14c4.66,0,8.11,0,10.9,1.25c2.16,1.01,4.08,3.5,4.08,5.95c0,3.26-2.5,5.81-5.57,6.96v0.38 c4.03,0.67,7.25,3.74,7.25,7.78c0,5.04-4.94,8.98-13.2,8.98c-1.54,0-5.76-0.05-6.72-0.05c-1.63,0-4.85,0-6.72,0 C10.68,38.35,10.68,36.91,10.73,35.67z M21.34,34.56c0,1.06,1.01,1.3,2.11,1.3c3.07,0,5.42-1.68,5.42-4.9c0-2.69-2.3-5.28-6.19-5.28 c-0.48,0-1.15,0-1.25,0.05L21.34,34.56z M21.43,21.79c0.14,0.05,0.86,0.05,1.2,0.05c3.02,0,5.18-1.92,5.18-4.9 c0-2.54-1.97-4.85-4.7-4.85c-0.82,0-1.3,0.05-1.63,0.14L21.43,21.79z"/>
</svg>