<svg width="48px" height="48px" version="1.1" xmlns="http://www.w3.org/2000/svg">
<g fill="#202020">
<path d="M48,30.5l0,9c0,2.484 -2.016,4.5 -4.5,4.5l-14,0c-2.484,0 -4.5,-2.016 -4.5,-4.5l0,-9c0,-2.484 2.016,-4.5 4.5,-4.5l14,-0c2.484,-0 4.5,2.016 4.5,4.5Zm-19.933,7.999l2.481,-0c1.129,-0 2.034,-0.326 2.712,-0.977c0.679,-0.651 1.018,-1.522 1.018,-2.612c0,-2.276 -1.243,-3.413 -3.73,-3.413l-2.481,-0l0,7.002Zm1.578,-5.718l0.771,-0c0.697,-0 1.238,0.191 1.624,0.573c0.385,0.383 0.578,0.908 0.578,1.575c0,0.707 -0.194,1.265 -0.583,1.675c-0.389,0.41 -0.926,0.615 -1.609,0.615l-0.781,0l-0,-4.438Zm15.288,5.718l-0,-1.28l-2.593,0l-0,-5.722l-1.577,-0l-0,7.002l4.17,-0Zm-5.293,-0l-0,-1.28l-2.622,0l-0,-1.601l2.29,-0l-0,-1.28l-2.29,0l-0,-1.557l2.461,-0l-0,-1.284l-4.039,-0l0,7.002l4.2,-0Z"/>
<path d="M23.044,30.5l0,9c0,2.484 -2.016,4.5 -4.5,4.5l-14,0c-2.483,0 -4.5,-2.016 -4.5,-4.5l0,-9c0,-2.484 2.017,-4.5 4.5,-4.5l14,-0c2.484,-0 4.5,2.016 4.5,4.5Zm-2.923,2.283l-0,-1.284l-5.567,0l0,1.284l1.988,0l-0,5.718l1.582,-0l-0,-5.718l1.997,0Zm-5.2,5.718l-0,-1.279l-2.593,-0l-0,-5.723l-1.577,0l-0,7.002l4.17,-0Zm-5.044,-0l-2.491,-7.002l-1.87,0l-2.548,7.002l1.709,-0l0.493,-1.558l2.49,0l0.498,1.558l1.719,-0Zm-2.578,-2.769l-1.792,0l0.761,-2.373c0.065,-0.201 0.106,-0.405 0.122,-0.61l0.039,0c0.023,0.244 0.062,0.454 0.118,0.63l0.752,2.353Z"/>
<path d="M38,9.5l0,9c0,2.484 -2.016,4.5 -4.5,4.5l-19,0c-2.484,0 -4.5,-2.016 -4.5,-4.5l0,-9c0,-2.484 2.016,-4.5 4.5,-4.5l19,-0c2.484,-0 4.5,2.016 4.5,4.5Zm-7.206,7.999l-1.323,-2.071c-0.068,-0.107 -0.144,-0.217 -0.227,-0.329c-0.083,-0.113 -0.17,-0.218 -0.261,-0.315c-0.091,-0.098 -0.186,-0.183 -0.283,-0.257c-0.098,-0.073 -0.199,-0.126 -0.303,-0.158l-0,-0.02c0.238,-0.068 0.453,-0.163 0.647,-0.283c0.194,-0.121 0.359,-0.264 0.496,-0.43c0.136,-0.166 0.242,-0.352 0.317,-0.559c0.075,-0.207 0.112,-0.432 0.112,-0.676c0,-1.27 -0.849,-1.904 -2.549,-1.904l-2.5,-0l0,7.002l1.578,-0l-0,-2.681l0.424,-0c0.098,-0 0.188,0.02 0.271,0.061c0.083,0.041 0.163,0.099 0.24,0.176c0.076,0.076 0.152,0.168 0.227,0.276c0.075,0.107 0.153,0.229 0.234,0.366l1.089,1.802l1.811,-0Zm-4.296,-5.821l0.712,0c0.733,0 1.099,0.306 1.099,0.918c0,0.293 -0.104,0.539 -0.312,0.737c-0.205,0.196 -0.477,0.293 -0.816,0.293l-0.683,0l-0,-1.948Zm-2.52,0.103l0,-1.284l-5.566,-0l-0,1.284l1.987,-0l-0,5.718l1.582,-0l-0,-5.718l1.997,-0Zm-6.138,5.469l0,-1.441c-0.511,0.3 -1.074,0.449 -1.689,0.449c-0.645,0 -1.157,-0.201 -1.538,-0.603c-0.381,-0.402 -0.571,-0.941 -0.571,-1.618c-0,-0.707 0.201,-1.267 0.605,-1.68c0.404,-0.413 0.934,-0.62 1.592,-0.62c0.599,-0 1.133,0.14 1.601,0.42l0,-1.519c-0.468,-0.172 -1.045,-0.259 -1.728,-0.259c-1.104,0 -2.001,0.349 -2.693,1.045c-0.692,0.697 -1.038,1.605 -1.038,2.725c0,1.051 0.308,1.893 0.923,2.524c0.615,0.632 1.46,0.948 2.534,0.948c0.824,-0 1.491,-0.124 2.002,-0.371Zm17.779,0.249l-0,-1.28l-2.593,0l-0,-5.722l-1.577,-0l-0,7.002l4.17,-0Z"/>
</g></svg>