<svg width="48px" height="48px" version="1.1" xmlns="http://www.w3.org/2000/svg">
<g fill="#202020">
<path d="M11.564,10.506l6.796,2.887c0.225,0.095 0.329,0.354 0.234,0.579l-2.704,6.367c-0.092,0.216 -0.335,0.32 -0.552,0.244l-1.16,2.213c-0.139,0.266 -0.458,0.379 -0.734,0.262l-5.422,-2.302c-0.276,-0.117 -0.415,-0.426 -0.321,-0.711l0.787,-2.371c-0.206,-0.104 -0.299,-0.351 -0.208,-0.566l2.705,-6.368c0.095,-0.224 0.354,-0.329 0.579,-0.234"/>
<path d="M4.576,32.077l3.007,1.277c0.616,0.261 1.329,-0.027 1.59,-0.642l0.67,-1.578c-0.269,1.493 -0.406,3.228 -0.291,4.385c0.179,1.807 1.749,6.821 5.537,6.248c2.383,-0.361 3.293,-0.832 5.567,-3.068c2.274,-2.236 18.512,-17.276 19.191,-19.642c0.68,-2.366 1.165,-5.498 -2.325,-7.479c-3.49,-1.983 -11.522,-6.328 -13.909,-5.689c-2.023,0.54 -3.459,1.004 -4.424,2.728c-0.06,-0.041 -0.125,-0.076 -0.194,-0.106l-4.36,-1.851c-0.539,-0.229 -1.157,-0.017 -1.449,0.473c0.262,-0.854 0.525,-1.575 0.704,-1.835c0.497,-0.72 5.937,-5.612 10.18,-5.144c4.243,0.467 8.374,2.442 10.907,3.541c2.533,1.099 7.44,4.405 8.634,5.743c0.345,0.385 5.944,5.786 0.859,13.441c-5.085,7.656 -16.062,17.055 -18.737,19.441c-2.676,2.386 -7.398,7.595 -14.577,4.553c-7.18,-3.041 -7.83,-11.472 -7.693,-13.517c0.04,-0.598 0.194,-1.333 0.412,-2.098c0.09,0.355 0.339,0.665 0.701,0.819"/>
<path d="M18.755,9.076c0.278,0.118 0.408,0.439 0.29,0.717l-1.16,2.731l-5.367,-2.279l1.16,-2.731c0.118,-0.278 0.439,-0.408 0.718,-0.29l4.359,1.852"/>
<path d="M7.3,29.842c-0.444,-0.188 -0.956,0.019 -1.144,0.462c-0.189,0.444 0.018,0.956 0.462,1.144c0.443,0.189 0.955,-0.018 1.144,-0.462c0.188,-0.443 -0.019,-0.955 -0.462,-1.144Zm4.271,-2.748c-0.068,0.159 -0.251,0.233 -0.41,0.165c-0.159,-0.067 -0.342,0.007 -0.409,0.166l-2.144,5.048c-0.129,0.304 -0.48,0.446 -0.785,0.316l-3.007,-1.277c-0.305,-0.129 -0.446,-0.481 -0.317,-0.785l2.143,-5.047c0.068,-0.159 -0.006,-0.342 -0.165,-0.41c-0.159,-0.067 -0.233,-0.251 -0.165,-0.409l1.498,-3.529l5.259,2.234l-1.498,3.528"/>
</g></svg>