<svg width="48px" height="48px" version="1.1" xmlns="http://www.w3.org/2000/svg">
<g fill="#202020">
<path d="M32.015,48l-26.271,-0c-1.108,-0 -2.019,-0.912 -2.019,-2.02l-0,-43.96c-0,-1.108 0.911,-2.02 2.019,-2.02l33.522,0c1.108,0 2.02,0.912 2.02,2.02l-0,20.769l-0.342,-0.042l-0.856,-0.021l-0.347,-0.783c-0,-0.001 -0.18,-0.318 -0.18,-0.318l-0.233,-0.272l-0.274,-0.218l-0.307,-0.161l-0.33,-0.102l-0.348,-0.04l-0.357,0.026l-0.353,0.099l-0.799,0.308l-0.62,-0.591l-0.29,-0.226l-0.319,-0.161l-0.336,-0.096l-0.344,-0.032l-0.345,0.032l-0.336,0.096l-0.319,0.161l-0.289,0.226l-0.62,0.591l-0.8,-0.309l-0.002,-0l-0.353,-0.097l-0.356,-0.027l-0.347,0.04l-0.33,0.103l-0.305,0.161l-0.274,0.217l-0.233,0.27l-0.181,0.319l-0.347,0.784l-0.858,0.021c0.001,0 -0.363,0.045 -0.363,0.045l-0.34,0.111l-0.306,0.171l-0.266,0.221l-0.221,0.266l-0.17,0.306l-0.112,0.339l-0.044,0.364l-0.021,0.857l-0.783,0.347c-0.001,0 -0.319,0.18 -0.319,0.18l-0.271,0.233l-0.218,0.274l-0.161,0.306l-0.103,0.331l-0.04,0.348l0.027,0.357l0.098,0.353l0.309,0.799l-0.592,0.62l-0.225,0.289l-0.162,0.319l-0.096,0.337l-0.031,0.344l0.031,0.345l0.096,0.336l0.162,0.319l0.225,0.289l0.592,0.62l-0.309,0.8l-0.001,0.002l-0.097,0.352l-0.026,0.356l0.04,0.348l0.102,0.33l0.161,0.305l0.217,0.274l0.271,0.233l0.318,0.181l0.785,0.347l0.021,0.857l0.044,0.364l0.112,0.34l0.17,0.306l0.221,0.266l0.266,0.221l0.306,0.17l0.34,0.111l0.288,0.036l-2.104,5.441c-0,0.003 -0.09,0.48 -0.09,0.48l0.106,0.52l0.283,0.419l0.42,0.284l0.519,0.106l0.277,-0.029l0.264,-0.086l1.971,-0.872l0.873,1.973c0.002,0.002 0.205,0.326 0.205,0.326l0.284,0.25l0.343,0.16l0.383,0.056Zm9.271,-3.456l-0,1.436c-0,1.108 -0.912,2.02 -2.019,2.02l-7.252,-0l0.399,-0.061l0.353,-0.172l0.288,-0.269l0.2,-0.35l2.238,-5.787l0.074,-0.038l1.873,4.844c0.001,0.002 0.199,0.348 0.199,0.348l0.287,0.267l0.352,0.171l0.398,0.061l0.381,-0.056l0.342,-0.159l0.284,-0.249l0.205,-0.327l0.85,-1.921l0.548,0.242Zm-22.359,-22.234c-0,-0.322 -0.262,-0.584 -0.584,-0.584l-10.014,0c-0.322,0 -0.584,0.262 -0.584,0.584l0,1.167c0,0.322 0.262,0.583 0.584,0.583l10.014,0c0.322,0 0.584,-0.261 0.584,-0.583l-0,-1.167Zm13.93,-10.815c0,-0.322 -0.261,-0.584 -0.583,-0.584l-23.945,0c-0.322,0 -0.584,0.262 -0.584,0.584l0,1.167c0,0.322 0.262,0.584 0.584,0.584l23.945,-0c0.322,-0 0.583,-0.262 0.583,-0.584l0,-1.167Zm0,5.407c0,-0.322 -0.261,-0.583 -0.583,-0.583l-23.945,-0c-0.322,-0 -0.584,0.261 -0.584,0.583l0,1.168c0,0.322 0.262,0.583 0.584,0.583l23.945,0c0.322,0 0.583,-0.261 0.583,-0.583l0,-1.168Zm0,-10.814c0,-0.322 -0.261,-0.584 -0.583,-0.584l-23.945,0c-0.322,0 -0.584,0.262 -0.584,0.584l0,1.167c0,0.322 0.262,0.583 0.584,0.583l23.945,0c0.322,0 0.583,-0.261 0.583,-0.583l0,-1.167Zm-12.849,32.444c0,-0.322 -0.261,-0.584 -0.583,-0.584l-10.015,0c-0.322,0 -0.583,0.262 -0.583,0.584l-0,1.167c-0,0.322 0.261,0.584 0.583,0.584l10.015,-0c0.322,-0 0.583,-0.262 0.583,-0.584l0,-1.167Z"/>
<path d="M27.615,37.132l-0.026,-1.043c-0.007,-0.304 -0.19,-0.578 -0.467,-0.701l-0.955,-0.422c-0.381,-0.17 -0.565,-0.614 -0.415,-1.003l0.376,-0.974c0.109,-0.284 0.045,-0.606 -0.165,-0.827l-0.72,-0.755c-0.288,-0.302 -0.288,-0.783 0,-1.086l0.72,-0.755c0.21,-0.22 0.274,-0.542 0.165,-0.826l-0.376,-0.974c-0.151,-0.39 0.033,-0.835 0.415,-1.003l0.955,-0.423c0.278,-0.123 0.46,-0.396 0.467,-0.7l0.026,-1.044c0.01,-0.417 0.35,-0.758 0.767,-0.768l1.044,-0.025c0.304,-0.008 0.577,-0.19 0.701,-0.468l0.422,-0.954c0.17,-0.381 0.614,-0.566 1.003,-0.416l0.974,0.376c0.284,0.11 0.606,0.046 0.826,-0.164l0.756,-0.72c0.302,-0.288 0.783,-0.288 1.085,-0l0.756,0.72c0.22,0.21 0.542,0.274 0.826,0.164l0.974,-0.376c0.39,-0.151 0.834,0.034 1.003,0.416l0.423,0.954c0.123,0.278 0.395,0.461 0.7,0.468l1.044,0.025c0.42,0.01 0.757,0.348 0.768,0.768l0.025,1.044c0.007,0.304 0.189,0.577 0.468,0.7l0.954,0.423c0.384,0.17 0.567,0.611 0.416,1.003l-0.376,0.974c-0.11,0.284 -0.046,0.606 0.164,0.826l0.72,0.755c0.29,0.305 0.29,0.782 0,1.086l-0.72,0.755c-0.21,0.221 -0.274,0.543 -0.164,0.827l0.376,0.974c0.15,0.389 -0.034,0.834 -0.416,1.003l-0.954,0.422c-0.279,0.123 -0.461,0.396 -0.468,0.701l-0.025,1.043c-0.009,0.351 -0.251,0.648 -0.576,0.739l2.313,5.983c0.011,0.028 0.016,0.058 0.016,0.088c0,0.133 -0.109,0.243 -0.242,0.243c-0.035,-0 -0.068,-0.007 -0.099,-0.021l-2.69,-1.19c-0.031,-0.014 -0.065,-0.021 -0.099,-0.021c-0.096,-0 -0.183,0.057 -0.222,0.145l-1.19,2.69c-0.039,0.088 -0.126,0.145 -0.222,0.145c-0.101,-0 -0.191,-0.062 -0.227,-0.156l-2.43,-6.285c-0.025,0.019 -0.048,0.038 -0.07,0.059l-0.756,0.721c-0.146,0.139 -0.334,0.212 -0.522,0.217l-2.425,6.271c-0.037,0.095 -0.129,0.159 -0.231,0.159c-0.097,-0 -0.186,-0.059 -0.226,-0.148l-1.21,-2.737c-0.04,-0.089 -0.129,-0.147 -0.226,-0.147c-0.035,0 -0.069,0.007 -0.101,0.021l-2.736,1.211c-0.032,0.014 -0.066,0.021 -0.101,0.021c-0.135,0 -0.247,-0.111 -0.247,-0.247c0,-0.031 0.006,-0.061 0.017,-0.09l2.618,-6.771c-0.112,-0.065 -0.242,-0.103 -0.377,-0.107l-1.044,-0.025c-0.417,-0.01 -0.757,-0.35 -0.767,-0.768Zm6.822,-12.824c-3.504,-0 -6.348,2.844 -6.348,6.348c-0,3.504 2.844,6.348 6.348,6.348c3.504,0 6.349,-2.844 6.349,-6.348c-0,-3.504 -2.845,-6.348 -6.349,-6.348Z"/>
<path d="M34.704,26.889l0.971,1.969c0.044,0.088 0.128,0.149 0.225,0.163l2.173,0.316c0.145,0.021 0.254,0.148 0.254,0.295c-0,0.08 -0.032,0.156 -0.089,0.212l-1.573,1.533c-0.07,0.068 -0.102,0.167 -0.086,0.264l0.371,2.164c0.003,0.017 0.005,0.033 0.005,0.05c-0,0.164 -0.135,0.298 -0.298,0.298c-0.048,-0 -0.096,-0.012 -0.139,-0.034l-1.944,-1.022c-0.086,-0.045 -0.19,-0.045 -0.277,-0l-1.943,1.022c-0.043,0.022 -0.091,0.034 -0.139,0.034c-0.163,-0 -0.298,-0.134 -0.298,-0.298c0,-0.017 0.002,-0.033 0.005,-0.05l0.371,-2.164c0.016,-0.097 -0.016,-0.196 -0.086,-0.264l-1.573,-1.533c-0.057,-0.056 -0.089,-0.132 -0.089,-0.212c-0,-0.147 0.109,-0.274 0.254,-0.295l2.173,-0.316c0.097,-0.014 0.181,-0.075 0.225,-0.163l0.971,-1.969c0.051,-0.101 0.155,-0.166 0.268,-0.166c0.113,0 0.217,0.065 0.268,0.166Z"/>
</g></svg>