<svg width="48px" height="48px" viewBox="0 0 48 48" version="1.1" xmlns="http://www.w3.org/2000/svg">
<path fill="#202020" d="M33.454,4.432l-2.174,-0l-0,-3.38c-0,-0.554 -0.45,-1.004 -1.005,-1.004c-0.554,-0 -1.005,0.45 -1.005,1.004l0,3.38l-2.174,-0l0,-3.38c0,-0.554 -0.45,-1.004 -1.004,-1.004c-0.555,-0 -1.005,0.45 -1.005,1.004l0,3.38l-2.174,-0l-0,-3.38c-0,-0.554 -0.45,-1.004 -1.005,-1.004c-0.554,-0 -1.004,0.45 -1.004,1.004l-0,3.38l-2.174,-0l-0,-3.38c-0,-0.554 -0.451,-1.004 -1.005,-1.004c-0.555,-0 -1.005,0.45 -1.005,1.004l0,3.38l-2.174,-0l0,-3.38c0,-0.554 -0.45,-1.004 -1.004,-1.004c-0.555,-0 -1.005,0.45 -1.005,1.004l-0,3.38l-3.407,-0c-0,2.592 -2.104,4.696 -4.696,4.696l-0,3.433l-3.405,-0c-0.555,-0 -1.005,0.45 -1.005,1.004c-0,0.555 0.45,1.005 1.005,1.005l3.405,0l-0,2.174l-3.405,0c-0.555,0 -1.005,0.45 -1.005,1.005c-0,0.554 0.45,1.005 1.005,1.005l3.405,-0l-0,2.174l-3.405,-0c-0.555,-0 -1.005,0.45 -1.005,1.004c-0,0.555 0.45,1.005 1.005,1.005l3.405,-0l-0,2.174l-3.405,-0c-0.555,-0 -1.005,0.45 -1.005,1.005c-0,0.554 0.45,1.004 1.005,1.004l3.405,0l-0,2.174l-3.405,0c-0.555,0 -1.005,0.45 -1.005,1.005c-0,0.554 0.45,1.005 1.005,1.005l3.405,-0l-0,2.174l-3.405,-0c-0.555,-0 -1.005,0.45 -1.005,1.004c-0,0.555 0.45,1.005 1.005,1.005l3.405,0l-0,3.381c2.592,0 4.696,2.104 4.696,4.696l3.407,0l-0,3.431c-0,0.555 0.45,1.005 1.005,1.005c0.554,0 1.004,-0.45 1.004,-1.005l0,-3.431l2.174,0l0,3.431c0,0.555 0.45,1.005 1.005,1.005c0.554,0 1.005,-0.45 1.005,-1.005l-0,-3.431l2.174,0l-0,3.431c-0,0.555 0.45,1.005 1.004,1.005c0.555,0 1.005,-0.45 1.005,-1.005l-0,-3.431l2.174,0l0,3.431c0,0.555 0.45,1.005 1.005,1.005c0.554,0 1.004,-0.45 1.004,-1.005l0,-3.431l2.174,0l0,3.431c0,0.555 0.451,1.005 1.005,1.005c0.555,0 1.005,-0.45 1.005,-1.005l-0,-3.431l2.174,0l-0,3.431c-0,0.555 0.45,1.005 1.004,1.005c0.555,0 1.005,-0.45 1.005,-1.005l0,-3.431l3.407,0c0,-2.592 2.104,-4.696 4.696,-4.696l0,-3.381l3.405,0c0.555,0 1.005,-0.45 1.005,-1.005c0,-0.554 -0.45,-1.004 -1.005,-1.004l-3.405,-0l0,-2.174l3.405,-0c0.555,-0 1.005,-0.451 1.005,-1.005c0,-0.555 -0.45,-1.005 -1.005,-1.005l-3.405,0l0,-2.174l3.405,0c0.555,0 1.005,-0.45 1.005,-1.004c0,-0.555 -0.45,-1.005 -1.005,-1.005l-3.405,-0l0,-2.174l3.405,-0c0.555,-0 1.005,-0.45 1.005,-1.005c0,-0.554 -0.45,-1.004 -1.005,-1.004l-3.405,-0l0,-2.174l3.405,-0c0.555,-0 1.005,-0.451 1.005,-1.005c0,-0.555 -0.45,-1.005 -1.005,-1.005l-3.405,0l0,-2.174l3.405,0c0.555,0 1.005,-0.45 1.005,-1.005c0,-0.554 -0.45,-1.004 -1.005,-1.004l-3.405,-0l0,-3.433c-2.592,-0 -4.696,-2.104 -4.696,-4.696l-3.407,-0l0,-3.38c0,-0.554 -0.45,-1.004 -1.005,-1.004c-0.554,-0 -1.004,0.45 -1.004,1.004l-0,3.38Z"/>
</svg>