<svg width="48px" height="48px" version="1.1" xmlns="http://www.w3.org/2000/svg">
<path fill="#202020" d="M15.335,5.002l0,-1.865c-0.007,-0.242 0.192,-0.441 0.434,-0.441l4,0c0.254,-2.083 1.938,-2.696 3.977,-2.696c2.028,0 3.7,0.59 3.973,2.653l4.512,0.043c0.246,0 0.441,0.195 0.441,0.441l0,1.865l3.424,0l0,0.006l3.585,0c1.457,0 2.645,1.2 2.645,2.645l0,37.702c0,1.45 -1.196,2.645 -2.645,2.645l-31.362,0c-1.449,0 -2.645,-1.192 -2.645,-2.645l0,-37.702c0,-1.457 1.192,-2.645 2.645,-2.645l4.066,0l0,-0.006l2.95,0Zm-1.148,32.458l19.626,0c0.786,0 1.422,-0.637 1.422,-1.422c0,-0.785 -0.636,-1.422 -1.422,-1.422l-19.626,0c-0.786,0 -1.422,0.637 -1.422,1.422c0,0.785 0.636,1.422 1.422,1.422Zm0.484,-8.587l18.658,0c0.785,0 1.422,-0.636 1.422,-1.422c0,-0.785 -0.637,-1.422 -1.422,-1.422l-18.658,0c-0.785,0 -1.422,0.637 -1.422,1.422c0,0.786 0.637,1.422 1.422,1.422Zm-1.496,-8.582l21.658,0c0.785,0 1.422,-0.637 1.422,-1.422c0,-0.785 -0.637,-1.422 -1.422,-1.422l-21.658,0c-0.785,0 -1.422,0.637 -1.422,1.422c0,0.785 0.637,1.422 1.422,1.422Zm8.93,-15.783c0.27,0.371 0.661,0.739 1.071,0.926c0.336,0.102 0.703,0.11 1.043,0.016c0.531,-0.246 1.023,-0.836 1.25,-1.328c0.027,-0.141 0.043,-0.286 0.043,-0.442c0,-1.043 -0.801,-1.891 -1.785,-1.891c-0.989,0 -1.786,0.848 -1.786,1.891c0,0.32 0.059,0.598 0.164,0.828Z"/>
</svg>