<svg width="48px" height="48px" viewBox="0 0 48 48" version="1.1" xmlns="http://www.w3.org/2000/svg" >
<g fill="#202020">
<path d="M13.339,14.477c-2.155,0.303 -4.364,1.143 -6.355,2.522l0,-0c-2.683,1.859 -6.552,5.088 -6.95,10.412l-0.034,0.458l0.442,0.127c3.048,0.88 6.224,0.532 9.072,-0.633c0.381,-4.307 1.734,-8.941 3.74,-12.728c0.028,-0.053 0.056,-0.106 0.085,-0.158Zm20.319,-0.186c0.111,0.201 0.22,0.404 0.327,0.61c1.753,3.375 2.947,7.364 3.519,11.104c3.324,0.884 6.93,0.735 10.087,-0.884l0.409,-0.21l-0.122,-0.443c-1.416,-5.164 -5.848,-7.599 -8.849,-8.912c-1.764,-0.773 -3.6,-1.186 -5.371,-1.265Z"/>
<path d="M23.929,3.729c-0.686,0 -1.317,0.267 -1.829,0.718c-0.323,-0.284 -0.74,-0.455 -1.203,-0.455c-1.013,-0 -1.84,0.816 -1.84,1.83c0,0.073 0.002,0.15 0.01,0.222c-0.263,0.055 -0.516,0.139 -0.768,0.243c-0.66,-0.829 -1.595,-1.335 -2.628,-1.335c-1.87,0 -3.408,1.684 -3.598,3.851c-0.862,0.459 -1.466,1.492 -1.466,2.689c0,1.376 0.797,2.531 1.87,2.85c0.468,1.354 1.587,2.315 2.891,2.315c0.468,0 0.916,-0.135 1.314,-0.354c0.862,0.882 1.979,1.415 3.204,1.415c1.919,0 3.589,-1.3 4.407,-3.204c0.617,0.579 1.389,0.92 2.234,0.92c0.678,0 1.306,-0.231 1.85,-0.616c0.448,1.403 1.586,2.405 2.921,2.405c0.652,-0 1.257,-0.237 1.758,-0.647c0.324,0.284 0.74,0.455 1.203,0.455c1.014,-0 1.84,-0.826 1.84,-1.84c0,-0.217 -0.032,-0.423 -0.101,-0.616c0.88,-0.562 1.477,-1.668 1.477,-2.942c0,-0.773 -0.226,-1.485 -0.597,-2.052c0.185,-0.286 0.293,-0.623 0.293,-0.99c-0,-1.013 -0.817,-1.84 -1.83,-1.84c-0.138,0 -0.275,0.022 -0.404,0.051c-0.464,-1.232 -1.648,-2.113 -3.043,-2.113c-0.958,0 -1.819,0.413 -2.416,1.072c-0.515,-0.338 -1.108,-0.536 -1.738,-0.536c-0.408,0 -0.796,0.094 -1.162,0.243c-0.556,-1.041 -1.539,-1.739 -2.649,-1.739Z"/>
<path d="M20.534,24.637c-0.216,0.481 -0.79,0.699 -1.27,0.482c-0.481,-0.216 -0.699,-0.79 -0.482,-1.27c0.216,-0.481 0.79,-0.699 1.27,-0.482c0.481,0.216 0.699,0.789 0.482,1.27Zm9.96,-0.02c-0.217,0.481 -0.79,0.698 -1.271,0.482c-0.481,-0.216 -0.698,-0.79 -0.482,-1.271c0.216,-0.48 0.79,-0.698 1.271,-0.482c0.48,0.217 0.698,0.79 0.482,1.271Z"/>
<path d="M36.174,35.849c2.847,-7.317 -2.526,-28.361 -12.915,-28.408c-8.847,-0.04 -15.872,20.22 -11.621,28.867c5.985,12.171 20.828,9.071 24.536,-0.459Zm-8.42,0.23c0.361,-0.537 0.95,-0.779 1.35,-0.54c0.42,0.251 0.473,0.934 0.12,1.526c-0.354,0.591 -0.981,0.868 -1.4,0.618c-0.266,-0.159 -0.385,-0.492 -0.345,-0.866c-0.91,0.947 -1.513,2.107 -1.801,3.267c-0.16,-1.224 0.309,-2.029 0.855,-2.882c0.372,-0.581 0.785,-0.905 1.221,-1.123Zm-6.224,0.974c0.069,0.392 -0.036,0.753 -0.309,0.929c-0.411,0.265 -1.049,0.01 -1.424,-0.571c-0.375,-0.581 -0.345,-1.268 0.066,-1.533c0.369,-0.238 0.92,-0.057 1.301,0.402c0.406,0.186 0.796,0.472 1.16,0.989c0.547,0.778 1.02,1.514 0.92,2.669c-0.305,-1.032 -0.881,-2.053 -1.714,-2.885Zm-0.37,-11.7c-0.546,1.214 -1.994,1.763 -3.208,1.217c-1.214,-0.546 -1.763,-1.994 -1.217,-3.208c0.546,-1.214 1.994,-1.763 3.208,-1.217c1.213,0.546 1.763,1.994 1.217,3.208Zm9.959,-0.02c-0.546,1.213 -1.994,1.763 -3.208,1.217c-1.214,-0.546 -1.763,-1.994 -1.217,-3.208c0.546,-1.214 1.994,-1.763 3.208,-1.217c1.214,0.546 1.763,1.994 1.217,3.208Z"/>
</g></svg>