<svg version="1.1" xmlns="http://www.w3.org/2000/svg" x="0px" y="0px" width="48px" height="48px" viewBox="0 0 48 48" enable-background="new 0 0 48 48" xml:space="preserve">
<g fill="#202020">
<path d="M13.031,33.947l0.102-5.315c0-0.401,1.055-1.457,1.457-1.457l30.332,0.027 c0.377-0.013,1.486,0.94,1.486,1.43v5.315h0.104c0.309,0,0.559,0.253,0.559,0.563v12.233c0,0.312-0.25,0.563-0.559,0.563H13.032 c-0.31,0-0.56-0.252-0.56-0.563V34.51C12.471,34.2,12.721,33.947,13.031,33.947z M43.893,33.947v-3.887H15.711v3.887h3.008 c0.31,0,0.56,0.252,0.56,0.563v1.318h4.198V34.51c0-0.311,0.248-0.563,0.558-0.563h11.006c0.309,0,0.559,0.252,0.559,0.563v1.318 h4.662V34.51c0-0.311,0.252-0.563,0.563-0.563H43.893z"/>
<path d="M24.816,2.028c1.588,0,2.875,1.286,2.875,2.875v21.223L14.57,26.113c-1.144,0.046-2.297,1.146-2.434,2.363 l-0.003,4.694c0,0-0.646,0.651-0.662,1.267c0,3.664-0.08,7.328-0.025,10.989H3.16c-1.589,0-2.874,0.541-2.874-1.047V4.903 c0-1.589,1.285-2.875,2.874-2.875H24.816z M22.097,23.818c0.86,0,1.557-0.698,1.557-1.558v-3.696c0-0.86-0.698-1.557-1.557-1.557 H5.877c-0.857,0-1.554,0.697-1.554,1.557v3.696c0,0.861,0.697,1.558,1.554,1.558H22.097z M22.097,13.43 c0.86,0,1.557-0.697,1.557-1.557V8.178c0-0.86-0.698-1.557-1.557-1.557H5.877c-0.857,0-1.554,0.697-1.554,1.557v3.695 c0,0.86,0.697,1.557,1.554,1.557H22.097z"/>
</g></svg>