<svg width="48px" height="48px" version="1.1" xmlns="http://www.w3.org/2000/svg">
<path fill="#202020" d="M12.931,14.07l-4.867,0l-0,12.271c-0,3.905 1.551,7.65 4.312,10.411c2.174,2.175 4.958,3.599 7.95,4.106l-0,6.139l7.348,0l0,-6.139c2.992,-0.507 5.776,-1.931 7.95,-4.106c2.761,-2.761 4.312,-6.506 4.312,-10.411c0,-6.316 0,-12.271 0,-12.271l-4.867,0l-0,-11.832c-0,-0.682 -0.554,-1.235 -1.235,-1.235l-2.47,-0c-0.682,-0 -1.235,0.553 -1.235,1.235l-0,11.832l-12.258,0l0,-11.832c0,-0.682 -0.553,-1.235 -1.235,-1.235l-2.47,-0c-0.681,-0 -1.235,0.553 -1.235,1.235l0,11.832Z"/>
</svg>