<svg version="1.1" xmlns="http://www.w3.org/2000/svg" x="0px" y="0px" width="48px" height="48px">
<g fill="#202020">
<rect x="5.086" y="17.542" width="5.998" height="2.312"/>
<path d="M44.568,3.428H3.429C1.536,3.428,0,4.96,0,6.854v34.289c0,1.892,1.536,3.428,3.429,3.428h41.139 c1.89,0,3.432-1.536,3.432-3.428V6.854C48,4.96,46.457,3.428,44.568,3.428z M44.568,41.145H3.429V12.035h41.139V41.145z M42.7,10.151c-1.284,0-2.325-1.042-2.325-2.326c0-1.284,1.041-2.325,2.325-2.325s2.325,1.042,2.325,2.326 C45.025,9.11,43.984,10.151,42.7,10.151z"/>
</g></svg>