<svg version="1.1" xmlns="http://www.w3.org/2000/svg" x="0px" y="0px" width="48px" height="48px">
<path fill="#202020" d="M23.8,0C10.5,0.1-0.1,11,0,24.2C0.1,37.5,11,48.1,24.2,48C37.5,47.9,48.1,37,48,23.8 C47.9,10.7,37.3,0.1,24.2,0H23.8z M24.2,4.9c10.5,0.1,19,8.8,18.9,19.3c-0.1,10.5-8.8,19-19.3,18.9C13.2,43,4.8,34.3,4.9,23.8 C5,13.4,13.4,5,23.8,4.9H24.2z M10.9,20.8c1.8-7.2,9-11.7,16.3-9.9c7.2,1.8,11.7,9,9.9,16.3c-1.8,7.2-9,11.7-16.3,9.9 c-4.9-1.2-8.7-5-9.9-9.9H17c1.8,3.7,6.1,5.2,9.8,3.4c3.7-1.8,5.2-6.1,3.4-9.8c-1.8-3.7-6.1-5.2-9.8-3.4c-1.5,0.7-2.7,1.9-3.4,3.4"/>
</svg>