<svg width="48px" height="48px" version="1.1" xmlns="http://www.w3.org/2000/svg">
<g fill="#202020">
<path d="M16.637,1.002c-1.244,0 -2.246,1.001 -2.246,2.246l-0,34.938c-0,1.245 1.002,2.247 2.246,2.247l24.697,0c1.245,0 2.247,-1.002 2.247,-2.247l0,-23.21l-14.975,0c-1.244,0 -2.246,-1.001 -2.246,-2.246l0,-11.728l-9.723,0Z"/>
<path d="M6.671,7.571c-1.245,0 -2.246,1.002 -2.246,2.246l0,34.938c0,1.244 1.001,2.246 2.246,2.246l24.697,0c1.245,0 2.246,-1.002 2.246,-2.246l0,-2.62l-18.328,0c-1.244,0 -2.246,-1.003 -2.246,-2.247l-0,-32.317l-6.369,-0Z"/>
<path d="M27.857,1.002l0,10.23c0,1.245 1.002,2.246 2.246,2.246l13.478,0l-15.724,-12.476Z"/>
</g></svg>