<svg version="1.1" xmlns="http://www.w3.org/2000/svg" x="0px" y="0px" width="48px" height="48px" viewBox="0 0 48 48" enable-background="new 0 0 48 48" >
<g fill="#202020">
<path d="M20.813,16.752c-0.134,0-0.274-0.055-0.375-0.164c-0.192-0.208-0.178-0.533,0.029-0.725 c0.39-0.366,0.606-0.861,0.606-1.396c0-0.51-0.197-0.988-0.558-1.348c-0.202-0.201-0.202-0.525,0-0.726 c0.197-0.2,0.524-0.201,0.726,0c0.553,0.552,0.861,1.29,0.861,2.074c0,0.812-0.341,1.594-0.938,2.147 C21.069,16.707,20.939,16.752,20.813,16.752"/>
<path d="M22.824,17.766c-0.111,0-0.221-0.035-0.313-0.104c-0.226-0.172-0.27-0.496-0.096-0.72 c0.548-0.714,0.837-1.572,0.837-2.474c0-0.925-0.303-1.798-0.875-2.524c-0.173-0.223-0.135-0.545,0.086-0.72 c0.221-0.176,0.543-0.139,0.722,0.085c0.712,0.909,1.092,2.001,1.092,3.159c0,1.13-0.361,2.201-1.044,3.096 C23.132,17.696,22.978,17.766,22.824,17.766"/>
<path d="M24.814,18.785c-0.101,0-0.201-0.029-0.289-0.088c-0.235-0.159-0.297-0.478-0.134-0.713 c0.703-1.039,1.073-2.255,1.073-3.516c0-1.292-0.39-2.532-1.121-3.588c-0.164-0.233-0.106-0.553,0.125-0.714 c0.236-0.163,0.554-0.105,0.716,0.127c0.853,1.229,1.305,2.672,1.305,4.175c0,1.467-0.434,2.881-1.252,4.092 C25.143,18.707,24.979,18.785,24.814,18.785"/>
<path d="M31.891,0.461H16.106c-3.827,0-6.93,3.737-6.93,8.348L9.175,26.07c0,8.35,1.439,21.467,8.369,21.467h12.911 c6.934,0,8.368-13.117,8.368-21.467V8.81C38.823,4.199,35.721,0.461,31.891,0.461z M20.392,42.3c0,0.304-0.223,0.548-0.497,0.548 h-3.732c-0.273,0-0.495-0.244-0.495-0.548v-1.821c0-0.304,0.222-0.552,0.495-0.552h3.732c0.273,0,0.497,0.248,0.497,0.552V42.3z M20.392,38.404c0,0.303-0.223,0.549-0.497,0.549h-3.732c-0.273,0-0.495-0.246-0.495-0.549v-1.82c0-0.305,0.222-0.551,0.495-0.551 h3.732c0.273,0,0.497,0.246,0.497,0.551V38.404z M20.392,34.512c0,0.303-0.223,0.551-0.497,0.551h-3.732 c-0.273,0-0.495-0.248-0.495-0.551v-1.822c0-0.303,0.222-0.549,0.495-0.549h3.732c0.273,0,0.497,0.246,0.497,0.549V34.512z M20.406,30.547c0,0.305-0.222,0.549-0.496,0.549h-3.72c-0.273,0-0.494-0.244-0.494-0.549v-1.814c0-0.303,0.221-0.547,0.494-0.547 h3.72c0.274,0,0.496,0.244,0.496,0.547V30.547z M26.434,42.299c0,0.303-0.223,0.547-0.496,0.547h-3.73 c-0.275,0-0.497-0.244-0.497-0.547v-1.822c0-0.303,0.222-0.551,0.497-0.551h3.73c0.273,0,0.496,0.248,0.496,0.551V42.299z M26.434,38.404c0,0.303-0.223,0.549-0.496,0.549h-3.73c-0.275,0-0.497-0.246-0.497-0.549v-1.82c0-0.305,0.222-0.551,0.497-0.551 h3.73c0.273,0,0.496,0.246,0.496,0.551V38.404z M26.438,34.512c0,0.303-0.221,0.551-0.496,0.551H22.21 c-0.274,0-0.494-0.248-0.494-0.551v-1.822c0-0.303,0.22-0.549,0.494-0.549h3.731c0.275,0,0.496,0.246,0.496,0.549V34.512z M22.214,31.096c-0.272,0-0.494-0.244-0.494-0.549v-1.814c0-0.303,0.222-0.547,0.494-0.547h3.722c0.274,0,0.496,0.244,0.496,0.547 v1.814c0,0.305-0.222,0.549-0.496,0.549H22.214z M32.479,42.299h-0.004c0,0.303-0.222,0.547-0.494,0.547h-3.73 c-0.275,0-0.497-0.244-0.497-0.547v-1.822c0-0.303,0.222-0.551,0.497-0.551h3.729c0.273,0,0.498,0.248,0.498,0.551v1.822H32.479z M27.747,30.547v-1.814c0-0.303,0.221-0.547,0.494-0.547h3.72c0.273,0,0.495,0.244,0.495,0.547v1.814 c0,0.305-0.222,0.549-0.495,0.549h-3.72C27.968,31.096,27.747,30.852,27.747,30.547z M32.479,38.404h-0.004 c0,0.303-0.222,0.549-0.494,0.549h-3.73c-0.275,0-0.497-0.246-0.497-0.549v-1.82c0-0.305,0.222-0.551,0.497-0.551h3.729 c0.273,0,0.498,0.246,0.498,0.551v1.82H32.479z M32.484,34.512c0,0.303-0.223,0.551-0.496,0.551h-3.731 c-0.272,0-0.497-0.248-0.497-0.551v-1.822c0-0.303,0.225-0.549,0.497-0.549h3.731c0.273,0,0.496,0.246,0.496,0.549V34.512 L32.484,34.512z M34.949,23.25H13.204V5.833h21.745V23.25z"/>
</g></svg>