<svg width="48px" height="48px" viewBox="0 0 48 48" version="1.1" xmlns="http://www.w3.org/2000/svg">
<path fill="#202020" d="M23.54,0.005c12.601,-0.253 22.895,9.886 22.895,22.43c-0,7.048 -3.263,13.321 -8.348,17.431l0,6.569c0,0.864 -0.701,1.565 -1.565,1.565l-3.131,0c-0.864,0 -1.565,-0.701 -1.565,-1.565l0,-3.131c0,-0.889 -0.742,-1.605 -1.641,-1.563c-0.842,0.04 -1.489,0.765 -1.489,1.608l-0,3.086c-0,0.864 -0.701,1.565 -1.566,1.565c-0.864,0 -1.565,-0.701 -1.565,-1.565l0,-3.131c0,-0.889 -0.742,-1.605 -1.641,-1.563c-0.842,0.04 -1.489,0.765 -1.489,1.608l-0,3.086c-0,0.864 -0.701,1.565 -1.565,1.565c-0.865,0 -1.566,-0.701 -1.566,-1.565l0,-3.131c0,-0.889 -0.742,-1.605 -1.641,-1.563c-0.842,0.04 -1.489,0.765 -1.489,1.608l-0,3.086c-0,0.864 -0.701,1.565 -1.565,1.565l-3.131,0c-0.864,0 -1.565,-0.701 -1.565,-1.565l-0,-6.569c-5.079,-4.105 -8.34,-10.368 -8.348,-17.406c-0.013,-12.179 9.798,-22.211 21.975,-22.455Zm10.373,17.734c-3.456,0 -6.261,2.805 -6.261,6.261c-0,3.455 2.805,6.261 6.261,6.261c3.455,-0 6.261,-2.806 6.261,-6.261c-0,-3.456 -2.806,-6.261 -6.261,-6.261Zm-19.826,0c-3.456,0 -6.261,2.805 -6.261,6.261c-0,3.455 2.805,6.261 6.261,6.261c3.455,-0 6.261,-2.806 6.261,-6.261c-0,-3.456 -2.806,-6.261 -6.261,-6.261Zm14.15,18.324c0.611,-0.611 0.611,-1.602 -0,-2.213l-3.131,-3.131c-0.611,-0.611 -1.602,-0.611 -2.213,0l-3.13,3.131c-0.612,0.611 -0.612,1.602 -0,2.213c0.611,0.611 1.602,0.611 2.213,0l2.024,-2.024l2.024,2.024c0.305,0.306 0.706,0.459 1.106,0.459c0.401,-0 0.801,-0.153 1.107,-0.459Z"/>
</svg>