<svg width="48px" height="48px" viewBox="0 0 48 48" version="1.1" xmlns="http://www.w3.org/2000/svg">
<path fill="#202020" d="M42.776,30.559c0.726,-0.187 1.496,0.055 1.983,0.626c0.487,0.57 0.606,1.368 0.308,2.056c-3.562,8.098 -11.659,13.759 -21.067,13.759c-12.694,0 -23,-10.306 -23,-23c0,-9.872 6.234,-18.3 14.976,-21.559c0.7,-0.256 1.483,-0.09 2.02,0.426c0.536,0.517 0.731,1.294 0.502,2.002c-0.6,1.912 -0.923,3.945 -0.923,6.054c0,11.175 9.073,20.247 20.248,20.247c1.708,0 3.368,-0.212 4.953,-0.611Z"/>
</svg>