<svg width="48px" height="48px" version="1.1" xmlns="http://www.w3.org/2000/svg">
<path fill="#202020" d="M48,8l0,32c0,2.208 -1.792,4 -4,4l-40,0c-2.208,0 -4,-1.792 -4,-4l0,-32c0,-2.208 1.792,-4 4,-4l40,0c2.208,0 4,1.792 4,4Zm-22.288,8.46c0,0.001 0,0.003 -0.001,0.005c-0.197,0.993 -0.255,1.983 -0.184,2.991c0.026,0.26 -0.007,1.353 0.525,1.059c0.166,0 0.098,-1.148 0.105,-1.334l0.001,-0.002c0.042,-0.555 0.115,-1.106 0.248,-1.647c0.05,-0.204 0.379,-0.898 0.118,-0.968c-0.115,-0.031 -0.761,-0.293 -0.812,-0.104Zm-8.506,17.271c-2.17,-0 -3.932,1.762 -3.932,3.932c-0,2.17 1.762,3.932 3.932,3.932c2.17,-0 3.932,-1.762 3.932,-3.932c-0,-2.17 -1.762,-3.932 -3.932,-3.932Zm-0,1.625c0.346,0 0.626,0.28 0.626,0.626c0,0.346 -0.28,0.627 -0.626,0.627c-0.346,0 -0.627,-0.281 -0.627,-0.627c-0,-0.346 0.281,-0.626 0.627,-0.626Zm0.626,1.93l0,2.514c0,0.173 -0.14,0.313 -0.313,0.313l-0.626,0c-0.174,0 -0.314,-0.14 -0.314,-0.313l-0,-2.514c-0,-0.173 0.14,-0.313 0.314,-0.313l0.626,0c0.173,0 0.313,0.14 0.313,0.313Zm24.181,-18.103c-0.043,0.447 -0.096,0.898 -0.22,1.332l4.279,0c0.225,-0.001 0.126,-0.857 0.125,-1.004c-0.028,-0.938 -0.157,-1.866 -0.39,-2.776c-0.084,-0.326 -0.092,-0.821 -0.495,-0.706c-0.363,0.103 -0.726,0.206 -1.089,0.31c-0.743,0.211 -1.485,0.423 -2.229,0.635c-0.191,0.055 0.038,1.308 0.04,1.492c0.002,0.251 -0.009,0.501 -0.021,0.751l-0,-0.034Zm3.07,-4.167c0.277,-0.113 -1.037,-2.042 -1.172,-2.223c-0.567,-0.76 -1.232,-1.433 -1.965,-2.033c-0.252,-0.207 -0.311,-0.213 -0.488,0.001c-0.19,0.23 -0.38,0.459 -0.569,0.689c-0.378,0.458 -0.757,0.916 -1.135,1.375c-0.179,0.216 0.184,0.434 0.325,0.593c0.304,0.349 0.581,0.717 0.821,1.111c0.168,0.284 0.325,0.573 0.46,0.875c0.057,0.138 0.297,0.99 0.476,0.918c1.029,-0.414 2.059,-0.828 3.089,-1.242c0.053,-0.021 0.106,-0.043 0.158,-0.064Zm-38.738,8.613c-2.177,0.044 -3.932,1.838 -3.93,4.015c0.002,1.259 0.585,2.379 1.494,3.114l-0,1.174c-0,0.155 0.125,0.28 0.279,0.28l0.56,-0c0.154,-0 0.279,-0.125 0.279,-0.28l0,-0.552c0,-0.15 0.116,-0.28 0.267,-0.288c0.161,-0.007 0.293,0.121 0.293,0.281l0,0.559c0,0.155 0.125,0.28 0.281,0.28c0.154,-0 0.279,-0.125 0.279,-0.28l0,-0.552c0,-0.15 0.116,-0.28 0.266,-0.288c0.161,-0.007 0.294,0.121 0.294,0.281l-0,0.559c-0,0.155 0.125,0.28 0.28,0.28c0.155,-0 0.28,-0.125 0.28,-0.28l-0,-0.552c-0,-0.15 0.116,-0.28 0.266,-0.288c0.161,-0.007 0.294,0.121 0.294,0.281l-0,0.559c-0,0.155 0.125,0.28 0.28,0.28l0.56,-0c0.154,-0 0.279,-0.125 0.279,-0.28l0,-1.174c0.91,-0.736 1.493,-1.858 1.493,-3.117c-0,-2.245 -1.84,-4.058 -4.094,-4.012Zm-1.691,3.171c0.618,0 1.12,0.502 1.12,1.12c0,0.618 -0.502,1.12 -1.12,1.12c-0.617,-0 -1.119,-0.502 -1.119,-1.12c-0,-0.618 0.502,-1.12 1.119,-1.12Zm2.531,3.277c-0.055,0.055 -0.127,0.082 -0.198,0.082c-0.072,0 -0.144,-0.027 -0.198,-0.082l-0.362,-0.362l-0.361,0.362c-0.11,0.11 -0.287,0.11 -0.397,0c-0.109,-0.109 -0.109,-0.286 0,-0.395l0.56,-0.56c0.11,-0.109 0.287,-0.109 0.396,-0l0.56,0.56c0.109,0.109 0.109,0.286 0,0.395Zm1.016,-3.277c0.617,0 1.119,0.502 1.119,1.12c0,0.618 -0.502,1.12 -1.119,1.12c-0.619,-0 -1.12,-0.502 -1.12,-1.12c-0,-0.618 0.501,-1.12 1.12,-1.12Zm10.636,-2.813l-3.259,0l-2.304,2.304l-0,3.258l2.304,2.304l3.259,0l2.304,-2.304l-0,-3.258l-2.304,-2.304Zm-0.385,2.093c0.088,0.007 0.168,0.043 0.232,0.104l0.257,0.256c0.045,0.049 0.055,0.065 0.07,0.099c0.065,0.134 0.054,0.278 -0.069,0.407l-0.972,0.974l0.986,0.987c0.043,0.05 0.05,0.068 0.064,0.102c0.054,0.132 0.04,0.265 -0.078,0.39l-0.258,0.258c-0.046,0.044 -0.064,0.052 -0.097,0.069c-0.134,0.064 -0.278,0.052 -0.408,-0.069l-0.972,-0.973l-0.986,0.986c-0.051,0.042 -0.068,0.05 -0.102,0.063c-0.132,0.055 -0.265,0.041 -0.39,-0.076l-0.257,-0.257c-0.045,-0.049 -0.053,-0.065 -0.069,-0.099c-0.066,-0.134 -0.053,-0.278 0.068,-0.407l0.973,-0.974l-0.986,-0.987c-0.042,-0.05 -0.05,-0.068 -0.064,-0.102c-0.055,-0.132 -0.041,-0.265 0.077,-0.39l0.258,-0.257c0.047,-0.044 0.065,-0.053 0.097,-0.07c0.136,-0.064 0.28,-0.052 0.409,0.07l0.972,0.972l0.987,-0.986c0.072,-0.061 0.116,-0.094 0.258,-0.09Zm14.963,-15.136c0.006,0 0.022,-0.003 0.025,-0.003c0.321,-0.042 0.643,-0.061 0.966,-0.064c0.238,-0.001 0.201,-0.138 0.19,-0.314c-0.034,-0.515 -0.068,-1.03 -0.101,-1.545c-0.009,-0.126 -0.017,-0.252 -0.025,-0.378c-0.014,-0.216 -0.694,-0.023 -0.841,0.006c-0.784,0.149 -1.553,0.388 -2.277,0.725c-0.319,0.15 -0.63,0.311 -0.933,0.491c-0.201,0.118 -0.867,0.419 -0.905,0.645c-0.021,0.121 0.188,0.33 0.246,0.415c0.156,0.229 0.312,0.459 0.468,0.688c0.051,0.075 0.193,0.384 0.328,0.307c0.319,-0.181 0.649,-0.342 0.99,-0.479c0.606,-0.235 1.225,-0.402 1.869,-0.494Zm2.099,0.009c0.323,0.044 0.406,0.165 0.544,-0.117c0.14,-0.287 0.28,-0.573 0.42,-0.86c0.224,-0.457 0.447,-0.914 0.671,-1.371c-0.483,-0.076 -0.969,-0.125 -1.458,-0.133c-0.346,-0.004 -0.255,0.34 -0.268,0.61c-0.02,0.413 -0.039,0.826 -0.059,1.239c-0.01,0.208 -0.128,0.594 0.15,0.632Zm7.704,21.27c0,-3.989 -3.234,-7.223 -7.224,-7.223l0,7.223l7.224,0Zm-4.356,-25.332c-0.443,-0.139 -1.449,2.474 -2.722,5.17c-1.314,2.783 -2.891,5.661 -3.034,6.119c-0.282,0.9 0.219,1.86 1.12,2.143c0.9,0.282 1.861,-0.22 2.143,-1.12c0.146,-0.466 0.746,-3.696 1.459,-6.715c0.666,-2.824 1.469,-5.461 1.034,-5.597Zm-4.125,10.989c0.448,0 0.812,0.363 0.812,0.811c0,0.448 -0.364,0.811 -0.812,0.811c-0.447,0 -0.811,-0.363 -0.811,-0.811c0,-0.448 0.364,-0.811 0.811,-0.811Zm-0.333,8.708c-3.989,0 -7.223,3.234 -7.223,7.223c-0,3.987 3.236,7.224 7.223,7.224c3.989,0 7.223,-3.234 7.223,-7.224l-7.223,0l-0,-7.223Zm4.348,-14.317c0.106,0.081 0.383,0.358 0.487,0.198c0.067,-0.101 0.134,-0.203 0.2,-0.304c0.285,-0.434 0.57,-0.868 0.855,-1.302c0.109,-0.166 0.478,-0.546 0.492,-0.75c0.142,-0.22 -1.414,-0.836 -1.593,-0.906c-0.116,0.499 -0.23,0.999 -0.345,1.498c-0.078,0.335 -0.155,0.67 -0.232,1.005c-0.075,0.326 -0.161,0.36 0.128,0.555c-0.029,-0.019 0.007,0.005 0.008,0.006Zm-11.34,0.349c-0.346,0.492 -0.65,1 -0.915,1.541c-0.115,0.233 -0.221,0.474 -0.313,0.717c-0.078,0.212 -0.317,0.556 -0.03,0.667c0.198,0.075 0.395,0.152 0.593,0.227c0.274,0.105 0.298,-0.047 0.424,-0.291c0.271,-0.52 0.587,-1.013 0.953,-1.472c0.376,-0.472 0.802,-0.896 1.263,-1.286c0.086,-0.068 0.486,-0.294 0.365,-0.435l-0.325,-0.38c-0.08,-0.095 -0.61,-0.866 -0.762,-0.719c-0.457,0.441 -0.887,0.912 -1.253,1.431Zm-17.173,28.169c0.265,-0.459 0.267,-1.003 0.004,-1.46l-2.644,-4.579c-0.262,-0.46 -0.734,-0.734 -1.265,-0.734c-0.53,-0 -1.003,0.276 -1.265,0.733l-2.647,4.584c-0.263,0.46 -0.262,1.009 0.005,1.466c0.264,0.452 0.735,0.725 1.261,0.725l5.282,-0c0.529,0.002 1.003,-0.274 1.269,-0.735Zm-4.052,-5.051c0.281,-0.058 0.564,0.06 0.685,0.291c0.042,0.08 0.056,0.164 0.056,0.254c-0.014,0.256 -0.041,0.513 -0.056,0.768c-0.023,0.394 -0.052,0.79 -0.078,1.185c-0.015,0.128 -0.015,0.244 -0.015,0.371c-0.012,0.211 -0.201,0.373 -0.443,0.373c-0.242,-0 -0.429,-0.152 -0.444,-0.361c-0.038,-0.616 -0.079,-1.22 -0.12,-1.836c-0.014,-0.161 -0.026,-0.325 -0.041,-0.487c0,-0.267 0.176,-0.488 0.456,-0.558Zm0.145,3.726c0.295,-0 0.535,0.239 0.535,0.534c-0,0.295 -0.24,0.534 -0.535,0.534c-0.294,0 -0.534,-0.239 -0.534,-0.534c0,-0.295 0.24,-0.534 0.534,-0.534Zm15.668,-31.966c0,-0.827 -0.671,-1.498 -1.498,-1.498l-17.004,0c-0.827,0 -1.498,0.671 -1.498,1.498l0,11.98c0,0.827 0.671,1.498 1.498,1.498l17.004,0c0.827,0 1.498,-0.671 1.498,-1.498l0,-11.98Zm-2.5,1.472l0,11.006l-3,-0l0,-11.006l3,-0Zm-4,4.008l0,6.998l-3,-0l0,-6.998l3,-0Zm-8,3.009l0,3.989l-3,-0l0,-3.989l3,-0Zm4,-3.989l0,7.978l-3,-0l0,-7.978l3,-0Z"/>
</svg>