<svg version="1.1" xmlns="http://www.w3.org/2000/svg" x="0px" y="0px" width="48px" height="48px">
<path fill="#202020" d="M42.492,35.084L31.367,24.043l11.039-11.042c0.776-0.777,0.776-1.898,0-2.675L37.75,5.668 c-0.776-0.776-1.898-0.776-2.675,0L24.037,16.71L12.999,5.583c-0.776-0.777-1.897-0.777-2.673,0l-4.743,4.744 c-0.776,0.776-0.776,1.898,0,2.675l11.125,11.042L5.582,35.084c-0.776,0.776-0.776,1.898,0,2.675l4.657,4.659 c0.776,0.776,1.897,0.776,2.673,0l11.125-11.043l11.038,11.043c0.776,0.776,1.898,0.776,2.675,0l4.656-4.659 C43.183,37.069,43.183,35.86,42.492,35.084z"/>
</svg>