<svg width="48px" height="48px" viewBox="0 0 48 48" version="1.1" xmlns="http://www.w3.org/2000/svg" >
<path fill="#202020" d="M22.154,29.538l3.692,-0l0,-3.692l11.078,0c3.086,0.002 3.688,0.047 3.692,3.693l3.692,-0l-0,-3.692c-0.003,-2.447 -1.277,-3.69 -3.692,-3.693l-14.77,0l0,-3.693l-3.692,0l0,3.693l-14.088,0.254c-2.417,0.001 -4.373,1.979 -4.373,4.426l-0,2.704l3.692,-0c0,-2.82 -0.189,-3.69 3.692,-3.692l11.077,0l0,3.692Zm-5.215,-14.769l14.119,0c1.199,0 2.173,-1.078 2.173,-2.411l-0,-6.255c-0,-1.331 -0.973,-2.411 -2.173,-2.411l-14.119,0c-1.199,0 -2.17,1.08 -2.17,2.411l0,6.255c0,1.333 0.971,2.411 2.17,2.411Zm-7.512,18.462l-7.777,-0c-0.911,-0 -1.65,1.039 -1.65,2.323l-0,6.431c-0,1.283 0.739,2.323 1.65,2.323l7.777,-0c0.91,-0 1.649,-1.04 1.649,-2.323l0,-6.431c0.001,-1.284 -0.739,-2.323 -1.649,-2.323Zm18.463,-0l-7.779,-0c-0.911,-0 -1.65,1.039 -1.65,2.323l0,6.431c0,1.283 0.738,2.323 1.65,2.323l7.779,-0c0.911,-0 1.649,-1.04 1.649,-2.323l-0,-6.431c-0,-1.284 -0.738,-2.323 -1.649,-2.323Zm18.46,-0l-7.778,-0c-0.911,-0 -1.648,1.039 -1.648,2.323l-0,6.431c-0,1.283 0.738,2.323 1.648,2.323l7.778,-0c0.912,-0 1.65,-1.04 1.65,-2.323l0,-6.431c0,-1.284 -0.738,-2.323 -1.65,-2.323Z"/>
</svg>