<svg width="48px" height="48px" viewBox="0 0 48 48" version="1.1" xmlns="http://www.w3.org/2000/svg">
<g fill="#202020">
<path d="M26.915,34.709l-7.994,-0l0,-2.434l-2.372,-0l-0,-2.423l-5.622,-0l-0,-16.511l0.44,0c0.193,-1.303 0.994,-2.245 1.052,-3.201c0.091,-1.499 1.231,0.547 0.638,-0.411c-0.592,-0.958 0.046,-2.963 -0.41,-3.693c-0.456,-0.729 -3.055,0.821 -3.055,0.821c0.069,-0.706 2.28,-1.915 3.875,-3.032c1.596,-1.117 2.571,-0.251 3.853,0.159c1.283,0.411 1.368,0.273 0.935,-0.137c-0.433,-0.41 0.183,-0.615 1.186,-0.456c1.002,0.16 1.276,1.368 2.804,1.254c1.527,-0.114 0.159,0.296 0.365,0.684c0.205,0.387 -0.228,0.342 -1.231,1.025c-1.002,0.684 0.023,0.684 1.801,1.983c1.778,1.299 1.231,-0.866 1.049,-1.824c-0.183,-0.958 1.299,-0.205 1.299,-0.205c1.094,0.729 0.892,0.04 1.69,0.291c0.798,0.251 2.96,2.08 2.96,2.08c-2.712,1.482 -1.003,1.642 -0.547,1.983c0.456,0.341 -0.935,1.003 -0.935,1.003c-0.569,-0.57 -0.661,0.022 -1.025,0.228c-0.366,0.205 -0.023,0.729 -0.023,0.729c-0.616,0.097 -0.986,0.373 -1.203,0.719l10.628,0l0,14.101c0.035,0.021 0.069,0.043 0.103,0.066c0.752,0.525 0.229,1.573 0.935,1.915c0.707,0.341 3.534,-0.113 4.24,1.05c0.706,1.162 -2.918,6.997 -4.057,7.636c-1.142,0.638 -1.665,2.099 -2.805,3.031c-1.14,0.936 -2.735,2.093 -4.241,2.988c-1.331,0.791 -1.571,2.21 -2.165,2.657c10.449,-2.317 18.262,-11.639 18.262,-22.785c0,-12.893 -10.451,-23.345 -23.345,-23.345c-12.893,-0 -23.345,10.452 -23.345,23.345c-0,12.894 10.452,23.345 23.345,23.345c1.578,-0 3.119,-0.157 4.609,-0.456c-0.601,-0.286 -0.666,-2.44 -0.073,-3.671c0.662,-1.366 2.736,-4.832 0.684,-5.995c-1.766,-1.001 -1.588,-1.53 -2.305,-2.514Zm-1,-28.764c-0.57,-0.023 -1.912,-0.166 -1.665,-0.411c0.963,-0.958 -0.364,-1.23 -1.185,-1.299c-0.821,-0.069 -1.163,-0.525 -0.752,-0.57c0.41,-0.046 2.052,0.023 2.325,0.251c0.273,0.228 1.755,0.82 1.847,1.254c0.091,0.433 -0,0.797 -0.57,0.775Zm4.946,-0.16c-0.455,0.365 -2.749,-1.309 -3.19,-1.687c-1.915,-1.641 -2.942,-1.094 -3.343,-1.368c-0.403,-0.273 -0.259,-0.639 0.356,-1.186c0.615,-0.546 2.348,0.183 3.351,0.297c1.004,0.113 2.167,0.889 2.188,1.811c0.023,0.921 1.095,1.768 0.638,2.133Zm-9.027,-2.805c-0.159,-0.116 0.33,-0.832 0.456,-0.958c0.342,-0.341 2.028,-0.82 1.699,0.114c-0.329,0.936 -1.904,1.027 -2.155,0.844Z"/>
<path d="M38.073,30.852l0,-18.511l-28.146,0l-0,18.511l5.622,-0l-0,2.423l2.372,-0l0,2.434l12.102,-0l-0,-2.434l2.423,-0l-0,-2.423l5.627,-0Zm-2.079,-2.004l-5.597,-0l-0,2.399l-2.398,-0l-0,2.399l-7.998,-0l0,-2.399l-2.398,-0l0,-2.399l-5.597,-0l-0,-14.394l23.988,0l-0,14.394Z"/>
<rect x="15.742" y="15.49" width="1.101" height="2.879"/>
<rect x="17.944" y="15.49" width="1.1" height="2.879"/>
<rect x="20.146" y="15.49" width="1.101" height="2.879"/>
<rect x="22.347" y="15.49" width="1.1" height="2.879"/>
<rect x="24.552" y="15.49" width="1.1" height="2.879"/>
<rect x="26.753" y="15.49" width="1.102" height="2.879"/>
<rect x="28.957" y="15.49" width="1.098" height="2.879"/>
<rect x="31.157" y="15.49" width="1.1" height="2.879"/>
</g></svg>