<svg width="48px" height="48px" viewBox="0 0 48 48" version="1.1" xmlns="http://www.w3.org/2000/svg">
<path fill="#202020" d="M39.936,16.845l-23.421,22.817c1.206,0.568 2.488,0.972 3.811,1.196l0,6.139l7.348,0l0,-6.139c2.992,-0.507 5.776,-1.931 7.95,-4.106c2.761,-2.761 4.312,-6.506 4.312,-10.411l0,-9.496Zm-27.005,-2.775l-4.867,0l0,12.271c0,2.881 0.844,5.675 2.396,8.051l24.609,-23.974l0,-8.18c0,-0.682 -0.554,-1.235 -1.235,-1.235l-2.47,0c-0.682,0 -1.235,0.553 -1.235,1.235l0,11.832l-12.258,0l0,-11.832c0,-0.682 -0.553,-1.235 -1.235,-1.235l-2.47,0c-0.681,0 -1.235,0.553 -1.235,1.235l0,11.832Z"/>
</svg>