<svg version="1.1" xmlns="http://www.w3.org/2000/svg" x="0px" y="0px" width="48px" height="48px">
<g fill="#202020">
<rect x="3.556" y="16.442" width="6.81" height="1.265"/>
<rect x="3.556" y="13.129" width="6.81" height="1.265"/>
<rect x="18.399" y="16.442" width="6.81" height="1.265"/>
<rect x="18.399" y="13.129" width="6.81" height="1.265"/>
<path d="M41.066,16.159l-6.78,0.63l0.116,1.259l6.781-0.629L41.066,16.159z"/>
<path d="M40.762,12.861L33.98,13.49l0.117,1.26l6.78-0.63L40.762,12.861z"/>
<path d="M11.137,0.454H2.784C1.248,0.454,0,1.702,0,3.238v41.524c0,1.536,1.248,2.784,2.784,2.784h8.353 c1.537,0,2.784-1.248,2.784-2.784V3.238C13.921,1.702,12.674,0.454,11.137,0.454z M6.961,42.009c-1.656,0-3-1.343-3-3s1.344-3,3-3 c1.657,0,3,1.343,3,3S8.618,42.009,6.961,42.009z M11.964,27.107c0,1.381-1.121,2.502-2.502,2.502H4.459 c-1.381,0-2.501-1.121-2.501-2.502V7.041c0-1.381,1.12-2.502,2.501-2.502h5.003c1.381,0,2.502,1.121,2.502,2.502V27.107z"/>
<path d="M43.387,2.684c-0.142-1.53-1.498-2.657-3.029-2.515L32.04,0.941c-1.53,0.142-2.657,1.499-2.515,3.029 l3.838,41.346c0.142,1.529,1.5,2.656,3.029,2.515l8.317-0.772c1.53-0.142,2.657-1.498,2.515-3.029L43.387,2.684z M39.847,42.009 c-1.656,0-3-1.343-3-3s1.344-3,3-3c1.658,0,3.002,1.343,3.002,3S41.505,42.009,39.847,42.009z M41.384,29.354l-4.981,0.463 c-1.375,0.127-2.594-0.885-2.721-2.26l-1.855-19.98c-0.128-1.375,0.885-2.594,2.26-2.722l4.98-0.463 c1.375-0.127,2.596,0.885,2.723,2.26l1.855,19.98C43.771,28.006,42.759,29.227,41.384,29.354z"/>
<path d="M25.98,0.454h-8.354c-1.536,0-2.784,1.248-2.784,2.784v41.524c0,1.536,1.248,2.784,2.784,2.784h8.354 c1.537,0,2.783-1.248,2.783-2.784V3.238C28.764,1.702,27.518,0.454,25.98,0.454z M21.802,42.009c-1.656,0-3-1.343-3-3s1.344-3,3-3 c1.658,0,3.002,1.343,3.002,3S23.46,42.009,21.802,42.009z M26.807,27.107c0,1.381-1.121,2.502-2.501,2.502h-5.003 c-1.38,0-2.501-1.121-2.501-2.502V7.041c0-1.381,1.12-2.502,2.501-2.502h5.003c1.38,0,2.501,1.121,2.501,2.502V27.107z"/>
</g></svg>