<svg width="48px" height="48px" viewBox="0 0 48 48" version="1.1" xmlns="http://www.w3.org/2000/svg" >
<g fill="#202020">
<circle cx="24" cy="12.4" r="11.6"/>
<path d="M29.838,25.818c0.043,0.137 0.066,0.282 0.066,0.43l-0,4.196c-0,0.559 -0.302,1.075 -0.79,1.35c-0.487,0.274 -1.085,0.264 -1.563,-0.026l-2.287,-1.39c-0.356,0.346 -0.801,0.535 -1.247,0.535c-0.451,0 -0.9,-0.194 -1.259,-0.548c0,0 -2.415,1.467 -2.415,1.467c-0.457,0.278 -1.027,0.287 -1.493,0.025c-0.465,-0.262 -0.754,-0.755 -0.754,-1.289c0,-1.124 0,-3.095 0,-4.237c0,-0.174 0.03,-0.343 0.087,-0.501c-1.375,-0.729 -2.538,-1.811 -3.395,-3.332c-5.127,3.241 -8.552,9.104 -8.552,15.797c-0,10.202 7.952,9.144 17.764,9.144c9.81,0 17.764,1.059 17.764,-9.144c0,-6.695 -3.425,-12.558 -8.552,-15.798c-0.853,1.514 -2.008,2.592 -3.374,3.321Z"/>
<path d="M24.938,27.851l3.276,-1.991c0.141,-0.085 0.316,-0.088 0.458,-0.007c0.143,0.08 0.232,0.231 0.232,0.395c-0,1.089 -0,3.026 -0,4.196c-0,0.198 -0.107,0.381 -0.28,0.478c-0.173,0.097 -0.385,0.094 -0.554,-0.009l-3.132,-1.902c-0.153,0.53 -0.508,0.902 -0.921,0.902c-0.417,0 -0.776,-0.38 -0.925,-0.92l-3.268,1.984c-0.148,0.09 -0.333,0.093 -0.484,0.009c-0.15,-0.085 -0.244,-0.245 -0.244,-0.418c0,-1.124 0,-3.095 0,-4.237c0,-0.181 0.098,-0.348 0.255,-0.436c0.158,-0.089 0.351,-0.086 0.505,0.008l3.236,1.966c0.149,-0.54 0.508,-0.921 0.925,-0.921c0.413,-0 0.768,0.372 0.921,0.903Z"/>
</g></svg>