<svg version="1.1" xmlns="http://www.w3.org/2000/svg" x="0px" y="0px" width="48px" height="48px">
<path fill="#202020" d="M24,0.655C11.107,0.655,0.655,11.107,0.655,24c0,12.894,10.452,23.345,23.345,23.345 c1.578,0,3.119-0.157,4.609-0.456c-0.601-0.286-0.666-2.44-0.073-3.671c0.662-1.366,2.736-4.832,0.684-5.995 c-2.051-1.163-1.48-1.688-2.734-3.031c-1.255-1.347-0.741-1.548-0.822-1.894c-0.272-1.185,1.209-2.964,1.277-3.146 c0.069-0.183,0.069-0.865,0.046-1.071c-0.022-0.205-0.934-0.752-1.162-0.776c-0.229-0.021-0.342,0.366-0.661,0.388 c-0.319,0.023-1.71-0.842-2.007-1.071c-0.296-0.228-0.433-0.774-0.843-1.185c-0.411-0.41-0.457-0.092-1.095-0.343 c-0.639-0.25-2.69-1.002-4.263-1.641c-1.573-0.639-1.71-1.533-1.732-2.166c-0.023-0.632-0.958-1.55-1.396-2.211 c-0.438-0.661-0.519-1.573-0.679-1.368c-0.16,0.206,0.821,2.599,0.661,2.668c-0.159,0.068-0.501-0.661-0.958-1.254 c-0.456-0.593,0.479-0.274-0.98-3.146c-1.459-2.873,0.456-4.337,0.547-5.836c0.091-1.499,1.231,0.547,0.638-0.411 c-0.592-0.958,0.046-2.963-0.41-3.693c-0.456-0.729-3.055,0.821-3.055,0.821c0.069-0.706,2.28-1.915,3.875-3.032 c1.596-1.117,2.571-0.251,3.853,0.159c1.283,0.411,1.368,0.273,0.935-0.137c-0.433-0.41,0.183-0.615,1.186-0.456 c1.002,0.16,1.276,1.368,2.804,1.254c1.527-0.114,0.159,0.296,0.365,0.684c0.205,0.387-0.228,0.342-1.231,1.025 c-1.002,0.684,0.023,0.684,1.801,1.983s1.231-0.866,1.049-1.824c-0.183-0.958,1.299-0.205,1.299-0.205 c1.094,0.729,0.892,0.04,1.69,0.291c0.798,0.251,2.96,2.08,2.96,2.08c-2.712,1.482-1.003,1.642-0.547,1.983 s-0.935,1.003-0.935,1.003c-0.569-0.57-0.661,0.022-1.025,0.228c-0.366,0.205-0.023,0.729-0.023,0.729 c-1.887,0.296-1.459,2.28-1.436,2.758c0.022,0.479-1.208,1.208-1.528,1.893c-0.319,0.684,0.82,2.166,0.228,2.256 c-0.593,0.091-1.186-2.234-4.377-1.368c-0.962,0.262-3.101,1.368-1.961,3.625c1.14,2.257,3.032-0.638,3.67-0.319 c0.638,0.319-0.183,1.755-0.046,1.778c0.137,0.023,1.801,0.063,1.893,2.006c0.091,1.943,2.53,1.778,3.054,1.824 c0.525,0.046,2.28-1.437,2.531-1.505c0.25-0.069,1.253-0.912,3.441,0.342c2.189,1.254,3.307,1.071,4.059,1.596 s0.229,1.573,0.935,1.915c0.707,0.341,3.534-0.113,4.24,1.05c0.706,1.162-2.918,6.997-4.057,7.636 c-1.142,0.638-1.665,2.099-2.805,3.031c-1.14,0.936-2.735,2.093-4.241,2.988c-1.331,0.791-1.571,2.21-2.165,2.657 C39.532,44.468,47.345,35.146,47.345,24C47.345,11.107,36.894,0.655,24,0.655z M29.472,22.564c-0.319,0.091-0.98,0.684-2.6-0.273 c-1.618-0.958-2.735-0.775-2.872-0.935c0,0-0.137-0.388,0.57-0.457c1.451-0.14,3.282,1.346,3.693,1.368 c0.411,0.023,0.616-0.411,1.345-0.175C30.338,22.327,29.791,22.473,29.472,22.564z M21.834,2.98 c-0.159-0.116,0.131-0.249,0.305-0.479c0.1-0.132,0.025-0.353,0.151-0.479c0.342-0.341,2.028-0.82,1.699,0.114 C23.66,3.072,22.085,3.163,21.834,2.98z M25.915,5.945c-0.57-0.023-1.912-0.166-1.665-0.411c0.963-0.958-0.364-1.23-1.185-1.299 s-1.163-0.525-0.752-0.57c0.41-0.046,2.052,0.023,2.325,0.251c0.273,0.228,1.755,0.82,1.847,1.254 C26.576,5.603,26.485,5.967,25.915,5.945z M30.861,5.785c-0.455,0.365-2.749-1.309-3.19-1.687c-1.915-1.641-2.942-1.094-3.343-1.368 c-0.403-0.273-0.259-0.639,0.356-1.186c0.615-0.546,2.348,0.183,3.351,0.297c1.004,0.113,2.167,0.889,2.188,1.811 C30.246,4.573,31.318,5.42,30.861,5.785z"/>
</svg>