<svg width="48px" height="48px" version="1.1" xmlns="http://www.w3.org/2000/svg" style="fill-rule:evenodd">
<path fill="#202020" d="M47,7.6c0,-2.539 -2.061,-4.6 -4.6,-4.6l-36.8,0c-2.539,0 -4.6,2.061 -4.6,4.6l0,32.8c0,2.539 2.061,4.6 4.6,4.6l36.8,0c2.539,0 4.6,-2.061 4.6,-4.6l0,-32.8Zm-2.996,15.491c-0.37,-0.78 -0.757,-1.551 -1.175,-2.312c-0.378,-0.684 -1.114,-2.094 -1.998,-2.185c-0.894,-0.092 -1.745,1.511 -2.103,2.145c-1.041,1.807 -1.861,3.758 -2.703,5.658l-1.577,3.575c-0.379,0.868 -0.894,1.961 -1.504,2.696c-0.694,0.848 -1.346,1.819 -2.44,2.217c-1.125,0.49 -2.377,-0.082 -3.186,-0.848c-1.693,-1.491 -2.524,-3.953 -3.45,-5.904c-0.894,-1.879 -1.63,-3.83 -2.555,-5.689c-0.473,-0.95 -0.978,-1.94 -1.651,-2.768c-0.821,-1.001 -1.41,-1.419 -2.398,-0.306c-1.346,1.501 -2.051,3.605 -2.903,5.383c-0.82,1.716 -1.556,3.472 -2.334,5.219c-0.673,1.512 -1.672,3.35 -3.018,4.402c-1.907,1.609 -3.782,0.081 -5.013,-1.397l0,5.026c0,2.208 1.793,4.001 4.001,4.001l32.006,0c2.208,0 4.001,-1.793 4.001,-4.001l0,-14.912Zm-0.001,-13.15l0.001,0.056l0,-0.052l-0.001,-0.004Zm-0.001,-0.057l0.001,0.04l0,-0.03l-0.001,-0.01Zm-0.002,-0.059l0.002,0.041l-0.001,-0.024l-0.001,-0.017Zm-40.004,15.173c0.357,0.75 0.731,1.492 1.132,2.223c0.379,0.684 1.115,2.094 1.998,2.185c0.894,0.092 1.746,-1.511 2.103,-2.145c1.042,-1.807 1.862,-3.758 2.703,-5.658l1.578,-3.575c0.378,-0.868 0.894,-1.961 1.503,-2.696c0.695,-0.848 1.347,-1.819 2.44,-2.217c1.126,-0.49 2.377,0.082 3.187,0.848c1.693,1.491 2.524,3.953 3.449,5.904c0.894,1.879 1.63,3.83 2.556,5.689c0.473,0.95 0.978,1.94 1.651,2.768c0.82,1.001 1.409,1.419 2.398,0.306c1.346,-1.501 2.05,-3.605 2.902,-5.383c0.82,-1.716 1.556,-3.472 2.335,-5.219c0.673,-1.512 1.672,-3.35 3.018,-4.402c1.924,-1.624 3.817,-0.051 5.048,1.44l-0,-5.306l0.003,0.052c-0.097,-2.122 -1.851,-3.816 -3.997,-3.816l-32.006,-0c-2.208,-0 -4.001,1.793 -4.001,4.001l-0,15.001Z"/>
</svg>