<svg width="48px" height="48px" version="1.1" xmlns="http://www.w3.org/2000/svg">
<path fill="#202020" d="M47,7.6c0,-2.539 -2.061,-4.6 -4.6,-4.6l-36.8,0c-2.539,0 -4.6,2.061 -4.6,4.6l0,32.8c0,2.539 2.061,4.6 4.6,4.6l36.8,0c2.539,0 4.6,-2.061 4.6,-4.6l0,-32.8Zm-2.996,15.491l0,14.912c0,2.208 -1.793,4.001 -4.001,4.001l-32.006,0c-2.208,0 -4.001,-1.793 -4.001,-4.001l0,-5.026c1.231,1.478 3.106,3.006 5.013,1.397c1.346,-1.052 2.345,-2.89 3.018,-4.402c0.778,-1.747 1.514,-3.503 2.334,-5.219c0.852,-1.778 1.557,-3.882 2.903,-5.383c0.988,-1.113 1.577,-0.695 2.398,0.306c0.673,0.828 1.178,1.818 1.651,2.768c0.925,1.859 1.661,3.81 2.555,5.689c0.926,1.951 1.757,4.413 3.45,5.904c0.809,0.766 2.061,1.338 3.186,0.848c1.094,-0.398 1.746,-1.369 2.44,-2.217c0.61,-0.735 1.125,-1.828 1.504,-2.696l1.577,-3.575c0.842,-1.9 1.662,-3.851 2.703,-5.658c0.358,-0.634 1.209,-2.237 2.103,-2.145c0.884,0.091 1.62,1.501 1.998,2.185c0.418,0.761 0.805,1.532 1.175,2.312Zm-0.001,-13.15l0.001,0.056l0,-0.052l-0.001,-0.004Zm-0.001,-0.057l0.001,0.04l0,-0.03l-0.001,-0.01Zm-0.002,-0.059l0.001,0.017l0.001,0.024l-0.002,-0.041Zm-40.004,15.173l0,-15.001c0,-2.208 1.793,-4.001 4.001,-4.001l32.006,-0c2.146,-0 3.9,1.694 3.997,3.816l-0.003,-0.052l0,5.306c-1.231,-1.491 -3.124,-3.064 -5.048,-1.44c-1.346,1.052 -2.345,2.89 -3.018,4.402c-0.779,1.747 -1.515,3.503 -2.335,5.219c-0.852,1.778 -1.556,3.882 -2.902,5.383c-0.989,1.113 -1.578,0.695 -2.398,-0.306c-0.673,-0.828 -1.178,-1.818 -1.651,-2.768c-0.926,-1.859 -1.662,-3.81 -2.556,-5.689c-0.925,-1.951 -1.756,-4.413 -3.449,-5.904c-0.81,-0.766 -2.061,-1.338 -3.187,-0.848c-1.093,0.398 -1.745,1.369 -2.44,2.217c-0.609,0.735 -1.125,1.828 -1.503,2.696l-1.578,3.575c-0.841,1.9 -1.661,3.851 -2.703,5.658c-0.357,0.634 -1.209,2.237 -2.103,2.145c-0.883,-0.091 -1.619,-1.501 -1.998,-2.185c-0.401,-0.731 -0.775,-1.473 -1.132,-2.223Z"/>
</svg>