<svg width="48px" height="48px" viewBox="0 0 48 48" version="1.1" xmlns="http://www.w3.org/2000/svg">
<path fill="#202020" d="M44.181,43.631l2.336,0c0.519,0 0.939,0.495 0.939,1.094l0,2.181c0,0.606 -0.42,1.094 -0.939,1.094l-45.034,0c-0.519,0 -0.939,-0.494 -0.939,-1.094l-0,-2.181c-0,-0.599 0.42,-1.094 0.939,-1.094l3.43,0l-0,-35.382c-0,-0.383 0.247,-0.729 0.617,-0.859l20.447,-7.334c0.624,-0.216 1.279,0.222 1.273,0.859l0,42.716l1.644,0l-0,-37.408c-0,-0.692 0.766,-1.144 1.396,-0.81l13.403,7.02c0.303,0.16 0.494,0.469 0.488,0.809l0,30.389Zm-5.166,-23.567l0,-0.915c0,-0.766 -0.636,-1.378 -1.421,-1.378l-2.484,0c-0.791,0 -1.421,0.618 -1.421,1.378l-0,0.915c-0,0.766 0.636,1.378 1.421,1.378l2.484,-0c0.791,-0 1.421,-0.618 1.421,-1.378Zm0,11.172l0,-0.915c0,-0.766 -0.636,-1.378 -1.421,-1.378l-2.484,0c-0.791,0 -1.421,0.618 -1.421,1.378l-0,0.915c-0,0.766 0.636,1.378 1.421,1.378l2.484,-0c0.791,-0 1.421,-0.618 1.421,-1.378Zm0,-16.696l0,-0.915c0,-0.766 -0.636,-1.378 -1.421,-1.378l-2.484,0c-0.791,0 -1.421,0.618 -1.421,1.378l-0,0.915c-0,0.766 0.636,1.378 1.421,1.378l2.484,-0c0.791,-0 1.421,-0.618 1.421,-1.378Zm0,11.054l0,-0.914c0,-0.766 -0.636,-1.378 -1.421,-1.378l-2.484,-0c-0.791,-0 -1.421,0.618 -1.421,1.378l-0,0.914c-0,0.767 0.636,1.378 1.421,1.378l2.484,0c0.791,0 1.421,-0.618 1.421,-1.378Zm0,11.005l0,-0.914c0,-0.766 -0.636,-1.378 -1.421,-1.378l-2.484,-0c-0.791,-0 -1.421,0.618 -1.421,1.378l-0,0.914c-0,0.767 0.636,1.378 1.421,1.378l2.484,0c0.791,0 1.421,-0.618 1.421,-1.378Zm-24.395,-22.059l0,-0.915c0,-0.766 -0.636,-1.378 -1.421,-1.378l-2.484,0c-0.791,0 -1.421,0.618 -1.421,1.378l-0,0.915c-0,0.766 0.636,1.378 1.421,1.378l2.484,-0c0.791,-0 1.421,-0.618 1.421,-1.378Zm8.391,-5.395l0,-0.914c0,-0.766 -0.636,-1.378 -1.421,-1.378l-2.484,-0c-0.791,-0 -1.421,0.618 -1.421,1.378l-0,0.914c-0,0.767 0.636,1.378 1.421,1.378l2.484,0c0.791,0 1.421,-0.618 1.421,-1.378Zm-8.391,10.919l0,-0.915c0,-0.766 -0.636,-1.378 -1.421,-1.378l-2.484,0c-0.791,0 -1.421,0.618 -1.421,1.378l-0,0.915c-0,0.766 0.636,1.378 1.421,1.378l2.484,-0c0.791,-0 1.421,-0.618 1.421,-1.378Zm0,5.53l0,-0.914c0,-0.766 -0.636,-1.378 -1.421,-1.378l-2.484,-0c-0.791,-0 -1.421,0.618 -1.421,1.378l-0,0.914c-0,0.767 0.636,1.378 1.421,1.378l2.484,0c0.791,0 1.421,-0.618 1.421,-1.378Zm8.391,5.642l0,-0.915c0,-0.766 -0.636,-1.378 -1.421,-1.378l-2.484,0c-0.791,0 -1.421,0.618 -1.421,1.378l-0,0.915c-0,0.766 0.636,1.378 1.421,1.378l2.484,-0c0.791,-0 1.421,-0.618 1.421,-1.378Zm0,-16.696l0,-0.915c0,-0.766 -0.636,-1.378 -1.421,-1.378l-2.484,0c-0.791,0 -1.421,0.618 -1.421,1.378l-0,0.915c-0,0.766 0.636,1.378 1.421,1.378l2.484,-0c0.791,-0 1.421,-0.618 1.421,-1.378Zm0,5.524l0,-0.915c0,-0.766 -0.636,-1.378 -1.421,-1.378l-2.484,0c-0.791,0 -1.421,0.618 -1.421,1.378l-0,0.915c-0,0.766 0.636,1.378 1.421,1.378l2.484,-0c0.791,-0 1.421,-0.618 1.421,-1.378Zm-8.391,16.535l0,-0.914c0,-0.766 -0.636,-1.378 -1.421,-1.378l-2.484,-0c-0.791,-0 -1.421,0.618 -1.421,1.378l-0,0.914c-0,0.767 0.636,1.378 1.421,1.378l2.484,0c0.791,0 1.421,-0.618 1.421,-1.378Zm8.391,-11.005l0,-0.914c0,-0.766 -0.636,-1.378 -1.421,-1.378l-2.484,-0c-0.791,-0 -1.421,0.618 -1.421,1.378l-0,0.914c-0,0.767 0.636,1.378 1.421,1.378l2.484,0c0.791,0 1.421,-0.618 1.421,-1.378Zm0,11.005l0,-0.914c0,-0.766 -0.636,-1.378 -1.421,-1.378l-2.484,-0c-0.791,-0 -1.421,0.618 -1.421,1.378l-0,0.914c-0,0.767 0.636,1.378 1.421,1.378l2.484,0c0.791,0 1.421,-0.618 1.421,-1.378Zm-8.391,-5.363l0,-0.915c0,-0.766 -0.636,-1.378 -1.421,-1.378l-2.484,0c-0.791,0 -1.421,0.618 -1.421,1.378l-0,0.915c-0,0.766 0.636,1.378 1.421,1.378l2.484,-0c0.791,-0 1.421,-0.618 1.421,-1.378Z"/>
</svg>