<svg width="48px" height="48px" version="1.1" xmlns="http://www.w3.org/2000/svg">
<path fill="none" stroke="#202020" stroke-width="4px" d="M32.42,3.676l11.904,11.904l0,16.84l-11.904,11.904l-16.84,0l-11.904,-11.904l0,-16.84l11.904,-11.904l16.84,0Z"/>
<path fill="#202020" d="M30.96,13.708c0.492,0.044 0.944,0.244 1.304,0.584l1.436,1.436c0.252,0.268 0.3,0.36 0.388,0.548c0.364,0.752 0.3,1.556 -0.384,2.28l-5.436,5.444l5.512,5.52c0.236,0.28 0.28,0.38 0.36,0.568c0.304,0.736 0.224,1.484 -0.436,2.18l-1.44,1.44c-0.264,0.248 -0.36,0.296 -0.544,0.388c-0.756,0.36 -1.56,0.296 -2.284,-0.388l-5.436,-5.44l-5.516,5.516c-0.28,0.236 -0.376,0.28 -0.568,0.356c-0.736,0.308 -1.48,0.228 -2.18,-0.432l-1.436,-1.436c-0.252,-0.268 -0.3,-0.36 -0.388,-0.548c-0.364,-0.752 -0.3,-1.556 0.384,-2.28l5.436,-5.444l-5.512,-5.52c-0.236,-0.28 -0.28,-0.38 -0.36,-0.568c-0.304,-0.736 -0.224,-1.484 0.436,-2.18l1.44,-1.44c0.264,-0.248 0.36,-0.296 0.544,-0.388c0.756,-0.36 1.56,-0.296 2.284,0.388l5.436,5.44l5.516,-5.516c0.404,-0.344 0.648,-0.528 1.444,-0.508Z"/>
</svg>