<svg width="48px" height="48px" viewBox="0 0 12 12" version="1.1" xmlns="http://www.w3.org/2000/svg" xml:space="preserve">
<path fill="none" stroke="#202020" stroke-width="1px" d="M8.105,0.919l2.976,2.976l0,4.21l-2.976,2.976l-4.21,0l-2.976,-2.976l-0,-4.21l2.976,-2.976l4.21,-0Z"/>
<path fill="#202020" d="M7.74,3.427c0.123,0.011 0.236,0.061 0.326,0.146l0.359,0.359c0.063,0.067 0.075,0.09 0.097,0.137c0.091,0.188 0.075,0.389 -0.096,0.57l-1.359,1.361l1.378,1.38c0.059,0.07 0.07,0.095 0.09,0.142c0.076,0.184 0.056,0.371 -0.109,0.545l-0.36,0.36c-0.066,0.062 -0.09,0.074 -0.136,0.097c-0.189,0.09 -0.39,0.074 -0.571,-0.097l-1.359,-1.36l-1.379,1.379c-0.07,0.059 -0.094,0.07 -0.142,0.089c-0.184,0.077 -0.37,0.057 -0.545,-0.108l-0.359,-0.359c-0.063,-0.067 -0.075,-0.09 -0.097,-0.137c-0.091,-0.188 -0.075,-0.389 0.096,-0.57l1.359,-1.361l-1.378,-1.38c-0.059,-0.07 -0.07,-0.095 -0.09,-0.142c-0.076,-0.184 -0.056,-0.371 0.109,-0.545l0.36,-0.36c0.066,-0.062 0.09,-0.074 0.136,-0.097c0.189,-0.09 0.39,-0.074 0.571,0.097l1.359,1.36l1.379,-1.379c0.101,-0.086 0.162,-0.132 0.361,-0.127Z"/>
</svg>