<svg width="48px" height="48px" viewBox="0 0 48 48" version="1.1" xmlns="http://www.w3.org/2000/svg">
<path fill="#202020" d="M33.112,2.005l12.883,12.883l0,18.224l-12.883,12.883l-18.224,0l-12.883,-12.883l-0,-18.224l12.883,-12.883l18.224,-0Zm-2.152,11.703c-0.796,-0.02 -1.04,0.164 -1.444,0.508l-5.516,5.516l-5.436,-5.44c-0.724,-0.684 -1.528,-0.748 -2.284,-0.388c-0.184,0.092 -0.28,0.14 -0.544,0.388l-1.44,1.44c-0.66,0.696 -0.74,1.444 -0.436,2.18c0.08,0.188 0.124,0.288 0.36,0.568l5.512,5.52l-5.436,5.444c-0.684,0.724 -0.748,1.528 -0.384,2.28c0.088,0.188 0.136,0.28 0.388,0.548l1.436,1.436c0.7,0.66 1.444,0.74 2.18,0.432c0.192,-0.076 0.288,-0.12 0.568,-0.356l5.516,-5.516l5.436,5.44c0.724,0.684 1.528,0.748 2.284,0.388c0.184,-0.092 0.28,-0.14 0.544,-0.388l1.44,-1.44c0.66,-0.696 0.74,-1.444 0.436,-2.18c-0.08,-0.188 -0.124,-0.288 -0.36,-0.568l-5.512,-5.52l5.436,-5.444c0.684,-0.724 0.748,-1.528 0.384,-2.28c-0.088,-0.188 -0.136,-0.28 -0.388,-0.548l-1.436,-1.436c-0.36,-0.34 -0.812,-0.54 -1.304,-0.584Z"/>
</svg>