<svg width="48px" height="48px" viewBox="0 0 48 48" version="1.1" xmlns="http://www.w3.org/2000/svg" >
<path fill="#202020" d="M41.156,31.913l-8.006,0l0,3.431l-3.43,0l0,3.432l-11.44,0l0,-3.432l-3.43,0l0,-3.431l-8.007,0l0,-20.589l34.313,0l-0,20.589Zm-8.496,-19.107l-1.57,-0l-0,4.1l1.57,0l-0,-4.1Zm-18.897,0l-1.575,0l-0,4.1l1.575,0l-0,-4.1Zm9.447,0l-1.574,0l0,4.1l1.574,0l0,-4.1Zm-3.148,0l-1.575,0l-0,4.1l1.575,0l-0,-4.1Zm15.75,0l-1.574,0l0,4.1l1.574,0l0,-4.1Zm-18.902,0l-1.573,0l0,4.1l1.573,0l0,-4.1Zm9.453,0l-1.574,0l0,4.1l1.574,0l0,-4.1Zm3.151,0l-1.576,0l0,4.1l1.576,0l0,-4.1Z"/>
</svg>