<svg width="48px" height="48px" version="1.1" xmlns="http://www.w3.org/2000/svg">
<g fill="#202020">
<path d="M1.125,5.75l0,36.6l45.75,0l0,-36.6l-45.75,0Zm40.031,26.163l-8.006,0l0,3.431l-3.43,0l0,3.432l-11.44,0l0,-3.432l-3.43,0l0,-3.431l-8.007,0l-0,-20.589l34.313,0l0,20.589Z"/>
<rect x="12.188" y="12.806" width="1.575" height="4.1"/>
<rect x="15.337" y="12.806" width="1.573" height="4.1"/>
<rect x="18.487" y="12.806" width="1.575" height="4.1"/>
<rect x="21.636" y="12.806" width="1.574" height="4.1"/>
<rect x="24.789" y="12.806" width="1.574" height="4.1"/>
<rect x="27.938" y="12.806" width="1.576" height="4.1"/>
<rect x="31.09" y="12.806" width="1.57" height="4.1"/>
<rect x="34.238" y="12.806" width="1.574" height="4.1"/>
</g></svg>