<svg version="1.1" xmlns="http://www.w3.org/2000/svg" x="0px" y="0px" width="48px" height="48px">
<path fill="#202020" d="M8.04,10.56c1.157,0,2.146,0.413,2.967,1.233c0.82,0.821,1.233,1.81,1.233,2.966V43.32 c0,1.156-0.413,2.146-1.233,2.967c-0.821,0.824-1.81,1.232-2.967,1.232H4.681c-1.157,0-2.146-0.412-2.967-1.232 C0.889,45.466,0.48,44.477,0.48,43.32V14.76c0-1.157,0.412-2.146,1.233-2.966c0.82-0.826,1.81-1.233,2.967-1.233H8.04L8.04,10.56z M44.159,14.837c1.014,0.595,1.828,1.406,2.443,2.443c0.615,1.032,0.916,2.15,0.916,3.36V40.8c0,1.853-0.656,3.437-1.967,4.752 c-1.311,1.311-2.895,1.968-4.752,1.968H18.12c-1.156,0-2.146-0.412-2.966-1.232c-0.826-0.821-1.234-1.811-1.234-2.967V3 c0-0.701,0.245-1.296,0.734-1.786c0.49-0.49,1.085-0.734,1.786-0.734h17.639c0.701,0,1.469,0.178,2.309,0.528 c0.84,0.351,1.508,0.773,1.998,1.263l3.988,3.989c0.488,0.49,0.912,1.157,1.262,1.997c0.352,0.84,0.523,1.608,0.529,2.309 L44.159,14.837L44.159,14.837z M24.84,40.8v-3.36c0-0.244-0.076-0.445-0.234-0.604C24.446,36.677,24.244,36.6,24,36.6h-3.359 c-0.245,0-0.447,0.077-0.605,0.235c-0.158,0.159-0.235,0.36-0.235,0.604v3.36c0,0.245,0.077,0.446,0.235,0.604 s0.36,0.236,0.605,0.236H24c0.244,0,0.446-0.078,0.605-0.236C24.758,41.246,24.84,41.045,24.84,40.8z M24.84,34.08v-3.359 c0-0.246-0.076-0.447-0.234-0.605C24.446,29.957,24.244,29.88,24,29.88h-3.359c-0.245,0-0.447,0.077-0.605,0.235 S19.8,30.475,19.8,30.721v3.359c0,0.244,0.077,0.446,0.235,0.604c0.158,0.159,0.36,0.235,0.605,0.235H24 c0.244,0,0.446-0.076,0.605-0.235C24.758,34.526,24.84,34.324,24.84,34.08L24.84,34.08z M24.84,27.359V24 c0-0.245-0.076-0.446-0.234-0.605C24.446,23.237,24.244,23.16,24,23.16h-3.359c-0.245,0-0.447,0.077-0.605,0.235 C19.877,23.554,19.8,23.755,19.8,24v3.359c0,0.246,0.077,0.447,0.235,0.605s0.36,0.235,0.605,0.235H24 c0.244,0,0.446-0.077,0.605-0.235C24.758,27.807,24.84,27.605,24.84,27.359z M31.56,40.8v-3.36c0-0.244-0.076-0.445-0.236-0.604 c-0.158-0.158-0.359-0.235-0.604-0.235h-3.361c-0.244,0-0.445,0.077-0.604,0.235c-0.158,0.159-0.236,0.36-0.236,0.604v3.36 c0,0.245,0.078,0.446,0.236,0.604s0.359,0.236,0.604,0.236h3.361c0.244,0,0.445-0.078,0.604-0.236 C31.478,41.246,31.56,41.045,31.56,40.8z M31.56,34.08v-3.359c0-0.246-0.076-0.447-0.236-0.605 c-0.158-0.158-0.359-0.235-0.604-0.235h-3.361c-0.244,0-0.445,0.077-0.604,0.235s-0.236,0.359-0.236,0.605v3.359 c0,0.244,0.078,0.446,0.236,0.604c0.158,0.159,0.359,0.235,0.604,0.235h3.361c0.244,0,0.445-0.076,0.604-0.235 C31.478,34.526,31.56,34.324,31.56,34.08L31.56,34.08z M31.56,27.359V24c0-0.245-0.076-0.446-0.236-0.605 c-0.158-0.158-0.359-0.235-0.604-0.235h-3.361c-0.244,0-0.445,0.077-0.604,0.235c-0.158,0.159-0.236,0.36-0.236,0.605v3.359 c0,0.246,0.078,0.447,0.236,0.605s0.359,0.235,0.604,0.235h3.361c0.244,0,0.445-0.077,0.604-0.235 C31.478,27.807,31.56,27.605,31.56,27.359z M38.278,40.8v-3.36c0-0.244-0.076-0.445-0.234-0.604 c-0.158-0.158-0.359-0.235-0.605-0.235h-3.359c-0.244,0-0.445,0.077-0.605,0.235c-0.158,0.159-0.234,0.36-0.234,0.604v3.36 c0,0.245,0.076,0.446,0.234,0.604c0.16,0.158,0.361,0.236,0.605,0.236h3.359c0.246,0,0.447-0.078,0.605-0.236 C38.198,41.246,38.278,41.045,38.278,40.8L38.278,40.8z M38.278,34.08v-3.359c0-0.246-0.076-0.447-0.234-0.605 s-0.359-0.235-0.605-0.235h-3.359c-0.244,0-0.445,0.077-0.605,0.235c-0.158,0.158-0.234,0.359-0.234,0.605v3.359 c0,0.244,0.076,0.446,0.234,0.604c0.16,0.159,0.361,0.235,0.605,0.235h3.359c0.246,0,0.447-0.076,0.605-0.235 C38.198,34.526,38.278,34.324,38.278,34.08L38.278,34.08z M38.278,27.359V24c0-0.245-0.076-0.446-0.234-0.605 c-0.158-0.158-0.359-0.235-0.605-0.235h-3.359c-0.244,0-0.445,0.077-0.605,0.235c-0.158,0.159-0.234,0.36-0.234,0.605v3.359 c0,0.246,0.076,0.447,0.234,0.605c0.16,0.158,0.361,0.235,0.605,0.235h3.359c0.246,0,0.447-0.077,0.605-0.235 C38.198,27.807,38.278,27.605,38.278,27.359L38.278,27.359z M40.8,17.28v-6.72h-4.201c-0.699,0-1.295-0.245-1.785-0.734 s-0.734-1.085-0.734-1.786v-4.2H17.28v13.44H40.8L40.8,17.28z"/>
</svg>