<svg width="48px" height="48px" xmlns="http://www.w3.org/2000/svg">
<g fill="#202020">
<path d="M8.656,13.795c0,-0 -2.889,2.889 -4.63,4.63c-0.343,0.342 -0.856,0.444 -1.303,0.259c-0.447,-0.185 -0.739,-0.621 -0.739,-1.104l0,-14.4c0,-0.66 0.536,-1.196 1.196,-1.196l14.4,0c0.483,0 0.919,0.292 1.104,0.739c0.185,0.447 0.083,0.96 -0.259,1.303c-1.741,1.741 -4.63,4.63 -4.63,4.63c-0,0 4.135,4.135 7.625,7.625c0.223,0.224 0.35,0.528 0.35,0.846c0,0.316 -0.127,0.621 -0.35,0.844c-1.241,1.241 -2.208,2.208 -3.449,3.449c-0.223,0.223 -0.528,0.35 -0.844,0.35c-0.318,0 -0.622,-0.127 -0.846,-0.35c-3.49,-3.49 -7.625,-7.625 -7.625,-7.625Z"/>
<path d="M13.795,39.344c-0,-0 2.889,2.889 4.63,4.63c0.342,0.343 0.444,0.856 0.259,1.303c-0.185,0.447 -0.621,0.739 -1.104,0.739l-14.4,-0c-0.66,-0 -1.196,-0.536 -1.196,-1.196l0,-14.4c0,-0.483 0.292,-0.919 0.739,-1.104c0.447,-0.185 0.96,-0.083 1.303,0.259c1.741,1.741 4.63,4.63 4.63,4.63c0,0 4.135,-4.135 7.625,-7.625c0.224,-0.223 0.528,-0.35 0.846,-0.35c0.316,-0 0.621,0.127 0.844,0.35c1.241,1.241 2.208,2.208 3.449,3.449c0.223,0.223 0.35,0.528 0.35,0.844c0,0.318 -0.127,0.622 -0.35,0.846c-3.49,3.49 -7.625,7.625 -7.625,7.625Z"/>
<path d="M39.344,13.795c-0,-0 2.889,2.889 4.63,4.63c0.343,0.342 0.856,0.444 1.303,0.259c0.447,-0.185 0.739,-0.621 0.739,-1.104l-0,-14.4c-0,-0.66 -0.536,-1.196 -1.196,-1.196l-14.4,0c-0.483,0 -0.919,0.292 -1.104,0.739c-0.185,0.447 -0.083,0.96 0.259,1.303c1.741,1.741 4.63,4.63 4.63,4.63c0,0 -4.135,4.135 -7.625,7.625c-0.223,0.224 -0.35,0.528 -0.35,0.846c-0,0.316 0.127,0.621 0.35,0.844c1.241,1.241 2.208,2.208 3.449,3.449c0.223,0.223 0.528,0.35 0.844,0.35c0.318,0 0.622,-0.127 0.846,-0.35c3.49,-3.49 7.625,-7.625 7.625,-7.625Z"/>
<path d="M34.205,39.344c0,-0 -2.889,2.889 -4.63,4.63c-0.342,0.343 -0.444,0.856 -0.259,1.303c0.185,0.447 0.621,0.739 1.104,0.739l14.4,-0c0.66,-0 1.196,-0.536 1.196,-1.196l-0,-14.4c-0,-0.483 -0.292,-0.919 -0.739,-1.104c-0.447,-0.185 -0.96,-0.083 -1.303,0.259c-1.741,1.741 -4.63,4.63 -4.63,4.63c-0,0 -4.135,-4.135 -7.625,-7.625c-0.224,-0.223 -0.528,-0.35 -0.846,-0.35c-0.316,-0 -0.621,0.127 -0.844,0.35c-1.241,1.241 -2.208,2.208 -3.449,3.449c-0.223,0.223 -0.35,0.528 -0.35,0.844c-0,0.318 0.127,0.622 0.35,0.846c3.49,3.49 7.625,7.625 7.625,7.625Z"/>
</g></svg>