<svg width="48px" height="48px" version="1.1" xmlns="http://www.w3.org/2000/svg">
<path fill="#202020" d="M33.6,9.6l-19.2,0c-7.953,0 -14.4,6.383 -14.4,14.4c0,8.017 6.447,14.4 14.4,14.4l19.2,-0c7.95,-0 14.4,-6.447 14.4,-14.4c-0,-7.953 -6.45,-14.4 -14.4,-14.4Zm-15.067,16.2l-2.4,0l-0,2.4c-0,0.99 -0.809,1.8 -1.799,1.8c-0.99,-0 -1.801,-0.81 -1.801,-1.8l-0,-2.4l-2.333,-0.067c-0.99,-0 -1.867,-0.743 -1.867,-1.733c-0,-0.99 0.813,-1.801 1.803,-1.801l2.397,0.001l-0,-2.4c-0,-0.99 0.811,-1.8 1.801,-1.8c0.99,0 1.799,0.81 1.799,1.8l-0,2.4l2.4,0c0.99,0 1.801,0.81 1.801,1.8c-0.001,0.99 -0.744,1.8 -1.801,1.8Zm13.799,4.8c-1.659,-0 -2.932,-1.34 -2.932,-2.933c-0,-1.592 1.34,-3 2.932,-3c1.593,0 2.933,1.341 2.933,3c0,1.659 -1.208,2.933 -2.933,2.933Zm4.8,-7.2c-1.659,0 -2.932,-1.34 -2.932,-2.932c-0,-1.593 1.34,-3 2.932,-3c1.659,-0 2.933,1.341 2.933,3c-0,1.659 -1.208,2.932 -2.933,2.932Z"/>
</svg>