<svg width="48px" height="48px" version="1.1" xmlns="http://www.w3.org/2000/svg">
<g fill="#202020">
<path d="M34.667,3.138c-0.082,0.4 0.201,1.709 0.542,2.51c0.13,0.33 0.13,0.436 -0.047,0.801c-0.106,0.236 -0.2,0.684 -0.2,1.014c-0,1.002 0.401,1.638 1.037,1.638c0.153,0 0.259,0.106 0.306,0.283c0.036,0.165 0.319,0.483 0.613,0.731c0.66,0.542 0.648,0.518 1.45,2.758l0.672,1.838l-0.307,0.425c-0.177,0.259 -0.507,0.53 -0.825,0.671c-1.167,0.507 -4.573,1.285 -8.521,1.957c-1.285,0.212 -2.369,0.412 -2.392,0.436c-0.024,0.035 0.035,0.448 0.117,0.931c0.507,2.652 0.696,6.199 0.342,6.317c-0.082,0.036 -0.318,-0.188 -0.53,-0.483c-0.201,-0.295 -0.424,-0.542 -0.472,-0.542c-0.059,-0 -0.07,1.214 -0.023,2.687c0.094,2.935 -0,3.866 -0.46,4.679c-0.365,0.648 -0.518,0.636 -0.813,-0.047c-0.13,-0.33 -0.283,-0.601 -0.33,-0.601c-0.141,-0 -0.212,0.648 -0.354,2.828c-0.188,3.053 -0.259,3.465 -0.577,3.383c-0.259,-0.059 -0.401,0.047 -1.214,0.99c-0.365,0.424 -0.908,0.896 -1.202,1.061l-0.542,0.283l-0.425,-0.236c-0.235,-0.13 -0.813,-0.648 -1.273,-1.155c-0.66,-0.731 -0.895,-0.908 -1.096,-0.872c-0.4,0.07 -0.447,-0.177 -0.683,-3.619c-0.094,-1.355 -0.212,-2.51 -0.283,-2.581c-0.071,-0.07 -0.2,0.106 -0.365,0.495c-0.154,0.33 -0.342,0.601 -0.437,0.601c-0.094,0 -0.294,-0.294 -0.459,-0.648c-0.401,-0.86 -0.507,-2.322 -0.366,-5.044c0.059,-1.167 0.059,-2.145 0.024,-2.181c-0.047,-0.047 -0.2,0.071 -0.342,0.26c-0.601,0.825 -0.636,0.848 -0.801,0.683c-0.236,-0.247 -0.153,-2.51 0.2,-4.914c0.165,-1.155 0.33,-2.134 0.354,-2.193c0.07,-0.106 -0.142,-0.153 -1.768,-0.4c-1.862,-0.295 -5.763,-1.085 -7.237,-1.473c-1.402,-0.366 -2.604,-0.849 -2.604,-1.038c-0,-0.059 -0.142,-0.247 -0.307,-0.424c-0.318,-0.318 -1.013,-0.424 -1.167,-0.189c-0.035,0.059 -0.188,0.118 -0.33,0.118c-0.341,0 -0.789,0.319 -0.789,0.542c-0,0.095 -0.118,0.33 -0.259,0.519c-0.142,0.189 -0.295,0.601 -0.342,0.908c-0.047,0.318 -0.13,0.707 -0.165,0.884c-0.118,0.447 0.389,0.683 1.461,0.683c0.813,0 0.813,0 0.896,-0.353c0.047,-0.189 0.13,-0.389 0.2,-0.425c0.095,-0.059 0.106,0.012 0.047,0.201c-0.212,0.648 -0.224,4.867 -0.023,6.706c0.212,1.956 0.589,4.337 0.707,4.455c0.236,0.224 6.423,-0.825 8.356,-1.438c0.495,-0.153 0.908,-0.248 0.908,-0.212c-0,0.035 -0.601,1.261 -1.344,2.722c-2.027,4.008 -3.583,7.614 -5.139,11.904l-0.624,1.709l0.365,0.318c0.896,0.802 2.911,0.978 8.922,0.813c4.349,-0.129 7.46,-0.047 9.37,0.236c2.451,0.377 6.093,0.248 8.721,-0.306c1.179,-0.248 3.206,-0.837 3.524,-1.037c0.106,-0.071 -0.565,-2.039 -1.52,-4.491c-1.297,-3.335 -3.713,-8.592 -4.985,-10.89c-0.578,-1.025 -0.625,-1.131 -0.448,-1.025c0.554,0.353 6.305,1.496 8.332,1.661l0.943,0.083l0.2,-1.096c0.425,-2.463 0.578,-4.102 0.602,-6.412c-0,-1.296 -0.024,-2.734 -0.071,-3.182l-0.083,-0.825l0.201,0.436c0.153,0.354 0.271,0.448 0.518,0.448c0.224,0 0.33,0.083 0.425,0.318c0.789,2.24 5.115,14.014 5.975,16.3c0.625,1.65 1.214,3.229 1.32,3.512c0.094,0.283 0.2,0.484 0.224,0.46c0.082,-0.071 -1.509,-5.174 -4.844,-15.557l-1.626,-5.045l0.259,-0.235c0.141,-0.13 0.224,-0.283 0.2,-0.33c-0.035,-0.048 -0.118,-0.413 -0.177,-0.825c-0.082,-0.484 -0.224,-0.849 -0.424,-1.085c-0.165,-0.2 -0.295,-0.471 -0.295,-0.601c0,-0.153 -0.117,-0.283 -0.353,-0.365c-0.342,-0.13 -0.401,-0.271 -1.132,-2.487c-0.707,-2.145 -0.766,-2.393 -0.648,-2.793c0.071,-0.236 0.13,-0.59 0.13,-0.79c-0,-0.2 0.059,-0.507 0.141,-0.66c0.106,-0.259 0.083,-0.436 -0.177,-1.096c-0.176,-0.448 -0.353,-0.978 -0.388,-1.19c-0.059,-0.26 -0.248,-0.531 -0.602,-0.825c-0.294,-0.236 -0.801,-0.719 -1.131,-1.073c-0.707,-0.742 -1.544,-1.308 -1.933,-1.308c-0.2,-0 -0.271,0.082 -0.33,0.401Z"/>
<path d="M20.477,4.163c-0.578,0.578 -1.214,1.839 -1.485,2.958c-0.165,0.66 -0.342,0.955 -1.061,1.851c-0.459,0.589 -1.202,1.673 -1.626,2.404l-0.79,1.32l-1.685,0.271c-3.878,0.613 -5.811,1.308 -4.927,1.78c0.731,0.4 4.337,1.143 6.553,1.367l0.707,0.071l-0.318,-0.213c-0.424,-0.271 -0.412,-0.341 0.059,-0.495c0.943,-0.306 2.275,-0.412 5.092,-0.412c2.828,-0 4.16,0.106 5.115,0.424l0.412,0.13l-0.353,0.283l-0.342,0.283l0.707,-0.071c2.97,-0.318 6.777,-1.191 6.777,-1.568c-0,-0.224 -0.46,-0.483 -1.356,-0.766c-0.884,-0.271 -3.465,-0.801 -4.879,-1.002l-0.636,-0.082l-0.778,-1.296c-0.802,-1.332 -1.143,-1.839 -1.933,-2.806c-0.248,-0.306 -0.413,-0.553 -0.354,-0.553c0.047,-0 0.377,0.247 0.719,0.542l0.613,0.542l0.589,-0.13c1.332,-0.283 3.253,-1.214 3.395,-1.65c0.047,-0.129 -0.012,-0.141 -0.224,-0.082c-0.153,0.047 -0.637,0.118 -1.061,0.153c-1.308,0.106 -1.968,-0.236 -2.817,-1.497c-0.837,-1.226 -1.862,-1.921 -3.194,-2.169c-0.389,-0.07 -0.471,-0.035 -0.919,0.413Z"/>
</g></svg>