<svg width="48px" height="48px" viewBox="0 0 48 48" version="1.1" xmlns="http://www.w3.org/2000/svg">
<path fill="#202020" d="M7.263,16.5c-3.028,0.159 -6.411,0.543 -6.887,0.768c-0.272,0.131 -0.347,0.403 -0.366,1.34l-0.01,0.675l0.488,0.496c0.721,0.76 0.899,1.236 1.012,2.633c0.29,3.832 1.902,7.148 3.973,8.2c1.32,0.662 2.492,0.868 5.406,0.935c4.218,0.102 6.167,-0.318 7.928,-1.695c1.696,-1.329 2.529,-3.213 3.308,-7.506c0.31,-1.705 0.414,-1.958 0.947,-2.22c0.432,-0.225 1.422,-0.225 1.855,-0c0.534,0.262 0.638,0.514 0.946,2.22c0.778,4.301 1.584,6.127 3.242,7.447c1.808,1.436 3.739,1.857 8.041,1.754c3.065,-0.082 4.308,-0.318 5.547,-1.06c0.682,-0.408 1.15,-0.851 1.675,-1.58c1.154,-1.612 1.93,-4.011 2.11,-6.484c0.094,-1.387 0.301,-1.921 1.032,-2.662l0.486,-0.505l-0.037,-0.862c-0.028,-0.478 -0.102,-0.928 -0.159,-1.003c-0.16,-0.188 -0.805,-0.319 -2.633,-0.525c-3.026,-0.337 -4.742,-0.421 -8.946,-0.411c-4.339,-0 -4.872,0.037 -9.934,0.654c-1.528,0.188 -3.702,0.133 -5.855,-0.139c-3.355,-0.423 -4.574,-0.496 -8.153,-0.525c-1.933,-0.02 -4.191,0.008 -5.016,0.055Zm8.621,1.714c2.774,0.441 4.311,1.424 4.507,2.905c0.094,0.676 -0.14,3.168 -0.383,4.133c-0.32,1.264 -0.786,2.097 -1.638,2.96c-1.473,1.483 -3.383,1.951 -7.497,1.836c-4.049,-0.112 -5.585,-0.88 -6.756,-3.393c-0.788,-1.667 -0.984,-5.115 -0.366,-6.322c0.599,-1.181 2.351,-1.892 5.622,-2.286c0.823,-0.094 5.61,0.026 6.511,0.167Zm24.22,0.037c1.722,0.32 2.868,0.76 3.571,1.397c0.758,0.684 0.982,1.546 0.898,3.43c-0.093,2.033 -0.486,3.467 -1.264,4.58c-1.199,1.726 -2.66,2.288 -6.202,2.39c-4.114,0.115 -6.026,-0.355 -7.495,-1.836c-0.862,-0.863 -1.322,-1.695 -1.651,-2.981c-0.243,-0.974 -0.468,-3.334 -0.384,-4.075c0.178,-1.508 1.772,-2.54 4.535,-2.924c1.51,-0.216 1.651,-0.225 4.386,-0.198c2.088,0.021 2.717,0.059 3.606,0.217Z"/>
</svg>