<svg version="1.1" xmlns="http://www.w3.org/2000/svg" x="0px" y="0px" width="48px" height="48px">
<g fill="#202020">
<path d="M25.062,19.984l0.148,0.357l-0.094-0.877l0.073-0.833l-0.131,0.352c-0.304-2.06-1.296-2.503-2.094-2.503 c-0.692,0-1.524,0.33-2.472,0.98l0.17,0.256c0.924-0.559,1.924-0.771,2.981-0.644c0.715,0.518,0.711,0.739,0.692,0.795 c-0.028,0.086-0.224,0.286-1.417,0.286l-0.265-0.001c-0.046,0-0.082,0-0.123,0.005c-0.712,0.154-1.426,0.344-2.121,0.563 l-0.112,0.035l0.004,0.116c0.053,1.402,1.672,2.49,3.03,2.49C24.271,21.362,24.904,20.852,25.062,19.984z M24.788,19.71 c-0.26,0.699-0.81,1.084-1.545,1.084c-0.772,0-1.6-0.426-2.103-1.07c0.448-0.357,0.638-0.436,0.719-0.436 c0.048,0,0.077,0.171,0.1,0.308c0.072,0.417,0.195,1.133,1.282,1.042l0.053-0.014c0.525-0.241,0.81-0.521,0.869-0.852 c0.045-0.251-0.048-0.517-0.277-0.792c0.453-0.149,0.739-0.039,0.912,0.375l0.065,0.154L24.788,19.71z"/>
<path d="M27.064,18.263c-0.685-1.704-1.137-2.83-2.904-3.756l-0.245-0.129l0.017,0.273 c0.04,0.64,1.265,2.266,2.625,4.019c0.32,0.412,0.593,0.763,0.757,0.993l0.86,1.202l-0.59-1.35 C27.387,19.063,27.22,18.646,27.064,18.263z"/>
<path d="M45.774,4.961c-0.633-0.794-1.319-1.438-2.043-1.913c-1.05-1.013-2.239-1.56-3.637-1.671 C38.907,1.28,36.692,2,34.76,2.634c-1.005,0.329-1.955,0.64-2.669,0.807c-0.618-0.015-1.113-0.181-1.513-0.507l-0.305-0.247 l0.052,0.385c0.031,0.24,0.181,0.46,0.475,0.681c0.749,1.438,2.969,1.63,5.319,1.833l0.149,0.013 c2.836,0.792,5.603,1.748,6.667,3.356c0.212,0.964,0.118,2.195-0.281,3.663c-0.283,0.463-0.653,0.954-1.102,1.461 c-0.084,0.096-0.172,0.179-0.263,0.249c-0.045,0.004-0.091,0.007-0.136,0.007h-0.001c-1.116,0-2.741-1.336-4.46-2.75l-0.151-0.123 c-0.434-0.551-0.847-1.11-1.212-1.604c-0.607-0.822-1.087-1.472-1.41-1.749c-1.147-0.982-2.245-1.461-3.354-1.461 c-1.443,0-2.747,0.802-4.126,1.65c-0.183,0.111-0.365,0.224-0.552,0.336C25.3,8.332,24.621,8.119,23.868,8 c-1.244-0.637-2.718-1.284-4.24-1.284c-1.769,0-3.391,0.853-5.102,2.682c-0.253,0.271-0.574,0.677-0.946,1.146 c-0.724,0.916-1.623,2.055-2.591,2.927c-1.045,0.692-2.113,1.037-3,1.229c-0.355-0.099-0.692-0.319-0.999-0.654 c-0.684-0.743-0.734-1.48-1.05-2.133c-0.08-0.611-0.358-1.28-0.186-2.063c0.159-0.72,0.508-1.287,0.801-1.833 c1.609-1.817,4.715-2.272,7.502-2.949l0.109,0.001C14.448,5.071,14.727,5.073,15,5.073c1.999,0,3.844-0.131,4.488-1.708 c0.27-0.208,0.401-0.435,0.392-0.676l-0.012-0.295l-0.238,0.18c-0.078,0.059-0.256,0.129-0.66,0.129 c-0.956,0-2.59-0.381-4.321-0.784C12.711,1.468,10.708,1,9.378,1c-0.267,0-0.502,0.02-0.7,0.058 c-5.658,1.1-9.051,5.737-8.646,11.815c0.053,0.791,0.362,1.67,0.917,2.612c0.972,2.857,2.901,4.977,5.435,5.973 c0.679,0.622,1.196,1.101,1.536,1.47c-0.724,1.441-1.264,2.774-1.565,3.864c-0.61,1.01-0.836,1.628-0.735,2.003 c0.038,0.142,0.122,0.248,0.248,0.318c0.241,0.133,0.507,0.199,0.79,0.199c0.729,0,1.484-0.445,2.149-0.839 c0.449-0.265,0.877-0.518,1.233-0.601c-0.219,6.366,1.73,10.473,6.696,14.138l0.204-0.229c-2.398-2.394-6.359-7.014-5.946-11.058 c0.168-1.646,1.06-3.045,2.651-4.163c0.466,3.257,2.123,8.542,3.799,9.82c1.283,0.981,1.302,1.493,1.322,2.034 c0.017,0.456,0.035,0.975,0.759,1.733c0.949,1,1.052,1.994,1.142,2.873c0.085,0.827,0.158,1.541,0.954,1.938l0.214,0.107 l0.011-0.236c0.027-0.582,0.199-1.035,0.365-1.475c0.259-0.684,0.506-1.337,0.2-2.35c0.821,0.92,0.822,1.777,0.823,2.609 c0.001,0.858,0.002,1.745,0.991,2.539l0.672,0.538l-0.44-0.734c-0.514-0.857-0.68-1.135-0.099-1.576 c0.011,0.486,0.2,0.95,0.556,1.358c0.635,0.731,1.771,1.236,2.827,1.259l0.029-0.303c-0.414-0.07-0.709-0.25-0.892-0.548 c0.979,0.569,1.744,0.655,3.011,0.799l0.046-0.303c-0.595-0.105-0.993-0.38-1.21-0.836c0.025,0.014,0.052,0.027,0.077,0.041 c0.863,0.447,1.608,0.834,2.47,0.833c0.523,0,1.045-0.146,1.593-0.447l0.812-0.445l-0.914,0.162 c-0.735,0.13-1.196,0.146-1.305,0.118c0.077-0.133,0.427-0.424,0.69-0.642c0.547-0.455,1.229-1.021,1.408-1.554l0.224-0.666 l-0.485,0.515c-0.719,0.763-1.276,0.959-1.691,0.529c-0.492-0.516-0.745-1.908-0.646-3.553c0.322-0.442,0.377-0.905,0.161-1.346 c0.09-0.486,0.211-0.926,0.351-1.274c0.174-0.433,0.48-0.839,0.938-1.241c0.88-0.063,1.885-0.295,2.066-1.444 c0.956-0.654,1.93-1.472,1.7-2.862c0.111-0.393,0-0.729-0.323-0.977c-0.114-0.238-0.259-0.49-0.429-0.75 c1.362-0.843,2.122-1.652,2.319-2.471c0.13-0.537,0.022-1.082-0.331-1.666c0.099-0.323,0.077-0.593-0.063-0.799 c-0.161-0.237-0.475-0.379-0.931-0.417c-0.19-0.195-0.39-0.39-0.59-0.586c-0.701-0.684-1.423-1.389-1.786-2.144 c0.221,0.069,0.496,0.144,0.736,0.205c1.518,0.93,3.778,1.63,5.27,1.63c0.78,0,1.317-0.191,1.563-0.555 c0.449-0.027,0.682-0.125,0.751-0.314c0.091-0.251-0.191-0.495-0.284-0.575c-0.256-0.221-0.479-0.336-0.658-0.428 c-0.322-0.167-0.511-0.264-0.649-0.869c2.938-0.609,5.287-2.705,6.457-5.773C48.654,12.299,48.072,7.845,45.774,4.961z M27.656,16.009h0.137l-0.711,0.704l0.968-0.604l-0.022,0.372l0.285-0.547c0.008-0.008,0.014-0.017,0.021-0.025l0.881-0.873 l-0.681,0.416c0.095-0.242,0.206-0.568,0.305-0.954c0.281-0.396,0.567-0.868,0.774-1.38l0.185-0.009 c0.978-0.05,1.731,0.2,2.213,0.711c-0.001,0.003-0.001,0.008-0.002,0.012c-0.143,0.65,0.186,1.173,0.547,1.65 c-0.027,0.429-0.153,0.864-0.369,1.272c-0.229-0.244-0.515-0.367-0.852-0.367c-0.008,0-0.015,0-0.021,0 c0.027-0.035,0.057-0.07,0.083-0.104c0.266-0.331,0.568-0.705,0.477-1.032c-0.043-0.152-0.163-0.266-0.357-0.339 c-0.349-0.123-0.646-0.055-0.869,0.189c-0.54,0.592-0.476,2.034-0.387,2.858c-0.044,0.22-0.054,0.442-0.026,0.646l0.026,0.199 l0.09-0.037l0.019,0.163l0.02-0.092c0.034,0.188,0.071,0.38,0.114,0.57h-0.001l0.008,0.037c-0.015,0.079-0.005,0.146,0.032,0.197 l0.106,0.409l0.006-0.021c0.756,2.854,2.463,6,4.919,5.747c0.265-0.028,0.5-0.037,0.701-0.029c0.359,0.374,0.607,0.674,0.795,0.958 c-0.577,1.482-3.636,3.994-4.527,4.355l-0.818,0.342l0.916-0.05c0.084-0.005,0.328-0.018,0.648-0.018 c1.086,0,1.904,0.148,2.314,0.419c0.121,0.266,0.205,0.52,0.252,0.757c-0.018,0.048-0.039,0.099-0.065,0.151 c-0.398,0.81-2.025,1.313-4.244,1.313c-2.855,0-6.3-0.895-7.058-2.552c-0.355-0.777-0.092-1.66,0.781-2.625l0.524-0.58l0.107,0.085 l-0.045-0.153l0.331-0.366l-0.364,0.256l-0.059-0.203c-0.098-0.327,0.046-1.021,0.381-1.458c0.344-0.447,0.772-0.496,1.258-0.14 l0.304,0.222c-0.525,0.013-0.854,0.143-1.003,0.397c-0.154,0.263-0.095,0.619,0.183,1.087l0.031,0.038 c0.285,0.25,0.542,0.303,0.708,0.303c0.243,0,0.455-0.114,0.569-0.306c0.087-0.146,0.107-0.317,0.063-0.491 c1.02,0.06,1.492,1.565,1.749,2.381l0.419,1.333l-0.094-1.319c-0.089-1.244-0.521-3.343-2.412-3.423l-0.123-0.001 c-0.006,0-0.012,0-0.017,0l-0.138-0.393c-0.241-0.688-0.674-0.833-0.995-0.833c-0.428,0-0.897,0.266-1.248,0.579 c-0.032-0.361,0.025-0.633,0.173-0.808c0.149-0.178,0.411-0.269,0.773-0.269c1.263,0,3.394,1.048,4.948,1.812 c1.021,0.502,1.564,0.764,1.811,0.764c0.03,0,0.057-0.003,0.082-0.011l0.494-0.144l-0.492-0.149 c-0.296-0.089-0.896-0.46-1.592-0.888c-1.554-0.958-3.68-2.27-5.196-2.27c-1.16,0-1.784,0.747-1.856,2.232 c0.028,0.78,0.355,1.424,0.972,1.914l0.172,0.136l-0.625,0.439c-0.492,0.345-0.825,0.785-0.993,1.313 c-0.38-0.968-1.092-1.403-2.138-1.293l-0.604,0.066l0.563,0.228c1.125,0.454,1.61,1.455,2.125,2.516 c0.483,0.996,0.984,2.025,2.047,2.664c0.704,0.423,1.536,0.618,2.623,0.618c0.811,0,1.662-0.11,2.485-0.219 c0.823-0.106,1.601-0.208,2.339-0.208c0.216,0,0.414,0.009,0.604,0.026c0.07,0.357,0.094,0.671,0.069,0.936 c-0.166,0.112-0.337,0.223-0.508,0.334c-0.476,0.307-0.965,0.625-1.394,0.986c-0.498,0.029-1.053,0.006-1.621-0.015 c-0.393-0.016-0.791-0.031-1.184-0.031c-1.063,0-2.252,0.099-3.023,0.826l-0.229,0.217l0.314,0.045 c2.118,0.302,3.777,1.014,4.257,1.822c-0.065,0.38-0.113,0.777-0.141,1.185c-0.247,0.308-0.648,0.612-1.196,0.908 c0.261-0.657,0.254-1.326-0.023-1.998l-0.236-0.573l-0.063,0.615c-0.113,1.114-0.831,1.669-1.524,2.204 c-0.77,0.594-1.5,1.159-1.204,2.367c-1.224-1.227-2.692-4.099-2.114-5.125l0.203-0.359l-0.393,0.143 c-0.571,0.207-0.914,0.241-1.053,0.1c-0.151-0.151-0.139-0.558-0.125-1.027c0.003-0.123,0.007-0.252,0.009-0.387l0.004-0.393 l-0.272,0.287c-0.308,0.322-0.567,0.539-0.774,0.713c-0.583,0.489-0.81,0.734-0.799,1.774c-2.286-2.646-7.885-10.165-4.089-16.51 c0.324,0.922,0.804,1.571,1.454,2.452L19.356,27l-0.633-1.37c-0.768-1.664-0.719-3.053-0.667-4.524 c0.028-0.813,0.058-1.655-0.039-2.605l-0.143-1.406c0.392-0.301,0.763-0.595,1.05-0.82c0.091-0.072,0.181-0.143,0.254-0.2 c0.067,0.445-0.068,0.813-0.41,1.121l-0.574,0.515l0.731-0.259c1.596-0.565,2.396-1.813,2.312-3.611l-0.021-0.448l-0.262,0.367 c-0.923,1.298-4.818,4.139-5.258,4.459l0.159,0.26c0.452-0.213,1.27-0.809,2.015-1.38l-0.162,1.401 c-0.623,5.393-3.621,6.517-7.092,7.816c-1.395,0.521-2.834,1.062-4.217,1.911c0.026-0.371,0.108-0.812,0.245-1.313 c0.254-0.42,0.544-0.858,0.824-1.281c0.586-0.888,1.093-1.655,1.163-2.063c0.028-0.166-0.074-0.375-0.341-0.688 c1.891-3.706,4.981-7.989,7.037-8.701c1.35-0.464,2.818-0.589,4.239-0.709c1.384-0.117,2.816-0.238,4.153-0.673 c0.011-0.003,0.031-0.007,0.065-0.007c0.792,0,3.64,1.846,3.862,2.64c-0.152,0.151-0.254,0.235-0.294,0.265l-0.309,0.045 l0.071,0.063l-0.82,0.367l1.108-0.175l0.049-0.008 M13.287,4.757c-2.641,0-5.129,0.588-7.153,2.878 c-1.068,1.494-1.466,2.798-1.068,4.547c0.115,1.13,0.367,1.724,0.884,2.234c0.411,0.406,0.967,0.611,1.654,0.611h0 c0.118,0,0.238-0.006,0.361-0.019c0.896,0.025,1.987-0.194,3.218-1.298c0.781-0.521,1.502-1.148,2.083-1.814 c1.843-2.112,5.754-3.704,9.098-3.704c0.49,0,0.962,0.034,1.405,0.102c0.139,0.071,0.28,0.146,0.421,0.221 c-0.286-0.131-0.631-0.197-1.033-0.197c-2.926,0-8.473,3.5-12.142,5.816c-1.569,0.99-3.051,1.926-3.337,1.926 c-2.1-0.401-3.293-3.21-3.091-5.582c0.377-4.424,2.924-6.312,8.518-6.312c0.588,0,1.212,0.02,1.908,0.06l0.985,0.056 c-0.407,0.102-0.834,0.205-1.275,0.311l-0.703,0.17C13.778,4.759,13.533,4.757,13.287,4.757z M40.478,14.918 c0.337,0,0.651-0.101,0.935-0.299c0.714-0.118,1.212-0.724,1.522-1.851l0.01-0.031c0.736-1.22,0.931-2.325,0.582-3.296 c0.033,0.057,0.065,0.113,0.098,0.17l0.111,0.196c0.335,0.589,0.243,2.068-0.224,3.599c-0.383,1.256-0.913,2.186-1.381,2.425 c-0.459,0.234-0.898,0.348-1.343,0.348c-1.675,0-3.116-1.673-4.643-3.443c-1.828-2.121-3.717-4.313-6.378-4.313 c-0.574,0-1.169,0.107-1.769,0.318l-0.271,0.095l0.026,0.02c-0.231-0.108-0.481-0.209-0.75-0.302 c0.686-0.492,1.418-0.731,2.231-0.731c2.388,0,4.989,2.133,7.08,3.852C37.422,13.07,39.05,14.918,40.478,14.918z M33.109,22.912 c-0.56-0.783-0.818-1.145-0.226-1.738c0.027,0.087,0.055,0.173,0.082,0.258c0.221,0.69,0.432,1.353,0.538,2.051 C33.368,23.274,33.233,23.087,33.109,22.912z M31.512,16.964c0.147,0,0.303,0.049,0.46,0.146c-0.343,0.502-0.806,0.911-1.354,1.197 c-0.017-0.112-0.03-0.223-0.043-0.332C30.688,17.483,31.026,16.964,31.512,16.964z M29.78,10.818 c-0.084-0.244-0.204-0.475-0.361-0.691c0.486,0.437,0.867,0.918,0.902,1.434c0.027,0.414-0.165,0.819-0.591,1.238 C29.939,12.16,30.006,11.478,29.78,10.818z M32.188,3.747c0.716,0,1.516-0.177,2.363-0.408c-0.406,0.232-0.817,0.5-1.231,0.803 l-0.313,0.229c-0.555-0.171-1.04-0.342-1.429-0.521c0.158-0.021,0.338-0.055,0.547-0.103H32.188z M33.456,4.41 c1.305-0.369,2.413-0.549,3.39-0.549c2.382,0,3.779,1.112,5.024,2.871c-1.429-1.077-3.645-1.271-5.545-1.437 c-0.411-0.114-0.818-0.225-1.215-0.332c-0.647-0.175-1.264-0.341-1.82-0.506L33.456,4.41z M27.919,11.411 c0.148,0.445,0.24,0.938,0.275,1.464l0.034,0.543l0.258-0.481c0.188-0.349,0.093-0.901-0.28-1.642 c-0.198-0.584-0.49-1.1-0.873-1.543c1.744,1.128,1.543,3.3,1.217,4.617c-0.204,0.283-0.404,0.522-0.563,0.701 c-0.174-0.201-0.395-0.432-0.642-0.69c-0.959-1.002-2.271-2.376-2.172-3.418c0.09-0.944-0.072-1.646-0.479-2.087 c-0.093-0.099-0.197-0.186-0.314-0.258c0.346,0.188,0.692,0.38,1.025,0.567l0.078,0.044l0.078-0.045 c0.088-0.051,0.176-0.103,0.264-0.155l0.405,0.234C26.621,9.487,27.442,10.474,27.919,11.411z M33.461,21.042 c-0.021-0.268,0.1-0.51,0.37-0.74l0.407-0.348l-0.534,0.082c-0.247,0.038-0.52,0.156-0.785,0.271 c-0.305,0.134-0.621,0.271-0.868,0.271c-0.067,0-0.146-0.01-0.222-0.053c0.684,0.038,0.822-0.297,0.914-0.537 c0.069-0.181,0.101-0.263,0.328-0.263c0.133,0,0.315,0.033,0.543,0.1l0.171,0.05l0.027-0.173c0.101-0.641-0.152-1.16-0.698-1.457 c1.058-1.188,0.414-2.016-0.155-2.749l-0.088-0.112c0.018-0.624-0.165-1.202-0.518-1.642c0.093-0.27,0.237-0.303,0.342-0.303 c1.444,0,5.744,6.05,7.581,8.633c0.719,1.013,1.005,1.41,1.156,1.564c-0.005,0.023-0.012,0.047-0.019,0.068 c-0.027,0.001-0.054,0.001-0.082,0.001c-1.534,0-4.733-0.631-6.432-1.061C34.01,22.093,33.499,21.523,33.461,21.042z"/>
<path d="M25.554,20.223H25.48c-0.133,0-0.169,0-0.486,1.068c-0.73,0.476-0.753,0.539-0.715,0.664l0.053,0.117h0.116 c0.073,0,0.21-0.028,0.929-0.365l0.071-0.033l0.015-0.076c0.231-1.21,0.2-1.248,0.142-1.317L25.554,20.223z"/>
</g></svg>