<?xml version="1.0" encoding="UTF-8" standalone="no"?><!DOCTYPE svg PUBLIC "-//W3C//DTD SVG 1.1//EN" "http://www.w3.org/Graphics/SVG/1.1/DTD/svg11.dtd"><svg width="100%" height="100%" viewBox="0 0 48 48" version="1.1" xmlns="http://www.w3.org/2000/svg" xmlns:xlink="http://www.w3.org/1999/xlink" xml:space="preserve" xmlns:serif="http://www.serif.com/" style="fill-rule:evenodd;clip-rule:evenodd;stroke-linejoin:round;stroke-miterlimit:2;"><path d="M12.51,2.682c0,0.125 0.648,1.504 1.442,3.093c1.254,2.508 1.526,2.905 2.132,3.114c0.648,0.251 1.15,0.084 9.259,-2.884c4.724,-1.735 8.674,-3.24 8.799,-3.344c0.105,-0.105 -4.431,-0.188 -10.722,-0.188c-7.231,-0 -10.91,0.062 -10.91,0.209Z" style="fill:#202020;fill-rule:nonzero;"/><path d="M5.446,12.86c-2.318,4.04 -4.301,7.522 -5.081,8.929c0.017,0.122 0.092,0.229 0.202,0.286c2.537,-1.986 12.758,-10.775 12.758,-11.033c0.021,-0.188 0.189,-0.669 0.418,-1.087l0.377,-0.773l-1.422,-2.926c-0.773,-1.631 -1.483,-2.947 -1.588,-2.947c-0.084,-0 -2.633,4.305 -5.664,9.551Z" style="fill:#202020;fill-rule:nonzero;"/><path d="M26.555,6.924c-6.667,2.467 -9.029,3.428 -8.987,3.658c0.084,0.397 19.145,11.725 19.772,11.746c0.251,-0 0.46,-0.084 0.46,-0.188c-0,-0.084 -0.418,-4.159 -0.941,-9.029c-0.522,-4.87 -0.94,-9.029 -0.94,-9.238c-0,-0.188 -4.389,1.191 -9.364,3.051Z" style="fill:#202020;fill-rule:nonzero;"/><path d="M37.382,4.981c-0,0.167 0.376,4.159 0.857,8.882c0.773,7.545 0.94,8.632 1.296,9.029c0.418,0.46 0.543,0.481 4.493,0.481c3.177,-0 4.034,-0.063 3.95,-0.272c-0.041,-0.146 -2.34,-4.159 -5.099,-8.924c-2.759,-4.766 -5.121,-8.862 -5.246,-9.092c-0.168,-0.292 -0.251,-0.334 -0.251,-0.104Z" style="fill:#202020;fill-rule:nonzero;"/><path d="M16.67,12.588l-0.523,0.439l0.23,11.036c0.146,6.061 0.293,11.056 0.334,11.077c0.92,0.522 0.711,0.627 10.012,-4.807l9.091,-5.288l0.126,-0.857c0.104,-0.711 0.042,-0.899 -0.314,-1.129c-0.251,-0.146 -4.284,-2.549 -9.008,-5.329c-4.702,-2.78 -8.757,-5.183 -8.987,-5.33c-0.376,-0.23 -0.502,-0.188 -0.961,0.188Z" style="fill:#202020;fill-rule:nonzero;"/><path d="M7.181,18.19c-3.679,3.114 -6.709,5.768 -6.73,5.894c-0.042,0.188 13.836,11.202 14.317,11.349c0.543,0.188 0.564,-0.711 0.334,-11.412c-0.251,-11.391 -0.272,-11.516 -1.024,-11.516c-0.105,0.021 -3.219,2.571 -6.897,5.685Z" style="fill:#202020;fill-rule:nonzero;"/><path d="M39.556,25.568c-0.398,0.606 -0.565,1.755 -1.338,8.987c-0.46,4.556 -0.836,8.381 -0.794,8.485c0.062,0.167 10.262,-17.243 10.575,-18.037c0.042,-0.083 -1.734,-0.167 -3.971,-0.167l-4.034,0.021l-0.438,0.711Z" style="fill:#202020;fill-rule:nonzero;"/><path d="M0.137,25.986c1.86,3.385 10.869,18.768 10.994,18.789c0.084,0 0.899,-1.358 1.818,-3.051l1.651,-3.052l-0.313,-0.752c-0.167,-0.397 -0.272,-0.857 -0.209,-1.004c0.063,-0.167 -2.508,-2.299 -6.584,-5.496c-3.678,-2.885 -7.566,-5.811 -7.357,-5.434Z" style="fill:#202020;fill-rule:nonzero;"/><path d="M27.308,31.461c-5.936,3.491 -9.155,5.497 -9.155,5.706c0,0.23 2.425,1.317 8.82,3.93c4.849,1.964 8.841,3.553 8.862,3.532c0.084,-0.084 1.965,-18.205 1.902,-18.267c-0.042,-0.021 -0.355,-0.105 -0.69,-0.147c-0.501,-0.083 -2.131,0.795 -9.739,5.246Z" style="fill:#202020;fill-rule:nonzero;"/><path d="M16.649,39.048c-1.004,0.314 -1.004,0.314 -2.571,3.261c-0.857,1.609 -1.568,3.009 -1.568,3.072c0,0.084 4.87,0.146 10.806,0.146c5.936,0 10.722,-0.083 10.596,-0.167c-0.167,-0.167 -14.505,-6.04 -15.759,-6.458c-0.355,-0.125 -0.856,-0.084 -1.504,0.146Z" style="fill:#202020;fill-rule:nonzero;"/></svg>