<svg width="48px" height="48px" version="1.1" xmlns="http://www.w3.org/2000/svg">
<g fill="#202020">
<path d="M41.938,30.15c-1.352,2.344 -3.77,3.182 -6.533,3.182c-2.766,0 -5.184,-0.838 -6.532,-3.182c-3.636,2.25 -6.063,6.313 -6.063,10.957c0,7.074 5.64,6.342 12.595,6.342c6.96,0 12.599,0.732 12.599,-6.342c-0.004,-4.643 -2.434,-8.709 -6.066,-10.957Z"/>
<ellipse cx="35.402" cy="23.458" rx="8.227" ry="8.044"/>
<path d="M17.04,4.345c0,-0.742 -0.603,-1.345 -1.345,-1.345l-13.35,0c-0.742,0 -1.345,0.603 -1.345,1.345l0,6.277c0,0.743 0.603,1.346 1.345,1.346l13.35,0c0.742,0 1.345,-0.603 1.345,-1.346l0,-6.277Z"/>
<path d="M47.01,4.345c0,-0.742 -0.603,-1.345 -1.345,-1.345l-25.32,0c-0.742,0 -1.345,0.603 -1.345,1.345l0,6.277c0,0.743 0.603,1.346 1.345,1.346l25.32,0c0.742,0 1.345,-0.603 1.345,-1.346l0,-6.277Z"/>
<path d="M17.04,15.345c0,-0.742 -0.603,-1.345 -1.345,-1.345l-13.35,0c-0.742,0 -1.345,0.603 -1.345,1.345l0,6.277c0,0.743 0.603,1.346 1.345,1.346l13.35,0c0.742,0 1.345,-0.603 1.345,-1.346l0,-6.277Z"/>
<path d="M17.04,26.345c0,-0.742 -0.603,-1.345 -1.345,-1.345l-13.35,0c-0.742,0 -1.345,0.603 -1.345,1.345l0,6.277c0,0.743 0.603,1.346 1.345,1.346l13.35,0c0.742,0 1.345,-0.603 1.345,-1.346l0,-6.277Z"/>
<path d="M17.04,37.345c0,-0.742 -0.603,-1.345 -1.345,-1.345l-13.35,0c-0.742,0 -1.345,0.603 -1.345,1.345l0,6.277c0,0.743 0.603,1.346 1.345,1.346l13.35,0c0.742,0 1.345,-0.603 1.345,-1.346l0,-6.277Z"/>
<path d="M22.234,36l-1.889,0c-0.742,0 -1.345,0.603 -1.345,1.345l-0,6.277c-0,0.743 0.603,1.346 1.345,1.346l1.678,0c-0.453,-1.008 -0.713,-2.27 -0.713,-3.861c0,-1.8 0.327,-3.521 0.924,-5.107Z"/>
<path d="M25.802,25l-5.457,0c-0.742,0 -1.345,0.603 -1.345,1.345l0,6.277c0,0.743 0.603,1.346 1.345,1.346l2.841,0c1.093,-1.924 2.614,-3.566 4.43,-4.791c-0.92,-1.205 -1.557,-2.629 -1.814,-4.177Zm19.2,-0c-0.256,1.546 -0.893,2.97 -1.812,4.174c1.481,0.998 2.767,2.275 3.784,3.757c0.024,-0.1 0.036,-0.203 0.036,-0.309l0,-6.277c0,-0.742 -0.603,-1.345 -1.345,-1.345l-0.663,-0Z"/>
<path d="M34.091,14l-13.746,0c-0.742,0 -1.345,0.603 -1.345,1.345l0,6.277c0,0.743 0.603,1.346 1.345,1.346l5.343,0c0.238,-4.602 3.809,-8.36 8.403,-8.968Zm2.622,0c4.593,0.607 8.165,4.365 8.403,8.968l0.549,0c0.742,0 1.345,-0.603 1.345,-1.346l0,-6.277c0,-0.742 -0.603,-1.345 -1.345,-1.345l-8.952,0Z"/>
</g></svg>