<svg width="48px" height="48px" viewBox="0 0 48 48" version="1.1" xmlns="http://www.w3.org/2000/svg" >
<g fill="#202020">
<path d="M47.01,4.345c0,-0.742 -0.603,-1.345 -1.345,-1.345l-25.32,0c-0.742,0 -1.345,0.603 -1.345,1.345l0,6.277c0,0.743 0.603,1.346 1.345,1.346l25.32,0c0.742,0 1.345,-0.603 1.345,-1.346l0,-6.277Z"/>
<path d="M17.04,4.345c0,-0.742 -0.603,-1.345 -1.345,-1.345l-13.35,0c-0.742,0 -1.345,0.603 -1.345,1.345l0,6.277c0,0.743 0.603,1.346 1.345,1.346l13.35,0c0.742,0 1.345,-0.603 1.345,-1.346l0,-6.277Z"/>
<path d="M13.717,36l-11.372,0c-0.742,0 -1.345,0.603 -1.345,1.345l-0,6.277c-0,0.743 0.603,1.346 1.345,1.346l13.35,0c0.742,0 1.345,-0.603 1.345,-1.346l0,-3.494c-0.468,-0.044 -0.926,-0.188 -1.336,-0.425c-0,-0 -0,-0 -0,-0c-0.759,-0.438 -1.304,-1.147 -1.53,-1.997l-0.457,-1.706Z"/>
<path d="M14.23,25l-11.885,0c-0.742,0 -1.345,0.603 -1.345,1.345l-0,6.277c-0,0.743 0.603,1.346 1.345,1.346l10.845,0c-0.248,-1.517 0.588,-3.02 2.034,-3.592c-0,0 1.113,-0.441 1.113,-0.44c0.034,-0.365 0.08,-0.731 0.139,-1.094c0,0 -0.952,-0.709 -0.951,-0.708c-1.005,-0.746 -1.472,-1.963 -1.295,-3.134Z"/>
<path d="M31.229,14c0.411,0.348 0.736,0.796 0.934,1.299c0,0 0.334,0.846 0.334,0.846c0.549,0.038 1.097,0.107 1.638,0.205l0.536,-0.721c0.997,-1.339 2.837,-1.719 4.279,-0.886c0.001,0 0.001,0 0.001,0c-0,0 3.072,1.776 3.071,1.776c1.443,0.832 2.034,2.612 1.374,4.149l-0.355,0.822c0.336,0.397 0.651,0.81 0.943,1.238c-0,0 0.835,-0.122 0.829,-0.121c0.53,-0.08 1.072,-0.028 1.576,0.149c0.373,-0.239 0.621,-0.658 0.621,-1.134l-0,-6.277c-0,-0.742 -0.603,-1.345 -1.345,-1.345l-14.436,0Zm-5.469,0l-5.415,0c-0.742,0 -1.345,0.603 -1.345,1.345l-0,3.803c0.518,-0.04 1.051,0.042 1.557,0.26l0.944,0.409c0.345,-0.301 0.706,-0.586 1.079,-0.854l-0.155,-1.061c-0.238,-1.65 0.79,-3.22 2.402,-3.652l0.933,-0.25Z"/>
<path d="M15.142,22.968l1.267,-2.192c0.173,-0.299 0.387,-0.562 0.631,-0.783l0,-4.648c0,-0.742 -0.603,-1.345 -1.345,-1.345l-13.35,0c-0.742,0 -1.345,0.603 -1.345,1.345l0,6.277c0,0.743 0.603,1.346 1.345,1.346l12.797,0Z"/>
<path d="M46.719,38.104c0.453,-0.785 0.245,-1.783 -0.486,-2.328l-1.528,-1.137c0.251,-0.973 0.389,-1.981 0.418,-3.012l1.749,-0.691c0.839,-0.334 1.301,-1.244 1.07,-2.123l-0.918,-3.42c-0.121,-0.461 -0.42,-0.846 -0.83,-1.083c-0.351,-0.202 -0.76,-0.28 -1.157,-0.22l-1.8,0.264c-0.543,-0.93 -1.197,-1.792 -1.957,-2.57l0.738,-1.708c0.359,-0.836 0.039,-1.805 -0.746,-2.258l-3.072,-1.776c-0.784,-0.453 -1.784,-0.245 -2.326,0.483l-1.11,1.493c-1.08,-0.269 -2.188,-0.41 -3.302,-0.409l-0.694,-1.759c-0.147,-0.373 -0.422,-0.689 -0.77,-0.889c-0.41,-0.237 -0.893,-0.301 -1.355,-0.181l-3.428,0.919c-0.877,0.235 -1.435,1.09 -1.305,1.988l0.291,1.996c-0.872,0.542 -1.679,1.18 -2.394,1.902l-1.845,-0.8c-0.831,-0.359 -1.802,-0.041 -2.255,0.742l-1.775,3.073c-0.453,0.787 -0.244,1.787 0.487,2.33l1.711,1.273c-0.21,0.914 -0.329,1.848 -0.351,2.775l-2.003,0.793c-0.84,0.332 -1.299,1.242 -1.07,2.121l0.917,3.426c0.123,0.463 0.419,0.848 0.831,1.086c0.348,0.201 0.76,0.279 1.158,0.221l2.115,-0.309c0.502,0.836 1.091,1.619 1.761,2.332l-0.862,1.996c-0.361,0.832 -0.04,1.807 0.744,2.26l3.075,1.771c0.784,0.453 1.784,0.246 2.327,-0.483l1.244,-1.672c1.01,0.26 2.053,0.405 3.104,0.434l0.759,1.918c0.147,0.373 0.422,0.688 0.771,0.889c0.412,0.238 0.893,0.303 1.354,0.184l3.429,-0.922c0.875,-0.231 1.438,-1.09 1.303,-1.985l-0.291,-2.009c0.899,-0.532 1.729,-1.166 2.466,-1.873l1.778,0.771c0.836,0.363 1.805,0.039 2.258,-0.744l1.772,-3.079Zm-10.792,-4.086c-1.466,2.539 -4.726,3.412 -7.264,1.945c-2.539,-1.467 -3.413,-4.725 -1.947,-7.264c1.466,-2.541 4.728,-3.412 7.269,-1.947c2.536,1.467 3.41,4.728 1.942,7.266Z"/>
</g></svg>