<svg width="48px" height="48px" viewBox="0 0 48 48" version="1.1" xmlns="http://www.w3.org/2000/svg" >
<g fill="#202020">
<path d="M17.04,4.345c-0,-0.742 -0.603,-1.345 -1.345,-1.345l-13.35,0c-0.742,0 -1.345,0.603 -1.345,1.345l0,6.277c0,0.743 0.603,1.346 1.345,1.346l13.35,-0c0.742,-0 1.345,-0.603 1.345,-1.346l-0,-6.277Z"/>
<path d="M47.01,4.345c-0,-0.742 -0.603,-1.345 -1.345,-1.345l-25.32,0c-0.742,0 -1.345,0.603 -1.345,1.345l-0,6.277c-0,0.743 0.603,1.346 1.345,1.346l25.32,-0c0.742,-0 1.345,-0.603 1.345,-1.346l-0,-6.277Z"/>
<path d="M17.04,15.345c-0,-0.742 -0.603,-1.345 -1.345,-1.345l-13.35,0c-0.742,0 -1.345,0.603 -1.345,1.345l0,6.277c0,0.743 0.603,1.346 1.345,1.346l13.35,-0c0.742,-0 1.345,-0.603 1.345,-1.346l-0,-6.277Z"/>
<path d="M47.01,15.345c-0,-0.742 -0.603,-1.345 -1.345,-1.345l-25.32,0c-0.742,0 -1.345,0.603 -1.345,1.345l-0,6.277c-0,0.743 0.603,1.346 1.345,1.346l25.32,-0c0.742,-0 1.345,-0.603 1.345,-1.346l-0,-6.277Z"/>
<path d="M17.04,26.345c-0,-0.742 -0.603,-1.345 -1.345,-1.345l-13.35,0c-0.742,0 -1.345,0.603 -1.345,1.345l0,6.277c0,0.743 0.603,1.346 1.345,1.346l13.35,-0c0.742,-0 1.345,-0.603 1.345,-1.346l-0,-6.277Z"/>
<path d="M47.01,26.345c-0,-0.742 -0.603,-1.345 -1.345,-1.345l-25.32,0c-0.742,0 -1.345,0.603 -1.345,1.345l-0,6.277c-0,0.743 0.603,1.346 1.345,1.346l25.32,-0c0.742,-0 1.345,-0.603 1.345,-1.346l-0,-6.277Z"/>
<path d="M17.04,37.345c-0,-0.742 -0.603,-1.345 -1.345,-1.345l-13.35,0c-0.742,0 -1.345,0.603 -1.345,1.345l0,6.277c0,0.743 0.603,1.346 1.345,1.346l13.35,-0c0.742,-0 1.345,-0.603 1.345,-1.346l-0,-6.277Z"/>
<path d="M47.01,37.345c-0,-0.742 -0.603,-1.345 -1.345,-1.345l-25.32,0c-0.742,0 -1.345,0.603 -1.345,1.345l-0,6.277c-0,0.743 0.603,1.346 1.345,1.346l25.32,-0c0.742,-0 1.345,-0.603 1.345,-1.346l-0,-6.277Z"/>
</g></svg>