
<svg width="48px" height="48px" version="1.1" xmlns="http://www.w3.org/2000/svg">
<path fill="#202020" d="M39.268,0.829l-4.056,0.022c-0.34,-0.001 -0.58,0.169 -0.785,0.372c0,0 -0.788,1.192 -3.446,1.183c0,0 -0.579,0.101 -1.599,-1.06c-1.155,-1.299 -1.837,-1.369 -3.983,-1.342c-9.271,-0.095 -16.104,5.407 -17.518,11.163c-0,0 -0.002,0.546 0.648,-0.1c0.786,-0.714 6.075,-2.982 10.983,-2.763c-0,-0 2.487,-0.026 2.482,2.154c-0.004,1.228 -0.014,4.772 -0.023,7.568c-0.785,0.372 -1.332,1.189 -1.301,2.109l-0.074,25.495c-0.004,1.295 1.049,2.354 2.345,2.359l3.886,0.011c1.295,0.004 2.355,-1.05 2.358,-2.345l0.075,-25.496c0.003,-0.954 -0.542,-1.704 -1.29,-2.115l0.018,-6.272c-0,0 0.249,-3.51 2.976,-3.503c2.659,0.007 3.439,1.203 3.439,1.203c0.17,0.239 0.477,0.41 0.783,0.377l4.022,0.011c0.546,0.003 1.024,-0.472 1.025,-1.018l0.02,-6.954c0.036,-0.579 -0.406,-1.023 -0.985,-1.059Z"/>
</svg>