<svg width="48px" height="48px" version="1.1" xmlns="http://www.w3.org/2000/svg">
<g fill="#202020">
<path d="M37.597,22.57c-1.275,-3.345 -6.347,-16.63 -7.936,-20.799c-0.233,-0.616 -0.947,-0.933 -1.617,-0.73l-4.219,1.291c-0.729,0.223 -1.122,0.967 -0.863,1.627c0.952,2.447 3.791,9.693 5.359,13.693c0.169,0.432 0.462,0.804 0.854,1.077l2.66,1.881c0.273,0.193 0.462,0.476 0.526,0.794l0.169,0.814c0.069,0.322 -0.323,0.566 -0.61,0.382l-2.229,-1.449l-5.618,-3.405c-0.283,-0.178 -0.744,-0.208 -1.116,-0.183l-9.752,0.471c-0.636,0.03 -1.147,0.531 -1.152,1.127l-0.049,4.972c-0.005,0.631 0.545,1.122 1.215,1.087l8.432,-0.461c0.397,-0.015 0.794,-0.015 1.122,0.183l5.787,3.519c0.327,0.199 0.555,0.516 0.63,0.879l-0.114,3.573c-0.015,0.536 -0.328,1.027 -0.824,1.305l-5.568,3.112c-0.422,0.233 -0.938,0.228 -1.34,-0.015l-2.095,-1.271c-0.446,-0.273 -0.694,-0.749 -0.655,-1.25l0.546,-6.864c0.04,-0.491 -0.427,-0.868 -0.943,-0.759l-6.104,1.265c-0.491,0.104 -0.859,0.497 -0.893,0.968l-1.365,9.459c-0.08,0.556 0.193,1.092 0.7,1.37l12.044,6.601c0.522,0.282 1.182,0.243 1.673,-0.115l13.276,-9.538c0.426,-0.303 0.67,-0.784 0.65,-1.276l-0.397,-12.422c-0.01,-0.312 -0.075,-0.62 -0.184,-0.913Z"/>
<path d="M24.847,16.223l0.437,0.253c0.303,0.173 0.68,-0.114 0.566,-0.432l-1.916,-5.117c-0.064,-0.168 -0.173,-0.317 -0.317,-0.426l-4.442,-3.43c-0.769,-0.595 -1.926,-0.461 -2.561,0.288l-1.861,2.204c-0.61,0.724 -0.516,1.756 0.223,2.332c1.479,1.156 3.4,2.665 4.794,3.737c0.313,0.238 0.705,0.362 1.112,0.357l2.789,-0.064c0.417,-0.01 0.824,0.094 1.176,0.298Z"/>
</g></svg>