<svg width="48px" height="48px" version="1.1" xmlns="http://www.w3.org/2000/svg">
<g fill="#202020">
<path d="M38.274,46.738c0.599,-0.005 0.905,-0.316 0.95,-0.92c0.099,-1.381 1.252,-16.478 1.356,-17.706c0.054,-0.653 -0.178,-0.989 -0.832,-1.123c-4.963,-1.019 -14.553,-3.048 -14.85,-3.107c-0.371,-0.075 -0.599,0.108 -0.599,0.489l0,6.953c0,0.371 0.169,0.569 0.535,0.633c2.103,0.362 6.997,1.223 7.799,1.361c0.455,0.079 0.742,0.401 0.752,0.846c0.024,1.619 0.049,3.242 0.074,4.86c0.005,0.297 -0.139,0.47 -0.386,0.495c-0.104,0.01 -0.193,-0.03 -0.282,-0.07c-1.91,-0.777 -10.803,-4.458 -14.39,-5.938c-0.233,-0.089 -0.431,-0.222 -0.589,-0.396l-3.914,-4.305c-0.144,-0.158 -0.46,-0.406 -0.916,-0.445c0,-0 -5.027,-0.317 -5.141,-0.272c-0.178,0.069 -0.292,0.183 -0.302,0.381c-0.01,0.158 -0.109,16.725 -0.119,17.878c-0.005,0.461 0.193,0.654 0.653,0.649c4.746,-0.04 28.756,-0.253 30.201,-0.263Z"/>
<path d="M20.232,12.248c-0.074,-0.406 -0.208,-0.495 -0.619,-0.416c-1.4,0.262 -2.796,0.525 -4.196,0.787c-0.539,0.099 -0.742,0.391 -0.663,0.925c0.312,2.133 1.272,8.764 1.445,9.947c0.039,0.262 0.119,0.341 0.386,0.351c1.657,0.064 5.22,0.203 5.344,0.203c0.376,-0.005 0.559,-0.228 0.485,-0.604c-0.153,-0.816 -0.317,-1.633 -0.47,-2.449c-0.198,-1.059 -1.361,-6.884 -1.712,-8.744Z"/>
<path d="M12.804,15.84c-0.054,-0.282 -0.173,-0.366 -0.45,-0.316c-1.386,0.257 -2.776,0.519 -4.162,0.781c-0.51,0.099 -0.811,0.461 -0.777,0.98c0.05,0.723 0.644,7.319 0.733,8.254c0.034,0.376 0.272,0.614 0.628,0.629c1.767,0.084 3.533,0.168 5.305,0.242c0.376,0.015 0.574,-0.227 0.505,-0.608c-0.154,-0.852 -0.302,-1.698 -0.461,-2.549c-0.143,-0.807 -1.014,-5.76 -1.321,-7.413Z"/>
<path d="M21.766,1.782c-0.485,0.104 -0.733,0.455 -0.663,0.945c0.203,1.484 2.801,15.474 3.365,18.71c0.064,0.381 0.361,0.678 0.737,0.747l4.958,0.876c0.649,0.124 1.213,-0.445 1.079,-1.094c-0.94,-4.572 -3.875,-18.823 -4.171,-20.323c-0.065,-0.331 -0.233,-0.564 -0.575,-0.643c-0.123,-0.025 -4.087,0.648 -4.73,0.782Z"/>
<path d="M39.996,2.499c0.01,-0.475 -0.183,-0.688 -0.638,-0.688l-5.137,0c-0.44,0 -0.638,0.203 -0.653,0.664c-0.064,1.979 -0.569,18.932 -0.614,20.397c-0.01,0.426 0.218,0.713 0.619,0.812c0.124,0.029 3.488,0.781 5.047,1.128c0.5,0.109 0.832,-0.168 0.846,-0.703c0.04,-1.925 0.49,-19.69 0.53,-21.61Z"/>
</g></svg>