<svg width="48px" height="48px" version="1.1" xmlns="http://www.w3.org/2000/svg">
<g fill="#202020">
<path d="M38.849,46.711c0.625,-0.005 0.943,-0.328 0.988,-0.958c0.104,-1.438 1.299,-17.137 1.408,-18.417c0.06,-0.68 -0.188,-1.032 -0.863,-1.171c-5.159,-1.056 -16.096,-3.303 -16.404,-3.363c-0.386,-0.079 -0.625,0.114 -0.625,0.511l0,7.232c0,0.387 0.174,0.595 0.556,0.66c2.187,0.377 8.234,1.409 9.067,1.552c0.477,0.085 0.774,0.417 0.779,0.883c0.03,1.687 0.055,3.373 0.075,5.055c0.005,0.307 -0.144,0.491 -0.402,0.516c-0.109,0.01 -0.204,-0.03 -0.298,-0.07c-2.043,-0.853 -13.026,-5.391 -16.468,-6.81c-0.427,-0.179 -0.724,-0.456 -0.908,-0.883c-0.843,-1.945 -1.696,-3.884 -2.539,-5.833c-0.129,-0.298 -0.328,-0.472 -0.63,-0.561c-1.642,-0.491 -3.284,-0.987 -4.926,-1.483c-0.134,-0.04 -0.268,-0.079 -0.412,-0.025c-0.183,0.07 -0.302,0.194 -0.312,0.397c-0.01,0.169 -0.179,21.166 -0.189,22.366c-0.005,0.476 0.199,0.675 0.68,0.675c4.94,-0.04 29.92,-0.258 31.423,-0.273Z"/>
<path d="M39.465,1.701c0.009,-0.476 -0.194,-0.685 -0.665,-0.685l-5.342,0c-0.457,0 -0.665,0.204 -0.68,0.665c-0.064,1.969 -0.595,18.869 -0.635,20.332c-0.015,0.427 0.223,0.71 0.64,0.809c0.129,0.03 3.631,0.784 5.248,1.126c0.521,0.109 0.868,-0.169 0.878,-0.699c0.045,-1.925 0.511,-19.633 0.556,-21.548Z"/>
<path d="M21.751,11.597c0,-0.427 -0.119,-0.546 -0.55,-0.546l-4.44,0c-0.57,0 -0.833,0.258 -0.858,0.823c-0.089,2.243 -0.382,9.202 -0.432,10.447c-0.009,0.278 0.06,0.372 0.328,0.431c1.681,0.387 5.297,1.211 5.421,1.231c0.387,0.069 0.616,-0.124 0.616,-0.521c-0,-0.863 -0.01,-1.731 -0.01,-2.594c-0.005,-1.117 -0.075,-7.297 -0.075,-9.271Z"/>
<path d="M13.413,3.923c-0,-0.57 -0.322,-0.858 -0.992,-0.858l-3.81,-0c-0.54,-0 -0.917,0.312 -0.982,0.853c-0.089,0.749 -0.833,15.456 -0.833,16.568c-0.005,0.431 0.164,0.679 0.521,0.764c1.79,0.426 3.581,0.848 5.377,1.264c0.382,0.09 0.63,-0.124 0.635,-0.525c0.01,-0.898 0.014,-1.796 0.019,-2.694c0,-0.853 0.065,-13.621 0.065,-15.372Z"/>
<path d="M25.521,11.056c-0.516,0 -0.843,0.308 -0.878,0.818c-0.119,1.712 -0.501,7.054 -0.57,8.011c-0.005,0.06 -0.01,0.115 -0.01,0.174c-0.015,0.377 0.193,0.63 0.57,0.699c1.622,0.303 3.244,0.606 4.866,0.908c0.471,0.089 0.779,-0.168 0.784,-0.665c0.01,-1.2 0.064,-7.271 0.084,-9.112c0.005,-0.352 -0.114,-0.625 -0.446,-0.778c-0.119,-0.055 -3.72,-0.06 -4.4,-0.055Z"/>
</g></svg>