<svg width="48px" height="48px" version="1.1" xmlns="http://www.w3.org/2000/svg">
<g fill="#202020">
<path d="M40.848,19.936c-0.061,-0.491 -0.402,-0.777 -0.893,-0.782l-4.019,-0c-0.266,-0 -0.366,0.105 -0.366,0.376c-0,0.777 0.035,1.555 0.05,3.015c0.005,0.306 -0.266,0.622 -0.572,0.492l-0.572,-0.186c-0.221,-0.095 -0.401,-0.236 -0.412,-0.466c-0.075,-2.399 -0.17,-2.915 -0.21,-3.773c-0.02,-0.477 -0.261,-0.693 -0.783,-0.693l-4.054,0c-0.396,0 -0.501,0.101 -0.501,0.462c-0,0.838 -0.015,1.214 -0.036,3.647c0,0.246 -0.2,0.442 -0.446,0.442l-0.763,-0.005c-0.24,-0 -0.441,-0.191 -0.446,-0.437c-0.131,-5.699 -0.361,-19.175 -0.442,-20.299c-0.03,-0.466 -0.331,-0.747 -0.802,-0.747c-0.622,-0 -4.736,0.035 -4.842,0.085c-0.301,0.14 -0.411,0.391 -0.411,0.712c0.01,1.159 -0.211,14.224 -0.191,20.264c0,0.226 -0.18,0.407 -0.406,0.407l-0.452,0.025c-0.221,-0 -0.401,-0.176 -0.406,-0.397c-0.06,-2.453 -0.126,-3.155 -0.151,-3.943c-0.015,-0.391 -0.2,-0.562 -0.617,-0.562l-4.876,0c-0.432,0 -0.617,0.176 -0.607,0.577c0.02,0.893 0.135,9.733 0.135,9.733c0,0.276 -0.376,0.356 -0.492,0.106l-0.637,-1.435c-0.216,-0.482 -0.326,-1.004 -0.326,-1.531l0,-2.899c0,-0.372 -0.416,-0.587 -0.722,-0.377c-1.506,1.064 -3.427,2.414 -4.491,3.166c-0.476,0.336 -0.672,0.943 -0.481,1.49c1.324,3.843 6.03,18.368 6.401,19.496c0.181,0.547 0.332,0.868 0.904,0.873c1.324,0.01 19.922,0.201 25.2,0.246c0.382,0 0.522,-0.256 0.572,-0.471l3.773,-19.105c0.02,-0.141 -0.01,-0.457 -0.04,-0.683c-0.196,-1.515 -1.53,-6.462 -1.57,-6.823Z"/>
</g></svg>