<svg width="48px" height="48px" version="1.1" xmlns="http://www.w3.org/2000/svg">
<g fill="#202020">
<path d="M41.493,15.304c0.45,-0.01 0.646,0.182 0.646,0.631l0,5.062c0,0.434 -0.191,0.625 -0.625,0.64c-1.868,0.061 -11.572,0.283 -12.955,0.323c-0.403,0.01 -0.671,-0.212 -0.767,-0.605c-0.03,-0.121 -0.741,-3.437 -1.064,-4.971c-0.106,-0.494 0.156,-0.817 0.661,-0.833c1.821,-0.045 12.293,-0.206 14.104,-0.247Z"/>
<path d="M41.63,31.796c0.403,0 0.514,0.111 0.514,0.52l0,4.203c0,0.54 -0.242,0.788 -0.777,0.813c-2.119,0.086 -8.715,0.358 -9.891,0.409c-0.262,0.01 -0.348,-0.056 -0.408,-0.308c-0.364,-1.595 -1.146,-5.016 -1.166,-5.138c-0.066,-0.368 0.116,-0.58 0.494,-0.58c0.818,0 1.64,0.01 2.458,0.01c1.055,0 6.904,0.071 8.776,0.071Z"/>
<path d="M41.756,39.688c0.282,0 0.388,0.101 0.388,0.379l0,4.168c0,0.515 -0.297,0.868 -0.807,0.929c-0.712,0.086 -7.201,0.706 -8.125,0.787c-0.373,0.035 -0.641,-0.151 -0.726,-0.494c-0.404,-1.696 -0.803,-3.392 -1.201,-5.092c-0.086,-0.364 0.116,-0.596 0.494,-0.601c0.848,-0.005 1.701,-0.015 2.549,-0.02c0.817,0.005 5.768,-0.056 7.428,-0.056Z"/>
<path d="M41.367,29.056c0.485,-0.036 0.777,-0.343 0.777,-0.833c0,-0.641 0,-4.052 -0.05,-4.163c-0.146,-0.313 -0.404,-0.429 -0.737,-0.424c-1.741,0.02 -11.233,0.07 -12.369,0.081c-0.469,0.005 -0.711,0.292 -0.625,0.741c0.287,1.534 0.57,3.074 0.858,4.608c0.065,0.353 0.307,0.55 0.661,0.54l11.485,-0.55Z"/>
<path d="M30.29,45.139c-0.469,-1.555 -0.943,-3.109 -1.402,-4.663c-0.086,-0.288 -0.253,-0.475 -0.53,-0.596c-1.842,-0.797 -3.679,-1.605 -5.521,-2.402c-0.404,-0.176 -0.666,-0.454 -0.838,-0.858c-0.55,-1.342 -2.483,-6.015 -3.209,-7.776c-0.167,-0.399 -0.051,-0.863 0.282,-1.136l6.036,-4.96c0.419,-0.344 0.61,-0.894 0.499,-1.429l-1.155,-5.369c-0.111,-0.52 -0.036,-1.06 0.207,-1.529l1.847,-2.967c0.116,-0.207 0.176,-0.439 0.176,-0.682l0,-9.371c0,-0.772 -0.626,-1.398 -1.398,-1.398l-5.223,0c-0.772,0 -1.398,0.626 -1.398,1.398l0,6.233c0,0.307 -0.1,0.61 -0.292,0.852l-6.011,5.95c-1.574,0.121 -7.006,0.207 -7.344,0.232c-0.595,0.041 -0.898,0.343 -0.903,0.934c-0.015,1.418 -0.222,24.071 -0.257,28.754c-0.005,0.454 0.186,0.646 0.635,0.64c1.136,-0.01 25.29,0.834 25.446,0.824c0.192,-0.01 0.308,-0.121 0.374,-0.298c0.05,-0.131 0.015,-0.257 -0.021,-0.383Z"/>
</g></svg>