<svg width="48px" height="48px" version="1.1" xmlns="http://www.w3.org/2000/svg">
<g fill="#202020">
<path d="M1.684,11.986l8.038,-7.918c0.461,-0.455 1.081,-0.707 1.729,-0.707l21.454,-0c0.741,-0 1.437,0.334 1.904,0.905l4.296,5.262c0.329,0.406 0.511,0.911 0.511,1.427l-0,19.918c-0,3.061 -2.3,5.635 -5.339,5.98l-1.367,0.154c-1.157,0.132 -2.172,-0.774 -2.172,-1.942l-0,-14.294c-0,-0.324 -0.264,-0.587 -0.588,-0.587l-1.086,-0c-0.324,-0 -0.587,0.263 -0.587,0.587l-0,14.82c-0,0.928 -0.752,1.679 -1.679,1.679l-4.906,0c-0.872,0 -1.58,-0.707 -1.58,-1.58l0,-14.787c0,-0.324 -0.263,-0.588 -0.587,-0.588l-1.185,0c-0.324,0 -0.587,0.264 -0.587,0.588l-0,14.529c-0,0.928 -0.878,1.597 -1.773,1.356l-5.531,-1.509c-0.592,-0.16 -1.004,-0.697 -1.004,-1.312l0,-13.059c0,-0.324 -0.263,-0.587 -0.587,-0.587l-1.207,-0c-0.324,-0 -0.587,0.263 -0.587,0.587l-0,11.759c-0,0.741 -0.785,1.223 -1.449,0.883l-4.115,-2.118c-0.428,-0.219 -0.697,-0.658 -0.697,-1.141l0,-16.675c-0.005,-0.609 0.242,-1.196 0.681,-1.63Z"/>
<path d="M42.43,16.047l2.952,2.858c0.39,0.379 0.631,0.889 0.67,1.432l0.938,13.016c0.05,0.664 -0.175,1.317 -0.62,1.81l-7.759,8.67c-0.46,0.516 -1.113,0.806 -1.805,0.806l-10.123,0c-1.778,0 -3.221,-1.443 -3.221,-3.22l-0,-1.081c-0,-0.851 0.691,-1.542 1.542,-1.542l8.636,-0c0.445,-0 0.889,-0.039 1.323,-0.121c3.703,-0.691 6.397,-3.907 6.425,-7.671l0.115,-14.573c0.006,-0.478 0.582,-0.719 0.927,-0.384Z"/>
</g></svg>