<svg width="48px" height="48px" version="1.1" xmlns="http://www.w3.org/2000/svg" >
<path fill="#202020" d="M15.502,0.375c0.457,-0.375 1.08,-0.477 1.633,-0.269c2.941,1.108 12.299,4.636 15.241,5.745c0.552,0.208 0.952,0.694 1.048,1.278l2.647,16.07c0.096,0.584 -4.895,4.175 -3.885,5.371c0,0 2.293,3.059 2.981,2.476c0.69,-0.585 2.068,-0.084 3.08,1.111l6.362,7.921c1.01,1.196 0.86,2.986 -0.335,3.996l-3.848,3.256c-1.197,1.011 -2.986,0.861 -3.997,-0.335l-6.361,-7.923c-1.011,-1.196 -1.272,-2.638 -0.584,-3.219c0.689,-0.585 -1.93,-3.368 -1.93,-3.368c-1.013,-1.194 -5.74,3.066 -6.293,2.858c-2.941,-1.108 -12.3,-4.635 -15.241,-5.744c-0.553,-0.208 -0.954,-0.696 -1.05,-1.279l-2.645,-16.069c-0.097,-0.584 0.126,-1.174 0.582,-1.548l12.595,-10.328Zm1.287,6.043l-8.207,6.731c-0.298,0.244 -0.443,0.628 -0.38,1.009l1.724,10.471c0.062,0.381 0.324,0.699 0.683,0.834c1.918,0.723 8.016,3.022 9.933,3.744c0.36,0.135 0.766,0.068 1.063,-0.176c1.584,-1.298 6.624,-5.431 8.208,-6.73c0.297,-0.244 0.443,-0.628 0.38,-1.009l-1.725,-10.472c-0.062,-0.38 -0.323,-0.697 -0.683,-0.834c-1.916,-0.722 -8.016,-3.021 -9.932,-3.743c-0.36,-0.135 -0.766,-0.068 -1.064,0.175Z"/>
</svg>