<svg width="48px" height="48px" viewBox="0 0 48 48" version="1.1" xmlns="http://www.w3.org/2000/svg" >
<g fill="#202020">
<path d="M33.212,22.9c-1.903,3.379 -5.313,4.587 -9.213,4.587c-3.9,-0 -7.308,-1.208 -9.211,-4.586c-5.127,3.241 -8.552,9.104 -8.552,15.797c0,10.202 7.952,9.144 17.764,9.144c9.81,-0 17.764,1.059 17.764,-9.144c0,-6.695 -3.425,-12.558 -8.552,-15.798Z"/>
<path d="M12.404,12.805c-1.156,-0.61 -3.904,-1.423 -3.904,-2.503c0,-0.892 0.722,-1.614 1.612,-1.614c0.523,-0 2.986,0.25 3.281,0.639c0.182,-2.116 0.647,-5.48 1.804,-7.235c1.772,-2.683 5.607,-1.879 5.607,-1.879c0,0 0.168,0.023 1.477,0.339c1.05,0.254 1.19,0.215 1.645,0.226l0.148,0c0.455,-0.011 0.598,0.038 1.645,-0.226c1.373,-0.345 1.477,-0.339 1.477,-0.339c-0,0 3.835,-0.804 5.604,1.879c1.16,1.755 1.623,5.116 1.804,7.235c0.295,-0.386 2.758,-0.639 3.282,-0.639c0.892,-0 1.614,0.722 1.614,1.611c-0,1.082 -2.748,1.895 -3.904,2.506c0.003,0.099 0.004,0.198 0.004,0.298c0,6.402 -5.198,11.6 -11.6,11.6c-6.402,-0 -11.6,-5.198 -11.6,-11.6c0,-0.1 0.001,-0.199 0.004,-0.298Zm1.747,-3.553c-0,0 5.697,0.802 9.926,0.808c4.163,-0.006 9.775,-0.808 9.775,-0.808c0.075,0.648 0.135,0.287 0.177,0.777c-1.218,0.585 -4.662,1.375 -10.029,1.375c-5.367,0 -8.811,-0.79 -10.029,-1.375c0.042,-0.49 0.105,-0.129 0.18,-0.777Z"/>
</g></svg>