<svg width="48px" height="48px" version="1.1" xmlns="http://www.w3.org/2000/svg">
<path fill="#202020" d="M47.764,44.308c-0.276,0.432 -0.753,0.692 -1.264,0.692l-18,-0c-0.828,-0 -1.5,-0.671 -1.5,-1.5l-0,-39c-0,-0.704 0.49,-1.314 1.178,-1.465c0.688,-0.151 1.389,0.197 1.684,0.837l18,38.999c0.214,0.465 0.177,1.007 -0.098,1.437Zm-17.764,-32.978l-0,30.67l14.155,-0l-14.155,-30.67Zm-28.5,33.67c-0.512,-0 -0.988,-0.26 -1.264,-0.692c-0.275,-0.43 -0.312,-0.972 -0.098,-1.437l18,-38.999c0.295,-0.64 0.996,-0.988 1.684,-0.837c0.688,0.151 1.178,0.761 1.178,1.465l-0,39c-0,0.829 -0.672,1.5 -1.5,1.5l-18,-0Z"/>
</svg>