<svg width="48px" height="48px" viewBox="0 0 48 48" version="1.1" xmlns="http://www.w3.org/2000/svg">
<g fill="#202020">
<path d="M25.57,13.92c-2.726,-0.895 -8.87,-2.13 -8.42,-1.37c0.59,1 1.48,1.82 2.34,2.59c1.18,1.06 2.45,2.01 3.61,3.1c0.4,0.38 0.79,0.77 1.13,1.19c0.13,0.16 0.6,1.04 0.77,1.04c0.15,0 1.07,-1.38 1.23,-1.55c0.76,-0.81 1.6,-1.55 2.46,-2.26c1.15,-0.94 2.26,-1.9 3.32,-2.93c-1.98,0.84 -4.265,0.904 -6.44,0.19Z"/>
<path d="M25.42,32.65c-1.186,-0.014 -4.382,3.626 -5.745,4.473c-1.912,1.188 -3.735,1.487 -4.095,3.997l18.85,0c-0.35,-2.3 -2.151,-2.536 -3.891,-4.086c-0.96,-0.85 -4.219,-4.634 -5.119,-4.384c-0.57,0.18 1.034,0.013 -0,0Z"/>
<path d="M39.46,40.13c-0.09,-2.74 -0.88,-5.44 -2.39,-7.73c-1.35,-2.06 -3.25,-3.64 -5.15,-5.17c-1.06,-0.86 -2.8,-1.98 -2.64,-3.57c0.18,-1.72 2.63,-3.07 3.79,-4.04c3.78,-3.17 6.28,-7.09 6.38,-12.17c0.03,-1.33 0.18,-2.56 -0.24,-3.83c-0.59,-1.78 -2.21,-3.35 -4.15,-3.5c-2.18,-0.17 -4.41,-0.07 -6.6,-0.08c-3.3,-0.01 -6.61,-0.01 -9.92,0.02c-2.51,0.02 -5.17,-0.3 -6.95,1.93c-1.08,1.35 -1.14,2.86 -1.12,4.47c0.04,2.12 0.27,4.19 0.97,6.2c0.78,2.23 2.25,4.1 3.94,5.72c1.02,0.98 2.14,1.84 3.22,2.76c0.65,0.55 1.4,1.14 1.83,1.89c0.64,1.12 -0.04,2.18 -0.86,2.97c-1.97,1.89 -4.23,3.39 -5.96,5.54c-1.39,1.71 -2.1,3.46 -2.52,5.61c-0.35,1.83 -0.71,3.81 -0.66,5.69c0.08,3.03 2.56,5.01 5.44,5.08c5.15,0.12 10.3,0.09 15.45,0.04c1.87,-0.02 3.94,0.23 5.63,-0.75c2.74,-1.61 2.57,-4.39 2.51,-7.08Zm-3.26,2.69l-22.35,0c0.03,-1.3 -0.02,-2.62 0.15,-3.9c0.33,-2.47 1.49,-4.67 3.22,-6.44c2.81,-2.87 8.32,-5.46 6.51,-10.38c-0.81,-2.21 -3.15,-3.67 -4.86,-5.12c-1.64,-1.38 -3.16,-2.89 -4.01,-4.9c-0.8,-1.88 -0.98,-3.79 -0.98,-5.8c-0,-0.12 -0.05,-1.12 0.04,-1.12l22.23,0c0.25,0 -0.47,4.61 -0.54,4.95c-0.41,1.88 -1.1,3.45 -2.41,4.88c-2.12,2.31 -5.63,3.92 -6.89,6.91c-1,2.39 0.04,4.72 1.78,6.4c2.36,2.28 5.42,3.99 6.87,7.07c1.13,2.4 1.18,4.87 1.24,7.45Z"/>
</g></svg>