<svg version="1.1" xmlns="http://www.w3.org/2000/svg" x="0px" y="0px" width="48px" height="48px">
<g fill="#202020">
<path d="M19.28,10.59c-0.64,0.23-2.58,1.2-2.13,1.96c0.59,1,1.48,1.82,2.34,2.59c1.18,1.06,2.45,2.01,3.61,3.1 c0.4,0.38,0.79,0.77,1.13,1.19c0.13,0.16,0.6,1.04,0.77,1.04c0.15,0,1.07-1.38,1.23-1.55c0.76-0.81,1.6-1.55,2.46-2.26 c1.15-0.94,2.26-1.9,3.32-2.93c-1.98,0.84-4.46,1.34-6.44,0.19C23.44,12.69,22.21,9.56,19.28,10.59 C18.98,10.69,20.01,10.33,19.28,10.59z"/>
<path d="M25.42,32.65c-1.13,0.36-1.4,1.91-2.18,2.72c-0.93,0.98-2.04,1.62-3.28,2.14c-2.08,0.86-4.02,1.1-4.38,3.61 c6.28,0,12.57,0,18.85,0c-0.35-2.3-1.33-4-3.07-5.55c-0.96-0.85-2.01-1.6-3.15-2.19C27.42,32.96,26.32,32.4,25.42,32.65 C24.85,32.83,25.8,32.54,25.42,32.65z"/>
<path d="M39.46,40.13c-0.09-2.74-0.88-5.44-2.39-7.73c-1.35-2.06-3.25-3.64-5.15-5.17c-1.06-0.86-2.8-1.98-2.64-3.57 c0.18-1.72,2.63-3.07,3.79-4.04c3.78-3.17,6.28-7.09,6.38-12.17c0.03-1.33,0.18-2.56-0.24-3.83c-0.59-1.78-2.21-3.35-4.15-3.5 c-2.18-0.17-4.41-0.07-6.6-0.08c-3.3-0.01-6.61-0.01-9.92,0.02c-2.51,0.02-5.17-0.3-6.95,1.93c-1.08,1.35-1.14,2.86-1.12,4.47 c0.04,2.12,0.27,4.19,0.97,6.2c0.78,2.23,2.25,4.1,3.94,5.72c1.02,0.98,2.14,1.84,3.22,2.76c0.65,0.55,1.4,1.14,1.83,1.89 c0.64,1.12-0.04,2.18-0.86,2.97c-1.97,1.89-4.23,3.39-5.96,5.54c-1.39,1.71-2.1,3.46-2.52,5.61c-0.35,1.83-0.71,3.81-0.66,5.69 c0.08,3.03,2.56,5.01,5.44,5.08c5.15,0.12,10.3,0.09,15.45,0.04c1.87-0.02,3.94,0.23,5.63-0.75C39.69,45.6,39.52,42.82,39.46,40.13z M24.99,42.82c-3.71,0-7.43,0-11.14,0c0.03-1.3-0.02-2.62,0.15-3.9c0.33-2.47,1.49-4.67,3.22-6.44c2.81-2.87,8.32-5.46,6.51-10.38 c-0.81-2.21-3.15-3.67-4.86-5.12c-1.64-1.38-3.16-2.89-4.01-4.9c-0.8-1.88-0.98-3.79-0.98-5.8c0-0.12-0.05-1.12,0.04-1.12 c0.34,0,0.68,0,1.02,0c4.57,0,9.13,0,13.7,0c2.5,0,5,0,7.51,0c0.25,0-0.47,4.61-0.54,4.95c-0.41,1.88-1.1,3.45-2.41,4.88 c-2.12,2.31-5.63,3.92-6.89,6.91c-1,2.39,0.04,4.72,1.78,6.4c2.36,2.28,5.42,3.99,6.87,7.07c1.13,2.4,1.18,4.87,1.24,7.45 C32.45,42.82,28.72,42.82,24.99,42.82z"/>
</g></svg>