<svg width="48px" height="48px" version="1.1" xmlns="http://www.w3.org/2000/svg" style="fill-rule:evenodd">
<g fill="#202020">
<path d="M27.303,2.104l-6.606,0c-0.485,0 -0.877,0.393 -0.877,0.877l0,12.042c0,0.484 0.392,0.319 0.877,0.319l6.606,0c0.484,0 0.877,0.166 0.877,-0.319l-0,-12.042c-0,-0.484 -0.393,-0.877 -0.877,-0.877Zm-9.482,0l-6.606,0c-0.485,0 -0.877,0.393 -0.877,0.877l0,12.042c0,0.484 0.392,0.319 0.877,0.319l6.606,0c0.484,0 0.877,0.166 0.877,-0.319l-0,-12.042c-0,-0.484 -0.393,-0.877 -0.877,-0.877Zm18.964,0l-6.606,0c-0.485,0 -0.877,0.393 -0.877,0.877l0,12.042c0,0.484 0.392,0.319 0.877,0.319l6.606,0c0.484,0 0.877,0.166 0.877,-0.319l-0,-12.042c-0,-0.484 -0.393,-0.877 -0.877,-0.877Zm-28.447,0l-6.605,0c-0.485,0 -0.877,0.393 -0.877,0.877l0,12.042c0,0.484 0.392,0.319 0.877,0.319l6.605,0c0.485,0 0.878,0.166 0.878,-0.319l-0,-12.042c-0,-0.484 -0.393,-0.877 -0.878,-0.877Zm37.929,0l-6.606,0c-0.485,0 -0.877,0.393 -0.877,0.877l0,12.042c0,0.484 0.392,0.319 0.877,0.319l6.606,0c0.484,0 0.877,0.166 0.877,-0.319l-0,-12.042c-0,-0.484 -0.393,-0.877 -0.877,-0.877Zm-22.268,9.701c-0.367,-0 -0.666,-0.298 -0.666,-0.665c0,-0.369 0.299,-0.667 0.666,-0.667c0.367,-0 0.666,0.298 0.666,0.667c-0,0.366 -0.299,0.665 -0.666,0.665Zm-9.482,-0c-0.367,-0 -0.666,-0.298 -0.666,-0.665c0,-0.369 0.299,-0.667 0.666,-0.667c0.367,-0 0.666,0.298 0.666,0.667c-0,0.366 -0.299,0.665 -0.666,0.665Zm18.964,-0c-0.367,-0 -0.666,-0.298 -0.666,-0.665c0,-0.369 0.299,-0.667 0.666,-0.667c0.368,-0 0.666,0.298 0.666,0.667c-0,0.366 -0.298,0.665 -0.666,0.665Zm-28.446,-0c-0.368,-0 -0.666,-0.298 -0.666,-0.665c0,-0.369 0.298,-0.667 0.666,-0.667c0.367,-0 0.666,0.298 0.666,0.667c-0,0.366 -0.299,0.665 -0.666,0.665Zm37.928,-0c-0.367,-0 -0.666,-0.298 -0.666,-0.665c0,-0.369 0.299,-0.667 0.666,-0.667c0.368,-0 0.666,0.298 0.666,0.667c0,0.366 -0.298,0.665 -0.666,0.665Zm-16.015,-3.529c0,0.262 -0.213,0.475 -0.475,0.475l-4.947,-0c-0.262,-0 -0.474,-0.213 -0.474,-0.475l-0,-1.128c-0,-0.262 0.212,-0.474 0.474,-0.474l4.947,-0c0.262,-0 0.475,0.212 0.475,0.474l0,1.128Zm-9.482,-0c0,0.262 -0.213,0.475 -0.475,0.475l-4.947,-0c-0.262,-0 -0.475,-0.213 -0.475,-0.475l0,-1.128c0,-0.262 0.213,-0.474 0.475,-0.474l4.947,-0c0.262,-0 0.475,0.212 0.475,0.474l0,1.128Zm18.964,-0c0,0.262 -0.213,0.475 -0.475,0.475l-4.947,-0c-0.262,-0 -0.474,-0.213 -0.474,-0.475l-0,-1.128c-0,-0.262 0.212,-0.474 0.474,-0.474l4.947,-0c0.262,-0 0.475,0.212 0.475,0.474l0,1.128Zm-28.446,-0c-0,0.262 -0.213,0.475 -0.475,0.475l-4.947,-0c-0.262,-0 -0.475,-0.213 -0.475,-0.475l0,-1.128c0,-0.262 0.213,-0.474 0.475,-0.474l4.947,-0c0.262,-0 0.475,0.212 0.475,0.474l-0,1.128Zm37.928,-0c0,0.262 -0.213,0.475 -0.475,0.475l-4.947,-0c-0.262,-0 -0.474,-0.213 -0.474,-0.475l-0,-1.128c-0,-0.262 0.212,-0.474 0.474,-0.474l4.947,-0c0.262,-0 0.475,0.212 0.475,0.474l0,1.128Zm-18.964,-3.169c0,0.263 -0.213,0.475 -0.475,0.475l-4.947,0c-0.262,0 -0.474,-0.212 -0.474,-0.475l-0,-1.127c-0,-0.262 0.212,-0.475 0.474,-0.475l4.947,0c0.262,0 0.475,0.213 0.475,0.475l0,1.127Zm-9.482,0c0,0.263 -0.213,0.475 -0.475,0.475l-4.947,0c-0.262,0 -0.475,-0.212 -0.475,-0.475l0,-1.127c0,-0.262 0.213,-0.475 0.475,-0.475l4.947,0c0.262,0 0.475,0.213 0.475,0.475l0,1.127Zm18.964,0c0,0.263 -0.213,0.475 -0.475,0.475l-4.947,0c-0.262,0 -0.474,-0.212 -0.474,-0.475l-0,-1.127c-0,-0.262 0.212,-0.475 0.474,-0.475l4.947,0c0.262,0 0.475,0.213 0.475,0.475l0,1.127Zm-28.446,0c-0,0.263 -0.213,0.475 -0.475,0.475l-4.947,0c-0.262,0 -0.475,-0.212 -0.475,-0.475l0,-1.127c0,-0.262 0.213,-0.475 0.475,-0.475l4.947,0c0.262,0 0.475,0.213 0.475,0.475l-0,1.127Zm37.928,0c0,0.263 -0.213,0.475 -0.475,0.475l-4.947,0c-0.262,0 -0.474,-0.212 -0.474,-0.475l-0,-1.127c-0,-0.262 0.212,-0.475 0.474,-0.475l4.947,0c0.262,0 0.475,0.213 0.475,0.475l0,1.127Z"/>
<path d="M43.964,17.5l0,-2l-2,0l-0,2l-7.482,0l0,-2l-2,0l-0,2l-7.482,0l0,-2l-2,0l-0,2l-7.482,0l0,-2l-2,0l-0,2l-7.482,0l0,-2l-2,0l-0,2l-1.098,0c-1.272,0 -2.303,1.031 -2.303,2.304l0,8.172c0,1.272 1.031,2.303 2.303,2.303l12.952,-0l0,2.221l-12.952,0c-1.272,0 -2.303,1.031 -2.303,2.304l0,8.172c0,1.272 1.031,2.303 2.303,2.303l41.903,0c1.271,0 2.303,-1.031 2.303,-2.303l0,-8.172c0,-1.273 -1.032,-2.304 -2.303,-2.304l-12.951,0l0,-2.221l12.951,0c1.271,0 2.303,-1.031 2.303,-2.303l0,-8.172c0,-1.273 -1.032,-2.304 -2.303,-2.304l-0.877,0Zm-35.705,24.552c0,0.276 -0.224,0.5 -0.5,0.5l-1.194,0c-0.276,0 -0.5,-0.224 -0.5,-0.5l0,-6.324c0,-0.276 0.224,-0.5 0.5,-0.5l1.194,0c0.276,0 0.5,0.224 0.5,0.5l0,6.324Zm6.91,-0c0,0.276 -0.224,0.5 -0.5,0.5l-1.194,0c-0.276,0 -0.5,-0.224 -0.5,-0.5l0,-6.325c0,-0.276 0.223,-0.499 0.499,-0.499l1.195,0c0.276,0 0.5,0.224 0.5,0.5l0,6.324Zm-10.366,0.5l-1.694,0c-0.276,0 -0.5,-0.224 -0.5,-0.5l-0,-6.324c-0,-0.276 0.224,-0.5 0.5,-0.5l1.194,0c0.276,0 0.5,0.224 0.5,0.5l-0,6.824Zm6.912,0l-1.694,0c-0.276,0 -0.5,-0.224 -0.5,-0.5l-0,-6.324c-0,-0.276 0.224,-0.5 0.5,-0.5l1.194,0c0.276,0 0.5,0.224 0.5,0.5l-0,6.824Zm26.598,-2.88c-0.984,0 -0.781,0.202 -0.781,-0.783c0,-0.985 -0.203,-0.782 0.781,-0.782c0.984,0 0.783,-0.202 0.783,0.782c0,0.984 0.201,0.783 -0.783,0.783Zm3.568,0c-0.984,0 -0.783,0.202 -0.783,-0.783c0,-0.985 -0.201,-0.782 0.783,-0.782c0.984,0 0.781,-0.202 0.781,0.782c0,0.984 0.203,0.783 -0.781,0.783Zm-23.991,-9.393l0,2.221l12,0l0,-2.221l-12,0Zm12.983,-2.237c0.254,-0.147 0.357,-0.461 0.24,-0.731l-0.246,-0.568c0.228,-0.232 0.43,-0.494 0.603,-0.778l0.604,0.088c0.29,0.042 0.567,-0.139 0.644,-0.423l0.295,-1.109c0.04,-0.149 0.019,-0.305 -0.058,-0.438c-0.066,-0.113 -0.168,-0.202 -0.29,-0.249l-0.548,-0.217c-0.002,-0.349 -0.047,-0.697 -0.134,-1.038l0.484,-0.361c0.236,-0.176 0.302,-0.5 0.155,-0.754l-0.576,-0.996c-0.147,-0.254 -0.462,-0.357 -0.732,-0.24l-0.553,0.24c-0.259,-0.251 -0.548,-0.469 -0.861,-0.649l0.089,-0.606c0.018,-0.129 -0.007,-0.262 -0.072,-0.374c-0.077,-0.133 -0.202,-0.229 -0.352,-0.27l-1.111,-0.296c-0.284,-0.076 -0.579,0.074 -0.687,0.348l-0.241,0.608c-0.332,0.011 -0.662,0.06 -0.98,0.147l-0.388,-0.523c-0.176,-0.236 -0.5,-0.303 -0.754,-0.156l-0.995,0.576c-0.254,0.148 -0.358,0.462 -0.24,0.733l0.275,0.635c-0.207,0.222 -0.391,0.465 -0.547,0.722l-0.691,-0.101c-0.289,-0.042 -0.566,0.14 -0.644,0.423l-0.295,1.111c-0.041,0.15 -0.02,0.306 0.057,0.439c0.066,0.113 0.169,0.201 0.29,0.25l0.644,0.254c0.005,0.317 0.045,0.631 0.118,0.94l-0.565,0.421c-0.236,0.176 -0.303,0.501 -0.156,0.755l0.577,0.995c0.146,0.254 0.461,0.357 0.731,0.24l0.621,-0.269c0.241,0.236 0.51,0.446 0.801,0.624l-0.096,0.661c-0.019,0.129 0.007,0.262 0.072,0.374c0.077,0.133 0.202,0.229 0.351,0.27l1.112,0.295c0.283,0.076 0.579,-0.074 0.687,-0.348l0.243,-0.61c0.339,-0.004 0.674,-0.048 0.994,-0.128l0.375,0.504c0.176,0.237 0.501,0.303 0.755,0.156l0.995,-0.577Zm-9.256,-1.331c0.096,-0.166 0.052,-0.379 -0.103,-0.494l-0.325,-0.243c0.053,-0.206 0.082,-0.421 0.088,-0.64l0.372,-0.148c0.179,-0.07 0.277,-0.264 0.228,-0.451l-0.195,-0.727c-0.026,-0.098 -0.089,-0.18 -0.177,-0.23c-0.074,-0.043 -0.161,-0.06 -0.246,-0.047l-0.382,0.056c-0.116,-0.197 -0.255,-0.381 -0.416,-0.547l0.157,-0.363c0.076,-0.178 0.008,-0.384 -0.159,-0.48l-0.653,-0.378c-0.167,-0.096 -0.38,-0.052 -0.495,0.103l-0.236,0.318c-0.23,-0.058 -0.465,-0.087 -0.702,-0.087l-0.149,-0.374c-0.031,-0.08 -0.089,-0.147 -0.163,-0.189c-0.087,-0.051 -0.189,-0.065 -0.288,-0.039l-0.729,0.195c-0.186,0.05 -0.305,0.232 -0.277,0.423l0.062,0.425c-0.185,0.115 -0.357,0.25 -0.509,0.404l-0.392,-0.17c-0.177,-0.077 -0.384,-0.009 -0.48,0.158l-0.377,0.653c-0.097,0.167 -0.052,0.38 0.103,0.496l0.364,0.27c-0.045,0.195 -0.07,0.393 -0.074,0.59l-0.426,0.169c-0.179,0.071 -0.277,0.265 -0.228,0.451l0.195,0.729c0.026,0.098 0.089,0.18 0.177,0.231c0.074,0.042 0.161,0.059 0.246,0.047l0.449,-0.066c0.107,0.178 0.233,0.344 0.375,0.496l-0.183,0.424c-0.077,0.178 -0.009,0.384 0.158,0.481l0.654,0.377c0.166,0.096 0.379,0.052 0.495,-0.103l0.264,-0.356c0.215,0.055 0.437,0.086 0.66,0.092l0.162,0.408c0.031,0.079 0.089,0.147 0.163,0.189c0.088,0.051 0.19,0.064 0.289,0.039l0.728,-0.196c0.186,-0.05 0.306,-0.232 0.277,-0.423l-0.061,-0.426c0.191,-0.114 0.367,-0.248 0.523,-0.399l0.379,0.164c0.177,0.077 0.384,0.009 0.48,-0.158l0.377,-0.654Zm-2.295,-0.869c-0.311,0.54 -1.004,0.726 -1.544,0.414c-0.54,-0.312 -0.726,-1.005 -0.414,-1.545c0.311,-0.54 1.005,-0.725 1.545,-0.414c0.54,0.312 0.725,1.005 0.413,1.545Zm9.181,-0.692c-0.823,0.477 -1.879,0.195 -2.355,-0.627c-0.476,-0.822 -0.195,-1.879 0.627,-2.355c0.822,-0.477 1.879,-0.195 2.355,0.627c0.476,0.823 0.195,1.879 -0.627,2.355Z"/>
</g></svg>