<svg width="48px" height="48px" version="1.1" xmlns="http://www.w3.org/2000/svg">
<g fill="#202020">
<path d="M27.303,2.104l-6.606,0c-0.485,0 -0.877,0.393 -0.877,0.877l0,12.042c0,0.484 0.392,0.319 0.877,0.319l6.606,0c0.484,0 0.877,0.166 0.877,-0.319l0,-12.042c0,-0.484 -0.393,-0.877 -0.877,-0.877Zm-9.482,0l-6.606,0c-0.485,0 -0.877,0.393 -0.877,0.877l-0,12.042c-0,0.484 0.392,0.319 0.877,0.319l6.606,0c0.484,0 0.877,0.166 0.877,-0.319l-0,-12.042c-0,-0.484 -0.393,-0.877 -0.877,-0.877Zm18.964,0l-6.606,0c-0.485,0 -0.877,0.393 -0.877,0.877l-0,12.042c-0,0.484 0.392,0.319 0.877,0.319l6.606,0c0.484,0 0.877,0.166 0.877,-0.319l-0,-12.042c-0,-0.484 -0.393,-0.877 -0.877,-0.877Zm-28.447,0l-6.605,0c-0.485,0 -0.877,0.393 -0.877,0.877l-0,12.042c-0,0.484 0.392,0.319 0.877,0.319l6.605,0c0.485,0 0.878,0.166 0.878,-0.319l-0,-12.042c-0,-0.484 -0.393,-0.877 -0.878,-0.877Zm37.929,0l-6.606,0c-0.485,0 -0.877,0.393 -0.877,0.877l-0,12.042c-0,0.484 0.392,0.319 0.877,0.319l6.606,0c0.484,0 0.877,0.166 0.877,-0.319l-0,-12.042c-0,-0.484 -0.393,-0.877 -0.877,-0.877Zm-22.268,9.701c-0.367,0 -0.666,-0.298 -0.666,-0.665c-0,-0.369 0.299,-0.667 0.666,-0.667c0.367,0 0.666,0.298 0.666,0.667c-0,0.366 -0.299,0.665 -0.666,0.665Zm-9.482,0c-0.367,0 -0.666,-0.298 -0.666,-0.665c-0,-0.369 0.299,-0.667 0.666,-0.667c0.367,0 0.666,0.298 0.666,0.667c-0,0.366 -0.299,0.665 -0.666,0.665Zm18.964,0c-0.367,0 -0.666,-0.298 -0.666,-0.665c-0,-0.369 0.299,-0.667 0.666,-0.667c0.368,0 0.666,0.298 0.666,0.667c-0,0.366 -0.298,0.665 -0.666,0.665Zm-28.446,0c-0.368,0 -0.666,-0.298 -0.666,-0.665c-0,-0.369 0.298,-0.667 0.666,-0.667c0.367,0 0.666,0.298 0.666,0.667c-0,0.366 -0.299,0.665 -0.666,0.665Zm37.928,0c-0.367,0 -0.666,-0.298 -0.666,-0.665c-0,-0.369 0.299,-0.667 0.666,-0.667c0.368,0 0.666,0.298 0.666,0.667c-0,0.366 -0.298,0.665 -0.666,0.665Zm-16.015,-3.529c-0,0.262 -0.213,0.475 -0.475,0.475l-4.947,0c-0.262,0 -0.474,-0.213 -0.474,-0.475l-0,-1.128c-0,-0.262 0.212,-0.474 0.474,-0.474l4.947,0c0.262,0 0.475,0.212 0.475,0.474l-0,1.128Zm-9.482,0c-0,0.262 -0.213,0.475 -0.475,0.475l-4.947,0c-0.262,0 -0.475,-0.213 -0.475,-0.475l-0,-1.128c-0,-0.262 0.213,-0.474 0.475,-0.474l4.947,0c0.262,0 0.475,0.212 0.475,0.474l-0,1.128Zm18.964,0c-0,0.262 -0.213,0.475 -0.475,0.475l-4.947,0c-0.262,0 -0.474,-0.213 -0.474,-0.475l-0,-1.128c-0,-0.262 0.212,-0.474 0.474,-0.474l4.947,0c0.262,0 0.475,0.212 0.475,0.474l-0,1.128Zm-28.446,0c-0,0.262 -0.213,0.475 -0.475,0.475l-4.947,0c-0.262,0 -0.475,-0.213 -0.475,-0.475l-0,-1.128c-0,-0.262 0.213,-0.474 0.475,-0.474l4.947,0c0.262,0 0.475,0.212 0.475,0.474l-0,1.128Zm37.928,0c-0,0.262 -0.213,0.475 -0.475,0.475l-4.947,0c-0.262,0 -0.474,-0.213 -0.474,-0.475l-0,-1.128c-0,-0.262 0.212,-0.474 0.474,-0.474l4.947,0c0.262,0 0.475,0.212 0.475,0.474l-0,1.128Zm-18.964,-3.169c-0,0.263 -0.213,0.475 -0.475,0.475l-4.947,0c-0.262,0 -0.474,-0.212 -0.474,-0.475l-0,-1.127c-0,-0.262 0.212,-0.475 0.474,-0.475l4.947,0c0.262,0 0.475,0.213 0.475,0.475l-0,1.127Zm-9.482,0c-0,0.263 -0.213,0.475 -0.475,0.475l-4.947,0c-0.262,0 -0.475,-0.212 -0.475,-0.475l-0,-1.127c-0,-0.262 0.213,-0.475 0.475,-0.475l4.947,0c0.262,0 0.475,0.213 0.475,0.475l-0,1.127Zm18.964,0c-0,0.263 -0.213,0.475 -0.475,0.475l-4.947,0c-0.262,0 -0.474,-0.212 -0.474,-0.475l-0,-1.127c-0,-0.262 0.212,-0.475 0.474,-0.475l4.947,0c0.262,0 0.475,0.213 0.475,0.475l-0,1.127Zm-28.446,0c-0,0.263 -0.213,0.475 -0.475,0.475l-4.947,0c-0.262,0 -0.475,-0.212 -0.475,-0.475l-0,-1.127c-0,-0.262 0.213,-0.475 0.475,-0.475l4.947,0c0.262,0 0.475,0.213 0.475,0.475l-0,1.127Zm37.928,0c-0,0.263 -0.213,0.475 -0.475,0.475l-4.947,0c-0.262,0 -0.474,-0.212 -0.474,-0.475l-0,-1.127c-0,-0.262 0.212,-0.475 0.474,-0.475l4.947,0c0.262,0 0.475,0.213 0.475,0.475l-0,1.127Z" style="fill:#202020;fill-rule:nonzero;"/>
<path d="M43.964,17.5l0,-2l-2,0l0,2l-7.482,0l0,-2l-2,0l0,2l-7.482,0l0,-2l-2,0l0,2l-7.482,0l0,-2l-2,0l0,2l-7.482,0l0,-2l-2,0l0,2l-1.098,0c-1.272,0 -2.303,1.031 -2.303,2.304l0,8.172c0,1.272 1.031,2.303 2.303,2.303l12.952,-0l0,2.221l-12.952,0c-1.272,0 -2.303,1.031 -2.303,2.304l0,8.172c0,1.272 1.031,2.303 2.303,2.303l41.903,0c1.271,0 2.303,-1.031 2.303,-2.303l0,-8.172c0,-1.273 -1.032,-2.304 -2.303,-2.304l-12.951,0l0,-2.221l12.951,0c1.271,0 2.303,-1.031 2.303,-2.303l0,-8.172c0,-1.273 -1.032,-2.304 -2.303,-2.304l-0.877,0Zm-35.705,24.552c0,0.276 -0.224,0.5 -0.5,0.5l-1.194,0c-0.276,0 -0.5,-0.224 -0.5,-0.5l0,-6.324c0,-0.276 0.224,-0.5 0.5,-0.5l1.194,0c0.276,0 0.5,0.224 0.5,0.5l0,6.324Zm6.91,0c0,0.276 -0.224,0.5 -0.5,0.5l-1.194,0c-0.276,0 -0.5,-0.224 -0.5,-0.5l0,-6.325c0,-0.276 0.223,-0.499 0.499,-0.499l1.195,0c0.276,0 0.5,0.224 0.5,0.5l0,6.324Zm-10.366,0.5l-1.694,0c-0.276,0 -0.5,-0.224 -0.5,-0.5l-0,-6.324c-0,-0.276 0.224,-0.5 0.5,-0.5l1.194,0c0.276,0 0.5,0.224 0.5,0.5l-0,6.824Zm6.912,0l-1.694,0c-0.276,0 -0.5,-0.224 -0.5,-0.5l-0,-6.324c-0,-0.276 0.224,-0.5 0.5,-0.5l1.194,0c0.276,0 0.5,0.224 0.5,0.5l-0,6.824Zm26.598,-2.88c-0.984,0 -0.781,0.202 -0.781,-0.783c0,-0.985 -0.203,-0.782 0.781,-0.782c0.984,0 0.783,-0.202 0.783,0.782c0,0.984 0.201,0.783 -0.783,0.783Zm3.568,0c-0.984,0 -0.783,0.202 -0.783,-0.783c0,-0.985 -0.201,-0.782 0.783,-0.782c0.984,0 0.781,-0.202 0.781,0.782c0,0.984 0.203,0.783 -0.781,0.783Zm-23.991,-9.393l12,0l0,2.221l-12,0l0,-2.221Zm12.983,-2.237l-0.995,0.577c-0.254,0.147 -0.579,0.081 -0.755,-0.156l-0.375,-0.504c-0.32,0.08 -0.655,0.124 -0.994,0.128l-0.243,0.61c-0.108,0.274 -0.404,0.424 -0.687,0.348l-1.112,-0.295c-0.149,-0.041 -0.274,-0.137 -0.351,-0.27c-0.065,-0.112 -0.091,-0.245 -0.072,-0.374l0.096,-0.661c-0.291,-0.178 -0.56,-0.388 -0.801,-0.624l-0.621,0.269c-0.27,0.117 -0.585,0.014 -0.731,-0.24l-0.577,-0.995c-0.147,-0.254 -0.08,-0.579 0.156,-0.755l0.565,-0.421c-0.073,-0.309 -0.113,-0.623 -0.118,-0.94l-0.644,-0.254c-0.121,-0.049 -0.224,-0.137 -0.29,-0.25c-0.077,-0.133 -0.098,-0.289 -0.057,-0.439l0.295,-1.111c0.078,-0.283 0.355,-0.465 0.644,-0.423l0.691,0.101c0.156,-0.257 0.34,-0.5 0.547,-0.722l-0.275,-0.635c-0.118,-0.271 -0.014,-0.585 0.24,-0.733l0.995,-0.576c0.254,-0.147 0.578,-0.08 0.754,0.156l0.388,0.523c0.318,-0.087 0.648,-0.136 0.98,-0.147l0.241,-0.608c0.108,-0.274 0.403,-0.424 0.687,-0.348l1.111,0.296c0.15,0.041 0.275,0.137 0.352,0.27c0.065,0.112 0.09,0.245 0.072,0.374l-0.089,0.606c0.313,0.18 0.602,0.398 0.861,0.649l0.553,-0.24c0.27,-0.117 0.585,-0.014 0.732,0.24l0.576,0.996c0.147,0.254 0.081,0.578 -0.155,0.754l-0.484,0.361c0.087,0.341 0.132,0.689 0.134,1.038l0.548,0.217c0.122,0.047 0.224,0.136 0.29,0.249c0.077,0.133 0.098,0.289 0.058,0.438l-0.295,1.109c-0.077,0.284 -0.354,0.465 -0.644,0.423l-0.604,-0.088c-0.173,0.284 -0.375,0.546 -0.603,0.778l0.246,0.568c0.056,0.13 0.062,0.27 0.024,0.397c-0.041,0.137 -0.132,0.258 -0.264,0.334Zm-9.256,-1.331l-0.377,0.654c-0.096,0.167 -0.303,0.235 -0.48,0.158l-0.379,-0.164c-0.156,0.151 -0.332,0.285 -0.523,0.399l0.061,0.426c0.029,0.191 -0.091,0.373 -0.277,0.423l-0.728,0.196c-0.099,0.025 -0.201,0.012 -0.289,-0.039c-0.074,-0.042 -0.132,-0.11 -0.163,-0.189l-0.162,-0.408c-0.223,-0.006 -0.445,-0.037 -0.66,-0.092l-0.264,0.356c-0.116,0.155 -0.329,0.199 -0.495,0.103l-0.654,-0.377c-0.167,-0.097 -0.235,-0.303 -0.158,-0.481l0.183,-0.424c-0.142,-0.152 -0.268,-0.318 -0.375,-0.496l-0.449,0.066c-0.085,0.012 -0.172,-0.005 -0.246,-0.047c-0.088,-0.051 -0.151,-0.133 -0.177,-0.231l-0.195,-0.729c-0.049,-0.186 0.049,-0.38 0.228,-0.451l0.426,-0.169c0.004,-0.197 0.029,-0.395 0.074,-0.59l-0.364,-0.27c-0.155,-0.116 -0.2,-0.329 -0.103,-0.496l0.377,-0.653c0.096,-0.167 0.303,-0.235 0.48,-0.158l0.392,0.17c0.152,-0.154 0.324,-0.289 0.509,-0.404l-0.062,-0.425c-0.028,-0.191 0.091,-0.373 0.277,-0.423l0.729,-0.195c0.099,-0.026 0.201,-0.012 0.288,0.039c0.074,0.042 0.132,0.109 0.163,0.189l0.149,0.374c0.237,0 0.472,0.029 0.702,0.087l0.236,-0.318c0.115,-0.155 0.328,-0.199 0.495,-0.103l0.653,0.378c0.167,0.096 0.235,0.302 0.159,0.48l-0.157,0.363c0.161,0.166 0.3,0.35 0.416,0.547l0.382,-0.056c0.085,-0.013 0.172,0.004 0.246,0.047c0.088,0.05 0.151,0.132 0.177,0.23l0.195,0.727c0.049,0.187 -0.049,0.381 -0.228,0.451l-0.372,0.148c-0.006,0.219 -0.035,0.434 -0.088,0.64l0.325,0.243c0.155,0.115 0.199,0.328 0.103,0.494Zm-2.295,-0.869c-0.311,0.54 -1.004,0.726 -1.544,0.414c-0.54,-0.312 -0.726,-1.005 -0.414,-1.545c0.311,-0.54 1.005,-0.725 1.545,-0.414c0.54,0.312 0.725,1.005 0.413,1.545Zm9.181,-0.692c-0.823,0.477 -1.879,0.195 -2.355,-0.627c-0.476,-0.822 -0.195,-1.879 0.627,-2.355c0.822,-0.477 1.879,-0.195 2.355,0.627c0.476,0.823 0.195,1.879 -0.627,2.355Z"/>
</g></svg>