<svg width="48px" height="48px" version="1.1" xmlns="http://www.w3.org/2000/svg">
<path fill="#202020" d="M39.005,5.098C41.614,5.098 43.73,7.213 43.731,9.824L43.731,42.901C43.731,45.512 41.614,47.626 39.005,47.626L9.928,47.626C7.318,47.626 5.203,45.511 5.203,42.901L5.203,9.824C5.203,7.213 7.318,5.098 9.928,5.098L17.816,5.098C18.785,2.357 21.383,0.373 24.467,0.373C27.548,0.373 30.149,2.358 31.115,5.098L39.005,5.098ZM24.467,5.098C23.167,5.098 22.104,6.149 22.105,7.461C22.105,8.772 23.167,9.824 24.467,9.824C25.766,9.824 26.829,8.772 26.829,7.461C26.829,6.149 25.766,5.098 24.467,5.098ZM24,24C21.792,24 20,25.792 20,28C20,30.208 21.792,32 24,32C26.208,32 28,30.208 28,28C28,25.792 26.208,24 24,24ZM14,24C11.792,24 10,25.792 10,28C10,30.208 11.792,32 14,32C16.208,32 18,30.208 18,28C18,25.792 16.208,24 14,24ZM34,24C31.792,24 30,25.792 30,28C30,30.208 31.792,32 34,32C36.208,32 38,30.208 38,28C38,25.792 36.208,24 34,24Z"/>
</svg>