<svg width="48px" height="48px" viewBox="0 0 1000 1000" version="1.1" xmlns="http://www.w3.org/2000/svg" >
<path fill="#202020" d="M189.7,251.462c-115.74,40.22 -187.97,149.39 -178.94,267.58c13.95,168.27 176.48,279.08 339,231.47c69.77,-19.7 140.36,-93.57 201.11,-209.31c52.53,-100.14 106.71,-160.06 151.03,-168.27c48.43,-9.03 87.01,2.46 120.66,36.12c53.35,53.35 53.35,128.87 -0,182.23c-50.89,51.71 -120.66,53.35 -178.12,4.1l-32.01,-27.09l-34.48,55.82l-33.65,56.64l33.65,28.73c91.11,77.98 247.06,67.31 338.18,-24.63c54.17,-53.35 73.87,-102.6 73.87,-184.68c-0,-82.08 -19.7,-131.33 -73.87,-184.69c-53.35,-54.17 -102.6,-73.05 -184.69,-73.87c-123.12,-0 -183.04,45.97 -275.8,211.77c-62.38,112.45 -109.99,165.81 -155.13,174.84c-47.61,8.21 -86.19,-3.29 -119.84,-36.94c-53.35,-53.35 -53.35,-128.88 -0,-182.23c51.71,-51.71 121.48,-53.35 178.12,-4.1l32.01,27.91l31.19,-53.35c16.42,-28.73 30.37,-57.46 30.37,-62.38c-0,-13.96 -73.05,-60.74 -110.81,-70.59c-45.97,-12.32 -108.35,-10.68 -151.85,4.92Z"/>
</svg>