<svg width="48px" height="48px" version="1.1" xmlns="http://www.w3.org/2000/svg">
<path fill="#202020" d="M9.098,12.07c-5.551,1.931 -9.015,7.171 -8.582,12.844c0.669,8.077 8.464,13.396 16.259,11.111c3.346,-0.946 6.731,-4.492 9.645,-10.047c2.519,-4.807 5.117,-7.683 7.243,-8.077c2.323,-0.434 4.173,0.118 5.787,1.733c2.558,2.561 2.558,6.186 -0,8.748c-2.441,2.482 -5.787,2.56 -8.543,0.196l-1.535,-1.3l-1.654,2.679l-1.613,2.719l1.613,1.379c4.37,3.743 11.849,3.231 16.219,-1.182c2.598,-2.561 3.543,-4.925 3.543,-8.865c0,-3.94 -0.945,-6.304 -3.543,-8.865c-2.558,-2.6 -4.92,-3.506 -8.857,-3.546c-5.905,0 -8.779,2.207 -13.227,10.165c-2.992,5.398 -5.275,7.959 -7.44,8.393c-2.284,0.394 -4.134,-0.158 -5.748,-1.773c-2.558,-2.561 -2.558,-6.187 0,-8.748c2.48,-2.482 5.826,-2.56 8.543,-0.196l1.535,1.339l1.496,-2.56c0.787,-1.379 1.456,-2.759 1.456,-2.995c0,-0.67 -3.503,-2.915 -5.314,-3.388c-2.205,-0.591 -5.197,-0.513 -7.283,0.236Z"/>
</svg>