<svg width="48px" height="48px" viewBox="0 0 48 48" version="1.1" xmlns="http://www.w3.org/2000/svg">
<path fill="#202020" d="M24,2.012c12.135,0 21.988,9.853 21.988,21.988c-0,12.135 -9.853,21.988 -21.988,21.988c-12.135,-0 -21.988,-9.853 -21.988,-21.988c0,-12.135 9.853,-21.988 21.988,-21.988Zm3.505,19.883c-0,-0.968 -0.785,-1.753 -1.753,-1.753l-3.504,0c-0.968,0 -1.753,0.785 -1.753,1.753l0,14.055c0,0.967 0.785,1.752 1.753,1.752l3.504,0c0.968,0 1.753,-0.785 1.753,-1.752l-0,-14.055Zm-3.505,-10.796c-1.934,-0 -3.505,1.57 -3.505,3.505c0,1.934 1.571,3.505 3.505,3.505c1.934,-0 3.505,-1.571 3.505,-3.505c-0,-1.935 -1.571,-3.505 -3.505,-3.505Z"/>
</svg>