<svg width="48px" height="48px" version="1.1" xmlns="http://www.w3.org/2000/svg">
<g fill="#202020">
<path d="M14.535,20.501l-2.851,-2.85l-7.185,7.185c-2.287,2.287 -3.572,5.389 -3.572,8.623c-0.001,2.546 0.796,5.01 2.252,7.06l-2.679,2.677l4.303,4.304l2.678,-2.678c2.049,1.454 4.513,2.251 7.06,2.25c3.234,-0 6.335,-1.284 8.622,-3.571c3.698,-3.699 7.185,-7.186 7.185,-7.186l-2.849,-2.85l6.929,-6.929c0.398,-0.399 0.398,-1.048 -0,-1.447l-1.447,-1.445c-0.4,-0.4 -1.048,-0.4 -1.446,-0l-6.929,6.928l-7.179,-7.178l6.929,-6.929c0.4,-0.399 0.4,-1.046 0,-1.446l-1.446,-1.447c-0.399,-0.398 -1.047,-0.399 -1.447,0l-6.928,6.929Z"/>
<path d="M19.268,13.301l-1.616,-1.616l7.185,-7.186c2.287,-2.287 5.388,-3.571 8.621,-3.571c2.548,-0.001 5.012,0.796 7.061,2.251l2.678,-2.679l4.303,4.304l-2.678,2.677c1.455,2.05 2.252,4.514 2.251,7.06c-0,3.234 -1.285,6.336 -3.571,8.623l-7.186,7.185l-1.617,-1.617l2.827,-2.826c0.4,-0.4 0.399,-1.048 0,-1.447l-3.914,-3.914c-0.4,-0.399 -1.047,-0.399 -1.447,0l-2.826,2.828l-4.711,-4.711l2.827,-2.827c0.399,-0.399 0.399,-1.047 -0,-1.447l-3.914,-3.913c-0.398,-0.399 -1.047,-0.4 -1.446,-0l-2.827,2.826Z"/>
</g></svg>