<svg width="48px" height="48px" version="1.1" xmlns="http://www.w3.org/2000/svg">
<g fill="#202020">
<path d="M15.311,18.547l-3.11,-3.11l-7.839,7.839c-2.494,2.495 -3.896,5.878 -3.896,9.406c-0.001,2.778 0.868,5.466 2.456,7.702l-2.922,2.921l4.694,4.695l2.922,-2.922c2.235,1.587 4.923,2.456 7.702,2.455c3.527,-0 6.91,-1.401 9.405,-3.896c4.035,-4.035 7.839,-7.839 7.839,-7.839l-3.109,-3.109l7.559,-7.559c0.435,-0.435 0.435,-1.143 0,-1.578l-1.578,-1.577c-0.436,-0.436 -1.143,-0.436 -1.578,-0l-7.559,7.558l-7.831,-7.831l7.559,-7.558c0.436,-0.436 0.436,-1.142 0,-1.578l-1.578,-1.578c-0.435,-0.435 -1.142,-0.436 -1.578,-0l-7.558,7.559Z"/>
<path d="M17.201,13.965l-1.763,-1.763l7.839,-7.839c2.495,-2.495 5.878,-3.896 9.405,-3.896c2.779,-0.001 5.467,0.868 7.702,2.455l2.922,-2.922l4.694,4.695l-2.922,2.921c1.588,2.236 2.457,4.924 2.456,7.702c-0,3.528 -1.402,6.911 -3.896,9.406l-7.839,7.839l-1.764,-1.764l7.448,-7.447c0.436,-0.436 0.435,-1.143 -0,-1.578l-4.27,-4.27c-0.436,-0.436 -1.142,-0.436 -1.578,-0l-7.447,7.448l-5.139,-5.139l7.447,-7.448c0.436,-0.435 0.436,-1.142 0,-1.578l-4.269,-4.269c-0.435,-0.435 -1.143,-0.436 -1.578,-0l-7.448,7.447Z"/>
</g></svg>