<svg version="1.1" width="48px" height="48px" viewBox="0 0 48 48" xmlns="http://www.w3.org/2000/svg" >
<g fill="#202020">
<path d="M23.167,6.328c-0,-2.058 -1.671,-3.728 -3.729,-3.728l-7.456,-0c-2.058,-0 -3.728,1.67 -3.728,3.728l-0,33.491c-0,2.058 1.67,3.728 3.728,3.728l7.456,0c2.058,0 3.729,-1.67 3.729,-3.728l-0,-33.491Z"/>
<path d="M6.498,5l-0.898,-0c-1.987,-0 -3.6,1.613 -3.6,3.6l-0,28.8c-0,1.987 1.613,3.6 3.6,3.6l0.845,0c-0.124,-0.371 -0.191,-0.768 -0.191,-1.181l-0,-33.491c-0,-0.468 0.086,-0.915 0.244,-1.328Zm18.425,-0c0.157,0.413 0.244,0.86 0.244,1.328l-0,33.491c-0,0.413 -0.068,0.81 -0.192,1.181l17.425,0c1.987,0 3.6,-1.613 3.6,-3.6l-0,-28.8c-0,-1.987 -1.613,-3.6 -3.6,-3.6l-17.477,0Zm10.077,28.238c1.12,-0 2.029,0.909 2.029,2.029c0,1.12 -0.909,2.029 -2.029,2.029c-1.12,0 -2.029,-0.909 -2.029,-2.029c-0,-1.12 0.909,-2.029 2.029,-2.029Zm5,-0c1.12,-0 2.029,0.909 2.029,2.029c0,1.12 -0.909,2.029 -2.029,2.029c-1.12,0 -2.029,-0.909 -2.029,-2.029c-0,-1.12 0.909,-2.029 2.029,-2.029Zm-10,-0c1.12,-0 2.029,0.909 2.029,2.029c0,1.12 -0.909,2.029 -2.029,2.029c-1.12,0 -2.029,-0.909 -2.029,-2.029c-0,-1.12 0.909,-2.029 2.029,-2.029Zm5,-6c1.12,-0 2.029,0.909 2.029,2.029c0,1.12 -0.909,2.029 -2.029,2.029c-1.12,0 -2.029,-0.909 -2.029,-2.029c-0,-1.12 0.909,-2.029 2.029,-2.029Zm5,-0c1.12,-0 2.029,0.909 2.029,2.029c0,1.12 -0.909,2.029 -2.029,2.029c-1.12,0 -2.029,-0.909 -2.029,-2.029c-0,-1.12 0.909,-2.029 2.029,-2.029Zm-10,-0c1.12,-0 2.029,0.909 2.029,2.029c0,1.12 -0.909,2.029 -2.029,2.029c-1.12,0 -2.029,-0.909 -2.029,-2.029c-0,-1.12 0.909,-2.029 2.029,-2.029Zm5,-6c1.12,-0 2.029,0.909 2.029,2.029c0,1.12 -0.909,2.029 -2.029,2.029c-1.12,0 -2.029,-0.909 -2.029,-2.029c-0,-1.12 0.909,-2.029 2.029,-2.029Zm5,-0c1.12,-0 2.029,0.909 2.029,2.029c0,1.12 -0.909,2.029 -2.029,2.029c-1.12,0 -2.029,-0.909 -2.029,-2.029c-0,-1.12 0.909,-2.029 2.029,-2.029Zm-10,-0c1.12,-0 2.029,0.909 2.029,2.029c0,1.12 -0.909,2.029 -2.029,2.029c-1.12,0 -2.029,-0.909 -2.029,-2.029c-0,-1.12 0.909,-2.029 2.029,-2.029Zm12,-11.788c-0,-0.248 -0.202,-0.45 -0.45,-0.45l-13.1,0c-0.248,0 -0.45,0.202 -0.45,0.45l-0,8.1c-0,0.248 0.202,0.45 0.45,0.45l13.1,0c0.248,0 0.45,-0.202 0.45,-0.45l-0,-8.1Z"/>
</g></svg>