<svg width="48px" height="48px" version="1.1" xmlns="http://www.w3.org/2000/svg"><path fill="#202020" d="M48,24c0,13.246 -10.754,24 -24,24c-13.246,0 -24,-10.754 -24,-24c0,-13.246 10.754,-24 24,-24c4.616,0 8.93,1.306 12.591,3.569c0.014,0.008 0.027,0.017 0.041,0.025c0.769,0.464 1.758,0.346 2.397,-0.293c0.459,-0.446 0.875,-0.862 0.875,-0.862c0.585,-0.585 0.536,-0.585 1.121,0l0.864,0.863l0.672,-0.672l-1.069,-1.07c-0.195,-0.195 -0.195,-0.512 0,-0.707l0.708,-0.707c0.195,-0.195 0.512,-0.195 0.707,0.001l4.947,4.952c0.195,0.195 0.195,0.512 -0.001,0.707l-0.707,0.707c-0.195,0.195 -0.512,0.195 -0.707,0l-1.071,-1.072l-0.67,0.67l0.863,0.864c0.585,0.585 0.585,0.536 0,1.121l-0.868,0.868c-0.603,0.603 -0.744,1.518 -0.372,2.268c2.33,3.699 3.679,8.077 3.679,12.768Zm-42.766,-2.913c-0.147,0.95 -0.223,1.923 -0.223,2.913c0,0.99 0.076,1.963 0.223,2.913l0.255,0.255c0.135,0.135 0.355,0.135 0.49,-0l2.922,-2.923c0.136,-0.135 0.136,-0.355 0,-0.49l-2.922,-2.923c-0.135,-0.135 -0.355,-0.135 -0.49,0l-0.255,0.255Zm2.106,12.026l1.561,-1.561c0.136,-0.136 0.136,-0.355 0,-0.491l-2.922,-2.922c-0.135,-0.135 -0.355,-0.135 -0.49,0l-0.02,0.02c0.393,1.755 1.029,3.419 1.871,4.954Zm3.116,4.19l2.099,-2.098c0.135,-0.136 0.135,-0.355 0,-0.49l-2.923,-2.923c-0.135,-0.135 -0.355,-0.135 -0.49,-0l-1.629,1.629c0.813,1.419 1.804,2.724 2.943,3.882Zm4.123,3.184l1.629,-1.629c0.135,-0.135 0.135,-0.355 0,-0.49l-2.923,-2.923c-0.135,-0.135 -0.354,-0.135 -0.49,0l-2.098,2.099c1.158,1.139 2.463,2.13 3.882,2.943Zm5.262,2.044l0.02,-0.02c0.135,-0.135 0.135,-0.355 0,-0.49l-2.922,-2.922c-0.136,-0.136 -0.355,-0.136 -0.491,0l-1.561,1.561c1.535,0.842 3.199,1.478 4.954,1.871Zm7.072,0.235l0.255,-0.255c0.135,-0.135 0.135,-0.355 0,-0.49l-2.923,-2.922c-0.135,-0.136 -0.355,-0.136 -0.49,0l-2.923,2.922c-0.135,0.135 -0.135,0.355 0,0.49l0.255,0.255c0.95,0.147 1.923,0.223 2.913,0.223c0.99,-0 1.963,-0.076 2.913,-0.223Zm6.2,-2.106l-1.561,-1.561c-0.136,-0.136 -0.355,-0.136 -0.491,0l-2.922,2.922c-0.135,0.135 -0.135,0.355 0,0.49l0.02,0.02c1.755,-0.393 3.419,-1.029 4.954,-1.871Zm4.19,-3.116l-2.098,-2.099c-0.136,-0.135 -0.355,-0.135 -0.49,0l-2.923,2.923c-0.135,0.135 -0.135,0.355 0,0.49l1.629,1.629c1.419,-0.813 2.724,-1.804 3.882,-2.943Zm3.184,-4.123l-1.629,-1.629c-0.135,-0.135 -0.355,-0.135 -0.49,0l-2.923,2.923c-0.135,0.135 -0.135,0.354 0,0.49l2.099,2.098c1.139,-1.158 2.13,-2.463 2.943,-3.882Zm2.044,-5.262l-0.02,-0.02c-0.135,-0.135 -0.355,-0.135 -0.49,0l-2.922,2.922c-0.136,0.136 -0.136,0.355 0,0.491l1.561,1.561c0.842,-1.535 1.478,-3.199 1.871,-4.954Zm0.235,-7.072l-0.255,-0.255c-0.135,-0.135 -0.355,-0.135 -0.49,0l-2.922,2.923c-0.136,0.135 -0.136,0.355 0,0.49l2.922,2.923c0.135,0.135 0.355,0.135 0.49,0l0.255,-0.255c0.147,-0.95 0.223,-1.923 0.223,-2.913c-0,-0.99 -0.076,-1.963 -0.223,-2.913Zm-2.106,-6.2l-1.561,1.561c-0.136,0.136 -0.136,0.355 0,0.491l2.922,2.922c0.135,0.135 0.355,0.135 0.49,0l0.02,-0.02c-0.393,-1.755 -1.029,-3.419 -1.871,-4.954Zm-3.116,-4.19l-2.099,2.098c-0.135,0.136 -0.135,0.355 0,0.49l2.923,2.923c0.135,0.135 0.355,0.135 0.49,0l1.629,-1.629c-0.813,-1.419 -1.804,-2.724 -2.943,-3.882Zm-4.123,-3.184l-1.629,1.629c-0.135,0.135 -0.135,0.355 0,0.49l2.923,2.923c0.135,0.135 0.354,0.135 0.49,0l2.098,-2.099c-1.158,-1.139 -2.463,-2.13 -3.882,-2.943Zm-5.262,-2.044l-0.02,0.02c-0.135,0.135 -0.135,0.355 0,0.49l2.922,2.922c0.136,0.136 0.355,0.136 0.491,0l1.561,-1.561c-1.535,-0.842 -3.199,-1.478 -4.954,-1.871Zm-7.072,-0.235l-0.255,0.255c-0.135,0.135 -0.135,0.355 0,0.49l2.923,2.922c0.135,0.136 0.355,0.136 0.49,0l2.923,-2.922c0.135,-0.135 0.135,-0.355 0,-0.49l-0.255,-0.255c-0.95,-0.147 -1.923,-0.223 -2.913,-0.223c-0.99,0 -1.963,0.076 -2.913,0.223Zm-6.2,2.106l1.561,1.561c0.136,0.136 0.355,0.136 0.491,0l2.922,-2.922c0.135,-0.135 0.135,-0.355 0,-0.49l-0.02,-0.02c-1.755,0.393 -3.419,1.029 -4.954,1.871Zm-4.19,3.116l2.098,2.099c0.136,0.135 0.355,0.135 0.49,0l2.923,-2.923c0.135,-0.135 0.135,-0.355 0,-0.49l-1.629,-1.629c-1.419,0.813 -2.724,1.804 -3.882,2.943Zm-3.184,4.123l1.629,1.629c0.135,0.135 0.355,0.135 0.49,0l2.923,-2.923c0.135,-0.135 0.135,-0.354 0,-0.49l-2.099,-2.098c-1.139,1.158 -2.13,2.463 -2.943,3.882Zm-2.044,5.262l0.02,0.02c0.135,0.135 0.355,0.135 0.49,0l2.922,-2.922c0.136,-0.136 0.136,-0.355 0,-0.491l-1.561,-1.561c-0.842,1.535 -1.478,3.199 -1.871,4.954Zm32.658,-2.902c0.136,-0.136 0.136,-0.355 -0,-0.491l-2.922,-2.922c-0.136,-0.135 -0.355,-0.135 -0.49,0l-2.923,2.922c-0.135,0.136 -0.135,0.355 -0,0.491l2.923,2.922c0.135,0.135 0.354,0.135 0.49,0l2.922,-2.922Zm3.654,3.653c0.135,-0.136 0.135,-0.355 -0,-0.49l-2.923,-2.923c-0.135,-0.135 -0.355,-0.135 -0.49,0l-2.923,2.923c-0.135,0.135 -0.135,0.354 -0,0.49l2.923,2.922c0.135,0.136 0.355,0.136 0.49,0l2.923,-2.922Zm-32.149,-3.413c-0.135,-0.135 -0.355,-0.135 -0.49,0l-2.923,2.923c-0.135,0.135 -0.135,0.354 -0,0.49l2.923,2.922c0.135,0.136 0.355,0.136 0.49,0l2.923,-2.922c0.135,-0.136 0.135,-0.355 -0,-0.49l-2.923,-2.923Zm10.96,-3.653c-0.136,-0.135 -0.355,-0.135 -0.49,0l-2.923,2.922c-0.135,0.136 -0.135,0.355 -0,0.491l2.923,2.922c0.135,0.135 0.354,0.135 0.49,0l2.922,-2.922c0.136,-0.136 0.136,-0.355 -0,-0.491l-2.922,-2.922Zm6.816,28.255c0.136,0.135 0.355,0.135 0.49,0l2.923,-2.923c0.135,-0.135 0.135,-0.355 -0,-0.49l-2.923,-2.923c-0.135,-0.135 -0.354,-0.135 -0.49,0l-2.922,2.923c-0.136,0.135 -0.136,0.355 -0,0.49l2.922,2.923Zm-10.229,-3.413c-0.135,0.135 -0.135,0.355 -0,0.49l2.923,2.923c0.135,0.135 0.354,0.135 0.49,0l2.922,-2.923c0.136,-0.135 0.136,-0.355 -0,-0.49l-2.922,-2.923c-0.136,-0.135 -0.355,-0.135 -0.49,0l-2.923,2.923Zm-0.24,-28.495c-0.136,-0.136 -0.355,-0.136 -0.491,0l-2.922,2.922c-0.135,0.136 -0.135,0.355 -0,0.49l2.922,2.923c0.136,0.135 0.355,0.135 0.491,0l2.922,-2.923c0.135,-0.135 0.135,-0.354 -0,-0.49l-2.922,-2.922Zm17.535,3.412c0.135,-0.135 0.135,-0.354 0,-0.49l-2.922,-2.922c-0.136,-0.136 -0.355,-0.136 -0.491,0l-2.922,2.922c-0.135,0.136 -0.135,0.355 0,0.49l2.922,2.923c0.136,0.135 0.355,0.135 0.491,0l2.922,-2.923Zm-3.413,24.842c0.136,0.136 0.355,0.136 0.491,0l2.922,-2.922c0.135,-0.136 0.135,-0.355 -0,-0.49l-2.922,-2.923c-0.136,-0.135 -0.355,-0.135 -0.491,0l-2.922,2.923c-0.135,0.135 -0.135,0.354 -0,0.49l2.922,2.922Zm-5.401,-16.028l1.508,-1.507c0.135,-0.136 0.135,-0.355 -0,-0.49l-2.923,-2.923c-0.135,-0.135 -0.355,-0.135 -0.49,0l-2.923,2.923c-0.135,0.135 -0.135,0.354 -0,0.49l1.508,1.507c0.444,-0.388 1.024,-0.624 1.66,-0.624c0.636,0 1.216,0.236 1.66,0.624Zm5.161,-12.467c0.135,-0.135 0.135,-0.355 -0,-0.49l-2.923,-2.923c-0.135,-0.135 -0.354,-0.135 -0.49,0l-2.922,2.923c-0.136,0.135 -0.136,0.355 -0,0.49l2.922,2.923c0.136,0.135 0.355,0.135 0.49,0l2.923,-2.923Zm-8.722,12.708l-1.507,-1.508c-0.136,-0.135 -0.355,-0.135 -0.49,0l-2.923,2.923c-0.135,0.135 -0.135,0.355 -0,0.49l2.923,2.923c0.135,0.135 0.354,0.135 0.49,0l1.507,-1.508c-0.388,-0.444 -0.624,-1.024 -0.624,-1.66c-0,-0.636 0.236,-1.216 0.624,-1.66Zm3.802,3.32l1.507,1.508c0.136,0.135 0.355,0.135 0.49,0l2.923,-2.923c0.135,-0.135 0.135,-0.355 -0,-0.49l-2.923,-2.923c-0.135,-0.135 -0.354,-0.135 -0.49,0l-1.507,1.508c0.388,0.444 0.624,1.024 0.624,1.66c-0,0.636 -0.236,1.216 -0.624,1.66Zm-12.616,-4.828c-0.135,-0.135 -0.354,-0.135 -0.49,0l-2.922,2.923c-0.136,0.135 -0.136,0.355 -0,0.49l2.922,2.923c0.136,0.135 0.355,0.135 0.49,0l2.923,-2.923c0.135,-0.135 0.135,-0.355 -0,-0.49l-2.923,-2.923Zm9.055,5.069l-1.508,1.507c-0.135,0.136 -0.135,0.355 -0,0.49l2.923,2.923c0.135,0.135 0.355,0.135 0.49,0l2.923,-2.923c0.135,-0.135 0.135,-0.354 -0,-0.49l-1.508,-1.507c-0.444,0.388 -1.024,0.624 -1.66,0.624c-0.636,0 -1.216,-0.236 -1.66,-0.624Zm5.068,8.573c0.136,0.135 0.355,0.135 0.49,0l2.923,-2.922c0.135,-0.136 0.135,-0.355 -0,-0.491l-2.923,-2.922c-0.135,-0.135 -0.354,-0.135 -0.49,0l-2.922,2.922c-0.136,0.136 -0.136,0.355 -0,0.491l2.922,2.922Zm7.066,-13.882c0.135,-0.136 0.135,-0.355 0,-0.49l-2.922,-2.923c-0.136,-0.135 -0.355,-0.135 -0.491,0l-2.922,2.923c-0.135,0.135 -0.135,0.354 0,0.49l2.922,2.922c0.136,0.136 0.355,0.136 0.491,0l2.922,-2.922Zm3.894,10.229c0.135,0.135 0.355,0.135 0.49,0l2.923,-2.923c0.135,-0.135 0.135,-0.354 0,-0.49l-2.923,-2.922c-0.135,-0.136 -0.355,-0.136 -0.49,0l-2.923,2.922c-0.135,0.136 -0.135,0.355 0,0.49l2.923,2.923Zm-14.613,7.306c0.135,0.136 0.355,0.136 0.49,0l2.923,-2.922c0.135,-0.136 0.135,-0.355 0,-0.49l-2.923,-2.923c-0.135,-0.135 -0.355,-0.135 -0.49,0l-2.923,2.923c-0.135,0.135 -0.135,0.354 0,0.49l2.923,2.922Zm0.49,-28.254c-0.135,-0.136 -0.355,-0.136 -0.49,0l-2.923,2.922c-0.135,0.136 -0.135,0.355 0,0.49l2.923,2.923c0.135,0.135 0.355,0.135 0.49,0l2.923,-2.923c0.135,-0.135 0.135,-0.354 0,-0.49l-2.923,-2.922Zm-7.066,21.188c-0.135,0.136 -0.135,0.355 0,0.491l2.923,2.922c0.135,0.135 0.354,0.135 0.49,0l2.922,-2.922c0.136,-0.136 0.136,-0.355 0,-0.491l-2.922,-2.922c-0.136,-0.135 -0.355,-0.135 -0.49,0l-2.923,2.922Zm-7.306,0c-0.136,0.136 -0.136,0.355 0,0.491l2.922,2.922c0.136,0.135 0.355,0.135 0.49,0l2.923,-2.922c0.135,-0.136 0.135,-0.355 0,-0.491l-2.923,-2.922c-0.135,-0.135 -0.354,-0.135 -0.49,0l-2.922,2.922Zm3.412,-17.535c-0.135,-0.135 -0.354,-0.135 -0.49,0l-2.922,2.922c-0.136,0.136 -0.136,0.355 0,0.491l2.922,2.922c0.136,0.135 0.355,0.135 0.49,0l2.923,-2.922c0.135,-0.136 0.135,-0.355 0,-0.491l-2.923,-2.922Zm3.654,3.653c-0.136,-0.135 -0.355,-0.135 -0.491,0l-2.922,2.923c-0.135,0.135 -0.135,0.354 0,0.49l2.922,2.922c0.136,0.136 0.355,0.136 0.491,0l2.922,-2.922c0.135,-0.136 0.135,-0.355 0,-0.49l-2.922,-2.923Zm-3.413,10.229c-0.135,0.136 -0.135,0.355 0,0.49l2.922,2.923c0.136,0.135 0.355,0.135 0.491,0l2.922,-2.923c0.135,-0.135 0.135,-0.354 0,-0.49l-2.922,-2.922c-0.136,-0.136 -0.355,-0.136 -0.491,0l-2.922,2.922Zm7.066,-21.189c-0.136,-0.135 -0.355,-0.135 -0.49,0l-2.923,2.923c-0.135,0.135 -0.135,0.355 0,0.49l2.923,2.923c0.135,0.135 0.354,0.135 0.49,0l2.922,-2.923c0.136,-0.135 0.136,-0.355 0,-0.49l-2.922,-2.923Zm-7.066,28.496c-0.135,0.135 -0.135,0.354 -0,0.49l2.922,2.922c0.136,0.136 0.355,0.136 0.491,0l2.922,-2.922c0.135,-0.136 0.135,-0.355 -0,-0.49l-2.922,-2.923c-0.136,-0.135 -0.355,-0.135 -0.491,0l-2.922,2.923Zm17.535,-3.894c0.136,0.135 0.355,0.135 0.491,0l2.922,-2.923c0.135,-0.135 0.135,-0.354 0,-0.49l-2.922,-2.922c-0.136,-0.136 -0.355,-0.136 -0.491,0l-2.922,2.922c-0.135,0.136 -0.135,0.355 0,0.49l2.922,2.923Zm-0.24,-13.882c0.135,-0.136 0.135,-0.355 -0,-0.491l-2.923,-2.922c-0.135,-0.135 -0.354,-0.135 -0.49,0l-2.922,2.922c-0.136,0.136 -0.136,0.355 0,0.491l2.922,2.922c0.136,0.135 0.355,0.135 0.49,0l2.923,-2.922Zm3.894,17.535c0.135,0.135 0.354,0.135 0.49,0l2.922,-2.922c0.136,-0.136 0.136,-0.355 0,-0.491l-2.922,-2.922c-0.136,-0.135 -0.355,-0.135 -0.49,0l-2.923,2.922c-0.135,0.136 -0.135,0.355 0,0.491l2.923,2.922Zm-28.496,-7.066c-0.135,0.136 -0.135,0.355 0,0.49l2.923,2.923c0.135,0.135 0.355,0.135 0.49,0l2.923,-2.923c0.135,-0.135 0.135,-0.354 0,-0.49l-2.923,-2.922c-0.135,-0.136 -0.355,-0.136 -0.49,0l-2.923,2.922Zm31.908,-3.163c0.136,-0.135 0.136,-0.355 0,-0.49l-2.922,-2.923c-0.136,-0.135 -0.355,-0.135 -0.49,0l-2.923,2.923c-0.135,0.135 -0.135,0.355 0,0.49l2.923,2.923c0.135,0.135 0.354,0.135 0.49,0l2.922,-2.923Z"/></svg>