<svg width="48px" height="48px" viewBox="0 0 48 48" version="1.1" xmlns="http://www.w3.org/2000/svg" style="fill-rule:evenodd">
<path fill="#202020" d="M0.002,48l0,-48l-0.002,0l0,48l0.002,0Zm46.828,-6.36c1.55,-2.68 1.56,-5.86 0.02,-8.53l-15.45,-26.76c-1.53,-2.69 -4.29,-4.29 -7.39,-4.29c-3.1,0 -5.86,1.61 -7.39,4.28l-15.47,26.79c-1.54,2.69 -1.53,5.9 0.03,8.57c1.54,2.64 4.29,4.23 7.37,4.23l30.86,0c3.09,0.01 5.86,-1.6 7.42,-4.29Zm-24.27,-8.703c-1.708,-0.311 -3.407,0.854 -3.721,2.574c-0.311,1.707 0.855,3.407 2.575,3.72c1.643,0.3 3.409,-0.867 3.629,-2.511c0.407,-1.795 -0.763,-3.47 -2.483,-3.783Zm3.242,-22.21c-1.57,0.162 -2.747,1.343 -3.045,2.986c-0.105,1.008 -0.225,2.027 -0.329,3.035c-0.473,3.823 -0.932,7.57 -1.417,11.391c-0.158,1.302 0.667,2.412 1.953,2.647c1.287,0.234 2.475,-0.576 2.775,-1.864c0.142,-0.778 0.272,-1.491 0.492,-2.267c0.581,-2.396 1.178,-4.802 1.746,-7.199c0.362,-1.553 0.789,-3.108 1.152,-4.661c0.101,-0.56 0.117,-1.084 -0.009,-1.621c-0.392,-1.533 -1.763,-2.532 -3.318,-2.447Z"/>
</svg>