<svg width="48px" height="48px" version="1.1" xmlns="http://www.w3.org/2000/svg">
<path fill="#202020" d="M0.002,48l0,-48l-0.002,0l0,48l0.002,0Zm46.828,-6.36c1.55,-2.68 1.56,-5.86 0.02,-8.53l-15.45,-26.76c-1.53,-2.69 -4.29,-4.29 -7.39,-4.29c-3.1,0 -5.86,1.61 -7.39,4.28l-15.47,26.79c-1.54,2.69 -1.53,5.9 0.03,8.57c1.54,2.64 4.29,4.23 7.37,4.23l30.86,0c3.09,0.01 5.86,-1.6 7.42,-4.29Zm-24.27,-8.703c1.72,0.313 2.89,1.988 2.483,3.783c-0.22,1.644 -1.986,2.811 -3.629,2.511c-1.72,-0.313 -2.886,-2.013 -2.575,-3.72c0.314,-1.72 2.013,-2.885 3.721,-2.574Zm3.242,-22.21c1.555,-0.085 2.926,0.914 3.318,2.447c0.126,0.537 0.11,1.061 0.009,1.621c-0.363,1.553 -0.79,3.108 -1.152,4.661c-0.568,2.397 -1.165,4.803 -1.746,7.199c-0.22,0.776 -0.35,1.489 -0.492,2.267c-0.3,1.288 -1.488,2.098 -2.775,1.864c-1.286,-0.235 -2.111,-1.345 -1.953,-2.647c0.485,-3.821 0.944,-7.568 1.417,-11.391c0.104,-1.008 0.224,-2.027 0.329,-3.035c0.298,-1.643 1.475,-2.824 3.045,-2.986Z"/>
</svg>