<svg width="48px" height="48px" viewBox="0 0 48 48" version="1.1" xmlns="http://www.w3.org/2000/svg" style="fill-rule:evenodd">
<path fill="#202020" d="M0.002,48l0,-48l-0.002,0l0,48l0.002,0Zm46.828,-6.36c1.55,-2.68 1.56,-5.86 0.02,-8.53l-15.45,-26.76c-1.53,-2.69 -4.29,-4.29 -7.39,-4.29c-3.1,0 -5.86,1.61 -7.39,4.28l-15.47,26.79c-1.54,2.69 -1.53,5.9 0.03,8.57c1.54,2.64 4.29,4.23 7.37,4.23l30.86,0c3.09,0.01 5.86,-1.6 7.42,-4.29Zm-22.831,-26.735c7.723,0 13.993,6.27 13.993,13.993c0,7.723 -6.27,13.993 -13.993,13.993c-7.723,0 -13.993,-6.27 -13.993,-13.993c0,-7.723 6.27,-13.993 13.993,-13.993Zm-0.001,4.688c5.137,-0 9.307,4.17 9.307,9.305c-0,5.137 -4.17,9.307 -9.307,9.307c-5.135,-0 -9.305,-4.17 -9.305,-9.307c-0,-5.135 4.17,-9.305 9.305,-9.305Zm0,4.652c2.569,0 4.654,2.085 4.654,4.653c0,2.569 -2.085,4.654 -4.654,4.654c-2.568,0 -4.652,-2.085 -4.652,-4.654c-0,-2.568 2.084,-4.653 4.652,-4.653Z"/>
</svg>