<svg width="48px" height="48px" viewBox="0 0 48 48" version="1.1" xmlns="http://www.w3.org/2000/svg">
<path fill="#202020" d="M45.303,41.385c-0.941,1.639 -2.602,2.613 -4.45,2.613l-33.753,-0c-1.836,-0 -3.487,-0.952 -4.406,-2.557c-0.929,-1.628 -0.94,-3.575 -0.011,-5.214l16.914,-29.635c0.919,-1.627 2.559,-2.59 4.418,-2.59c1.847,0 3.499,0.974 4.417,2.602l16.904,29.645c0.907,1.594 0.896,3.509 -0.033,5.136Zm-21.299,-7.527c-1.465,0 -2.701,1.24 -2.701,2.734c0,1.484 1.225,2.735 2.701,2.735c1.411,0 2.7,-1.251 2.635,-2.668c0.065,-1.572 -1.159,-2.801 -2.635,-2.801Zm-0.667,-19.174c-1.279,0.377 -2.077,1.55 -2.077,2.979c0.065,0.863 0.12,1.737 0.185,2.601c0.186,3.287 0.372,6.509 0.548,9.797c0.065,1.118 0.918,1.926 2.022,1.926c1.105,0 1.968,-0.863 2.023,-1.993c0,-0.675 0,-1.295 0.066,-1.981c0.12,-2.103 0.251,-4.218 0.36,-6.321c0.066,-1.363 0.186,-2.734 0.251,-4.097c0,-0.486 -0.065,-0.929 -0.251,-1.361c-0.558,-1.229 -1.848,-1.859 -3.127,-1.55Z"/>
</svg>