<svg width="48px" height="48px" version="1.1" xmlns="http://www.w3.org/2000/svg" style="fill-rule:evenodd">
<path fill="#202020" d="M48,13.229c0,-1.486 -1.207,-2.692 -2.693,-2.692l-42.614,-0c-1.486,-0 -2.693,1.206 -2.693,2.692l-0,21.542c-0,1.486 1.207,2.692 2.693,2.692l42.614,0c1.486,0 2.693,-1.206 2.693,-2.692l0,-21.542Zm-3.15,15.421c0,-0.689 -0.559,-1.248 -1.248,-1.248l-5.505,0c-0.688,0 -1.247,0.559 -1.247,1.248l0,2.495c0,0.689 0.559,1.248 1.247,1.248l5.505,0c0.689,0 1.248,-0.559 1.248,-1.248l0,-2.495Zm-33.35,0c0,-0.689 -0.559,-1.248 -1.248,-1.248l-5.504,0c-0.689,0 -1.248,0.559 -1.248,1.248l0,2.495c0,0.689 0.559,1.248 1.248,1.248l5.504,0c0.689,0 1.248,-0.559 1.248,-1.248l0,-2.495Zm23.75,0c0,-0.689 -0.559,-1.248 -1.248,-1.248l-19.504,0c-0.689,0 -1.248,0.559 -1.248,1.248l-0,2.495c-0,0.689 0.559,1.248 1.248,1.248l19.504,0c0.689,0 1.248,-0.559 1.248,-1.248l0,-2.495Zm4.507,-9.757l0,5.505c0,0.703 0.571,1.273 1.274,1.273l2.546,-0c0.702,-0 1.273,-0.57 1.273,-1.273l0,-9.248c0,-0.689 -0.559,-1.248 -1.248,-1.248l-4.377,0c-0.689,0 -1.248,0.559 -1.248,1.248l-0,2.495c-0,0.689 0.559,1.248 1.248,1.248l0.532,0Zm-15.938,2.96c0,-0.689 -0.558,-1.248 -1.247,-1.248l-2.505,0c-0.688,0 -1.248,0.559 -1.248,1.248l0,2.495c0,0.689 0.56,1.248 1.248,1.248l2.505,0c0.689,0 1.247,-0.559 1.247,-1.248l0,-2.495Zm-7,-0c0,-0.689 -0.559,-1.248 -1.248,-1.248l-2.504,0c-0.688,0 -1.248,0.559 -1.248,1.248l0,2.495c0,0.689 0.56,1.248 1.248,1.248l2.504,0c0.689,0 1.248,-0.559 1.248,-1.248l0,-2.495Zm14,-0c0,-0.689 -0.559,-1.248 -1.248,-1.248l-2.504,0c-0.688,0 -1.248,0.559 -1.248,1.248l0,2.495c0,0.689 0.56,1.248 1.248,1.248l2.504,0c0.689,0 1.248,-0.559 1.248,-1.248l0,-2.495Zm7,-0c0,-0.689 -0.558,-1.248 -1.247,-1.248l-2.505,0c-0.688,0 -1.248,0.559 -1.248,1.248l0,2.495c0,0.689 0.56,1.248 1.248,1.248l2.505,0c0.689,0 1.247,-0.559 1.247,-1.248l0,-2.495Zm-27.819,-0c0,-0.689 -0.559,-1.248 -1.247,-1.248l-4.005,0c-0.689,0 -1.248,0.559 -1.248,1.248l0,2.495c0,0.689 0.559,1.248 1.248,1.248l4.005,0c0.688,0 1.247,-0.559 1.247,-1.248l0,-2.495Zm-1.5,-6.703c0,-0.689 -0.559,-1.248 -1.247,-1.248l-2.505,-0c-0.689,-0 -1.248,0.559 -1.248,1.248l0,2.495c0,0.689 0.559,1.248 1.248,1.248l2.505,0c0.688,0 1.247,-0.559 1.247,-1.248l0,-2.495Zm6.853,0c-0,-0.689 -0.559,-1.248 -1.248,-1.248l-2.504,-0c-0.689,-0 -1.248,0.559 -1.248,1.248l-0,2.495c-0,0.689 0.559,1.248 1.248,1.248l2.504,0c0.689,0 1.248,-0.559 1.248,-1.248l-0,-2.495Zm7,0c-0,-0.689 -0.56,-1.248 -1.248,-1.248l-2.504,-0c-0.689,-0 -1.248,0.559 -1.248,1.248l-0,2.495c-0,0.689 0.559,1.248 1.248,1.248l2.504,0c0.688,0 1.248,-0.559 1.248,-1.248l-0,-2.495Zm7,0c-0,-0.689 -0.559,-1.248 -1.248,-1.248l-2.504,-0c-0.689,-0 -1.248,0.559 -1.248,1.248l-0,2.495c-0,0.689 0.559,1.248 1.248,1.248l2.504,0c0.689,0 1.248,-0.559 1.248,-1.248l-0,-2.495Zm7,0c-0,-0.689 -0.56,-1.248 -1.248,-1.248l-2.504,-0c-0.689,-0 -1.248,0.559 -1.248,1.248l-0,2.495c-0,0.689 0.559,1.248 1.248,1.248l2.504,0c0.688,0 1.248,-0.559 1.248,-1.248l-0,-2.495Z"/>
</svg>