<svg width="48px" height="48px" version="1.1" xmlns="http://www.w3.org/2000/svg">
<path fill="#202020" d="M47.256,7.896c0,-3.81 -3.093,-6.902 -6.902,-6.902l-32.708,0c-3.809,0 -6.902,3.092 -6.902,6.902l0,32.208c0,3.81 3.093,6.902 6.902,6.902l32.708,0c3.809,0 6.902,-3.092 6.902,-6.902l0,-32.208Zm-23.255,37.36c-0.164,0 -0.329,-0.083 -0.454,-0.249c-1.005,-1.336 -3.425,-4.539 -4.465,-5.916c-0.081,-0.107 -0.104,-0.27 -0.059,-0.412c0.044,-0.141 0.147,-0.234 0.264,-0.234l2.554,0.004c0.157,0 0.293,-0.152 0.317,-0.36c0.14,-1.205 0.595,-4.259 0.74,-5.5c0.026,-0.221 0.171,-0.382 0.34,-0.382l1.599,0.002c0.149,0 0.277,0.146 0.3,0.342c0.135,1.186 0.585,4.279 0.727,5.523c0.024,0.222 0.167,0.381 0.335,0.381l2.466,0.004c0.129,0 0.243,0.104 0.29,0.259c0.049,0.156 0.023,0.335 -0.068,0.453c-1.067,1.408 -3.437,4.525 -4.432,5.837c-0.125,0.166 -0.289,0.248 -0.454,0.248Zm-18.028,-3.222c-0.116,-0.117 -0.173,-0.292 -0.145,-0.498c0.233,-1.655 0.787,-5.631 1.025,-7.34c0.019,-0.133 0.117,-0.264 0.249,-0.333c0.132,-0.069 0.27,-0.062 0.353,0.021l1.803,1.808c0.111,0.111 0.315,0.1 0.478,-0.03c0.952,-0.753 3.432,-2.592 4.412,-3.366c0.175,-0.138 0.392,-0.15 0.511,-0.03l1.129,1.131c0.106,0.106 0.093,0.299 -0.029,0.455c-0.743,0.933 -2.611,3.439 -3.391,4.42c-0.14,0.173 -0.151,0.387 -0.032,0.506l1.741,1.746c0.091,0.091 0.099,0.245 0.022,0.388c-0.075,0.146 -0.22,0.254 -0.368,0.272c-1.751,0.242 -5.63,0.771 -7.262,0.995c-0.205,0.029 -0.379,-0.029 -0.496,-0.145Zm36.073,-0.164c-0.117,0.117 -0.292,0.174 -0.498,0.146c-1.655,-0.232 -5.632,-0.783 -7.34,-1.02c-0.133,-0.019 -0.265,-0.117 -0.334,-0.249c-0.068,-0.132 -0.062,-0.27 0.021,-0.353l1.807,-1.804c0.111,-0.111 0.1,-0.315 -0.031,-0.478c-0.754,-0.951 -2.594,-3.431 -3.369,-4.41c-0.138,-0.175 -0.15,-0.391 -0.03,-0.511l1.131,-1.13c0.106,-0.105 0.299,-0.093 0.454,0.03c0.934,0.742 3.441,2.608 4.422,3.387c0.174,0.14 0.388,0.151 0.507,0.032l1.745,-1.743c0.09,-0.09 0.245,-0.098 0.388,-0.022c0.145,0.076 0.254,0.221 0.272,0.369c0.243,1.75 0.775,5.629 1,7.26c0.029,0.205 -0.029,0.38 -0.145,0.496Zm3.21,-17.885c0,0.164 -0.083,0.329 -0.249,0.454c-1.335,1.006 -4.537,3.428 -5.913,4.469c-0.107,0.081 -0.269,0.104 -0.411,0.06c-0.142,-0.045 -0.235,-0.148 -0.235,-0.265l0.002,-2.553c0,-0.157 -0.152,-0.293 -0.359,-0.317c-1.206,-0.14 -4.26,-0.592 -5.501,-0.737c-0.221,-0.026 -0.383,-0.17 -0.383,-0.34l0.002,-1.598c0,-0.15 0.145,-0.278 0.342,-0.301c1.185,-0.135 4.278,-0.588 5.522,-0.73c0.221,-0.024 0.381,-0.168 0.381,-0.335l0.002,-2.467c0,-0.128 0.104,-0.243 0.259,-0.29c0.156,-0.049 0.335,-0.023 0.453,0.068c1.409,1.066 4.528,3.434 5.84,4.428c0.165,0.125 0.248,0.289 0.248,0.454Zm-42.512,0c0,-0.165 0.083,-0.329 0.248,-0.454c1.312,-0.994 4.431,-3.362 5.84,-4.428c0.118,-0.091 0.297,-0.117 0.453,-0.068c0.155,0.047 0.259,0.162 0.259,0.29l0.002,2.467c0,0.167 0.16,0.311 0.381,0.335c1.244,0.142 4.337,0.595 5.522,0.73c0.197,0.023 0.342,0.151 0.342,0.301l0.002,1.598c0,0.17 -0.162,0.314 -0.383,0.34c-1.241,0.145 -4.295,0.597 -5.501,0.737c-0.207,0.024 -0.359,0.16 -0.359,0.317l0.002,2.553c0,0.117 -0.093,0.22 -0.235,0.265c-0.142,0.044 -0.304,0.021 -0.411,-0.06c-1.376,-1.041 -4.578,-3.463 -5.913,-4.469c-0.166,-0.125 -0.249,-0.29 -0.249,-0.454Zm21.256,-2.996c1.662,0 3.011,1.349 3.011,3.011c0,1.662 -1.349,3.011 -3.011,3.011c-1.662,0 -3.011,-1.349 -3.011,-3.011c0,-1.662 1.349,-3.011 3.011,-3.011Zm18.048,-15.001c0.117,0.116 0.174,0.291 0.145,0.496c-0.225,1.631 -0.758,5.51 -1.002,7.26c-0.018,0.148 -0.127,0.293 -0.272,0.369c-0.143,0.076 -0.298,0.068 -0.388,-0.022l-1.745,-1.744c-0.118,-0.119 -0.333,-0.108 -0.506,0.032c-0.981,0.778 -3.489,2.644 -4.423,3.386c-0.156,0.123 -0.349,0.135 -0.455,0.029l-1.13,-1.13c-0.12,-0.119 -0.108,-0.336 0.03,-0.511c0.776,-0.979 2.617,-3.458 3.371,-4.409c0.13,-0.163 0.141,-0.367 0.03,-0.478l-1.806,-1.805c-0.083,-0.083 -0.089,-0.221 -0.021,-0.353c0.07,-0.131 0.201,-0.23 0.334,-0.248c1.709,-0.236 5.686,-0.786 7.341,-1.018c0.206,-0.028 0.381,0.03 0.497,0.146Zm-36.07,-0.026c0.116,-0.117 0.291,-0.174 0.496,-0.145c1.631,0.224 5.511,0.754 7.261,0.997c0.148,0.018 0.293,0.126 0.368,0.272c0.077,0.143 0.069,0.297 -0.022,0.388l-1.742,1.746c-0.118,0.118 -0.107,0.333 0.033,0.506c0.779,0.98 2.646,3.487 3.389,4.421c0.122,0.155 0.135,0.348 0.029,0.454l-1.129,1.131c-0.12,0.12 -0.336,0.108 -0.511,-0.03c-0.98,-0.775 -3.46,-2.614 -4.411,-3.367c-0.164,-0.13 -0.368,-0.142 -0.479,-0.031l-1.803,1.808c-0.083,0.083 -0.221,0.089 -0.353,0.021c-0.132,-0.069 -0.23,-0.2 -0.249,-0.333c-0.237,-1.709 -0.79,-5.686 -1.022,-7.341c-0.029,-0.206 0.029,-0.381 0.145,-0.497Zm18.052,-3.218c0.164,0 0.328,0.083 0.453,0.249c0.994,1.312 3.359,4.433 4.424,5.843c0.092,0.117 0.117,0.297 0.068,0.453c-0.047,0.155 -0.162,0.258 -0.29,0.258l-2.467,0.001c-0.168,0 -0.311,0.159 -0.335,0.38c-0.144,1.244 -0.599,4.337 -0.735,5.522c-0.023,0.197 -0.151,0.342 -0.3,0.342l-1.599,0c-0.169,0 -0.314,-0.162 -0.339,-0.383c-0.144,-1.241 -0.595,-4.295 -0.734,-5.501c-0.023,-0.207 -0.159,-0.36 -0.316,-0.36l-2.553,0.001c-0.118,0 -0.22,-0.093 -0.265,-0.235c-0.044,-0.142 -0.021,-0.304 0.06,-0.411c1.042,-1.376 3.466,-4.576 4.473,-5.91c0.125,-0.166 0.29,-0.249 0.455,-0.249Z"/>
</svg>