<svg xmlns="http://www.w3.org/2000/svg" width="48px" height="48px" viewBox="0 0 24 24">
<g fill="#202020">
<path d="M14,20H10a1,1,0,0,1-1-1V16h6v3A1,1,0,0,1,14,20Z"/>
<path d="M12.91,10H11.08a37,37,0,0,1,.42,5h1A31.74,31.74,0,0,1,12.91,10Z"/>
<path d="M12,2A6,6,0,0,0,6,8c0,2,.77,2.87,1.88,5.13C8.31,14,8.25,15,9,15h1.5A40.78,40.78,0,0,0,10,9.58L9.91,9H14.1L14,9.59A34.23,34.23,0,0,0,13.5,15H15c.75,0,.69-1,1.13-1.87C17.23,10.87,18,10,18,8A6,6,0,0,0,12,2Z"/>
<path d="M10.12,21A2.05,2.05,0,0,0,12,22a2.05,2.05,0,0,0,1.88-1Z"/>
</g></svg>