<svg width="48px" height="48px" version="1.1" xmlns="http://www.w3.org/2000/svg">
<g fill="#202020">
<path d="M28,40l-8,0c-1.097,0 -2,-0.903 -2,-2l0,-6l12,0l0,6c0,1.097 -0.903,2 -2,2Z"/>
<path d="M25.82,20l-3.66,0c0.506,3.31 0.787,6.652 0.84,10l2,0c0.009,-3.35 0.283,-6.694 0.82,-10Z"/>
<path d="M24,4c-6.583,0 -12,5.417 -12,12c0,4 1.54,5.74 3.76,10.26c0.86,1.74 0.74,3.74 2.24,3.74l3,0c-0.092,-3.632 -0.426,-7.253 -1,-10.84l-0.18,-1.16l8.38,0l-0.2,1.18c-0.619,3.574 -0.954,7.193 -1,10.82l3,0c1.5,0 1.38,-2 2.26,-3.74c2.2,-4.52 3.74,-6.26 3.74,-10.26c-0,-6.583 -5.417,-12 -12,-12Z"/>
<path d="M20.24,42c0.78,1.314 2.234,2.087 3.76,2c1.526,0.087 2.98,-0.686 3.76,-2l-7.52,0Z"/>
</g></svg>