<svg version="1.1" xmlns:inkscape="http://www.inkscape.org/namespaces/inkscape" xmlns:svg="http://www.w3.org/2000/svg" xmlns="http://www.w3.org/2000/svg" x="0px" y="0px" width="48px" height="48px" viewBox="0 0 48 48" enable-background="new 0 0 48 48" >
<path fill="#202020" inkscape:connector-curvature="0" d="M8.678,34.271c-1.239,0-2.3-0.441-3.183-1.324 c-0.882-0.883-1.324-1.943-1.324-3.183V9.935c0-1.239,0.441-2.3,1.324-3.183c0.883-0.883,1.944-1.324,3.183-1.324h30.645 c1.239,0,2.301,0.441,3.183,1.324c0.883,0.882,1.324,1.943,1.324,3.183v19.829c0,1.239-0.441,2.3-1.324,3.183 c-0.882,0.883-1.943,1.324-3.183,1.324H8.678z M7.777,9.935v19.829c0,0.243,0.089,0.456,0.268,0.635 c0.178,0.178,0.39,0.267,0.634,0.267h30.645c0.245,0,0.455-0.089,0.634-0.267c0.179-0.179,0.269-0.392,0.269-0.635V9.935 c0-0.244-0.09-0.456-0.269-0.634c-0.179-0.179-0.389-0.268-0.634-0.268H8.678c-0.244,0-0.456,0.089-0.634,0.268 C7.866,9.479,7.777,9.69,7.777,9.935z M43.693,35.027h3.938v2.363c0,0.656-0.385,1.215-1.156,1.674s-1.699,0.689-2.781,0.689H4.309 c-1.083,0-2.011-0.23-2.782-0.689c-0.771-0.459-1.157-1.018-1.157-1.674v-2.363h3.938H43.693z M25.97,37.391 c0.263,0,0.394-0.131,0.394-0.394s-0.131-0.394-0.394-0.394h-3.938c-0.262,0-0.394,0.131-0.394,0.394s0.131,0.394,0.394,0.394H25.97 z"/>
</svg>