<svg width="48px" height="48px" version="1.1" xmlns="http://www.w3.org/2000/svg">
<g fill="#202020">
<path d="M42.443,17.204c3.301,1.73 5.557,5.184 5.557,9.17c-0,5.719 -4.636,10.354 -10.354,10.354c-5.718,0 -10.354,-4.635 -10.354,-10.354c0,-1.316 0.256,-2.571 0.704,-3.73l14.447,-5.44Zm-3.612,3.339l-4.219,1.59c-0.269,0.491 -0.421,1.054 -0.421,1.653c-0,1.909 1.547,3.456 3.456,3.456c1.909,-0 3.456,-1.547 3.456,-3.456c-0.001,-1.492 -0.948,-2.759 -2.272,-3.243Z"/>
<path d="M20.707,20.243c-0.125,-0 -0.251,-0.023 -0.376,-0.069l-18.152,-6.836c-0.552,-0.208 -0.83,-0.823 -0.623,-1.375c0.208,-0.551 0.821,-0.83 1.375,-0.622l18.153,6.836c0.551,0.208 0.83,0.823 0.622,1.374c-0.161,0.428 -0.567,0.692 -0.999,0.692Z"/>
<path d="M27.292,20.243c-0.431,-0 -0.837,-0.264 -0.998,-0.691c-0.208,-0.552 0.071,-1.167 0.622,-1.374l18.153,-6.837c0.552,-0.207 1.167,0.071 1.375,0.623c0.207,0.551 -0.072,1.167 -0.623,1.374l-18.153,6.836c-0.124,0.046 -0.251,0.069 -0.376,0.069Z"/>
<path d="M5.557,17.204l14.446,5.44c0.449,1.159 0.704,2.414 0.704,3.73c0,5.718 -4.635,10.354 -10.353,10.354c-5.718,0 -10.354,-4.635 -10.354,-10.354c0,-3.986 2.256,-7.44 5.557,-9.17Zm3.612,3.339c-1.324,0.485 -2.271,1.752 -2.271,3.243c-0,1.909 1.547,3.456 3.456,3.456c1.908,-0 3.456,-1.547 3.456,-3.456c-0,-0.599 -0.153,-1.162 -0.421,-1.653l-4.22,-1.59Z"/>
</g></svg>