<svg width="48px" height="48px" viewBox="0 0 48 48" version="1.1" xmlns="http://www.w3.org/2000/svg" style="fill-rule:evenodd">
<g fill="none" stroke="#202020" stroke-width="3px">
<path d="M12.994,9.651c5.516,-0.193 10.213,5.92 10.482,13.642c0.27,7.723 -3.989,14.148 -9.505,14.341c-5.516,0.193 -10.213,-5.92 -10.482,-13.643c-0.27,-7.722 3.989,-14.147 9.505,-14.34Z"/>
<path d="M34.971,9.651c-5.516,-0.193 -10.213,5.92 -10.482,13.642c-0.27,7.723 3.989,14.148 9.505,14.341c5.516,0.193 10.213,-5.92 10.482,-13.643c0.27,-7.722 -3.989,-14.147 -9.505,-14.34Z"/>
</g><g fill="#202020">
<path d="M12.538,28.954c-0.758,-0.756 -1.227,-1.801 -1.227,-2.954c-0,-2.302 1.869,-4.172 4.172,-4.172c2.302,0 4.171,1.87 4.171,4.172c0,2.302 -1.869,4.172 -4.171,4.172c-0.042,-0 -0.083,-0.001 -0.124,-0.002c0.079,-0.17 0.124,-0.357 0.124,-0.553c-0,-0.782 -0.701,-1.417 -1.563,-1.417c-0.599,-0 -1.119,0.305 -1.382,0.754Zm1.998,-5.788c0.964,-0 1.748,0.635 1.748,1.417c-0,0.782 -0.784,1.417 -1.748,1.417c-0.965,-0 -1.748,-0.635 -1.748,-1.417c-0,-0.782 0.783,-1.417 1.748,-1.417Z"/>
<path d="M33.538,28.596c-0.758,-0.755 -1.227,-1.8 -1.227,-2.954c-0,-2.302 1.869,-4.171 4.172,-4.171c2.302,-0 4.171,1.869 4.171,4.171c0,2.303 -1.869,4.172 -4.171,4.172c-0.042,0 -0.083,-0.001 -0.124,-0.002c0.079,-0.17 0.124,-0.356 0.124,-0.553c-0,-0.782 -0.701,-1.417 -1.563,-1.417c-0.599,0 -1.119,0.306 -1.382,0.754Zm1.998,-5.788c0.964,0 1.748,0.635 1.748,1.417c-0,0.782 -0.784,1.417 -1.748,1.417c-0.965,0 -1.748,-0.635 -1.748,-1.417c-0,-0.782 0.783,-1.417 1.748,-1.417Z"/>
</g></svg>