<svg width="48px" height="48px" version="1.1" xmlns="http://www.w3.org/2000/svg">
<path fill="#202020" d="M21.333,40.296l-0.166,0c-0.834,-0.083 -1.5,-0.75 -1.584,-1.583l-2.083,-20.75l-1.833,5.667c-0.25,0.75 -0.917,1.166 -1.667,1.166l-12.25,0c-1,0 -1.75,-0.75 -1.75,-1.666c-0,-0.917 0.75,-1.75 1.75,-1.75l11.083,-0l4,-12.5c0.25,-0.75 1,-1.25 1.834,-1.167c0.833,0.083 1.416,0.75 1.5,1.583l2,20.25l4.25,-14.5c0.25,-0.75 0.833,-1.25 1.666,-1.25c0.75,0 1.417,0.584 1.667,1.334l2.333,10.083l1.75,-2.583c0.334,-0.5 0.834,-0.75 1.417,-0.75l11,-0c0.917,-0 1.75,0.75 1.75,1.75c0,0.916 -0.75,1.75 -1.75,1.75l-10.083,-0l-3.417,5.083c-0.417,0.583 -1.083,0.833 -1.75,0.75c-0.667,-0.083 -1.25,-0.667 -1.333,-1.333l-1.75,-7.5l-4.917,16.833c-0.25,0.583 -0.917,1.083 -1.667,1.083Z"/>
</svg>