<svg version="1.1" xmlns="http://www.w3.org/2000/svg" x="0px" y="0px" width="48px" height="48px">
<g fill="#202020">
<path d="M33.34,1.27c-1.32,0.36-2.59,0.95-3.69,1.7c-0.46,0.32-2.87,2.63-5.36,5.12l-4.53,4.54h1.73 c1.78,0,3.06,0.2,4.64,0.73l0.92,0.3l2.98-2.96c3.59-3.57,3.9-3.75,6.05-3.75c1.22,0,1.45,0.04,2.2,0.42 c0.98,0.5,1.8,1.34,2.36,2.42c0.34,0.68,0.39,0.92,0.4,2.13c0,2.26,0.03,2.21-5.88,8.17c-2.77,2.79-5.36,5.29-5.76,5.56 c-1.95,1.35-4.67,1.12-6.35-0.53c-0.53-0.52-0.7-0.6-1.38-0.66c-1.02-0.09-1.32,0.09-2.96,1.74l-1.35,1.37l0.53,0.73 c1.97,2.67,5.84,4.39,9.34,4.14c2.17-0.16,4.07-0.82,5.74-2.03c1.09-0.79,11.53-11.26,12.16-12.21c0.71-1.04,1.28-2.34,1.61-3.7 c0.45-1.74,0.34-4.3-0.23-6.01c-1.13-3.38-3.62-5.85-7.04-7.02C37.85,0.93,34.96,0.84,33.34,1.27z"/>
<path d="M19.58,15.67c-1.14,0.19-2.72,0.78-3.85,1.45c-0.81,0.47-2.1,1.68-6.58,6.14c-3.08,3.05-5.85,5.92-6.17,6.4 c-0.82,1.18-1.48,2.69-1.77,4.03c-0.37,1.67-0.24,4.21,0.27,5.77c1.16,3.42,3.64,5.91,7.01,7.04c1.71,0.58,4.27,0.68,6.01,0.23 c1.48-0.37,2.77-0.96,3.94-1.8c0.49-0.36,2.88-2.65,5.33-5.11l4.46-4.47h-1.73c-1.78,0-3.06-0.2-4.64-0.73l-0.92-0.3l-2.96,2.93 c-3.62,3.58-3.94,3.78-6.07,3.78c-1.12-0.01-1.48-0.07-2.06-0.34c-1.01-0.49-2-1.45-2.47-2.42c-0.39-0.75-0.43-0.98-0.43-2.2 c0-2.3-0.04-2.23,5.86-8.17c2.79-2.79,5.39-5.29,5.78-5.56c1.95-1.35,4.67-1.12,6.35,0.53c0.53,0.52,0.7,0.6,1.38,0.66 c1.02,0.09,1.32-0.09,2.96-1.75l1.35-1.37l-0.59-0.79c-1.12-1.48-3.31-2.96-5.28-3.58C23.15,15.52,21.25,15.39,19.58,15.67z"/>
</g></svg>