<svg version="1.1" xmlns="http://www.w3.org/2000/svg" x="0px" y="0px" width="48px" height="48px">
<path fill="#202020" d="M25,0.436c-9.759,0-17.673,7.915-17.673,17.673c0,11.351,12.727,25.518,14.728,27.684 c0.828,0.897,1.52,1.771,2.945,1.771c1.427,0,2.117-0.874,2.945-1.771c2.002-2.166,14.729-16.333,14.729-27.684 C42.674,8.35,34.757,0.436,25,0.436z M25,29.891c-6.507,0-11.782-5.275-11.782-11.782S18.493,6.327,25,6.327 s11.782,5.275,11.782,11.782S31.507,29.891,25,29.891z M25,12.218c-3.252,0-5.891,2.639-5.891,5.891S21.748,24,25,24 c3.25,0,5.891-2.639,5.891-5.891S28.25,12.218,25,12.218z"/>
</svg>