<svg width="48px" height="48px" version="1.1" xmlns="http://www.w3.org/2000/svg">
<path fill="#202020" d="M41.045,21.915l-24.647,0l0,-6.429c0,-2.367 0.837,-4.387 2.512,-6.062c1.674,-1.674 3.695,-2.511 6.061,-2.511c2.366,0 4.389,0.837 6.063,2.511c1.674,1.675 2.512,3.695 2.512,6.062l0,6.504l6.43,-0l0,-6.504c0,-4.108 -1.473,-7.636 -4.42,-10.582c-2.947,-2.947 -6.475,-4.42 -10.582,-4.42c-4.108,0 -7.636,1.473 -10.583,4.42c-2.947,2.946 -4.421,6.474 -4.421,10.582l0,6.429l-1.073,0c-0.893,0 -1.652,0.313 -2.277,0.938c-0.625,0.625 -0.938,1.384 -0.938,2.277l0,19.288c0,0.895 0.313,1.652 0.938,2.277c0.625,0.625 1.384,0.938 2.277,0.938l32.148,0c0.895,0 1.65,-0.313 2.277,-0.938c0.625,-0.625 0.938,-1.385 0.938,-2.277l0,-19.288c0,-0.893 -0.313,-1.652 -0.938,-2.277c-0.627,-0.625 -1.384,-0.938 -2.277,-0.938Zm-11.988,20.997c-0.223,0.29 -0.514,0.436 -0.869,0.436l-6.432,0c-0.357,0 -0.647,-0.146 -0.87,-0.436c-0.224,-0.291 2.144,-8.608 2.144,-8.608c-0.715,-0.379 -1.284,-0.902 -1.708,-1.572c-0.424,-0.67 -0.636,-1.418 -0.636,-2.243c-0,-1.185 0.418,-2.194 1.256,-3.03c0.837,-0.838 1.847,-1.257 3.031,-1.257c1.185,-0 2.193,0.419 3.029,1.257c0.838,0.836 1.256,1.846 1.256,3.03c-0,0.825 -0.211,1.573 -0.636,2.243c-0.425,0.67 -0.994,1.193 -1.708,1.572c-0,-0 2.365,8.317 2.143,8.608Z"/>
</svg>