<svg version="1.1" xmlns="http://www.w3.org/2000/svg" x="0px" y="0px" width="48px" height="48px">
<g fill="#202020">
<path d="M26.932,1.323c0.002-0.269,0.221-0.486,0.489-0.486c1.238,0,4.522,0,6.114,0c0.498,0,0.906,0.392,0.928,0.89 c0.12,2.876,0.493,11.844,0.572,13.74c0.009,0.205-0.131,0.387-0.331,0.433c-1.229,0.279-5.42,1.232-7.144,1.623 c-0.182,0.042-0.373-0.002-0.518-0.119c-0.145-0.117-0.229-0.293-0.227-0.48C26.837,14.009,26.914,3.689,26.932,1.323z"/>
<path d="M38.594,18.941c-0.268,0.08-0.486,0.275-0.598,0.531c-0.616,1.41-2.672,6.119-3.42,7.833 c-0.176,0.403-0.503,0.723-0.91,0.891c-3.242,1.34-17.927,7.406-21.536,8.896c-0.178,0.074-0.381,0.054-0.54-0.055 c-0.159-0.108-0.253-0.289-0.25-0.481c0.023-1.588,0.073-4.943,0.098-6.603c0.008-0.562,0.416-1.038,0.969-1.134 c2.604-0.445,9.771-1.674,11.871-2.034c0.339-0.058,0.586-0.351,0.586-0.694c0-1.853,0-7.521,0-9.543 c0-0.178-0.08-0.346-0.218-0.459c-0.139-0.112-0.319-0.157-0.494-0.121c-3.357,0.688-17.611,3.609-21.473,4.401 c-0.553,0.113-0.936,0.62-0.893,1.184c0.315,4.13,1.525,20.017,1.845,24.214c0.044,0.577,0.523,1.025,1.103,1.03 c5.926,0.052,35.718,0.315,40.812,0.358c0.196,0.003,0.385-0.074,0.521-0.213c0.14-0.137,0.217-0.325,0.215-0.521 c-0.034-4.158-0.201-24.54-0.236-28.902c-0.002-0.194-0.095-0.376-0.251-0.491c-0.155-0.115-0.358-0.15-0.543-0.094 C43.607,17.429,39.855,18.561,38.594,18.941z"/>
<path d="M5.187,0.837c-0.191,0-0.375,0.077-0.509,0.214C4.544,1.188,4.471,1.374,4.475,1.565 c0.06,2.678,0.266,11.986,0.335,15.103c0.006,0.253,0.124,0.49,0.323,0.647c0.198,0.157,0.456,0.217,0.704,0.164 c1.745-0.374,5.306-1.137,6.915-1.482c0.476-0.102,0.81-0.53,0.794-1.016c-0.089-2.674-0.366-10.952-0.448-13.434 c-0.014-0.396-0.338-0.71-0.734-0.71C10.749,0.837,6.819,0.837,5.187,0.837z"/>
<path d="M15.829,1.776c-0.002-0.248,0.095-0.487,0.27-0.663c0.175-0.177,0.413-0.276,0.661-0.276 c1.389,0,3.978,0,5.388,0c0.551,0,1.007,0.425,1.046,0.974c0.17,2.399,0.605,8.55,0.755,10.663c0.029,0.414-0.257,0.783-0.664,0.859 c-1.472,0.274-4.838,0.9-6.448,1.199c-0.221,0.041-0.449-0.017-0.622-0.16c-0.174-0.143-0.275-0.355-0.277-0.58 C15.915,11.292,15.852,4.315,15.829,1.776z"/>
<path d="M37.675,1.247c0-0.109,0.042-0.213,0.118-0.29s0.18-0.12,0.289-0.12c1.105,0,4.182,0,5.85,0 c0.627,0,1.153,0.478,1.213,1.103c0.248,2.569,0.856,8.9,1.068,11.108c0.043,0.444-0.249,0.851-0.684,0.953 c-1.613,0.38-5.375,1.265-6.982,1.644c-0.182,0.042-0.374,0-0.521-0.116c-0.146-0.115-0.233-0.291-0.234-0.478 C37.768,12.338,37.691,3.284,37.675,1.247z"/>
</g></svg>