<svg version="1.1" xmlns="http://www.w3.org/2000/svg" x="0px" y="0px" width="48px" height="48px">
<g fill="#202020">
<path d="M20.238,32.942c2.956,3.498,7.696,4.582,11.749,3.063c0.903-0.338,2.078-0.149,2.704,0.587l0.439,0.521 c0.622,0.736,1.228,1.247,0.805,1.606c-0.426,0.358-0.265,1.247,0.358,1.982l5.259,6.22c0.622,0.736,1.725,0.83,2.461,0.207 l2.368-2.005c0.736-0.621,0.828-1.724,0.208-2.46l-5.261-6.219c-0.623-0.735-1.472-1.043-1.896-0.684 c-0.423,0.358-0.829-0.323-1.45-1.06l-0.44-0.521c-0.623-0.736-0.615-1.93-0.131-2.764c2.172-3.744,1.89-8.598-1.066-12.094 c-3.761-4.448-10.415-5.004-14.864-1.243S16.477,28.498,20.238,32.942z M33.303,32.059c-3.273,2.767-8.168,2.357-10.935-0.913 c-2.767-3.272-2.358-8.167,0.915-10.934c3.271-2.767,8.167-2.357,10.933,0.915S36.57,29.292,33.303,32.059z"/>
<path d="M28.295,32.893c1.594,0,3.143-0.567,4.362-1.598c2.842-2.406,3.198-6.679,0.794-9.523 c-1.286-1.521-3.168-2.395-5.163-2.395c-0.388,0-0.772,0.036-1.15,0.102v11.406h-3.643C24.76,32.163,26.478,32.893,28.295,32.893z"/>
<path d="M33.051,6.909c-0.508,0-0.852,0.644-0.843,2.012c-0.009,1.351,0.317,1.994,0.852,1.994 c0.535,0,0.825-0.67,0.825-2.012C33.885,7.598,33.604,6.909,33.051,6.909z"/>
<path d="M20.066,6.909c-0.507,0-0.852,0.644-0.843,2.012c-0.009,1.351,0.317,1.994,0.852,1.994 s0.825-0.67,0.825-2.012C20.9,7.598,20.62,6.909,20.066,6.909z"/>
<path d="M7.082,6.909c-0.507,0-0.852,0.644-0.843,2.012c-0.009,1.351,0.317,1.994,0.852,1.994 s0.825-0.67,0.825-2.012C7.916,7.598,7.635,6.909,7.082,6.909z"/>
<path d="M12.114,6.909c-0.507,0-0.852,0.644-0.843,2.012c-0.009,1.351,0.317,1.994,0.852,1.994 s0.825-0.67,0.825-2.012C12.948,7.598,12.667,6.909,12.114,6.909z"/>
<path d="M25.1,6.909c-0.508,0-0.853,0.644-0.843,2.012c-0.01,1.351,0.316,1.994,0.852,1.994s0.825-0.67,0.825-2.012 C25.934,7.598,25.652,6.909,25.1,6.909z"/>
<path d="M38.084,6.909c-0.508,0-0.852,0.644-0.843,2.012c-0.009,1.351,0.317,1.994,0.852,1.994 c0.535,0,0.825-0.67,0.825-2.012C38.918,7.598,38.637,6.909,38.084,6.909z"/>
<path d="M38.323,2.875H5.409c-1.849,0-3.347,1.498-3.347,3.347v32.914c0,1.849,1.498,3.347,3.347,3.347h31.079 l-0.959-1.135c-0.585-0.689-0.886-1.496-0.825-2.211c0.022-0.269,0.099-0.52,0.221-0.738c-0.074-0.088-0.159-0.183-0.231-0.265 c-0.105-0.118-0.216-0.243-0.327-0.375l-0.44-0.522c-0.303-0.356-1.055-0.496-1.589-0.295c-1.298,0.486-2.661,0.733-4.053,0.733 c-3.405,0-6.616-1.49-8.81-4.087c-0.702-0.829-1.267-1.74-1.704-2.703h-1.176V14.473h10.543v0.177 c0.381-0.038,0.764-0.063,1.148-0.063c3.408,0,6.624,1.491,8.822,4.091c3.139,3.712,3.608,9.033,1.168,13.241 c-0.301,0.518-0.287,1.242,0.029,1.616l0.44,0.521c0.109,0.13,0.212,0.257,0.31,0.378c0.069,0.087,0.151,0.188,0.227,0.278 c0.713-0.259,1.633,0.016,2.388-0.332V6.222C41.67,5.373,40.172,2.875,38.323,2.875z M7.055,11.958 c-1.523,0-2.193-1.369-2.203-3.036c0-1.704,0.725-3.055,2.248-3.055c1.577,0,2.193,1.405,2.193,3.018 C9.294,10.707,8.56,11.958,7.055,11.958z M12.087,11.958c-1.523,0-2.193-1.369-2.203-3.036c0-1.704,0.725-3.055,2.248-3.055 c1.577,0,2.193,1.405,2.193,3.018C14.326,10.707,13.592,11.958,12.087,11.958z M17.274,9.937h-2.375V9.021h2.375V9.937z M20.04,11.958c-1.523,0-2.193-1.369-2.203-3.036c0-1.704,0.725-3.055,2.248-3.055c1.577,0,2.193,1.405,2.193,3.018 C22.278,10.707,21.544,11.958,20.04,11.958z M25.072,11.958c-1.522,0-2.193-1.369-2.203-3.036c0-1.704,0.725-3.055,2.248-3.055 c1.577,0,2.193,1.405,2.193,3.018C27.311,10.707,26.577,11.958,25.072,11.958z M30.259,9.937h-2.375V9.021h2.375V9.937z M33.023,11.958c-1.522,0-2.193-1.369-2.202-3.036c0-1.704,0.726-3.055,2.248-3.055c1.577,0,2.193,1.405,2.193,3.018 C35.263,10.707,34.528,11.958,33.023,11.958z M38.057,11.958c-1.522,0-2.193-1.369-2.202-3.036c0-1.704,0.726-3.055,2.248-3.055 c1.577,0,2.193,1.405,2.193,3.018C40.296,10.707,39.562,11.958,38.057,11.958z"/>
</g>
</svg>