<svg version="1.1" xmlns="http://www.w3.org/2000/svg" x="0px" y="0px" width="48px" height="48px" viewBox="0 0 48 48" enable-background="new 0 0 48 48" >
<path fill="#202020" d="M44.951,13.609H3.048c-1.272,0-2.304,1.031-2.304,2.304v16.171c0,1.271,1.032,2.307,2.304,2.307h41.903 c1.271,0,2.305-1.031,2.305-2.307V15.913C47.256,14.64,46.223,13.609,44.951,13.609z M16.301,24.208c0,0.395-0.43,0.544-0.68,0.716 L10.98,28.5c-0.375,0-0.68-0.32-0.68-0.715v-7.569c0-0.396,0.304-0.716,0.68-0.716l4.641,3.577c0.377,0.289,0.68,0.32,0.68,0.715 V24.208z M27.23,27.009c0,0.548-0.451,0.991-1.008,0.991h-5.984c-0.557,0-1.008-0.443-1.008-0.991v-6.018 c0-0.547,0.451-0.991,1.008-0.991h5.984c0.557,0,1.008,0.444,1.008,0.991V27.009z M33.699,27c0,0.553-0.467,1-1.043,1h-0.914 c-0.576,0-1.043-0.447-1.043-1v-6c0-0.552,0.467-1,1.043-1h0.914c0.576,0,1.043,0.448,1.043,1V27z M37.699,27 c0,0.553-0.467,1-1.043,1h-0.914c-0.576,0-1.043-0.447-1.043-1v-6c0-0.552,0.467-1,1.043-1h0.914c0.576,0,1.043,0.448,1.043,1V27z"/>
</svg>