<svg width="48px" height="48px" viewBox="0 0 48 48" version="1.1" xmlns="http://www.w3.org/2000/svg">
<path fill="#202020" d="M3.128,44.674l12.74,-42.947c0.35,-1.031 1.333,-1.727 2.442,-1.727l10.566,0c1.108,0 2.092,0.696 2.441,1.727l2.175,7.293c-1.7,-0 -3.364,-0.197 -4.938,3.06c-0.203,0.424 -1.029,2.658 -0.921,7.42l-0.594,-0l-0.872,-9.395c0,-1.395 -0.744,-2.605 -2.167,-2.605c-2.454,-0 -2.982,1.21 -2.982,2.605l-3.018,27.395c0,1.401 0.889,1.941 1.53,2.4c0.424,0.305 0.92,0.521 1.488,0.521l1.046,-0l7.936,-19.421c-0.357,-5.638 0.925,-7.933 0.925,-7.933c0.555,-1.284 2.066,-1.884 3.377,-1.339l4.739,1.976c1.31,0.545 1.918,2.028 1.363,3.312c-0,-0 -1.006,2.325 -5.386,5.99l-0.003,0.001l-8.015,17.493l3,0l7.593,-16.349c0.115,-0.104 0.208,-0.195 0.319,-0.296l6.96,20.819c0.264,0.771 0.13,1.617 -0.352,2.278c-0.485,0.658 -1.263,1.048 -2.09,1.048l-36.86,-0c-0.828,-0 -1.604,-0.39 -2.09,-1.048c-0.483,-0.66 -0.616,-1.507 -0.352,-2.278Z"/>
</svg>