<svg width="48px" height="48px" version="1.1" xmlns="http://www.w3.org/2000/svg">
<path fill="#202020" d="M3.366,6.524l20.644,-6.024l20.624,6.024l0,12.355c0,12.987 -8.31,24.515 -20.631,28.621c-12.324,-4.106 -20.637,-15.637 -20.637,-28.626l0,-12.35Zm20.62,7.806c-1.337,-0 -2.474,0.473 -3.417,1.418c-0.945,0.943 -1.416,2.083 -1.416,3.418c-0,0.93 0.238,1.774 0.716,2.529c0.48,0.756 1.122,1.346 1.928,1.774l-0.034,0.198l-0.547,8.453c-0.126,0.377 -0.065,0.73 0.188,1.059c0.247,0.32 0.564,0.484 0.955,0.491l0.027,0l3.228,0l0.027,-0c0.391,-0.007 0.708,-0.171 0.955,-0.491c0.253,-0.329 0.314,-0.682 0.188,-1.059l-0.547,-8.453l-0.034,-0.198c0.806,-0.428 1.448,-1.018 1.928,-1.774c0.478,-0.755 0.716,-1.599 0.716,-2.529c0,-1.335 -0.471,-2.475 -1.416,-3.418c-0.943,-0.945 -2.08,-1.418 -3.417,-1.418l-0.028,-0Z"/>
</svg>