<svg width="48px" height="48px" version="1.1" xmlns="http://www.w3.org/2000/svg">
<g fill="#202020">
<path d="M38.77,18.462c-0.501,-0 -0.933,0.182 -1.299,0.547c-0.365,0.366 -0.547,0.799 -0.547,1.298l-0,3.693c-0,3.559 -1.265,6.602 -3.794,9.131c-2.529,2.529 -5.573,3.793 -9.13,3.793c-3.558,-0 -6.602,-1.264 -9.13,-3.793c-2.529,-2.529 -3.794,-5.572 -3.794,-9.131l0,-3.692c0,-0.499 -0.183,-0.932 -0.547,-1.298c-0.366,-0.365 -0.799,-0.548 -1.299,-0.548c-0.5,0 -0.933,0.183 -1.298,0.548c-0.366,0.366 -0.548,0.799 -0.548,1.298l0,3.692c0,4.251 1.418,7.948 4.255,11.092c2.836,3.145 6.341,4.948 10.515,5.408l-0,3.809l-7.385,-0c-0.5,-0 -0.933,0.181 -1.298,0.547c-0.366,0.365 -0.548,0.798 -0.548,1.298c-0,0.5 0.182,0.932 0.548,1.299c0.365,0.365 0.797,0.547 1.298,0.547l18.462,-0c0.5,-0 0.933,-0.182 1.298,-0.547c0.365,-0.366 0.548,-0.799 0.548,-1.299c0,-0.5 -0.183,-0.933 -0.548,-1.298c-0.365,-0.366 -0.798,-0.547 -1.298,-0.547l-7.385,-0l0,-3.809c4.173,-0.461 7.678,-2.264 10.515,-5.408c2.836,-3.144 4.255,-6.841 4.255,-11.092l-0,-3.692c-0,-0.499 -0.183,-0.932 -0.548,-1.298c-0.366,-0.365 -0.798,-0.548 -1.298,-0.548Z"/>
<path d="M19.649,17.972l-4.88,-0l-0,3.386l4.88,-0c0.746,-0 1.35,0.604 1.35,1.349c-0,0.746 -0.604,1.35 -1.35,1.35l-4.877,-0c0.013,2.514 0.915,4.669 2.709,6.463c1.807,1.808 3.981,2.711 6.519,2.711c2.538,-0 4.712,-0.903 6.52,-2.711c1.793,-1.794 2.695,-3.949 2.708,-6.463l-4.707,-0c-0.745,-0 -1.35,-0.604 -1.35,-1.35c0,-0.745 0.605,-1.349 1.35,-1.349l4.71,-0l0,-3.386l-4.71,-0c-0.745,-0 -1.35,-0.604 -1.35,-1.35c0,-0.745 0.605,-1.349 1.35,-1.349l4.71,-0l0,-3.599l-4.71,0c-0.745,0 -1.35,-0.604 -1.35,-1.349c0,-0.746 0.605,-1.35 1.35,-1.35l4.699,0c-0.06,-2.427 -0.955,-4.517 -2.7,-6.264c-1.808,-1.807 -3.981,-2.711 -6.519,-2.711c-2.539,0 -4.713,0.904 -6.52,2.711c-1.746,1.747 -2.64,3.837 -2.7,6.264l4.869,0c0.746,0 1.35,0.604 1.35,1.35c-0,0.745 -0.604,1.349 -1.35,1.349l-4.88,0l-0,3.599l4.88,-0c0.746,-0 1.35,0.604 1.35,1.349c-0,0.746 -0.605,1.35 -1.351,1.35Z"/>
</g></svg>