<svg width="48px" height="48px" viewBox="0 0 48 48" version="1.1" xmlns="http://www.w3.org/2000/svg">
<path fill="#202020" d="M46.082,12.378c-0.059,-0.134 -0.12,-0.262 -0.189,-0.377c-0.07,-0.115 -0.153,-0.23 -0.246,-0.342c-0.484,-0.594 -1.273,-1.176 -2.28,-1.73l-8.107,-4.442l-8.106,-4.447c-1.008,-0.554 -1.933,-0.909 -2.716,-1.011c-0.149,-0.018 -0.296,-0.029 -0.435,-0.029c-0.866,-0 -1.951,0.382 -3.154,1.04l-8.107,4.444l-8.106,4.443c-1.008,0.553 -1.796,1.133 -2.28,1.729c-0.094,0.115 -0.176,0.23 -0.246,0.342c-0.069,0.115 -0.131,0.243 -0.19,0.377c-0.299,0.697 -0.438,1.633 -0.438,2.737l0,17.774c0,1.317 0.195,2.4 0.628,3.113c0.433,0.714 1.323,1.414 2.526,2.072l8.106,4.445l8.107,4.442c1.007,0.55 1.932,0.908 2.715,1.01c0.15,0.019 0.297,0.032 0.436,0.032c0.139,0 0.286,-0.011 0.436,-0.032c0.783,-0.102 1.708,-0.457 2.715,-1.01l16.213,-8.887c1.2,-0.658 2.093,-1.358 2.526,-2.072c0.069,-0.115 0.131,-0.243 0.19,-0.377c0.299,-0.694 0.438,-1.633 0.438,-2.736l-0,-17.774c0.003,-1.104 -0.136,-2.04 -0.436,-2.734Zm-31.616,20.852c0,0.404 -0.433,0.663 -0.788,0.468l-2.9,-1.59c-0.682,-0.374 -1.107,-1.091 -1.107,-1.868l0,-8.591c0,-0.403 0.433,-0.66 0.789,-0.467l3.456,1.892c0.342,0.187 0.553,0.545 0.553,0.935l-0,9.221l-0.003,0Zm23.865,-2.99c0,0.777 -0.425,1.496 -1.106,1.87l-2.9,1.588c-0.356,0.195 -0.789,-0.061 -0.789,-0.468l0,-11.38c0,-0.404 -0.433,-0.663 -0.788,-0.468l-5.239,2.871c-0.681,0.374 -1.106,1.09 -1.106,1.868l-0,11.29c-0,0.39 -0.211,0.748 -0.553,0.935l-0.824,0.449c-0.638,0.35 -1.411,0.35 -2.05,0l-0.818,-0.449c-0.342,-0.187 -0.553,-0.545 -0.553,-0.935l0,-11.287c0,-0.778 -0.425,-1.495 -1.106,-1.869l-10.828,-5.933l0,-0.562c0,-0.777 0.425,-1.494 1.107,-1.868l1.195,-0.657c0.638,-0.35 1.411,-0.35 2.047,-0l8.956,4.907c0.639,0.35 1.412,0.35 2.048,-0l4.137,-2.269c0.369,-0.203 0.369,-0.733 0,-0.936l-9.296,-5.094c-0.369,-0.203 -0.369,-0.732 0,-0.935l3.111,-1.706c0.639,-0.35 1.412,-0.35 2.05,0l12.199,6.685c0.684,0.374 1.109,1.09 1.109,1.871l-0,12.482l-0.003,-0Z"/>
</svg>