<svg width="48px" height="48px" version="1.1" xmlns="http://www.w3.org/2000/svg">
<path fill="#202020" d="M27,39c0.826,0 1.5,0.674 1.5,1.5l0,1.5c0,0.826 0.539,1.904 1.201,2.399l6.598,2.702c0.172,0.969 0.527,0.899 -0.299,0.899l-24,0c-0.826,0 -0.451,-0.012 -0.299,-0.899l6.598,-2.702c0.662,-0.495 1.201,-1.573 1.201,-2.399l0,-1.5c0,-0.826 0.674,-1.5 1.5,-1.5l6,0Zm18,-38l-42,0c-1.658,0 -3,1.343 -3,3l0,31.5c0,1.658 1.342,3 3,3l42,0c1.658,0 3,-1.342 3,-3l0,-31.5c0,-1.657 -1.342,-3 -3,-3Zm0.078,4.276l0,28.8c0,0.883 -0.717,1.6 -1.6,1.6l-38.956,0c-0.883,0 -1.6,-0.717 -1.6,-1.6l0,-28.8c0,-0.883 0.717,-1.6 1.6,-1.6l38.956,0c0.883,0 1.6,0.717 1.6,1.6Z"/>
</svg>