<svg version="1.1" xmlns="http://www.w3.org/2000/svg" x="0px" y="0px" width="48px" height="48px" viewBox="0 0 48 48" enable-background="new 0 0 48 48" >
<path fill="#202020" d="M12.734,18.75L12.734,18.75c-0.926,0.034-1.867-2.078-2.76-2.078H5.693c-0.619,0-1.248,0.105-1.882,0.312 c-0.633,0.207-1.195,0.523-1.675,0.956c-0.479,0.432-0.878,0.979-1.186,1.651c-0.307,0.672-0.465,1.455-0.465,2.347v3.921H47.52 v-2.111c0-0.552,0.021,1.064,0.006,0.581c-0.02-0.48-0.022-0.792-0.022-0.931c0-0.446-0.088-0.946-0.26-1.498 c-0.175-0.552-0.468-1.056-0.88-1.521c-0.411-0.466-0.954-0.85-1.622-1.162c-0.673-0.308-1.521-0.466-2.554-0.466h-6.862  M47.467,28.639v2.685c0,0.791,0.01,1.684,0.024,2.683c0.019,0.999,0.028,1.991,0.028,2.99s-0.183,1.814-0.543,2.447 c-0.359,0.634-0.806,1.152-1.344,1.552c-0.533,0.397-1.1,0.672-1.699,0.825c-0.601,0.152-1.143,0.229-1.621,0.229 c-0.48,0.033-0.989,0.043-1.521,0.024c-0.533-0.016-1.042-0.024-1.521-0.024h-1.651L35.3,35.449H12.653l-2.271,6.601h-3.25 c-0.687,0-1.459-0.021-2.318-0.054c-0.859,0-1.565-0.162-2.112-0.488c-0.552-0.326-0.989-0.721-1.315-1.186 C1.06,39.855,0.83,39.352,0.691,38.8c-0.14-0.552-0.207-1.065-0.207-1.55v-8.611H47.467L47.467,28.639z M6.619,31.883 c-0.413,0-0.773,0.145-1.085,0.438c-0.307,0.294-0.465,0.662-0.465,1.109c0,0.445,0.154,0.814,0.465,1.107 c0.308,0.293,0.672,0.438,1.085,0.438c0.446,0,0.826-0.145,1.138-0.438s0.466-0.662,0.466-1.107c0-0.447-0.154-0.815-0.466-1.109 C7.445,32.032,7.07,31.883,6.619,31.883z M14.51,38.281c-0.273,0.893-0.518,1.719-0.725,2.477c-0.173,0.653-0.351,1.292-0.542,1.906 c-0.187,0.619-0.317,1.047-0.384,1.291c-0.067,0.24-0.12,0.5-0.154,0.773c-0.034,0.272-0.019,0.521,0.053,0.748 c0.067,0.226,0.23,0.402,0.49,0.543c0.259,0.139,0.629,0.205,1.109,0.205h18.827c0.791,0,1.377-0.205,1.752-0.619 c0.373-0.412,0.412-1.064,0.104-1.957c-0.173-0.447-0.336-0.972-0.489-1.574c-0.154-0.602-0.316-1.195-0.49-1.781 c-0.172-0.652-0.358-1.325-0.565-2.012H14.51L14.51,38.281z"/>
<line fill="none" stroke="#202020" stroke-width="4" stroke-miterlimit="10" x1="14.133" y1="14.71" x2="44.625" y2="2.797"/>
</svg>