<svg width="48px" height="48px" viewBox="0 0 48 48" version="1.1" xmlns="http://www.w3.org/2000/svg">
<path fill="#202020" d="M16.001,15.39l-12.952,0c-1.272,0 -2.303,-1.031 -2.303,-2.303l0,-8.172c0,-1.273 1.031,-2.304 2.303,-2.304l41.903,0c1.271,0 2.303,1.031 2.303,2.304l0,8.172c0,1.272 -1.032,2.303 -2.303,2.303l-12.951,0l0,2.221l12.951,0c1.271,0 2.303,1.031 2.303,2.303l0,8.172c0,1.272 -1.032,2.303 -2.303,2.303l-12.951,0l0,2.221l12.951,0.001c1.271,0 2.303,1.031 2.303,2.304l0,8.172c0,1.271 -1.032,2.302 -2.303,2.302l-41.903,0c-1.272,0 -2.303,-1.031 -2.303,-2.303l0,-8.172c0,-1.273 1.031,-2.303 2.303,-2.303l12.952,-0.001l0,-2.221l-12.952,0c-1.272,0 -2.303,-1.031 -2.303,-2.303l0,-8.172c0,-1.273 1.031,-2.304 2.303,-2.304l12.952,0l0,-2.221Zm-4.255,5.112c0,-0.552 -0.449,-1 -1,-1l-2,-0c-0.552,-0 -1,0.448 -1,1l0,7c0,0.552 0.448,1 1,1l2,-0c0.551,-0 1,-0.448 1,-1l0,-7Zm-2,6c0.275,-0 0.5,0.224 0.5,0.5c0,0.276 -0.225,0.5 -0.5,0.5c-0.276,-0 -0.5,-0.224 -0.5,-0.5c0,-0.276 0.224,-0.5 0.5,-0.5Zm12,-6c0,-0.552 -0.449,-1 -1,-1l-2,-0c-0.552,-0 -1,0.448 -1,1l0,7c0,0.552 0.448,1 1,1l2,-0c0.551,-0 1,-0.448 1,-1l0,-7Zm-2,6c0.275,-0 0.5,0.224 0.5,0.5c0,0.276 -0.225,0.5 -0.5,0.5c-0.276,-0 -0.5,-0.224 -0.5,-0.5c0,-0.276 0.224,-0.5 0.5,-0.5Zm-13,-6c0,-0.552 -0.449,-1 -1,-1l-2,-0c-0.552,-0 -1,0.448 -1,1l0,7c0,0.552 0.448,1 1,1l2,-0c0.551,-0 1,-0.448 1,-1l0,-7Zm-2,6c0.275,-0 0.5,0.224 0.5,0.5c0,0.276 -0.225,0.5 -0.5,0.5c-0.276,-0 -0.5,-0.224 -0.5,-0.5c0,-0.276 0.224,-0.5 0.5,-0.5Zm13.255,3.889l0,2.221l12,-0l0,-2.221l-12,-0Zm-1.255,-9.889c0,-0.552 -0.449,-1 -1,-1l-2,-0c-0.552,-0 -1,0.448 -1,1l0,7c0,0.552 0.448,1 1,1l2,-0c0.551,-0 1,-0.448 1,-1l0,-7Zm-2,6c0.275,-0 0.5,0.224 0.5,0.5c0,0.276 -0.225,0.5 -0.5,0.5c-0.276,-0 -0.5,-0.224 -0.5,-0.5c0,-0.276 0.224,-0.5 0.5,-0.5Zm24.312,-16.568l0,-1.864c0,-0.169 -0.14,-0.306 -0.312,-0.306l-1.853,-0c-0.172,-0 -0.312,0.137 -0.312,0.306l0,1.864c0,0.169 0.14,0.306 0.312,0.306l1.853,-0c0.172,-0 0.312,-0.137 0.312,-0.306Zm-22.312,25.563c0,-0.552 -0.449,-1 -1,-1l-2,-0c-0.552,-0 -1,0.448 -1,1l0,7c0,0.552 0.448,1 1,1l2,-0c0.551,-0 1,-0.448 1,-1l0,-7Zm-2,6.005c0.275,-0 0.5,0.224 0.5,0.5c0,0.276 -0.225,0.5 -0.5,0.5c-0.276,-0 -0.5,-0.224 -0.5,-0.5c0,-0.276 0.224,-0.5 0.5,-0.5Zm-8,-35.995c0,-0.552 -0.449,-1 -1,-1l-2,-0c-0.552,-0 -1,0.448 -1,1l0,7c0,0.552 0.448,1 1,1l2,-0c0.551,-0 1,-0.448 1,-1l0,-7Zm-2,6c0.275,-0 0.5,0.224 0.5,0.5c0,0.276 -0.225,0.5 -0.5,0.5c-0.276,-0 -0.5,-0.224 -0.5,-0.5c0,-0.276 0.224,-0.5 0.5,-0.5Zm34.312,28.427l0,-1.864c0,-0.169 -0.14,-0.306 -0.312,-0.306l-1.853,-0c-0.172,-0 -0.312,0.137 -0.312,0.306l0,1.864c0,0.169 0.14,0.306 0.312,0.306l1.853,-0c0.172,-0 0.312,-0.137 0.312,-0.306Zm-17.312,-4.437c0,-0.552 -0.449,-1 -1,-1l-2,-0c-0.552,-0 -1,0.448 -1,1l0,7c0,0.552 0.448,1 1,1l2,-0c0.551,-0 1,-0.448 1,-1l0,-7Zm-2,6.005c0.275,-0 0.5,0.224 0.5,0.5c0,0.276 -0.225,0.5 -0.5,0.5c-0.276,-0 -0.5,-0.224 -0.5,-0.5c0,-0.276 0.224,-0.5 0.5,-0.5Zm2,-35.995c0,-0.552 -0.449,-1 -1,-1l-2,-0c-0.552,-0 -1,0.448 -1,1l0,7c0,0.552 0.448,1 1,1l2,-0c0.551,-0 1,-0.448 1,-1l0,-7Zm-2,6c0.275,-0 0.5,0.224 0.5,0.5c0,0.276 -0.225,0.5 -0.5,0.5c-0.276,-0 -0.5,-0.224 -0.5,-0.5c0,-0.276 0.224,-0.5 0.5,-0.5Zm23.312,13.427l0,-1.864c0,-0.169 -0.14,-0.306 -0.312,-0.306l-1.853,-0c-0.172,-0 -0.312,0.137 -0.312,0.306l0,1.864c0,0.169 0.14,0.306 0.312,0.306l1.853,-0c0.172,-0 0.312,-0.137 0.312,-0.306Zm-25.056,-9.543l0,2.221l12,-0l0,-2.221l-12,-0Zm25.056,-5.457l0,-1.864c0,-0.169 -0.14,-0.306 -0.312,-0.306l-1.853,-0c-0.172,-0 -0.312,0.137 -0.312,0.306l0,1.864c0,0.169 0.14,0.306 0.312,0.306l1.853,-0c0.172,-0 0.312,-0.137 0.312,-0.306Zm0,30l0,-1.864c0,-0.169 -0.14,-0.306 -0.312,-0.306l-1.853,-0c-0.172,-0 -0.312,0.137 -0.312,0.306l0,1.864c0,0.169 0.14,0.306 0.312,0.306l1.853,-0c0.172,-0 0.312,-0.137 0.312,-0.306Zm-31.312,-4.437c0,-0.552 -0.449,-1 -1,-1l-2,-0c-0.552,-0 -1,0.448 -1,1l0,7c0,0.552 0.448,1 1,1l2,-0c0.551,-0 1,-0.448 1,-1l0,-7Zm-2,6.005c0.275,-0 0.5,0.224 0.5,0.5c0,0.276 -0.225,0.5 -0.5,0.5c-0.276,-0 -0.5,-0.224 -0.5,-0.5c0,-0.276 0.224,-0.5 0.5,-0.5Zm7,-35.995c0,-0.552 -0.449,-1 -1,-1l-2,-0c-0.552,-0 -1,0.448 -1,1l0,7c0,0.552 0.448,1 1,1l2,-0c0.551,-0 1,-0.448 1,-1l0,-7Zm-2,6c0.275,-0 0.5,0.224 0.5,0.5c0,0.276 -0.225,0.5 -0.5,0.5c-0.276,-0 -0.5,-0.224 -0.5,-0.5c0,-0.276 0.224,-0.5 0.5,-0.5Zm-3,-6c0,-0.552 -0.449,-1 -1,-1l-2,-0c-0.552,-0 -1,0.448 -1,1l0,7c0,0.552 0.448,1 1,1l2,-0c0.551,-0 1,-0.448 1,-1l0,-7Zm-2,6c0.275,-0 0.5,0.224 0.5,0.5c0,0.276 -0.225,0.5 -0.5,0.5c-0.276,-0 -0.5,-0.224 -0.5,-0.5c0,-0.276 0.224,-0.5 0.5,-0.5Zm29.312,13.427l0,-1.864c0,-0.169 -0.14,-0.306 -0.312,-0.306l-1.853,-0c-0.172,-0 -0.312,0.137 -0.312,0.306l0,1.864c0,0.169 0.14,0.306 0.312,0.306l1.853,-0c0.172,-0 0.312,-0.137 0.312,-0.306Zm-32.312,10.563c0,-0.552 -0.449,-1 -1,-1l-2,-0c-0.552,-0 -1,0.448 -1,1l0,7c0,0.552 0.448,1 1,1l2,-0c0.551,-0 1,-0.448 1,-1l0,-7Zm-2,6.005c0.275,-0 0.5,0.224 0.5,0.5c0,0.276 -0.225,0.5 -0.5,0.5c-0.276,-0 -0.5,-0.224 -0.5,-0.5c0,-0.276 0.224,-0.5 0.5,-0.5Z"/>
</svg>