<svg version="1.1" xmlns="http://www.w3.org/2000/svg" x="0px" y="0px" width="48px" height="48px">
<g fill="#202020">
<rect x="12.188" y="3.941" width="1.575" height="4.117"/>
<rect x="15.337" y="3.941" width="1.573" height="4.117"/>
<rect x="18.486" y="3.941" width="1.575" height="4.117"/>
<rect x="21.636" y="3.941" width="1.574" height="4.117"/>
<rect x="24.789" y="3.941" width="1.574" height="4.117"/>
<rect x="27.938" y="3.941" width="1.576" height="4.117"/>
<rect x="31.09" y="3.941" width="1.57" height="4.117"/>
<rect x="34.238" y="3.941" width="1.574" height="4.117"/>
<path d="M40.072,0H7.928C5.759,0,5,1.791,5,4v40c0,2.209,0.759,4,2.928,4h33.144C43.241,48,43,46.209,43,44V4 C43,1.791,42.241,0,40.072,0z M14.734,46H8.4v-5h6.334V46z M14.734,39H8.4v-5h6.334V39z M14.734,32H8.4v-5h6.334V32z M23.39,46 h-6.333v-5h6.333V46z M23.39,39h-6.333v-5h6.333V39z M23.39,32h-6.333v-5h6.333V32z M31.945,46h-6.334v-5h6.334V46z M31.945,39 h-6.334v-5h6.334V39z M31.945,32h-6.334v-5h6.334V32z M40.502,46h-6.334V34h6.334V46z M40.502,32h-6.334v-5h6.334V32z M39.52,20.583h-9.223v3.688H17.703v-3.688H8.48V2.905h31.04V20.583z"/>
</g>
</svg>