<svg width="48px" height="48px" version="1.1" xmlns="http://www.w3.org/2000/svg">
<g fill="#202020">
<path d="M44.478,34.688c-3.062,-3.627 -5.224,-5.151 -5.224,-15.151c-0,-9.161 -4.834,-12.418 -8.813,-14c-0.554,-0.232 -0.986,-0.687 -1.188,-1.253c-0.696,-2.296 -2.648,-4.284 -5.25,-4.284c-2.603,0 -4.559,1.988 -5.25,4.286c-0.201,0.566 -0.633,1.022 -1.187,1.253c-3.983,1.586 -8.813,4.837 -8.813,14c0,10 -2.164,11.524 -5.225,15.15c-1.27,1.5 -0.122,4.313 2.098,4.313l36.752,-0c2.206,-0.002 3.363,-2.815 2.1,-4.315Z"/>
<path d="M17.298,42c-0.002,-0 -0.003,-0 -0.005,-0c-0.411,-0 -0.75,0.339 -0.75,0.75c0,0.026 0.002,0.053 0.005,0.079c0.421,3.51 3.538,5.171 7.455,5.171c3.875,-0 6.963,-1.716 7.436,-5.16c0.003,-0.03 0.005,-0.06 0.005,-0.09c0,-0.411 -0.338,-0.75 -0.75,-0.75c-0.002,-0 -0.003,-0 -0.005,-0l-13.391,-0Z"/>
</g></svg>