<svg width="48px" height="48px" viewBox="0 0 48 48" version="1.1" xmlns="http://www.w3.org/2000/svg">
<path fill="#202020" d="M16.001,15.39l-12.952,-0c-1.272,-0 -2.303,-1.031 -2.303,-2.303l-0,-8.172c-0,-1.273 1.031,-2.304 2.303,-2.304l41.903,-0c1.271,-0 2.303,1.031 2.303,2.304l-0,8.172c-0,1.272 -1.032,2.303 -2.303,2.303l-12.951,-0l-0,2.221l12.951,-0c1.271,-0 2.303,1.031 2.303,2.303l-0,8.172c-0,1.272 -1.032,2.303 -2.303,2.303l-12.951,0l-0,2.221l12.951,0.001c1.271,-0 2.303,1.031 2.303,2.304l-0,8.172c-0,1.271 -1.032,2.302 -2.303,2.302l-41.903,0c-1.272,0 -2.303,-1.031 -2.303,-2.303l-0,-8.172c-0,-1.273 1.031,-2.303 2.303,-2.303l12.952,-0.001l-0,-2.221l-12.952,0c-1.272,0 -2.303,-1.031 -2.303,-2.303l-0,-8.172c-0,-1.273 1.031,-2.304 2.303,-2.304l12.952,0l-0,-2.221Zm20.673,-6.325l0,-0.128c0,-0.123 -0.093,-0.132 -0.21,-0.222l-1.437,-1.107c-0.116,-0 -0.211,0.099 -0.211,0.221l0,2.344c0,0.122 0.095,0.221 0.211,0.221l1.437,-1.107c0.077,-0.053 0.21,-0.099 0.21,-0.222Zm3.384,0.868l0,-1.864c0,-0.169 -0.14,-0.306 -0.312,-0.306l-1.853,-0c-0.172,-0 -0.312,0.137 -0.312,0.306l0,1.864c0,0.169 0.14,0.306 0.312,0.306l1.853,0c0.172,0 0.312,-0.137 0.312,-0.306Zm-12.058,11.564c-1.382,0 -2.504,1.122 -2.504,2.504c0,1.382 1.122,2.504 2.504,2.504c1.382,-0 2.504,-1.122 2.504,-2.504c-0,-1.382 -1.122,-2.504 -2.504,-2.504Zm0,-15c-1.382,0 -2.504,1.122 -2.504,2.504c0,1.382 1.122,2.504 2.504,2.504c1.382,-0 2.504,-1.122 2.504,-2.504c-0,-1.382 -1.122,-2.504 -2.504,-2.504Zm0,30c-1.382,0 -2.504,1.122 -2.504,2.504c0,1.382 1.122,2.504 2.504,2.504c1.382,-0 2.504,-1.122 2.504,-2.504c-0,-1.382 -1.122,-2.504 -2.504,-2.504Zm15.299,-26.567l0,-1.858c0,-0.171 -0.144,-0.309 -0.323,-0.309l-0.283,-0c-0.178,-0 -0.322,0.138 -0.322,0.309l-0,1.858c-0,0.171 0.144,0.309 0.322,0.309l0.283,0c0.179,0 0.323,-0.138 0.323,-0.309Zm-1.238,-0l-0,-1.858c-0,-0.171 -0.145,-0.309 -0.323,-0.309l-0.283,-0c-0.178,-0 -0.323,0.138 -0.323,0.309l0,1.858c0,0.171 0.145,0.309 0.323,0.309l0.283,0c0.178,0 0.323,-0.138 0.323,-0.309Zm-20.315,10.571c-0,-0.552 -0.449,-1 -1,-1l-2,-0c-0.552,-0 -1,0.448 -1,1l-0,7c-0,0.552 0.448,1 1,1l2,-0c0.551,-0 1,-0.448 1,-1l-0,-7Zm-2,6c0.275,0 0.5,0.224 0.5,0.5c-0,0.276 -0.225,0.5 -0.5,0.5c-0.276,0 -0.5,-0.224 -0.5,-0.5c-0,-0.276 0.224,-0.5 0.5,-0.5Zm-3,-6c-0,-0.552 -0.449,-1 -1,-1l-2,-0c-0.552,-0 -1,0.448 -1,1l-0,7c-0,0.552 0.448,1 1,1l2,-0c0.551,-0 1,-0.448 1,-1l-0,-7Zm-2,6c0.275,0 0.5,0.224 0.5,0.5c-0,0.276 -0.225,0.5 -0.5,0.5c-0.276,0 -0.5,-0.224 -0.5,-0.5c-0,-0.276 0.224,-0.5 0.5,-0.5Zm3.255,3.889l-0,2.221l12,0l-0,-2.221l-12,0Zm-6.255,-9.889c-0,-0.552 -0.449,-1 -1,-1l-2,-0c-0.552,-0 -1,0.448 -1,1l-0,7c-0,0.552 0.448,1 1,1l2,-0c0.551,-0 1,-0.448 1,-1l-0,-7Zm-2,6c0.275,0 0.5,0.224 0.5,0.5c-0,0.276 -0.225,0.5 -0.5,0.5c-0.276,0 -0.5,-0.224 -0.5,-0.5c-0,-0.276 0.224,-0.5 0.5,-0.5Zm-3,-6c-0,-0.552 -0.449,-1 -1,-1l-2,-0c-0.552,-0 -1,0.448 -1,1l-0,7c-0,0.552 0.448,1 1,1l2,-0c0.551,-0 1,-0.448 1,-1l-0,-7Zm-2,6c0.275,0 0.5,0.224 0.5,0.5c-0,0.276 -0.225,0.5 -0.5,0.5c-0.276,0 -0.5,-0.224 -0.5,-0.5c-0,-0.276 0.224,-0.5 0.5,-0.5Zm12,8.995c-0,-0.552 -0.449,-1 -1,-1l-2,0c-0.552,0 -1,0.448 -1,1l-0,7c-0,0.552 0.448,1 1,1l2,0c0.551,0 1,-0.448 1,-1l-0,-7Zm-2,6.005c0.275,-0 0.5,0.224 0.5,0.5c-0,0.276 -0.225,0.5 -0.5,0.5c-0.276,-0 -0.5,-0.224 -0.5,-0.5c-0,-0.276 0.224,-0.5 0.5,-0.5Zm-8,-35.995c-0,-0.552 -0.449,-1 -1,-1l-2,-0c-0.552,-0 -1,0.448 -1,1l-0,7c-0,0.552 0.448,1 1,1l2,-0c0.551,-0 1,-0.448 1,-1l-0,-7Zm-2,6c0.275,-0 0.5,0.224 0.5,0.5c-0,0.276 -0.225,0.5 -0.5,0.5c-0.276,-0 -0.5,-0.224 -0.5,-0.5c-0,-0.276 0.224,-0.5 0.5,-0.5Zm7,23.99c-0,-0.552 -0.449,-1 -1,-1l-2,0c-0.552,0 -1,0.448 -1,1l-0,7c-0,0.552 0.448,1 1,1l2,0c0.551,0 1,-0.448 1,-1l-0,-7Zm-2,6.005c0.275,-0 0.5,0.224 0.5,0.5c-0,0.276 -0.225,0.5 -0.5,0.5c-0.276,-0 -0.5,-0.224 -0.5,-0.5c-0,-0.276 0.224,-0.5 0.5,-0.5Zm12,-6.005c-0,-0.552 -0.449,-1 -1,-1l-2,0c-0.552,0 -1,0.448 -1,1l-0,7c-0,0.552 0.448,1 1,1l2,0c0.551,0 1,-0.448 1,-1l-0,-7Zm-2,6.005c0.275,-0 0.5,0.224 0.5,0.5c-0,0.276 -0.225,0.5 -0.5,0.5c-0.276,-0 -0.5,-0.224 -0.5,-0.5c-0,-0.276 0.224,-0.5 0.5,-0.5Zm-13,-6.005c-0,-0.552 -0.449,-1 -1,-1l-2,0c-0.552,0 -1,0.448 -1,1l-0,7c-0,0.552 0.448,1 1,1l2,0c0.551,0 1,-0.448 1,-1l-0,-7Zm-2,6.005c0.275,-0 0.5,0.224 0.5,0.5c-0,0.276 -0.225,0.5 -0.5,0.5c-0.276,-0 -0.5,-0.224 -0.5,-0.5c-0,-0.276 0.224,-0.5 0.5,-0.5Zm13.256,-26.111l-0,2.221l12,0l-0,-2.221l-12,0Zm-1.256,-9.884c-0,-0.552 -0.449,-1 -1,-1l-2,-0c-0.552,-0 -1,0.448 -1,1l-0,7c-0,0.552 0.448,1 1,1l2,-0c0.551,-0 1,-0.448 1,-1l-0,-7Zm-2,6c0.275,-0 0.5,0.224 0.5,0.5c-0,0.276 -0.225,0.5 -0.5,0.5c-0.276,-0 -0.5,-0.224 -0.5,-0.5c-0,-0.276 0.224,-0.5 0.5,-0.5Zm7,-6c-0,-0.552 -0.449,-1 -1,-1l-2,-0c-0.552,-0 -1,0.448 -1,1l-0,7c-0,0.552 0.448,1 1,1l2,-0c0.551,-0 1,-0.448 1,-1l-0,-7Zm-2,6c0.275,-0 0.5,0.224 0.5,0.5c-0,0.276 -0.225,0.5 -0.5,0.5c-0.276,-0 -0.5,-0.224 -0.5,-0.5c-0,-0.276 0.224,-0.5 0.5,-0.5Zm-8,-6c-0,-0.552 -0.449,-1 -1,-1l-2,-0c-0.552,-0 -1,0.448 -1,1l-0,7c-0,0.552 0.448,1 1,1l2,-0c0.551,-0 1,-0.448 1,-1l-0,-7Zm-2,6c0.275,-0 0.5,0.224 0.5,0.5c-0,0.276 -0.225,0.5 -0.5,0.5c-0.276,-0 -0.5,-0.224 -0.5,-0.5c-0,-0.276 0.224,-0.5 0.5,-0.5Zm33.553,13.424l0,-1.858c0,-0.171 -0.144,-0.309 -0.323,-0.309l-0.283,-0c-0.178,-0 -0.322,0.138 -0.322,0.309l-0,1.858c-0,0.171 0.144,0.309 0.322,0.309l0.283,0c0.179,0 0.323,-0.138 0.323,-0.309Zm-6.625,-0.865l0,-0.128c0,-0.123 -0.093,-0.132 -0.21,-0.222l-1.437,-1.107c-0.116,-0 -0.211,0.099 -0.211,0.221l0,2.344c0,0.122 0.095,0.221 0.211,0.221l1.437,-1.107c0.077,-0.053 0.21,-0.099 0.21,-0.222Zm5.387,0.865l-0,-1.858c-0,-0.171 -0.145,-0.309 -0.323,-0.309l-0.283,-0c-0.178,-0 -0.323,0.138 -0.323,0.309l0,1.858c0,0.171 0.145,0.309 0.323,0.309l0.283,0c0.178,0 0.323,-0.138 0.323,-0.309Zm1.238,15l0,-1.858c0,-0.171 -0.144,-0.309 -0.323,-0.309l-0.283,-0c-0.178,-0 -0.322,0.138 -0.322,0.309l-0,1.858c-0,0.171 0.144,0.309 0.322,0.309l0.283,0c0.179,0 0.323,-0.138 0.323,-0.309Zm-1.238,-0l-0,-1.858c-0,-0.171 -0.145,-0.309 -0.323,-0.309l-0.283,-0c-0.178,-0 -0.323,0.138 -0.323,0.309l0,1.858c0,0.171 0.145,0.309 0.323,0.309l0.283,0c0.178,0 0.323,-0.138 0.323,-0.309Zm-2.003,0.003l0,-1.864c0,-0.169 -0.14,-0.306 -0.312,-0.306l-1.853,-0c-0.172,-0 -0.312,0.137 -0.312,0.306l0,1.864c0,0.169 0.14,0.306 0.312,0.306l1.853,0c0.172,0 0.312,-0.137 0.312,-0.306Zm0,-15l0,-1.864c0,-0.169 -0.14,-0.306 -0.312,-0.306l-1.853,-0c-0.172,-0 -0.312,0.137 -0.312,0.306l0,1.864c0,0.169 0.14,0.306 0.312,0.306l1.853,0c0.172,0 0.312,-0.137 0.312,-0.306Zm-3.384,14.132l0,-0.128c0,-0.123 -0.093,-0.132 -0.21,-0.222l-1.437,-1.107c-0.116,-0 -0.211,0.099 -0.211,0.221l0,2.344c0,0.122 0.095,0.221 0.211,0.221l1.437,-1.107c0.077,-0.053 0.21,-0.099 0.21,-0.222Z"/>
</svg>