<svg version="1.1" xmlns="http://www.w3.org/2000/svg" x="0px" y="0px" width="48px" height="48px">
<path fill="#202020" d="M24,0.76c-13.23,0-24,10.77-24,24c0,9.87,6.19,18.86,15.4,22.37c0.38,0.15,0.82,0.13,1.19-0.05 c0.37-0.18,0.65-0.51,0.78-0.9l4.5-14.37c0.21-0.68-0.08-1.42-0.7-1.76c-1.95-1.07-3.16-3.1-3.16-5.29c0-3.31,2.69-6,6-6 c3.31,0,6,2.69,6,6c0,2.19-1.21,4.21-3.16,5.29c-0.62,0.34-0.92,1.08-0.71,1.76l4.5,14.37c0.12,0.4,0.41,0.72,0.78,0.9 c0.21,0.1,0.43,0.15,0.65,0.15c0.18,0,0.36-0.03,0.53-0.1C41.81,43.63,48,34.64,48,24.76C48,11.53,37.23,0.76,24,0.76z"/>
</svg>