<svg width="48px" height="48px" version="1.1" xmlns="http://www.w3.org/2000/svg">
<path fill="#202020" d="M46.401,31.765c-0.701,2.621 -3.392,4.173 -6.01,3.471l-1,-0.268c-2.685,-0.719 -5.142,1.738 -4.423,4.423l0.268,0.999c0.702,2.618 -0.852,5.308 -3.47,6.011l-3.291,0.882c-2.618,0.702 -5.308,-0.852 -6.011,-3.47l-0.267,-1c-0.719,-2.686 -4.076,-3.584 -6.041,-1.619l-0.733,0.732c-1.917,1.918 -5.023,1.918 -6.94,0l-2.409,-2.409c-1.918,-1.917 -1.918,-5.023 -0,-6.94l0.732,-0.733c1.965,-1.965 1.067,-5.322 -1.619,-6.041l-1,-0.267c-2.618,-0.703 -4.172,-3.393 -3.47,-6.011l0.882,-3.291c0.703,-2.618 3.393,-4.172 6.01,-3.47l1,0.268c2.685,0.719 5.142,-1.738 4.423,-4.423l-0.268,-0.999c-0.702,-2.618 0.852,-5.308 3.47,-6.011l3.291,-0.882c2.618,-0.702 5.308,0.852 6.011,3.47l0.267,1c0.719,2.686 4.076,3.584 6.041,1.619l0.733,-0.732c1.917,-1.918 5.023,-1.918 6.94,-0l2.409,2.409c1.918,1.917 1.918,5.023 0,6.94l-0.732,0.733c-1.965,1.965 -1.065,5.321 1.619,6.041l1,0.267c2.618,0.703 4.172,3.393 3.47,6.011l-0.882,3.29Zm-22.478,-7.835c-0,-2.492 -0.494,-4.387 -1.481,-5.686c-0.988,-1.299 -2.462,-1.949 -4.422,-1.949c-0.843,0 -1.635,0.152 -2.376,0.456c-0.74,0.304 -1.386,0.771 -1.937,1.402c-0.551,0.63 -0.984,1.436 -1.299,2.416c-0.315,0.98 -0.473,2.146 -0.473,3.498c0,2.484 0.494,4.378 1.482,5.681c0.987,1.302 2.461,1.954 4.421,1.954c0.843,-0 1.635,-0.152 2.376,-0.456c0.741,-0.304 1.386,-0.771 1.937,-1.402c0.551,-0.63 0.984,-1.435 1.299,-2.415c0.315,-0.98 0.473,-2.147 0.473,-3.499Zm-2.963,0.137c0,0.82 -0.057,1.548 -0.171,2.182c-0.114,0.634 -0.292,1.168 -0.535,1.601c-0.243,0.433 -0.557,0.762 -0.94,0.986c-0.384,0.224 -0.846,0.336 -1.385,0.336c-1.071,0 -1.844,-0.433 -2.319,-1.299c-0.475,-0.866 -0.712,-2.18 -0.712,-3.943c-0,-0.82 0.057,-1.548 0.171,-2.182c0.114,-0.634 0.294,-1.168 0.541,-1.601c0.247,-0.433 0.56,-0.762 0.94,-0.986c0.38,-0.224 0.84,-0.336 1.379,-0.336c1.079,0 1.854,0.433 2.325,1.299c0.471,0.866 0.706,2.18 0.706,3.943Zm15.008,2.872c-0,-0.608 -0.105,-1.134 -0.314,-1.579c-0.208,-0.444 -0.486,-0.83 -0.831,-1.156c-0.346,-0.327 -0.737,-0.604 -1.174,-0.832c-0.437,-0.228 -0.885,-0.431 -1.345,-0.61c-0.459,-0.178 -0.908,-0.345 -1.344,-0.501c-0.437,-0.156 -0.828,-0.323 -1.174,-0.502c-0.346,-0.178 -0.623,-0.379 -0.832,-0.604c-0.209,-0.224 -0.313,-0.491 -0.313,-0.803c-0,-0.251 0.049,-0.479 0.148,-0.684c0.099,-0.205 0.258,-0.378 0.478,-0.518c0.221,-0.141 0.502,-0.251 0.844,-0.331c0.341,-0.079 0.759,-0.119 1.253,-0.119c0.281,-0 0.577,0.015 0.889,0.045c0.311,0.031 0.621,0.074 0.929,0.131c0.307,0.057 0.606,0.124 0.894,0.2c0.289,0.076 0.555,0.159 0.798,0.25l-0,-2.563c-0.243,-0.061 -0.511,-0.12 -0.803,-0.177c-0.293,-0.057 -0.597,-0.106 -0.912,-0.148c-0.315,-0.042 -0.634,-0.076 -0.957,-0.103c-0.323,-0.026 -0.633,-0.04 -0.929,-0.04c-1.01,0 -1.873,0.116 -2.587,0.348c-0.714,0.232 -1.299,0.543 -1.755,0.934c-0.455,0.392 -0.79,0.849 -1.002,1.373c-0.213,0.525 -0.32,1.079 -0.32,1.664c0,0.638 0.105,1.183 0.314,1.635c0.209,0.452 0.484,0.842 0.826,1.168c0.342,0.327 0.731,0.601 1.168,0.821c0.437,0.22 0.881,0.418 1.333,0.592c0.452,0.175 0.897,0.338 1.334,0.49c0.436,0.152 0.826,0.323 1.168,0.513c0.341,0.19 0.617,0.409 0.826,0.655c0.209,0.247 0.313,0.553 0.313,0.918c0,0.266 -0.053,0.509 -0.159,0.729c-0.107,0.22 -0.278,0.41 -0.513,0.57c-0.236,0.159 -0.54,0.285 -0.912,0.376c-0.372,0.091 -0.824,0.137 -1.356,0.137c-0.357,-0 -0.725,-0.023 -1.105,-0.069c-0.38,-0.045 -0.762,-0.108 -1.145,-0.188c-0.384,-0.08 -0.766,-0.173 -1.146,-0.279c-0.38,-0.106 -0.744,-0.22 -1.094,-0.342l0,2.769c0.714,0.213 1.436,0.365 2.165,0.456c0.73,0.091 1.486,0.137 2.268,0.137c0.881,-0 1.694,-0.095 2.439,-0.285c0.744,-0.19 1.386,-0.481 1.926,-0.872c0.539,-0.391 0.959,-0.887 1.259,-1.487c0.3,-0.6 0.45,-1.307 0.45,-2.119Z"/>
</svg>