<svg width="48px" height="48px" viewBox="0 0 48 48" version="1.1" xmlns="http://www.w3.org/2000/svg" style="fill-rule:evenodd">
<path fill="#202020" d="M27,39c0.826,0 1.5,0.674 1.5,1.5l0,1.5c0,0.826 0.539,1.904 1.201,2.399l6.598,2.702c0.172,0.969 0.527,0.899 -0.299,0.899l-24,0c-0.826,0 -0.451,-0.012 -0.299,-0.899l6.598,-2.702c0.662,-0.495 1.201,-1.573 1.201,-2.399l0,-1.5c0,-0.826 0.674,-1.5 1.5,-1.5l6,0Zm18,-38l-42,0c-1.658,0 -3,1.343 -3,3l0,31.5c0,1.658 1.342,3 3,3l42,0c1.658,0 3,-1.342 3,-3l0,-31.5c0,-1.657 -1.342,-3 -3,-3Zm-23.084,31.052l-0.13,-0c-0.652,-0.065 -1.172,-0.586 -1.238,-1.237l-1.627,-16.216l-1.433,4.429c-0.195,0.586 -0.716,0.911 -1.303,0.911l-9.572,0c-0.782,0 -1.368,-0.586 -1.368,-1.302c0,-0.716 0.586,-1.367 1.368,-1.367l8.66,-0l3.126,-9.769c0.196,-0.586 0.782,-0.976 1.434,-0.911c0.65,0.064 1.106,0.586 1.172,1.237l1.563,15.824l3.321,-11.331c0.195,-0.586 0.651,-0.977 1.302,-0.977c0.586,0 1.107,0.456 1.302,1.043l1.823,7.879l1.368,-2.019c0.261,-0.39 0.652,-0.586 1.107,-0.586l8.596,0c0.717,0 1.368,0.586 1.368,1.368c-0,0.716 -0.586,1.367 -1.368,1.367l-7.879,0l-2.67,3.973c-0.326,0.455 -0.847,0.651 -1.368,0.586c-0.521,-0.065 -0.977,-0.522 -1.041,-1.042l-1.368,-5.861l-3.842,13.154c-0.196,0.456 -0.717,0.847 -1.303,0.847Z"/>
</svg>