<svg width="48px" height="48px" version="1.1" xmlns="http://www.w3.org/2000/svg">
<g fill="#202020">
<path d="M45,13.8l0,31.4c0,0.993 -0.807,1.8 -1.8,1.8l-38.4,0c-0.993,0 -1.8,-0.807 -1.8,-1.8l-0,-31.4c-0,-0.993 0.807,-1.8 1.8,-1.8l38.4,0c0.993,0 1.8,0.807 1.8,1.8Zm-11.729,7.65c0,-1.352 -1.097,-2.45 -2.449,-2.45l-13.644,-0c-1.352,-0 -2.449,1.098 -2.449,2.45c-0,1.352 1.097,2.449 2.449,2.449l13.644,0c1.352,0 2.449,-1.097 2.449,-2.449Z"/>
<path d="M47,2.5l0,7c0,0.828 -0.672,1.5 -1.5,1.5l-43,0c-0.828,0 -1.5,-0.672 -1.5,-1.5l0,-7c0,-0.828 0.672,-1.5 1.5,-1.5l43,0c0.828,0 1.5,0.672 1.5,1.5Z"/>
</g></svg>