<svg version="1.1" xmlns="http://www.w3.org/2000/svg" x="0px" y="0px" width="48px" height="48px">
<path fill="#202020" d="M42.352,22.794c-0.627-0.625-1.385-0.938-2.276-0.938H15.427v-6.429c0-2.367,0.837-4.387,2.512-6.062 C19.613,7.691,21.634,6.854,24,6.854s4.389,0.837,6.063,2.511c1.674,1.675,2.513,3.695,2.513,6.062v2.848h0.02 c0.101,1.048,1.485,1.881,3.196,1.881c1.71,0,3.095-0.833,3.195-1.881h0.02v-2.848c0-4.108-1.474-7.636-4.42-10.582 c-2.947-2.947-6.477-4.42-10.582-4.42c-4.108,0-7.637,1.473-10.583,4.42C10.473,7.792,9,11.319,9,15.427v6.429H7.926 c-0.893,0-1.652,0.313-2.277,0.938s-0.938,1.383-0.938,2.276v19.289c0,0.895,0.313,1.651,0.938,2.276s1.384,0.938,2.277,0.938 h32.148c0.895,0,1.65-0.313,2.277-0.938c0.625-0.625,0.938-1.385,0.938-2.276V25.07C43.289,24.178,42.977,23.419,42.352,22.794z M13,38c-2.071,0-3.75-1.68-3.75-3.75S10.929,30.5,13,30.5s3.75,1.68,3.75,3.75S15.071,38,13,38z M24,38 c-2.071,0-3.75-1.68-3.75-3.75S21.929,30.5,24,30.5c2.07,0,3.75,1.68,3.75,3.75S26.07,38,24,38z M35,38c-2.07,0-3.75-1.68-3.75-3.75 S32.93,30.5,35,30.5s3.75,1.68,3.75,3.75S37.07,38,35,38z"/>
</svg>