<svg width="48px" height="48px" version="1.1" xmlns="http://www.w3.org/2000/svg">
<g fill="#202020">
<path d="M20,8c-0,-2.209 -1.791,-4 -4,-4c-1.881,0 -4.119,0 -6,0c-2.209,0 -4,1.791 -4,4c0,7.664 0,24.336 0,32c0,2.209 1.791,4 4,4c1.881,0 4.119,0 6,0c2.209,-0 4,-1.791 4,-4c0,-7.664 0,-24.336 0,-32Z"/>
<path d="M42,8c-0,-2.209 -1.791,-4 -4,-4c-1.881,0 -4.119,0 -6,0c-2.209,0 -4,1.791 -4,4c0,7.664 0,24.336 0,32c0,2.209 1.791,4 4,4c1.881,0 4.119,0 6,0c2.209,-0 4,-1.791 4,-4c0,-7.664 0,-24.336 0,-32Z"/>
</g></svg>