<svg width="100%" height="100%" viewBox="0 0 48 48" version="1.1" xmlns="http://www.w3.org/2000/svg">
<g fill="#202020">
<path d="M41.74,11.065c-0.451,0 -0.883,0.179 -1.195,0.505l-0.007,-0.007l-22.636,22.677c-0,-0 -0.893,3.302 -0.29,3.905c0.602,0.602 3.905,-0.29 3.905,-0.29l22.677,-22.637l-0.007,-0.007c0.325,-0.311 0.505,-0.743 0.505,-1.195c-0,-0.935 -2.016,-2.951 -2.952,-2.951Z"/>
<path d="M33.939,27.989l-0,16.815c-0,0.879 -0.36,1.756 -0.983,2.377c-0.623,0.621 -1.496,0.982 -2.377,0.982l-20.801,0c-0.88,0 -1.755,-0.359 -2.377,-0.982c-0.622,-0.621 -0.983,-1.498 -0.983,-2.377l-0,-41.444c-0,-0.88 0.361,-1.755 0.983,-2.377c0.622,-0.622 1.497,-0.983 2.377,-0.983l20.801,0c0.881,0 1.754,0.361 2.377,0.983c0.623,0.622 0.983,1.497 0.983,2.377l-0,11.394l-3.119,3.127l-0,-14.281l-21.282,0l-0,37.404l21.282,0l-0,-9.904l3.119,-3.111Zm-9.467,16.378c0,-0.378 -0.307,-0.684 -0.684,-0.684l-7.218,-0c-0.377,-0 -0.684,0.306 -0.684,0.684l-0,1.369c-0,0.378 0.307,0.685 0.684,0.685l7.218,-0c0.377,-0 0.684,-0.307 0.684,-0.685l0,-1.369Z"/>
</g></svg>