<svg width="48px" height="48px" version="1.1" xmlns="http://www.w3.org/2000/svg">
<g fill="#202020">
<path d="M33.6,41.989c1.099,0.001 1.992,-0.891 1.993,-1.99l0.003,-3.982c0,-1.099 -0.891,-1.991 -1.99,-1.992l-3.982,-0.003c-1.099,-0.001 -1.992,0.891 -1.992,1.99l-0.003,3.982c-0.001,1.099 0.89,1.991 1.989,1.992l3.982,0.003Z"/>
<path d="M25.711,35.993c-0.035,0.165 -0.054,0.337 -0.054,0.512l-0.002,2.992c-0,0.175 0.019,0.347 0.053,0.512c-11.078,-0.016 -21.744,-0.033 -21.744,-0.033c-1.107,-0.001 -2.005,-0.9 -2.004,-2.007c0.001,-1.107 0.9,-2.004 2.007,-2.003c0.054,-0 10.687,0.013 21.744,0.027Zm11.913,0.013l6.363,0.008l-0,0.01c1.107,0.001 2.004,0.9 2.003,2.007c-0.001,1.107 -0.899,2.004 -2.006,2.003c-0.035,0 -1.494,-0.004 -6.365,-0.01c0.036,-0.167 0.054,-0.341 0.054,-0.518l0.002,-2.992c0,-0.174 -0.018,-0.344 -0.051,-0.508Z"/>
<path d="M16.663,28.013c1.107,0.001 2.006,-0.898 2.007,-2.004l0.002,-4.026c0.001,-1.106 -0.896,-2.005 -2.003,-2.006l-4.009,-0.003c-1.107,-0.001 -2.006,0.898 -2.007,2.004l-0.002,4.026c-0.001,1.106 0.896,2.005 2.003,2.006l4.009,0.003Z"/>
<path d="M8.766,21.972c-0.036,0.169 -0.054,0.343 -0.054,0.521l-0.002,2.992c-0,0.171 0.017,0.338 0.05,0.499l-4.786,-0.008c-1.107,-0.001 -2.005,-0.9 -2.004,-2.007c0.001,-1.107 0.899,-2.004 2.006,-2.003l4.79,0.006Zm11.91,0.013c11.418,0.014 23.32,0.029 23.32,0.029l0,0.01c1.107,0.001 2.005,0.9 2.004,2.007c-0.001,1.107 -0.899,2.004 -2.006,2.003c-0.07,0 -11.932,-0.018 -23.318,-0.035c0.034,-0.163 0.051,-0.332 0.051,-0.505l0.002,-2.992c0,-0.177 -0.018,-0.35 -0.053,-0.517Z"/>
<path d="M29.048,13.986c1.099,0 1.992,-0.891 1.992,-1.99l0.003,-3.982c0.001,-1.099 -0.89,-1.992 -1.989,-1.992l-4.007,-0.003c-1.099,-0.001 -1.992,0.89 -1.993,1.989l-0.003,3.982c-0,1.099 0.891,1.992 1.99,1.993l4.007,0.003Z"/>
<path d="M21.049,7.988c-0.035,0.166 -0.053,0.338 -0.053,0.514l-0.002,2.992c-0,0.174 0.018,0.344 0.051,0.508l-17.062,-0.026c-1.107,-0.001 -2.004,-0.9 -2.003,-2.007c0.001,-1.107 0.899,-2.004 2.006,-2.003l17.063,0.022Zm11.912,0.012l11.045,0.014l0,0.01c1.107,0.001 2.005,0.9 2.004,2.007c-0.001,1.107 -0.9,2.004 -2.007,2.003c-0.045,0 -3.862,-0.007 -11.046,-0.018c0.036,-0.166 0.055,-0.338 0.055,-0.514l0.002,-2.992c0,-0.175 -0.018,-0.345 -0.053,-0.51Z"/>
</g></svg>