<svg width="48px" height="48px" viewBox="0 0 48 48" version="1.1" xmlns="http://www.w3.org/2000/svg" >
<path fill="#20202" d="M7.284,36.877l-7.284,-0l-0,-24.58l42.457,-0l-0.004,-3.378c-0,-1.236 1.003,-2.239 2.238,-2.239l3.309,0.004l0,2.235l-3.309,-0l0,32.401l-2.234,0l-0,-4.443l-4.252,-0l0,4.443l-7.631,0l0,-4.443l-5.421,-0l0,4.443l-17.869,0l0,-4.443Zm19.379,-17.558c-0.087,0 -0.168,0.016 -0.243,0.048c-0.074,0.033 -0.14,0.077 -0.196,0.133c-0.056,0.056 -0.1,0.122 -0.132,0.198c-0.032,0.075 -0.048,0.156 -0.048,0.241c-0,0.087 0.016,0.168 0.048,0.244c0.032,0.076 0.076,0.141 0.132,0.196c0.056,0.055 0.122,0.099 0.196,0.131c0.075,0.032 0.156,0.048 0.243,0.048c0.087,-0 0.169,-0.016 0.244,-0.048c0.076,-0.032 0.141,-0.076 0.196,-0.131c0.055,-0.055 0.099,-0.12 0.131,-0.196c0.032,-0.076 0.048,-0.157 0.048,-0.244c0,-0.085 -0.016,-0.166 -0.048,-0.241c-0.032,-0.076 -0.076,-0.142 -0.131,-0.198c-0.055,-0.056 -0.12,-0.1 -0.196,-0.133c-0.075,-0.032 -0.157,-0.048 -0.244,-0.048Zm-16.992,11.782l1.373,0c0.581,0 1.025,-0.115 1.332,-0.346c0.307,-0.23 0.461,-0.575 0.461,-1.034c0,-0.144 -0.022,-0.275 -0.067,-0.392c-0.045,-0.117 -0.106,-0.218 -0.182,-0.304c-0.077,-0.086 -0.167,-0.156 -0.269,-0.21c-0.102,-0.054 -0.209,-0.09 -0.322,-0.109c0.113,-0.039 0.21,-0.093 0.293,-0.161c0.083,-0.069 0.151,-0.148 0.206,-0.238c0.055,-0.089 0.096,-0.187 0.123,-0.294c0.026,-0.107 0.039,-0.216 0.039,-0.329c0,-0.362 -0.128,-0.633 -0.384,-0.812c-0.255,-0.179 -0.639,-0.268 -1.151,-0.268l-1.452,-0l0,4.497Zm1.432,-0.691l-0.592,-0l-0,-1.298l0.526,0c0.301,0 0.524,0.055 0.67,0.165c0.145,0.111 0.218,0.263 0.218,0.458c0,0.094 -0.018,0.182 -0.053,0.265c-0.036,0.083 -0.088,0.154 -0.157,0.215c-0.069,0.061 -0.154,0.108 -0.256,0.143c-0.102,0.034 -0.221,0.052 -0.356,0.052Zm0.674,-2.578c0,0.087 -0.013,0.169 -0.039,0.245c-0.027,0.075 -0.07,0.142 -0.131,0.201c-0.061,0.058 -0.139,0.104 -0.234,0.137c-0.095,0.034 -0.212,0.05 -0.349,0.05l-0.513,0l-0,-1.19l0.513,-0c0.135,-0 0.25,0.013 0.345,0.039c0.096,0.027 0.174,0.064 0.234,0.112c0.061,0.048 0.105,0.107 0.133,0.176c0.027,0.069 0.041,0.145 0.041,0.23Zm-2.732,-7.25c0,-0.408 -0.042,-0.758 -0.127,-1.049c-0.085,-0.292 -0.203,-0.53 -0.353,-0.716c-0.15,-0.186 -0.33,-0.322 -0.538,-0.41c-0.209,-0.087 -0.437,-0.13 -0.685,-0.13c-0.285,-0 -0.539,0.052 -0.764,0.158c-0.225,0.105 -0.414,0.259 -0.568,0.459c-0.154,0.201 -0.271,0.447 -0.353,0.738c-0.081,0.292 -0.122,0.622 -0.122,0.991c0,0.406 0.043,0.755 0.128,1.046c0.085,0.292 0.203,0.531 0.354,0.718c0.151,0.187 0.332,0.324 0.54,0.411c0.209,0.087 0.437,0.131 0.685,0.131c0.287,-0 0.541,-0.053 0.764,-0.158c0.222,-0.106 0.411,-0.259 0.566,-0.46c0.155,-0.201 0.272,-0.447 0.353,-0.738c0.08,-0.291 0.12,-0.622 0.12,-0.991Zm-2.663,0.014c-0,-0.28 0.023,-0.522 0.07,-0.726c0.047,-0.204 0.112,-0.374 0.193,-0.509c0.081,-0.136 0.177,-0.236 0.287,-0.302c0.11,-0.065 0.23,-0.098 0.358,-0.098c0.179,0 0.335,0.055 0.466,0.164c0.132,0.109 0.238,0.277 0.319,0.504l-1.686,1.218c-0.005,-0.041 -0.007,-0.082 -0.007,-0.122l-0,-0.129Zm1.817,0.014c-0,0.277 -0.023,0.519 -0.069,0.724c-0.046,0.205 -0.11,0.375 -0.191,0.509c-0.082,0.134 -0.178,0.235 -0.289,0.301c-0.111,0.067 -0.231,0.1 -0.36,0.1c-0.176,0 -0.331,-0.054 -0.464,-0.162c-0.133,-0.107 -0.237,-0.273 -0.31,-0.495l1.676,-1.211c-0,0.036 0.001,0.075 0.003,0.115c0.002,0.04 0.004,0.08 0.004,0.119Zm23.446,1.324l0.682,0l-0,-0.739l-0.682,-0l0,-2.843l-1.156,0l-1.755,2.863l0,0.719l2.093,0l-0,0.916l0.818,-0l0,-0.916Zm-0.808,-2.77l-0,2.031l-1.28,-0l1.28,-2.031Zm5.099,2.247c0,-0.266 -0.047,-0.486 -0.142,-0.66c-0.096,-0.175 -0.223,-0.313 -0.382,-0.415c-0.16,-0.102 -0.344,-0.174 -0.553,-0.215c-0.208,-0.041 -0.427,-0.062 -0.657,-0.062l-0.323,0l-0,-0.915l1.81,-0l-0,-0.792l-2.595,0l0,2.392l0.881,-0c0.374,-0 0.645,0.059 0.812,0.177c0.168,0.118 0.251,0.299 0.251,0.542c0,0.234 -0.09,0.417 -0.27,0.549c-0.18,0.132 -0.442,0.198 -0.786,0.198c-0.177,-0 -0.35,-0.01 -0.52,-0.03c-0.169,-0.019 -0.32,-0.045 -0.45,-0.077l-0,0.733c0.066,0.011 0.138,0.022 0.216,0.033c0.078,0.01 0.159,0.019 0.241,0.025c0.083,0.007 0.164,0.013 0.244,0.018c0.081,0.004 0.156,0.007 0.228,0.007c0.284,-0 0.548,-0.034 0.791,-0.1c0.243,-0.067 0.454,-0.164 0.633,-0.293c0.179,-0.128 0.319,-0.286 0.42,-0.473c0.101,-0.187 0.151,-0.401 0.151,-0.642Zm-26.185,1.439l2.993,-0l0,-0.747l-0.987,-0l-0,-3.778l-0.706,-0l-1.428,0.753l0.275,0.685l0.998,-0.55l0,2.89l-1.145,-0l-0,0.747Zm7.669,-0l3.053,-0l-0,-0.775l-1.896,0l0.653,-0.622c0.172,-0.163 0.326,-0.318 0.46,-0.465c0.134,-0.147 0.247,-0.294 0.339,-0.44c0.091,-0.147 0.161,-0.298 0.21,-0.453c0.048,-0.155 0.072,-0.322 0.072,-0.5c-0,-0.216 -0.035,-0.407 -0.105,-0.572c-0.07,-0.165 -0.169,-0.302 -0.296,-0.413c-0.127,-0.11 -0.28,-0.193 -0.459,-0.249c-0.179,-0.056 -0.379,-0.084 -0.599,-0.084c-0.285,-0 -0.549,0.054 -0.793,0.163c-0.245,0.109 -0.464,0.254 -0.659,0.435l0.444,0.572c0.135,-0.129 0.278,-0.232 0.43,-0.308c0.151,-0.077 0.315,-0.116 0.492,-0.116c0.103,0 0.195,0.017 0.275,0.05c0.08,0.033 0.147,0.078 0.2,0.134c0.053,0.057 0.093,0.123 0.12,0.2c0.028,0.077 0.041,0.158 0.041,0.243c0,0.103 -0.01,0.203 -0.031,0.299c-0.02,0.096 -0.063,0.201 -0.129,0.315c-0.065,0.113 -0.158,0.242 -0.278,0.387c-0.121,0.144 -0.281,0.316 -0.48,0.516l-1.064,1.063l0,0.62Zm-9.142,8.251l0.936,0l-1.332,-4.497l-1.184,-0l-1.331,4.497l0.839,0l0.255,-0.888l1.569,0l0.248,0.888Zm-1.022,-3.671l0.585,2.092l-1.177,-0l0.592,-2.092Zm7.783,-5.74c-0.087,0 -0.168,0.016 -0.242,0.048c-0.075,0.032 -0.14,0.076 -0.196,0.131c-0.057,0.055 -0.101,0.12 -0.133,0.196c-0.032,0.076 -0.048,0.156 -0.048,0.241c-0,0.087 0.016,0.169 0.048,0.244c0.032,0.076 0.076,0.142 0.133,0.198c0.056,0.056 0.121,0.101 0.196,0.133c0.074,0.032 0.155,0.048 0.242,0.048c0.087,-0 0.169,-0.016 0.245,-0.048c0.075,-0.032 0.141,-0.077 0.196,-0.133c0.055,-0.056 0.098,-0.122 0.131,-0.198c0.032,-0.075 0.048,-0.157 0.048,-0.244c-0,-0.085 -0.016,-0.165 -0.048,-0.241c-0.033,-0.076 -0.076,-0.141 -0.131,-0.196c-0.055,-0.055 -0.121,-0.099 -0.196,-0.131c-0.076,-0.032 -0.158,-0.048 -0.245,-0.048Zm0,-2.371c-0.087,0 -0.168,0.016 -0.242,0.048c-0.075,0.033 -0.14,0.077 -0.196,0.133c-0.057,0.056 -0.101,0.122 -0.133,0.198c-0.032,0.075 -0.048,0.156 -0.048,0.241c-0,0.087 0.016,0.168 0.048,0.244c0.032,0.076 0.076,0.141 0.133,0.196c0.056,0.055 0.121,0.099 0.196,0.131c0.074,0.032 0.155,0.048 0.242,0.048c0.087,-0 0.169,-0.016 0.245,-0.048c0.075,-0.032 0.141,-0.076 0.196,-0.131c0.055,-0.055 0.098,-0.12 0.131,-0.196c0.032,-0.076 0.048,-0.157 0.048,-0.244c-0,-0.085 -0.016,-0.166 -0.048,-0.241c-0.033,-0.076 -0.076,-0.142 -0.131,-0.198c-0.055,-0.056 -0.121,-0.1 -0.196,-0.133c-0.076,-0.032 -0.158,-0.048 -0.245,-0.048Zm9.322,2.158c-0,-0.14 -0.022,-0.268 -0.067,-0.382c-0.045,-0.115 -0.109,-0.216 -0.193,-0.305c-0.084,-0.088 -0.184,-0.16 -0.301,-0.217c-0.117,-0.056 -0.248,-0.095 -0.392,-0.118c0.225,-0.09 0.399,-0.219 0.525,-0.387c0.125,-0.169 0.187,-0.39 0.187,-0.663c0,-0.172 -0.032,-0.328 -0.096,-0.468c-0.065,-0.14 -0.16,-0.258 -0.288,-0.356c-0.127,-0.097 -0.284,-0.172 -0.471,-0.225c-0.187,-0.053 -0.404,-0.079 -0.652,-0.079c-0.103,-0 -0.203,0.003 -0.299,0.01c-0.097,0.007 -0.192,0.018 -0.286,0.034c-0.094,0.016 -0.188,0.036 -0.282,0.059c-0.094,0.023 -0.193,0.051 -0.296,0.086l-0,0.705c0.186,-0.057 0.366,-0.103 0.54,-0.137c0.174,-0.035 0.351,-0.052 0.53,-0.052c0.25,0 0.435,0.048 0.554,0.143c0.119,0.095 0.179,0.234 0.179,0.418c-0,0.089 -0.015,0.175 -0.045,0.256c-0.03,0.082 -0.08,0.152 -0.149,0.212c-0.07,0.06 -0.165,0.107 -0.283,0.143c-0.118,0.035 -0.266,0.053 -0.445,0.053l-0.458,0l0,0.64l0.499,0c0.19,0 0.355,0.016 0.494,0.046c0.139,0.031 0.253,0.075 0.342,0.131c0.09,0.056 0.156,0.125 0.2,0.205c0.043,0.08 0.065,0.17 0.065,0.268c0,0.113 -0.021,0.214 -0.064,0.303c-0.042,0.09 -0.108,0.165 -0.197,0.226c-0.09,0.06 -0.203,0.107 -0.341,0.139c-0.138,0.032 -0.302,0.048 -0.492,0.048c-0.195,0 -0.383,-0.008 -0.563,-0.026c-0.18,-0.017 -0.342,-0.039 -0.487,-0.067l0,0.73c0.065,0.011 0.137,0.021 0.217,0.029c0.08,0.008 0.163,0.015 0.248,0.021c0.085,0.005 0.17,0.01 0.256,0.013c0.086,0.004 0.168,0.006 0.246,0.006c0.351,-0 0.656,-0.034 0.916,-0.1c0.259,-0.067 0.474,-0.163 0.645,-0.288c0.171,-0.125 0.297,-0.276 0.38,-0.454c0.083,-0.178 0.124,-0.378 0.124,-0.6Zm2.302,0.213c-0.087,0 -0.168,0.016 -0.243,0.048c-0.074,0.032 -0.14,0.076 -0.196,0.131c-0.056,0.055 -0.1,0.12 -0.132,0.196c-0.032,0.076 -0.048,0.156 -0.048,0.241c-0,0.087 0.016,0.169 0.048,0.244c0.032,0.076 0.076,0.142 0.132,0.198c0.056,0.056 0.122,0.101 0.196,0.133c0.075,0.032 0.156,0.048 0.243,0.048c0.087,-0 0.169,-0.016 0.244,-0.048c0.076,-0.032 0.141,-0.077 0.196,-0.133c0.055,-0.056 0.099,-0.122 0.131,-0.198c0.032,-0.075 0.048,-0.157 0.048,-0.244c0,-0.085 -0.016,-0.165 -0.048,-0.241c-0.032,-0.076 -0.076,-0.141 -0.131,-0.196c-0.055,-0.055 -0.12,-0.099 -0.196,-0.131c-0.075,-0.032 -0.157,-0.048 -0.244,-0.048Zm2.57,9.411l2.708,0l0,-0.716l-1.847,0l-0,-1.249l1.761,0l0,-0.698l-1.761,-0l-0,-1.118l1.847,-0l0,-0.716l-2.708,-0l0,4.497Zm-4.69,-2.305c0,-0.381 -0.043,-0.709 -0.129,-0.984c-0.086,-0.276 -0.215,-0.503 -0.387,-0.682c-0.172,-0.179 -0.387,-0.311 -0.645,-0.397c-0.258,-0.086 -0.559,-0.129 -0.903,-0.129l-1.332,-0l0,4.497l1.142,0c0.397,0 0.738,-0.054 1.022,-0.163c0.285,-0.109 0.518,-0.264 0.701,-0.465c0.182,-0.201 0.316,-0.443 0.402,-0.728c0.086,-0.284 0.129,-0.601 0.129,-0.949Zm-0.908,0.055c-0,0.532 -0.108,0.922 -0.324,1.17c-0.215,0.247 -0.531,0.371 -0.946,0.371l-0.371,0l-0,-3.079l0.43,-0c0.231,-0 0.425,0.034 0.581,0.103c0.156,0.069 0.281,0.169 0.374,0.301c0.092,0.132 0.158,0.293 0.197,0.483c0.039,0.191 0.059,0.408 0.059,0.651Zm10.333,-1.531l1.796,-0l0,-0.716l-2.656,-0l-0,4.497l0.86,0l0,-1.841l1.7,0l-0,-0.695l-1.7,0l0,-1.245Zm-7.305,2.622c-0.087,-0 -0.168,0.016 -0.243,0.048c-0.074,0.032 -0.14,0.075 -0.196,0.13c-0.056,0.056 -0.1,0.121 -0.132,0.197c-0.032,0.075 -0.048,0.156 -0.048,0.24c-0,0.088 0.016,0.169 0.048,0.245c0.032,0.075 0.076,0.141 0.132,0.198c0.056,0.056 0.122,0.1 0.196,0.132c0.075,0.032 0.156,0.048 0.243,0.048c0.087,0 0.169,-0.016 0.244,-0.048c0.076,-0.032 0.141,-0.076 0.196,-0.132c0.055,-0.057 0.099,-0.123 0.131,-0.198c0.032,-0.076 0.048,-0.157 0.048,-0.245c0,-0.084 -0.016,-0.165 -0.048,-0.24c-0.032,-0.076 -0.076,-0.141 -0.131,-0.197c-0.055,-0.055 -0.12,-0.098 -0.196,-0.13c-0.075,-0.032 -0.157,-0.048 -0.244,-0.048Zm-11.624,-0c-0.087,-0 -0.168,0.016 -0.242,0.048c-0.075,0.032 -0.14,0.075 -0.196,0.13c-0.057,0.056 -0.101,0.121 -0.133,0.197c-0.032,0.075 -0.048,0.156 -0.048,0.24c-0,0.088 0.016,0.169 0.048,0.245c0.032,0.075 0.076,0.141 0.133,0.198c0.056,0.056 0.121,0.1 0.196,0.132c0.074,0.032 0.155,0.048 0.242,0.048c0.087,0 0.169,-0.016 0.245,-0.048c0.075,-0.032 0.141,-0.076 0.196,-0.132c0.055,-0.057 0.098,-0.123 0.131,-0.198c0.032,-0.076 0.048,-0.157 0.048,-0.245c-0,-0.084 -0.016,-0.165 -0.048,-0.24c-0.033,-0.076 -0.076,-0.141 -0.131,-0.197c-0.055,-0.055 -0.121,-0.098 -0.196,-0.13c-0.076,-0.032 -0.158,-0.048 -0.245,-0.048Zm0,-2.371c-0.087,-0 -0.168,0.016 -0.242,0.048c-0.075,0.032 -0.14,0.076 -0.196,0.132c-0.057,0.057 -0.101,0.123 -0.133,0.198c-0.032,0.076 -0.048,0.156 -0.048,0.241c-0,0.087 0.016,0.169 0.048,0.244c0.032,0.076 0.076,0.141 0.133,0.197c0.056,0.055 0.121,0.098 0.196,0.13c0.074,0.032 0.155,0.048 0.242,0.048c0.087,0 0.169,-0.016 0.245,-0.048c0.075,-0.032 0.141,-0.075 0.196,-0.13c0.055,-0.056 0.098,-0.121 0.131,-0.197c0.032,-0.075 0.048,-0.157 0.048,-0.244c-0,-0.085 -0.016,-0.165 -0.048,-0.241c-0.033,-0.075 -0.076,-0.141 -0.131,-0.198c-0.055,-0.056 -0.121,-0.1 -0.196,-0.132c-0.076,-0.032 -0.158,-0.048 -0.245,-0.048Zm11.624,-0c-0.087,-0 -0.168,0.016 -0.243,0.048c-0.074,0.032 -0.14,0.076 -0.196,0.132c-0.056,0.057 -0.1,0.123 -0.132,0.198c-0.032,0.076 -0.048,0.156 -0.048,0.241c-0,0.087 0.016,0.169 0.048,0.244c0.032,0.076 0.076,0.141 0.132,0.197c0.056,0.055 0.122,0.098 0.196,0.13c0.075,0.032 0.156,0.048 0.243,0.048c0.087,0 0.169,-0.016 0.244,-0.048c0.076,-0.032 0.141,-0.075 0.196,-0.13c0.055,-0.056 0.099,-0.121 0.131,-0.197c0.032,-0.075 0.048,-0.157 0.048,-0.244c0,-0.085 -0.016,-0.165 -0.048,-0.241c-0.032,-0.075 -0.076,-0.141 -0.131,-0.198c-0.055,-0.056 -0.12,-0.1 -0.196,-0.132c-0.075,-0.032 -0.157,-0.048 -0.244,-0.048Zm-6.232,3.355l0,-0.792c-0.075,0.035 -0.157,0.068 -0.246,0.102c-0.088,0.033 -0.177,0.062 -0.268,0.086c-0.091,0.024 -0.18,0.043 -0.269,0.058c-0.088,0.015 -0.17,0.023 -0.246,0.023c-0.211,-0 -0.393,-0.035 -0.547,-0.105c-0.153,-0.07 -0.28,-0.172 -0.378,-0.305c-0.099,-0.133 -0.172,-0.295 -0.219,-0.487c-0.047,-0.191 -0.07,-0.409 -0.07,-0.652c-0,-0.229 0.023,-0.44 0.069,-0.631c0.045,-0.192 0.117,-0.357 0.215,-0.496c0.097,-0.139 0.222,-0.246 0.373,-0.323c0.151,-0.077 0.334,-0.115 0.547,-0.115c0.145,-0 0.305,0.019 0.482,0.058c0.177,0.039 0.362,0.104 0.557,0.196l0,-0.839c-0.096,-0.033 -0.189,-0.059 -0.278,-0.08c-0.09,-0.02 -0.178,-0.037 -0.265,-0.049c-0.088,-0.013 -0.176,-0.022 -0.267,-0.026c-0.091,-0.005 -0.188,-0.007 -0.291,-0.007c-0.319,-0 -0.606,0.053 -0.862,0.16c-0.256,0.107 -0.473,0.261 -0.652,0.464c-0.179,0.203 -0.316,0.452 -0.413,0.747c-0.096,0.295 -0.144,0.632 -0.144,1.01c-0,0.369 0.044,0.693 0.132,0.972c0.089,0.279 0.218,0.512 0.389,0.7c0.171,0.188 0.381,0.33 0.63,0.425c0.249,0.095 0.535,0.143 0.858,0.143c0.202,0 0.397,-0.019 0.584,-0.058c0.186,-0.039 0.38,-0.099 0.579,-0.179Z"/>
</svg>