<svg width="48px" height="48px" viewBox="0 0 48 48" version="1.1" xmlns="http://www.w3.org/2000/svg">
<path fill="#202020" d="M47,5.599l-0,36.802c-0,2.539 -2.06,4.599 -4.598,4.599l-36.804,0c-2.538,0 -4.598,-2.06 -4.598,-4.599l0,-36.802c0,-2.539 2.06,-4.599 4.598,-4.599l36.804,0c2.538,0 4.598,2.06 4.598,4.599Zm-33.422,6.392c1.44,-0 2.142,-1.199 2.142,-2.946c0,-1.545 -0.591,-2.893 -2.099,-2.893c-1.462,0 -2.157,1.295 -2.157,2.93c0.011,1.598 0.652,2.909 2.114,2.909Zm0.025,-4.839c0.529,0 0.799,0.659 0.799,1.912c0,1.286 -0.277,1.927 -0.792,1.927c-0.511,0 -0.825,-0.617 -0.817,-1.911c-0.008,-1.311 0.324,-1.928 0.81,-1.928Zm7.594,4.839c1.444,-0 2.146,-1.199 2.146,-2.946c-0,-1.545 -0.591,-2.893 -2.103,-2.893c-1.458,0 -2.153,1.295 -2.153,2.93c0.011,1.598 0.651,2.909 2.11,2.909Zm0.025,-4.839c0.533,0 0.799,0.659 0.799,1.912c0,1.286 -0.277,1.927 -0.788,1.927c-0.515,0 -0.828,-0.617 -0.818,-1.911c-0.01,-1.311 0.321,-1.928 0.807,-1.928Zm12.419,4.839c1.44,-0 2.146,-1.199 2.146,-2.946c0,-1.545 -0.59,-2.893 -2.103,-2.893c-1.458,0 -2.153,1.295 -2.153,2.93c0.007,1.598 0.652,2.909 2.11,2.909Zm0.025,-4.839c0.53,0 0.8,0.659 0.8,1.912c-0,1.286 -0.278,1.927 -0.789,1.927c-0.515,0 -0.828,-0.617 -0.817,-1.911c-0.011,-1.311 0.32,-1.928 0.806,-1.928Zm-3.514,7.319l-12.304,0l0,19.058l12.304,-0l-0,-19.058Zm-11.605,-4.416l-0,-0.88l-2.276,0l-0,0.88l2.276,0Zm12.444,0l-0,-0.88l-2.276,0l0,0.88l2.276,0Zm-9.794,32.154c1.444,0 2.146,-1.199 2.146,-2.946c-0,-1.544 -0.591,-2.892 -2.103,-2.892c-1.458,-0 -2.153,1.294 -2.153,2.927c0.011,1.598 0.651,2.911 2.11,2.911Zm0.025,-4.839c0.533,0 0.799,0.66 0.799,1.909c0,1.287 -0.277,1.93 -0.788,1.93c-0.515,0 -0.828,-0.616 -0.818,-1.911c-0.01,-1.311 0.321,-1.928 0.807,-1.928Zm-7.644,4.839c1.44,0 2.142,-1.199 2.142,-2.946c0,-1.544 -0.591,-2.892 -2.099,-2.892c-1.462,-0 -2.157,1.294 -2.157,2.927c0.011,1.598 0.652,2.911 2.114,2.911Zm0.025,-4.839c0.529,0 0.799,0.66 0.799,1.909c0,1.287 -0.277,1.93 -0.792,1.93c-0.511,0 -0.825,-0.616 -0.817,-1.911c-0.008,-1.311 0.324,-1.928 0.81,-1.928Zm24.86,-25.379c1.443,-0 2.146,-1.199 2.146,-2.946c-0,-1.545 -0.591,-2.893 -2.1,-2.893c-1.458,0 -2.157,1.295 -2.157,2.93c0.011,1.598 0.652,2.909 2.111,2.909Zm0.028,-4.839c0.53,0 0.8,0.659 0.8,1.912c-0,1.286 -0.281,1.927 -0.792,1.927c-0.512,0 -0.825,-0.617 -0.818,-1.911c-0.007,-1.311 0.321,-1.928 0.81,-1.928Zm-0.028,35.057c1.443,0 2.146,-1.199 2.146,-2.946c-0,-1.544 -0.591,-2.892 -2.1,-2.892c-1.458,-0 -2.157,1.294 -2.157,2.927c0.011,1.598 0.652,2.911 2.111,2.911Zm0.028,-4.839c0.53,0 0.8,0.66 0.8,1.909c-0,1.287 -0.281,1.93 -0.792,1.93c-0.512,0 -0.825,-0.616 -0.818,-1.911c-0.007,-1.311 0.321,-1.928 0.81,-1.928Zm-7.5,2.901l-0,-0.877l-2.276,-0l0,0.877l2.276,-0Zm-12.444,-0l-0,-0.877l-2.276,-0l-0,0.877l2.276,-0Zm7.475,-28.28c1.44,-0 2.142,-1.199 2.142,-2.946c0,-1.545 -0.59,-2.893 -2.103,-2.893c-1.458,0 -2.153,1.295 -2.153,2.93c0.011,1.598 0.652,2.909 2.114,2.909Zm0.025,-4.839c0.529,0 0.799,0.659 0.799,1.912c0,1.286 -0.277,1.927 -0.792,1.927c-0.511,0 -0.824,-0.617 -0.814,-1.911c-0.01,-1.311 0.321,-1.928 0.807,-1.928Zm-0.025,35.057c1.44,0 2.142,-1.199 2.142,-2.946c0,-1.544 -0.59,-2.892 -2.103,-2.892c-1.458,-0 -2.153,1.294 -2.153,2.927c0.011,1.598 0.652,2.911 2.114,2.911Zm0.025,-4.839c0.529,0 0.799,0.66 0.799,1.909c0,1.287 -0.277,1.93 -0.792,1.93c-0.511,0 -0.824,-0.616 -0.814,-1.911c-0.01,-1.311 0.321,-1.928 0.807,-1.928Zm-17.295,-25.379c1.444,-0 2.147,-1.199 2.147,-2.946c-0,-1.545 -0.591,-2.893 -2.103,-2.893c-1.459,0 -2.154,1.295 -2.154,2.93c0.011,1.598 0.652,2.909 2.11,2.909Zm0.026,-4.839c0.533,0 0.799,0.659 0.799,1.912c0,1.286 -0.277,1.927 -0.789,1.927c-0.514,0 -0.824,-0.617 -0.817,-1.911c-0.007,-1.311 0.324,-1.928 0.807,-1.928Zm24.863,35.057c1.44,0 2.146,-1.199 2.146,-2.946c0,-1.544 -0.59,-2.892 -2.103,-2.892c-1.458,-0 -2.153,1.294 -2.153,2.927c0.007,1.598 0.652,2.911 2.11,2.911Zm0.025,-4.839c0.53,0 0.8,0.66 0.8,1.909c-0,1.287 -0.278,1.93 -0.789,1.93c-0.515,0 -0.828,-0.616 -0.817,-1.911c-0.011,-1.311 0.32,-1.928 0.806,-1.928Zm-24.914,4.839c1.444,0 2.147,-1.199 2.147,-2.946c-0,-1.544 -0.591,-2.892 -2.103,-2.892c-1.459,-0 -2.154,1.294 -2.154,2.927c0.011,1.598 0.652,2.911 2.11,2.911Zm0.026,-4.839c0.533,0 0.799,0.66 0.799,1.909c0,1.287 -0.277,1.93 -0.789,1.93c-0.514,0 -0.824,-0.616 -0.817,-1.911c-0.007,-1.311 0.324,-1.928 0.807,-1.928Z"/>
</svg>