<svg xmlns="http://www.w3.org/2000/svg" width="48px" height="48px" version="1.1"><path fill="#202020" d="M32.788,1.784c-1.116,-1.124 -2.936,-1.136 -4.068,-0.008c-0.3,0.296 -0.508,0.656 -0.652,1.016c-2.392,5 -5.024,7.808 -8.356,9.472c-3.724,1.848 -7.052,4.084 -13.96,4.084c-0.376,0 -0.744,0.076 -1.096,0.22c-0.704,0.288 -1.26,0.852 -1.56,1.556c-0.288,0.704 -0.288,1.496 -0,2.196c0.144,0.352 0.36,0.676 0.624,0.936l8.376,8.38c-0,0 -6.492,8.508 -10.64,13.94c-0.228,0.3 -0.2,0.716 0.064,0.984c0.268,0.264 0.684,0.292 0.984,0.064c5.432,-4.148 13.94,-10.64 13.94,-10.64l8.38,8.368c0.26,0.272 0.584,0.476 0.936,0.62c0.352,0.144 0.728,0.228 1.096,0.228c0.38,0 0.748,-0.084 1.1,-0.228c0.704,-0.296 1.268,-0.844 1.556,-1.556c0.144,-0.352 0.228,-0.728 0.228,-1.1c-0,-6.904 2.236,-10.232 4.076,-13.904c1.656,-3.324 4.472,-5.96 9.472,-8.356c0.368,-0.144 0.72,-0.352 1.016,-0.648c1.116,-1.136 1.116,-2.944 -0.008,-4.072l-11.508,-11.552Z"/></svg>