<svg version="1.1" xmlns="http://www.w3.org/2000/svg" x="0px" y="0px" width="48px" height="48px">
<g fill="#202020">
<polygon points="9.339,37.668 9.339,36.41 46.286,36.41 46.286,30.018 1.714,30.018 1.714,46.361 46.286,46.361  46.286,37.668 "/>
<rect x="25.941" y="26.07" width="12.334" height="4.044"/>
<path d="M44.072,2.208H20.146c-1.224,0-2.214,1.044-2.214,2.334v19.292c0,1.289,0.991,2.333,2.214,2.333h23.927 c1.222,0,2.214-1.045,2.214-2.333V4.542C46.286,3.252,45.294,2.208,44.072,2.208z M44.689,24.417H19.528V3.958h25.162V24.417 L44.689,24.417z"/>
<rect x="19.528" y="3.958" fill-opacity="0.5" width="25.162" height="20.459"/>
<path d="M3.337,19.206c-0.193,0-0.389,0.032-0.586,0.097c-0.198,0.064-0.372,0.163-0.522,0.298 c-0.149,0.134-0.274,0.305-0.37,0.515s-0.145,0.453-0.145,0.731v2.747h14.658V21.41c0-0.172-0.003-0.332-0.007-0.482 c-0.006-0.15-0.007-0.247-0.007-0.291c0-0.139-0.027-0.295-0.081-0.467c-0.054-0.172-0.146-0.329-0.274-0.474 c-0.128-0.146-0.298-0.265-0.506-0.362c-0.209-0.096-0.474-0.146-0.795-0.146l-0.576,0.021v1.559l-10.167-0.02L3.96,19.19l0,0  M3.786,29.044c-0.214,0-0.455-0.007-0.722-0.017c-0.268,0-0.488-0.051-0.658-0.152c-0.172-0.102-0.308-0.225-0.41-0.37 s-0.174-0.303-0.217-0.474c-0.043-0.173-0.064-0.332-0.064-0.483l0.004-3.242h14.641l0,0v0.836c0,0.246,0.003,0.524,0.008,0.836 c0.006,0.311,0.004,1.179,0.004,1.49c0,0.311-0.057,0.565-0.169,0.763c-0.112,0.197-0.251,0.359-0.419,0.483 c-0.166,0.124-0.343,0.209-0.529,0.258c-0.187,0.047-0.356,0.071-0.505,0.071c-0.149,0.01-0.308,0.013-0.474,0.007 c-0.166-0.005-0.325-0.007-0.474-0.007 M3.63,25.316c-0.128,0-0.241,0.046-0.338,0.137c-0.096,0.092-0.146,0.207-0.146,0.346 s0.048,0.254,0.146,0.346c0.096,0.091,0.209,0.137,0.338,0.137c0.139,0,0.257-0.046,0.355-0.137 c0.097-0.092,0.145-0.207,0.145-0.346s-0.048-0.254-0.145-0.346C3.887,25.363,3.771,25.316,3.63,25.316z M4.816,19.913v-3.665 c0-0.118,0.013-0.241,0.04-0.37c0.027-0.128,0.081-0.244,0.162-0.345c0.081-0.102,0.19-0.186,0.329-0.249 c0.139-0.064,0.321-0.095,0.546-0.097h6.201c0.332,0,0.609,0.078,0.827,0.233c0.22,0.155,0.329,0.437,0.329,0.844v3.648H4.816 L4.816,19.913z"/>
</g></svg>