<svg version="1.1" xmlns="http://www.w3.org/2000/svg" x="0px" y="0px" width="48px" height="48px" viewBox="0 0 48 48" enable-background="new 0 0 48 48" >
<path fill="#202020" d="M12.706,15.619c-0.926,0.034-1.838,0.053-2.731,0.053H5.693c-0.619,0-1.248,0.105-1.882,0.312 c-0.633,0.207-1.195,0.523-1.675,0.956c-0.479,0.432-0.878,0.979-1.186,1.651c-0.307,0.672-0.465,1.455-0.465,2.347v3.922H47.52 v-2.112c0-0.552-0.01-1.065-0.023-1.55c-0.02-0.48-0.023-0.792-0.023-0.931c0-0.446-0.087-0.946-0.26-1.498 c-0.173-0.552-0.466-1.056-0.879-1.521c-0.412-0.466-0.955-0.85-1.622-1.162c-0.672-0.308-1.521-0.466-2.554-0.466h-6.863v5.001 H12.701L12.706,15.619L12.706,15.619z M47.467,27.639v2.684c0,0.791,0.01,1.684,0.024,2.683c0.019,0.999,0.028,1.991,0.028,2.99 s-0.182,1.814-0.542,2.448c-0.36,0.633-0.806,1.152-1.344,1.551c-0.533,0.398-1.1,0.672-1.699,0.825 c-0.601,0.153-1.143,0.23-1.622,0.23c-0.48,0.033-0.989,0.043-1.521,0.024c-0.533-0.016-1.042-0.024-1.522-0.024h-1.651 l-2.318-6.601H12.653l-2.271,6.601h-3.25c-0.687,0-1.459-0.02-2.318-0.054c-0.859,0-1.565-0.162-2.112-0.488 c-0.552-0.327-0.989-0.721-1.315-1.186c-0.327-0.467-0.557-0.971-0.696-1.522c-0.14-0.552-0.207-1.065-0.207-1.55v-8.611H47.467 L47.467,27.639z M6.619,30.883c-0.413,0-0.773,0.145-1.085,0.438c-0.307,0.293-0.465,0.662-0.465,1.108s0.154,0.815,0.465,1.108 c0.308,0.293,0.672,0.438,1.085,0.438c0.446,0,0.826-0.145,1.138-0.438s0.466-0.662,0.466-1.108s-0.154-0.815-0.466-1.108 C7.445,31.032,7.07,30.883,6.619,30.883z M14.51,37.281c-0.273,0.893-0.518,1.719-0.725,2.477c-0.173,0.653-0.351,1.292-0.542,1.906 c-0.187,0.619-0.317,1.047-0.384,1.291c-0.067,0.24-0.12,0.5-0.154,0.773s-0.019,0.522,0.053,0.748 c0.067,0.226,0.23,0.403,0.49,0.543c0.259,0.139,0.629,0.206,1.109,0.206h18.826c0.792,0,1.378-0.206,1.752-0.619 s0.413-1.065,0.105-1.958c-0.173-0.447-0.336-0.971-0.489-1.574c-0.154-0.601-0.317-1.195-0.49-1.781 c-0.172-0.652-0.359-1.325-0.566-2.012H14.51L14.51,37.281z M15.542,17.942V6.183c0-0.379,0.043-0.773,0.129-1.186 c0.086-0.413,0.259-0.782,0.519-1.108c0.259-0.327,0.609-0.595,1.056-0.797c0.446-0.207,1.032-0.307,1.752-0.312h9.696 c1.065,0,1.954,0.25,2.654,0.749c0.706,0.5,1.056,1.402,1.056,2.708v11.707H15.542L15.542,17.942z"/>
</svg>