<svg version="1.1" xmlns="http://www.w3.org/2000/svg" x="0px" y="0px" width="48px" height="48px">
<g fill="#202020">
<path d="M4.784,15.226c2.05,3.465,5.438,6.884,9.614,9.75c0.955-1.005,2.247-1.687,3.701-1.842 c1.476-5.843,8.406-10.312,17.379-11.174c0.702-2.534,3.02-4.397,5.777-4.397c0.079,0,0.156,0.009,0.235,0.012 C37.113,2.915,30.898,0,24,0C15.165,0,7.45,4.777,3.284,11.886C3.606,12.945,4.097,14.064,4.784,15.226z"/>
<path d="M46.673,16.129c-0.962,2.028-3.022,3.435-5.417,3.435c-2.827,0-5.191-1.958-5.827-4.588 c-7.287,0.797-13.032,4.24-14.345,8.599c2.149,0.913,3.656,3.042,3.656,5.526c0,3.313-2.685,5.999-5.999,5.999 c-3.314,0-6.001-2.687-6.001-5.999c0-0.517,0.086-1.008,0.209-1.486C8.304,24.47,4.51,20.656,2.202,16.753 c-0.245-0.414-0.45-0.821-0.657-1.229C0.549,18.161,0,21.016,0,24c0,13.255,10.745,24,24,24s24-10.745,24-24 C48,21.242,47.529,18.596,46.673,16.129z"/>
</g></svg>