<?xml version="1.0" encoding="UTF-8" standalone="no"?><!DOCTYPE svg PUBLIC "-//W3C//DTD SVG 1.1//EN" "http://www.w3.org/Graphics/SVG/1.1/DTD/svg11.dtd"><svg width="100%" height="100%" viewBox="0 0 48 48" version="1.1" xmlns="http://www.w3.org/2000/svg" xmlns:xlink="http://www.w3.org/1999/xlink" xml:space="preserve" xmlns:serif="http://www.serif.com/" style="fill-rule:evenodd;clip-rule:evenodd;stroke-linejoin:round;stroke-miterlimit:2;"><rect x="26" y="26.019" width="8" height="4" style="fill:#181818;"/><rect x="34" y="30.019" width="4" height="8" style="fill:#181818;"/><rect x="26" y="34.019" width="4" height="4" style="fill:#181818;"/><path d="M26,11l0,12l12,0l0,-12l-12,0Zm4,4l0,4l4,0l0,-4l-4,0Z" style="fill:#181818;"/><path d="M11,11l0,12l12,0l0,-12l-12,0Zm4,4l0,4l4,0l0,-4l-4,0Z" style="fill:#181818;"/><path d="M26,11l0,12l12,0l0,-12l-12,0Zm4,4l0,4l4,0l0,-4l-4,0Z" style="fill:#181818;"/><path d="M11,26.019l0,12l12,0l0,-12l-12,0Zm4,4l0,4l4,0l0,-4l-4,0Z" style="fill:#181818;"/><path d="M2,46l12,0l0,-4l-8,0l0,-8l-4,0l0,12Zm32,0l12,0l0,-12l-4,0l0,8l-8,0l0,4Zm12,-32l0,-12l-12,0l0,4l8,0l0,8l4,0Zm-44,-12l0,12l4,-0l0,-8l8,0l-0,-4l-12,0Z" style="fill:#181818;"/></svg>