<svg width="48px" height="48px" version="1.1" xmlns="http://www.w3.org/2000/svg">
<path full="#202020" d="M14.234,17.379c0,-1.237 0.398,-2.49 1.192,-3.76c0.794,-1.269 1.953,-2.321 3.476,-3.154c1.524,-0.833 3.301,-1.25 5.332,-1.25c1.888,-0 3.555,0.348 5,1.045c1.446,0.696 2.562,1.644 3.35,2.842c0.788,1.197 1.182,2.5 1.182,3.906c-0,1.107 -0.225,2.077 -0.674,2.91c-0.449,0.833 -0.983,1.553 -1.602,2.158c-0.618,0.606 -1.728,1.625 -3.33,3.057c-0.443,0.403 -0.797,0.758 -1.064,1.064c-0.267,0.306 -0.466,0.586 -0.596,0.84c-0.13,0.254 -0.231,0.508 -0.303,0.762c-0.071,0.254 -0.179,0.7 -0.322,1.338c-0.247,1.354 -1.022,2.031 -2.324,2.031c-0.677,-0 -1.247,-0.221 -1.709,-0.664c-0.462,-0.443 -0.694,-1.1 -0.694,-1.973c0,-1.094 0.17,-2.041 0.508,-2.842c0.339,-0.8 0.788,-1.503 1.348,-2.109c0.56,-0.605 1.315,-1.325 2.266,-2.158c0.833,-0.729 1.435,-1.279 1.806,-1.651c0.371,-0.371 0.684,-0.784 0.938,-1.24c0.254,-0.455 0.381,-0.95 0.381,-1.484c-0,-1.042 -0.388,-1.921 -1.163,-2.637c-0.774,-0.716 -1.774,-1.074 -2.998,-1.074c-1.432,-0 -2.487,0.361 -3.164,1.084c-0.677,0.723 -1.25,1.787 -1.718,3.193c-0.443,1.472 -1.283,2.207 -2.52,2.207c-0.729,0 -1.344,-0.257 -1.846,-0.771c-0.501,-0.514 -0.752,-1.071 -0.752,-1.67Zm9.532,21.406c-0.795,0 -1.488,-0.257 -2.08,-0.771c-0.593,-0.515 -0.889,-1.234 -0.889,-2.159c-0,-0.82 0.286,-1.51 0.859,-2.07c0.573,-0.56 1.276,-0.84 2.11,-0.84c0.82,0 1.51,0.28 2.07,0.84c0.56,0.56 0.84,1.25 0.84,2.07c-0,0.912 -0.293,1.628 -0.879,2.149c-0.586,0.521 -1.263,0.781 -2.031,0.781Z"/>
<circle fill="none" stroke="#202020" stroke-width="4px" cx="24" cy="24" r="20.324"/></svg>