<svg width="48px" height="48px" version="1.1" xmlns="http://www.w3.org/2000/svg" xmlns:xlinkstyle="fill-rule:evenodd">
<g fill="#202020">
<path d="M47.895,24.803l0,-11.019c0,-1.537 -1.244,-2.783 -2.781,-2.783l-42.331,0c-1.537,-0 -2.783,1.246 -2.783,2.783l-0,11.019c-0,1.536 1.246,2.783 2.783,2.783l42.33,0c1.537,0 2.783,-1.247 2.783,-2.783l-0.001,0Zm-39.197,-0.709c0,0.741 -0.6,1.34 -1.34,1.34l-2.82,0c-0.74,0 -1.34,-0.599 -1.34,-1.34l0,-9.602c0,-0.74 0.6,-1.34 1.34,-1.34l2.82,0c0.74,0 1.34,0.6 1.34,1.34l0,9.602Zm9,0c0,0.741 -0.6,1.34 -1.34,1.34l-2.82,0c-0.74,0 -1.34,-0.599 -1.34,-1.34l0,-9.602c0,-0.74 0.6,-1.34 1.34,-1.34l2.82,0c0.74,0 1.34,0.6 1.34,1.34l0,9.602Zm8.999,0c-0,0.741 -0.6,1.34 -1.34,1.34l-2.819,0c-0.74,0 -1.34,-0.599 -1.34,-1.34l-0,-9.602c-0,-0.74 0.6,-1.34 1.34,-1.34l2.819,0c0.74,0 1.34,0.6 1.34,1.34l-0,9.602Zm9,0c0,0.741 -0.6,1.34 -1.34,1.34l-2.82,0c-0.738,0 -1.34,-0.599 -1.34,-1.34l0,-9.602c0,-0.74 0.602,-1.34 1.34,-1.34l2.82,0c0.74,0 1.34,0.6 1.34,1.34l0,9.602Zm9,0c0,0.741 -0.6,1.34 -1.34,1.34l-2.82,0c-0.738,0 -1.34,-0.599 -1.34,-1.34l0,-9.602c0,-0.74 0.602,-1.34 1.34,-1.34l2.82,0c0.74,0 1.34,0.6 1.34,1.34l0,9.602Z"/>
<rect x="2" y="27" width="29.35" height="3"/>
<rect x="33.4" y="27.25" width="12.28" height="3"/>
</g></svg>