<svg width="48px" height="48px" viewBox="0 0 48 48" version="1.1" xmlns="http://www.w3.org/2000/svg">
<path fill="#202020" d="M14.258,46.141c-1.067,0.666 -2.487,0.582 -3.473,-0.297l-8.592,-7.658c-1.198,-1.068 -1.304,-2.906 -0.235,-4.104l29.419,-33.006c1.068,-1.199 2.904,-1.303 4.103,-0.235l8.592,7.658c1.046,0.932 1.26,2.453 0.585,3.621l2.122,1.892l-8.534,9.575l-2.077,-1.852l-1.425,1.599l1.882,1.678l-20.398,22.884l-1.969,-1.755Zm8.274,-14.589l-7.487,-6.674c-0.577,-0.514 -1.461,-0.463 -1.976,0.114l-1.96,2.199c-0.514,0.577 -0.463,1.462 0.114,1.976l7.487,6.673c0.578,0.515 1.462,0.464 1.976,-0.113l1.96,-2.199c0.514,-0.577 0.464,-1.461 -0.114,-1.976Zm6.254,-7.017l-7.486,-6.673c-0.577,-0.515 -1.462,-0.464 -1.977,0.113l-1.959,2.198c-0.514,0.577 -0.463,1.462 0.114,1.976l7.487,6.674c0.577,0.515 1.461,0.463 1.976,-0.114l1.959,-2.198c0.514,-0.577 0.464,-1.461 -0.114,-1.976Zm-12.509,14.034l-7.486,-6.673c-0.577,-0.514 -1.462,-0.464 -1.977,0.113l-1.959,2.199c-0.515,0.577 -0.464,1.462 0.113,1.976l7.487,6.674c0.578,0.515 1.462,0.463 1.976,-0.114l1.96,-2.199c0.514,-0.577 0.464,-1.461 -0.114,-1.976Zm18.764,-21.051l-7.487,-6.674c-0.577,-0.514 -1.461,-0.463 -1.976,0.114l-1.96,2.199c-0.512,0.575 -0.463,1.461 0.114,1.976l7.487,6.673c0.578,0.515 1.463,0.462 1.976,-0.114l1.96,-2.198c0.514,-0.577 0.464,-1.461 -0.114,-1.976Zm6.255,-7.018l-7.487,-6.673c-0.577,-0.514 -1.462,-0.464 -1.976,0.113l-1.96,2.199c-0.513,0.576 -0.463,1.462 0.114,1.976l7.487,6.674c0.577,0.515 1.463,0.461 1.976,-0.114l1.96,-2.199c0.514,-0.577 0.464,-1.461 -0.114,-1.976Z"/>
</svg>