<svg width="48px" height="48px" version="1.1" xmlns="http://www.w3.org/2000/svg">
<g fill="#202020">
<circle cx="35.813" cy="26.179" r="7.31"/>
<path d="M41.618,32.261c-1.2,2.129 -3.349,2.891 -5.807,2.891c-2.458,-0 -4.606,-0.762 -5.805,-2.89c-3.231,2.042 -5.389,5.737 -5.389,9.955c0,6.431 5.012,5.764 11.195,5.764c6.183,-0 11.195,0.668 11.195,-5.764c0.001,-4.218 -2.158,-7.915 -5.389,-9.956Z"/>
<path d="M23.868,46.001l-20.206,-0c-0.872,-0 -1.612,-0.306 -2.222,-0.915c-0.61,-0.61 -0.915,-1.349 -0.915,-2.222l-0,-18.819c-0,-0.871 0.305,-1.611 0.915,-2.221c0.61,-0.61 1.35,-0.915 2.222,-0.915l1.047,-0l-0,-6.273c-0,-4.008 1.438,-7.45 4.313,-10.324c2.875,-2.876 6.317,-4.313 10.325,-4.313c4.008,0 7.45,1.437 10.325,4.313c2.875,2.874 4.312,6.316 4.312,10.324l0,2.923c-2.127,0.45 -3.971,1.668 -5.23,3.35l-1.043,-0l-0,-6.273c-0,-2.309 -0.818,-4.28 -2.451,-5.914c-1.633,-1.634 -3.607,-2.45 -5.915,-2.45c-2.309,-0 -4.281,0.816 -5.914,2.45c-1.634,1.634 -2.451,3.605 -2.451,5.914l0,6.273l17.774,-0c-1.099,1.47 -1.751,3.294 -1.751,5.269c0,1.93 0.622,3.715 1.676,5.167c-2.761,1.944 -4.748,4.994 -5.362,8.538l-2.077,-6.887c0.697,-0.37 1.252,-0.88 1.667,-1.534c0.414,-0.653 0.62,-1.383 0.62,-2.188c0,-1.155 -0.408,-2.141 -1.225,-2.956c-0.816,-0.818 -1.799,-1.227 -2.956,-1.227c-1.155,0 -2.14,0.409 -2.957,1.227c-0.817,0.815 -1.225,1.8 -1.225,2.956c-0,0.805 0.207,1.535 0.62,2.188c0.414,0.654 0.969,1.164 1.667,1.534l-2.255,7.483c-0.109,0.326 -0.056,0.632 0.163,0.916c0.218,0.283 0.5,0.425 0.849,0.425l6.275,0c0.249,0 0.465,-0.073 0.648,-0.219c-0.009,0.204 -0.014,0.409 -0.014,0.615c0,1.587 0.278,2.819 0.751,3.785Z"/>
</g></svg>