<svg width="48px" height="48px" version="1.1" xmlns="http://www.w3.org/2000/svg">
<g fill="#202020">
<path d="M41.325,7.851c-4.297,-4.296 -10.008,-6.621 -16.174,-6.621c-5.914,0 -11.473,2.173 -15.668,6.167l-1.264,1.263l-2.729,-2.729c-0.708,-0.708 -1.87,-0.354 -2.123,0.606l-3.336,13.647c-0.202,0.91 0.607,1.718 1.517,1.516l13.697,-3.336c0.96,-0.252 1.263,-1.415 0.606,-2.122l-3.184,-3.185l1.314,-1.314c6.52,-5.964 16.578,-5.762 22.896,0.556c3.538,3.538 5.256,8.391 4.751,13.394c-0.506,4.953 -3.235,9.401 -7.43,12.232c-5.913,3.891 -14.152,3.386 -19.61,-1.214c-1.567,-1.314 -2.831,-2.881 -3.842,-4.599c-0.202,-0.354 -0.606,-0.556 -0.909,-0.404l-4.499,1.87c-0.202,0.101 -0.354,0.253 -0.455,0.455c-0.05,0.202 -0.05,0.404 0.051,0.556c1.01,1.971 2.325,3.74 3.892,5.357c4.397,4.499 10.411,6.824 16.426,6.824c4.852,-0 9.704,-1.517 13.697,-4.549c5.307,-4.044 8.542,-10.109 8.997,-16.679c0.455,-6.621 -1.971,-13.04 -6.622,-17.69l0.001,-0.001Z"/>
<path d="M27.122,13.057l-3.942,0c-0.405,0 -0.758,0.354 -0.758,0.758l-0,11.372c-0,0.961 0.606,1.77 1.465,2.123l8.593,3.083c0.404,0.152 0.859,-0.05 0.96,-0.454l1.314,-3.69c0.05,-0.202 0.05,-0.404 -0.05,-0.606c-0.102,-0.202 -0.253,-0.304 -0.455,-0.405l-5.762,-2.072c-0.404,-0.152 -0.708,-0.556 -0.708,-1.011l0,-8.339c0.102,-0.455 -0.202,-0.759 -0.657,-0.759l0,0Z"/>
</g></svg>