<svg width="48px" height="48px" version="1.1" xmlns="http://www.w3.org/2000/svg">
<path fill="#202020" d="M8.057,45.387c-0.62,1.532 -2.123,2.613 -3.876,2.613c-2.308,0 -4.181,-1.873 -4.181,-4.181c0,-2.307 1.873,-4.181 4.181,-4.181c1.753,0 3.256,1.082 3.876,2.613l5.531,0l-0,-6.738c-1.808,-0.016 -3.236,-0.028 -4.055,-0.036c-0.436,-0.003 -0.795,-0.34 -0.829,-0.773l-1.385,-18.183c-0.032,-0.423 0.255,-0.804 0.671,-0.889l16.124,-3.305c0.132,-0.027 0.267,0.007 0.371,0.091c0.104,0.085 0.164,0.211 0.164,0.345l-0,7.166c-0,0.257 -0.186,0.477 -0.44,0.521l-8.914,1.527c-0.416,0.072 -0.722,0.43 -0.728,0.852l-0.074,4.958c-0.002,0.144 0.069,0.28 0.188,0.361c0.119,0.082 0.272,0.097 0.406,0.042l16.171,-6.68c0.306,-0.127 0.552,-0.367 0.684,-0.67l2.568,-5.882c0.084,-0.192 0.248,-0.338 0.449,-0.398l5,-1.507c0.139,-0.042 0.291,-0.016 0.407,0.07c0.118,0.087 0.187,0.223 0.189,0.369l0.177,21.703c0.002,0.147 -0.056,0.288 -0.161,0.391c-0.102,0.105 -0.244,0.163 -0.392,0.16c-0.955,-0.008 -3.067,-0.026 -5.767,-0.05l0,6.555l5.531,0c0.62,-1.531 2.123,-2.613 3.876,-2.613c2.308,0 4.181,1.874 4.181,4.181c0,2.308 -1.873,4.181 -4.181,4.181c-1.753,0 -3.256,-1.081 -3.876,-2.613l-8.667,-0l0,-9.718c-4.63,-0.041 -10.141,-0.089 -14.552,-0.128l-0,9.846l-8.667,-0Zm18.145,-44.057c0.001,-0.202 0.166,-0.365 0.367,-0.365l4.591,0c0.374,0 0.68,0.294 0.697,0.668l0.429,10.318c0.007,0.154 -0.098,0.291 -0.248,0.325l-5.365,1.219c-0.136,0.031 -0.28,-0.002 -0.389,-0.089c-0.109,-0.088 -0.172,-0.22 -0.17,-0.361l0.088,-11.715Zm-16.329,-0.365l5.389,0c0.298,0 0.541,0.236 0.551,0.533l0.337,10.088c0.012,0.365 -0.239,0.686 -0.596,0.763l-5.193,1.113c-0.186,0.04 -0.38,-0.005 -0.529,-0.123c-0.149,-0.118 -0.238,-0.296 -0.242,-0.486l-0.252,-11.341c-0.003,-0.144 0.052,-0.283 0.153,-0.386c0.1,-0.103 0.238,-0.161 0.382,-0.161Zm7.991,0.705c-0.001,-0.186 0.072,-0.366 0.203,-0.498c0.131,-0.133 0.31,-0.207 0.496,-0.207l4.046,0c0.414,0 0.757,0.319 0.786,0.731l0.567,8.008c0.022,0.31 -0.193,0.587 -0.499,0.645l-4.842,0.9c-0.166,0.031 -0.337,-0.013 -0.467,-0.12c-0.131,-0.108 -0.206,-0.267 -0.208,-0.436l-0.082,-9.023Zm16.405,-0.397c-0,-0.082 0.031,-0.16 0.089,-0.218c0.057,-0.058 0.135,-0.09 0.217,-0.09l4.392,0c0.471,0 0.866,0.359 0.911,0.828l0.802,8.342c0.033,0.333 -0.187,0.639 -0.513,0.715l-5.243,1.235c-0.137,0.031 -0.281,-0 -0.392,-0.087c-0.109,-0.087 -0.174,-0.219 -0.175,-0.359l-0.088,-10.366Z"/>
</svg>