<svg width="48px" height="48px" version="1.1" xmlns="http://www.w3.org/2000/svg">
<path fill="#202020" d="M20,18.494l-6.964,-2.263c-2.099,-0.682 -4.358,0.469 -5.04,2.568c-0.682,2.1 0.469,4.359 2.568,5.041l6.964,2.263l-4.303,5.922c-1.298,1.786 -0.901,4.29 0.885,5.588c1.786,1.297 4.29,0.901 5.587,-0.885l4.303,-5.923l4.303,5.923c1.297,1.786 3.801,2.182 5.587,0.885c1.786,-1.298 2.183,-3.802 0.885,-5.588l-4.303,-5.922l6.964,-2.263c2.099,-0.682 3.25,-2.941 2.568,-5.041c-0.682,-2.099 -2.941,-3.25 -5.04,-2.568l-6.964,2.263l0,-7.259c0,-2.207 -1.792,-4 -4,-4c-2.208,0 -4,1.793 -4,4l-0,7.259Z"/>
</svg>