<svg width="48px" height="48px" version="1.1" xmlns="http://www.w3.org/2000/svg">
<path fill="#202020" d="M3.366,6.524l20.644,-6.024l20.624,6.024l-0,12.355c-0,12.987 -8.31,24.515 -20.631,28.621c-12.324,-4.106 -20.637,-15.637 -20.637,-28.626l0,-12.35Zm20.413,27.901c1.391,-0.212 6.843,-0.9 8.282,-1.119c0.255,-0.04 0.443,-0.26 0.443,-0.519l0,-2.442c0,-0.229 -0.168,-0.424 -0.395,-0.46c-1.372,-0.208 -6.867,-0.903 -8.306,-1.123c-0.255,-0.037 -0.443,-0.256 -0.443,-0.512l0,-3.769c0,-0.196 -0.116,-0.371 -0.296,-0.443c-0.18,-0.076 -0.388,-0.037 -0.523,0.103c-1.631,1.627 -5.244,5.24 -6.758,6.759c-0.384,0.38 -0.384,1.003 -0,1.387l6.834,6.834c0.124,0.124 0.312,0.159 0.476,0.092c0.163,-0.068 0.267,-0.224 0.267,-0.404l0,-3.901c0,-0.239 0.18,-0.448 0.419,-0.483Zm0.442,-17.702c0.239,0.036 0.419,0.244 0.419,0.484l-0,3.901c-0,0.179 0.104,0.335 0.267,0.403c0.164,0.068 0.352,0.032 0.476,-0.092l6.834,-6.834c0.384,-0.384 0.384,-1.007 0,-1.387c-1.514,-1.518 -5.127,-5.131 -6.758,-6.758c-0.135,-0.14 -0.343,-0.18 -0.523,-0.104c-0.18,0.072 -0.296,0.248 -0.296,0.443l-0,3.769c-0,0.256 -0.188,0.476 -0.443,0.512c-1.439,0.22 -6.934,0.915 -8.306,1.123c-0.227,0.036 -0.395,0.232 -0.395,0.46l-0,2.442c-0,0.259 0.188,0.479 0.443,0.519c1.439,0.219 6.891,0.907 8.282,1.119Z"/>
</svg>