<svg width="48px" height="48px" version="1.1" xmlns="http://www.w3.org/2000/svg">
<path fill="#202020" d="M9.006,6.161l-0.001,-0.013c-0.066,-0.665 0.298,-1.262 0.899,-1.558c0.595,-0.294 1.264,-0.221 1.783,0.218c1.644,1.377 3.641,2.057 5.435,2.745c1.345,0.495 2.596,0.943 3.572,1.588c1.063,0.702 1.818,1.626 2.078,3.042c0.116,0.578 0.063,1.215 -0.112,1.85l0.008,-0.034l-0.077,0.219l-0.128,0.185l-0.165,0.138l-0.187,0.091l-0.2,0.045l-0.208,-0.003l-0.208,-0.055l-0.195,-0.109l0.027,0.019c-0.524,-0.338 -1.154,-0.701 -1.879,-1.029c1.018,0.765 2.235,1.85 3.663,3.449c2.629,-2.974 5.409,-5.521 7.266,-7.047c-1.424,0.438 -2.586,1.066 -3.454,1.626l0.027,-0.018l-0.195,0.108l-0.207,0.055l-0.208,0.004l-0.201,-0.045l-0.187,-0.091l-0.164,-0.139l-0.129,-0.184l-0.077,-0.22l0.009,0.035c-0.176,-0.635 -0.23,-1.212 -0.113,-1.847c0.258,-1.416 1.014,-2.355 2.076,-3.063c0.979,-0.653 2.233,-1.103 3.582,-1.573c1.741,-0.638 3.735,-1.317 5.374,-2.69c0.521,-0.441 1.19,-0.514 1.785,-0.22c0.59,0.291 0.9,0.865 0.9,1.52l-0.001,0.022c-0.094,2.168 -0.511,5.375 -1.493,7.951c-0.691,1.812 -1.674,3.309 -2.975,4.006c-1.52,0.827 -3.434,0.803 -5.233,-0.019c-2.001,2.341 -3.394,3.97 -4.641,5.889l0,2.598l6.097,-0c2.847,-0 5.121,3.251 5.121,6.061c0,0 0.29,2.521 0.597,3.276c0.038,0.093 0.755,3.444 0.755,3.444c1.256,0.643 2.05,1.873 1.844,3.391c-0.016,2.033 -1.725,3.717 -3.789,3.717c-2.074,-0 -3.789,-1.7 -3.789,-3.748c0,-1.401 0.849,-2.658 2.049,-3.303c0,-0 -0.052,-2.237 -0.714,-3.913l-0.689,-2.813c-0,-0.841 -0.7,-2.562 -1.59,-2.562l-6.045,-0l-0.267,12.006c1.241,0.603 2.049,1.861 2.049,3.32c0,2.047 -1.715,3.747 -3.789,3.747c-2.074,0 -3.789,-1.7 -3.789,-3.747c-0,-1.401 0.849,-2.659 2.049,-3.304l0.317,-8.074l-6.045,0c-0.851,0 -1.59,0.687 -1.59,0.687c-1.19,1.797 -2.388,2.958 -2.403,3.993l-0.001,1.635c1.242,0.604 2.05,1.862 2.05,3.321c-0,2.047 -1.715,3.747 -3.789,3.747c-2.074,-0 -3.79,-1.7 -3.79,-3.747c0,-1.402 0.849,-2.659 2.049,-3.304l0,-1.652c0.374,-3.21 3.279,-5.967 3.279,-5.967c-0,-0 1.399,-2.212 4.246,-2.212l6.046,-0l-0.001,-6.645c-1.153,-1.735 -0.784,-0.798 -2.606,-2.886c-1.795,0.862 -3.663,0.845 -5.237,0.016l-0.003,-0.002c-1.301,-0.697 -2.285,-2.194 -2.976,-4.006c-0.978,-2.564 -1.395,-5.755 -1.492,-7.922Z"/>
</svg>