<svg width="48px" height="48px" version="1.1" xmlns="http://www.w3.org/2000/svg">
<path fill="#202020" d="M24,0c13.246,0 24,10.754 24,24c0,13.246 -10.754,24 -24,24c-13.246,0 -24,-10.754 -24,-24c0,-13.246 10.754,-24 24,-24Zm2.921,36.363l0,-0.001c-0.221,-1.454 -0.938,-5.137 -1.167,-6.633c-0.042,-0.267 -0.271,-0.462 -0.542,-0.462l-2.545,0c-0.238,0 -0.442,0.175 -0.48,0.412c-0.216,1.429 -0.941,5.158 -1.17,6.658c-0.038,0.267 -0.267,0.459 -0.534,0.459l-3.929,0c-0.204,0 -0.387,0.125 -0.462,0.312c-0.08,0.188 -0.038,0.404 0.108,0.546c1.696,1.7 5.462,5.463 7.046,7.046c0.396,0.4 1.046,0.4 1.446,0c1.604,-1.608 5.466,-5.467 7.125,-7.125c0.129,-0.129 0.166,-0.325 0.095,-0.496c-0.07,-0.171 -0.233,-0.283 -0.42,-0.283l-4.067,0c-0.25,0 -0.467,-0.183 -0.504,-0.433Zm9.983,-9.441c1.45,-0.221 5.133,-0.938 6.633,-1.167c0.267,-0.041 0.463,-0.271 0.463,-0.541l0,-2.546c0,-0.238 -0.175,-0.442 -0.413,-0.479c-1.429,-0.217 -5.158,-0.942 -6.658,-1.171c-0.267,-0.038 -0.462,-0.267 -0.462,-0.534l0,-3.929c0,-0.204 -0.121,-0.387 -0.309,-0.462c-0.187,-0.079 -0.404,-0.038 -0.546,0.108c-1.7,1.696 -5.466,5.463 -7.045,7.046c-0.4,0.396 -0.4,1.046 0,1.446c1.604,1.604 5.466,5.466 7.125,7.125c0.129,0.129 0.325,0.166 0.495,0.096c0.171,-0.071 0.28,-0.234 0.28,-0.421l0,-4.067c0,-0.25 0.187,-0.467 0.437,-0.504Zm-25.808,-0c0.25,0.037 0.437,0.254 0.437,0.504l0,4.067c0,0.187 0.109,0.35 0.279,0.421c0.171,0.07 0.367,0.033 0.496,-0.096c1.659,-1.659 5.521,-5.521 7.125,-7.125c0.4,-0.4 0.4,-1.05 0,-1.446c-1.579,-1.583 -5.346,-5.35 -7.046,-7.046c-0.141,-0.146 -0.358,-0.187 -0.545,-0.108c-0.188,0.075 -0.309,0.258 -0.309,0.462l0,3.929c0,0.267 -0.196,0.496 -0.462,0.534c-1.5,0.229 -5.229,0.954 -6.659,1.171c-0.237,0.037 -0.412,0.241 -0.412,0.479l0,2.546c0,0.27 0.196,0.5 0.462,0.541c1.5,0.229 5.184,0.946 6.634,1.167Zm9.983,-15.283c0.221,1.454 0.938,5.137 1.167,6.633c0.041,0.267 0.271,0.462 0.541,0.462l2.546,-0c0.238,-0 0.442,-0.175 0.479,-0.412c0.217,-1.429 0.942,-5.158 1.171,-6.658c0.038,-0.267 0.267,-0.459 0.534,-0.459l3.929,-0c0.204,-0 0.387,-0.125 0.462,-0.312c0.079,-0.188 0.038,-0.404 -0.108,-0.546c-1.696,-1.7 -5.463,-5.463 -7.046,-7.046c-0.396,-0.4 -1.046,-0.4 -1.446,-0c-1.604,1.608 -5.466,5.467 -7.125,7.125c-0.129,0.129 -0.166,0.325 -0.096,0.496c0.071,0.171 0.234,0.283 0.421,0.283l4.067,-0c0.25,-0 0.467,0.184 0.504,0.434Z"/>
</svg>