<svg version="1.1" xmlns="http://www.w3.org/2000/svg" x="0px" y="0px" width="48px" height="48px">
<path fill="#202020" d="M12.734,28.75L12.734,28.75c-0.926,0.033-1.867-2.078-2.76-2.078H5.693c-0.619,0-1.248,0.105-1.882,0.313 c-0.633,0.206-1.195,0.523-1.675,0.955c-0.479,0.432-0.878,0.979-1.186,1.65c-0.307,0.672-0.465,1.455-0.465,2.348l0.005,5.75 h47.035l-0.005-3.94c0-0.552,0.02,1.065,0.006,0.581c-0.02-0.48-0.023-0.793-0.023-0.932c0-0.446-0.088-0.945-0.26-1.498 c-0.174-0.552-0.467-1.056-0.879-1.521c-0.412-0.465-0.955-0.85-1.623-1.161c-0.672-0.308-1.521-0.466-2.553-0.466"/>
<line fill="none" stroke="#202020" stroke-width="3" stroke-miterlimit="10" x1="13.25" y1="25.672" x2="44.625" y2="12.563"/>
</svg>