<svg width="48px" height="48px" version="1.1" xmlns="http://www.w3.org/2000/svg" style="fill-rule:evenodd">
<path fill="#202020" d="M27,39c0.826,0 1.5,0.674 1.5,1.5l0,1.5c0,0.826 0.539,1.904 1.201,2.399l6.598,2.702c0.172,0.969 0.527,0.899 -0.299,0.899l-24,0c-0.826,0 -0.451,-0.012 -0.299,-0.899l6.598,-2.702c0.662,-0.495 1.201,-1.573 1.201,-2.399l0,-1.5c0,-0.826 0.674,-1.5 1.5,-1.5l6,0Zm18,-38l-42,0c-1.658,0 -3,1.343 -3,3l0,31.5c0,1.658 1.342,3 3,3l42,0c1.658,0 3,-1.342 3,-3l0,-31.5c0,-1.657 -1.342,-3 -3,-3Zm0,34.463l-9.975,0l-0,-3l6.975,0l0,-6.975l3,0l0,9.975Zm-42,0l9.975,0l0,-3l-6.975,0l0,-6.975l-3,0l0,9.975Zm21,-23.989c4.465,0 8.09,3.625 8.09,8.09c0,4.464 -3.625,8.089 -8.09,8.089c-4.465,0 -8.09,-3.625 -8.09,-8.089c0,-4.465 3.625,-8.09 8.09,-8.09Zm-21,-7.474l-0,9.975l3,0l-0,-6.975l6.975,0l0,-3l-9.975,0Zm42,0l-0,9.975l-3,0l-0,-6.975l-6.975,0l-0,-3l9.975,0Z"/>
</svg>