<svg width="48px" height="48px" viewBox="0 0 48 48" version="1.1" xmlns="http://www.w3.org/2000/svg">
<path fill="#202020" d="M43.5,5.999c2.485,-0 4.5,2.015 4.5,4.5l0,27.002c0,2.485 -2.015,4.5 -4.5,4.5l-39,0c-2.485,0 -4.5,-2.015 -4.5,-4.5l0,-27.002c0,-2.485 2.015,-4.5 4.5,-4.5l39,0Zm-19.505,7.201c-0.398,0 -1.78,0.201 -2.061,0.483l-7.5,7.509c-0.585,0.586 0.415,1.536 1.002,2.121c0.586,0.586 1.536,1.585 2.121,0.999l3.938,-3.944l-0,14.89c-0,0.828 1.672,0.742 2.5,0.742c0.829,0 2.5,0.086 2.5,-0.742l-0,-14.894l3.949,3.948c0.586,0.586 1.535,-0.414 2.121,-1c0.586,-0.585 1.586,-1.535 1,-2.121l-7.509,-7.509c-0.281,-0.281 -1.663,-0.482 -2.061,-0.482Z"/>
</svg>