<svg width="48px" height="48px" version="1.1" xmlns="http://www.w3.org/2000/svg">
<path fill="#202020" d="M27,39c0.826,0 1.5,0.674 1.5,1.5l0,1.5c0,0.826 0.539,1.904 1.201,2.399l6.598,2.702c0.172,0.969 0.527,0.899 -0.299,0.899l-24,0c-0.826,0 -0.451,-0.012 -0.299,-0.899l6.598,-2.702c0.662,-0.495 1.201,-1.573 1.201,-2.399l0,-1.5c0,-0.826 0.674,-1.5 1.5,-1.5l6,0Zm18,-38l-42,0c-1.658,0 -3,1.343 -3,3l0,31.5c0,1.658 1.342,3 3,3l42,0c1.658,0 3,-1.342 3,-3l0,-31.5c0,-1.657 -1.342,-3 -3,-3Zm-20.253,8.98c0,-0.886 0.915,-1.391 1.616,-1.022l0.147,0.093l0.122,0.105l8.902,8.752c0.37,0.363 0.441,0.922 0.213,1.36l-0.099,0.158l-0.113,0.13l-8.903,8.754c-0.624,0.614 -1.612,0.287 -1.838,-0.488l-0.036,-0.173l-0.011,-0.163l0,-4.148l-0.51,0.046c-0.492,0.053 -0.982,0.13 -1.469,0.231c-3.036,0.63 -5.965,2.201 -8.799,4.732c-0.771,0.689 -1.964,0.038 -1.837,-1.002c0.963,-7.894 4.914,-12.334 11.647,-13.07l0.524,-0.049l0.444,-0.03l0,-4.216Z"/>
</svg>