<svg width="48px" height="48px" version="1.1" xmlns="http://www.w3.org/2000/svg" style="fill-rule:evenodd">
<path fill="#202020" d="M39.651,0l-27.622,0l-7.92,8.05l0,35.15c0,4.7 0.1,4.8 4.72,4.8l30.34,0c4.75,-0 4.721,-0.1 4.721,-4.8l0,-38.4c0,-4.701 0.065,-4.799 -4.239,-4.8Zm-13.929,43.667l-12.502,-0l0,2.097l12.502,0l0,-2.097Zm-10.502,-3.087l-2,0l0,2.098l2,-0l0,-2.098Zm4.61,-3.087l-6.61,0l0,2.098l6.61,-0l0,-2.098Zm-1.235,-3.086l-5.375,-0l0,2.097l5.375,0l-0,-2.097Zm-3.831,-3.087l-1.544,-0l0,2.097l1.544,0l0,-2.097Zm17.506,-0l-17.05,-0l0,2.097l17.05,0l0,-2.097Zm-13.675,-3.087l-5.375,0l0,2.098l5.375,-0l-0,-2.098Zm8.532,0l-7.907,0l0,2.098l7.907,-0l0,-2.098Zm-10.818,-3.087l-3.089,0l0,2.098l3.089,-0l-0,-2.098Zm3.089,-3.086l-6.178,-0l0,2.097l6.178,0l-0,-2.097Zm9.841,-0l-9.019,-0l0,2.097l9.019,0l0,-2.097Zm-6.753,-3.087l-9.266,-0l0,2.097l9.266,0l0,-2.097Zm2.657,-3.087l-11.923,-0l0,2.098l11.923,-0l-0,-2.098Zm1.544,-3.087l-13.467,0l0,2.098l13.467,-0l0,-2.098Zm-20.258,-2.829l7.48,-7.53l0,7.53l-7.48,-0Zm20.549,-3.645c-1.301,-0 -2.354,-1.054 -2.354,-2.355c0,-1.301 1.056,-2.356 2.354,-2.356c1.301,-0 2.355,1.055 2.355,2.356c0.001,1.301 -1.055,2.355 -2.355,2.355Zm6,-0c-1.301,-0 -2.354,-1.054 -2.354,-2.355c0,-1.301 1.056,-2.356 2.354,-2.356c1.301,-0 2.355,1.055 2.355,2.356c0.001,1.301 -1.055,2.355 -2.355,2.355Zm6,-0c-1.301,-0 -2.354,-1.054 -2.354,-2.355c0,-1.301 1.056,-2.356 2.354,-2.356c1.301,-0 2.355,1.055 2.355,2.356c0.001,1.301 -1.055,2.355 -2.355,2.355Z"/>
</svg>