<svg width="48px" height="48px" viewBox="0 0 48 48" version="1.1" xmlns="http://www.w3.org/2000/svg" style="fill-rule:evenodd">
<path fill="#202020" d="M39,15c0,-8.279 -6.721,-15 -15,-15c-8.279,0 -15,6.721 -15,15l0,18c0,8.279 6.721,15 15,15c8.279,0 15,-6.721 15,-15l0,-18Zm-10.178,15.239l-4.822,6l-4.822,-6l-4.821,0l9.643,12l9.643,-12l-4.821,0Zm-4.822,-6.239c1.377,-0 2.496,1.118 2.496,2.496c-0,1.377 -1.119,2.495 -2.496,2.495c-1.377,0 -2.496,-1.118 -2.496,-2.495c0,-1.378 1.119,-2.496 2.496,-2.496Zm-0,-8c1.377,-0 2.496,1.118 2.496,2.496c-0,1.377 -1.119,2.495 -2.496,2.495c-1.377,0 -2.496,-1.118 -2.496,-2.495c0,-1.378 1.119,-2.496 2.496,-2.496Zm-0,-8c1.377,-0 2.496,1.118 2.496,2.496c-0,1.377 -1.119,2.495 -2.496,2.495c-1.377,0 -2.496,-1.118 -2.496,-2.495c0,-1.378 1.119,-2.496 2.496,-2.496Z"/>
</svg>