<svg version="1.1" xmlns="http://www.w3.org/2000/svg" x="0px" y="0px" width="48px" height="48px">
<path fill="#202020" d="M6.34,26.007c4.302,5.089,11.2,6.667,17.099,4.456c1.314-0.492,3.026-0.217,3.934,0.854l0.641,0.76 c0.905,1.071,1.787,1.814,1.169,2.338c-0.616,0.521-0.382,1.813,0.523,2.884l7.654,9.053c0.906,1.071,2.509,1.206,3.581,0.3 l3.448-2.917c1.07-0.904,1.205-2.508,0.3-3.58l-7.655-9.051c-0.907-1.071-2.141-1.519-2.759-0.995 c-0.616,0.522-1.206-0.47-2.11-1.542l-0.642-0.758c-0.905-1.071-0.894-2.807-0.19-4.021c3.163-5.45,2.751-12.514-1.552-17.602 C24.308-0.287,14.623-1.097,8.149,4.377C1.675,9.851,0.866,19.537,6.34,26.007z M25.353,24.719 C20.59,28.746,13.467,28.15,9.44,23.39c-4.027-4.762-3.431-11.886,1.331-15.912c4.761-4.027,11.885-3.431,15.911,1.33 C30.708,13.57,30.112,20.693,25.353,24.719z"/>
</svg>