<svg width="48px" height="48px" viewBox="0 0 48 48" version="1.1" xmlns="http://www.w3.org/2000/svg" >
<g fill="#202020">
<path d="M41.782,26.099c2.884,0 5.227,2.343 5.227,5.226l-0,10.449c-0,2.887 -2.343,5.226 -5.227,5.226l-35.564,0c-2.884,0 -5.227,-2.339 -5.227,-5.226l0,-10.449c0,-2.883 2.343,-5.226 5.227,-5.226l35.564,0Zm-26.166,2.095l-8.358,0c-2.303,0 -4.176,1.873 -4.176,4.177l-0,8.357c-0,2.309 1.873,4.181 4.176,4.181l8.358,0c2.308,0 4.181,-1.872 4.181,-4.181l0,-8.357c0,-2.304 -1.873,-4.177 -4.181,-4.177Z"/>
<path d="M41.782,1c2.884,-0 5.227,2.343 5.227,5.226l-0,10.449c-0,2.887 -2.343,5.226 -5.227,5.226l-35.564,-0c-2.884,-0 -5.227,-2.339 -5.227,-5.226l0,-10.449c0,-2.883 2.343,-5.226 5.227,-5.226l35.564,-0Zm-26.166,2.095l-8.358,-0c-2.303,-0 -4.176,1.873 -4.176,4.177l-0,8.357c-0,2.309 1.873,4.181 4.176,4.181l8.358,0c2.308,0 4.181,-1.872 4.181,-4.181l0,-8.357c0,-2.304 -1.873,-4.177 -4.181,-4.177Z"/>
</g></svg>