<svg width="48px" height="48px" version="1.1" xmlns="http://www.w3.org/2000/svg">
<path fill="#202020" d="M33.382,24.948l-26.366,1.571c-0.627,-0 -0.941,0.314 -0.941,0.628l-3.767,12.88c-0.628,1.57 -0.323,3.749 1.256,5.008c1.261,0.94 3.452,1.16 4.708,0.646l35.154,-17.592c1.884,-0.942 2.825,-2.827 2.511,-4.712c-0.314,-1.256 -1.255,-2.513 -2.511,-3.141l-35.154,-17.906c-1.569,-0.527 -3.453,-0.314 -4.708,0.629c-1.57,1.256 -1.884,3.141 -1.256,5.026l3.767,12.879c-0,0.314 0.628,0.629 0.941,0.629l26.366,1.57c0,0 0.942,0 0.942,0.943c-0,0.942 -0.942,0.942 -0.942,0.942Z"/>
</svg>