<svg width="48px" height="48px" viewBox="0 0 48 48" version="1.1" xmlns="http://www.w3.org/2000/svg" style="fill-rule:evenodd">
<path fill="#202020" d="M27.304,2.281c12.483,2.261 21.132,12.255 19.305,22.336c-1.23,6.792 -4.648,11.122 -12.033,13.031c0.759,2.751 0.812,6.031 3.251,8.517c-4.559,0.188 -9.043,-1.422 -12.099,-6.684l-0.233,-0.283c-1.577,-0.014 -3.172,-0.142 -4.799,-0.437c-12.483,-2.261 -21.132,-12.256 -19.305,-22.337c1.826,-10.08 13.431,-16.407 25.913,-14.145l-0,0.002Zm-13.095,21.518l0,-6.675l11.212,-0l-1,-6.199l10.537,9.536l-10.537,9.537l1,-6.199l-11.212,0Z"/>
</svg>