<svg width="48px" height="48px" viewBox="0 0 48 48" version="1.1" xmlns="http://www.w3.org/2000/svg">
<g fill="#202020">
<path d="M34.866,18.799c-0.11,-0.006 -21.516,0.016 -21.516,0.016c-1.913,0 -2.399,1.424 -2.64,3.359c-0.13,1.931 2.08,7.695 2.08,7.695c0.307,0.944 0.932,1.369 2,1.328l18.987,0c0.895,0.048 1.416,-0.4 1.586,-1.152c0,0 2.123,-6.191 1.919,-8.142c-0.145,-1.134 -0.746,-3.056 -2.416,-3.104Zm-1.857,3.392c0.509,0 0.928,0.42 0.928,0.928c0,0.508 -0.419,0.912 -0.928,0.912c-0.508,0 -0.911,-0.404 -0.911,-0.912c0,-0.508 0.403,-0.928 0.911,-0.928Zm-18.028,0.064c0.507,0 0.912,0.42 0.912,0.927c0,0.508 -0.405,0.913 -0.912,0.913c-0.507,0 -0.927,-0.405 -0.927,-0.913c0,-0.507 0.42,-0.927 0.927,-0.927Zm4.512,0c0.507,0 0.912,0.42 0.912,0.927c0,0.508 -0.405,0.913 -0.912,0.913c-0.508,0 -0.928,-0.405 -0.928,-0.913c0,-0.507 0.42,-0.927 0.928,-0.927Zm4.511,0c0.506,0 0.912,0.42 0.912,0.927c0,0.508 -0.405,0.913 -0.912,0.913c-0.507,0 -0.928,-0.405 -0.928,-0.913c0,-0.507 0.421,-0.927 0.928,-0.927Zm4.495,0c0.507,0 0.929,0.42 0.929,0.927c0,0.508 -0.422,0.913 -0.929,0.913c-0.507,0 -0.911,-0.405 -0.911,-0.913c-0.001,-0.507 0.404,-0.927 0.911,-0.927Zm-10.99,3.712c0.508,0 0.929,0.42 0.929,0.927c0,0.509 -0.421,0.912 -0.929,0.912c-0.507,0 -0.911,-0.403 -0.911,-0.912c0,-0.507 0.403,-0.927 0.911,-0.927Zm4.511,0c0.507,0 0.928,0.42 0.928,0.927c0,0.509 -0.421,0.912 -0.928,0.912c-0.507,0 -0.912,-0.403 -0.912,-0.912c0,-0.507 0.405,-0.927 0.912,-0.927Zm4.511,0c0.509,0 0.912,0.42 0.912,0.927c0,0.509 -0.403,0.912 -0.912,0.912c-0.507,0 -0.911,-0.403 -0.911,-0.912c0,-0.507 0.404,-0.927 0.911,-0.927Zm4.512,0c0.507,0 0.91,0.42 0.91,0.927c0,0.509 -0.403,0.912 -0.91,0.912c-0.51,0 -0.929,-0.403 -0.929,-0.912c0.001,-0.507 0.42,-0.927 0.929,-0.927Z"/>
<path d="M44.568,4.428l-41.139,0c-1.893,0 -3.429,1.532 -3.429,3.426l0,34.289c0,1.895 1.536,3.428 3.429,3.428l41.139,0c1.89,0 3.432,-1.533 3.432,-3.428l0,-34.289c0,-1.894 -1.543,-3.426 -3.432,-3.426Zm-9.621,12.873c1.134,0.044 1.989,0.572 2.612,1.338c0.73,0.896 1.095,2.168 1.211,3.074c0.001,0.011 0.003,0.023 0.004,0.034c0.072,0.692 -0.072,1.84 -0.353,3.101c-0.52,2.339 -1.457,5.146 -1.613,5.603c-0.178,0.718 -0.548,1.277 -1.059,1.665c-0.502,0.381 -1.162,0.617 -2.007,0.581c0,-0 -18.927,-0 -18.898,-0.001c-0.907,0.035 -1.615,-0.174 -2.173,-0.546c-0.575,-0.384 -1.02,-0.958 -1.295,-1.778c-0.127,-0.335 -1.143,-3.035 -1.727,-5.311c-0.308,-1.199 -0.482,-2.3 -0.436,-2.987c0.002,-0.029 0.005,-0.057 0.008,-0.085c0.233,-1.871 0.806,-3.317 1.931,-4.064c0.562,-0.373 1.273,-0.61 2.196,-0.61c-0,-0 21.412,-0.019 21.599,-0.014Zm8.073,5.718c1.093,-0 1.98,0.888 1.98,1.981c0,1.092 -0.887,1.98 -1.98,1.98c-1.093,-0 -1.981,-0.888 -1.981,-1.98c0,-1.093 0.888,-1.981 1.981,-1.981Zm-38.04,-0c1.093,-0 1.981,0.888 1.981,1.981c0,1.092 -0.888,1.98 -1.981,1.98c-1.093,-0 -1.98,-0.888 -1.98,-1.98c0,-1.093 0.887,-1.981 1.98,-1.981Zm39.035,-16.591c1.096,-0 1.985,0.889 1.985,1.985c-0,1.096 -0.889,1.985 -1.985,1.985c-1.096,-0 -1.985,-0.889 -1.985,-1.985c-0,-1.096 0.889,-1.985 1.985,-1.985Zm-5,-0c1.096,-0 1.985,0.889 1.985,1.985c-0,1.096 -0.889,1.985 -1.985,1.985c-1.096,-0 -1.985,-0.889 -1.985,-1.985c-0,-1.096 0.889,-1.985 1.985,-1.985Zm-5,-0c1.096,-0 1.985,0.889 1.985,1.985c-0,1.096 -0.889,1.985 -1.985,1.985c-1.096,-0 -1.985,-0.889 -1.985,-1.985c-0,-1.096 0.889,-1.985 1.985,-1.985Z"/>
</g></svg>