<svg width="48px" height="48px" version="1.1" xmlns="http://www.w3.org/2000/svg">
<path fill="#202020" d="M15.89,15.279l-0,2.221l-12.952,0c-1.272,0 -2.303,1.031 -2.303,2.304l-0,8.172c-0,1.272 1.031,2.303 2.303,2.303l12.952,-0l-0,2.221l-12.952,0c-1.272,0 -2.303,1.031 -2.303,2.304l-0,8.172c-0,1.272 1.031,2.303 2.303,2.303l41.903,0c1.271,0 2.303,-1.031 2.303,-2.303l0,-8.172c0,-1.273 -1.032,-2.304 -2.303,-2.304l-12.951,0l-0,-2.221l12.951,0c1.271,0 2.303,-1.031 2.303,-2.303l0,-8.172c0,-1.273 -1.032,-2.304 -2.303,-2.304l-12.951,0l-0,-2.221l12.951,0c1.271,0 2.303,-1.031 2.303,-2.303l0,-8.172c0,-1.273 -1.032,-2.304 -2.303,-2.304l-41.903,0c-1.272,0 -2.303,1.031 -2.303,2.304l-0,8.172c-0,1.272 1.031,2.303 2.303,2.303l12.951,0Zm-7.631,26.773c-0,0.276 -0.224,0.5 -0.5,0.5c-0.357,0 -0.837,0 -1.194,0c-0.276,-0 -0.5,-0.224 -0.5,-0.5c-0,-1.337 -0,-4.987 -0,-6.324c0,-0.276 0.224,-0.5 0.5,-0.5c0.357,0 0.837,0 1.194,0c0.276,0 0.5,0.224 0.5,0.5c-0,1.337 -0,4.987 -0,6.324Zm6.91,0c-0,0.276 -0.224,0.5 -0.5,0.5c-0.357,0 -0.837,0 -1.194,0c-0.276,-0 -0.5,-0.224 -0.5,-0.5c-0,-1.338 -0,-4.989 -0,-6.325c0,-0.276 0.223,-0.499 0.499,-0.499c0.357,0 0.837,0 1.195,0c0.276,0 0.5,0.224 0.5,0.5c-0,1.337 -0,4.987 -0,6.324Zm-10.366,0.5l-1.694,0c-0.276,-0 -0.5,-0.224 -0.5,-0.5c-0,-1.337 -0,-4.987 -0,-6.324c0,-0.276 0.224,-0.5 0.5,-0.5c0.357,0 0.837,0 1.194,0c0.276,0 0.5,0.224 0.5,0.5l-0,6.824Zm6.912,0l-1.694,0c-0.276,0 -0.5,-0.224 -0.5,-0.5c-0,-1.337 -0,-4.987 -0,-6.324c0,-0.276 0.224,-0.5 0.5,-0.5c0.357,0 0.837,0 1.194,0c0.276,0 0.5,0.224 0.5,0.5c-0,1.651 -0,6.824 -0,6.824Zm26.598,-2.88c-0.984,0 -0.781,0.202 -0.781,-0.783c-0,-0.985 -0.203,-0.782 0.781,-0.782c0.984,0 0.783,-0.202 0.783,0.782c-0,0.984 0.201,0.783 -0.783,0.783Zm3.568,0c-0.984,0 -0.783,0.202 -0.783,-0.783c0,-0.985 -0.201,-0.782 0.783,-0.782c0.984,0 0.781,-0.202 0.781,0.782c0,0.984 0.203,0.783 -0.781,0.783Zm-23.991,-9.393l0,2.221l12,0l0,-2.221l-12,0Zm-9.631,-3.227c-0,0.276 -0.224,0.5 -0.5,0.5c-0.357,0 -0.837,0 -1.194,0c-0.276,-0 -0.5,-0.224 -0.5,-0.5c-0,-1.337 -0,-4.987 -0,-6.324c0,-0.276 0.224,-0.5 0.5,-0.5c0.357,0 0.837,0 1.194,0c0.276,0 0.5,0.224 0.5,0.5c-0,1.337 -0,4.987 -0,6.324Zm6.91,0c-0,0.276 -0.224,0.5 -0.5,0.5c-0.357,0 -0.837,0 -1.194,0c-0.276,-0 -0.5,-0.224 -0.5,-0.5c-0,-1.338 -0,-4.989 -0,-6.325c0,-0.276 0.223,-0.499 0.499,-0.499c0.357,0 0.837,0 1.195,0c0.276,0 0.5,0.224 0.5,0.5c-0,1.337 -0,4.987 -0,6.324Zm-3.454,0.5l-1.694,0c-0.276,0 -0.5,-0.224 -0.5,-0.5c-0,-1.337 -0,-4.987 -0,-6.324c0,-0.276 0.224,-0.5 0.5,-0.5c0.357,0 0.837,0 1.194,0c0.276,0 0.5,0.224 0.5,0.5c-0,1.651 -0,6.824 -0,6.824Zm-6.912,0l-1.694,0c-0.276,-0 -0.5,-0.224 -0.5,-0.5c-0,-1.337 -0,-4.987 -0,-6.324c0,-0.276 0.224,-0.5 0.5,-0.5c0.357,0 0.837,0 1.194,0c0.276,0 0.5,0.224 0.5,0.5l-0,6.824Zm33.51,-2.88c-0.984,0 -0.781,0.202 -0.781,-0.783c0,-0.985 -0.203,-0.782 0.781,-0.782c0.984,0 0.783,-0.202 0.783,0.782c0,0.984 0.201,0.783 -0.783,0.783Zm3.568,0c-0.984,0 -0.783,0.202 -0.783,-0.783c0,-0.985 -0.201,-0.782 0.783,-0.782c0.984,0 0.781,-0.202 0.781,0.782c0,0.984 0.203,0.783 -0.781,0.783Zm-23.99,-9.393l-0,2.221l12,0l-0,-2.221l-12,0Zm-9.632,-3.227c-0,0.276 -0.224,0.5 -0.5,0.5c-0.357,0 -0.837,0 -1.194,0c-0.276,-0 -0.5,-0.224 -0.5,-0.5c0,-1.337 0,-4.987 0,-6.324c0,-0.276 0.224,-0.5 0.5,-0.5c0.357,0 0.837,0 1.194,0c0.276,0 0.5,0.224 0.5,0.5c0,1.337 0,4.987 0,6.324Zm6.91,0c-0,0.276 -0.224,0.5 -0.5,0.5c-0.357,0 -0.837,0 -1.194,0c-0.276,-0 -0.5,-0.224 -0.5,-0.5c0,-1.338 0,-4.989 0,-6.325c0,-0.276 0.223,-0.499 0.499,-0.499c0.357,0 0.837,0 1.195,0c0.276,0 0.5,0.224 0.5,0.5c0,1.337 0,4.987 0,6.324Zm-3.454,0.5l-1.694,0c-0.276,0 -0.5,-0.224 -0.5,-0.5c0,-1.337 0,-4.987 0,-6.324c0,-0.276 0.224,-0.5 0.5,-0.5c0.357,0 0.837,0 1.194,0c0.276,0 0.5,0.224 0.5,0.5c0,1.651 0,6.824 0,6.824Zm-6.912,0l-1.694,0c-0.276,-0 -0.5,-0.224 -0.5,-0.5c0,-1.337 0,-4.987 0,-6.324c0,-0.276 0.224,-0.5 0.5,-0.5c0.357,0 0.837,0 1.194,0c0.276,0 0.5,0.224 0.5,0.5l0,6.824Zm33.51,-2.88c-0.984,0 -0.781,0.202 -0.781,-0.783c0,-0.985 -0.203,-0.782 0.781,-0.782c0.984,0 0.783,-0.202 0.783,0.782c0,0.984 0.201,0.783 -0.783,0.783Zm3.568,0c-0.984,0 -0.783,0.202 -0.783,-0.783c0,-0.985 -0.201,-0.782 0.783,-0.782c0.984,0 0.781,-0.202 0.781,0.782c0,0.984 0.203,0.783 -0.781,0.783Z"/>
</svg>