<svg width="48px" height="48px" version="1.1" xmlns="http://www.w3.org/2000/svg">
<g fill="#202020">
<path d="M24,12c13.246,0 24.012,11.014 24,12c-0.012,0.987 -10.754,13 -24,13c-13.246,0 -24.009,-12.065 -24,-13c0.01,-1.001 10.754,-12 24,-12Zm0,2.283c-5.363,0 -9.717,4.354 -9.717,9.717c0,5.363 4.354,9.717 9.717,9.717c5.363,0 9.717,-4.354 9.717,-9.717c0,-5.363 -4.354,-9.717 -9.717,-9.717Z"/>
<path d="M28.833,22.716c0.109,0.409 0.167,0.84 0.167,1.284c-0,2.76 -2.24,5 -5,5c-2.76,0 -5,-2.24 -5,-5c-0,-2.76 2.24,-5 5,-5c0.296,0 0.586,0.026 0.868,0.075c-0.663,0.5 -1.092,1.295 -1.092,2.187c-0,1.512 1.226,2.738 2.737,2.738c0.977,0 1.836,-0.514 2.32,-1.284Z"/>
</g></svg>