<svg width="48px" height="48px" version="1.1" xmlns="http://www.w3.org/2000/svg">
<path fill="#202020" d="M8.247,27.773c4.381,4.494 11.585,11.885 15.41,15.809c0.529,0.543 1.183,0.548 1.714,0.013c0.236,-0.237 0.367,-7.847 0.393,-16.3c4.318,4.429 11.912,12.22 15.877,16.287c0.529,0.543 1.183,0.548 1.714,0.013c0.531,-0.535 0.531,-38.655 -0,-39.19c-0.531,-0.535 -1.185,-0.53 -1.714,0.013c-3.965,4.067 -11.559,11.858 -15.877,16.287c-0.026,-8.453 -0.157,-16.063 -0.393,-16.3c-0.531,-0.535 -1.185,-0.53 -1.714,0.013c-3.825,3.924 -11.029,11.315 -15.41,15.809l-0,-15.22c-0,-0.552 -0.448,-1 -1,-1l-2,0c-0.552,0 -1,0.448 -1,1l-0,37.986c-0,0.552 0.448,1 1,1l2,-0c0.552,-0 1,-0.448 1,-1l-0,-15.22Z"/>
</svg>