<svg width="48px" height="48px" viewBox="0 0 48 48" version="1.1" xmlns="http://www.w3.org/2000/svg" style="fill-rule:evenodd">
<path fill="#202020" d="M44.568,4.428l-41.139,0c-1.893,0 -3.429,1.532 -3.429,3.426l0,34.289c0,1.895 1.536,3.428 3.429,3.428l41.139,0c1.89,0 3.432,-1.533 3.432,-3.428l0,-34.289c0,-1.894 -1.543,-3.426 -3.432,-3.426Zm-16.711,17.267c-0.683,0 -1.214,-0.245 -1.591,-0.737l-0.069,0c0.046,0.456 0.069,0.732 0.069,0.83l-0,2.212l-1.148,-0l0,-7.803l0.928,0c0.026,0.101 0.08,0.342 0.161,0.723l0.059,-0c0.358,-0.547 0.895,-0.82 1.611,-0.82c0.674,-0 1.199,0.244 1.575,0.732c0.376,0.488 0.564,1.174 0.564,2.056c-0,0.882 -0.192,1.57 -0.574,2.065c-0.383,0.495 -0.911,0.742 -1.585,0.742Zm5.38,-5.527l3.291,2.769l-3.291,2.773l-0.757,-0.772l2.417,-1.992l-2.417,-2.007l0.757,-0.771Zm-25.267,3.892c-0,0.527 -0.192,0.931 -0.576,1.213c-0.385,0.282 -0.935,0.422 -1.651,0.422c-0.719,0 -1.297,-0.109 -1.733,-0.327l-0,-0.991c0.635,0.293 1.225,0.439 1.772,0.439c0.707,0 1.06,-0.213 1.06,-0.639c-0,-0.137 -0.039,-0.251 -0.117,-0.342c-0.079,-0.091 -0.207,-0.186 -0.386,-0.283c-0.179,-0.098 -0.428,-0.209 -0.747,-0.332c-0.622,-0.241 -1.043,-0.482 -1.262,-0.723c-0.22,-0.241 -0.33,-0.553 -0.33,-0.937c0,-0.463 0.186,-0.822 0.559,-1.077c0.373,-0.256 0.88,-0.383 1.521,-0.383c0.635,-0 1.235,0.128 1.802,0.385l-0.371,0.865c-0.583,-0.241 -1.073,-0.362 -1.47,-0.362c-0.605,0 -0.908,0.173 -0.908,0.518c-0,0.169 0.079,0.312 0.237,0.43c0.158,0.117 0.502,0.278 1.032,0.483c0.446,0.172 0.77,0.33 0.972,0.474c0.202,0.143 0.352,0.308 0.449,0.495c0.098,0.187 0.147,0.411 0.147,0.672Zm5.991,1.538l-1.152,-0l-0,-3.321c-0,-0.416 -0.084,-0.727 -0.252,-0.932c-0.168,-0.205 -0.434,-0.308 -0.798,-0.308c-0.485,0 -0.84,0.143 -1.065,0.43c-0.224,0.286 -0.337,0.766 -0.337,1.44l0,2.691l-1.147,-0l-0,-5.401l0.898,0l0.162,0.708l0.058,0c0.163,-0.257 0.394,-0.455 0.693,-0.595c0.3,-0.14 0.632,-0.21 0.997,-0.21c1.295,-0 1.943,0.659 1.943,1.977l-0,3.521Zm6.147,-0l-1.152,-0l0,-3.33c0,-0.414 -0.078,-0.722 -0.234,-0.926c-0.157,-0.203 -0.401,-0.305 -0.733,-0.305c-0.442,0 -0.767,0.144 -0.974,0.432c-0.207,0.288 -0.31,0.768 -0.31,1.438l0,2.691l-1.147,-0l-0,-5.401l0.898,0l0.161,0.708l0.059,0c0.15,-0.257 0.367,-0.455 0.652,-0.595c0.284,-0.14 0.598,-0.21 0.94,-0.21c0.83,-0 1.38,0.283 1.65,0.849l0.078,0c0.16,-0.267 0.384,-0.475 0.674,-0.625c0.29,-0.15 0.622,-0.224 0.996,-0.224c0.645,-0 1.114,0.162 1.409,0.488c0.294,0.325 0.442,0.822 0.442,1.489l-0,3.521l-1.148,-0l0,-3.33c0,-0.414 -0.079,-0.722 -0.237,-0.926c-0.158,-0.203 -0.403,-0.305 -0.735,-0.305c-0.446,0 -0.772,0.139 -0.979,0.418c-0.206,0.278 -0.31,0.705 -0.31,1.281l0,2.862Zm7.471,-4.561c-0.456,0 -0.788,0.134 -0.998,0.4c-0.21,0.267 -0.315,0.694 -0.315,1.28l-0,0.171c-0,0.657 0.104,1.133 0.312,1.428c0.208,0.295 0.549,0.442 1.021,0.442c0.397,-0 0.703,-0.163 0.918,-0.488c0.214,-0.326 0.322,-0.79 0.322,-1.392c-0,-0.606 -0.107,-1.064 -0.32,-1.375c-0.213,-0.31 -0.526,-0.466 -0.94,-0.466Zm16.436,-10.609c1.096,-0 1.985,0.889 1.985,1.985c0,1.096 -0.889,1.985 -1.985,1.985c-1.096,-0 -1.985,-0.889 -1.985,-1.985c0,-1.096 0.889,-1.985 1.985,-1.985Zm-5,-0c1.096,-0 1.985,0.889 1.985,1.985c0,1.096 -0.889,1.985 -1.985,1.985c-1.096,-0 -1.985,-0.889 -1.985,-1.985c0,-1.096 0.889,-1.985 1.985,-1.985Zm-5,-0c1.096,-0 1.985,0.889 1.985,1.985c0,1.096 -0.889,1.985 -1.985,1.985c-1.096,-0 -1.985,-0.889 -1.985,-1.985c0,-1.096 0.889,-1.985 1.985,-1.985Z"/>
</svg>