<svg width="48px" height="48px" version="1.1" xmlns="http://www.w3.org/2000/svg" style="fill-rule:evenodd;">
<path fill="#202020" d="M44.568,4.428l-41.139,0c-1.893,0 -3.429,1.532 -3.429,3.426l0,34.289c0,1.895 1.536,3.428 3.429,3.428l41.139,0c1.89,0 3.432,-1.533 3.432,-3.428l0,-34.289c0,-1.894 -1.543,-3.426 -3.432,-3.426Zm-12.879,14.854l-3.736,0l0,-0.523l3.736,0l0,0.523Zm-29.602,-1.547l0,-1.406c0.255,0.214 0.532,0.374 0.831,0.481c0.298,0.107 0.6,0.16 0.905,0.16c0.179,0 0.335,-0.016 0.468,-0.048c0.133,-0.032 0.245,-0.077 0.334,-0.134c0.089,-0.057 0.156,-0.124 0.2,-0.202c0.044,-0.078 0.066,-0.162 0.066,-0.253c0,-0.123 -0.035,-0.233 -0.106,-0.329c-0.07,-0.097 -0.166,-0.186 -0.288,-0.268c-0.121,-0.082 -0.265,-0.162 -0.432,-0.238c-0.167,-0.076 -0.348,-0.153 -0.541,-0.233c-0.492,-0.205 -0.859,-0.455 -1.101,-0.751c-0.241,-0.296 -0.362,-0.653 -0.362,-1.072c0,-0.328 0.066,-0.61 0.197,-0.846c0.132,-0.236 0.312,-0.43 0.539,-0.583c0.227,-0.152 0.49,-0.264 0.789,-0.336c0.298,-0.072 0.615,-0.107 0.949,-0.107c0.328,0 0.619,0.019 0.872,0.059c0.254,0.039 0.487,0.1 0.701,0.182l0,1.314c-0.105,-0.073 -0.22,-0.137 -0.345,-0.193c-0.124,-0.056 -0.253,-0.102 -0.384,-0.139c-0.132,-0.036 -0.263,-0.063 -0.394,-0.081c-0.13,-0.017 -0.254,-0.026 -0.371,-0.026c-0.161,0 -0.308,0.015 -0.44,0.046c-0.131,0.031 -0.243,0.074 -0.334,0.13c-0.09,0.055 -0.161,0.122 -0.21,0.2c-0.05,0.077 -0.075,0.164 -0.075,0.261c0,0.105 0.028,0.2 0.083,0.283c0.056,0.084 0.135,0.163 0.238,0.238c0.102,0.074 0.227,0.148 0.373,0.22c0.147,0.071 0.312,0.145 0.497,0.221c0.252,0.106 0.478,0.218 0.679,0.337c0.2,0.118 0.372,0.252 0.516,0.402c0.144,0.149 0.253,0.32 0.33,0.512c0.076,0.192 0.114,0.415 0.114,0.67c0,0.351 -0.067,0.647 -0.2,0.885c-0.133,0.239 -0.314,0.432 -0.543,0.58c-0.228,0.148 -0.494,0.255 -0.797,0.319c-0.304,0.064 -0.624,0.097 -0.961,0.097c-0.345,0 -0.674,-0.03 -0.986,-0.088c-0.312,-0.059 -0.582,-0.147 -0.811,-0.264Zm22.478,-1.929l0,2.171l-1.419,0l0,-6.302l2.223,0c1.588,0 2.382,0.67 2.382,2.008c0,0.633 -0.228,1.145 -0.683,1.536c-0.456,0.391 -1.064,0.587 -1.826,0.587l-0.677,0Zm-11.474,2.171l-1.433,0l-2.597,-3.96c-0.152,-0.231 -0.258,-0.405 -0.316,-0.523l-0.018,0c0.024,0.223 0.035,0.563 0.035,1.02l0,3.463l-1.34,0l0,-6.302l1.529,0l2.501,3.837c0.114,0.172 0.22,0.344 0.316,0.514l0.018,0c-0.024,-0.147 -0.035,-0.435 -0.035,-0.866l0,-3.485l1.34,0l0,6.302Zm8.622,0l-1.402,0l0,-3.771c0,-0.407 0.018,-0.857 0.053,-1.349l-0.035,0c-0.074,0.387 -0.139,0.665 -0.198,0.835l-1.477,4.285l-1.16,0l-1.503,-4.241c-0.041,-0.114 -0.107,-0.407 -0.197,-0.879l-0.04,0c0.038,0.621 0.057,1.166 0.057,1.635l0,3.485l-1.279,0l0,-6.302l2.079,0l1.288,3.735c0.102,0.299 0.177,0.6 0.224,0.901l0.026,0c0.079,-0.348 0.163,-0.652 0.251,-0.909l1.287,-3.727l2.026,0l0,6.302Zm2.852,-5.212l0,1.964l0.558,0c0.756,0 1.134,-0.331 1.134,-0.993c0,-0.647 -0.378,-0.971 -1.134,-0.971l-0.558,0Zm19.45,-6.337c1.096,-0 1.985,0.889 1.985,1.985c0,1.096 -0.889,1.985 -1.985,1.985c-1.096,0 -1.985,-0.889 -1.985,-1.985c-0,-1.096 0.889,-1.985 1.985,-1.985Zm-5,-0c1.096,-0 1.985,0.889 1.985,1.985c0,1.096 -0.889,1.985 -1.985,1.985c-1.096,0 -1.985,-0.889 -1.985,-1.985c-0,-1.096 0.889,-1.985 1.985,-1.985Zm-5,-0c1.096,-0 1.985,0.889 1.985,1.985c0,1.096 -0.889,1.985 -1.985,1.985c-1.096,0 -1.985,-0.889 -1.985,-1.985c-0,-1.096 0.889,-1.985 1.985,-1.985Z"/>
</svg>