<svg version="1.1" xmlns="http://www.w3.org/2000/svg" x="0px" y="0px" width="48px" height="48px" viewBox="0 0 48 48" enable-background="new 0 0 48 48" >
<g fill="#202020">
<path d="M18.25,1c-0.575,0-0.958,0.192-1.342,0.575L1.575,16.909C1.192,17.292,1,17.675,1,18.25 s0.192,0.958,0.575,1.342l2.683,2.684C4.642,22.659,5.217,22.85,5.6,22.85c0.575,0,0.958-0.191,1.342-0.574l0,0l3.833-3.833 c0.574-0.575,1.725-0.192,1.725,0.767v25.875c0,0.959,0.958,1.916,1.917,1.916h3.833c0.958,0,1.917-0.957,1.917-1.916V2.917 c0-0.575-0.192-0.958-0.575-1.341C19.208,1.192,18.825,1,18.25,1z"/>
<path d="M46.426,28.408l-2.685-2.684c-0.382-0.383-0.958-0.574-1.34-0.574c-0.577,0-0.959,0.191-1.343,0.574 l-3.833,3.834C36.65,30.135,35.5,29.75,35.5,28.793V2.917C35.5,1.959,34.542,1,33.583,1H29.75c-0.958,0-1.917,0.958-1.917,1.917 v42.167c0,0.574,0.192,0.959,0.575,1.342C28.792,46.809,29.366,47,29.75,47c0.574,0,0.958-0.191,1.342-0.574l15.334-15.334 C46.809,30.709,47,30.324,47,29.75S46.809,28.793,46.426,28.408z"/>
</g></svg>