<svg width="48px" height="48px" version="1.1" xmlns="http://www.w3.org/2000/svg" style="fill-rule:evenodd">
<g fill="#202020">
<path d="M41.344,0.875l-34.688,0c-1.586,0 -2.891,1.302 -2.891,2.891l0,40.469c0,1.589 1.304,2.891 2.891,2.891l34.688,0c1.592,0 2.891,-1.302 2.891,-2.891l0,-40.469c-0.001,-1.589 -1.299,-2.891 -2.891,-2.891Zm-4.124,11.815c0.552,0 1,-0.448 1,-1l0,-2.609c0,-0.552 -0.448,-1 -1,-1l-26.44,0c-0.552,0 -1,0.448 -1,1l0,2.609c0,0.552 0.448,1 1,1c0.491,0 0.89,0.399 0.89,0.89c0,0.491 -0.399,0.89 -0.89,0.89c-0.552,0 -1,0.448 -1,1l0,21.22c0,0.552 0.448,1 1,1c0.491,0 0.89,0.399 0.89,0.89c0,0.491 -0.399,0.89 -0.89,0.89c-0.552,0 -1,0.448 -1,1l0,2.45c0,0.552 0.448,1 1,1l26.44,0c0.552,0 1,-0.448 1,-1l0,-2.45c0,-0.552 -0.448,-1 -1,-1c-0.491,0 -0.89,-0.399 -0.89,-0.89c0,-0.491 0.399,-0.89 0.89,-0.89c0.552,0 1,-0.448 1,-1l0,-21.22c0,-0.552 -0.448,-1 -1,-1c-0.491,0 -0.89,-0.399 -0.89,-0.89c0,-0.491 0.399,-0.89 0.89,-0.89Zm-29.118,-8.924c0.796,0 1.445,0.649 1.445,1.445c0,0.796 -0.65,1.445 -1.445,1.445c-0.795,0 -1.446,-0.649 -1.446,-1.445c0,-0.796 0.65,-1.445 1.446,-1.445Zm31.796,2.89c-0.797,0 -1.445,-0.649 -1.445,-1.445c0,-0.796 0.648,-1.445 1.445,-1.445c0.796,0 1.445,0.649 1.445,1.445c0,0.796 -0.649,1.445 -1.445,1.445Z"/>
<path d="M37.22,11.69c-1.043,0 -1.89,0.847 -1.89,1.89c0,1.043 0.847,1.89 1.89,1.89l0,21.22c-1.043,0 -1.89,0.847 -1.89,1.89c0,1.043 0.847,1.89 1.89,1.89l0,2.45l-26.44,0l0,-2.45c1.043,0 1.89,-0.847 1.89,-1.89c0,-1.043 -0.847,-1.89 -1.89,-1.89l0,-21.22c1.043,0 1.89,-0.847 1.89,-1.89c0,-1.043 -0.847,-1.89 -1.89,-1.89l0,-2.609l26.44,0l0,2.609Zm-14.22,24.57c0,-0.662 -0.538,-1.2 -1.2,-1.2l-5.6,0c-0.662,0 -1.2,0.538 -1.2,1.2l0,3.6c0,0.662 0.538,1.2 1.2,1.2l5.6,0c0.662,0 1.2,-0.538 1.2,-1.2l0,-3.6Zm10,0c0,-0.662 -0.538,-1.2 -1.2,-1.2l-5.6,0c-0.662,0 -1.2,0.538 -1.2,1.2l0,3.6c0,0.662 0.538,1.2 1.2,1.2l5.6,0c0.662,0 1.2,-0.538 1.2,-1.2l0,-3.6Zm-10,-8c0,-0.662 -0.538,-1.2 -1.2,-1.2l-5.6,0c-0.662,0 -1.2,0.538 -1.2,1.2l0,3.6c0,0.662 0.538,1.2 1.2,1.2l5.6,0c0.662,0 1.2,-0.538 1.2,-1.2l0,-3.6Zm10,0c0,-0.662 -0.538,-1.2 -1.2,-1.2l-5.6,0c-0.662,0 -1.2,0.538 -1.2,1.2l0,3.6c0,0.662 0.538,1.2 1.2,1.2l5.6,0c0.662,0 1.2,-0.538 1.2,-1.2l0,-3.6Zm-10,-8c0,-0.662 -0.538,-1.2 -1.2,-1.2l-5.6,0c-0.662,0 -1.2,0.538 -1.2,1.2l0,3.6c0,0.662 0.538,1.2 1.2,1.2l5.6,0c0.662,0 1.2,-0.538 1.2,-1.2l0,-3.6Zm10,0c0,-0.662 -0.538,-1.2 -1.2,-1.2l-5.6,0c-0.662,0 -1.2,0.538 -1.2,1.2l0,3.6c0,0.662 0.538,1.2 1.2,1.2l5.6,0c0.662,0 1.2,-0.538 1.2,-1.2l0,-3.6Zm-4,-8c0,-0.662 -0.538,-1.2 -1.2,-1.2l-7.6,-0c-0.662,-0 -1.2,0.538 -1.2,1.2l0,3.6c0,0.662 0.538,1.2 1.2,1.2l7.6,-0c0.662,-0 1.2,-0.538 1.2,-1.2l0,-3.6Z"/>
</g></svg>