<svg width="48px" height="48px" viewBox="0 0 48 48" version="1.1" xmlns="http://www.w3.org/2000/svg" style="fill-rule:evenodd;clip-rule:evenodd;stroke-linejoin:round;stroke-miterlimit:2;">
<g fill="#202020">
<path d="M41.344,0.875l-34.688,0c-1.586,0 -2.891,1.302 -2.891,2.891l0,40.469c0,1.589 1.304,2.891 2.891,2.891l34.688,0c1.592,0 2.891,-1.302 2.891,-2.891l0,-40.469c-0.001,-1.589 -1.299,-2.891 -2.891,-2.891Zm-4.124,10.815c-1.043,0 -1.89,0.847 -1.89,1.89c0,1.043 0.847,1.89 1.89,1.89l-0,21.22c-1.043,0 -1.89,0.847 -1.89,1.89c0,1.043 0.847,1.89 1.89,1.89l-0,2.45l-26.44,0l0,-2.45c1.043,0 1.89,-0.847 1.89,-1.89c-0,-1.043 -0.847,-1.89 -1.89,-1.89l0,-21.22c1.043,0 1.89,-0.847 1.89,-1.89c-0,-1.043 -0.847,-1.89 -1.89,-1.89l0,-2.609l26.44,-0l-0,2.609Zm-29.118,-7.924c0.796,0 1.445,0.649 1.445,1.445c0,0.796 -0.65,1.445 -1.445,1.445c-0.795,0 -1.446,-0.649 -1.446,-1.445c0,-0.796 0.65,-1.445 1.446,-1.445Zm31.796,2.89c-0.797,0 -1.445,-0.649 -1.445,-1.445c0,-0.796 0.648,-1.445 1.445,-1.445c0.796,0 1.445,0.649 1.445,1.445c0,0.796 -0.649,1.445 -1.445,1.445Z"/>
<path d="M29,12.26c0,-0.662 -0.538,-1.2 -1.2,-1.2l-7.6,-0c-0.662,-0 -1.2,0.538 -1.2,1.2l0,3.6c0,0.662 0.538,1.2 1.2,1.2l7.6,0c0.662,0 1.2,-0.538 1.2,-1.2l0,-3.6Z"/>
<path d="M23,20.26c0,-0.662 -0.538,-1.2 -1.2,-1.2l-5.6,-0c-0.662,-0 -1.2,0.538 -1.2,1.2l0,3.6c0,0.662 0.538,1.2 1.2,1.2l5.6,-0c0.662,-0 1.2,-0.538 1.2,-1.2l0,-3.6Z"/>
<path d="M33,20.26c0,-0.662 -0.538,-1.2 -1.2,-1.2l-5.6,-0c-0.662,-0 -1.2,0.538 -1.2,1.2l0,3.6c0,0.662 0.538,1.2 1.2,1.2l5.6,-0c0.662,-0 1.2,-0.538 1.2,-1.2l0,-3.6Z"/>
<path d="M23,28.26c0,-0.662 -0.538,-1.2 -1.2,-1.2l-5.6,-0c-0.662,-0 -1.2,0.538 -1.2,1.2l0,3.6c0,0.662 0.538,1.2 1.2,1.2l5.6,0c0.662,0 1.2,-0.538 1.2,-1.2l0,-3.6Z"/>
<path d="M33,28.26c0,-0.662 -0.538,-1.2 -1.2,-1.2l-5.6,-0c-0.662,-0 -1.2,0.538 -1.2,1.2l0,3.6c0,0.662 0.538,1.2 1.2,1.2l5.6,0c0.662,0 1.2,-0.538 1.2,-1.2l0,-3.6Z"/>
<path d="M23,36.26c0,-0.662 -0.538,-1.2 -1.2,-1.2l-5.6,0c-0.662,0 -1.2,0.538 -1.2,1.2l0,3.6c0,0.662 0.538,1.2 1.2,1.2l5.6,0c0.662,0 1.2,-0.538 1.2,-1.2l0,-3.6Z"/>
<path d="M33,36.26c0,-0.662 -0.538,-1.2 -1.2,-1.2l-5.6,0c-0.662,0 -1.2,0.538 -1.2,1.2l0,3.6c0,0.662 0.538,1.2 1.2,1.2l5.6,0c0.662,0 1.2,-0.538 1.2,-1.2l0,-3.6Z"/>
</g></svg>