<svg width="48px" height="48px" viewBox="0 0 48 48" version="1.1" xmlns="http://www.w3.org/2000/svg">
<path fill="#202020" d="M44.568,4.428l-41.139,0c-1.893,0 -3.429,1.532 -3.429,3.426l0,34.289c0,1.895 1.536,3.428 3.429,3.428l41.139,0c1.89,0 3.432,-1.533 3.432,-3.428l0,-34.289c0,-1.894 -1.543,-3.426 -3.432,-3.426Zm-22.254,11.74l3.291,2.769l-3.291,2.773l-0.756,-0.772l2.417,-1.992l-2.417,-2.007l0.756,-0.771Zm-14.344,3.892c-0,0.527 -0.192,0.931 -0.576,1.213c-0.385,0.282 -0.935,0.422 -1.651,0.422c-0.719,0 -1.297,-0.109 -1.733,-0.327l-0,-0.991c0.635,0.293 1.225,0.439 1.772,0.439c0.707,0 1.06,-0.213 1.06,-0.639c-0,-0.137 -0.039,-0.251 -0.117,-0.342c-0.079,-0.091 -0.207,-0.186 -0.386,-0.283c-0.179,-0.098 -0.428,-0.209 -0.747,-0.332c-0.622,-0.241 -1.043,-0.482 -1.262,-0.723c-0.22,-0.241 -0.33,-0.553 -0.33,-0.937c0,-0.463 0.186,-0.822 0.559,-1.077c0.373,-0.256 0.88,-0.383 1.521,-0.383c0.635,-0 1.235,0.128 1.802,0.385l-0.371,0.865c-0.583,-0.241 -1.073,-0.362 -1.47,-0.362c-0.605,0 -0.908,0.173 -0.908,0.518c-0,0.169 0.079,0.312 0.237,0.43c0.158,0.117 0.502,0.278 1.032,0.483c0.446,0.172 0.77,0.33 0.972,0.474c0.202,0.143 0.352,0.308 0.449,0.495c0.098,0.187 0.147,0.411 0.147,0.672Zm4.868,-0c-0,0.527 -0.192,0.931 -0.576,1.213c-0.384,0.282 -0.935,0.422 -1.651,0.422c-0.719,0 -1.297,-0.109 -1.733,-0.327l-0,-0.991c0.635,0.293 1.226,0.439 1.772,0.439c0.707,0 1.06,-0.213 1.06,-0.639c-0,-0.137 -0.039,-0.251 -0.117,-0.342c-0.078,-0.091 -0.207,-0.186 -0.386,-0.283c-0.179,-0.098 -0.428,-0.209 -0.747,-0.332c-0.622,-0.241 -1.043,-0.482 -1.262,-0.723c-0.22,-0.241 -0.33,-0.553 -0.33,-0.937c0,-0.463 0.187,-0.822 0.559,-1.077c0.373,-0.256 0.88,-0.383 1.521,-0.383c0.635,-0 1.236,0.128 1.802,0.385l-0.371,0.865c-0.583,-0.241 -1.073,-0.362 -1.47,-0.362c-0.605,0 -0.908,0.173 -0.908,0.518c-0,0.169 0.079,0.312 0.237,0.43c0.158,0.117 0.502,0.278 1.033,0.483c0.445,0.172 0.769,0.33 0.971,0.474c0.202,0.143 0.352,0.308 0.449,0.495c0.098,0.187 0.147,0.411 0.147,0.672Zm5.991,1.538l-1.152,-0l-0,-3.321c-0,-0.416 -0.084,-0.727 -0.252,-0.932c-0.167,-0.205 -0.433,-0.308 -0.798,-0.308c-0.482,0 -0.836,0.144 -1.062,0.432c-0.226,0.288 -0.339,0.771 -0.339,1.448l-0,2.681l-1.148,-0l0,-7.598l1.148,-0l-0,1.929c-0,0.309 -0.02,0.639 -0.059,0.991l0.073,-0c0.156,-0.26 0.374,-0.462 0.652,-0.606c0.278,-0.143 0.603,-0.214 0.974,-0.214c1.309,-0 1.963,0.659 1.963,1.977l0,3.521Zm25.186,-15.17c1.096,-0 1.985,0.889 1.985,1.985c0,1.096 -0.889,1.985 -1.985,1.985c-1.096,-0 -1.985,-0.889 -1.985,-1.985c0,-1.096 0.889,-1.985 1.985,-1.985Zm-5,-0c1.096,-0 1.985,0.889 1.985,1.985c0,1.096 -0.889,1.985 -1.985,1.985c-1.096,-0 -1.985,-0.889 -1.985,-1.985c0,-1.096 0.889,-1.985 1.985,-1.985Zm-5,-0c1.096,-0 1.985,0.889 1.985,1.985c0,1.096 -0.889,1.985 -1.985,1.985c-1.096,-0 -1.985,-0.889 -1.985,-1.985c0,-1.096 0.889,-1.985 1.985,-1.985Z"/>
</svg>