<svg width="48px" height="48px" version="1.1" xmlns="http://www.w3.org/2000/svg">
<path fill="#202020" d="M47.256,7.896c0,-3.81 -3.093,-6.902 -6.902,-6.902l-32.708,0c-3.809,0 -6.902,3.092 -6.902,6.902l0,32.208c0,3.81 3.093,6.902 6.902,6.902l32.708,0c3.809,0 6.902,-3.092 6.902,-6.902l0,-32.208Zm-42.512,27.566c0,-0.262 0.1,-0.523 0.299,-0.722c1.582,-1.584 5.342,-5.354 7.041,-7.051c0.142,-0.146 0.358,-0.187 0.546,-0.109c0.187,0.075 0.312,0.258 0.312,0.462l0.003,3.929c0,0.267 0.193,0.496 0.46,0.534c1.5,0.228 5.229,0.95 6.659,1.165c0.237,0.037 0.412,0.241 0.412,0.479l0.002,2.546c0,0.27 -0.195,0.5 -0.462,0.542c-1.495,0.23 -5.178,0.95 -6.632,1.172c-0.25,0.037 -0.433,0.254 -0.433,0.504l0.003,4.067c0,0.187 -0.112,0.35 -0.283,0.421c-0.171,0.071 -0.367,0.034 -0.496,-0.095c-1.659,-1.658 -5.521,-5.517 -7.13,-7.12c-0.201,-0.199 -0.301,-0.462 -0.301,-0.724Zm37.512,-5c0,0.262 -0.1,0.525 -0.301,0.724c-1.609,1.603 -5.471,5.462 -7.13,7.12c-0.129,0.129 -0.325,0.166 -0.496,0.095c-0.171,-0.071 -0.283,-0.234 -0.283,-0.421l0.003,-4.067c0,-0.25 -0.183,-0.467 -0.433,-0.504c-1.454,-0.222 -5.137,-0.942 -6.632,-1.172c-0.267,-0.042 -0.462,-0.272 -0.462,-0.542l0.002,-2.546c0,-0.238 0.175,-0.442 0.412,-0.479c1.43,-0.215 5.159,-0.937 6.659,-1.165c0.267,-0.038 0.46,-0.267 0.46,-0.534l0.003,-3.929c0,-0.204 0.125,-0.387 0.312,-0.462c0.188,-0.078 0.404,-0.037 0.546,0.109c1.699,1.697 5.459,5.467 7.041,7.051c0.199,0.199 0.299,0.46 0.299,0.722Zm-37.512,-14.115c0,-0.262 0.1,-0.524 0.299,-0.722c1.582,-1.584 5.342,-5.354 7.041,-7.052c0.142,-0.146 0.358,-0.187 0.546,-0.108c0.187,0.075 0.312,0.258 0.312,0.462l0.003,3.929c0,0.267 0.193,0.496 0.46,0.533c1.5,0.228 5.229,0.95 6.659,1.166c0.237,0.037 0.412,0.241 0.412,0.479l0.002,2.546c0,0.27 -0.195,0.5 -0.462,0.541c-1.495,0.23 -5.178,0.95 -6.632,1.172c-0.25,0.038 -0.433,0.255 -0.433,0.505l0.003,4.067c0,0.187 -0.112,0.35 -0.283,0.421c-0.171,0.07 -0.367,0.033 -0.496,-0.096c-1.659,-1.657 -5.521,-5.516 -7.13,-7.119c-0.201,-0.2 -0.301,-0.462 -0.301,-0.724Zm37.512,-5c0,0.262 -0.1,0.524 -0.301,0.724c-1.609,1.603 -5.471,5.462 -7.13,7.119c-0.129,0.129 -0.325,0.166 -0.496,0.096c-0.171,-0.071 -0.283,-0.234 -0.283,-0.421l0.003,-4.067c0,-0.25 -0.183,-0.467 -0.433,-0.505c-1.454,-0.222 -5.137,-0.942 -6.632,-1.172c-0.267,-0.041 -0.462,-0.271 -0.462,-0.541l0.002,-2.546c0,-0.238 0.175,-0.442 0.412,-0.479c1.43,-0.216 5.159,-0.938 6.659,-1.166c0.267,-0.037 0.46,-0.266 0.46,-0.533l0.003,-3.929c0,-0.204 0.125,-0.387 0.312,-0.462c0.188,-0.079 0.404,-0.038 0.546,0.108c1.699,1.698 5.459,5.468 7.041,7.052c0.199,0.198 0.299,0.46 0.299,0.722Z"/>
</svg>