<svg width="48px" height="48px" viewBox="0 0 48 48" version="1.1" xmlns="http://www.w3.org/2000/svg" >
<path fill="#202020" d="M47.256,7.896l0,32.208c0,3.81 -3.093,6.902 -6.902,6.902l-32.708,0c-3.809,0 -6.902,-3.092 -6.902,-6.902l0,-32.208c0,-3.81 3.093,-6.902 6.902,-6.902l32.708,0c3.809,0 6.902,3.092 6.902,6.902Zm-2.178,9.564c0,-0.4 -0.153,-0.798 -0.456,-1.102c-2.414,-2.416 -8.149,-8.166 -10.741,-10.755c-0.216,-0.223 -0.546,-0.285 -0.832,-0.166c-0.286,0.114 -0.476,0.393 -0.476,0.705l-0.005,5.993c0,0.407 -0.294,0.756 -0.702,0.814c-2.288,0.348 -7.976,1.449 -10.157,1.777c-0.361,0.057 -0.628,0.368 -0.628,0.731l-0.003,3.884c0,0.411 0.297,0.762 0.704,0.826c2.281,0.351 7.899,1.449 10.117,1.788c0.381,0.056 0.66,2.387 0.66,2.769l-0.005,4.203c0,0.286 0.171,0.534 0.432,0.643c0.261,0.108 0.56,0.051 0.757,-0.145c2.53,-2.529 8.421,-8.416 10.875,-10.861c0.307,-0.303 0.46,-0.705 0.46,-1.104Zm-42.156,12.998c0,0.4 0.153,0.801 0.46,1.105c2.454,2.445 8.345,8.331 10.875,10.86c0.197,0.197 0.496,0.253 0.757,0.145c0.261,-0.108 0.432,-0.357 0.432,-0.642l-0.005,-6.204c0,-0.381 0.279,-0.712 0.66,-0.769c2.218,-0.338 7.836,-1.436 10.117,-1.787c0.407,-0.064 0.704,-0.415 0.704,-0.827l-0.003,-3.884c0,-0.363 -0.267,-0.674 -0.628,-0.73c-2.181,-0.328 -7.869,-1.429 -10.157,-1.777c-0.408,-0.058 -0.702,-0.407 -0.702,-0.815l-0.005,-5.993c0,-0.311 -0.19,-0.59 -0.476,-0.705c-0.286,-0.119 -0.616,-0.056 -0.832,0.167c-2.592,2.588 -8.327,8.339 -10.741,10.755c-0.303,0.304 -0.456,0.702 -0.456,1.101Z"/>
</svg>