<svg width="48px" height="48px" viewBox="0 0 48 48" version="1.1" xmlns="http://www.w3.org/2000/svg">
<path fill="#202020" d="M47.256,7.896l0,32.208c0,3.81 -3.093,6.902 -6.902,6.902l-32.708,0c-3.809,0 -6.902,-3.092 -6.902,-6.902l0,-32.208c0,-3.81 3.093,-6.902 6.902,-6.902l32.708,0c3.809,0 6.902,3.092 6.902,6.902Zm-5.155,10.488c-0,-0.344 -0.132,-0.685 -0.392,-0.947c-2.073,-2.074 -6.998,-7.012 -9.224,-9.235c-0.185,-0.192 -0.469,-0.245 -0.714,-0.143c-0.246,0.098 -0.409,0.338 -0.409,0.606l-0.004,5.146c-0,0.349 -0.253,0.649 -0.603,0.699c-1.965,0.299 -6.849,1.244 -8.722,1.526c-0.31,0.049 -0.54,0.316 -0.54,0.628l-0.002,3.335c-0,0.353 0.255,0.654 0.604,0.709c1.959,0.302 6.784,1.245 8.688,1.536c0.327,0.048 0.567,2.05 0.567,2.378l-0.004,3.609c-0,0.246 0.147,0.459 0.371,0.552c0.224,0.093 0.481,0.044 0.65,-0.124c2.172,-2.172 7.231,-7.228 9.339,-9.327c0.263,-0.26 0.395,-0.606 0.395,-0.948Zm-36.202,11.162c0,0.343 0.132,0.688 0.395,0.949c2.108,2.099 7.167,7.154 9.339,9.326c0.169,0.169 0.426,0.217 0.65,0.124c0.224,-0.093 0.371,-0.306 0.371,-0.551l-0.004,-5.328c0,-0.327 0.24,-0.611 0.567,-0.66c1.904,-0.29 6.729,-1.233 8.688,-1.535c0.349,-0.055 0.604,-0.356 0.604,-0.71l-0.002,-3.335c-0,-0.312 -0.23,-0.579 -0.54,-0.627c-1.873,-0.282 -6.757,-1.227 -8.722,-1.526c-0.35,-0.05 -0.603,-0.35 -0.603,-0.7l-0.004,-5.147c-0,-0.267 -0.163,-0.506 -0.409,-0.605c-0.245,-0.102 -0.529,-0.048 -0.714,0.143c-2.226,2.223 -7.151,7.162 -9.224,9.236c-0.26,0.261 -0.392,0.603 -0.392,0.946Z"/>
</svg>