<svg width="48px" height="48px" version="1.1" xmlns="http://www.w3.org/2000/svg">
<path fill="#202020" d="M44.568,3.428c1.889,0 3.432,1.532 3.432,3.426l0,34.289c0,1.892 -1.542,3.428 -3.432,3.428l-41.139,0c-1.893,0 -3.429,-1.536 -3.429,-3.428l0,-34.289c0,-1.894 1.536,-3.426 3.429,-3.426l41.139,0Zm-22.589,37.717l22.589,0l0,-29.11l-41.139,0l0,29.11l13.356,0c-2.395,-2.709 -5.154,-5.648 -8.287,-8.826c-0.78,-0.84 -0.732,-2.154 0.107,-2.935l3.042,-2.827c0.839,-0.781 2.154,-0.733 2.934,0.106l4.061,4.369c4.966,-5.726 10.395,-11.318 16.613,-16.686c0.821,-0.784 2.354,-0.583 2.864,0.272l1.609,3.299c0.598,0.997 0.338,2.864 -0.437,3.669c-5.902,4.453 -11.648,10.862 -17.312,19.559Zm20.721,-30.994c1.284,0 2.325,-1.041 2.325,-2.325c0,-1.284 -1.041,-2.326 -2.325,-2.326c-1.284,0 -2.325,1.041 -2.325,2.325c0,1.284 1.041,2.326 2.325,2.326Z"/>
</svg>