<?xml version="1.0" encoding="UTF-8" standalone="no"?><!DOCTYPE svg PUBLIC "-//W3C//DTD SVG 1.1//EN" "http://www.w3.org/Graphics/SVG/1.1/DTD/svg11.dtd"><svg width="100%" height="100%" viewBox="0 0 48 48" version="1.1" xmlns="http://www.w3.org/2000/svg" xmlns:xlink="http://www.w3.org/1999/xlink" xml:space="preserve" xmlns:serif="http://www.serif.com/" style="fill-rule:evenodd;clip-rule:evenodd;stroke-linejoin:round;stroke-miterlimit:2;"><path d="M44.568,4.428l-41.139,0c-1.893,0 -3.429,1.532 -3.429,3.426l0,34.289c0,1.895 1.536,3.428 3.429,3.428l41.139,0c1.89,0 3.432,-1.533 3.432,-3.428l0,-34.289c0,-1.894 -1.543,-3.426 -3.432,-3.426Zm-28.554,22.057l-6.805,6.975l-2.781,-2.616l-2.239,2.242l5.02,4.855l9.045,-9.216l-2.24,-2.24Zm27.212,5.61l-20.975,0l-0,2.221l20.975,-0l-0,-2.221Zm-0.124,-3.972l-20.848,0l0,2.18l20.848,0l0,-2.18Zm-27.088,-15.095l-6.805,6.975l-2.781,-2.615l-2.239,2.241l5.02,4.856l9.045,-9.217l-2.24,-2.24Zm27.212,5.597l-20.975,0l-0,2.221l20.975,-0l-0,-2.221Zm-0.124,-3.959l-20.848,-0l0,2.18l20.848,-0l0,-2.18Z" style="fill:#202020;"/></svg>