<svg width="48px" height="48px" version="1.1" xmlns="http://www.w3.org/2000/svg" style="fill-rule:evenodd">
<g fill="#202020">
<path d="M21.534,14.214c-0.223,0 -0.415,0.092 -0.578,0.277c-0.162,0.185 -0.261,0.415 -0.296,0.69l1.656,0c0,-0.645 -0.26,-0.967 -0.782,-0.967Z"/>
<path d="M8.662,14.214c-0.223,0 -0.415,0.092 -0.578,0.277c-0.162,0.185 -0.261,0.415 -0.296,0.69l1.657,0c0,-0.645 -0.261,-0.967 -0.783,-0.967Z"/>
<path d="M44.568,4.428l-41.139,0c-1.893,0 -3.429,1.532 -3.429,3.426l0,34.289c0,1.895 1.536,3.428 3.429,3.428l41.139,0c1.89,0 3.432,-1.533 3.432,-3.428l0,-34.289c0,-1.894 -1.543,-3.426 -3.432,-3.426Zm-13.485,14.764l-3.735,0l0,-1.192l3.735,0l0,1.192Zm-3.933,-4.78l-1.01,0l0,1.82c0,0.469 0.186,0.703 0.558,0.703c0.146,0 0.298,-0.043 0.452,-0.128l0,1.028c-0.205,0.108 -0.514,0.162 -0.928,0.162c-0.979,0 -1.467,-0.508 -1.467,-1.524l0,-2.061l-0.73,0l0,-1.024l0.73,0l0,-0.971l1.385,-0.396l0,1.367l1.01,0l0,1.024Zm-16.418,1.621l-2.935,0c0.047,0.653 0.458,0.979 1.234,0.979c0.496,0 0.93,-0.116 1.307,-0.352l-0,1.002c-0.418,0.224 -0.957,0.334 -1.623,0.334c-0.726,0 -1.29,-0.201 -1.691,-0.604c-0.401,-0.403 -0.602,-0.965 -0.602,-1.686c-0,-0.747 0.217,-1.339 0.65,-1.775c0.433,-0.436 0.967,-0.655 1.6,-0.655c0.656,0 1.164,0.195 1.521,0.584c0.359,0.39 0.539,0.918 0.539,1.586l-0,0.587Zm12.872,0l-2.936,0c0.047,0.653 0.459,0.979 1.235,0.979c0.495,0 0.93,-0.116 1.306,-0.352l-0,1.002c-0.417,0.224 -0.957,0.334 -1.622,0.334c-0.727,0 -1.291,-0.201 -1.692,-0.604c-0.401,-0.403 -0.602,-0.965 -0.602,-1.686c-0,-0.747 0.217,-1.339 0.65,-1.775c0.433,-0.436 0.967,-0.655 1.6,-0.655c0.656,0 1.164,0.195 1.522,0.584c0.359,0.39 0.538,0.918 0.538,1.586l0.001,0.587Zm-18.615,1.855l-1.424,0l-0,-5.146l-1.789,0l-0,-1.156l5.01,0l-0,1.156l-1.797,0l-0,5.146Zm7.958,0l-1.389,0l-0,-6.662l1.389,0l-0,6.662Zm5.515,0l-1.384,0l-0,-2.5c-0,-0.698 -0.25,-1.046 -0.748,-1.046c-0.24,0 -0.438,0.092 -0.593,0.277c-0.155,0.185 -0.233,0.419 -0.233,0.703l-0,2.566l-1.389,0l-0,-4.5l1.389,0l-0,0.712l0.018,0c0.331,-0.548 0.813,-0.822 1.446,-0.822c0.996,0 1.494,0.618 1.494,1.854l-0,2.756Zm25.553,-11.46c1.096,0 1.985,0.889 1.985,1.985c0,1.096 -0.889,1.985 -1.985,1.985c-1.096,0 -1.985,-0.889 -1.985,-1.985c-0,-1.096 0.889,-1.985 1.985,-1.985Zm-5,0c1.096,0 1.985,0.889 1.985,1.985c0,1.096 -0.889,1.985 -1.985,1.985c-1.096,0 -1.985,-0.889 -1.985,-1.985c-0,-1.096 0.889,-1.985 1.985,-1.985Zm-5,0c1.096,0 1.985,0.889 1.985,1.985c0,1.096 -0.889,1.985 -1.985,1.985c-1.096,0 -1.985,-0.889 -1.985,-1.985c-0,-1.096 0.889,-1.985 1.985,-1.985Z"/>
</g></svg>