<svg width="48px" height="48px" viewBox="0 0 48 48" version="1.1" xmlns="http://www.w3.org/2000/svg" style="fill-rule:evenodd">
<path fill="#202020" d="M44.568,4.428l-41.139,0c-1.893,0 -3.429,1.532 -3.429,3.426l0,34.289c0,1.895 1.536,3.428 3.429,3.428l41.139,0c1.89,0 3.432,-1.533 3.432,-3.428l0,-34.289c0,-1.894 -1.543,-3.426 -3.432,-3.426Zm-9.817,11.74l3.291,2.769l-3.291,2.773l-0.757,-0.772l2.417,-1.992l-2.417,-2.007l0.757,-0.771Zm-28.397,4.6c0.279,-0 0.559,-0.044 0.839,-0.132l0,0.864c-0.127,0.055 -0.29,0.102 -0.49,0.139c-0.201,0.038 -0.408,0.056 -0.623,0.056c-1.087,0 -1.631,-0.573 -1.631,-1.718l0,-2.911l-0.737,0l-0,-0.507l0.791,-0.42l0.391,-1.143l0.708,0l-0,1.201l1.538,0l-0,0.869l-1.538,0l-0,2.891c-0,0.277 0.069,0.481 0.207,0.613c0.138,0.132 0.32,0.198 0.545,0.198Zm24.589,-0c0.28,-0 0.56,-0.044 0.84,-0.132l0,0.864c-0.127,0.055 -0.29,0.102 -0.491,0.139c-0.2,0.038 -0.407,0.056 -0.622,0.056c-1.087,0 -1.631,-0.573 -1.631,-1.718l0,-2.911l-0.737,0l-0,-0.507l0.791,-0.42l0.39,-1.143l0.708,0l0,1.201l1.538,0l0,0.869l-1.538,0l0,2.891c0,0.277 0.07,0.481 0.208,0.613c0.138,0.132 0.32,0.198 0.544,0.198Zm-20.312,0.927c-0.84,0 -1.497,-0.245 -1.97,-0.735c-0.474,-0.489 -0.711,-1.164 -0.711,-2.023c0,-0.883 0.22,-1.576 0.659,-2.081c0.44,-0.504 1.044,-0.756 1.812,-0.756c0.713,-0 1.276,0.216 1.689,0.649c0.414,0.433 0.62,1.029 0.62,1.787l0,0.62l-3.598,0c0.016,0.524 0.158,0.927 0.425,1.209c0.267,0.281 0.643,0.422 1.128,0.422c0.319,0 0.616,-0.03 0.891,-0.09c0.275,-0.06 0.57,-0.161 0.886,-0.301l-0,0.933c-0.28,0.134 -0.563,0.228 -0.85,0.283c-0.286,0.056 -0.613,0.083 -0.981,0.083Zm14.897,0c-0.84,0 -1.496,-0.245 -1.97,-0.735c-0.474,-0.489 -0.71,-1.164 -0.71,-2.023c-0,-0.883 0.219,-1.576 0.659,-2.081c0.439,-0.504 1.043,-0.756 1.811,-0.756c0.713,-0 1.276,0.216 1.69,0.649c0.413,0.433 0.62,1.029 0.62,1.787l-0,0.62l-3.599,0c0.017,0.524 0.158,0.927 0.425,1.209c0.267,0.281 0.643,0.422 1.128,0.422c0.319,0 0.616,-0.03 0.891,-0.09c0.275,-0.06 0.571,-0.161 0.886,-0.301l0,0.933c-0.28,0.134 -0.563,0.228 -0.849,0.283c-0.287,0.056 -0.614,0.083 -0.982,0.083Zm-10.346,-0.097l-1.148,-0l0,-7.598l1.148,0l-0,7.598Zm6.391,-0l-1.152,-0l-0,-3.321c-0,-0.416 -0.084,-0.727 -0.252,-0.932c-0.167,-0.205 -0.433,-0.308 -0.798,-0.308c-0.485,0 -0.84,0.143 -1.064,0.43c-0.225,0.286 -0.337,0.766 -0.337,1.44l-0,2.691l-1.148,-0l0,-5.401l0.899,0l0.161,0.708l0.058,0c0.163,-0.257 0.394,-0.455 0.694,-0.595c0.299,-0.14 0.631,-0.21 0.996,-0.21c1.295,-0 1.943,0.659 1.943,1.977l0,3.521Zm-11.152,-4.629c-0.365,-0 -0.657,0.115 -0.877,0.346c-0.219,0.232 -0.35,0.568 -0.393,1.011l2.452,0c-0.007,-0.446 -0.114,-0.784 -0.323,-1.013c-0.208,-0.23 -0.495,-0.344 -0.859,-0.344Zm14.897,-0c-0.364,-0 -0.656,0.115 -0.876,0.346c-0.22,0.232 -0.351,0.568 -0.393,1.011l2.451,0c-0.007,-0.446 -0.114,-0.784 -0.322,-1.013c-0.209,-0.23 -0.495,-0.344 -0.86,-0.344Zm18.697,-10.541c1.096,0 1.985,0.889 1.985,1.985c-0,1.096 -0.889,1.985 -1.985,1.985c-1.096,0 -1.985,-0.889 -1.985,-1.985c-0,-1.096 0.889,-1.985 1.985,-1.985Zm-5,0c1.096,0 1.985,0.889 1.985,1.985c-0,1.096 -0.889,1.985 -1.985,1.985c-1.096,0 -1.985,-0.889 -1.985,-1.985c-0,-1.096 0.889,-1.985 1.985,-1.985Zm-5,0c1.096,0 1.985,0.889 1.985,1.985c-0,1.096 -0.889,1.985 -1.985,1.985c-1.096,0 -1.985,-0.889 -1.985,-1.985c-0,-1.096 0.889,-1.985 1.985,-1.985Z"/>
</svg>