<svg width="48px" height="48px" version="1.1" xmlns="http://www.w3.org/2000/svg">
<path fill="#202020" d="M44.568,4.428l-41.139,0c-1.893,0 -3.429,1.532 -3.429,3.426l0,34.289c0,1.895 1.536,3.428 3.429,3.428l41.139,0c1.89,0 3.432,-1.533 3.432,-3.428l0,-34.289c0,-1.894 -1.543,-3.426 -3.432,-3.426Zm-37.254,11.74l3.291,2.769l-3.291,2.773l-0.756,-0.772l2.417,-1.992l-2.417,-2.007l0.756,-0.771Zm36.701,-9.74c1.096,0 1.985,0.889 1.985,1.985c0,1.096 -0.889,1.985 -1.985,1.985c-1.096,0 -1.985,-0.889 -1.985,-1.985c0,-1.096 0.889,-1.985 1.985,-1.985Zm-5,0c1.096,0 1.985,0.889 1.985,1.985c0,1.096 -0.889,1.985 -1.985,1.985c-1.096,0 -1.985,-0.889 -1.985,-1.985c0,-1.096 0.889,-1.985 1.985,-1.985Zm-5,0c1.096,0 1.985,0.889 1.985,1.985c0,1.096 -0.889,1.985 -1.985,1.985c-1.096,0 -1.985,-0.889 -1.985,-1.985c0,-1.096 0.889,-1.985 1.985,-1.985Z"/>
</svg>