<svg version="1.1" xmlns="http://www.w3.org/2000/svg" x="0px" y="0px" width="48px" height="48px">
<path fill="#202020" d="M5.693,14.672c-0.619,0-1.248,0.105-1.882,0.312c-0.633,0.207-1.195,0.523-1.675,0.956 c-0.479,0.432-0.878,0.979-1.186,1.651c-0.307,0.672-0.465,1.455-0.465,2.347v8.813H47.52v-7.003c0-0.552-0.01-1.065-0.023-1.55 c-0.02-0.48-0.023-0.792-0.023-0.931c0-0.446-0.087-0.946-0.26-1.498c-0.173-0.552-0.466-1.056-0.879-1.521 c-0.412-0.466-0.955-0.85-1.622-1.162c-0.672-0.308-1.521-0.466-2.554-0.466l-1.846,0.067v5.001L7.688,19.625l0.005-5.001l0,0 M7.133,46.241c-0.687,0-1.459-0.02-2.318-0.054c-0.859,0-1.565-0.162-2.112-0.488c-0.552-0.327-0.989-0.721-1.315-1.186 c-0.327-0.467-0.557-0.971-0.696-1.522c-0.14-0.552-0.207-1.065-0.207-1.55l0.014-10.402H47.48l0,0v2.684 c0,0.791,0.01,1.684,0.025,2.683c0.018,0.999,0.014,3.782,0.014,4.781s-0.182,1.814-0.542,2.448 c-0.36,0.633-0.806,1.152-1.344,1.551c-0.533,0.398-1.1,0.672-1.699,0.825c-0.601,0.153-1.143,0.23-1.622,0.23 c-0.48,0.033-0.989,0.043-1.521,0.024c-0.533-0.016-1.042-0.024-1.522-0.024 M6.633,34.283c-0.413,0-0.773,0.145-1.085,0.438 c-0.307,0.293-0.465,0.662-0.465,1.108s0.154,0.815,0.465,1.108c0.308,0.293,0.672,0.438,1.085,0.438 c0.446,0,0.826-0.145,1.138-0.438s0.466-0.662,0.466-1.108s-0.154-0.815-0.466-1.108C7.459,34.433,7.084,34.283,6.633,34.283z M10.438,16.942V5.183c0-0.379,0.043-0.773,0.129-1.186c0.086-0.413,0.259-0.782,0.519-1.108c0.259-0.327,0.609-0.595,1.056-0.797 c0.446-0.207,1.032-0.307,1.752-0.312H33.79c1.065,0,1.954,0.25,2.654,0.749C37.15,3.027,37.5,3.93,37.5,5.235v11.707H10.438 L10.438,16.942z"/>
</svg>