<svg width="48px" height="48px" version="1.1" xmlns="http://www.w3.org/2000/svg">
<path fill="#202020" d="M24,1.995c12.143,0 22.005,9.862 22.005,22.005c-0,12.143 -9.862,22.005 -22.005,22.005c-12.143,-0 -22.005,-9.862 -22.005,-22.005c0,-12.143 9.862,-22.005 22.005,-22.005Zm2.068,9.707l-4.401,-0c-0.452,-0 -0.847,0.396 -0.847,0.849l0,12.692c0,1.077 0.676,1.978 1.633,2.373l9.598,3.443c0.447,0.172 0.957,-0.056 1.071,-0.51l1.468,-4.119c0.058,-0.224 0.058,-0.447 -0.058,-0.676c-0.114,-0.225 -0.28,-0.339 -0.509,-0.453l-6.429,-2.309c-0.454,-0.172 -0.791,-0.626 -0.791,-1.129l-0,-9.312c0.114,-0.511 -0.23,-0.849 -0.735,-0.849Z"/>
</svg>