<svg width="48px" height="48px" version="1.1" xmlns="http://www.w3.org/2000/svg" style="fill-rule:evenodd">
<path fill="#202020" d="M24.049,43.635l0,-2.909c9.216,-0.027 16.678,-7.504 16.678,-16.727c-0,-9.221 -7.462,-16.699 -16.678,-16.725l0,-2.91c10.823,0.028 19.587,8.807 19.587,19.635c-0,10.829 -8.764,19.609 -19.587,19.636Zm0,-10.183c5.198,-0.027 9.406,-4.247 9.406,-9.453c-0,-5.204 -4.208,-9.424 -9.406,-9.452l0,-2.908c6.806,0.026 12.315,5.549 12.315,12.36c-0,6.812 -5.509,12.335 -12.315,12.362l0,-2.909Zm0,-14.541c2.789,0.027 5.042,2.293 5.042,5.088c-0,2.796 -2.253,5.063 -5.042,5.089l0,-10.177Zm-24.049,5.088c-0,13.256 10.745,24.001 24,24.001c13.255,0 24,-10.745 24,-24.001c-0,-13.254 -10.745,-23.999 -24,-23.999c-13.255,0 -24,10.745 -24,23.999Z"/>
</svg>