<svg width="48px" height="48px" viewBox="0 0 48 48" version="1.1" xmlns="http://www.w3.org/2000/svg">
<g fill="#202020">
<path d="M44.534,32.185l-8.822,-3.995l0.98,3.107c-0,3.33 -5.882,6.215 -12.744,6.215c-6.862,0 -12.744,-2.663 -12.744,-6.215l0.98,-3.107l-8.822,3.995c-2.549,1.11 -2.549,3.329 -0.196,4.661l16.665,9.989c2.156,1.553 6.078,1.553 8.43,-0l16.665,-9.989c2.353,-1.554 2.157,-3.551 -0.392,-4.661"/>
<path d="M23.948,29.521c5.686,0 10.391,-2.219 10.587,-4.883l-2.548,-8.435c-0.785,1.998 -4.118,3.33 -8.039,3.33c-3.921,-0 -7.254,-1.332 -8.038,-3.551c-0.785,2.885 -1.765,5.993 -2.549,8.434c0.196,2.886 4.901,5.105 10.587,5.105"/>
<path d="M23.948,11.542c2.549,0 5.098,-0.888 5.882,-2.441l-2.353,-7.325c-0.392,-1.11 -1.96,-1.776 -3.529,-1.776c-1.568,0 -3.137,0.666 -3.529,1.776l-2.353,7.547c0.784,1.331 3.333,2.441 5.882,2.219"/>
</g></svg>