<svg width="48px" height="48px" version="1.1" xmlns="http://www.w3.org/2000/svg">
<path fill="#202020" d="M41.42,22.015c1.243,-1.233 0.364,-3.344 -1.394,-3.344l-4.006,-0l0,-5.289l5.4,-5.365c1.243,-1.233 0.364,-3.344 -1.394,-3.344l-4.006,-0l0,-0.672c0,-2.208 -1.788,-4.001 -4.001,-4.001l-15.998,-0c-2.207,-0 -4.001,1.788 -4.001,4.001l0,0.667l-4.051,-0c-1.758,-0 -2.637,2.111 -1.394,3.344l5.445,5.41l0,5.244l-4.051,-0c-1.758,-0 -2.637,2.111 -1.394,3.344l5.445,5.41l0,5.91l-4.051,0c-1.758,0 -2.637,2.112 -1.394,3.344l5.45,5.416l0,1.909c0,2.208 1.789,4.001 4.001,4.001l15.998,0c2.208,0 4.001,-1.788 4.001,-4.001l0,-1.955l5.4,-5.365c1.243,-1.232 0.364,-3.344 -1.394,-3.344l-4.006,0l0,-5.956l5.395,-5.364Zm-17.397,19.984c-2.577,-0 -4.668,-2.092 -4.668,-4.668c0,-2.576 2.091,-4.668 4.668,-4.668c2.576,0 4.667,2.092 4.667,4.668c0,2.581 -2.091,4.668 -4.667,4.668Zm-0,-13.331c-2.577,-0 -4.668,-2.092 -4.668,-4.668c0,-2.576 2.091,-4.668 4.668,-4.668c2.576,0 4.667,2.092 4.667,4.668c0,2.581 -2.091,4.668 -4.667,4.668Zm-0,-13.331c-2.577,-0 -4.668,-2.092 -4.668,-4.668c0,-2.576 2.091,-4.668 4.668,-4.668c2.576,0 4.667,2.092 4.667,4.668c0,2.576 -2.091,4.668 -4.667,4.668Z"/>
</svg>