<svg width="48px" height="48px" version="1.1" xmlns="http://www.w3.org/2000/svg">
<path fill="#202020" d="M3.698,13.64c-0,-0 -2.44,6.905 -3.356,9.498c-0.189,0.536 0.091,1.124 0.626,1.315c3.775,1.348 17.308,6.18 17.308,6.18c-0.024,-0.905 0.158,-1.83 0.571,-2.701c0.713,-1.506 1.985,-2.574 3.444,-3.066l-2.483,-5.475l-1.942,5.497l-3.352,-7.386l-1.939,5.494l-3.352,-7.386l-2.028,5.742l-3.497,-7.713l-0,0.001Zm40.604,-0l-3.501,7.712l-2.028,-5.741l-3.352,7.385l-1.939,-5.494l-3.352,7.386l-1.942,-5.497l-3.244,7.157c-0.233,-0.054 -0.467,-0.086 -0.701,-0.095c-0.047,-0.002 -0.093,-0.003 -0.14,-0.003c-1.45,-0.001 -2.854,0.841 -3.542,2.294c-0.948,2.001 -0.138,4.331 1.777,5.247c1.916,0.916 4.214,0.077 5.161,-1.923c0.115,-0.242 0.202,-0.488 0.267,-0.737c-0,0 15.313,-5.467 19.296,-6.889c0.519,-0.185 0.79,-0.755 0.606,-1.274c-0.907,-2.569 -3.366,-9.529 -3.366,-9.529l0,0.001Zm-24.551,2.167c-0.503,0 -0.986,0.2 -1.342,0.556c-0.356,0.356 -0.556,0.839 -0.556,1.342c0,0 0,0 0,0l12.249,0l-0,0c-0,-0.503 -0.2,-0.986 -0.556,-1.342c-0.356,-0.356 -0.839,-0.556 -1.342,-0.556c-2.3,0 -6.152,0 -8.453,0Zm3.194,3.59l-0,5.374l1.898,-0l-0,-5.374l-1.898,0l-0,0Zm1.041,9.198c0.983,0 1.78,0.795 1.78,1.778c0,0.982 -0.798,1.78 -1.78,1.78c-0.983,0 -1.781,-0.797 -1.781,-1.78c0,-0.983 0.798,-1.778 1.781,-1.778Z"/>
</svg>