<svg width="48px" height="48px" version="1.1" xmlns="http://www.w3.org/2000/svg">
<path fill="#202020" d="M42.935,14.612c0,-3.491 -2.652,-6.364 -6.052,-6.715c-0.95,-2.573 -3.419,-4.41 -6.323,-4.41c-1.275,-0 -2.457,0.359 -3.472,0.97c-1.155,-2.069 -3.364,-3.467 -5.9,-3.467c-3.36,-0 -6.144,2.461 -6.66,5.676c-0.275,-0.032 -0.551,-0.055 -0.835,-0.055c-3.731,-0 -6.755,3.024 -6.755,6.755c0,0.184 0.016,0.359 0.028,0.539c-1.889,1.199 -3.148,3.304 -3.148,5.705c0,2.125 0.983,4.018 2.517,5.257c-0.008,0.12 -0.02,0.244 -0.02,0.363c-0,3.732 3.024,6.756 6.755,6.756c1.119,-0 2.169,-0.276 3.096,-0.755c1.286,0.922 3.128,2.081 4.023,1.849c-0,0 0.332,5.138 0.26,6.444c-0.136,2.485 -0.883,5.249 -1.407,7.486l8.122,0c-0,0 -1.199,-4.989 -1.25,-6.651c-0.052,-1.666 0.519,-4.734 0.519,-4.734l2.816,-2.912c1.087,0.739 2.397,1.162 3.807,1.162c3.492,0 6.364,-2.656 6.72,-6.056c2.568,-0.955 4.406,-3.428 4.406,-6.336c-0,-1.714 -0.643,-3.275 -1.698,-4.466c0.288,-0.747 0.451,-1.554 0.451,-2.405Zm-25.207,15.504c0.539,-0.519 0.995,-1.122 1.342,-1.794l1.327,2.781c-0,-0 -0.723,0.315 -2.669,-0.987Zm4.958,1.714c-0.687,0.124 -1.854,-1.99 -2.685,-3.707c0.919,0.471 1.958,0.739 3.06,0.739c0.284,-0 0.563,-0.02 0.839,-0.056c-0.216,1.374 -0.591,2.912 -1.214,3.024Zm2.916,1.354c-1.59,0.44 -0.639,-2.848 -0.184,-4.75c0.332,-0.124 0.647,-0.267 0.951,-0.439c0.184,1.386 0.787,2.64 1.678,3.627c-0.775,0.687 -1.662,1.342 -2.445,1.562Z"/>
</svg>