<svg width="48px" height="48px" version="1.1" xmlns="http://www.w3.org/2000/svg">
<path fill="#202020" d="M27.997,7.931c-1.51,0.109 -3.251,0.679 -4.077,1.325c-0.115,0.096 -0.467,0.532 -0.467,0.532l-0.122,0.384c-0.128,0.416 -2.336,5.978 -2.336,5.978l-7.893,0.013c-7.444,0.019 -7.905,0.025 -8.148,0.134c-0.397,0.179 -0.698,0.327 -0.736,0.365c-0.019,0.019 -0.154,0.115 -0.294,0.211c-0.327,0.218 -1.101,1.069 -1.281,1.312c-0.416,0.551 -0.768,1.178 -1.145,2.03c-0.327,0.748 -0.352,0.806 -0.352,0.87c-0,0.038 -0.039,0.16 -0.084,0.269c-0.051,0.115 -0.134,0.365 -0.192,0.557c-1.005,3.45 -1.145,7.252 -0.39,10.881c0.166,0.788 0.429,1.735 0.582,2.093c0.045,0.109 0.084,0.231 0.084,0.269c-0,0.064 0.025,0.122 0.352,0.871c0.377,0.851 0.729,1.478 1.145,2.029c0.18,0.243 0.346,0.435 0.372,0.435c0.032,0 0.051,0.032 0.051,0.064c-0,0.09 0.531,0.595 0.858,0.813c0.14,0.096 0.275,0.192 0.294,0.211c0.038,0.039 0.339,0.186 0.736,0.365c0.243,0.109 0.928,0.115 14.133,0.134c0,0 17.494,0.007 19.696,0c3.687,-0.019 4.019,-0.025 4.256,-0.134c0.391,-0.179 0.698,-0.326 0.736,-0.365c0.02,-0.019 0.154,-0.115 0.295,-0.211c0.326,-0.218 0.858,-0.723 0.858,-0.813c-0,-0.032 0.019,-0.064 0.051,-0.064c0.025,0 0.192,-0.192 0.371,-0.435c0.416,-0.551 0.768,-1.178 1.146,-2.029c0.326,-0.749 0.352,-0.807 0.352,-0.871c-0,-0.038 0.038,-0.16 0.083,-0.269c0.218,-0.499 0.531,-1.741 0.749,-2.957c0.154,-0.851 0.32,-2.81 0.32,-3.808c-0,-1.505 -0.173,-3.143 -0.486,-4.673c-0.167,-0.787 -0.429,-1.735 -0.583,-2.093c-0.045,-0.109 -0.083,-0.231 -0.083,-0.269c-0,-0.064 -0.026,-0.122 -0.352,-0.87c-0.378,-0.852 -0.73,-1.479 -1.146,-2.03c-0.179,-0.243 -0.346,-0.435 -0.371,-0.435c-0.032,0 -0.051,-0.032 -0.051,-0.064c-0,-0.089 -0.532,-0.595 -0.858,-0.813c-0.141,-0.096 -0.275,-0.192 -0.295,-0.211c-0.038,-0.038 -0.384,-0.205 -0.736,-0.358c-0.211,-0.096 -0.512,-0.116 -1.811,-0.141l-6.702,-0.045l0.019,-0.352c0.013,-0.192 0.615,-4.589 0.615,-4.993c0.006,-0.691 -0.007,-0.755 -0.16,-0.992c-0.141,-0.211 -0.474,-0.544 -0.794,-0.781c-0.128,-0.096 -0.902,-0.454 -1.184,-0.544c-1.21,-0.397 -1.92,-0.506 -3.425,-0.531c-0.704,-0.007 -1.421,-0.007 -1.6,0.006Zm2.689,1.504c1.805,0.244 3.264,0.858 3.034,1.287c-0.071,0.134 -0.615,0.493 -0.762,0.499c-0.051,0 -0.154,0.045 -0.218,0.096c-0.07,0.052 -0.185,0.096 -0.262,0.096c-0.077,0 -0.16,0.026 -0.199,0.058c-0.032,0.032 -0.23,0.096 -0.441,0.134c-0.211,0.045 -0.499,0.103 -0.64,0.128c-0.455,0.103 -2.465,0.148 -3.233,0.077c-1.12,-0.102 -2.272,-0.435 -2.848,-0.819c-0.32,-0.211 -0.314,-0.512 -0.077,-0.685c0.282,-0.211 0.653,-0.384 1.069,-0.506c0.877,-0.262 1.056,-0.307 1.274,-0.313c0.128,-0 0.345,-0.026 0.486,-0.052c0.384,-0.083 2.228,-0.083 2.817,0Zm-24.093,8.29c0.173,0.057 0.313,0.128 0.313,0.16c0,0.032 0.045,0.057 0.103,0.057c0.128,0 1.242,1.114 1.242,1.242c-0,0.051 0.025,0.102 0.051,0.115c0.217,0.09 1.03,1.844 1.376,2.964c0.39,1.28 0.576,2.285 0.755,4c0.077,0.807 0.045,3.348 -0.057,4.321c-0.141,1.274 -0.5,2.9 -0.877,3.937c-0.384,1.043 -1.024,2.349 -1.197,2.419c-0.026,0.013 -0.051,0.064 -0.051,0.115c-0,0.128 -1.114,1.242 -1.242,1.242c-0.058,0 -0.103,0.026 -0.103,0.058c0,0.096 -0.614,0.262 -0.96,0.262c-0.333,0 -1.152,-0.32 -1.152,-0.448c0,-0.038 -0.026,-0.064 -0.064,-0.064c-0.077,0 -0.704,-0.627 -0.704,-0.704c-0,-0.038 -0.026,-0.064 -0.058,-0.064c-0.051,-0 -0.217,-0.237 -0.563,-0.8c-0.173,-0.288 -0.723,-1.44 -0.723,-1.517c-0,-0.051 -0.026,-0.115 -0.051,-0.154c-0.058,-0.057 -0.244,-0.621 -0.436,-1.306c-0.057,-0.192 -0.128,-0.448 -0.166,-0.563c-0.032,-0.122 -0.09,-0.365 -0.115,-0.544c-0.026,-0.186 -0.084,-0.518 -0.128,-0.749c-0.039,-0.23 -0.103,-0.614 -0.141,-0.851c-0.064,-0.378 -0.128,-1.69 -0.096,-3.393c0.013,-0.992 0.057,-1.965 0.096,-2.157c0.083,-0.397 0.192,-1.024 0.269,-1.517c0.025,-0.179 0.083,-0.422 0.115,-0.544c0.038,-0.115 0.115,-0.384 0.173,-0.595c0.179,-0.608 0.493,-1.536 0.601,-1.748c0.032,-0.057 0.167,-0.332 0.301,-0.608c0.141,-0.275 0.282,-0.55 0.314,-0.608c0.358,-0.582 0.499,-0.781 0.55,-0.781c0.032,0 0.058,-0.025 0.058,-0.064c-0,-0.07 0.627,-0.704 0.704,-0.704c0.026,0 0.064,-0.025 0.077,-0.064c0.013,-0.032 0.192,-0.147 0.403,-0.249c0.448,-0.231 0.883,-0.256 1.383,-0.096Zm24.95,4.32l1.3,0.647l0.653,-0.647l0.659,-0.646l4.09,-0c3.815,0.006 4.097,0.013 4.218,0.115c0.295,0.262 0.371,0.627 0.192,0.973c-0.205,0.39 -0.115,0.384 -4.148,0.384l-3.674,-0l-0.633,0.64c-0.608,0.614 -0.986,0.896 -1.216,0.896c-0.058,0 -0.801,-0.346 -1.652,-0.768l-1.542,-0.768l-8.238,-0c-9.109,-0 -8.469,0.032 -8.712,-0.403c-0.186,-0.314 -0.128,-0.602 0.173,-0.922l0.134,-0.147l17.103,-0l1.293,0.646Zm-1.222,3.911c0.013,0.026 0.051,0.051 0.077,0.051c0.032,0 0.358,0.301 0.723,0.672l0.666,0.673l3.712,-0c3.399,-0 3.719,0.006 3.86,0.108c0.288,0.199 0.377,0.359 0.384,0.666c-0,0.237 -0.032,0.326 -0.199,0.493c-0.115,0.115 -0.262,0.224 -0.339,0.237c-0.07,0.019 -1.907,0.025 -4.071,0.019l-3.936,-0.019l-0.186,-0.16c-0.102,-0.09 -0.358,-0.34 -0.57,-0.564c-0.217,-0.217 -0.403,-0.396 -0.428,-0.396c-0.02,-0 -0.199,0.16 -0.385,0.358c-0.192,0.192 -0.48,0.455 -0.633,0.576l-0.282,0.218l-2.503,-0l-2.502,-0.007c-0,0 -0.252,0.006 -0.297,-0.014c-0.051,-0.012 -0.151,-0.53 -0.151,-0.747c-0,-0.218 -0.01,-0.655 0.041,-0.706c0.083,-0.084 0.778,-0.062 2.66,-0.062l2.214,-0l0.749,-0.73c0.423,-0.416 0.813,-0.743 0.903,-0.755c0.186,-0.039 0.467,0.012 0.493,0.089Zm-10.402,1.524c0.18,0.14 0.365,0.467 0.365,0.64c0,0.185 -0.192,0.505 -0.384,0.64c-0.179,0.128 -0.249,0.134 -2.714,0.115l-2.528,-0.019l-0.199,-0.224c-0.217,-0.244 -0.288,-0.442 -0.23,-0.66c0.038,-0.166 0.339,-0.518 0.486,-0.576c0.052,-0.019 1.21,-0.038 2.567,-0.038c2.388,-0.006 2.477,-0 2.637,0.122Zm13.564,3.053c0.057,0.051 0.416,0.717 0.794,1.466l0.691,1.369l1.363,0c1.421,0 1.543,0.02 1.748,0.288c0.236,0.314 0.185,0.826 -0.109,1.057c-0.16,0.121 -0.25,0.128 -1.984,0.128l-1.825,-0l-0.185,-0.186c-0.063,-0.063 -0.986,-1.927 -1.018,-1.927c-0.026,0 -0.07,-0.077 -0.096,-0.173c-0.038,-0.16 -0.096,-0.108 -1.274,1.057l-1.229,1.229l-17.212,-0l-0.134,-0.148c-0.301,-0.32 -0.359,-0.608 -0.173,-0.928c0.243,-0.429 -0.39,-0.397 8.635,-0.397l8.18,0l1.447,-1.44c0.793,-0.787 1.51,-1.466 1.6,-1.498c0.205,-0.089 0.634,-0.032 0.781,0.103Zm10.427,2.97c0.281,0.198 0.409,0.544 0.313,0.825c-0.044,0.122 -0.153,0.289 -0.243,0.365c-0.16,0.148 -0.185,0.148 -2.003,0.148l-1.837,-0l-0.205,-0.237c-0.186,-0.205 -0.205,-0.263 -0.179,-0.532c0.032,-0.3 0.147,-0.486 0.403,-0.627c0.083,-0.051 0.704,-0.07 1.843,-0.077c1.645,0 1.729,0.007 1.908,0.135Z" style="fill:#202020;fill-rule:nonzero;"/><path d="M28.029,9.845c-0.864,0.109 -1.28,0.314 -1.363,0.679c-0.045,0.185 0.083,0.409 0.269,0.46c0.077,0.02 0.205,-0.038 0.339,-0.147c0.218,-0.179 0.307,-0.205 1.139,-0.326c0.909,-0.135 2.465,0.038 2.765,0.301c0.237,0.204 0.346,0.224 0.525,0.083c0.186,-0.147 0.212,-0.346 0.071,-0.544c-0.339,-0.493 -2.055,-0.723 -3.745,-0.506Z" style="fill:#202020;fill-rule:nonzero;"/><path d="M5.409,21.84c-0.02,0.032 -0.116,0.077 -0.212,0.103c-0.166,0.038 -0.569,0.32 -0.819,0.576c-0.57,0.563 -1.082,1.587 -1.402,2.784c-0.237,0.896 -0.307,1.466 -0.313,2.599l-0.013,1.152c-0,0 0.045,0.444 0.07,0.521c0.019,0.045 0.045,0.33 0.083,0.593c0.224,1.389 0.871,2.855 1.575,3.552c0.25,0.256 0.653,0.538 0.819,0.576c0.096,0.026 0.192,0.071 0.212,0.103c0.019,0.032 0.256,0.058 0.531,0.058c0.39,-0 0.582,-0.032 0.845,-0.154c0.774,-0.339 1.414,-1.139 1.946,-2.439c0.313,-0.768 0.608,-2.336 0.608,-3.251c-0,-0.308 -0.135,-0.493 -0.365,-0.493c-0.237,-0 -0.32,0.192 -0.365,0.857c-0.026,0.346 -0.077,0.698 -0.109,0.788c-0.032,0.083 -0.057,0.249 -0.057,0.371c-0,0.474 -0.564,2.042 -0.922,2.56c-0.186,0.269 -0.672,0.756 -0.896,0.903c-0.288,0.185 -0.96,0.166 -1.287,-0.039c-0.416,-0.256 -0.749,-0.633 -1.082,-1.241c-0.352,-0.634 -0.806,-2.189 -0.806,-2.753c-0,-0.198 -0.147,-1.152 -0.071,-2.112c0.148,-1.856 0.519,-3.104 1.217,-4.058c0.288,-0.397 0.838,-0.845 1.037,-0.845c0.275,-0 0.416,-0.467 0.198,-0.659c-0.128,-0.116 -0.365,-0.148 -0.422,-0.052Z" style="fill:#202020;fill-rule:nonzero;"/><path d="M5.466,24.894c-0.506,0.256 -0.928,0.896 -1.139,1.721c-0.211,0.807 -0.133,1.009 0.254,1.201c0.423,-0.182 0.335,-0.445 0.373,-0.701c0.141,-0.864 0.627,-1.62 1.043,-1.62c0.237,0 0.621,0.384 0.781,0.775c0.269,0.672 0.32,0.96 0.32,1.85c0,0.896 -0.051,1.177 -0.32,1.849c-0.108,0.269 -0.595,0.839 -0.717,0.839c-0.064,0 -0.064,0.39 0,0.493c0.052,0.077 0.154,0.102 0.372,0.089c0.192,-0.006 0.749,-0.569 0.902,-0.908c0.243,-0.519 0.288,-0.66 0.41,-1.204c0.256,-1.146 0.083,-2.579 -0.429,-3.584c-0.16,-0.32 -0.691,-0.813 -0.928,-0.864c-0.346,-0.064 -0.723,-0.045 -0.922,0.064Z"/>
</svg>