<svg version="1.1" xmlns="http://www.w3.org/2000/svg" x="0px" y="0px" width="48px" height="48px">
<g fill="#202020">
<rect x="20.953" y="0.375" width="6.083" height="20.688"/>
<path d="M18.238,6.755c-0.25,0.049-1.564,0.494-2.185,0.739c-0.633,0.249-1.952,0.895-2.601,1.266 c-1.747,1.009-3.581,2.45-4.789,3.776c-1.636,1.792-2.76,3.458-3.723,5.52c-0.938,2.009-1.563,4.278-1.813,6.622 c-0.089,0.832-0.102,2.971-0.024,3.776c0.146,1.502,0.379,2.735,0.763,4.042c1.409,4.779,4.556,8.936,8.818,11.643 c5.956,3.784,13.48,4.318,19.976,1.426c3.232-1.445,6.18-3.817,8.277-6.681c3.271-4.448,4.594-9.843,3.769-15.35 c-0.683-4.556-3.122-9.042-6.588-12.121c-2.331-2.069-4.7-3.433-7.655-4.404c-0.775-0.257-0.982-0.299-1.134-0.225 c-0.104,0.049-0.136,0.099-0.169,0.262c-0.061,0.286-0.061,6.14,0,6.385c0.025,0.098,0.086,0.216,0.14,0.266 c0.054,0.049,0.448,0.265,0.882,0.482c0.926,0.465,1.434,0.775,2.185,1.334c2.094,1.567,3.687,3.654,4.642,6.083 c0.463,1.176,0.725,2.226,0.895,3.613c0.07,0.559,0.07,2.413,0,2.98c-0.307,2.494-1.082,4.539-2.479,6.539 c-0.484,0.694-1.566,1.883-2.244,2.467c-3.178,2.734-7.305,3.936-11.371,3.302c-3.911-0.604-7.369-2.841-9.532-6.163 c-2.695-4.132-3.005-9.415-0.821-13.82c1.147-2.311,2.878-4.229,5.066-5.625c0.27-0.171,0.874-0.506,1.348-0.743 c0.731-0.367,0.865-0.449,0.939-0.571c0.082-0.139,0.082-0.196,0.082-3.327c0-2.968-0.004-3.197-0.069-3.298 C18.699,6.768,18.507,6.707,18.238,6.755z"/>
</g></svg>