<svg version="1.1" xmlns="http://www.w3.org/2000/svg" x="0px" y="0px" width="48px" height="48px">
<path fill="#202020" d="M46.863,4H1.133C0.507,4,0,4.524,0,5.17v32.585c0,0.646,0.508,1.17,1.134,1.17H18.33v2.809 c0,0.042,0.008,0.079,0.012,0.119h-2.468c-0.574,0-1.039,0.48-1.039,1.073S15.3,44,15.874,44h16.82 c0.572,0,1.038-0.48,1.038-1.073s-0.466-1.073-1.038-1.073h-2.469c0.004-0.038,0.012-0.077,0.012-0.119v-2.809h16.629 c0.625,0,1.134-0.523,1.134-1.17V5.17C47.997,4.524,47.49,4,46.863,4z M44.785,32.648c0,0.646-0.509,1.171-1.134,1.171H4.346 c-0.626,0-1.133-0.524-1.133-1.171V7.941c0-0.646,0.507-1.17,1.133-1.17h39.306c0.625,0,1.134,0.523,1.134,1.17V32.648 L44.785,32.648z"/>
</svg>