<svg width="48px" height="48px" version="1.1" xmlns="http://www.w3.org/2000/svg">
<path fill="#202020" d="M19.06,4.165c0.211,-0.081 0.444,-0.154 0.52,-0.157c0.075,-0.003 9.064,-1.764 10.508,-2.064c2.862,-0.587 3.093,-0.61 3.888,-0.399c0.405,0.111 1.146,0.542 1.178,0.687c0.009,0.04 0.042,0.067 0.069,0.061c0.099,-0.022 0.49,0.584 0.655,1.019c0.094,0.235 0.273,0.791 0.401,1.241l0.229,0.815l0.318,0.026c0.175,0.01 0.417,0.039 0.548,0.065l0.224,0.041c0,-0 1.106,0.177 1.139,0.169c0.125,-0.027 1.956,0.48 2.517,0.695c0.181,0.071 0.669,0.267 0.865,0.342c0.192,0.082 0.399,0.174 0.461,0.202c0.056,0.036 0.283,0.152 0.493,0.258c0.543,0.26 1.708,1.013 2.054,1.324c0.165,0.15 0.748,0.686 0.869,0.763c0.121,0.077 0.785,0.976 1.032,1.399c0.242,0.403 0.315,0.609 0.454,1.236c0.113,0.508 0.149,0.826 0.12,1.006c-0.025,0.137 -0.039,0.292 -0.027,0.345c0.03,0.139 -0.245,0.927 -0.433,1.232c-0.562,0.936 -1.195,1.45 -2.451,2.006c-1.236,0.545 -3.292,0.836 -4.99,0.707c-0.19,-0.013 -0.343,-0.014 -0.354,-0.004c-0.004,0.014 -0.038,0.174 -0.067,0.354c-0.029,0.18 -0.12,0.456 -0.195,0.618c-0.184,0.388 -17.396,27.38 -17.504,27.491c-0.023,0.024 -0.544,0.544 -0.936,0.714c-0.284,0.125 -0.525,0.193 -0.785,0.209c-0.896,0.053 -18.526,-11.203 -18.665,-11.331c-0.574,-0.524 -0.87,-1.262 -0.809,-2.017c0.039,-0.417 17.666,-28.323 17.75,-28.411c0.241,-0.289 0.528,-0.492 0.924,-0.642Zm12.17,7.342c0.084,-0.007 0.133,0.027 0.186,0.098c0.101,0.143 0.291,0.344 0.364,0.39c0.024,0.015 0.159,0.124 0.297,0.246c0.515,0.446 2.05,1.343 2.069,1.362c0.051,0.048 1.022,0.514 1.807,0.804c0.915,0.344 2.141,0.626 3.282,0.74c0.865,0.092 0.934,0.09 1.715,0.083c0.959,-0.019 2.634,-0.37 3.241,-0.692c0.727,-0.376 1.154,-0.797 1.353,-1.333c0.104,-0.279 0.106,-0.363 -0.028,-0.936c-0.132,-0.594 -0.166,-0.656 -0.534,-1.128c-0.386,-0.489 -1.251,-1.21 -1.442,-1.343c-0.022,-0.015 -1.05,-0.705 -1.181,-0.763c-0.417,-0.184 -2.365,-0.985 -2.395,-0.992c-0.066,-0.016 -2.002,-0.556 -2.077,-0.588c-0.111,-0.049 -0.254,-0.087 -0.603,-0.091c-0.286,0.084 -0.339,0.124 -0.316,0.229l0.117,0.529c0.026,0.084 1.554,5.966 1.554,5.966c0,0 -1.265,-0.239 -1.393,-0.315c-0.055,-0.029 -0.372,-0.103 -0.557,-0.167c-0.187,-0.065 -0.347,-0.103 -0.407,-0.117c-0.039,-0.01 -0.068,-0.025 -0.104,-0.033c-0.076,-0.015 -0.516,-0.199 -0.591,-0.228c-0.043,-0.017 -0.296,-0.177 -0.549,-0.287c-0.253,-0.11 -0.443,-0.234 -0.472,-0.256c-0.028,-0.019 -0.02,-0.012 -0.073,-0.046c-0.182,-0.117 -2.359,-1.547 -2.414,-1.791c-0.007,-0.031 0.025,-0.142 0.077,-0.279c0.317,-0.547 0.438,-1.211 0.29,-1.877c-0.313,-1.408 -1.71,-2.297 -3.118,-1.985c-1.409,0.313 -2.298,1.711 -1.985,3.119c0.313,1.408 1.71,2.298 3.118,1.985c0.278,-0.062 0.536,-0.166 0.769,-0.304Zm-2.014,10.645c-0.619,-0.393 -0.899,-0.363 -1.382,-0.282l-6.97,1.751l-1.723,-6.872c-0.249,-0.883 -0.854,-1.314 -1.622,-1.387c-0.189,-0.015 -0.288,-0.022 -0.614,0.049l-1.819,0.457c-0.851,0.238 -1.269,0.791 -1.376,1.517c-0.026,0.187 -0.039,0.286 0.015,0.619l1.746,6.972l-6.872,1.732c-0.884,0.248 -1.315,0.854 -1.383,1.62c-0.019,0.191 -0.025,0.286 0.048,0.617l0.456,1.815c0.241,0.852 0.791,1.268 1.519,1.372c0.187,0.031 0.284,0.042 0.617,-0.012l6.97,-1.751l1.724,6.872c0.248,0.883 0.854,1.314 1.622,1.387c0.189,0.015 0.287,0.022 0.613,-0.049l1.82,-0.457c0.851,-0.238 1.268,-0.792 1.376,-1.517c0.026,-0.187 0.038,-0.287 -0.016,-0.62l-1.746,-6.971l6.873,-1.732c0.883,-0.249 1.314,-0.854 1.382,-1.621c0.02,-0.19 0.025,-0.285 -0.047,-0.616l-0.456,-1.815c-0.124,-0.439 -0.387,-0.811 -0.755,-1.078Z"/>
</svg>