<svg width="48px" height="48px" version="1.1" xmlns="http://www.w3.org/2000/svg">
<path fill="#202020" d="M39.005,5.098c2.609,0 4.725,2.115 4.726,4.726l0,33.077c0,2.611 -2.117,4.725 -4.726,4.725l-29.077,0c-2.61,0 -4.725,-2.115 -4.725,-4.725l0,-33.077c0,-2.611 2.115,-4.726 4.725,-4.726l7.888,0c0.969,-2.741 3.567,-4.725 6.651,-4.725c3.081,0 5.682,1.985 6.648,4.725l7.89,0Zm-14.538,0c-1.3,0 -2.363,1.051 -2.362,2.363c0,1.311 1.062,2.363 2.362,2.363c1.299,0 2.362,-1.052 2.362,-2.363c0,-1.312 -1.063,-2.363 -2.362,-2.363Zm-0,18.909l-8.662,-8.662l-3.889,3.889l8.662,8.662l-8.662,8.662l3.889,3.889l8.662,-8.662l8.662,8.662l3.889,-3.889l-8.662,-8.662l8.662,-8.662l-3.889,-3.889l-8.662,8.662Z"/>
</svg>