<svg version="1.1" xmlns="http://www.w3.org/2000/svg" x="0px" y="0px" width="48px" height="48px" viewBox="0 0 48 48" enable-background="new 0 0 48 48" >
<g fill="#202020">
<path d="M45.832,2.565c-0.818-0.339-1.518-0.2-2.098,0.419l-3.893,3.863c-2.136-2.017-4.576-3.579-7.322-4.687 C29.775,1.053,26.936,0.5,24,0.5c-3.115,0-6.09,0.609-8.924,1.827C12.24,3.544,9.794,5.182,7.738,7.237 c-2.056,2.057-3.693,4.502-4.911,7.337C1.609,17.411,1,20.384,1,23.5L8.669,23.5c0-2.076,0.404-4.06,1.213-5.944 c0.809-1.888,1.901-3.52,3.279-4.896c1.378-1.378,3.009-2.472,4.896-3.28c1.887-0.809,3.869-1.212,5.945-1.212 c4.014,0,7.497,1.367,10.452,4.103l-4.134,4.132c-0.619,0.599-0.758,1.289-0.42,2.066c0.338,0.799,0.93,1.198,1.768,1.198h13.416 c0.52,0,0.971-0.19,1.35-0.569S47,18.269,47,17.75V4.333C47,3.496,46.611,2.906,45.832,2.565z"/>
<path d="M39.331,24.5c0,2.077-0.404,4.059-1.213,5.944c-0.81,1.889-1.901,3.52-3.279,4.896 c-1.378,1.379-3.009,2.473-4.896,3.281s-3.869,1.211-5.945,1.211c-4.014,0-7.497-1.367-10.452-4.104l4.134-4.131 c0.619-0.6,0.758-1.289,0.42-2.066c-0.338-0.799-0.93-1.197-1.768-1.197H2.916c-0.52,0-0.971,0.189-1.35,0.568S1,29.73,1,30.25 v13.418c0,0.836,0.389,1.426,1.168,1.768c0.818,0.338,1.518,0.199,2.098-0.42l3.893-3.863c2.136,2.018,4.576,3.58,7.322,4.688 c2.744,1.107,5.584,1.66,8.52,1.66c3.115,0,6.09-0.607,8.924-1.826c2.836-1.219,5.282-2.855,7.338-4.91 c2.057-2.059,3.693-4.504,4.911-7.338C46.391,30.59,47,27.615,47,24.5L39.331,24.5z"/>
</g>
</svg>