<svg width="48px" height="48px" version="1.1" xmlns="http://www.w3.org/2000/svg">
<g fill="#202020">
<path d="M39.688,29.164l0,10.258l-31.375,-0l-0,-10.258l-6.03,0l-0,13.273c-0,1.664 1.348,3.014 3.02,3.014l37.396,0c1.671,0 3.021,-1.349 3.021,-3.014l-0,-13.273l-6.032,0Z"/>
<path d="M24.673,3.853l8.634,10.432c0,0 1.313,1.241 -0.111,1.241l-4.865,0l0,15.186c0,0 0.193,0.74 -0.921,0.74l-6.848,0c-0.804,0 -0.785,-0.623 -0.785,-0.623l0,-14.99l-4.49,0c-1.729,0 -0.427,-1.298 -0.427,-1.298c0,0 7.346,-9.75 8.369,-10.774c0.737,-0.743 1.444,0.086 1.444,0.086Z"/>
</g></svg>