<svg width="48px" height="48px" version="1.1" xmlns="http://www.w3.org/2000/svg" style="fill-rule:evenodd">
<g fill="#202020">
<path d="M47.292,16.836c0,-1.196 -0.971,-2.167 -2.167,-2.167l-42.25,-0c-1.196,-0 -2.167,0.971 -2.167,2.167l0,14.328c0,1.196 0.971,2.167 2.167,2.167l42.25,-0c1.196,-0 2.167,-0.971 2.167,-2.167l0,-14.328Zm-8.028,0.833l0,1.256l-5.977,-0l-0,-1.256l-18.627,0l0,1.256l-5.977,-0l0,-1.256l-4.808,0c-0.092,0 -0.167,0.075 -0.167,0.167l-0,12.328c-0,0.092 0.075,0.167 0.167,0.167l40.25,0c0.092,0 0.167,-0.075 0.167,-0.167l-0,-12.328c-0,-0.092 -0.075,-0.167 -0.167,-0.167l-4.861,0Z"/>
<path d="M18.498,24.126c0,-0.829 0.673,-1.502 1.502,-1.502c0.829,-0 1.502,0.673 1.502,1.502l4.996,-0c0,-0.829 0.673,-1.502 1.502,-1.502c0.829,-0 1.502,0.673 1.502,1.502l4.996,-0c0,-0.829 0.673,-1.502 1.502,-1.502c0.829,-0 1.502,0.673 1.502,1.502l5.149,-0l-0,4.644l-37.302,-0l-0,-4.644l5.149,-0c-0,-0.829 0.673,-1.502 1.502,-1.502c0.829,-0 1.502,0.673 1.502,1.502l4.996,-0Z"/>
</g></svg>