<svg width="48px" height="48px" version="1.1" xmlns="http://www.w3.org/2000/svg">
<path fill="#202020" d="M0.57,9.985l5.691,0l0,29.092l-2.338,0l0,-2.804l-2.429,0l0,-8.006l2.429,0l0,-5.822l-2.429,0l0,-8.007l2.429,0l0,-3.162l-3.353,0l0,-1.291Zm44.374,4.772c1.495,0 2.707,1.212 2.707,2.707l0,17.653c0,1.495 -1.212,2.707 -2.707,2.707l-0.002,0l0,2.686l-17.288,0l0,-2.686l-1.642,0l0,2.686l-17.287,0l-0,-2.686l-1.516,0l-0,-23.067m35.479,11.324c0,-5.341 -4.329,-9.67 -9.67,-9.67c-5.341,0 -9.671,4.329 -9.671,9.67c0,5.34 4.331,9.67 9.671,9.67c5.34,0 9.67,-4.33 9.67,-9.67Zm-8.711,-7.477c0.272,0.074 0.644,1.015 0.85,2.154c0.265,1.429 0.223,1.337 0.446,0.868c0.106,-0.231 0.238,-0.611 0.289,-0.851c0.165,-0.809 0.801,-1.272 1.495,-1.089c0.215,0.058 0.563,0.329 1.162,0.907c0.966,0.917 1.43,1.486 1.76,2.139l0.222,0.446l-0.156,0.29c-0.239,0.445 -1.223,1.452 -2.005,2.063l-0.703,0.553l0.57,0.026c0.348,0.017 0.834,-0.026 1.205,-0.118c0.628,-0.139 0.645,-0.13 0.997,0.034c0.694,0.339 0.802,0.868 0.438,2.12c-0.403,1.38 -0.824,2.282 -1.362,2.923c-0.164,0.191 -0.188,0.2 -0.732,0.107c-0.653,-0.107 -1.694,-0.444 -2.255,-0.726c-0.224,-0.114 -0.396,-0.164 -0.396,-0.123c-0,0.09 0.568,0.818 0.825,1.041c0.595,0.537 0.519,1.543 -0.139,1.881c-0.332,0.176 -1.604,0.529 -2.412,0.678c-0.703,0.124 -1.543,0.147 -1.898,0.051c-0.273,-0.073 -0.643,-1.018 -0.85,-2.156c-0.273,-1.443 -0.224,-1.329 -0.403,-0.983c-0.085,0.166 -0.224,0.579 -0.314,0.909c-0.258,0.907 -0.62,1.213 -1.412,1.148c-0.299,-0.019 -0.521,-0.185 -1.379,-1.017c-0.876,-0.849 -1.322,-1.404 -1.643,-2.031l-0.222,-0.444l0.155,-0.297c0.223,-0.422 1.346,-1.569 2.079,-2.129l0.62,-0.48l-0.628,-0.024c-0.347,-0.018 -0.851,0.032 -1.156,0.1c-0.635,0.149 -0.989,0.074 -1.32,-0.266c-0.354,-0.37 -0.396,-0.657 -0.224,-1.394c0.332,-1.378 0.899,-2.716 1.437,-3.359c0.184,-0.224 0.223,-0.232 0.596,-0.183c0.645,0.09 1.562,0.363 2.155,0.627c0.296,0.142 0.576,0.248 0.618,0.248c0.124,0 -0.081,-0.297 -0.545,-0.8c-0.237,-0.265 -0.479,-0.562 -0.528,-0.661c-0.248,-0.462 -0.009,-1.213 0.462,-1.461c0.314,-0.166 1.652,-0.545 2.371,-0.668c0.617,-0.119 1.608,-0.143 1.93,-0.053Z"/>
</svg>