<svg width="48px" height="48px" viewBox="0 0 48 48" version="1.1" xmlns="http://www.w3.org/2000/svg" style="fill-rule:evenodd">
<g fill="#202020">
<path d="M31.711,1.114l-15.201,-0c-1.117,-0 -2.019,0.904 -2.019,2.018l0,27.711c0,1.114 0.902,0.734 2.019,0.734l15.201,0c1.114,0 2.019,0.382 2.019,-0.734l-0,-27.711c-0,-1.114 -0.905,-2.018 -2.019,-2.018Zm-7.603,22.324c-0.844,0 -1.532,-0.686 -1.532,-1.53c-0,-0.849 0.688,-1.535 1.532,-1.535c0.845,-0 1.533,0.686 1.533,1.535c-0,0.842 -0.688,1.53 -1.533,1.53Zm6.786,-8.121c0,0.603 -0.49,1.093 -1.093,1.093l-11.384,0c-0.603,0 -1.09,-0.49 -1.09,-1.093l-0,-2.596c-0,-0.603 0.487,-1.091 1.09,-1.091l11.384,0c0.603,0 1.093,0.488 1.093,1.091l0,2.596Zm0,-7.293c0,0.606 -0.49,1.094 -1.093,1.094l-11.384,-0c-0.603,-0 -1.09,-0.488 -1.09,-1.094l-0,-2.593c-0,-0.603 0.487,-1.093 1.09,-1.093l11.384,-0c0.603,-0 1.093,0.49 1.093,1.093l0,2.593Z"/>
<path d="M44.951,34.107l-19.841,0l0,-2l-2,0l0,2l-20.062,0c-1.271,0 -2.302,1.031 -2.302,2.304l-0,8.172c-0,1.272 1.031,2.303 2.303,2.303l41.902,0c1.271,0 2.303,-1.031 2.303,-2.303l0,-8.172c0,-1.273 -1.032,-2.304 -2.303,-2.304Zm-13.968,10.542c0.255,-0.147 0.357,-0.461 0.24,-0.731l-0.245,-0.568c0.228,-0.232 0.43,-0.494 0.603,-0.778l0.604,0.088c0.29,0.042 0.567,-0.139 0.644,-0.423l0.295,-1.109c0.039,-0.149 0.018,-0.305 -0.059,-0.438c-0.066,-0.113 -0.167,-0.202 -0.289,-0.249l-0.548,-0.217c-0.003,-0.349 -0.047,-0.697 -0.134,-1.038l0.483,-0.361c0.237,-0.176 0.303,-0.5 0.156,-0.754l-0.576,-0.996c-0.147,-0.254 -0.462,-0.357 -0.732,-0.24l-0.553,0.24c-0.259,-0.251 -0.548,-0.469 -0.861,-0.649l0.089,-0.606c0.018,-0.129 -0.007,-0.262 -0.072,-0.374c-0.077,-0.133 -0.202,-0.229 -0.352,-0.27l-1.111,-0.296c-0.284,-0.076 -0.579,0.074 -0.687,0.348l-0.241,0.608c-0.332,0.011 -0.662,0.06 -0.98,0.147l-0.388,-0.523c-0.176,-0.236 -0.5,-0.303 -0.754,-0.156l-0.995,0.576c-0.254,0.148 -0.358,0.462 -0.24,0.733l0.275,0.635c-0.207,0.222 -0.391,0.465 -0.547,0.722l-0.691,-0.101c-0.289,-0.042 -0.566,0.14 -0.644,0.423l-0.295,1.111c-0.041,0.15 -0.02,0.306 0.057,0.439c0.066,0.113 0.169,0.201 0.29,0.25l0.644,0.254c0.005,0.317 0.045,0.631 0.118,0.94l-0.565,0.421c-0.236,0.176 -0.303,0.501 -0.156,0.755l0.577,0.995c0.146,0.254 0.461,0.357 0.731,0.24l0.621,-0.269c0.241,0.236 0.51,0.446 0.801,0.624l-0.096,0.661c-0.019,0.129 0.007,0.262 0.072,0.374c0.077,0.133 0.202,0.229 0.351,0.27l1.112,0.295c0.283,0.076 0.579,-0.074 0.687,-0.348l0.243,-0.61c0.339,-0.004 0.674,-0.048 0.994,-0.128l0.375,0.504c0.176,0.237 0.501,0.303 0.755,0.156l0.995,-0.577Zm-9.256,-1.331c0.096,-0.166 0.052,-0.379 -0.103,-0.494l-0.325,-0.243c0.053,-0.206 0.082,-0.421 0.088,-0.64l0.372,-0.148c0.179,-0.07 0.277,-0.264 0.228,-0.451l-0.195,-0.727c-0.026,-0.098 -0.089,-0.18 -0.177,-0.23c-0.074,-0.043 -0.161,-0.06 -0.246,-0.047l-0.382,0.056c-0.116,-0.197 -0.255,-0.381 -0.416,-0.547l0.157,-0.363c0.076,-0.178 0.008,-0.384 -0.159,-0.48l-0.653,-0.378c-0.167,-0.096 -0.38,-0.052 -0.495,0.103l-0.236,0.318c-0.23,-0.058 -0.465,-0.087 -0.702,-0.087l-0.149,-0.374c-0.031,-0.08 -0.089,-0.147 -0.163,-0.189c-0.087,-0.051 -0.189,-0.065 -0.288,-0.039l-0.729,0.195c-0.186,0.05 -0.305,0.232 -0.277,0.423l0.062,0.425c-0.185,0.115 -0.357,0.25 -0.509,0.404l-0.392,-0.17c-0.177,-0.077 -0.384,-0.009 -0.48,0.158l-0.377,0.653c-0.097,0.167 -0.052,0.38 0.103,0.496l0.364,0.27c-0.045,0.195 -0.07,0.393 -0.074,0.59l-0.426,0.169c-0.179,0.071 -0.277,0.265 -0.228,0.451l0.195,0.729c0.026,0.098 0.089,0.18 0.177,0.231c0.074,0.042 0.161,0.059 0.246,0.047l0.449,-0.066c0.107,0.178 0.233,0.344 0.375,0.496l-0.183,0.424c-0.077,0.178 -0.009,0.384 0.158,0.481l0.654,0.377c0.166,0.096 0.379,0.052 0.495,-0.103l0.264,-0.356c0.215,0.055 0.437,0.086 0.66,0.092l0.162,0.408c0.031,0.079 0.089,0.147 0.163,0.189c0.088,0.051 0.19,0.064 0.289,0.039l0.728,-0.196c0.186,-0.05 0.306,-0.232 0.277,-0.423l-0.061,-0.426c0.191,-0.114 0.367,-0.248 0.523,-0.399l0.379,0.164c0.177,0.077 0.384,0.009 0.48,-0.158l0.377,-0.654Zm-2.295,-0.869c-0.311,0.54 -1.004,0.726 -1.544,0.414c-0.54,-0.312 -0.726,-1.005 -0.414,-1.545c0.311,-0.54 1.005,-0.725 1.545,-0.414c0.54,0.312 0.725,1.005 0.413,1.545Zm9.181,-0.692c-0.823,0.477 -1.879,0.195 -2.355,-0.627c-0.476,-0.822 -0.195,-1.879 0.627,-2.355c0.822,-0.477 1.879,-0.195 2.355,0.627c0.476,0.823 0.195,1.879 -0.627,2.355Z"/>
</g></svg>