<svg width="48px" height="48px" version="1.1" xmlns="http://www.w3.org/2000/svg">
<path fill="#202020" d="M46.995,12.502l0,22.996c0,6.345 -5.152,11.497 -11.497,11.497l-22.996,0c-6.345,0 -11.497,-5.152 -11.497,-11.497l-0,-22.996c-0,-6.345 5.152,-11.497 11.497,-11.497l22.996,-0c6.345,-0 11.497,5.152 11.497,11.497Zm-15.195,11.283l0,0.428c0,3.481 2.609,6.195 5.729,6.195l5.691,0c0.939,0 1.701,-0.762 1.701,-1.7c-0,-0.939 -0.762,-1.701 -1.701,-1.701l-5.691,0c-1.345,0 -2.328,-1.294 -2.328,-2.794l0,-0.428c0,-1.5 0.983,-2.794 2.328,-2.794l5.691,-0c0.939,-0 1.701,-0.762 1.701,-1.701c-0,-0.938 -0.762,-1.7 -1.701,-1.7l-5.691,0c-3.12,0 -5.729,2.714 -5.729,6.195Zm-28.597,-4.613l4.993,10.761c0.226,0.487 0.818,0.894 1.534,0.894c0.716,0 1.308,-0.407 1.534,-0.894l4.987,-10.749c0.351,-0.758 -0.031,-1.697 -1.089,-1.949c-0.839,-0.2 -1.701,0.241 -1.979,0.842l-3.453,7.442l-3.458,-7.454c-0.279,-0.601 -1.141,-1.042 -1.98,-0.842c-1.058,0.252 -1.44,1.192 -1.089,1.949Zm20.897,1.63c1.415,0 2.596,1.034 2.596,2.375l0,5.625c0,0.886 0.72,1.606 1.606,1.606c0.887,0 1.606,-0.72 1.606,-1.606l0,-5.625c0,-3.07 -2.567,-5.587 -5.809,-5.587c0.276,0 0,0 0,0l-0.398,0c-3.242,0 -5.809,2.517 -5.809,5.587l-0,5.445c-0,0.887 0.72,1.606 1.606,1.606c0.886,0 1.606,-0.719 1.606,-1.606l0,-5.445c0,-1.341 1.181,-2.375 2.597,-2.375l0.399,0Z"/>
</svg>