<svg width="48px" height="48px" viewBox="0 0 48 48" version="1.1" xmlns="http://www.w3.org/2000/svg">
<path fill="#202020" d="M45.847,40.881c-1.492,2.574 -4.143,4.115 -7.1,4.105l-29.532,0c-2.947,0 -5.579,-1.522 -7.053,-4.048c-1.493,-2.555 -1.502,-5.627 -0.029,-8.201l14.805,-25.637c1.464,-2.555 4.105,-4.096 7.072,-4.096c2.966,0 5.607,1.531 7.072,4.105l14.785,25.609c1.473,2.555 1.464,5.598 -0.02,8.163Zm-22.659,-28.245c-1.569,0.394 -2.548,1.624 -2.548,3.12c0.082,0.905 0.148,1.821 0.229,2.725c0.228,3.444 0.455,6.819 0.67,10.263c0.08,1.171 1.126,2.018 2.479,2.018c1.354,0 2.413,-0.905 2.48,-2.087c0,-0.707 0,-1.357 0.081,-2.076c0.147,-2.203 0.309,-4.419 0.442,-6.622c0.08,-1.426 0.227,-2.864 0.309,-4.291c-0,-0.51 -0.082,-0.974 -0.309,-1.426c-0.683,-1.288 -2.265,-1.948 -3.833,-1.624Zm0.813,20.834c-1.649,0 -2.987,1.338 -2.987,2.987c-0,1.648 1.338,2.987 2.987,2.987c1.648,-0 2.986,-1.339 2.986,-2.987c0,-1.649 -1.338,-2.987 -2.986,-2.987Z"/>
</svg>