<svg version="1.1" xmlns="http://www.w3.org/2000/svg" x="0px" y="0px" width="48px" height="48px">
<g fill="#202020">
<path d="M46.83,41.64c1.55-2.68,1.56-5.86,0.02-8.53L31.4,6.35c-1.53-2.69-4.29-4.29-7.39-4.29s-5.86,1.61-7.39,4.28 L1.15,33.13c-1.54,2.69-1.53,5.9,0.03,8.57c1.54,2.64,4.29,4.23,7.37,4.23h30.86C42.5,45.94,45.27,44.33,46.83,41.64z M43.48,39.7 c-0.86,1.48-2.38,2.36-4.07,2.36H8.54c-1.68,0-3.19-0.86-4.03-2.31c-0.85-1.47-0.86-3.23-0.01-4.71L19.97,8.27 c0.84-1.47,2.34-2.34,4.04-2.34c1.69,0,3.2,0.88,4.04,2.35l15.46,26.78C44.34,36.5,44.33,38.23,43.48,39.7z"/>
<path d="M24,32.9c-1.34,0-2.47,1.12-2.47,2.47c0,1.34,1.12,2.47,2.47,2.47c1.29,0,2.47-1.13,2.41-2.41 C26.47,34.01,25.35,32.9,24,32.9z"/>
<path d="M23.39,15.58c-1.17,0.34-1.9,1.4-1.9,2.69c0.06,0.78,0.11,1.57,0.17,2.35c0.17,2.97,0.34,5.88,0.5,8.85 c0.06,1.01,0.84,1.74,1.85,1.74s1.8-0.78,1.85-1.8c0-0.61,0-1.17,0.06-1.79c0.11-1.9,0.23-3.81,0.33-5.71 c0.06-1.23,0.17-2.47,0.23-3.7c0-0.44-0.06-0.84-0.23-1.23C25.74,15.87,24.56,15.3,23.39,15.58z"/>
</g></svg>