<svg width="48px" height="48px" viewBox="0 0 48 48" version="1.1" xmlns="http://www.w3.org/2000/svg">
<path fill="#202020" d="M45.847,40.881c-1.492,2.574 -4.143,4.115 -7.1,4.105l-29.532,-0c-2.947,-0 -5.579,-1.522 -7.053,-4.048c-1.493,-2.555 -1.502,-5.627 -0.029,-8.201l14.805,-25.637c1.464,-2.555 4.105,-4.096 7.072,-4.096c2.966,0 5.607,1.531 7.072,4.105l14.785,25.609c1.473,2.555 1.464,5.598 -0.02,8.163Zm-22.529,-26.652c-1.313,0.381 -2.132,1.571 -2.132,3.018c0.068,0.875 0.124,1.761 0.191,2.636c0.191,3.331 0.381,6.596 0.561,9.927c0.067,1.133 0.942,1.952 2.075,1.952c1.133,0 2.019,-0.875 2.075,-2.019c0,-0.684 0,-1.312 0.068,-2.008c0.123,-2.131 0.258,-4.274 0.37,-6.405c0.067,-1.38 0.19,-2.771 0.258,-4.151c-0,-0.493 -0.068,-0.942 -0.258,-1.379c-0.572,-1.246 -1.896,-1.885 -3.208,-1.571Zm0.684,19.429c-1.503,0 -2.771,1.256 -2.771,2.771c0,1.503 1.256,2.771 2.771,2.771c1.447,-0 2.771,-1.268 2.703,-2.704c0.068,-1.593 -1.189,-2.838 -2.703,-2.838Z"/>
</svg>