<svg width="48px" height="48px" viewBox="0 0 48 48" version="1.1" xmlns="http://www.w3.org/2000/svg">
<g fill="#202020">
<path d="M21.908,0.103c-8.318,0.793 -15.559,6.752 -18.02,14.847c-1.078,3.518 -1.179,7.505 -0.284,11.145c0.671,2.746 2.155,5.736 3.945,7.973l0.57,0.712l-0.509,0.549c-0.59,0.651 -1.139,1.566 -1.383,2.298c-0.264,0.773 -0.244,2.116 0.041,2.929c1.058,3.071 5.268,5.654 11.084,6.834c2.441,0.488 3.722,0.61 6.672,0.61c2.928,0 4.21,-0.122 6.671,-0.61c5.816,-1.159 10.027,-3.763 11.084,-6.834c0.326,-0.915 0.305,-2.258 -0.02,-3.132c-0.265,-0.712 -0.732,-1.444 -1.383,-2.156l-0.448,-0.508l0.651,-0.855c2.237,-2.867 3.641,-6.101 4.251,-9.864c0.244,-1.525 0.224,-4.739 -0.041,-6.346c-0.752,-4.454 -2.603,-8.155 -5.654,-11.308c-4.495,-4.617 -10.739,-6.915 -17.227,-6.284Zm4.638,9.172c2.359,0.529 4.189,1.546 5.918,3.295c1.77,1.77 2.807,3.681 3.336,6.102c0.244,1.118 0.244,3.579 -0,4.698c-0.529,2.441 -1.566,4.352 -3.336,6.102c-1.769,1.769 -3.681,2.806 -6.102,3.335c-1.118,0.244 -3.579,0.244 -4.698,0c-2.44,-0.529 -4.352,-1.566 -6.101,-3.335c-1.77,-1.77 -2.807,-3.682 -3.336,-6.102c-0.244,-1.119 -0.244,-3.58 0,-4.698c1.119,-5.187 5.227,-8.929 10.475,-9.62c0.732,-0.082 3.071,0.04 3.844,0.223Z"/>
<path d="M22.986,15.112c-0.712,0.143 -0.712,0.163 -0.264,0.468c0.447,0.305 0.691,0.59 1.037,1.221c0.183,0.345 0.224,0.569 0.224,1.22c-0,0.732 -0.02,0.854 -0.305,1.383c-0.366,0.651 -0.651,0.935 -1.363,1.322c-0.407,0.203 -0.61,0.244 -1.281,0.244c-0.651,-0 -0.875,-0.041 -1.221,-0.224c-0.63,-0.345 -0.915,-0.59 -1.22,-1.017c-0.142,-0.223 -0.285,-0.366 -0.305,-0.325c-0.102,0.163 -0.244,1.22 -0.244,1.708c-0,2.156 1.363,4.292 3.295,5.248c2.4,1.179 5.084,0.752 6.956,-1.099c1.85,-1.871 2.298,-4.555 1.098,-6.955c-1.18,-2.319 -3.905,-3.682 -6.407,-3.194Z"/>
</g></svg>