<svg width="48px" height="48px" version="1.1" xmlns="http://www.w3.org/2000/svg" style="fill-rule:evenodd">
<g fill="#202020">
<path d="M9.134,39.545c-0.088,0.259 -0.136,0.536 -0.136,0.824c0,0 -0.861,7.631 0.543,7.631l28.918,0c1.404,0 0.543,-7.631 0.543,-7.631c0,-0.288 -0.048,-0.565 -0.136,-0.824c-4.011,3.402 -9.201,5.455 -14.866,5.455c-5.665,0 -10.855,-2.053 -14.866,-5.455Z"/>
<path d="M24,1c11.59,0 21,9.41 21,21c0,11.59 -9.41,21 -21,21c-11.59,0 -21,-9.41 -21,-21c0,-11.59 9.41,-21 21,-21Zm0,9.353c6.428,-0 11.647,5.219 11.647,11.647c0,6.428 -5.219,11.647 -11.647,11.647c-6.428,0 -11.647,-5.219 -11.647,-11.647c-0,-6.428 5.219,-11.647 11.647,-11.647Z"/>
<path d="M24,12.982c4.977,-0 9.018,4.041 9.018,9.018c0,4.977 -4.041,9.018 -9.018,9.018c-4.977,0 -9.018,-4.041 -9.018,-9.018c0,-4.977 4.041,-9.018 9.018,-9.018Zm0,5.287c2.059,0 3.731,1.672 3.731,3.731c0,2.059 -1.672,3.731 -3.731,3.731c-2.059,0 -3.731,-1.672 -3.731,-3.731c0,-2.059 1.672,-3.731 3.731,-3.731Z"/>
</g></svg>