<svg width="48px" height="48px" viewBox="0 0 48 48" version="1.1" xmlns="http://www.w3.org/2000/svg" >
<g fill="#202020">
<path d="M6.054,46.356l4.775,-5.949l2.75,4.705c0.206,0.281 0.553,0.42 0.894,0.357c0.342,-0.064 0.618,-0.316 0.71,-0.65l4.938,-17.801c0.097,-0.349 -0.023,-0.723 -0.306,-0.949c-0.283,-0.226 -0.673,-0.264 -0.993,-0.094l-16.315,8.67c-0.304,0.162 -0.491,0.486 -0.479,0.834c0.013,0.348 0.221,0.656 0.541,0.796l5.189,1.667l-4.776,5.949c-0.15,0.188 -0.22,0.426 -0.194,0.666c0.026,0.238 0.146,0.457 0.334,0.607l1.658,1.33c0.39,0.314 0.96,0.251 1.274,-0.138Z"/>
<path d="M3.094,32.068c-0.927,-2.514 -1.439,-5.23 -1.439,-8.068c0,-12.893 10.452,-23.345 23.345,-23.345c12.895,-0 23.346,10.452 23.346,23.345c-0,11.146 -7.814,20.468 -18.262,22.785c0.594,-0.447 0.834,-1.866 2.165,-2.657c1.506,-0.895 3.101,-2.051 4.241,-2.987c1.14,-0.932 1.663,-2.393 2.805,-3.031c1.14,-0.639 4.763,-6.475 4.058,-7.637c-0.707,-1.162 -3.533,-0.709 -4.24,-1.05c-0.707,-0.342 -0.184,-1.389 -0.936,-1.915c-0.752,-0.526 -1.87,-0.342 -4.059,-1.596c-2.187,-1.254 -3.191,-0.411 -3.441,-0.342c-0.251,0.068 -2.006,1.551 -2.531,1.505c-0.524,-0.046 -2.963,0.118 -3.054,-1.824c-0.092,-1.943 -1.756,-1.983 -1.893,-2.006c-0.137,-0.023 0.684,-1.459 0.046,-1.778c-0.638,-0.319 -2.53,2.576 -3.67,0.319c-1.14,-2.257 0.999,-3.363 1.961,-3.625c3.191,-0.866 3.783,1.459 4.377,1.368c0.591,-0.09 -0.547,-1.572 -0.229,-2.256c0.32,-0.685 1.55,-1.414 1.528,-1.893c-0.022,-0.478 -0.451,-2.462 1.437,-2.758c-0,0 -0.344,-0.524 0.022,-0.729c0.364,-0.206 0.456,-0.798 1.024,-0.228c-0,0 1.392,-0.662 0.936,-1.003c-0.456,-0.341 -2.165,-0.501 0.547,-1.983c-0,0 -2.163,-1.829 -2.96,-2.08c-0.797,-0.251 -0.595,0.438 -1.69,-0.291c-0,0 -1.482,-0.753 -1.299,0.205c0.183,0.958 0.73,3.123 -1.048,1.824c-1.778,-1.299 -2.803,-1.299 -1.801,-1.983c1.003,-0.683 1.436,-0.638 1.231,-1.025c-0.206,-0.388 1.162,-0.798 -0.365,-0.684c-1.528,0.114 -1.802,-1.094 -2.804,-1.254c-1.003,-0.159 -1.619,0.046 -1.186,0.456c0.433,0.41 0.348,0.548 -0.935,0.137c-1.282,-0.41 -2.257,-1.276 -3.853,-0.159c-1.595,1.117 -3.806,2.326 -3.875,3.032c-0,0 2.599,-1.55 3.055,-0.821c0.456,0.73 -0.182,2.735 0.41,3.693c0.593,0.958 -0.547,-1.088 -0.638,0.411c-0.091,1.499 -2.006,2.963 -0.547,5.836c1.459,2.872 0.524,2.553 0.98,3.146c0.457,0.593 0.799,1.322 0.958,1.254c0.16,-0.069 -0.821,-2.462 -0.661,-2.668c0.16,-0.205 0.241,0.707 0.679,1.368c0.438,0.661 1.373,1.579 1.396,2.211c0.022,0.633 0.159,1.527 1.732,2.166c0.361,0.147 0.747,0.299 1.136,0.451l-0.404,0.019l-0.805,0.286l-14.79,7.859Zm18.182,-7.332c0.413,0.155 0.746,0.281 0.944,0.358c0.638,0.252 0.684,-0.066 1.095,0.344c0.41,0.411 0.547,0.957 0.843,1.185c0.297,0.229 1.689,1.094 2.007,1.071c0.318,-0.023 0.432,-0.41 0.661,-0.389c0.227,0.024 1.14,0.571 1.161,0.776c0.023,0.206 0.023,0.887 -0.045,1.071c-0.068,0.182 -1.548,1.961 -1.277,3.146c0.081,0.347 -0.434,0.548 0.822,1.894c1.254,1.343 0.682,1.869 2.734,3.031c2.05,1.163 -0.023,4.629 -0.685,5.995c-0.593,1.232 -0.529,3.386 0.073,3.671c-1.49,0.299 -3.031,0.457 -4.609,0.457c-2.857,0 -5.592,-0.519 -8.122,-1.46l0.233,-0.536l4.937,-17.797c0,-0.001 0.105,-0.845 0.105,-0.845l-0.139,-0.824l-0.368,-0.751l-0.37,-0.397Zm5.639,-18.791c0.569,0.022 0.661,-0.342 0.57,-0.775c-0.092,-0.434 -1.574,-1.026 -1.846,-1.254c-0.274,-0.228 -1.916,-0.297 -2.326,-0.251c-0.411,0.045 -0.069,0.501 0.752,0.57c0.821,0.069 2.148,0.341 1.185,1.299c-0.247,0.245 1.096,0.388 1.665,0.411Zm4.946,-0.16c0.457,-0.365 -0.615,-1.212 -0.638,-2.133c-0.021,-0.922 -1.184,-1.698 -2.188,-1.811c-1.003,-0.114 -2.737,-0.843 -3.352,-0.297c-0.615,0.547 -0.758,0.913 -0.355,1.186c0.401,0.274 1.428,-0.273 3.343,1.368c0.44,0.378 2.735,2.052 3.19,1.687Zm-8.722,-3.284c-0.174,0.23 -0.464,0.363 -0.305,0.479c0.251,0.183 1.826,0.092 2.155,-0.844c0.329,-0.934 -1.357,-0.455 -1.699,-0.114c-0.126,0.126 -0.051,0.347 -0.151,0.479Zm7.334,20.063c0.318,-0.091 0.865,-0.237 0.134,-0.472c-0.729,-0.236 -0.934,0.198 -1.344,0.175c-0.412,-0.022 -2.242,-1.508 -3.693,-1.368c-0.707,0.069 -0.57,0.457 -0.57,0.457c0.137,0.16 1.254,-0.023 2.872,0.935c1.621,0.957 2.281,0.364 2.601,0.273Z"/>
</g></svg>