<svg version="1.1" xmlns="http://www.w3.org/2000/svg" width="48px" height="48px">
<path fill="#202020" d="M18.625,17.563c-4.326,7.166 -9.275,10.242 -14.129,13.936c2.015,2.402 4.188,4.477 6.483,6.29l7.511,-7.307l-5.033,9.125c5.937,4.065 12.605,6.593 19.619,8.393c-0.579,-6.916 1.814,-13.151 5.006,-19.203l-19.457,-11.234Zm20.062,9.933c0.06,0.035 3.392,-5.737 3.332,-5.772l-19.238,-11.107c-0.06,-0.035 -3.393,5.737 -3.333,5.772l19.239,11.107Zm4.817,-24.432c0.035,-0.06 -5.271,-3.123 -5.306,-3.063l-7.56,13.094c-0.035,0.06 5.271,3.124 5.306,3.063l7.56,-13.094Z"/>
</svg>