<svg width="48px" height="48px" viewBox="0 0 1024 1024" version="1.1" xmlns="http://www.w3.org/2000/svg" >
<path fill="#202020" d="M397.329,374.682c-92.281,152.874 -197.859,218.496 -301.419,297.306c43,51.243 89.339,95.498 138.313,134.177l160.237,-155.881l-107.381,194.673c126.667,86.712 268.902,140.639 418.534,179.043c-12.353,-147.541 38.716,-280.546 106.801,-409.668l-415.085,-239.65Zm427.983,211.895c1.285,0.742 72.374,-122.389 71.089,-123.131l-410.412,-236.951c-1.285,-0.742 -72.374,122.388 -71.089,123.13l410.412,236.952Zm102.775,-521.202c0.742,-1.285 -112.459,-66.642 -113.201,-65.356l-161.275,279.337c-0.742,1.285 112.458,66.642 113.2,65.356l161.276,-279.337Zm-61.935,-15.221c0,0 -24.787,-27.488 -42.183,-23.128c-15.767,3.951 -44.578,76.148 -44.578,76.148c27.035,-23.9 33.791,-82.905 86.761,-53.02l0,0Z"/>
</svg>