<svg width="48px" height="48px" version="1.1" xmlns="http://www.w3.org/2000/svg">
<path fill="#202020" fill-rule="evenodd" d="M11,8 H37 A5,5 0 0 1 42,13 V35 A5,5 0 0 1 37,40 H11 A5,5 0 0 1 6,35 V13 A5,5 0 0 1 11,8 ZM14.5,13.5 H21 A1.5,1.5 0 0 1 22.5,15 V21 A1.5,1.5 0 0 1 21,22.5 H14.5 A1.5,1.5 0 0 1 13,21 V15 A1.5,1.5 0 0 1 14.5,13.5 ZM27,13.5 H33.5 A1.5,1.5 0 0 1 35,15 V21 A1.5,1.5 0 0 1 33.5,22.5 H27 A1.5,1.5 0 0 1 25.5,21 V15 A1.5,1.5 0 0 1 27,13.5 ZM14.5,25.5 H21 A1.5,1.5 0 0 1 22.5,27 V33 A1.5,1.5 0 0 1 21,34.5 H14.5 A1.5,1.5 0 0 1 13,33 V27 A1.5,1.5 0 0 1 14.5,25.5 ZM27,25.5 H33.5 A1.5,1.5 0 0 1 35,27 V33 A1.5,1.5 0 0 1 33.5,34.5 H27 A1.5,1.5 0 0 1 25.5,33 V27 A1.5,1.5 0 0 1 27,25.5 Z"/>
</svg>
