<svg width="48px" height="48px" viewBox="0 0 48 48" version="1.1" xmlns="http://www.w3.org/2000/svg" style="fill-rule:evenodd">
<path fill="#202020" d="M44.568,4.428l-41.139,0c-1.893,0 -3.429,1.532 -3.429,3.426l0,34.289c0,1.895 1.536,3.428 3.429,3.428l41.139,0c1.89,0 3.432,-1.533 3.432,-3.428l0,-34.289c0,-1.894 -1.543,-3.426 -3.432,-3.426Zm-18.683,14.764l-3.735,0l0,-1.192l3.735,0l0,1.192Zm-16.946,-1.304l-1.573,0l-1.046,-4.043c-0.056,-0.211 -0.089,-0.447 -0.101,-0.708l-0.017,-0c-0.026,0.287 -0.064,0.523 -0.114,0.708l-1.072,4.043l-1.64,0l-1.657,-6.302l1.551,0l0.888,4.196c0.038,0.18 0.066,0.42 0.083,0.721l0.026,0c0.012,-0.225 0.054,-0.471 0.127,-0.738l1.143,-4.179l1.521,0l1.033,4.231c0.038,0.156 0.072,0.382 0.101,0.678l0.018,0c0.012,-0.231 0.042,-0.467 0.092,-0.703l0.87,-4.206l1.434,0l-1.667,6.302Zm9.646,0l-1.401,0l0,-3.771c0,-0.407 0.018,-0.857 0.053,-1.349l-0.035,0c-0.074,0.387 -0.14,0.665 -0.198,0.835l-1.477,4.285l-1.16,0l-1.503,-4.241c-0.041,-0.114 -0.107,-0.407 -0.197,-0.879l-0.04,0c0.038,0.621 0.058,1.166 0.058,1.635l0,3.485l-1.279,0l0,-6.302l2.078,0l1.288,3.735c0.103,0.299 0.177,0.6 0.224,0.9l0.027,0c0.078,-0.348 0.162,-0.651 0.25,-0.909l1.287,-3.727l2.026,0l-0.001,6.303Zm2.853,0l-1.42,0l0,-6.302l1.42,0l0,6.302Zm22.577,-11.46c1.096,0 1.985,0.889 1.985,1.985c0,1.096 -0.889,1.985 -1.985,1.985c-1.096,0 -1.985,-0.889 -1.985,-1.985c-0,-1.096 0.889,-1.985 1.985,-1.985Zm-5,0c1.096,0 1.985,0.889 1.985,1.985c0,1.096 -0.889,1.985 -1.985,1.985c-1.096,0 -1.985,-0.889 -1.985,-1.985c-0,-1.096 0.889,-1.985 1.985,-1.985Zm-5,0c1.096,0 1.985,0.889 1.985,1.985c0,1.096 -0.889,1.985 -1.985,1.985c-1.096,0 -1.985,-0.889 -1.985,-1.985c-0,-1.096 0.889,-1.985 1.985,-1.985Z"/>
</svg>