<svg width="48px" height="48px" viewBox="0 0 48 48" version="1.1" xmlns="http://www.w3.org/2000/svg" style="fill-rule:evenodd">
<path fill="#202020" d="M44.568,4.428l-41.139,0c-1.893,0 -3.429,1.532 -3.429,3.426l0,34.289c0,1.895 1.536,3.428 3.429,3.428l41.139,0c1.89,0 3.432,-1.533 3.432,-3.428l0,-34.289c0,-1.894 -1.543,-3.426 -3.432,-3.426Zm-16.907,11.74l3.291,2.769l-3.291,2.773l-0.757,-0.772l2.417,-1.992l-2.417,-2.007l0.757,-0.771Zm-18.871,5.43l-0.42,-1.91l-0.566,-2.412l-0.034,0l-0.997,4.322l-1.601,-0l-1.553,-5.459l1.485,-0l0.629,2.417c0.101,0.433 0.204,1.03 0.308,1.792l0.029,-0c0.013,-0.248 0.07,-0.64 0.171,-1.177l0.078,-0.415l0.674,-2.617l1.641,-0l0.639,2.617l0.142,0.764c0.026,0.158 0.05,0.313 0.071,0.464c0.021,0.151 0.033,0.273 0.036,0.364l0.03,-0c0.029,-0.235 0.081,-0.556 0.156,-0.965c0.075,-0.408 0.129,-0.684 0.161,-0.827l0.654,-2.417l1.46,-0l-1.572,5.459l-1.621,-0Zm15.381,-0l-1.489,-0l-0,-5.459l1.489,-0l-0,5.459Zm-6.421,-0l-1.489,-0l-0,-3.189c-0,-0.394 -0.066,-0.689 -0.198,-0.886c-0.132,-0.197 -0.339,-0.295 -0.623,-0.295c-0.38,-0 -0.657,0.14 -0.83,0.419c-0.172,0.28 -0.258,0.741 -0.258,1.382l-0,2.569l-1.49,-0l0,-5.459l1.138,-0l0.2,0.698l0.083,-0c0.147,-0.251 0.358,-0.447 0.635,-0.588c0.277,-0.142 0.594,-0.213 0.952,-0.213c0.817,0 1.371,0.267 1.66,0.801l0.132,-0c0.147,-0.254 0.362,-0.451 0.647,-0.591c0.285,-0.14 0.606,-0.21 0.964,-0.21c0.619,0 1.087,0.159 1.404,0.476c0.318,0.318 0.476,0.826 0.476,1.526l0,3.56l-1.494,-0l0,-3.189c0,-0.394 -0.066,-0.689 -0.198,-0.886c-0.131,-0.197 -0.339,-0.295 -0.622,-0.295c-0.365,-0 -0.637,0.13 -0.818,0.39c-0.181,0.261 -0.271,0.674 -0.271,1.24l0,2.74Zm4.868,-6.87c0,-0.485 0.27,-0.728 0.811,-0.728c0.54,0 0.81,0.243 0.81,0.728c0,0.231 -0.067,0.411 -0.202,0.539c-0.135,0.129 -0.338,0.193 -0.608,0.193c-0.541,-0 -0.811,-0.244 -0.811,-0.732Zm21.397,-8.3c1.096,0 1.985,0.889 1.985,1.985c0,1.096 -0.889,1.985 -1.985,1.985c-1.096,0 -1.985,-0.889 -1.985,-1.985c0,-1.096 0.889,-1.985 1.985,-1.985Zm-5,0c1.096,0 1.985,0.889 1.985,1.985c0,1.096 -0.889,1.985 -1.985,1.985c-1.096,0 -1.985,-0.889 -1.985,-1.985c0,-1.096 0.889,-1.985 1.985,-1.985Zm-5,0c1.096,0 1.985,0.889 1.985,1.985c0,1.096 -0.889,1.985 -1.985,1.985c-1.096,0 -1.985,-0.889 -1.985,-1.985c0,-1.096 0.889,-1.985 1.985,-1.985Z"/>
</svg>