<svg version="1.1" xmlns="http://www.w3.org/2000/svg" x="0px" y="0px" width="48px" height="48px">
<path fill="#202020" d="M10.039,47.494c-0.141-0.082-0.262-0.271-0.267-0.399c-0.005-0.153,0.398-0.839,0.912-1.591 c1.68-2.405,2.356-3.815,2.323-4.775c-0.048-1.405-1.876-2.919-4.046-3.363c-1.879-0.39-2.96,0.373-4.486,3.152 c-1.247,2.251-2.029,2.938-2.683,2.335c-0.312-0.305-0.898-1.626-1.188-2.688c-0.184-0.654-0.226-1.17-0.23-2.317 c0.001-1.288,0.047-1.604,0.34-2.491c0.364-1.135,0.677-1.741,1.38-2.677c1.42-1.896,3.591-3.142,5.581-3.211 c0.358-0.013,1.339,0.071,2.185,0.193c1.736,0.243,1.852,0.251,2.479,0.065c0.399-0.111-1.339,1.259,8.322-8.458 c6.142-6.174,7.93-8.467,8.014-8.633c0.241-0.46,0.148-1.443-0.281-2.779c-0.789-2.517-0.463-4.055,1.26-5.886 c1.677-1.792,4.597-3.255,7.1-3.559c0.986-0.121,1.452,0.037,1.469,0.488c0.005,0.142-0.321,0.727-0.726,1.292 c-2.358,3.371-2.907,4.828-2.246,6.04c0.544,1.007,1.809,1.863,3.389,2.304c2.05,0.566,3.313-0.161,4.653-2.673 c0.813-1.488,1.36-2.297,1.799-2.646c0.74-0.556,1.13-0.333,1.728,0.987c0.621,1.375,0.806,2.286,0.806,3.952 c-0.002,1.288-0.048,1.593-0.348,2.534c-0.677,2.122-2.391,4.171-4.247,5.09c-1.634,0.793-2.564,0.89-4.995,0.542 c-1.378-0.21-1.654-0.212-2.202-0.085l-0.631,0.141l-7.852,8.335c-6.145,6.186-7.942,8.478-8.03,8.644 c-0.237,0.475-0.146,1.468,0.282,2.813c0.493,1.562,0.537,2.512,0.192,3.541c-0.585,1.751-2.23,3.409-4.576,4.604 C13.281,47.306,10.699,47.903,10.039,47.494z"/>
</svg>