<svg width="48px" height="48px" viewBox="0 0 48 48" version="1.1" xmlns="http://www.w3.org/2000/svg">
<g fill="#202020">
<path d="M6.34,26.007c4.302,5.089 11.2,6.667 17.099,4.456c1.314,-0.492 3.026,-0.217 3.934,0.854l0.641,0.76c0.905,1.071 1.787,1.814 1.169,2.338c-0.616,0.521 -0.382,1.813 0.523,2.884l7.654,9.053c0.906,1.071 2.509,1.206 3.581,0.3l3.448,-2.917c1.07,-0.904 1.205,-2.508 0.3,-3.58l-7.655,-9.051c-0.907,-1.071 -2.141,-1.519 -2.759,-0.995c-0.616,0.522 -1.206,-0.47 -2.11,-1.542l-0.642,-0.758c-0.905,-1.071 -0.894,-2.807 -0.19,-4.021c3.163,-5.45 2.751,-12.514 -1.552,-17.602c-5.473,-6.473 -15.158,-7.283 -21.632,-1.809c-6.474,5.474 -7.283,15.16 -1.809,21.63Zm19.013,-1.288c-4.763,4.027 -11.886,3.431 -15.913,-1.329c-4.027,-4.762 -3.431,-11.886 1.331,-15.912c4.761,-4.027 11.885,-3.431 15.911,1.33c4.026,4.762 3.43,11.885 -1.329,15.911Z"/>
<path d="M26.557,15.028c0,-0.552 -0.448,-1 -1,-1l-15.068,0c-0.552,0 -1,0.448 -1,1l0,2c0,0.552 0.448,1 1,1l15.068,0c0.552,0 1,-0.448 1,-1l0,-2Z"/>
</g></svg>