<svg version="1.1" xmlns="http://www.w3.org/2000/svg" xmlns:xlink="http://www.w3.org/1999/xlink" x="0px" y="0px" width="256px" height="96px" viewBox="0 0 256 96" enable-background="new 0 0 256 96" xml:space="preserve">
<g fill="#AB9F95">
<path d="M14.771,54.679c6.412,0,13.504,1.656,15.667,2.205l0,0c-9.732-7.452-17.434-8.93-22.011-8.93l0,0 c-2.559,0-4.129,0.458-4.564,0.601l0,0C4.862,51.492,11.009,54.694,14.771,54.679L14.771,54.679"/>
<path d="M17.822,48.946c4.724,2.229,12.042,5.899,13.826,6.794l0,0C22.224,38.649,8.415,37.058,6.75,36.927l0,0 C7.401,41.303,12.516,46.451,17.822,48.946L17.822,48.946"/>
<path d="M22.914,25.721c0,2.829,0.731,5.929,2.734,8.755l0,0c3.183,4.497,9.024,16.211,10.283,18.755l0,0 c0.05-1.451,0.075-2.848,0.075-4.185l0,0c0-14.303-2.855-22.025-5.689-26.166l0,0c-2.532-3.697-5.025-4.543-5.532-4.682l0,0 C23.769,19.93,22.91,22.669,22.914,25.721L22.914,25.721z"/>
<path d="M33.469,25.446c0,1.244,0.146,2.479,0.479,3.669l0,0c2.063,7.338,4.173,19.99,4.723,23.375l0,0 c0.563-3.38,2.73-16.033,4.795-23.375l0,0c0.333-1.188,0.475-2.423,0.475-3.669l0,0c0.004-6.934-4.451-14.188-5.231-15.406l0,0 C37.933,11.257,33.467,18.512,33.469,25.446L33.469,25.446z"/>
<path d="M10.269,62.115c1.528,0,3.324-0.357,5.368-1.331l0,0c3.819-1.83,7.419-2.281,10.048-2.281l0,0 c1.478,0,2.651,0.144,3.378,0.266l0,0c-4.526-2.536-8.626-3.415-12.143-3.415l0,0c-7.275,0-12.03,3.754-12.804,4.405l0,0 C4.592,60.22,6.712,62.115,10.269,62.115L10.269,62.115z"/>
<path d="M13.426,28.122c-0.006,4.363,1.64,9.499,4.632,11.776l0,0c7.551,5.763,13.973,12.596,15.516,14.276l0,0 c-5.238-23.282-18.48-27.583-20.03-28.015l0,0C13.465,26.783,13.426,27.441,13.426,28.122L13.426,28.122z"/>
<path d="M62.604,54.679c3.751,0.016,9.898-3.183,10.904-6.119l0,0c-0.434-0.142-2.011-0.606-4.564-0.606l0,0 c-4.584,0-12.28,1.476-22.011,8.934l0,0C49.089,56.337,56.181,54.679,62.604,54.679L62.604,54.679"/>
<path d="M61.918,39.561c-5.001,2.447-11.217,7.146-16.199,16.18l0,0c1.786-0.896,9.104-4.565,13.824-6.794l0,0 c5.304-2.492,10.427-7.641,11.075-12.015l0,0C69.837,36.996,66.368,37.378,61.918,39.561L61.918,39.561z"/>
<path d="M47.054,22.881c-2.838,4.144-5.694,11.865-5.694,26.174l0,0c0,1.333,0.028,2.723,0.083,4.172l0,0 c1.262-2.552,7.098-14.258,10.283-18.751l0,0c1.998-2.825,2.73-5.924,2.73-8.755l0,0c0-3.051-0.848-5.789-1.864-7.518l0,0 C52.088,18.352,49.59,19.182,47.054,22.881L47.054,22.881z"/>
<path d="M61.733,60.784c2.042,0.974,3.836,1.331,5.37,1.331l0,0c3.545,0,5.678-1.888,6.15-2.354l0,0 c-0.776-0.637-5.53-4.407-12.807-4.407l0,0c-3.515,0-7.618,0.879-12.143,3.413l0,0c0.729-0.12,1.9-0.266,3.378-0.266l0,0 C54.31,58.503,57.907,58.954,61.733,60.784L61.733,60.784z"/>
<path d="M55.892,30.954c-4.332,3.94-9.337,10.938-12.099,23.224l0,0c1.542-1.684,7.965-8.517,15.52-14.28l0,0 c2.988-2.278,4.632-7.409,4.628-11.769l0,0c0-0.678-0.04-1.341-0.119-1.969l0,0C63.092,26.369,59.765,27.429,55.892,30.954 L55.892,30.954z"/>
<path d="M37.25,63.773"/><path d="M8.494,87.96c-0.667,0-1.209-0.54-1.209-1.21l0,0c0-0.663,0.543-1.211,1.209-1.211l0,0h60.733 c0.67,0,1.214,0.548,1.214,1.211l0,0c0,0.67-0.543,1.21-1.214,1.21l0,0H8.494L8.494,87.96z"/>
<path d="M9.172,84.982c-0.271,0-0.485-0.215-0.485-0.484l0,0c0-0.265,0.214-0.479,0.485-0.479l0,0h59.38 c0.267,0,0.483,0.215,0.483,0.479l0,0c0,0.27-0.216,0.484-0.483,0.484l0,0H9.172L9.172,84.982z"/>
<path d="M50.121,59.595c-4.167,0-7.804,1.552-9.9,3.873c-0.041-0.443-0.077-0.894-0.129-1.312 c1.461-0.923,3.975-2.252,7.2-2.912l0.204-0.042L47.42,59.01c-0.004-0.024-2.233-5.676-8.849-5.68 c-6.617,0.004-8.862,5.661-8.868,5.68l-0.083,0.2l0.216,0.038c0.01,0,3.586,0.584,7.398,3.055c-0.052,0.424-0.098,0.867-0.133,1.318 c-2.07-2.411-5.791-4.024-10.053-4.024c-6.508,0-11.785,3.755-11.785,8.377c0,1.956,0.948,3.744,2.518,5.17 c-0.736-1.092-1.158-2.322-1.158-3.634c0-4.407,4.69-7.98,10.476-7.98c4.624,0,8.517,2.291,9.908,5.462 c0.154,4.945,1.67,5.63,1.67,5.63s1.585-0.724,1.672-6.012c1.526-2.968,5.29-5.082,9.724-5.082c5.787,0,10.474,3.575,10.474,7.98 c0,1.31-0.422,2.542-1.157,3.634c1.573-1.426,2.518-3.214,2.518-5.168C61.905,63.348,56.629,59.595,50.121,59.595z M38.676,72.186 c0,0-1.335-1.503-1.335-6.015c0-4.508,1.335-9.159,1.335-9.159V72.186z"/>
<path d="M49.447,66.79c-2.405,5.535-8.509,0.942-10.542,7.634c-0.099,0.329-0.174,0.652-0.234,0.972 c-0.061-0.319-0.135-0.643-0.237-0.972c-2.035-6.691-8.135-2.099-10.542-7.634c0,0-0.192,6.703,5.777,7.953 c3.208,0.676,4.801,4.009,5.005,4.46l0.002,0.012v-0.004c0.014,0.03,0.021,0.046,0.021,0.046s0.01-0.06,0.027-0.15 c0.271-0.598,1.83-3.711,4.943-4.363C49.635,73.493,49.447,66.79,49.447,66.79z M33.621,74.142 c-4.643-0.962-5.268-6.011-5.268-6.011c2.233,4.349,6.834,2.596,9.239,7.336c0.468,0.931,0.89,2.54,0.89,2.54 S36.756,74.784,33.621,74.142z M43.006,72.568c-2.36,0.492-3.719,3.734-4.156,4.965c0.002-0.271-0.006-0.561-0.027-0.874 c0.071-0.601,0.167-1.268,0.291-1.717c1.753-6.405,7.366-2.621,9.856-6.808C48.971,68.135,48.073,71.507,43.006,72.568z"/>
<path d="M31.129,82.403c0,0.533,0.38,0.967,0.844,0.967c0.462,0,0.842-0.434,0.842-0.967v-6.24 c-0.661-0.191-1.212-0.389-1.686-0.59V82.403z M34.497,82.399c0,0.537,0.375,0.967,0.84,0.967s0.842-0.434,0.842-0.967v-4.59 c-0.481-0.431-1.037-0.809-1.682-1.097V82.399z M28.57,73.782c-0.129,1.188-0.42,2.232-0.807,3.159v5.456 c0,0.535,0.375,0.969,0.842,0.969c0.464,0,0.844-0.434,0.844-0.969v-7.726C28.727,74.159,28.57,73.782,28.57,73.782z M37.865,79.87 v2.529c0,0.081,0.022,0.15,0.039,0.221c-0.007,0.009-0.013,0.024-0.021,0.034c0.01,0.041,0.032,0.077,0.046,0.116 c0.002,0.004,0.004,0.012,0.006,0.016c0.042,0.112,0.1,0.207,0.169,0.294c0.002,0.004,0.007,0.004,0.009,0.01 c0.147,0.168,0.341,0.28,0.567,0.28c0.004,0,0.008,0,0.012,0c0.005,0,0.009,0,0.013,0c0.341,0,0.615-0.245,0.742-0.58 c0.004-0.004,0.007-0.016,0.011-0.02c0.014-0.039,0.032-0.071,0.042-0.114c-0.007-0.01-0.013-0.021-0.021-0.031 c0.016-0.071,0.041-0.143,0.041-0.224v-2.529c-0.311,0.493-0.58,0.978-0.833,1.434C38.44,80.85,38.171,80.362,37.865,79.87z M24.395,81.395v1.005c0,0.537,0.375,0.971,0.842,0.971c0.464,0,0.842-0.438,0.842-0.971v-2.658 C25.527,80.404,24.944,80.95,24.395,81.395z M47.938,74.674v7.726c0,0.537,0.379,0.971,0.844,0.971c0.466,0,0.842-0.438,0.842-0.971 v-5.456c-0.387-0.927-0.678-1.974-0.807-3.157C48.817,73.782,48.657,74.159,47.938,74.674z M41.206,82.399 c0,0.537,0.378,0.967,0.838,0.967c0.466,0,0.842-0.434,0.842-0.967v-5.687c-0.644,0.288-1.202,0.666-1.68,1.097V82.399z M51.304,79.741v2.658c0,0.537,0.38,0.971,0.844,0.971s0.842-0.438,0.842-0.971v-1.005C52.439,80.95,51.857,80.404,51.304,79.741z M44.572,82.403c0,0.533,0.377,0.967,0.84,0.967c0.467,0,0.844-0.434,0.844-0.967v-6.83c-0.474,0.201-1.025,0.398-1.684,0.59V82.403 z"/>
<path d="M27.807,70.945c0,0-0.652,8.012-8.099,8.099C12.936,79.12,8.19,70.042,14.683,63.29 c-1.774,2.23-2.441,5.468-1.572,8.499c1.323,4.597,5.864,6.501,9.65,5.058c1.278-0.477,2.191-1.211,3.156-2.419 c0.965-1.203,1.671-3.828,1.035-5.61c-0.852-2.39-2.576-3.467-4.341-3.554c-0.441-0.041-1.272,0-1.865,0.284 c0,0-0.869,0.327-1.454,1.225c-0.582,0.901-0.904,2.08-0.543,3.451c0.804,3.078,3.919,2.81,5.436,1.006 c1.281-1.517-0.08-2.681-1.157-2.23c-0.884,0.368-0.58,1.613,0.095,1.333c0.672-0.284,1.291,0.126,0.891,0.761 c-0.397,0.637-1.213,1.101-2.18,1.069c-1.198-0.038-2.128-1.073-2.568-2.268c-0.697-1.896,0.505-3.997,2.172-4.287 c1.663-0.296,2.593,0.366,2.593,0.366c1.023,0.609,1.914,1.396,2.347,2.919c0.593,2.09-0.356,5.154-3.017,6.683 c-3.669,2.111-7.718-0.108-9.123-4.21c-1.377-4.017-0.018-8.29,3.324-9.983c1.57-0.799,2.005-1.075,0.245-0.408 c-0.326,0.122-0.634,0.275-0.933,0.445c0.028-0.016,0.05-0.041,0.078-0.058c0,0-6.563,2.739-8.151,10.69 c-1.587,7.95,3.247,11.348,8.732,11.348C23.018,83.397,28.286,76.559,27.807,70.945z"/>
<path d="M68.338,72.05c-1.369-6.856-6.427-9.832-7.798-10.522c-0.356-0.211-0.725-0.406-1.121-0.554 c-1.761-0.667-1.322-0.391,0.247,0.408c3.343,1.693,4.701,5.967,3.324,9.983c-1.403,4.102-5.456,6.321-9.123,4.208 c-2.663-1.53-3.61-4.591-3.021-6.685c0.435-1.522,1.325-2.31,2.349-2.919c0,0,0.927-0.658,2.595-0.366 c1.663,0.294,2.867,2.394,2.168,4.286c-0.44,1.195-1.367,2.232-2.568,2.269c-0.967,0.031-1.783-0.431-2.181-1.069 c-0.399-0.633,0.221-1.043,0.892-0.761c0.672,0.281,0.977-0.965,0.092-1.333c-1.074-0.446-2.435,0.716-1.157,2.232 c1.516,1.802,4.632,2.072,5.437-1.006c0.363-1.371,0.04-2.55-0.542-3.451c-0.587-0.899-1.458-1.227-1.458-1.227 c-0.594-0.284-1.422-0.321-1.865-0.284c-1.765,0.087-3.487,1.166-4.34,3.558c-0.636,1.782,0.071,4.407,1.036,5.608 c0.965,1.21,1.88,1.94,3.156,2.419c3.788,1.443,8.329-0.463,9.652-5.058c0.805-2.804,0.29-5.787-1.196-7.982 c5.78,6.688,1.111,15.313-5.494,15.237c-7.447-0.087-8.099-8.099-8.099-8.099c-0.479,5.611,4.79,12.452,10.275,12.452 C65.084,83.396,69.926,80.002,68.338,72.05z"/>
</g><g fill="#58595B">
<path d="M90.784,59.695c0.177,0.267,0.573,0.401,1.182,0.401h0.609v0.383h-7.347v-0.383h0.609 c0.608,0,1.002-0.135,1.178-0.401c0.177-0.267,0.266-0.755,0.266-1.465V36.647h-5.02c-0.762,0-1.383,0.118-1.867,0.343 c-0.507,0.204-0.887,0.963-1.141,2.283h-0.531l0.151-4.566h20.021l0.113,4.566h-0.493c-0.282-1.319-0.662-2.081-1.144-2.283 c-0.455-0.225-1.092-0.343-1.902-0.343h-4.95V58.23C90.519,58.94,90.608,59.429,90.784,59.695z"/>
<path d="M110.025,35.488c-0.167-0.266-0.538-0.4-1.122-0.4h-0.531v-0.383h6.965v0.383h-0.532 c-0.531,0-0.883,0.134-1.047,0.4c-0.166,0.266-0.246,0.753-0.246,1.465v9.363h12.445v-9.363c0-0.709-0.082-1.199-0.249-1.465 c-0.162-0.266-0.537-0.4-1.12-0.4h-0.532v-0.383h7.003v0.383h-0.531c-0.56,0-0.921,0.134-1.087,0.4 c-0.163,0.266-0.246,0.753-0.246,1.465V58.23c0,0.71,0.083,1.198,0.246,1.465c0.166,0.267,0.527,0.401,1.087,0.401h0.531v0.383 h-7.003v-0.383h0.532c0.583,0,0.958-0.135,1.12-0.401c0.167-0.267,0.249-0.755,0.249-1.465v-9.974h-12.445v9.974 c0,0.71,0.083,1.198,0.246,1.465c0.164,0.267,0.516,0.401,1.047,0.401h0.532v0.383h-6.965v-0.383h0.531 c0.583,0,0.958-0.135,1.122-0.401c0.164-0.267,0.25-0.755,0.25-1.465V36.953C110.274,36.243,110.191,35.754,110.025,35.488z"/>
<path d="M166.188,60.475h-6.472v-0.383c0.608,0,1.039-0.099,1.293-0.304c0.1-0.1,0.154-0.253,0.154-0.457 c0.047-0.228,0-0.507-0.154-0.839l-2.359-5.785h-11.456l-2.133,5.328c-0.204,0.534-0.306,0.928-0.306,1.181 c0,0.226,0.051,0.396,0.152,0.495c0.255,0.253,0.685,0.381,1.291,0.381v0.383h-5.708v-0.383c0.56-0.05,1.041-0.279,1.444-0.686 c0.407-0.405,0.752-0.929,1.028-1.56l9.745-23.408h1.712l10.126,24.399c0.306,0.53,0.577,0.864,0.818,0.989 c0.242,0.129,0.516,0.218,0.821,0.265v0.383H166.188z M152.979,38.437l-5.024,12.41h10.051L152.979,38.437z"/>
<path d="M194.698,37.903c0-1.064-0.083-1.8-0.25-2.207c-0.163-0.404-0.553-0.606-1.159-0.606h-0.648v-0.383h6.168 v0.383h-0.61c-0.582,0-0.965,0.202-1.145,0.606c-0.174,0.407-0.263,1.143-0.263,2.207v22.765h-1.943l-15.263-21.852v18.537 c0,1.016,0.092,1.728,0.266,2.133c0.179,0.402,0.563,0.605,1.143,0.605h0.574v0.383h-6.131v-0.383h0.609 c0.608,0,1.004-0.203,1.182-0.605c0.176-0.405,0.268-1.117,0.268-2.133V36.684l-0.648-1.179c-0.13-0.204-0.263-0.325-0.4-0.362 c-0.14-0.041-0.323-0.055-0.553-0.055h-0.458v-0.383h5.024c2.385,3.58,4.753,7.042,7.116,10.392 c2.363,3.349,4.732,6.812,7.122,10.391V37.903L194.698,37.903z"/>
<path d="M226.782,57.239c-2.207,2.465-5.113,3.69-8.714,3.69c-3.631,0-6.549-1.226-8.756-3.69 c-2.207-2.459-3.311-5.668-3.311-9.63c0-3.956,1.104-7.178,3.311-9.666c2.207-2.487,5.125-3.73,8.756-3.73 c3.601,0,6.507,1.243,8.714,3.73c2.232,2.46,3.35,5.684,3.35,9.666C230.132,51.571,229.015,54.78,226.782,57.239z M224.347,39.237 C222.8,37.08,220.705,36,218.068,36c-2.665,0-4.772,1.08-6.321,3.237c-1.549,2.105-2.322,4.897-2.322,8.372 c0,3.43,0.773,6.219,2.322,8.376c1.549,2.133,3.656,3.198,6.321,3.198c2.612,0,4.704-1.065,6.278-3.198 c1.575-2.182,2.36-4.972,2.36-8.376C226.707,44.184,225.922,41.394,224.347,39.237z"/>
<path d="M252.17,58.95c-1.549,1.321-3.462,1.979-5.744,1.979c-1.193,0-2.36-0.15-3.504-0.455 c-0.586-0.179-1.077-0.322-1.483-0.438c-0.405-0.115-0.748-0.21-1.025-0.286c-0.253,0.027-0.422,0.123-0.516,0.286 c-0.087,0.164-0.135,0.299-0.135,0.399h-0.457l-0.645-5.748l0.378-0.227c0.279,0.633,0.643,1.235,1.087,1.812 c0.445,0.568,0.972,1.071,1.578,1.499c0.61,0.433,1.282,0.775,2.017,1.027c0.739,0.254,1.551,0.383,2.437,0.383 c0.74,0,1.417-0.114,2.041-0.343c0.619-0.228,1.16-0.554,1.617-0.971c0.457-0.415,0.821-0.908,1.086-1.464 c0.267-0.561,0.4-1.168,0.4-1.829c0-1.445-0.524-2.609-1.563-3.499c-0.507-0.432-1.085-0.869-1.729-1.313 c-0.648-0.444-1.379-0.881-2.189-1.313c-0.94-0.506-1.797-1.022-2.569-1.543c-0.773-0.521-1.479-1.073-2.111-1.654 c-1.272-1.193-1.904-2.755-1.904-4.682c0-1.727,0.711-3.223,2.133-4.492c1.396-1.241,3.121-1.864,5.176-1.864 c1.093,0,2.131,0.164,3.121,0.494c0.506,0.153,0.951,0.288,1.333,0.399c0.379,0.118,0.694,0.199,0.953,0.25 c0.277-0.028,0.461-0.122,0.548-0.288c0.093-0.164,0.146-0.312,0.17-0.436h0.42l0.496,5.745l-0.572,0.039 c-0.405-1.215-1.133-2.239-2.188-3.063c-1.052-0.826-2.47-1.237-4.244-1.237c-1.293,0-2.354,0.379-3.175,1.143 c-0.828,0.759-1.239,1.726-1.239,2.893c0,1.139,0.619,2.219,1.866,3.234c1.218,0.938,2.664,1.866,4.34,2.782l-0.267-0.117 c1.04,0.532,1.958,1.079,2.757,1.639c0.801,0.558,1.479,1.16,2.04,1.809c0.558,0.646,0.974,1.342,1.251,2.091 c0.283,0.75,0.42,1.579,0.42,2.494C254.567,56.01,253.771,57.631,252.17,58.95z"/>
</g><g fill="#231F20">
<path d="M110.892,71.233h0.959v2.73h0.024c0.252-0.502,0.926-0.856,1.473-0.856c1.577,0,1.577,1.224,1.577,1.941 v4.339h-0.96v-4.224c0-0.468-0.035-1.235-0.902-1.235c-0.513,0-1.211,0.345-1.211,1.235v4.224h-0.959V71.233z"/>
<path d="M120.367,73.107c1.771,0,2.205,1.497,2.205,3.22c0,1.726-0.445,3.227-2.205,3.227 c-1.77,0-2.204-1.501-2.204-3.227C118.166,74.604,118.61,73.107,120.367,73.107z M121.569,76.327c0-1.32-0.195-2.465-1.223-2.465 c-0.97,0-1.177,1.145-1.177,2.465c0,1.326,0.194,2.47,1.177,2.47C121.362,78.797,121.569,77.653,121.569,76.327z"/>
<path d="M126.099,71.486h0.96v1.78h1.063v0.755h-1.063v3.931c0,0.491,0.127,0.687,0.627,0.687 c0.208,0,0.32-0.027,0.425-0.039v0.788c-0.127,0.022-0.379,0.067-0.777,0.067c-0.993,0-1.235-0.412-1.235-1.21v-4.224h-0.89v-0.755 h0.89V71.486L126.099,71.486z"/>
<path d="M131.855,76.441c0,0.938,0,2.352,1.177,2.352c0.914,0,1.039-0.961,1.039-1.414h0.96 c0,0.648-0.391,2.172-2.058,2.172c-1.496,0-2.123-1.044-2.123-3.145c0-1.529,0.299-3.301,2.181-3.301 c1.871,0,2.045,1.635,2.045,2.948v0.388H131.855L131.855,76.441z M134.071,75.691v-0.332c0-0.686-0.217-1.497-1.063-1.497 c-1.004,0-1.119,1.235-1.119,1.601v0.229H134.071z"/>
<path d="M138.469,71.233h0.958v8.154h-0.958V71.233z"/>
<path d="M145.651,75.062c0-0.775-0.208-1.199-0.902-1.199c-0.312,0-0.995,0.079-0.995,0.934 c0,0.726,0.755,0.856,1.509,1.107c0.742,0.25,1.495,0.516,1.495,1.728c0,1.286-0.832,1.92-1.975,1.92 c-2.081,0-2.104-1.544-2.104-2.172h0.961c0,0.74,0.207,1.414,1.143,1.414c0.307,0,1.017-0.149,1.017-1.014 c0-0.823-0.755-0.999-1.497-1.248c-0.742-0.253-1.507-0.47-1.507-1.737c0-1.144,0.89-1.688,1.953-1.688 c1.778,0,1.85,1.231,1.86,1.954h-0.958V75.062z"/>
<path d="M154.83,75.116c0-1.393,0.594-2.009,2.057-2.009c1.861,0,1.861,1.119,1.861,1.76v3.414 c0,0.25,0,0.491,0.3,0.491c0.126,0,0.184-0.024,0.226-0.06v0.687c-0.067,0.009-0.317,0.054-0.558,0.054 c-0.366,0-0.824,0-0.869-0.785h-0.024c-0.311,0.548-0.903,0.881-1.473,0.881c-1.142,0-1.666-0.686-1.666-1.783 c0-0.855,0.366-1.45,1.151-1.691l1.292-0.39c0.695-0.22,0.695-0.408,0.695-0.926c0-0.572-0.342-0.905-0.981-0.905 c-1.052,0-1.052,0.981-1.052,1.202v0.054h-0.959V75.116z M157.789,76.058c-0.354,0.373-1.198,0.458-1.635,0.719 c-0.307,0.195-0.469,0.432-0.469,0.968c0,0.62,0.22,1.053,0.868,1.053c0.632,0,1.231-0.537,1.231-1.166v-1.573H157.789z"/>
<path d="M162.336,73.267h0.912v0.72h0.024c0.249-0.559,0.89-0.879,1.484-0.879c1.611,0,1.611,1.224,1.611,1.941 v4.339h-0.959v-4.224c0-0.468-0.037-1.235-0.903-1.235c-0.514,0-1.211,0.345-1.211,1.235v4.224h-0.959V73.267L162.336,73.267z"/>
<path d="M173.937,79.388h-0.915v-0.752h-0.022c-0.126,0.456-0.663,0.915-1.324,0.915 c-1.451,0-1.999-1.293-1.999-3.228c0-1.276,0.207-3.218,1.931-3.218c0.546,0,1.129,0.329,1.348,0.857h0.022v-2.731h0.96V79.388z M171.8,78.726c1.064,0,1.233-1.006,1.233-2.402c0-1.185-0.205-2.397-1.233-2.397c-0.89,0-1.118,0.939-1.118,2.397 C170.682,77.789,170.91,78.726,171.8,78.726z"/>
<path d="M182.499,73.267h0.96v0.916h0.023c0.271-0.582,0.638-1.075,1.323-1.075c0.195,0,0.332,0.023,0.424,0.067 v0.934c-0.092-0.009-0.208-0.045-0.516-0.045c-0.478,0-1.255,0.438-1.255,1.458v3.866h-0.96V73.267z"/>
<path d="M188.963,76.441c0,0.938,0,2.352,1.175,2.352c0.915,0,1.039-0.961,1.039-1.414h0.961 c0,0.648-0.391,2.172-2.058,2.172c-1.496,0-2.124-1.044-2.124-3.145c0-1.529,0.299-3.301,2.18-3.301 c1.875,0,2.045,1.635,2.045,2.948v0.388H188.963L188.963,76.441z M191.177,75.691v-0.332c0-0.686-0.216-1.497-1.062-1.497 c-1.003,0-1.12,1.235-1.12,1.601v0.229H191.177z"/>
<path d="M198.143,75.062c0-0.775-0.204-1.199-0.9-1.199c-0.309,0-0.993,0.079-0.993,0.934 c0,0.726,0.751,0.856,1.509,1.107c0.739,0.25,1.496,0.516,1.496,1.728c0,1.286-0.836,1.92-1.979,1.92 c-2.08,0-2.101-1.544-2.101-2.172h0.958c0,0.74,0.208,1.414,1.143,1.414c0.31,0,1.019-0.149,1.019-1.014 c0-0.823-0.752-0.999-1.496-1.248c-0.744-0.253-1.509-0.47-1.509-1.737c0-1.144,0.891-1.688,1.954-1.688 c1.782,0,1.852,1.231,1.861,1.954h-0.961V75.062z"/>
<path d="M204.358,73.107c1.766,0,2.202,1.497,2.202,3.22c0,1.726-0.445,3.227-2.202,3.227 c-1.771,0-2.207-1.501-2.207-3.227C202.151,74.604,202.596,73.107,204.358,73.107z M205.555,76.327c0-1.32-0.195-2.465-1.222-2.465 c-0.971,0-1.176,1.145-1.176,2.465c0,1.326,0.195,2.47,1.176,2.47C205.352,78.797,205.555,77.653,205.555,76.327z"/>
<path d="M209.803,73.267h0.956v0.916h0.024c0.274-0.582,0.641-1.075,1.327-1.075c0.194,0,0.332,0.023,0.419,0.067 v0.934c-0.087-0.009-0.205-0.045-0.511-0.045c-0.482,0-1.26,0.438-1.26,1.458v3.866h-0.956V73.267z"/>
<path d="M215.751,71.486h0.96v1.78h1.06v0.755h-1.06v3.931c0,0.491,0.124,0.687,0.627,0.687 c0.207,0,0.32-0.027,0.425-0.039v0.788c-0.127,0.022-0.379,0.067-0.777,0.067c-0.994,0-1.234-0.412-1.234-1.21v-4.224h-0.891 v-0.755h0.891V71.486z"/>
<path d="M223.332,75.062c0-0.775-0.204-1.199-0.902-1.199c-0.308,0-0.993,0.079-0.993,0.934 c0,0.726,0.753,0.856,1.509,1.107c0.745,0.25,1.497,0.516,1.497,1.728c0,1.286-0.836,1.92-1.976,1.92 c-2.082,0-2.103-1.544-2.103-2.172h0.96c0,0.74,0.204,1.414,1.143,1.414c0.308,0,1.016-0.149,1.016-1.014 c0-0.823-0.753-0.999-1.496-1.248c-0.743-0.253-1.508-0.47-1.508-1.737c0-1.144,0.892-1.688,1.951-1.688 c1.783,0,1.854,1.231,1.862,1.954h-0.96V75.062z"/>
</g></svg>