<svg version="1.1" xmlns="http://www.w3.org/2000/svg" xmlns:xlink="http://www.w3.org/1999/xlink" x="0px" y="0px" width="48px" height="48px" viewBox="0 0 48 48" enable-background="new 0 0 48 48" xml:space="preserve">
<path fill="#202020" d="M40.35,24c3.01-3.06,8.91-10.79,2.74-13.87c-2.57-1.28-5.79-0.97-8.52-0.47c-3.02,0.55-5.96,1.55-8.78,2.75 c0.5,0.24,1,0.5,1.47,0.79c0.55,0.33,1.43-0.25,2.03-0.46c1.26-0.45,2.54-0.83,3.83-1.15c2.49-0.61,5.24-1.07,7.79-0.53 c6.87,1.45,0.9,9.16-1.71,11.82c-3-2.84-6.43-5.25-10-7.31c-3.27-1.89-6.73-3.5-10.32-4.68c-0.19,0.44-0.34,0.95-0.44,1.53 c7.64,2.5,15.14,6.92,20.77,12.68l0,0c2.59,2.63,8.59,10.39,1.73,11.81c-0.94-3.21-5.63-3.11-6.48,0.1 c-0.86,3.28,3.35,5.59,5.68,3.17c0.27-0.28,0.5-0.62,0.66-0.98c0.28-0.63,0.17-0.65,0.85-0.83c0.77-0.2,1.53-0.5,2.18-0.97 c1.34-0.95,2-2.48,1.91-4.1C45.55,29.73,42.74,26.45,40.35,24C40.6,23.75,42.14,25.83,40.35,24z M8.33,24 c1.62,1.65,3.38,3.16,5.23,4.54c-0.04-0.56-0.06-1.12-0.05-1.67c0.01-0.64-0.9-1.09-1.38-1.5c-1.01-0.86-1.99-1.77-2.91-2.72 c-1.82-1.89-3.67-4.12-4.45-6.67c-2-6.56,7.64-5.18,11.15-4.28c-1.18,5.14-1.53,10.44-1.24,15.7l0,0l0.15,2.08h0c0,0,0,0,0,0 c0.19,2.04,0.48,3.98,0.86,5.79c0.47-0.05,0.99-0.18,1.54-0.39c-1.5-7.18-1.49-14.93,0.07-22.1c0.82-3.74,4.62-15.46,9.92-9.6 c-2.3,2.42,0.12,6.44,3.33,5.56c3.26-0.9,3.19-5.69-0.09-6.5c-0.38-0.09-0.79-0.12-1.18-0.08c-0.68,0.08-0.64,0.2-1.13-0.3 c-0.57-0.58-1.22-1.09-1.97-1.43C24.6-0.32,22.83,0,21.42,1.04c-2.81,2.07-4.18,5.89-5.08,9.12c-3.66-0.93-10.12-2.2-12.66,1.61 C0.96,15.83,5.64,21.26,8.33,24C8.69,24.37,6.53,22.17,8.33,24z M37.32,24.69c-5.63,5.03-12.61,9.03-19.85,11.19 c-0.51,0.14-1.02,0.28-1.53,0.42v0c-3.59,0.92-13.25,2.26-11.11-4.41c3.25,0.79,5.52-3.33,3.15-5.66c-2.51-2.47-6.75,0.31-5.51,3.58 c0.23,0.61,0.98,1.12,0.8,1.7C3,32.4,2.85,33.34,2.96,34.26c0.19,1.61,1.2,2.9,2.63,3.61c3.22,1.61,7.43,0.83,10.75-0.02 c1.16,4.12,4.9,13.14,10.68,9.29c2.3-1.54,3.63-4.35,4.55-6.87c1.09-2.97,1.72-6.09,2.1-9.22c-0.46,0.32-0.94,0.61-1.43,0.88 c-0.56,0.31-0.5,1.32-0.61,1.94c-0.24,1.32-0.54,2.63-0.92,3.91c-0.73,2.48-1.71,5.13-3.48,7.07c-4.71,5.13-8.36-3.84-9.37-7.43 c3.96-1.19,7.76-2.93,11.34-5c1.59-0.92,3.11-1.92,4.62-2.96l0,0c1.68-1.18,3.22-2.41,4.59-3.64 C38.14,25.46,37.77,25.07,37.32,24.69C36.3,25.6,37.77,25.07,37.32,24.69z M27.09,28.76c2.59-1.5,3.51-4.91,2.01-7.5 c-1.5-2.6-4.92-3.51-7.51-2.01c-2.6,1.5-3.51,4.91-2.01,7.5C21.07,29.34,24.49,30.25,27.09,28.76 C29.72,27.24,24.46,30.27,27.09,28.76z"/>
</svg>