<svg version="1.1" xmlns="http://www.w3.org/2000/svg" xmlns:xlink="http://www.w3.org/1999/xlink" x="0px" y="0px" width="48px" height="48px" viewBox="0 0 48 48" enable-background="new 0 0 48 48" xml:space="preserve">
<path fill="#202020" d="M1.343,19.381h45.163c0,12.471-10.11,22.582-22.582,22.582S1.343,31.853,1.343,19.381z M18.542,35.252 c0,3.177,2.576,5.753,5.752,5.753c3.177,0,5.753-2.576,5.753-5.753v-8.279c0-3.178-2.576-5.753-5.753-5.753 c-3.176,0-5.752,2.576-5.752,5.753V35.252L18.542,35.252z M24.16,37.41c2.416,0,4.375-1.96,4.375-4.376s-1.959-4.375-4.375-4.375 c-2.417,0-4.375,1.959-4.375,4.375S21.744,37.41,24.16,37.41z"/>
<path fill="#202020" d="M47.645,16.426c0,0.36-0.479,0.652-1.07,0.652h-45.3c-0.591,0-1.07-0.292-1.07-0.652v-9.5 c0-0.361,0.479-0.653,1.07-0.653h45.3c0.591,0,1.07,0.292,1.07,0.653V16.426z"/>
</svg>