<svg version="1.1" xmlns="http://www.w3.org/2000/svg" xmlns:xlink="http://www.w3.org/1999/xlink" x="0px" y="0px" width="48px" height="48px" viewBox="0 0 48 48" enable-background="new 0 0 48 48" xml:space="preserve">
<path fill="#202020" d="M46.766,8.661H1.234c-0.635,0-1.15,0.534-1.15,1.191v28.294c0,0.658,0.515,1.192,1.15,1.192h45.531 c0.635,0,1.15-0.534,1.15-1.192V9.853C47.916,9.195,47.4,8.661,46.766,8.661z M10.79,13.372c3.062,0,5.544,2.482,5.544,5.544 s-2.482,5.544-5.544,5.544s-5.545-2.482-5.545-5.544S7.728,13.372,10.79,13.372z M10.79,35.45c-4.69,0-8.491,0.506-8.491-4.37 c0-3.199,1.637-6.001,4.087-7.55c0.91,1.615,2.539,2.192,4.403,2.192s3.494-0.577,4.404-2.193c2.451,1.548,4.087,4.351,4.087,7.551 C19.28,35.956,15.479,35.45,10.79,35.45z M43.594,32.219h-19.75c-0.604,0-1.094-0.49-1.094-1.094s0.49-1.094,1.094-1.094h19.75 c0.604,0,1.094,0.49,1.094,1.094S44.198,32.219,43.594,32.219z M43.594,27.219h-19.75c-0.604,0-1.094-0.49-1.094-1.094 s0.49-1.094,1.094-1.094h19.75c0.604,0,1.094,0.49,1.094,1.094S44.198,27.219,43.594,27.219z M43.594,22.219h-19.75 c-0.604,0-1.094-0.49-1.094-1.094s0.49-1.094,1.094-1.094h19.75c0.604,0,1.094,0.49,1.094,1.094S44.198,22.219,43.594,22.219z M43.594,17.219h-19.75c-0.604,0-1.094-0.49-1.094-1.094s0.49-1.094,1.094-1.094h19.75c0.604,0,1.094,0.49,1.094,1.094 S44.198,17.219,43.594,17.219z"/>
</svg>