<svg version="1.1" xmlns="http://www.w3.org/2000/svg" xmlns:xlink="http://www.w3.org/1999/xlink" x="0px" y="0px" width="48px" height="48px" viewBox="0 0 48 48" enable-background="new 0 0 48 48" xml:space="preserve">
<path fill="#202020" d="M44,0H4C1.791,0,0,1.791,0,4v40c0,2.209,1.791,4,4,4h40c2.209,0,4-1.791,4-4V4C48,1.791,46.209,0,44,0z M38.5,28.5c0,0.828-0.672,1.5-1.5,1.5s-1.5-0.672-1.5-1.5S36.172,27,37,27S38.5,27.672,38.5,28.5z M35.5,20 c0-0.829,0.672-1.5,1.5-1.5s1.5,0.671,1.5,1.5s-0.672,1.5-1.5,1.5S35.5,20.829,35.5,20z M37.5,24c0-0.829,0.672-1.5,1.5-1.5 s1.5,0.671,1.5,1.5s-0.672,1.5-1.5,1.5S37.5,24.829,37.5,24z M41,27c0.828,0,1.5,0.672,1.5,1.5S41.828,30,41,30s-1.5-0.672-1.5-1.5 S40.172,27,41,27z M39.5,20c0-0.829,0.672-1.5,1.5-1.5s1.5,0.671,1.5,1.5s-0.672,1.5-1.5,1.5S39.5,20.829,39.5,20z M39.5,12 c0-0.829,0.672-1.5,1.5-1.5s1.5,0.671,1.5,1.5s-0.672,1.5-1.5,1.5S39.5,12.829,39.5,12z M40.5,16c0,0.829-0.672,1.5-1.5,1.5 s-1.5-0.671-1.5-1.5s0.672-1.5,1.5-1.5S40.5,15.171,40.5,16z M37,13.5c-0.828,0-1.5-0.671-1.5-1.5s0.672-1.5,1.5-1.5 s1.5,0.671,1.5,1.5S37.828,13.5,37,13.5z M36.5,16c0,0.829-0.672,1.5-1.5,1.5s-1.5-0.671-1.5-1.5s0.672-1.5,1.5-1.5 S36.5,15.171,36.5,16z M35,22.5c0.828,0,1.5,0.671,1.5,1.5s-0.672,1.5-1.5,1.5s-1.5-0.671-1.5-1.5S34.172,22.5,35,22.5z M35,31 c0.828,0,1.5,0.672,1.5,1.5S35.828,34,35,34s-1.5-0.672-1.5-1.5S34.172,31,35,31z M37,35c0.828,0,1.5,0.672,1.5,1.5S37.828,38,37,38 s-1.5-0.672-1.5-1.5S36.172,35,37,35z M37.5,32.5c0-0.828,0.672-1.5,1.5-1.5s1.5,0.672,1.5,1.5S39.828,34,39,34 S37.5,33.328,37.5,32.5z M41,35c0.828,0,1.5,0.672,1.5,1.5S41.828,38,41,38s-1.5-0.672-1.5-1.5S40.172,35,41,35z M41.5,32.5 c0-0.828,0.672-1.5,1.5-1.5s1.5,0.672,1.5,1.5S43.828,34,43,34S41.5,33.328,41.5,32.5z M41.5,24c0-0.829,0.672-1.5,1.5-1.5 s1.5,0.671,1.5,1.5s-0.672,1.5-1.5,1.5S41.5,24.829,41.5,24z M41.5,16c0-0.829,0.672-1.5,1.5-1.5s1.5,0.671,1.5,1.5 s-0.672,1.5-1.5,1.5S41.5,16.829,41.5,16z M41.5,8c0-0.829,0.672-1.5,1.5-1.5s1.5,0.671,1.5,1.5S43.828,9.5,43,9.5 S41.5,8.829,41.5,8z M41,2.5c0.828,0,1.5,0.671,1.5,1.5S41.828,5.5,41,5.5S39.5,4.829,39.5,4S40.172,2.5,41,2.5z M40.5,8 c0,0.829-0.672,1.5-1.5,1.5S37.5,8.829,37.5,8s0.672-1.5,1.5-1.5S40.5,7.171,40.5,8z M37,2.5c0.828,0,1.5,0.671,1.5,1.5 S37.828,5.5,37,5.5S35.5,4.829,35.5,4S36.172,2.5,37,2.5z M36.5,8c0,0.829-0.672,1.5-1.5,1.5S33.5,8.829,33.5,8s0.672-1.5,1.5-1.5 S36.5,7.171,36.5,8z M33,2.5c0.828,0,1.5,0.671,1.5,1.5S33.828,5.5,33,5.5S31.5,4.829,31.5,4S32.172,2.5,33,2.5z M32.5,8 c0,0.829-0.672,1.5-1.5,1.5S29.5,8.829,29.5,8s0.672-1.5,1.5-1.5S32.5,7.171,32.5,8z M32.313,11.875v24.25H15.688v-24.25H32.313z M29,2.5c0.828,0,1.5,0.671,1.5,1.5S29.828,5.5,29,5.5S27.5,4.829,27.5,4S28.172,2.5,29,2.5z M28.5,8c0,0.829-0.672,1.5-1.5,1.5 S25.5,8.829,25.5,8s0.672-1.5,1.5-1.5S28.5,7.171,28.5,8z M25,2.5c0.828,0,1.5,0.671,1.5,1.5S25.828,5.5,25,5.5S23.5,4.829,23.5,4 S24.172,2.5,25,2.5z M24.5,8c0,0.829-0.672,1.5-1.5,1.5S21.5,8.829,21.5,8s0.672-1.5,1.5-1.5S24.5,7.171,24.5,8z M21,2.5 c0.828,0,1.5,0.671,1.5,1.5S21.828,5.5,21,5.5S19.5,4.829,19.5,4S20.172,2.5,21,2.5z M20.5,8c0,0.829-0.672,1.5-1.5,1.5 S17.5,8.829,17.5,8s0.672-1.5,1.5-1.5S20.5,7.171,20.5,8z M17,2.5c0.828,0,1.5,0.671,1.5,1.5S17.828,5.5,17,5.5S15.5,4.829,15.5,4 S16.172,2.5,17,2.5z M16.5,8c0,0.829-0.672,1.5-1.5,1.5c-0.829,0-1.5-0.671-1.5-1.5s0.671-1.5,1.5-1.5C15.828,6.5,16.5,7.171,16.5,8 z M8.5,24c0,0.829-0.671,1.5-1.5,1.5S5.5,24.829,5.5,24s0.671-1.5,1.5-1.5S8.5,23.171,8.5,24z M7.5,20c0-0.829,0.671-1.5,1.5-1.5 s1.5,0.671,1.5,1.5S9.829,21.5,9,21.5S7.5,20.829,7.5,20z M9,27c0.829,0,1.5,0.672,1.5,1.5S9.829,30,9,30s-1.5-0.672-1.5-1.5 S8.171,27,9,27z M9.5,24c0-0.829,0.671-1.5,1.5-1.5s1.5,0.671,1.5,1.5s-0.671,1.5-1.5,1.5S9.5,24.829,9.5,24z M9.5,16 c0-0.829,0.671-1.5,1.5-1.5s1.5,0.671,1.5,1.5s-0.671,1.5-1.5,1.5S9.5,16.829,9.5,16z M9,13.5c-0.829,0-1.5-0.671-1.5-1.5 s0.671-1.5,1.5-1.5s1.5,0.671,1.5,1.5S9.829,13.5,9,13.5z M8.5,16c0,0.829-0.671,1.5-1.5,1.5S5.5,16.829,5.5,16s0.671-1.5,1.5-1.5 S8.5,15.171,8.5,16z M5,13.5c-0.829,0-1.5-0.671-1.5-1.5s0.671-1.5,1.5-1.5s1.5,0.671,1.5,1.5S5.829,13.5,5,13.5z M6.5,20 c0,0.829-0.671,1.5-1.5,1.5S3.5,20.829,3.5,20s0.671-1.5,1.5-1.5S6.5,19.171,6.5,20z M6.5,28.5C6.5,29.328,5.829,30,5,30 s-1.5-0.672-1.5-1.5S4.171,27,5,27S6.5,27.672,6.5,28.5z M6.5,36.5C6.5,37.328,5.829,38,5,38s-1.5-0.672-1.5-1.5S4.171,35,5,35 S6.5,35.672,6.5,36.5z M5.5,32.5C5.5,31.672,6.171,31,7,31s1.5,0.672,1.5,1.5S7.829,34,7,34S5.5,33.328,5.5,32.5z M9,35 c0.829,0,1.5,0.672,1.5,1.5S9.829,38,9,38s-1.5-0.672-1.5-1.5S8.171,35,9,35z M9.5,32.5c0-0.828,0.671-1.5,1.5-1.5 s1.5,0.672,1.5,1.5S11.829,34,11,34S9.5,33.328,9.5,32.5z M13,35c0.829,0,1.5,0.672,1.5,1.5S13.829,38,13,38s-1.5-0.672-1.5-1.5 S12.171,35,13,35z M13,30c-0.829,0-1.5-0.672-1.5-1.5S12.171,27,13,27s1.5,0.672,1.5,1.5S13.829,30,13,30z M13,21.5 c-0.829,0-1.5-0.671-1.5-1.5s0.671-1.5,1.5-1.5s1.5,0.671,1.5,1.5S13.829,21.5,13,21.5z M13,13.5c-0.829,0-1.5-0.671-1.5-1.5 s0.671-1.5,1.5-1.5s1.5,0.671,1.5,1.5S13.829,13.5,13,13.5z M13,2.5c0.829,0,1.5,0.671,1.5,1.5S13.829,5.5,13,5.5S11.5,4.829,11.5,4 S12.171,2.5,13,2.5z M12.5,8c0,0.829-0.671,1.5-1.5,1.5S9.5,8.829,9.5,8s0.671-1.5,1.5-1.5S12.5,7.171,12.5,8z M9,2.5 c0.829,0,1.5,0.671,1.5,1.5S9.829,5.5,9,5.5S7.5,4.829,7.5,4S8.171,2.5,9,2.5z M8.5,8c0,0.829-0.671,1.5-1.5,1.5S5.5,8.829,5.5,8 S6.171,6.5,7,6.5S8.5,7.171,8.5,8z M5,2.5c0.829,0,1.5,0.671,1.5,1.5S5.829,5.5,5,5.5S3.5,4.829,3.5,4S4.171,2.5,5,2.5z M3,6.5 c0.829,0,1.5,0.671,1.5,1.5S3.829,9.5,3,9.5S1.5,8.829,1.5,8S2.171,6.5,3,6.5z M3,14.5c0.829,0,1.5,0.671,1.5,1.5S3.829,17.5,3,17.5 S1.5,16.829,1.5,16S2.171,14.5,3,14.5z M3,22.5c0.829,0,1.5,0.671,1.5,1.5S3.829,25.5,3,25.5S1.5,24.829,1.5,24S2.171,22.5,3,22.5z M3,31c0.829,0,1.5,0.672,1.5,1.5S3.829,34,3,34s-1.5-0.672-1.5-1.5S2.171,31,3,31z M1.5,40.5C1.5,39.672,2.171,39,3,39 s1.5,0.672,1.5,1.5S3.829,42,3,42S1.5,41.328,1.5,40.5z M5,46c-0.829,0-1.5-0.672-1.5-1.5S4.171,43,5,43s1.5,0.672,1.5,1.5 S5.829,46,5,46z M5.5,40.5C5.5,39.672,6.171,39,7,39s1.5,0.672,1.5,1.5S7.829,42,7,42S5.5,41.328,5.5,40.5z M9,46 c-0.829,0-1.5-0.672-1.5-1.5S8.171,43,9,43s1.5,0.672,1.5,1.5S9.829,46,9,46z M9.5,40.5c0-0.828,0.671-1.5,1.5-1.5 s1.5,0.672,1.5,1.5S11.829,42,11,42S9.5,41.328,9.5,40.5z M13,46c-0.829,0-1.5-0.672-1.5-1.5S12.171,43,13,43s1.5,0.672,1.5,1.5 S13.829,46,13,46z M13.5,40.5c0-0.828,0.671-1.5,1.5-1.5c0.828,0,1.5,0.672,1.5,1.5S15.828,42,15,42 C14.171,42,13.5,41.328,13.5,40.5z M17,46c-0.828,0-1.5-0.672-1.5-1.5S16.172,43,17,43s1.5,0.672,1.5,1.5S17.828,46,17,46z M17.5,40.5c0-0.828,0.672-1.5,1.5-1.5s1.5,0.672,1.5,1.5S19.828,42,19,42S17.5,41.328,17.5,40.5z M21,46 c-0.828,0-1.5-0.672-1.5-1.5S20.172,43,21,43s1.5,0.672,1.5,1.5S21.828,46,21,46z M21.5,40.5c0-0.828,0.672-1.5,1.5-1.5 s1.5,0.672,1.5,1.5S23.828,42,23,42S21.5,41.328,21.5,40.5z M25,46c-0.828,0-1.5-0.672-1.5-1.5S24.172,43,25,43s1.5,0.672,1.5,1.5 S25.828,46,25,46z M25.5,40.5c0-0.828,0.672-1.5,1.5-1.5s1.5,0.672,1.5,1.5S27.828,42,27,42S25.5,41.328,25.5,40.5z M29,46 c-0.828,0-1.5-0.672-1.5-1.5S28.172,43,29,43s1.5,0.672,1.5,1.5S29.828,46,29,46z M29.5,40.5c0-0.828,0.672-1.5,1.5-1.5 s1.5,0.672,1.5,1.5S31.828,42,31,42S29.5,41.328,29.5,40.5z M33,46c-0.828,0-1.5-0.672-1.5-1.5S32.172,43,33,43s1.5,0.672,1.5,1.5 S33.828,46,33,46z M33.5,40.5c0-0.828,0.672-1.5,1.5-1.5s1.5,0.672,1.5,1.5S35.828,42,35,42S33.5,41.328,33.5,40.5z M37,46 c-0.828,0-1.5-0.672-1.5-1.5S36.172,43,37,43s1.5,0.672,1.5,1.5S37.828,46,37,46z M37.5,40.5c0-0.828,0.672-1.5,1.5-1.5 s1.5,0.672,1.5,1.5S39.828,42,39,42S37.5,41.328,37.5,40.5z M41,46c-0.828,0-1.5-0.672-1.5-1.5S40.172,43,41,43s1.5,0.672,1.5,1.5 S41.828,46,41,46z M41.5,40.5c0-0.828,0.672-1.5,1.5-1.5s1.5,0.672,1.5,1.5S43.828,42,43,42S41.5,41.328,41.5,40.5z M45,46 c-0.828,0-1.5-0.672-1.5-1.5S44.172,43,45,43s1.5,0.672,1.5,1.5S45.828,46,45,46z M45,38c-0.828,0-1.5-0.672-1.5-1.5 S44.172,35,45,35s1.5,0.672,1.5,1.5S45.828,38,45,38z M45,30c-0.828,0-1.5-0.672-1.5-1.5S44.172,27,45,27s1.5,0.672,1.5,1.5 S45.828,30,45,30z M45,21.5c-0.828,0-1.5-0.671-1.5-1.5s0.672-1.5,1.5-1.5s1.5,0.671,1.5,1.5S45.828,21.5,45,21.5z M45,13.5 c-0.828,0-1.5-0.671-1.5-1.5s0.672-1.5,1.5-1.5s1.5,0.671,1.5,1.5S45.828,13.5,45,13.5z M45,5.5c-0.828,0-1.5-0.671-1.5-1.5 s0.672-1.5,1.5-1.5s1.5,0.671,1.5,1.5S45.828,5.5,45,5.5z"/>
</svg>