<svg version="1.0" xmlns="http://www.w3.org/2000/svg" xmlns:xlink="http://www.w3.org/1999/xlink" x="0px" y="0px" width="48px" height="48px" viewBox="0 0 48 48" enable-background="new 0 0 48 48" xml:space="preserve">
<g fill="#202020">
<path d="M42.713,0.439H5.285c-5.151,0-5.151,0-5.151,6.536c0,6.536,0,6.536,5.151,6.536h37.428 c5.152,0,5.152,0,5.152-6.536C47.865,0.439,47.865,0.439,42.713,0.439z M7.077,7.923c-0.524,0-0.948-0.425-0.948-0.949 s0.424-0.948,0.948-0.948c0.523,0,0.948,0.425,0.948,0.948S7.601,7.923,7.077,7.923z"/>
<path d="M42.713,17.464H5.285c-5.151,0-5.151,0-5.151,6.536c0,6.536,0,6.536,5.151,6.536h37.428 c5.152,0,5.152,0,5.152-6.536C47.865,17.464,47.865,17.464,42.713,17.464z M7.077,24.949c-0.524,0-0.948-0.425-0.948-0.949 c0-0.523,0.424-0.948,0.948-0.948c0.523,0,0.948,0.425,0.948,0.948C8.025,24.524,7.601,24.949,7.077,24.949z"/>
<path d="M42.713,34.489H5.285c-5.151,0-5.151,0-5.151,6.536s0,6.536,5.151,6.536h37.428c5.152,0,5.152,0,5.152-6.536 S47.865,34.489,42.713,34.489z M7.077,41.975c-0.524,0-0.948-0.426-0.948-0.949s0.424-0.947,0.948-0.947 c0.523,0,0.948,0.424,0.948,0.947S7.601,41.975,7.077,41.975z"/>
</g>
<g fill="#E0E0E0">
<circle cx="3.885" cy="6.975" r="0.948"/>
<circle cx="3.885" cy="24" r="0.948"/>
<circle cx="3.885" cy="41.025" r="0.948"/>
</g></svg>