<svg version="1.1" xmlns="http://www.w3.org/2000/svg" xmlns:xlink="http://www.w3.org/1999/xlink" x="0px" y="0px" width="48px" height="48px" viewBox="0 0 48 48" enable-background="new 0 0 48 48" xml:space="preserve">
<g fill="#202020">
<path d="M16.198,30.652c3.513,4.155,9.146,5.443,13.961,3.639c1.073-0.402,2.472-0.178,3.213,0.696l0.523,0.621 c0.739,0.875,1.459,1.481,0.955,1.909c-0.504,0.425-0.313,1.48,0.427,2.354l6.249,7.392c0.74,0.875,2.049,0.986,2.925,0.246 l2.814-2.383c0.874-0.737,0.984-2.048,0.246-2.923l-6.251-7.391c-0.741-0.874-1.749-1.239-2.253-0.812 c-0.503,0.426-0.985-0.385-1.723-1.26l-0.524-0.619c-0.739-0.874-0.73-2.291-0.155-3.282c2.583-4.45,2.246-10.218-1.267-14.373 c-4.47-5.286-12.377-5.947-17.664-1.477S11.729,25.369,16.198,30.652z M31.724,29.601c-3.89,3.288-9.706,2.802-12.994-1.085 c-3.288-3.889-2.802-9.705,1.087-12.993c3.888-3.288,9.704-2.801,12.991,1.086C36.096,20.497,35.608,26.313,31.724,29.601z"/>
<path d="M47.865,41.073c0-0.017,0-0.03,0-0.048c0-6.536,0-6.536-5.152-6.536h-0.417L47.865,41.073z"/>
<path d="M34.514,40.518c-0.652-0.771-1.003-1.703-0.937-2.49c0.029-0.344,0.133-0.651,0.304-0.91 c-0.107-0.133-0.248-0.291-0.363-0.421c-0.124-0.14-0.255-0.287-0.386-0.442l-0.524-0.622c-0.413-0.486-1.384-0.673-2.098-0.404 c-1.521,0.57-3.118,0.859-4.748,0.859c-0.001,0-0.001,0-0.001,0c-2.246-0.001-4.412-0.571-6.342-1.598H5.285 c-5.151,0-5.151,0-5.151,6.536c0,6.535,0,6.535,5.151,6.535h35.183L34.514,40.518z M7.077,41.975c-0.524,0-0.948-0.426-0.948-0.949 c0-0.522,0.424-0.946,0.948-0.946c0.523,0,0.948,0.424,0.948,0.946C8.025,41.549,7.601,41.975,7.077,41.975z"/>
<path d="M12.282,21.434c0.116-1.384,0.44-2.718,0.947-3.97H5.285c-5.151,0-5.151,0-5.151,6.536s0,6.536,5.151,6.536 h9.566C12.924,27.907,12.008,24.714,12.282,21.434z M7.077,24.949c-0.524,0-0.948-0.426-0.948-0.949 c0-0.523,0.424-0.948,0.948-0.948c0.523,0,0.948,0.425,0.948,0.948C8.025,24.523,7.601,24.949,7.077,24.949z"/>
<path d="M32.203,17.464H19.32c-0.998,1.256-1.605,2.778-1.742,4.414c-0.183,2.188,0.497,4.316,1.915,5.993 c1.132,1.339,2.646,2.257,4.315,2.666h3.928c1.221-0.302,2.368-0.876,3.342-1.699C34.469,25.967,34.943,20.921,32.203,17.464z"/>
<path d="M37.471,29.343c-0.207,0.356-0.291,0.789-0.27,1.193h5.512c5.152,0,5.152,0,5.152-6.536 s0-6.536-5.152-6.536h-4.415C39.838,21.269,39.604,25.668,37.471,29.343z"/>
<path d="M17.03,12.228c2.44-2.063,5.542-3.2,8.733-3.2c3.85,0,7.479,1.636,10.045,4.483h6.905 c5.152,0,5.152,0,5.152-6.536c0-6.536,0-6.536-5.152-6.536H5.285c-5.151,0-5.151,0-5.151,6.536c0,6.536,0,6.536,5.151,6.536h10.438 C16.131,13.061,16.559,12.626,17.03,12.228z M7.077,7.923c-0.524,0-0.948-0.425-0.948-0.949s0.424-0.948,0.948-0.948 c0.523,0,0.948,0.425,0.948,0.948S7.601,7.923,7.077,7.923z"/>
</g><g fill="#E0E0E0">
<circle cx="3.885" cy="6.975" r="0.948"/>
<circle cx="3.885" cy="24" r="0.948"/>
<circle cx="3.885" cy="41.025" r="0.948"/>
</g></svg>