<?xml version="1.0" encoding="utf-8"?>
<!-- Generator: Adobe Illustrator 16.0.0, SVG Export Plug-In . SVG Version: 6.00 Build 0)  -->
<!DOCTYPE svg PUBLIC "-//W3C//DTD SVG 1.1//EN" "http://www.w3.org/Graphics/SVG/1.1/DTD/svg11.dtd">
<svg version="1.1" xmlns="http://www.w3.org/2000/svg" xmlns:xlink="http://www.w3.org/1999/xlink" x="0px" y="0px" width="48px"
	 height="48px" viewBox="0 0 48 48" enable-background="new 0 0 48 48" xml:space="preserve">
<rect opacity="0.5" fill="#202020" width="12" height="40"/>
<path fill="#202020" d="M0,40v8h48v-8H0z M7,46c0,0.6-0.4,1-1,1H2c-0.6,0-1-0.4-1-1v-4c0-0.5,0.4-1,1-1h4c0.6,0,1,0.4,1,1V46z
	 M15,46c0,0.6-0.4,1-1,1h-4c-0.6,0-1-0.4-1-1v-4c0-0.5,0.4-1,1-1h4c0.6,0,1,0.4,1,1V46z M23,46c0,0.6-0.4,1-1,1h-4c-0.6,0-1-0.4-1-1
	v-4c0-0.5,0.4-1,1-1h4c0.6,0,1,0.4,1,1V46z"/>
<path fill="#202020" d="M21.5,10.3c0,0.6-0.5,1.2-1.2,1.2h-4.7c-0.6,0-1.2-0.5-1.2-1.2V5.7c0-0.6,0.5-1.2,1.2-1.2h4.7
	c0.6,0,1.2,0.5,1.2,1.2V10.3z"/>
<path fill="#202020" d="M29.5,10.3c0,0.6-0.5,1.2-1.2,1.2h-4.7c-0.6,0-1.2-0.5-1.2-1.2V5.7c0-0.6,0.5-1.2,1.2-1.2h4.7
	c0.6,0,1.2,0.5,1.2,1.2V10.3z"/>
<path fill="#202020" d="M37.5,10.3c0,0.6-0.5,1.2-1.2,1.2h-4.7c-0.6,0-1.2-0.5-1.2-1.2V5.7c0-0.6,0.5-1.2,1.2-1.2h4.7
	c0.6,0,1.2,0.5,1.2,1.2V10.3z"/>
<path fill="#202020" d="M45.5,10.3c0,0.6-0.5,1.2-1.2,1.2h-4.7c-0.6,0-1.2-0.5-1.2-1.2V5.7c0-0.6,0.5-1.2,1.2-1.2h4.7
	c0.6,0,1.2,0.5,1.2,1.2V10.3z"/>
<path fill="#202020" d="M21.5,20.3c0,0.6-0.5,1.2-1.2,1.2h-4.7c-0.6,0-1.2-0.5-1.2-1.2v-4.7c0-0.6,0.5-1.2,1.2-1.2h4.7
	c0.6,0,1.2,0.5,1.2,1.2V20.3z"/>
<path fill="#202020" d="M29.5,20.3c0,0.6-0.5,1.2-1.2,1.2h-4.7c-0.6,0-1.2-0.5-1.2-1.2v-4.7c0-0.6,0.5-1.2,1.2-1.2h4.7
	c0.6,0,1.2,0.5,1.2,1.2V20.3z"/>
<path fill="#202020" d="M37.5,20.3c0,0.6-0.5,1.2-1.2,1.2h-4.7c-0.6,0-1.2-0.5-1.2-1.2v-4.7c0-0.6,0.5-1.2,1.2-1.2h4.7
	c0.6,0,1.2,0.5,1.2,1.2V20.3z"/>
<path fill="#202020" d="M45.5,20.3c0,0.6-0.5,1.2-1.2,1.2h-4.7c-0.6,0-1.2-0.5-1.2-1.2v-4.7c0-0.6,0.5-1.2,1.2-1.2h4.7
	c0.6,0,1.2,0.5,1.2,1.2V20.3z"/>
<path fill="#202020" d="M21.5,30.3c0,0.6-0.5,1.2-1.2,1.2h-4.7c-0.6,0-1.2-0.5-1.2-1.2v-4.7c0-0.6,0.5-1.2,1.2-1.2h4.7
	c0.6,0,1.2,0.5,1.2,1.2V30.3z"/>
<path fill="#202020" d="M29.5,30.3c0,0.6-0.5,1.2-1.2,1.2h-4.7c-0.6,0-1.2-0.5-1.2-1.2v-4.7c0-0.6,0.5-1.2,1.2-1.2h4.7
	c0.6,0,1.2,0.5,1.2,1.2V30.3z"/>
</svg>
