<svg version="1.1" xmlns="http://www.w3.org/2000/svg" xmlns:xlink="http://www.w3.org/1999/xlink" x="0px" y="0px" width="48px" height="48px" viewBox="0 0 48 48" enable-background="new 0 0 48 48" xml:space="preserve">
<g fill="#202020">
<path d="M19.663,32.674c3.104,3.671,8.08,4.81,12.334,3.215c0.947-0.355,2.183-0.157,2.838,0.615l0.462,0.548 c0.653,0.773,1.29,1.31,0.844,1.687c-0.445,0.376-0.276,1.31,0.378,2.081l5.521,6.53c0.654,0.773,1.811,0.871,2.584,0.217 l2.486-2.105c0.772-0.65,0.869-1.809,0.217-2.581l-5.522-6.53c-0.653-0.771-1.545-1.095-1.989-0.717 c-0.444,0.376-0.872-0.34-1.522-1.112l-0.463-0.547c-0.653-0.772-0.646-2.024-0.138-2.9c2.282-3.932,1.985-9.028-1.119-12.698 c-3.947-4.669-10.935-5.254-15.605-1.305C16.297,21.02,15.714,28.007,19.663,32.674z M33.378,31.744 c-3.437,2.905-8.574,2.477-11.48-0.958c-2.904-3.435-2.474-8.574,0.961-11.479c3.435-2.905,8.573-2.475,11.477,0.96 C37.24,23.703,36.811,28.841,33.378,31.744z"/>
<path d="M40.453,33.666c0.913-1.631,1.584-3.286,1.242-3.848c-0.314-0.52-1.051-0.717-1.834-0.805 c0.316-1.088,0.486-2.236,0.486-3.426c0-6.74-5.473-12.213-12.213-12.213c-0.902,0-1.781,0.098-2.628,0.284 c0.048-0.71,0.341-1.512,1.486-1.692c0,0-0.343-0.524,0.022-0.729c0.364-0.206,0.457-0.798,1.025-0.228c0,0,1.391-0.662,0.936-1.003 c-0.457-0.341-2.166-0.501,0.547-1.983c0,0-2.162-1.829-2.961-2.08c-0.797-0.251-0.596,0.438-1.689-0.291 c0,0-1.482-0.753-1.299,0.205c0.182,0.958,0.729,3.123-1.049,1.824c-1.778-1.299-2.803-1.299-1.801-1.983 c1.003-0.683,1.436-0.638,1.231-1.025c-0.206-0.388,1.162-0.798-0.365-0.684c-1.528,0.114-1.802-1.094-2.804-1.254 c-1.003-0.159-1.619,0.046-1.186,0.456c0.433,0.41,0.348,0.548-0.935,0.137c-1.282-0.41-2.257-1.276-3.853-0.159 c-1.595,1.117-3.806,2.326-3.875,3.032c0,0,2.599-1.55,3.055-0.821c0.456,0.73-0.182,2.735,0.41,3.693 c0.593,0.958-0.547-1.088-0.638,0.411c-0.091,1.499-2.006,2.963-0.547,5.836c1.459,2.872,0.524,2.553,0.98,3.146 c0.457,0.593,0.799,1.322,0.958,1.254c0.16-0.069-0.821-2.462-0.661-2.668c0.16-0.205,0.241,0.707,0.679,1.368 s1.373,1.579,1.396,2.211c0.022,0.626,0.156,1.506,1.678,2.144c-0.213,0.903-0.326,1.845-0.326,2.812 c0,6.741,5.473,12.214,12.214,12.214c0.428,0,0.852-0.021,1.27-0.065c0.302,1.531-1.02,3.787-1.523,4.826 c-0.593,1.231-0.527,3.386,0.073,3.672c-1.49,0.299-3.031,0.455-4.609,0.455C10.452,46.689,0,36.239,0,23.345 C0,10.452,10.452,0,23.345,0s23.344,10.452,23.344,23.345c0,4.826-1.465,9.311-3.974,13.031L40.453,33.666z M35.146,40.203 l1.778,2.13c-2.507,1.796-5.385,3.106-8.497,3.797c0.594-0.446,0.834-1.866,2.165-2.657c1.507-0.895,3.101-2.052,4.241-2.988 C34.943,40.395,35.048,40.301,35.146,40.203z"/>
</g></svg>