<svg width="48px" height="48px" viewBox="0 0 48 48" version="1.1" xmlns="http://www.w3.org/2000/svg" xmlns:xlink="http://www.w3.org/1999/xlink" xml:space="preserve" xmlns:serif="http://www.serif.com/" style="fill-rule:evenodd;clip-rule:evenodd;stroke-linejoin:round;stroke-miterlimit:2;">
<g fill="#202020">
<path d="M11.137,47.546l-8.353,0c-1.536,0 -2.784,-1.248 -2.784,-2.784l0,-41.524c0,-1.536 1.248,-2.784 2.784,-2.784l8.353,0c1.537,0 2.784,1.248 2.784,2.784l0,41.524c0,1.536 -1.247,2.784 -2.784,2.784Zm-4.176,-11.405c1.646,0 2.983,1.337 2.983,2.983c0,1.647 -1.337,2.984 -2.983,2.984c-1.647,0 -2.984,-1.337 -2.984,-2.984c0,-1.646 1.337,-2.983 2.984,-2.983Zm2.501,-31.602l-5.003,0c-1.381,0 -2.501,1.121 -2.501,2.502l0,20.066c0,1.381 1.12,2.502 2.501,2.502l5.003,0c1.381,0 2.502,-1.121 2.502,-2.502l0,-20.066c0,-1.381 -1.121,-2.502 -2.502,-2.502Z"/>
<rect x="3.556" y="16.442" width="6.81" height="1.265"/>
<rect x="3.556" y="13.129" width="6.81" height="1.265"/>
<rect x="3.556" y="19.754" width="6.81" height="1.265"/>
<path d="M25.98,47.546l-8.353,0c-1.536,0 -2.784,-1.248 -2.784,-2.784l0,-41.524c0,-1.536 1.248,-2.784 2.784,-2.784l8.353,0c1.537,0 2.784,1.248 2.784,2.784l0,41.524c0,1.536 -1.247,2.784 -2.784,2.784Zm-4.176,-11.405c1.646,0 2.983,1.337 2.983,2.983c0,1.647 -1.337,2.984 -2.983,2.984c-1.647,0 -2.984,-1.337 -2.984,-2.984c0,-1.646 1.337,-2.983 2.984,-2.983Zm2.501,-31.602l-5.003,0c-1.381,0 -2.501,1.121 -2.501,2.502l0,20.066c0,1.381 1.121,2.502 2.501,2.502l5.003,0c1.381,0 2.502,-1.121 2.502,-2.502l0,-20.066c0,-1.381 -1.121,-2.502 -2.502,-2.502Z"/>
<rect x="18.399" y="16.442" width="6.81" height="1.265"/>
<rect x="18.399" y="13.129" width="6.81" height="1.265"/>
<rect x="18.399" y="19.754" width="6.81" height="1.265"/>
<path d="M44.71,47.059l-8.317,0.772c-1.53,0.142 -2.888,-0.985 -3.03,-2.515l-3.838,-41.346c-0.142,-1.53 0.985,-2.887 2.515,-3.029l8.317,-0.772c1.531,-0.142 2.888,0.985 3.03,2.515l3.838,41.346c0.142,1.53 -0.985,2.887 -2.515,3.029Zm-5.213,-10.97c1.64,-0.152 3.094,1.055 3.247,2.695c0.152,1.639 -1.056,3.094 -2.695,3.246c-1.64,0.152 -3.094,-1.055 -3.247,-2.695c-0.152,-1.639 1.056,-3.094 2.695,-3.246Zm-0.43,-31.698l-4.981,0.463c-1.375,0.128 -2.388,1.347 -2.26,2.722l1.855,19.98c0.127,1.375 1.347,2.388 2.722,2.26l4.981,-0.462c1.375,-0.128 2.388,-1.348 2.26,-2.723l-1.855,-19.98c-0.127,-1.375 -1.347,-2.387 -2.722,-2.26Z"/>
<path d="M41.067,16.159l-6.781,0.63l0.117,1.259l6.781,-0.629l-0.117,-1.26Z"/>
<path d="M40.761,12.861l-6.781,0.629l0.117,1.26l6.781,-0.63l-0.117,-1.259Z"/>
<path d="M41.373,19.458l-6.781,0.629l0.117,1.259l6.781,-0.629l-0.117,-1.259Z"/>
</g>
</svg>