<svg version="1.1" xmlns="http://www.w3.org/2000/svg" xmlns:xlink="http://www.w3.org/1999/xlink" x="0px" y="0px" width="48px" height="48px" viewBox="0 0 48 48" enable-background="new 0 0 48 48" xml:space="preserve">
<g fill="#C0C0C0">
<path d="M46.904,28.408l-2.686-2.684c-0.382-0.385-0.957-0.574-1.341-0.574c-0.576,0-0.959,0.189-1.342,0.574 l-3.834,3.834c-0.574,0.575-1.726,0.19-1.726-0.767V2.917C35.979,1.959,35.021,1,34.063,1h-3.834c-0.957,0-1.916,0.958-1.916,1.917 v42.167c0,0.574,0.191,0.959,0.574,1.342C29.271,46.809,29.846,47,30.229,47c0.574,0,0.959-0.191,1.342-0.574l15.334-15.334 c0.384-0.383,0.574-0.768,0.574-1.342S47.287,28.793,46.904,28.408z"/>
<path d="M2.708,10.935h23.001c0.393,0,0.708-1.558,0.708-3.5c0-1.944-0.315-3.5-0.708-3.5H2.708 C2.315,3.935,2,5.491,2,7.435C2,9.377,2.315,10.935,2.708,10.935z"/>
<path d="M2.708,21.935h23.001c0.393,0,0.708-1.558,0.708-3.5c0-1.944-0.315-3.5-0.708-3.5H2.708 c-0.393,0-0.708,1.556-0.708,3.5C2,20.377,2.315,21.935,2.708,21.935z"/>
<path d="M2.708,32.936h23.001c0.393,0,0.708-1.559,0.708-3.5c0-1.945-0.315-3.5-0.708-3.5H2.708 C2.315,25.936,2,27.49,2,29.436C2,31.377,2.315,32.936,2.708,32.936z"/>
<path d="M2.708,43.936h23.001c0.393,0,0.708-1.559,0.708-3.5c0-1.945-0.315-3.5-0.708-3.5H2.708 C2.315,36.936,2,38.49,2,40.436C2,42.377,2.315,43.936,2.708,43.936z"/>
</g>
</svg>