<svg version="1.1" xmlns="http://www.w3.org/2000/svg" xmlns:xlink="http://www.w3.org/1999/xlink" x="0px" y="0px" width="48px" height="48px" viewBox="0 0 48 48" enable-background="new 0 0 48 48" xml:space="preserve">
<g fill="#202020"><path d="M10.508,3.777c0,0.585-0.465,1.058-1.038,1.058l0,0c-0.573,0-1.038-0.473-1.038-1.058V1.223 c0-0.585,0.464-1.058,1.038-1.058l0,0c0.573,0,1.038,0.473,1.038,1.058V3.777z"/>
<path d="M15.697,3.777c0,0.585-0.465,1.058-1.038,1.058l0,0c-0.573,0-1.038-0.473-1.038-1.058V1.223 c0-0.585,0.465-1.058,1.038-1.058l0,0c0.573,0,1.038,0.473,1.038,1.058V3.777z"/>
<path d="M20.886,3.777c0,0.585-0.464,1.058-1.038,1.058l0,0c-0.573,0-1.038-0.473-1.038-1.058V1.223 c0-0.585,0.464-1.058,1.038-1.058l0,0c0.573,0,1.038,0.473,1.038,1.058V3.777z"/>
<path d="M26.075,3.777c0,0.585-0.464,1.058-1.037,1.058l0,0C24.465,4.835,24,4.362,24,3.777V1.223 c0-0.585,0.465-1.058,1.038-1.058l0,0c0.573,0,1.037,0.473,1.037,1.058V3.777z"/>
<path d="M31.266,3.777c0,0.585-0.465,1.058-1.039,1.058l0,0c-0.572,0-1.037-0.473-1.037-1.058V1.223 c0-0.585,0.465-1.058,1.037-1.058l0,0c0.574,0,1.039,0.473,1.039,1.058V3.777z"/>
<path d="M28.563,23.221c-5.549,0-10.063,4.514-10.063,10.063s4.514,10.063,10.063,10.063s10.063-4.514,10.063-10.063 S34.111,23.221,28.563,23.221z M30.16,34.877H23.77v-1.599h4.793V28.48h1.598V34.877z"/>
<path d="M43.373,11.03l-9.412-8.695h-2.177v1.537c0,0.869-0.698,1.577-1.558,1.577c-0.858,0-1.558-0.708-1.558-1.577 V2.335h-2.075v1.537c0,0.869-0.697,1.577-1.557,1.577c-0.859,0-1.557-0.708-1.557-1.577V2.335h-2.076v1.537 c0,0.869-0.698,1.577-1.557,1.577c-0.859,0-1.557-0.708-1.557-1.577V2.335h-2.076v1.537c0,0.869-0.698,1.577-1.557,1.577 c-0.859,0-1.557-0.708-1.557-1.577V2.335h-2.076v1.537c0,0.869-0.698,1.577-1.557,1.577c-0.859,0-1.553-0.708-1.553-1.577V2.335 H4.627V48h38.746 M28.563,45.346c-6.651,0-12.063-5.411-12.063-12.063s5.411-12.063,12.063-12.063s12.063,5.411,12.063,12.063 S35.214,45.346,28.563,45.346z"/>
</g></svg>