<svg version="1.1" xmlns="http://www.w3.org/2000/svg" xmlns:xlink="http://www.w3.org/1999/xlink" x="0px" y="0px" width="48px" height="48px" viewBox="0 0 48 48" enable-background="new 0 0 48 48" xml:space="preserve">
<path fill="#202020" d="M24,4C12.955,4,4,12.954,4,24s8.955,20,20,20c11.046,0,20-8.954,20-20S35.046,4,24,4z M34.597,28H28v6.597 C28,36.477,26.209,38,24,38s-4-1.523-4-3.403V28h-6.598C11.523,28,10,26.209,10,24s1.523-4,3.402-4H20v-6.598 C20,11.523,21.791,10,24,10s4,1.523,4,3.402V20h6.597C36.477,20,38,21.791,38,24S36.477,28,34.597,28z"/>
</svg>