<svg version="1.1" xmlns="http://www.w3.org/2000/svg" xmlns:xlink="http://www.w3.org/1999/xlink" x="0px" y="0px" width="48px" height="48px" viewBox="0 0 48 48" enable-background="new 0 0 48 48" xml:space="preserve">
<g fill="#202020">
<polygon points="18.632,20.606 8.207,14.046 8.207,17.211 15.379,21.955 15.379,22.013 8.207,26.747 8.207,29.91 18.632,23.351 "/>
<rect x="21.811" y="26.988" width="7.814" height="3.013"/>
<path d="M44.568,3.428H3.429C1.536,3.428,0,4.96,0,6.854v34.289c0,1.892,1.536,3.428,3.429,3.428h41.139 c1.89,0,3.432-1.536,3.432-3.428V6.854C48,4.96,46.457,3.428,44.568,3.428z M44.568,41.145H3.429V7.035h41.139V41.145z"/>
</g></svg>