<svg version="1.1" xmlns="http://www.w3.org/2000/svg" xmlns:xlink="http://www.w3.org/1999/xlink" x="0px" y="0px" width="48px" height="48px" viewBox="0 0 48 48" enable-background="new 0 0 48 48" xml:space="preserve">
<g fill="#202020">
<path d="M10.882,2.187L10.801,2.23l0.182,0.558c0.101,0.311,0.405,1.291,0.674,2.179 c1.521,5.028,2.955,9.49,3.324,10.322c0.082,0.187,0.127,0.246,0.23,0.293c0.119,0.05,0.151,0.048,0.423-0.046 c0.169-0.061,0.391-0.174,0.515-0.262c0.306-0.214,0.822-0.698,1.035-0.966c0.2-0.248,0.49-0.785,0.72-1.332l0.155-0.36 l-0.292-0.995c-0.162-0.548-0.403-1.356-0.542-1.793c-0.138-0.437-0.655-2.128-1.148-3.752L15.183,3.12l-0.178-0.195 c-0.121-0.139-0.283-0.254-0.541-0.39C13.345,1.953,11.665,1.791,10.882,2.187z"/>
<path d="M9.042,2.774C7.985,3.189,6.709,3.869,5.84,4.483C2.954,6.53,1.498,9.191,1.592,12.261 c0.032,1.066,0.107,1.493,0.535,2.958c0.67,2.293,1.629,4.944,2.672,7.376c2.379,5.536,5.252,10.068,8.097,12.764 c0.458,0.435,1.905,1.669,3.084,2.627c6.023,4.908,11.1,7.692,15.544,8.516c2.778,0.52,5.454,0.191,7.318-0.889 c1.277-0.74,2.735-1.748,3.893-2.685c0.875-0.71,2.596-2.367,2.565-2.463c-0.009-0.015-1.703-0.71-3.771-1.548 c-2.069-0.838-5.089-2.062-6.704-2.718l-2.945-1.193l-0.315,0.285c-0.997,0.911-2.208,1.398-3.258,1.317 c-0.552-0.043-1.145-0.255-1.645-0.584c-1.097-0.719-4.173-3.736-8.996-8.817c-2.702-2.846-4.212-4.488-4.41-4.812 c-0.915-1.475-1.137-2.943-0.642-4.238c0.227-0.587,0.557-1.071,1.091-1.601l0.284-0.276l-0.13-0.407 c-0.069-0.227-1.025-3.213-2.125-6.644c-1.104-3.43-2.031-6.333-2.065-6.452L9.609,2.566L9.491,2.604 C9.424,2.628,9.223,2.702,9.042,2.774z"/>
<path d="M33.785,32.471c-0.701,0.675-1.268,1.239-1.27,1.251c0.008,0.03,13.729,5.671,13.788,5.67 c0.042,0,0.087-1.056,0.118-2.694c0.011-0.545,0-0.676-0.078-0.951c-0.088-0.303-0.106-0.334-0.347-0.597 c-0.155-0.169-0.363-0.344-0.528-0.445c-0.465-0.278-6.919-2.866-8.291-3.323c-0.693-0.229-1.36-0.296-1.888-0.188l-0.234,0.052 L33.785,32.471z"/>
</g></svg>