<svg version="1.1" xmlns="http://www.w3.org/2000/svg" xmlns:xlink="http://www.w3.org/1999/xlink" x="0px" y="0px" width="48px" height="48px" viewBox="0 0 48 48" enable-background="new 0 0 48 48" xml:space="preserve">
<g fill="#202020">
<path d="M39.023,27.16l-4.141,4.141l4.198,4.199l4.198,4.197l1.851-1.869L47,35.977l-2.156-2.156 c-1.164-1.184-2.137-2.271-2.137-2.424c0-0.172,0.953-1.24,2.099-2.387c1.163-1.145,2.08-2.154,2.062-2.232 C46.81,26.664,43.299,23,43.222,23C43.203,23,41.314,24.871,39.023,27.16z"/>
<path d="M25.884,31.172l-1.851,1.85l2.194,2.195c1.203,1.203,2.195,2.271,2.195,2.385 c0,0.096-0.992,1.184-2.195,2.387l-2.194,2.193l1.908,1.91L27.851,46l4.103-4.104c2.252-2.252,4.103-4.18,4.103-4.293 c0-0.191-8.015-8.301-8.205-8.301C27.792,29.301,26.915,30.141,25.884,31.172z"/>
<polygon points="23,30.852 6.5,30.852 6.5,7.852 39.5,7.852 39.5,21.573 44.5,21.573 44.5,2.852 1.5,2.852  1.5,35.852 23,35.852 "/>
</g>
</svg>