<svg version="1.1" xmlns="http://www.w3.org/2000/svg" xmlns:xlink="http://www.w3.org/1999/xlink" x="0px" y="0px" width="48px" height="48px" viewBox="0 0 48 48" enable-background="new 0 0 48 48" xml:space="preserve">
<g fill="#202020">
<path d="M27.235,11.167c4.862,0.727,7.874,3.384,9.723,7.958c1.487,3.675,1.345,7.792-0.396,11.344 c-1.806,3.697-5.15,6.396-9.212,7.438c-0.865,0.223-2.46,0.43-3.306,0.432c-2.441,0.002-4.563-0.531-6.784-1.707 c-0.504-0.268-2.024-1.328-2.444-1.703c-1.04-0.936-1.751-1.75-2.451-2.801c-1.447-2.172-2.248-4.674-2.336-7.287 c-0.029-0.936,0.006-1.53,0.154-2.555c0.071-0.48,0.12-0.928,0.11-0.999c-0.01-0.072-0.073-0.191-0.139-0.267 c-0.165-0.19-4.967-3.539-5.237-3.652c-0.152-0.066-0.212-0.068-0.312-0.011c-0.146,0.081-0.23,0.274-0.464,1.059 c-0.894,2.979-1.129,5.703-0.766,8.798c0.543,4.604,2.827,9.172,6.175,12.336c4.045,3.826,9.226,5.826,14.746,5.689 c3.549-0.084,7.181-1.146,10.213-2.971c6.09-3.674,9.954-10.152,10.258-17.201c0.217-5.044-1.393-10.003-4.509-13.892 c-0.853-1.063-1.73-1.959-2.879-2.938c-0.617-0.525-2.378-1.737-3.112-2.141c-2.065-1.136-4.284-1.921-6.468-2.3"/>
<polygon points="24.454,5.071 25.684,3.307 36.92,3.656 28.752,15.371 "/>
<path d="M29.162,15.656c2.722-3.905,5.445-7.81,8.167-11.715c0.209-0.299,0.015-0.773-0.369-0.784 c-2.604-0.081-5.209-0.163-7.813-0.244c-1.96-0.062-3.338-0.664-4.489,0.989c-1.214,1.74,0.073,3.128,0.854,5.002 c0.929,2.226,1.857,4.45,2.786,6.675c0.25,0.597,1.155,0.174,0.907-0.419c-0.786-1.887-1.576-3.776-2.363-5.664 c-0.497-1.189-0.993-2.377-1.488-3.565c-0.532-1.275-0.532-0.516,0.124-1.457c0.424-0.608,0.531-0.659,0.308-0.664 c0.342,0.01,0.683,0.02,1.024,0.031c1.296,0.041,2.594,0.081,3.89,0.121c2.06,0.063,4.119,0.127,6.179,0.191 c-0.122-0.261-0.246-0.523-0.369-0.785c-2.723,3.905-5.445,7.81-8.168,11.715C27.973,15.614,28.793,16.186,29.162,15.656z"/>
</g></svg>