<svg version="1.1" xmlns="http://www.w3.org/2000/svg" xmlns:xlink="http://www.w3.org/1999/xlink" x="0px" y="0px" width="48px" height="48px" viewBox="0 0 48 48" enable-background="new 0 0 48 48" xml:space="preserve">
<g fill="#202020">
<path d="M44.951,9.61H3.048c-1.272,0-2.304,1.031-2.304,2.304v8.171c0,1.272,1.032,2.306,2.304,2.306h41.903 c1.271,0,2.305-1.031,2.305-2.306v-8.171C47.256,10.641,46.223,9.61,44.951,9.61z M12.796,20.297h-1.932v0.844H8.872v-0.844H7 v-3.438h5.796V20.297z M12.796,14.297h-1.932v0.844H8.872v-0.844H7v-3.438h5.796V14.297z M19.559,20.297h-1.932v0.844h-1.993v-0.844 h-1.872v-3.438h5.796V20.297z M19.559,14.297h-1.932v0.844h-1.993v-0.844h-1.872v-3.438h5.796V14.297z M26.32,20.297h-1.932v0.844 h-1.993v-0.844h-1.872v-3.438h5.796V20.297z M26.32,14.297h-1.932v0.844h-1.993v-0.844h-1.872v-3.438h5.796V14.297z M33.083,20.297 h-1.932v0.844h-1.993v-0.844h-1.871v-3.438h5.796V20.297z M33.083,14.297h-1.932v0.844h-1.993v-0.844h-1.871v-3.438h5.796V14.297z M42,20.391c-0.92,0-1.666-0.746-1.666-1.666c0-0.92,0.746-1.666,1.666-1.666s1.666,0.746,1.666,1.666 C43.666,19.645,42.92,20.391,42,20.391z M42,14.942c-0.92,0-1.666-0.746-1.666-1.666c0-0.92,0.746-1.666,1.666-1.666 s1.666,0.746,1.666,1.666C43.666,14.196,42.92,14.942,42,14.942z"/>
<path d="M44.951,25.609H3.048c-1.272,0-2.304,1.031-2.304,2.305v8.171c0,1.272,1.032,2.306,2.304,2.306h41.903 c1.271,0,2.305-1.031,2.305-2.306v-8.171C47.256,26.641,46.223,25.609,44.951,25.609z M12.796,36.297h-1.932v0.844H8.872v-0.844H7 v-3.438h5.796V36.297z M12.796,30.297h-1.932v0.844H8.872v-0.844H7v-3.438h5.796V30.297z M19.559,36.297h-1.932v0.844h-1.993v-0.844 h-1.872v-3.438h5.796V36.297z M19.559,30.297h-1.932v0.844h-1.993v-0.844h-1.872v-3.438h5.796V30.297z M26.32,36.297h-1.932v0.844 h-1.993v-0.844h-1.872v-3.438h5.796V36.297z M26.32,30.297h-1.932v0.844h-1.993v-0.844h-1.872v-3.438h5.796V30.297z M33.083,36.297 h-1.932v0.844h-1.993v-0.844h-1.871v-3.438h5.796V36.297z M33.083,30.297h-1.932v0.844h-1.993v-0.844h-1.871v-3.438h5.796V30.297z M42,36.391c-0.92,0-1.666-0.746-1.666-1.666S41.08,33.059,42,33.059s1.666,0.746,1.666,1.666S42.92,36.391,42,36.391z M42,30.941 c-0.92,0-1.666-0.745-1.666-1.666c0-0.92,0.746-1.666,1.666-1.666s1.666,0.746,1.666,1.666C43.666,30.196,42.92,30.941,42,30.941z"/>
</g>
</svg>