<svg version="1.1" xmlns="http://www.w3.org/2000/svg" xmlns:xlink="http://www.w3.org/1999/xlink" x="0px" y="0px" width="48px" height="48px" viewBox="0 0 48 48" enable-background="new 0 0 48 48" xml:space="preserve">
<g fill="#fff">
<path d="M37.555,26.094v-1.829c0-0.432,0.35-0.782,0.778-0.782h3.758v-4.28H5.995v4.28h3.674 c0.429,0,0.776,0.351,0.776,0.782v1.829h3.823v-1.829c0-0.432,0.347-0.782,0.776-0.782h17.267c0.428,0,0.776,0.351,0.776,0.782 v1.829H37.555z"/>
<path d="M2.94,12.574l42.029,0.041c0.9-0.041,1.813,0.658,2.416,1.242c0.248,0.24,0.444,0.478,0.615,0.714V0H0 v14.625C0.73,13.56,2.002,12.574,2.94,12.574z"/>
<path d="M47.225,43.02H0.776C0.347,43.02,0,42.668,0,42.234V48h48v-5.766C48,42.668,47.652,43.02,47.225,43.02z"/>
</g></svg>