<svg version="1.1" xmlns="http://www.w3.org/2000/svg" xmlns:xlink="http://www.w3.org/1999/xlink" x="0px" y="0px" width="48px" height="48px" viewBox="0 0 48 48" enable-background="new 0 0 48 48" xml:space="preserve">
<g fill="#202020">
<path d="M8,12c0,0.41-0.27,0.75-0.61,0.75H4.61C4.27,12.75,4,12.41,4,12l0,0c0-0.41,0.27-0.75,0.61-0.75h2.77 C7.73,11.25,8,11.59,8,12L8,12z"/>
<path d="M8,20c0,0.41-0.27,0.75-0.61,0.75H4.61C4.27,20.75,4,20.41,4,20l0,0c0-0.41,0.27-0.75,0.61-0.75h2.77 C7.73,19.25,8,19.59,8,20L8,20z"/>
<path d="M8,28c0,0.41-0.27,0.75-0.61,0.75H4.61C4.27,28.75,4,28.41,4,28l0,0c0-0.41,0.27-0.75,0.61-0.75h2.77 C7.73,27.25,8,27.59,8,28L8,28z"/>
<path d="M8,36c0,0.41-0.27,0.75-0.61,0.75H4.61C4.27,36.75,4,36.41,4,36l0,0c0-0.41,0.27-0.75,0.61-0.75h2.77 C7.73,35.25,8,35.59,8,36L8,36z"/>
<path d="M8,44c0,0.41-0.27,0.75-0.61,0.75H4.61C4.27,44.75,4,44.41,4,44l0,0c0-0.41,0.27-0.75,0.61-0.75h2.77 C7.73,43.25,8,43.59,8,44L8,44z"/>
<path d="M8,4c0-0.41-0.27-0.75-0.61-0.75H4.61C4.27,3.25,4,3.59,4,4s0.27,0.75,0.61,0.75h2.77C7.73,4.75,8,4.41,8,4z"/>
<path d="M45.46,13.75h-2.38c-0.05,0-0.08,0.02-0.13,0.02v9.95c0.04,0,0.08,0.02,0.13,0.02h2.38 c0.59,0,1.07-0.43,1.07-0.96v-8.08C46.53,14.18,46.05,13.75,45.46,13.75z"/>
<path d="M45.46,24.75h-2.38c-0.05,0-0.08,0.02-0.13,0.02v9.95c0.04,0,0.08,0.02,0.13,0.02h2.38 c0.59,0,1.07-0.43,1.07-0.96v-8.08C46.53,25.18,46.05,24.75,45.46,24.75z"/>
<path d="M45.46,35.75h-2.38c-0.05,0-0.08,0.02-0.13,0.02v9.95c0.04,0,0.08,0.02,0.13,0.02h2.38 c0.59,0,1.07-0.43,1.07-0.96v-8.08C46.53,36.18,46.05,35.75,45.46,35.75z"/>
<path d="M45.46,2.75H42V1.03C42,0.46,41.55,0,41,0H7.01C6.45,0,6,0.46,6,1.03V2.5h1.39c0.75,0,1.36,0.67,1.36,1.5 S8.14,5.5,7.39,5.5H6v5h1.39c0.75,0,1.36,0.67,1.36,1.5s-0.61,1.5-1.36,1.5H6v1v4h1.39c0.75,0,1.36,0.67,1.36,1.5 s-0.61,1.5-1.36,1.5H6v5h1.39c0.75,0,1.36,0.67,1.36,1.5s-0.61,1.5-1.36,1.5H6v5h1.39c0.75,0,1.36,0.67,1.36,1.5s-0.61,1.5-1.36,1.5 H6v5h1.39c0.75,0,1.36,0.67,1.36,1.5s-0.61,1.5-1.36,1.5H6v1.47C6,47.54,6.45,48,7.01,48H41c0.56,0,1-0.46,1-1.03V12.75h3.46 c0.59,0,1.07-0.43,1.07-0.96V3.71C46.53,3.18,46.05,2.75,45.46,2.75z M27.78,9.67c0.02-0.02,0.05-0.03,0.08-0.03 c0.3,0,1.15,0,1.61,0c0.17,0,0.32,0.13,0.33,0.3c0.07,0.71,0.24,2.45,0.29,3.05c0.01,0.12-0.07,0.23-0.19,0.26 c-0.44,0.1-1.48,0.35-1.92,0.45c-0.05,0.01-0.1,0-0.14-0.03c-0.04-0.03-0.06-0.08-0.07-0.13c-0.01-0.75-0.03-3.23-0.03-3.79 C27.75,9.72,27.76,9.69,27.78,9.67z M24.8,9.77c0-0.07,0.06-0.13,0.13-0.13c0.34,0,1.24,0,1.68,0c0.14,0,0.25,0.11,0.25,0.24 c0.03,0.79,0.14,3.26,0.16,3.78c0,0.06-0.04,0.11-0.09,0.12c-0.34,0.08-1.49,0.34-1.96,0.45c-0.05,0.01-0.1,0-0.14-0.03 c-0.04-0.03-0.06-0.08-0.06-0.13C24.77,13.26,24.79,10.42,24.8,9.77z M21.82,9.71c0.05-0.05,0.11-0.08,0.18-0.08 c0.38,0,1.09,0,1.48,0c0.15,0,0.28,0.12,0.29,0.27c0.05,0.66,0.17,2.35,0.21,2.93c0.01,0.11-0.07,0.21-0.18,0.24 c-0.4,0.08-1.33,0.25-1.77,0.33c-0.06,0.01-0.12,0-0.17-0.04s-0.08-0.1-0.08-0.16c-0.01-0.69-0.02-2.6-0.03-3.3 C21.75,9.82,21.77,9.76,21.82,9.71z M18.68,9.69c0.04-0.04,0.09-0.06,0.14-0.06c0.45,0,1.53,0,1.97,0c0.11,0,0.2,0.09,0.2,0.2 c0.02,0.68,0.1,2.96,0.12,3.69c0,0.13-0.09,0.25-0.22,0.28c-0.44,0.09-1.42,0.3-1.9,0.41c-0.07,0.01-0.14,0-0.19-0.04 c-0.05-0.04-0.09-0.11-0.09-0.18c-0.02-0.86-0.08-3.42-0.09-4.15C18.62,9.78,18.64,9.73,18.68,9.69z M28.59,26.92h-9.18 c-0.18,0-0.33-0.22-0.33-0.5s0.15-0.5,0.33-0.5h9.18c0.18,0,0.33,0.22,0.33,0.5S28.77,26.92,28.59,26.92z M30.06,22.31 c-0.04,0.04-0.09,0.06-0.14,0.06c-1.4-0.01-9.59-0.08-11.22-0.1c-0.16,0-0.29-0.13-0.3-0.28c-0.09-1.15-0.42-5.52-0.51-6.66 c-0.01-0.15,0.09-0.29,0.25-0.33c1.06-0.22,4.98-1.02,5.9-1.21c0.05-0.01,0.1,0,0.14,0.03c0.04,0.03,0.06,0.08,0.06,0.13 c0,0.56,0,2.11,0,2.62c0,0.09-0.07,0.17-0.16,0.19c-0.58,0.1-2.55,0.44-3.26,0.56c-0.15,0.03-0.26,0.16-0.27,0.31 c-0.01,0.46-0.02,1.38-0.03,1.81c0,0.05,0.02,0.1,0.07,0.13c0.04,0.03,0.1,0.04,0.15,0.02c0.99-0.41,5.03-2.08,5.92-2.45 c0.11-0.05,0.2-0.13,0.25-0.24c0.21-0.47,0.77-1.77,0.94-2.15c0.03-0.07,0.09-0.12,0.16-0.15c0.35-0.1,1.38-0.42,1.83-0.55 c0.05-0.02,0.11-0.01,0.15,0.03c0.04,0.03,0.07,0.08,0.07,0.13c0.01,1.2,0.06,6.8,0.06,7.94C30.12,22.22,30.09,22.27,30.06,22.31z"/>
</g>
</svg>