<svg version="1.1" xmlns="http://www.w3.org/2000/svg" xmlns:xlink="http://www.w3.org/1999/xlink" x="0px" y="0px" width="48px" height="48px" viewBox="0 0 48 48" enable-background="new 0 0 48 48" xml:space="preserve">
<path fill="#202020" d="M0.57,9.985h5.691v29.092H3.923v-2.804H1.494v-8.006h2.429v-5.822H1.494v-8.007h2.429v-3.162H0.57V9.985z M44.944,14.757c1.495,0,2.707,1.212,2.707,2.707v17.653c0,1.495-1.212,2.707-2.707,2.707h-0.002v2.686H27.654v-2.686h-1.642v2.686 H8.725v-2.686H7.209V14.757 M10.904,37.689h-0.862v1.94h0.862V37.689z M12.628,37.689h-0.862v1.94h0.862V37.689z M14.352,37.689 H13.49v1.94h0.861V37.689z M16.076,37.689h-0.862v1.94h0.862V37.689z M17.8,37.689h-0.862v1.94H17.8V37.689z M19.524,37.689h-0.861 v1.94h0.861V37.689z M21.248,37.689h-0.862v1.94h0.862V37.689z M22.973,37.689H22.11v1.94h0.862V37.689z M24.697,37.689h-0.863v1.94 h0.863V37.689z M29.833,37.689H28.97v1.94h0.863V37.689z M31.557,37.689h-0.861v1.94h0.861V37.689z M33.28,37.689h-0.861v1.94h0.861 V37.689z M35.005,37.689h-0.862v1.94h0.862V37.689z M36.729,37.689h-0.862v1.94h0.862V37.689z M38.453,37.689h-0.862v1.94h0.862 V37.689z M40.176,37.689h-0.861v1.94h0.861V37.689z M41.901,37.689h-0.863v1.94h0.863V37.689z M43.625,37.689h-0.861v1.94h0.861 V37.689z M42.688,26.081c0-5.341-4.329-9.67-9.67-9.67s-9.671,4.329-9.671,9.67c0,5.34,4.331,9.67,9.671,9.67 S42.688,31.421,42.688,26.081z M33.977,18.604c0.272,0.074,0.644,1.015,0.85,2.154c0.265,1.429,0.223,1.337,0.446,0.868 c0.106-0.231,0.238-0.611,0.289-0.851c0.165-0.809,0.801-1.272,1.495-1.089c0.215,0.058,0.563,0.329,1.162,0.907 c0.966,0.917,1.43,1.486,1.76,2.139l0.222,0.446l-0.156,0.29c-0.239,0.445-1.223,1.452-2.005,2.063l-0.703,0.553l0.57,0.026 c0.348,0.017,0.834-0.026,1.205-0.118c0.628-0.139,0.645-0.13,0.997,0.034c0.694,0.339,0.802,0.868,0.438,2.12 c-0.403,1.38-0.824,2.282-1.362,2.923c-0.164,0.191-0.188,0.2-0.732,0.107c-0.653-0.107-1.694-0.444-2.255-0.726 c-0.224-0.114-0.396-0.164-0.396-0.123c0,0.09,0.568,0.818,0.825,1.041c0.595,0.537,0.519,1.543-0.139,1.881 c-0.332,0.176-1.604,0.529-2.412,0.678c-0.703,0.124-1.543,0.147-1.898,0.051c-0.273-0.073-0.643-1.018-0.85-2.156 c-0.273-1.443-0.224-1.329-0.403-0.983c-0.085,0.166-0.224,0.579-0.314,0.909c-0.258,0.907-0.62,1.213-1.412,1.148 c-0.299-0.019-0.521-0.185-1.379-1.017c-0.876-0.849-1.322-1.404-1.643-2.031l-0.222-0.444l0.155-0.297 c0.223-0.422,1.346-1.569,2.079-2.129l0.62-0.48l-0.628-0.024c-0.347-0.018-0.851,0.032-1.156,0.1 c-0.635,0.149-0.989,0.074-1.32-0.266c-0.354-0.37-0.396-0.657-0.224-1.394c0.332-1.378,0.899-2.716,1.437-3.359 c0.184-0.224,0.223-0.232,0.596-0.183c0.645,0.09,1.562,0.363,2.155,0.627c0.296,0.142,0.576,0.248,0.618,0.248 c0.124,0-0.081-0.297-0.545-0.8c-0.237-0.265-0.479-0.562-0.528-0.661c-0.248-0.462-0.009-1.213,0.462-1.461 c0.314-0.166,1.652-0.545,2.371-0.668C32.664,18.538,33.655,18.514,33.977,18.604z"/>
</svg>