<svg version="1.1" xmlns="http://www.w3.org/2000/svg" xmlns:xlink="http://www.w3.org/1999/xlink" x="0px" y="0px" width="48px" height="48px" viewBox="0 0 48 48" enable-background="new 0 0 48 48" xml:space="preserve">
<path fill="#202020" d="M44.568,4.428H3.429C1.536,4.428,0,5.96,0,7.854v34.289c0,1.895,1.536,3.428,3.429,3.428h41.139 c1.89,0,3.432-1.533,3.432-3.428V7.854C48,5.96,46.457,4.428,44.568,4.428z M8.939,17.888H7.366L6.32,13.845 c-0.056-0.211-0.089-0.447-0.101-0.708H6.202c-0.026,0.287-0.064,0.523-0.114,0.708l-1.072,4.043h-1.64l-1.657-6.302H3.27 l0.888,4.196c0.038,0.18,0.066,0.42,0.083,0.721h0.026c0.012-0.225,0.054-0.471,0.127-0.738l1.143-4.179h1.521l1.033,4.231 c0.038,0.156,0.072,0.382,0.101,0.678H8.21c0.012-0.231,0.042-0.467,0.092-0.703l0.87-4.206h1.434L8.939,17.888z M18.585,17.888 h-1.401v-3.771c0-0.407,0.018-0.857,0.053-1.349h-0.035c-0.074,0.387-0.14,0.665-0.198,0.835l-1.477,4.285h-1.16l-1.503-4.241 c-0.041-0.114-0.107-0.407-0.197-0.879h-0.04c0.038,0.621,0.058,1.166,0.058,1.635v3.485h-1.279v-6.302h2.078l1.288,3.735 c0.103,0.299,0.177,0.6,0.224,0.9h0.027c0.078-0.348,0.162-0.651,0.25-0.909l1.287-3.727h2.026L18.585,17.888L18.585,17.888z M21.438,17.888h-1.42v-6.302h1.42V17.888z M25.885,19.192H22.15V18h3.735V19.192z M42.7,11.151c-1.284,0-2.325-1.042-2.325-2.326 c0-1.284,1.041-2.325,2.325-2.325s2.325,1.042,2.325,2.326C45.025,10.11,43.984,11.151,42.7,11.151z"/>
</svg>