<svg width="48px" height="48px" viewBox="0 0 48 48" version="1.1" xmlns="http://www.w3.org/2000/svg" xmlns:xlink="http://www.w3.org/1999/xlink" xml:space="preserve" xmlns:serif="http://www.serif.com/" style="fill-rule:evenodd">
<path fill="#202020" d="M47.256,7.896c0,-3.81 -3.093,-6.902 -6.902,-6.902l-32.708,0c-3.809,0 -6.902,3.092 -6.902,6.902l0,32.208c0,3.81 3.093,6.902 6.902,6.902l32.708,0c3.809,0 6.902,-3.092 6.902,-6.902l0,-32.208Zm-23.253,24.108c2.172,0 3.934,1.763 3.934,3.934c0,2.171 -1.762,3.934 -3.934,3.934c-2.171,-0 -3.933,-1.763 -3.933,-3.934c-0,-2.171 1.762,-3.934 3.933,-3.934Zm5.244,-1.311c-0.597,-0.59 -1.281,-1.083 -2.039,-1.445c-1.98,-0.947 -4.338,-0.961 -6.329,-0.038c-0.76,0.353 -1.449,0.836 -2.052,1.417l-0.068,0.068l-2.618,-2.617c4.338,-4.34 11.383,-4.341 15.723,-0.003l-2.617,2.618Zm5.233,-5.236c-1.193,-1.178 -2.56,-2.162 -4.074,-2.887c-3.955,-1.892 -8.668,-1.92 -12.646,-0.074c-1.52,0.705 -2.895,1.67 -4.101,2.831l-0.136,0.135l-2.618,-2.617c7.227,-7.229 18.963,-7.232 26.192,-0.006l-2.617,2.618Zm5.233,-5.235l2.617,-2.618c-10.119,-10.115 -26.546,-10.111 -36.66,0.008l2.618,2.616l0.102,-0.101c1.758,-1.726 3.782,-3.165 6.005,-4.23c3.069,-1.47 6.469,-2.214 9.871,-2.175c3.268,0.039 6.52,0.8 9.461,2.23c2.219,1.079 4.237,2.531 5.986,4.27Z"/>
</svg>