<svg version="1.1" xmlns="http://www.w3.org/2000/svg" xmlns:xlink="http://www.w3.org/1999/xlink" x="0px" y="0px" width="48px" height="48px" viewBox="0 0 48 48" enable-background="new 0 0 48 48" xml:space="preserve">
<path fill="#202020" d="M45.5,0h-43C1.12,0,0,1.12,0,2.5v43C0,46.88,1.12,48,2.5,48h43c1.38,0,2.5-1.12,2.5-2.5v-43 C48,1.12,46.88,0,45.5,0z M39.4,33.66c-4.021,6.96-12.23,10.369-20,8.279c-7.77-2.08-13.18-9.129-13.18-17.17h2.54 c0,6.91,4.63,12.94,11.3,14.721c6.67,1.789,13.69-1.131,17.15-7.1c3.45-5.98,2.46-13.521-2.431-18.4 C29.99,9.2,22.65,8.18,16.73,11.41l1.09,1.89l1.27,2.2L8.58,14.23l4.15-9.75l2.73,4.72c3.4-1.87,7.21-2.55,10.87-2.06 c3.79,0.5,7.41,2.21,10.25,5.05C42.26,17.88,43.42,26.689,39.4,33.66z M16.38,27.32v-2.541H24V17.15h2.54v10.17H16.38z"/>
</svg>