<?xml version="1.0" encoding="utf-8" standalone="no"?>
<svg version="1.1" xmlns="http://www.w3.org/2000/svg" xmlns:xlink="http://www.w3.org/1999/xlink" x="0px" y="0px" width="48px" height="48px" viewBox="0 0 48 48" enable-background="new 0 0 48 48" xml:space="preserve">
<g fill="#202020" >
<path d="M24.35,4c0.03,0.29,0.03,0.59,0.03,0.89c0,3.15-1.21,6.13-3.44,8.36l-3.57,3.55 c-1.84,1.85-2.86,4.31-2.86,6.92s1.01,5.07,2.86,6.92c1.84,1.85,4.31,2.86,6.91,2.86c2.62,0,5.08-1.01,6.92-2.86l3.54-3.56 c2.26-2.23,5.22-3.46,8.39-3.46c0.29,0,0.59,0.01,0.87,0.03c-0.09-5-2.04-9.98-5.84-13.8C34.32,6.04,29.33,4.09,24.35,4z"/>
<path d="M36.2,28.53l-3.54,3.56c-2.26,2.23-5.22,3.47-8.37,3.47c-3.18,0-6.13-1.23-8.39-3.47 c-2.22-2.23-3.48-5.2-3.48-8.36s1.25-6.13,3.48-8.37l3.57-3.55c1.83-1.85,2.86-4.31,2.86-6.92c0-0.28-0.03-0.55-0.04-0.82 c-4.53,0.38-8.97,2.32-12.44,5.79c-7.8,7.8-7.8,20.48,0,28.29c7.83,7.81,20.48,7.81,28.28,0c3.47-3.47,5.4-7.9,5.78-12.45 c-0.27-0.02-0.53-0.03-0.8-0.03C40.49,25.68,38.04,26.69,36.2,28.53z"/>
</g>
</svg>