<?xml version="1.0" encoding="UTF-8" standalone="no"?>
<svg version="1.1" xmlns="http://www.w3.org/2000/svg" xmlns:xlink="http://www.w3.org/1999/xlink" x="0px" y="0px" width="48px" height="48px" viewBox="0 0 48 48" enable-background="new 0 0 48 48" xml:space="preserve">
<g fill="#202020">
<path d="M29.012,3.422V1.851c0-0.628-0.51-1.137-1.138-1.137h-7.747c-0.628,0-1.138,0.509-1.138,1.137v1.571H29.012z"/>
<path d="M37.678,4.235H10.322c-0.628,0-1.138,0.509-1.138,1.138v41.061c0,0.627,0.509,1.137,1.138,1.137h27.355 c0.628,0,1.138-0.51,1.138-1.137V5.373C38.814,4.744,38.307,4.235,37.678,4.235z M26.383,42.759h-4.768v-1.353h4.768V42.759z M26.384,11.948h-1.707v1.707h-1.354v-1.707h-1.707v-1.354h1.707V8.888h1.354v1.706h1.707V11.948z"/>
</g></svg>