<?xml version="1.0" encoding="UTF-8" standalone="no"?>
<svg width="48px" height="48px" viewBox="0 0 150 150" version="1.1" xmlns="http://www.w3.org/2000/svg" xmlns:xlink="http://www.w3.org/1999/xlink" xml:space="preserve" xmlns:serif="http://www.serif.com/">
<g fill="#202020" transform="matrix(0.1,0,0,-0.1,1,154)">
<path d="M373,380C321,349 307,317 302,224L297,140L1183,140L1178,219C1173,311 1151,357 1100,382C1069,398 1029,400 735,400C426,400 403,399 373,380Z"/>
<path d="M674,1354C621,1328 596,1256 619,1195C625,1179 615,1164 569,1118C500,1048 439,960 408,882C389,834 386,807 386,715C387,594 398,551 451,468L482,420L734,420C983,420 987,420 1007,442C1058,498 1100,624 1100,720C1100,841 1057,941 949,1069C890,1138 886,1142 872,1124C833,1072 798,946 785,813L778,740L697,740L704,818C718,975 761,1113 825,1202C858,1247 859,1251 847,1287C824,1357 743,1388 674,1354Z"/>
</g></svg>