<svg version="1.1" xmlns="http://www.w3.org/2000/svg" xmlns:xlink="http://www.w3.org/1999/xlink" x="0px" y="0px" width="48px" height="48px" viewBox="0 0 48 48" enable-background="new 0 0 48 48" xml:space="preserve">
<circle fill="none" stroke="#202020" stroke-width="6" stroke-miterlimit="10" cx="24" cy="24" r="20.178"/>
<path fill="#202020" d="M22.906,31.383v-6.547c-2.042-0.583-3.539-1.466-4.492-2.648c-0.953-1.182-1.43-2.617-1.43-4.305 c0-1.708,0.539-3.143,1.617-4.305c1.078-1.161,2.513-1.831,4.305-2.008v-1.547h2.266v1.547c1.656,0.198,2.974,0.763,3.953,1.695 c0.979,0.933,1.604,2.18,1.875,3.742l-3.953,0.516c-0.24-1.229-0.865-2.063-1.875-2.5v6.109c2.5,0.677,4.203,1.555,5.109,2.633 s1.359,2.461,1.359,4.148c0,1.886-0.57,3.475-1.711,4.766c-1.141,1.292-2.727,2.084-4.758,2.375v2.922h-2.266v-2.844 c-1.803-0.219-3.266-0.891-4.391-2.016s-1.844-2.713-2.156-4.766l4.078-0.438c0.166,0.834,0.479,1.553,0.938,2.156 C21.833,30.675,22.344,31.112,22.906,31.383z M22.906,14.977c-0.615,0.208-1.104,0.563-1.469,1.063 c-0.365,0.5-0.547,1.052-0.547,1.656c0,0.552,0.166,1.065,0.5,1.539c0.333,0.474,0.838,0.857,1.516,1.148V14.977z M25.172,31.602 c0.781-0.146,1.416-0.508,1.906-1.086c0.489-0.578,0.734-1.258,0.734-2.039c0-0.697-0.206-1.299-0.617-1.805 c-0.412-0.505-1.086-0.893-2.023-1.164V31.602z"/>
</svg>