<svg width="48px" height="48px" viewBox="0 0 48 48" version="1.1" xmlns="http://www.w3.org/2000/svg" xmlns:xlink="http://www.w3.org/1999/xlink" xml:space="preserve" xmlns:serif="http://www.serif.com/">
<g fill="#202020">
<path d="M37,19.715l-14.552,14.548c-0.195,0.195 -1.713,1.729 -1.713,2.538l0,6.742c0,1.104 0.896,2 2,2l6.744,-0c0.809,-0 7.521,-6.691 7.521,-6.691l0,8.148l-34,0l0,-36.04l8.68,-9.96l25.32,0l0,18.715Z"/>
<path d="M22.735,43.543l6.744,-0l-6.744,-6.742l0,6.742Zm21.92,-23.041c-1.551,-1.552 -4.063,-1.552 -5.614,-0l-1.69,1.69l6.741,6.743l1.689,-1.684c1.553,-1.552 1.553,-4.07 0,-5.622l-1.126,-1.127Zm-20.793,15.175l6.744,6.742l11.36,-11.363l-6.743,-6.743l-11.361,11.364Z"/>
</g></svg>