<svg version="1.1" xmlns="http://www.w3.org/2000/svg" xmlns:xlink="http://www.w3.org/1999/xlink" x="0px" y="0px" width="48px" height="48px" viewBox="0 0 48 48" enable-background="new 0 0 48 48" xml:space="preserve">
<g fill="#202020">
<path d="M24,0C10.7,0,0,10.7,0,24s10.7,24,24,24s24-10.7,24-24S37.3,0,24,0z M24,45C12.4,45,3,35.6,3,24 C3,12.4,12.4,3,24,3c11.6,0,21,9.4,21,21C45,35.6,35.6,45,24,45z"/>
<path d="M24,5C13.5,5,5,13.5,5,24s8.5,19,19,19s19-8.5,19-19S34.5,5,24,5z M36,25.5H25.7c-0.4,0.5-1,0.8-1.7,0.8 c-1.2,0-2.3-1-2.3-2.3c0-0.9,0.5-1.6,1.3-2V8h2v14c0.3,0.1,0.5,0.3,0.7,0.5H36V25.5z"/>
</g></svg>