<svg version="1.1" xmlns="http://www.w3.org/2000/svg" xmlns:xlink="http://www.w3.org/1999/xlink" x="0px" y="0px" width="48px" height="48px" viewBox="0 0 48 48" enable-background="new 0 0 48 48" xml:space="preserve">
<g fill="#202020">
<path d="M3.16,26.58v-5.16c1.27-0.06,2.22-0.31,2.83-0.75c0.61-0.44,1.07-1.14,1.4-2.08s0.48-2.54,0.48-4.79 c0-2.84,0.13-4.77,0.39-5.81c0.26-1.04,0.67-1.87,1.24-2.49s1.4-1.13,2.5-1.54c1.1-0.4,2.68-0.6,4.75-0.6h1.14v5.16 c-1.53,0-2.54,0.08-3.01,0.25c-0.47,0.17-0.82,0.43-1.04,0.81c-0.22,0.37-0.33,1.06-0.33,2.06c0,1.8-0.09,3.82-0.26,6.04 c-0.12,1.45-0.51,2.74-1.19,3.89c-0.5,0.85-1.37,1.67-2.61,2.47c1.04,0.6,1.87,1.36,2.49,2.29c0.61,0.92,1.02,2.09,1.22,3.51 c0.09,0.62,0.19,2.62,0.3,6.01c0.04,1.24,0.12,2.02,0.24,2.32c0.19,0.44,0.54,0.78,1.05,1.01c0.51,0.23,1.56,0.34,3.14,0.34v5.16 h-1.14c-2.08,0-3.63-0.17-4.63-0.5c-1.01-0.34-1.82-0.83-2.45-1.48c-0.63-0.65-1.09-1.48-1.37-2.47C8,39.19,7.87,37.48,7.87,35.04 c0-2.72-0.15-4.56-0.44-5.51c-0.29-0.95-0.75-1.66-1.38-2.14S4.46,26.65,3.16,26.58z"/>
<path d="M44.84,21.42v5.16c-1.28,0.07-2.22,0.33-2.83,0.76c-0.61,0.44-1.08,1.13-1.41,2.08c-0.33,0.95-0.49,2.55-0.49,4.8 c0,2.84-0.13,4.77-0.38,5.8s-0.66,1.86-1.22,2.48c-0.57,0.62-1.4,1.13-2.49,1.54s-2.67,0.6-4.74,0.6h-1.14v-5.16 c1.53,0,2.53-0.08,3-0.25c0.46-0.17,0.81-0.43,1.04-0.8c0.23-0.37,0.34-1.06,0.34-2.06c0-1.82,0.09-3.83,0.26-6.05 c0.1-1.44,0.49-2.73,1.16-3.86c0.52-0.86,1.39-1.68,2.62-2.47c-1.05-0.6-1.88-1.36-2.49-2.29c-0.62-0.92-1.03-2.1-1.22-3.53 c-0.09-0.6-0.19-2.6-0.3-5.99c-0.04-1.26-0.13-2.03-0.26-2.32c-0.19-0.46-0.54-0.8-1.04-1.02c-0.51-0.22-1.54-0.33-3.1-0.33V3.35 h1.14c2.08,0,3.61,0.17,4.61,0.52s1.81,0.84,2.45,1.49c0.64,0.65,1.1,1.48,1.38,2.47c0.28,1,0.42,2.71,0.42,5.15 c0,2.72,0.15,4.55,0.44,5.5s0.75,1.65,1.37,2.13C42.55,21.08,43.52,21.35,44.84,21.42z"/>
</g></svg>