<?xml version="1.0" encoding="UTF-8" standalone="no"?>
<svg version="1.1" xmlns="http://www.w3.org/2000/svg" xmlns:xlink="http://www.w3.org/1999/xlink" x="0px" y="0px" width="48px" height="48px" viewBox="0 0 48 48" enable-background="new 0 0 48 48" xml:space="preserve">
<g fill="#202020"><path d="M11.9,15.9c-0.8-0.6-1.5-0.2-1.5,0.8v4.2l-8.5,0.1C1,21.2,0.4,23,0.4,23.8c0,0.9,0.6,2.6,1.4,2.8l8.5,0.2 v4.2c0,1.1,0.7,1.4,1.5,0.8l9.3-6.8c0.8-0.6,0.8-1.6,0-2.2L11.9,15.9z"/>
<path d="M46.2,21.1l-8.5-0.1v-4.2c0-1.1-0.7-1.4-1.5-0.8l-9.3,6.8c-0.8,0.6-0.8,1.6,0,2.2l9.3,6.8 c0.8,0.6,1.5,0.2,1.5-0.8v-4.2l8.5-0.2c0.8-0.1,1.4-1.9,1.4-2.8C47.6,23,47,21.2,46.2,21.1z"/>
</g></svg>