<svg width="48px" height="48px" viewBox="0 0 48 48" version="1.1" xmlns="http://www.w3.org/2000/svg" xmlns:xlink="http://www.w3.org/1999/xlink" xml:space="preserve" xmlns:serif="http://www.serif.com/" style="fill-rule:evenodd;clip-rule:evenodd;stroke-linejoin:round;stroke-miterlimit:2;">
<g fill="#202020">
<path d="M45.811,34.812c0.42,-0.728 0.227,-1.656 -0.451,-2.161l-1.421,-1.057c0.233,-0.904 0.362,-1.842 0.387,-2.797l1.626,-0.644c0.778,-0.309 1.207,-1.155 0.993,-1.971l-0.852,-3.175c-0.112,-0.428 -0.389,-0.786 -0.771,-1.006c-0.323,-0.187 -0.705,-0.26 -1.075,-0.205l-1.67,0.245c-0.504,-0.862 -1.114,-1.664 -1.817,-2.386l0.686,-1.588c0.334,-0.775 0.036,-1.676 -0.692,-2.097l-2.855,-1.648c-0.729,-0.421 -1.657,-0.228 -2.161,0.449l-1.031,1.387c-1.001,-0.253 -2.031,-0.381 -3.066,-0.38l-0.646,-1.634c-0.137,-0.346 -0.391,-0.64 -0.713,-0.826c-0.382,-0.22 -0.828,-0.28 -1.259,-0.168l-3.183,0.853c-0.814,0.218 -1.333,1.012 -1.21,1.846l0.271,1.854c-0.81,0.503 -1.558,1.096 -2.224,1.766l-1.712,-0.744c-0.773,-0.334 -1.674,-0.036 -2.095,0.691l-1.648,2.853c-0.42,0.729 -0.228,1.659 0.451,2.163l1.59,1.184c-0.196,0.848 -0.305,1.715 -0.325,2.575l-1.861,0.737c-0.78,0.308 -1.207,1.157 -0.994,1.972l0.853,3.181c0.114,0.429 0.389,0.787 0.771,1.008c0.323,0.186 0.705,0.259 1.075,0.206l1.963,-0.289c0.467,0.779 1.015,1.504 1.636,2.166l-0.8,1.854c-0.335,0.774 -0.037,1.677 0.692,2.098l2.853,1.646c0.728,0.422 1.658,0.229 2.162,-0.449l1.156,-1.554c0.937,0.241 1.905,0.378 2.882,0.403l0.706,1.78c0.137,0.346 0.391,0.641 0.712,0.826c0.384,0.222 0.83,0.28 1.26,0.169l3.183,-0.855c0.812,-0.217 1.333,-1.011 1.209,-1.846l-0.269,-1.863c0.837,-0.497 1.605,-1.082 2.287,-1.739l1.652,0.716c0.776,0.335 1.676,0.036 2.097,-0.691l1.648,-2.855Zm-10.021,-3.796c-1.362,2.359 -4.388,3.169 -6.746,1.806c-2.358,-1.36 -3.169,-4.387 -1.808,-6.746c1.361,-2.357 4.389,-3.167 6.747,-1.806c2.358,1.361 3.169,4.388 1.807,6.746Z"/>
<path d="M35.339,13.118c-0.303,0.198 -0.577,0.452 -0.804,0.758l-0.457,0.615c-0.464,-0.083 -0.932,-0.141 -1.402,-0.175l-0.287,-0.724c-0.261,-0.66 -0.744,-1.219 -1.357,-1.573c-0.723,-0.418 -1.569,-0.533 -2.386,-0.321c-0.012,0.003 -3.194,0.856 -3.194,0.856c-1.549,0.415 -2.539,1.925 -2.306,3.513l0.134,0.919c-0.312,0.226 -0.614,0.465 -0.905,0.716l-0.815,-0.354c-1.473,-0.636 -3.189,-0.067 -3.989,1.318l-1.649,2.854c-0.799,1.387 -0.435,3.156 0.856,4.116l0.833,0.62c-0.047,0.297 -0.084,0.594 -0.113,0.892l-0.973,0.385c-1.482,0.587 -2.297,2.196 -1.893,3.745c0.002,0.01 0.855,3.192 0.855,3.192c0.216,0.813 0.74,1.496 1.468,1.917c0.615,0.354 1.34,0.494 2.041,0.393l1.017,-0.15c0.195,0.279 0.401,0.551 0.616,0.816l-0.425,0.986c-0.637,1.472 -0.068,3.19 1.318,3.99c0.001,0.001 2.855,1.648 2.855,1.648c1.383,0.801 3.155,0.437 4.114,-0.854l0.578,-0.777c0.401,0.074 0.806,0.13 1.213,0.169l0.356,0.896c0.262,0.66 0.746,1.219 1.358,1.572c0.725,0.419 1.569,0.532 2.384,0.321l0.959,-0.257l0,1.86l-34,-0l0,-36.04l8.68,-9.96l25.32,-0l0,12.118Z"/>
</g>
</svg>