<svg width="48px" height="48px" viewBox="0 0 12 12" version="1.1" xmlns="http://www.w3.org/2000/svg" xmlns:xlink="http://www.w3.org/1999/xlink" xml:space="preserve" xmlns:serif="http://www.serif.com/" style="fill-rule:evenodd;clip-rule:evenodd;stroke-linejoin:round;stroke-miterlimit:2;">
<path fill="#202020" d="M8.865,10.608c-1.244,0.796 -2.786,1.119 -4.338,0.778c-1.552,-0.34 -2.818,-1.278 -3.615,-2.521c-0.796,-1.244 -1.119,-2.786 -0.778,-4.338c0.34,-1.552 1.278,-2.818 2.521,-3.615c1.244,-0.796 2.786,-1.119 4.338,-0.778c0.072,0.015 0.141,0.039 0.213,0.057c-0.186,0.205 -0.325,0.457 -0.389,0.746c-0.131,0.601 0.089,1.188 0.514,1.569c-0.023,0.07 -0.046,0.139 -0.063,0.215c-0.29,1.331 0.553,2.647 1.883,2.94c0.076,0.016 0.149,0.025 0.222,0.033c0.168,0.545 0.609,0.99 1.21,1.123c0.29,0.063 0.576,0.042 0.84,-0.041c-0.013,0.072 -0.021,0.145 -0.037,0.217c-0.34,1.552 -1.278,2.818 -2.521,3.615Zm-2.83,-2.261c0.444,0.098 0.725,0.537 0.628,0.98c-0.097,0.444 -0.536,0.725 -0.98,0.628c-0.444,-0.097 -0.725,-0.536 -0.628,-0.98c0.098,-0.443 0.537,-0.725 0.98,-0.628Zm-2.813,-0.616c0.222,0.049 0.363,0.268 0.314,0.49c-0.049,0.222 -0.268,0.362 -0.49,0.314c-0.222,-0.049 -0.362,-0.268 -0.314,-0.49c0.049,-0.222 0.268,-0.363 0.49,-0.314Zm5.803,0.429c0.222,0.049 0.362,0.268 0.314,0.49c-0.049,0.222 -0.269,0.363 -0.49,0.314c-0.222,-0.049 -0.363,-0.268 -0.314,-0.49c0.048,-0.222 0.268,-0.362 0.49,-0.314Zm-2.863,-2.312c0.222,0.049 0.362,0.268 0.314,0.49c-0.049,0.222 -0.268,0.362 -0.49,0.314c-0.222,-0.049 -0.363,-0.268 -0.314,-0.49c0.049,-0.222 0.268,-0.363 0.49,-0.314Zm-3.441,-1.596c0.444,0.097 0.725,0.536 0.628,0.98c-0.098,0.443 -0.537,0.724 -0.98,0.627c-0.444,-0.097 -0.725,-0.536 -0.628,-0.98c0.097,-0.443 0.536,-0.725 0.98,-0.627Zm2.312,-2.863c0.444,0.097 0.725,0.536 0.628,0.98c-0.097,0.443 -0.537,0.725 -0.98,0.627c-0.444,-0.097 -0.725,-0.536 -0.628,-0.98c0.097,-0.443 0.537,-0.724 0.98,-0.627Z"/>
</svg>