<svg version="1.1" xmlns="http://www.w3.org/2000/svg" xmlns:xlink="http://www.w3.org/1999/xlink" x="0px" y="0px" width="48px" height="48px" viewBox="0 0 48 48" enable-background="new 0 0 48 48" xml:space="preserve">
<line fill="none" stroke="#202020" stroke-width="3" stroke-miterlimit="10" x1="14.366" y1="7.08" x2="46" y2="0.85"/>
<path d="M47.362,15.016v0.401c0.002,0.059,0.004,0.112,0.006,0.178C47.382,16.079,47.362,14.466,47.362,15.016z"/>
<g fill="#202020">
<path d="M0.491,36.519l-0.005,5.969c0,0.468,0.067,0.965,0.206,1.498c0.139,0.532,0.369,1.02,0.694,1.469 c0.325,0.449,0.76,0.83,1.31,1.146c0.546,0.314,1.249,0.472,2.106,0.472c0.855,0.032,1.626,0.052,2.311,0.052h3.239h27.147h1.646 c0.479,0,0.986,0.009,1.518,0.023c0.528,0.018,1.037,0.008,1.519-0.023c0.479,0,1.018-0.074,1.618-0.223 c0.597-0.148,1.163-0.413,1.692-0.797c0.536-0.386,0.981-0.887,1.342-1.498c0.359-0.612,0.541-1.399,0.541-2.364 c0-0.284-0.002-4.144-0.005-5.723H0.491L0.491,36.519z"/>
<path d="M47.362,15.417c-0.014-0.375-0.018-0.63-0.018-0.75c0-0.444-0.086-0.942-0.256-1.493 c-0.174-0.55-0.467-1.052-0.877-1.516c-0.41-0.464-0.951-0.846-1.618-1.158c-0.671-0.307-1.518-0.464-2.545-0.464h-6.84H12.69 c-0.922,0.032-1.861-2.071-2.75-2.071H5.672c-0.617,0-1.245,0.104-1.876,0.311c-0.631,0.206-1.19,0.522-1.669,0.952 c-0.477,0.431-0.875,0.977-1.182,1.645c-0.306,0.67-0.463,1.45-0.463,2.339v3.908h46.88V15.417z"/>
<path d="M47.484,24.725c-0.017-1.132-0.024-2.143-0.024-3.039v-3.039H0.486v16.23h47.026 C47.512,33.745,47.502,25.855,47.484,24.725z M3.356,22.236c-0.206,0.205-0.457,0.306-0.751,0.306c-0.273,0-0.514-0.102-0.717-0.306 c-0.205-0.204-0.308-0.461-0.308-0.773s0.105-0.57,0.308-0.775c0.206-0.205,0.444-0.305,0.717-0.305 c0.297,0,0.545,0.104,0.751,0.305c0.207,0.205,0.309,0.463,0.309,0.775S3.563,22.033,3.356,22.236z M7.623,22.787 c-0.341,0.338-0.757,0.506-1.245,0.506c-0.452,0-0.851-0.167-1.188-0.506c-0.34-0.339-0.509-0.766-0.509-1.282 c0-0.517,0.173-0.945,0.509-1.283c0.342-0.339,0.735-0.506,1.188-0.506c0.494,0,0.904,0.172,1.245,0.506 c0.342,0.338,0.511,0.766,0.511,1.283C8.134,22.021,7.965,22.447,7.623,22.787z M37.921,30.156H9.923v-2.667h27.998V30.156z"/>
</g></svg>