<?xml version="1.0" encoding="UTF-8" standalone="no"?>
<svg version="1.1" xmlns="http://www.w3.org/2000/svg" xmlns:xlink="http://www.w3.org/1999/xlink" x="0px" y="0px" width="48px" height="48px" viewBox="0 0 48 48" enable-background="new 0 0 48 48" xml:space="preserve">
<g fill="#202020">
<path d="M12.637,0.002c-1.244,0-2.246,1.001-2.246,2.246v35.938c0,1.245,1.002,2.247,2.246,2.247 h30.697c1.245,0,2.247-1.002,2.247-2.247V14.976H30.606c-1.244,0-2.246-1.001-2.246-2.246V0.002H12.637z"/>
<path d="M4.671,7.571c-1.245,0-2.246,1.002-2.246,2.246v35.938 c0,1.244,1.001,2.246,2.246,2.246h30.697c1.245,0,2.246-1.002,2.246-2.246v-2.62H10.286c-1.244,0-2.246-1.003-2.246-2.247V7.571 H4.671z"/>
<path d="M29.857,0.002v11.23c0,1.245,1.002,2.246,2.246,2.246h13.478L29.857,0.002z"/>
</g>
</svg>