<svg version="1.1" xmlns="http://www.w3.org/2000/svg" xmlns:xlink="http://www.w3.org/1999/xlink" x="0px" y="0px" width="48px" height="48px" viewBox="0 0 48 48" enable-background="new 0 0 48 48" xml:space="preserve">
<path fill="#202020" d="M2.911,38.055c-1.533,1.529-1.533,4.021,0,5.553c1.532,1.533,4.023,1.533,5.544,0l1.107-1.096l4.616,4.615 c0.79,0.791,2.055,0.791,2.845,0l6.88-6.881c0.79-0.789,0.79-2.055,0-2.844l-4.616-4.615l8.222-8.233 c1.76,0.909,3.766,1.423,5.881,1.423c7.096,0,12.848-5.752,12.848-12.849c0-7.096-5.752-12.848-12.848-12.848 c-7.097,0-12.848,5.752-12.848,12.848c0,2.116,0.514,4.121,1.422,5.881L2.911,38.055z M28.449,13.128 c0-2.728,2.214-4.942,4.941-4.942s4.941,2.214,4.941,4.942s-2.214,4.941-4.941,4.941S28.449,15.855,28.449,13.128z"/>
</svg>