<?xml version="1.0" encoding="UTF-8" standalone="no"?>
<svg width="48px" height="48px" viewBox="0 0 48 48" version="1.1" xmlns="http://www.w3.org/2000/svg" xmlns:xlink="http://www.w3.org/1999/xlink" xml:space="preserve" xmlns:serif="http://www.serif.com/" style="fill-rule:evenodd;clip-rule:evenodd;stroke-linejoin:round;stroke-miterlimit:2;">
<path d="M32.871,9.079C34.147,9.307 35.356,9.387 36.205,9.041C40.31,7.369 41.646,1.038 43.072,0.891C44.197,0.775 44.794,5.935 44.473,8.501C44.154,11.048 42.607,15.558 41.289,16.956C43.009,19.907 43.995,23.34 43.995,27C43.995,38.036 35.036,46.995 24,46.995C12.964,46.995 4.005,38.036 4.005,27C4.005,23.363 4.978,19.951 6.679,17.011C5.35,15.682 3.765,11.082 3.442,8.501C3.12,5.935 3.718,0.775 4.842,0.891C6.268,1.038 7.605,7.369 11.709,9.041C12.589,9.4 13.853,9.3 15.179,9.054C17.841,7.742 20.835,7.005 24,7.005C27.185,7.005 30.197,7.751 32.871,9.079Z" style="fill:rgb(32,32,32);"/>
</svg>
