<?xml version="1.0" encoding="UTF-8" standalone="no"?>
<svg version="1.1" xmlns="http://www.w3.org/2000/svg" xmlns:xlink="http://www.w3.org/1999/xlink" x="0px" y="0px" width="48px" height="48px" viewBox="0 0 48 48" enable-background="new 0 0 48 48" xml:space="preserve">
<g fill="#202020">
<path d="M41.938,30.15c-1.352,2.344-3.77,3.182-6.533,3.182c-2.766,0-5.184-0.838-6.532-3.182 c-3.636,2.25-6.063,6.313-6.063,10.957c0,7.074,5.64,6.342,12.595,6.342c6.96,0,12.599,0.732,12.599-6.342 C48,36.464,45.57,32.398,41.938,30.15z"/>
<ellipse cx="35.402" cy="23.458" rx="8.227" ry="8.044"/>
<path d="M42.713,0.439H5.286c-5.151,0-5.151,0-5.151,6.536c0,6.536,0,6.536,5.151,6.536h37.427 c5.152,0,5.152,0,5.152-6.536C47.865,0.439,47.865,0.439,42.713,0.439z M3.885,7.923c-0.523,0-0.948-0.424-0.948-0.948 s0.424-0.948,0.948-0.948c0.524,0,0.948,0.425,0.948,0.948S4.409,7.923,3.885,7.923z M7.078,7.923c-0.524,0-0.948-0.425-0.948-0.949 s0.424-0.948,0.948-0.948c0.522,0,0.948,0.425,0.948,0.948S7.602,7.923,7.078,7.923z"/>
<path d="M27.343,17.464H5.286c-5.151,0-5.151,0-5.151,6.536s0,6.536,5.151,6.536h20.106 c0.537-0.495,1.121-0.947,1.737-1.362c-1.222-1.596-1.955-3.57-1.955-5.716C25.175,21.188,25.989,19.104,27.343,17.464z M3.885,24.948c-0.523,0-0.948-0.425-0.948-0.948s0.424-0.948,0.948-0.948c0.524,0,0.948,0.425,0.948,0.948 S4.409,24.948,3.885,24.948z M7.078,24.949c-0.524,0-0.948-0.426-0.948-0.949c0-0.523,0.424-0.948,0.948-0.948 c0.522,0,0.948,0.425,0.948,0.948C8.026,24.523,7.602,24.949,7.078,24.949z"/>
<path d="M20.806,41.107c0-2.359,0.563-4.614,1.59-6.618H5.286c-5.151,0-5.151,0-5.151,6.536 c0,6.535,0,6.535,5.151,6.535h18.469C22.027,46.471,20.806,44.537,20.806,41.107z M3.885,41.973c-0.523,0-0.948-0.424-0.948-0.947 s0.424-0.948,0.948-0.948c0.524,0,0.948,0.425,0.948,0.948S4.409,41.973,3.885,41.973z M7.078,41.975 c-0.524,0-0.948-0.426-0.948-0.949c0-0.521,0.424-0.945,0.948-0.945c0.522,0,0.948,0.424,0.948,0.945 C8.026,41.549,7.602,41.975,7.078,41.975z"/>
</g></svg>