<?xml version="1.0" encoding="UTF-8" standalone="no"?>
<svg version="1.1" xmlns="http://www.w3.org/2000/svg" xmlns:xlink="http://www.w3.org/1999/xlink" x="0px" y="0px" width="48px" height="48px" viewBox="0 0 48 48" enable-background="new 0 0 48 48" xml:space="preserve">
<g fill="#202020">
<path d="M16.198,30.652c3.513,4.154,9.146,5.443,13.961,3.639c1.073-0.402,2.472-0.178,3.213,0.695l0.522,0.621 c0.739,0.875,1.459,1.481,0.955,1.91c-0.504,0.424-0.313,1.479,0.428,2.354l6.248,7.393c0.74,0.875,2.05,0.985,2.926,0.245 l2.814-2.383c0.873-0.737,0.983-2.048,0.245-2.923l-6.251-7.391c-0.74-0.875-1.749-1.239-2.253-0.813 c-0.503,0.426-0.985-0.385-1.723-1.26l-0.524-0.619c-0.738-0.874-0.73-2.291-0.154-3.282c2.582-4.45,2.246-10.218-1.268-14.373 c-4.47-5.286-12.377-5.947-17.664-1.477C12.387,17.459,11.729,25.369,16.198,30.652z M31.725,29.602 c-3.891,3.287-9.707,2.801-12.995-1.086c-3.288-3.889-2.802-9.705,1.087-12.993c3.888-3.288,9.705-2.801,12.992,1.086 C36.096,20.497,35.607,26.313,31.725,29.602z"/>
<path d="M47.865,41.073c0-0.017,0-0.03,0-0.048c0-6.536,0-6.536-5.152-6.536h-0.417L47.865,41.073z"/>
<path d="M32.203,17.464H19.32c-0.998,1.256-1.605,2.778-1.742,4.414c-0.183,2.188,0.497,4.315,1.915,5.993 c1.132,1.339,2.646,2.257,4.315,2.666h3.928c1.221-0.303,2.367-0.876,3.342-1.699C34.469,25.967,34.943,20.921,32.203,17.464z"/>
<path d="M37.471,29.343c-0.207,0.356-0.291,0.789-0.27,1.193h5.512c5.152,0,5.152,0,5.152-6.536s0-6.536-5.152-6.536 h-4.415C39.838,21.269,39.604,25.668,37.471,29.343z"/>
<path d="M42.713,0.439H5.285c-5.151,0-5.151,0-5.151,6.536c0,6.536,0,6.536,5.151,6.536h10.438 c0.408-0.45,0.836-0.885,1.307-1.283c2.44-2.063,5.542-3.2,8.734-3.2c3.85,0,7.479,1.636,10.045,4.483h6.904 c5.152,0,5.152,0,5.152-6.536C47.865,0.439,47.865,0.439,42.713,0.439z M3.885,7.923c-0.523,0-0.948-0.424-0.948-0.948 s0.424-0.948,0.948-0.948c0.524,0,0.948,0.425,0.948,0.948S4.409,7.923,3.885,7.923z M7.077,7.923c-0.524,0-0.948-0.425-0.948-0.949 s0.424-0.948,0.948-0.948c0.523,0,0.948,0.425,0.948,0.948S7.601,7.923,7.077,7.923z"/>
<path d="M12.282,21.434c0.116-1.384,0.44-2.718,0.947-3.97H5.285c-5.151,0-5.151,0-5.151,6.536s0,6.536,5.151,6.536 h9.566C12.924,27.907,12.008,24.714,12.282,21.434z M3.885,24.948c-0.523,0-0.948-0.425-0.948-0.948s0.424-0.948,0.948-0.948 c0.524,0,0.948,0.425,0.948,0.948S4.409,24.948,3.885,24.948z M7.077,24.949c-0.524,0-0.948-0.426-0.948-0.949 c0-0.523,0.424-0.948,0.948-0.948c0.523,0,0.948,0.425,0.948,0.948C8.025,24.523,7.601,24.949,7.077,24.949z"/>
<path d="M34.514,40.518c-0.652-0.771-1.003-1.703-0.937-2.49c0.028-0.344,0.133-0.65,0.304-0.909 c-0.107-0.134-0.248-0.291-0.363-0.421c-0.123-0.141-0.254-0.287-0.386-0.442l-0.524-0.622c-0.412-0.486-1.383-0.673-2.098-0.404 c-1.521,0.57-3.117,0.859-4.748,0.859c-0.001,0-0.001,0-0.001,0c-2.246-0.001-4.412-0.57-6.342-1.598H5.285 c-5.151,0-5.151,0-5.151,6.535s0,6.535,5.151,6.535h35.183L34.514,40.518z M3.885,41.973c-0.523,0-0.948-0.424-0.948-0.947 s0.424-0.948,0.948-0.948c0.524,0,0.948,0.425,0.948,0.948S4.409,41.973,3.885,41.973z M7.077,41.975 c-0.524,0-0.948-0.426-0.948-0.949c0-0.521,0.424-0.945,0.948-0.945c0.523,0,0.948,0.424,0.948,0.945 C8.025,41.549,7.601,41.975,7.077,41.975z"/>
</g></svg>