<?xml version="1.0" encoding="UTF-8" standalone="no"?>
<svg version="1.1" xmlns="http://www.w3.org/2000/svg" xmlns:xlink="http://www.w3.org/1999/xlink" x="0px" y="0px" width="48px" height="48px" viewBox="0 0 48 48" enable-background="new 0 0 48 48" xml:space="preserve">
<g fill="#202020">
<path d="M42.713,0.439H5.285c-5.151,0-5.151,0-5.151,6.536c0,6.536,0,6.536,5.151,6.536h37.428 c5.152,0,5.152,0,5.152-6.536C47.865,0.439,47.865,0.439,42.713,0.439z M3.885,7.923c-0.523,0-0.948-0.424-0.948-0.948 s0.424-0.948,0.948-0.948c0.524,0,0.948,0.425,0.948,0.948S4.409,7.923,3.885,7.923z M7.077,7.923c-0.524,0-0.948-0.425-0.948-0.949 s0.424-0.948,0.948-0.948c0.523,0,0.948,0.425,0.948,0.948S7.601,7.923,7.077,7.923z"/>
<path d="M42.713,17.464H5.285c-5.151,0-5.151,0-5.151,6.536s0,6.536,5.151,6.536h37.428c5.152,0,5.152,0,5.152-6.536 S47.865,17.464,42.713,17.464z M3.885,24.948c-0.523,0-0.948-0.425-0.948-0.948s0.424-0.948,0.948-0.948 c0.524,0,0.948,0.425,0.948,0.948S4.409,24.948,3.885,24.948z M7.077,24.949c-0.524,0-0.948-0.426-0.948-0.949 c0-0.523,0.424-0.948,0.948-0.948c0.523,0,0.948,0.425,0.948,0.948C8.025,24.523,7.601,24.949,7.077,24.949z"/>
<path d="M42.713,34.489H5.285c-5.151,0-5.151,0-5.151,6.536c0,6.535,0,6.535,5.151,6.535h37.428 c5.152,0,5.152,0,5.152-6.535C47.865,34.489,47.865,34.489,42.713,34.489z M3.885,41.973c-0.523,0-0.948-0.424-0.948-0.947 s0.424-0.948,0.948-0.948c0.524,0,0.948,0.425,0.948,0.948S4.409,41.973,3.885,41.973z M7.077,41.975 c-0.524,0-0.948-0.426-0.948-0.949c0-0.522,0.424-0.946,0.948-0.946c0.523,0,0.948,0.424,0.948,0.946 C8.025,41.549,7.601,41.975,7.077,41.975z"/>
</g></svg>