<?xml version="1.0" encoding="UTF-8" standalone="no"?>
<svg width="48px" height="48px" viewBox="0 0 48 48" version="1.1" xmlns="http://www.w3.org/2000/svg" xmlns:xlink="http://www.w3.org/1999/xlink" xml:space="preserve" xmlns:serif="http://www.serif.com/">
<g fill="#202020">
<rect x="0" y="0" width="18.926" height="38.464"/>
<path d="M0,40l0,8l48,0l0,-8l-48,0Zm7,6c0,0.6 -0.4,1 -1,1l-4,0c-0.6,0 -1,-0.4 -1,-1l0,-4c0,-0.5 0.4,-1 1,-1l4,0c0.6,0 1,0.4 1,1l0,4Zm8,0c0,0.6 -0.4,1 -1,1l-4,0c-0.6,0 -1,-0.4 -1,-1l0,-4c0,-0.5 0.4,-1 1,-1l4,0c0.6,0 1,0.4 1,1l0,4Zm8,0c0,0.6 -0.4,1 -1,1l-4,0c-0.6,0 -1,-0.4 -1,-1l0,-4c0,-0.5 0.4,-1 1,-1l4,0c0.6,0 1,0.4 1,1l0,4Z"/>
<path d="M29.5,10.3c0,0.6 -0.5,1.2 -1.2,1.2l-4.7,0c-0.6,0 -1.2,-0.5 -1.2,-1.2l0,-4.6c0,-0.6 0.5,-1.2 1.2,-1.2l4.7,0c0.6,0 1.2,0.5 1.2,1.2l0,4.6Z"/>
<path d="M37.5,10.3c0,0.6 -0.5,1.2 -1.2,1.2l-4.7,0c-0.6,0 -1.2,-0.5 -1.2,-1.2l0,-4.6c0,-0.6 0.5,-1.2 1.2,-1.2l4.7,0c0.6,0 1.2,0.5 1.2,1.2l0,4.6Z"/>
<path d="M45.5,10.3c0,0.6 -0.5,1.2 -1.2,1.2l-4.7,0c-0.6,0 -1.2,-0.5 -1.2,-1.2l0,-4.6c0,-0.6 0.5,-1.2 1.2,-1.2l4.7,0c0.6,0 1.2,0.5 1.2,1.2l0,4.6Z"/>
<path d="M29.5,20.3c0,0.6 -0.5,1.2 -1.2,1.2l-4.7,0c-0.6,0 -1.2,-0.5 -1.2,-1.2l0,-4.7c0,-0.6 0.5,-1.2 1.2,-1.2l4.7,0c0.6,0 1.2,0.5 1.2,1.2l0,4.7Z"/>
<path d="M37.5,20.3c0,0.6 -0.5,1.2 -1.2,1.2l-4.7,0c-0.6,0 -1.2,-0.5 -1.2,-1.2l0,-4.7c0,-0.6 0.5,-1.2 1.2,-1.2l4.7,0c0.6,0 1.2,0.5 1.2,1.2l0,4.7Z"/>
<path d="M45.5,20.3c0,0.6 -0.5,1.2 -1.2,1.2l-4.7,0c-0.6,0 -1.2,-0.5 -1.2,-1.2l0,-4.7c0,-0.6 0.5,-1.2 1.2,-1.2l4.7,0c0.6,0 1.2,0.5 1.2,1.2l0,4.7Z"/>
<path d="M29.5,30.3c0,0.6 -0.5,1.2 -1.2,1.2l-4.7,0c-0.6,0 -1.2,-0.5 -1.2,-1.2l0,-4.7c0,-0.6 0.5,-1.2 1.2,-1.2l4.7,0c0.6,0 1.2,0.5 1.2,1.2l0,4.7Z"/>
<path d="M37.5,30.3c0,0.6 -0.5,1.2 -1.2,1.2l-4.7,0c-0.6,0 -1.2,-0.5 -1.2,-1.2l0,-4.7c0,-0.6 0.5,-1.2 1.2,-1.2l4.7,0c0.6,0 1.2,0.5 1.2,1.2l0,4.7Z"/>
</g></svg>