<svg version="1.1" xmlns="http://www.w3.org/2000/svg" xmlns:xlink="http://www.w3.org/1999/xlink" x="0px" y="0px" width="48px" height="48px" viewBox="0 0 48 48" enable-background="new 0 0 48 48" xml:space="preserve">
<g fill="#202020">
<path d="M8,12c0,0.41-0.27,0.75-0.61,0.75H4.61C4.27,12.75,4,12.41,4,12l0,0c0-0.41,0.27-0.75,0.61-0.75h2.77 C7.73,11.25,8,11.59,8,12L8,12z"/>
<path d="M8,20c0,0.41-0.27,0.75-0.61,0.75H4.61C4.27,20.75,4,20.41,4,20l0,0c0-0.41,0.27-0.75,0.61-0.75h2.77 C7.73,19.25,8,19.59,8,20L8,20z"/>
<path d="M8,28c0,0.41-0.27,0.75-0.61,0.75H4.61C4.27,28.75,4,28.41,4,28l0,0c0-0.41,0.27-0.75,0.61-0.75h2.77 C7.73,27.25,8,27.59,8,28L8,28z"/>
<path d="M8,36c0,0.41-0.27,0.75-0.61,0.75H4.61C4.27,36.75,4,36.41,4,36l0,0c0-0.41,0.27-0.75,0.61-0.75h2.77 C7.73,35.25,8,35.59,8,36L8,36z"/>
<path d="M8,44c0,0.41-0.27,0.75-0.61,0.75H4.61C4.27,44.75,4,44.41,4,44l0,0c0-0.41,0.27-0.75,0.61-0.75h2.77 C7.73,43.25,8,43.59,8,44L8,44z"/>
<path d="M8,4c0-0.41-0.27-0.75-0.61-0.75H4.61C4.27,3.25,4,3.59,4,4s0.27,0.75,0.61,0.75h2.77C7.73,4.75,8,4.41,8,4 z"/>
<path d="M45.46,13.75h-2.38c-0.051,0-0.08,0.02-0.13,0.02v9.95c0.04,0,0.079,0.02,0.13,0.02h2.38 c0.59,0,1.069-0.43,1.069-0.96V14.7C46.529,14.18,46.05,13.75,45.46,13.75z"/>
<path d="M45.46,24.75h-2.38c-0.051,0-0.08,0.02-0.13,0.02v9.951c0.04,0,0.079,0.02,0.13,0.02h2.38 c0.59,0,1.069-0.43,1.069-0.961V25.7C46.529,25.18,46.05,24.75,45.46,24.75z"/>
<path d="M45.46,35.75h-2.38c-0.051,0-0.08,0.02-0.13,0.02v9.951c0.04,0,0.079,0.02,0.13,0.02h2.38 c0.59,0,1.069-0.43,1.069-0.961V36.7C46.529,36.18,46.05,35.75,45.46,35.75z"/>
<path d="M45.46,2.75H42V1.03C42,0.46,41.55,0,41,0H7.01C6.45,0,6,0.46,6,1.03V2.5h1.39c0.75,0,1.36,0.67,1.36,1.5 S8.14,5.5,7.39,5.5H6v5h1.39c0.75,0,1.36,0.67,1.36,1.5s-0.61,1.5-1.36,1.5H6v1v4h1.39c0.75,0,1.36,0.67,1.36,1.5 s-0.61,1.5-1.36,1.5H6v5h1.39c0.75,0,1.36,0.67,1.36,1.5s-0.61,1.5-1.36,1.5H6v5h1.39c0.75,0,1.36,0.67,1.36,1.5 s-0.61,1.5-1.36,1.5H6v5h1.39c0.75,0,1.36,0.67,1.36,1.5s-0.61,1.5-1.36,1.5H6v1.471C6,47.54,6.45,48,7.01,48H41 c0.561,0,1-0.46,1-1.029V12.75h3.46c0.59,0,1.069-0.43,1.069-0.96V3.71C46.529,3.18,46.05,2.75,45.46,2.75z"/>
</g></svg>