<svg version="1.1" xmlns="http://www.w3.org/2000/svg" xmlns:xlink="http://www.w3.org/1999/xlink" x="0px" y="0px" width="48px" height="48px" viewBox="0 0 48 48" enable-background="new 0 0 48 48" xml:space="preserve">
<g fill="#202020">
<path d="M41.344,0.875H6.656c-1.586,0-2.891,1.302-2.891,2.891v40.469 c0,1.589,1.304,2.891,2.891,2.891h34.688c1.592,0,2.891-1.302,2.891-2.891V3.766C44.234,2.177,42.936,0.875,41.344,0.875z M8.102,3.766c0.796,0,1.445,0.649,1.445,1.445S8.897,6.656,8.102,6.656S6.656,6.007,6.656,5.211S7.306,3.766,8.102,3.766z M24,35.563l-0.458-0.048c-2.823,5.302-3.805,6.284-4.189,6.668c-1.569,1.572-3.687,2.473-5.798,2.473 c-1.885,0-3.63-0.706-4.912-1.984c-1.282-1.282-1.987-3.026-1.987-4.912c0-2.111,0.903-4.229,2.473-5.792 c0.57-0.567,1.683-1.347,3.28-2.299c-1.778-2.401-2.862-5.343-2.862-8.559c0-7.983,6.47-14.453,14.453-14.453 c7.983,0,14.453,6.47,14.453,14.453C38.453,29.093,31.983,35.563,24,35.563z M41.344,42.789c0,0.797-0.649,1.445-1.445,1.445 c-0.797,0-1.445-0.648-1.445-1.445v-2.891c0-0.796,0.648-1.445,1.445-1.445c0.796,0,1.445,0.649,1.445,1.445V42.789z M39.898,6.656 c-0.797,0-1.445-0.649-1.445-1.445s0.648-1.445,1.445-1.445c0.796,0,1.445,0.649,1.445,1.445S40.694,6.656,39.898,6.656z"/>
<circle cx="24" cy="21.109" r="2.891"/>
<path d="M21.471,29.066c-4.393,2.208-8.666,4.54-9.683,5.556c-0.875,0.87-1.372,2.017-1.372,3.14 c0,0.88,0.311,1.677,0.886,2.25c0.57,0.572,1.372,0.887,2.252,0.887c1.124,0,2.27-0.5,3.139-1.376 c0.875-0.869,2.902-4.415,5.55-9.676l-0.107-0.672L21.471,29.066z"/>
</g></svg>