<svg version="1.1" xmlns="http://www.w3.org/2000/svg" xmlns:xlink="http://www.w3.org/1999/xlink" x="0px" y="0px" width="48px" height="48px" viewBox="0 0 48 48" enable-background="new 0 0 48 48" xml:space="preserve">
<g fill="#202020">
<path d="M24,1c-3.711,0-7.214,0.884-10.317,2.445c0.947,0.389,1.661,1.227,1.871,2.251l5.231-0.224 c0.177-0.41,0.583-0.697,1.057-0.697c0.636,0,1.152,0.516,1.152,1.152c0,0.636-0.517,1.152-1.152,1.152 c-0.436,0-0.802-0.251-0.998-0.609l-5.263,0.226c-0.07,0.585-0.297,1.117-0.646,1.557l6.999,9.06 c0.976-0.588,2.115-0.933,3.337-0.933c1.731,0,3.301,0.683,4.463,1.79l6.437-5.357c-0.063-0.199-0.108-0.406-0.108-0.626 c0-1.123,0.91-2.034,2.033-2.034c1.125,0,2.034,0.911,2.034,2.034c0,0.514-0.196,0.977-0.511,1.335l2.109,3.073 c0.056-0.008,0.104-0.033,0.162-0.033c0.637,0,1.152,0.516,1.152,1.152c0,0.636-0.518,1.152-1.152,1.152s-1.152-0.516-1.152-1.152 c0-0.206,0.068-0.389,0.164-0.557l-2.106-3.068c-0.22,0.081-0.453,0.131-0.7,0.131c-0.352,0-0.677-0.097-0.966-0.254l-6.435,5.356 c0.666,1.018,1.057,2.232,1.057,3.54c0,1.198-0.33,2.316-0.896,3.279l4.297,3.246c0.061-0.01,0.115-0.035,0.179-0.035 c0.614,0,1.112,0.498,1.112,1.11c0,0.614-0.498,1.112-1.112,1.112c-0.571,0-1.024-0.438-1.087-0.993l-4.292-3.243 c-0.644,0.671-1.431,1.199-2.31,1.547l2.673,10.739c1.006,0.063,1.897,0.52,2.524,1.229l2.48-1.646 c-0.006-0.049-0.028-0.093-0.028-0.146c0-0.637,0.517-1.151,1.151-1.151c0.636,0,1.152,0.516,1.152,1.151 c0,0.637-0.517,1.152-1.152,1.152c-0.211,0-0.399-0.072-0.57-0.173l-2.479,1.646c0.233,0.482,0.377,1.019,0.377,1.592 c0,0.639-0.179,1.229-0.465,1.755C41.37,41.459,47,33.389,47,24C47,11.298,36.702,1,24,1z"/>
<path d="M26.441,43.584l-4.76-0.253c-0.197,0.353-0.56,0.599-0.991,0.599c-0.636,0-1.152-0.516-1.152-1.152 c0-0.635,0.516-1.151,1.152-1.151c0.479,0,0.889,0.293,1.063,0.709l4.729,0.252c0.105-0.562,0.347-1.069,0.677-1.509l-3.272-3.243 c-0.119,0.042-0.242,0.076-0.375,0.076c-0.636,0-1.152-0.517-1.152-1.152s0.516-1.151,1.152-1.151c0.636,0,1.152,0.516,1.152,1.151 c0,0.13-0.034,0.248-0.074,0.364l3.273,3.245c0.156-0.12,0.322-0.228,0.496-0.322l-2.67-10.725 c-0.139,0.009-0.276,0.021-0.418,0.021c-2.797,0-5.174-1.776-6.083-4.262l-7.324,1.743c-0.193,0.363-0.564,0.621-1.006,0.621 c-0.636,0-1.152-0.516-1.152-1.152c0-0.636,0.516-1.152,1.152-1.152c0.247,0,0.463,0.096,0.65,0.228l7.33-1.745 c-0.029-0.25-0.048-0.503-0.048-0.761c0-1.816,0.75-3.456,1.954-4.632l-6.99-9.049C13.37,9.349,12.947,9.446,12.5,9.446 c-1.722,0-3.118-1.396-3.118-3.118c0-0.032,0.008-0.061,0.009-0.093C4.268,10.454,1,16.845,1,24c0,12.703,10.298,23,23,23 c1.527,0,3.02-0.152,4.463-0.438C27.339,46.004,26.551,44.896,26.441,43.584z"/>
</g></svg>