<?xml version="1.0" encoding="UTF-8" standalone="no"?>
<svg version="1.1" xmlns="http://www.w3.org/2000/svg" xmlns:xlink="http://www.w3.org/1999/xlink" x="0px" y="0px" width="48px" height="48px" viewBox="0 0 48 48" enable-background="new 0 0 48 48" xml:space="preserve">
<g fill="#202020">
<path d="M39.688,29.164v10.258H8.313V29.164h-6.03v13.273c0,1.664,1.348,3.014,3.02,3.014h37.396 c1.671,0,3.021-1.349,3.021-3.014V29.164H39.688z"/>
<path d="M23.448,31.147l-8.634-10.432c0,0-1.313-1.241,0.111-1.241c1.424,0,4.865,0,4.865,0s0-0.834,0-2.121 c0-3.668,0-10.344,0-13.065c0,0-0.193-0.74,0.921-0.74c1.124,0,6.044,0,6.848,0s0.785,0.623,0.785,0.623c0,2.639,0,9.546,0,13.094 c0,1.15,0,1.896,0,1.896s2.759,0,4.49,0c1.729,0,0.427,1.298,0.427,1.298s-7.346,9.75-8.369,10.774 C24.155,31.976,23.448,31.147,23.448,31.147z"/>
</g></svg>