<svg version="1.1" xmlns="http://www.w3.org/2000/svg" xmlns:xlink="http://www.w3.org/1999/xlink" x="0px" y="0px" width="48px" height="48px" viewBox="0 0 48 48" enable-background="new 0 0 48 48" xml:space="preserve">
<g fill="#202020">
<path d="M4.411,7.236C3.703,7.424,2.452,8.089,2.519,8.233c0.022,0.055,4.904,4.771,10.848,10.483l10.805,10.373 l1.052-1.041c0.575-0.563,5.391-5.236,10.683-10.372c5.303-5.137,9.631-9.388,9.631-9.443c0-0.056-0.299-0.266-0.665-0.465 C43.5,7.015,44.884,7.06,23.95,7.07C7.633,7.07,4.932,7.093,4.411,7.236z"/>
<path d="M0.039,12.605c-0.034,0.455-0.056,5.923-0.034,12.166c0.044,11.358,0.056,11.945,0.41,12.322 C0.503,37.182,13.3,24.572,13.245,24.44c-0.021-0.044-2.723-2.657-6.011-5.812c-3.288-3.155-6.233-5.978-6.554-6.288l-0.564-0.542 L0.039,12.605z"/>
<path d="M43.213,16.425c-2.558,2.479-5.491,5.325-6.51,6.321l-1.859,1.827l2.081,2.17 c3.809,3.963,9.011,9.188,9.786,9.829c0.442,0.355,0.808,0.587,0.863,0.532c0.365-0.398,0.387-1.008,0.421-12.498 c0.021-6.277,0-11.69-0.044-12.044l-0.089-0.642L43.213,16.425z"/>
<path d="M9.781,33.871l-6.499,6.442l0.431,0.188c1.019,0.432,1.074,0.432,20.292,0.432 c19.207,0,19.274,0,20.28-0.432l0.433-0.177l-0.588-0.442c-0.741-0.555-6.21-6.012-9.607-9.576 c-1.417-1.495-2.613-2.724-2.669-2.746c-0.044-0.021-1.516,1.351-3.254,3.045c-1.805,1.761-3.344,3.155-3.575,3.266 c-0.521,0.244-1.185,0.244-1.705,0c-0.232-0.1-1.849-1.571-3.642-3.287c-1.771-1.705-3.266-3.111-3.311-3.134 C16.323,27.429,13.356,30.317,9.781,33.871z"/>
</g></svg>