<svg version="1.1" xmlns="http://www.w3.org/2000/svg" xmlns:xlink="http://www.w3.org/1999/xlink" x="0px" y="0px" width="48px" height="48px" viewBox="0 0 48 48" enable-background="new 0 0 48 48" xml:space="preserve">
<g fill="#202020">
<path d="M4.26,22.82c0.88,2.06,1.73,4.11,2.78,6.08c0.36,0.67,1.06,2.05,1.9,2.14c0.85,0.09,1.66-1.48,2-2.1 c0.99-1.77,1.77-3.68,2.57-5.54c0.5-1.17,1-2.33,1.5-3.5c0.36-0.85,0.85-1.92,1.43-2.64c0.66-0.83,1.28-1.78,2.32-2.17 c1.07-0.48,2.26,0.08,3.03,0.83c1.61,1.46,2.4,3.87,3.28,5.78c0.85,1.84,1.55,3.75,2.43,5.57c0.45,0.93,0.93,1.9,1.57,2.71 c0.78,0.98,1.34,1.39,2.28,0.3c1.28-1.47,1.95-3.53,2.76-5.27c0.78-1.68,1.48-3.4,2.22-5.11c0.64-1.48,1.59-3.28,2.87-4.31 C41.03,14,42.83,15.54,44,17c0-2.46,0-4.93,0-7.39c0-0.91,0.1-1.91-0.04-2.81C43.69,5.15,42.23,4,40.59,4c-4.34,0-8.68,0-13.01,0 C21.7,4,15.83,4,9.95,4C8.58,4,6.79,3.75,5.58,4.5C3.43,5.84,4,8.99,4,11.14c0,2.55,0,5.1,0,7.65C4,20.07,3.71,21.63,4.26,22.82z"/>
<path d="M43.82,22.21l-1.21-2.25l-0.85-1.07l-0.59-0.42l-0.24-0.02l-0.25,0.09l-0.44,0.35l-0.86,1.08l-0.57,1.02 l-1.93,4.16l-1.92,4.46l-1.34,2.51c-0.02,0.03-0.04,0.07-0.07,0.1l-1.03,1.28c-0.02,0.03-0.05,0.05-0.07,0.07l-0.35,0.31 c-0.04,0.03-0.08,0.06-0.12,0.09l-0.31,0.21c-0.05,0.03-0.1,0.06-0.15,0.08l-0.31,0.14c-0.06,0.03-0.13,0.05-0.19,0.06l-0.31,0.07 c-0.07,0.02-0.14,0.02-0.22,0.02h-0.35c-0.07,0-0.15-0.01-0.22-0.02l-0.31-0.07c-0.07-0.01-0.13-0.04-0.19-0.06l-0.31-0.14 c-0.05-0.02-0.1-0.05-0.15-0.08l-0.31-0.21c-0.04-0.03-0.08-0.06-0.11-0.09l-0.35-0.31c-0.03-0.02-0.05-0.05-0.07-0.07l-0.31-0.35 l-0.71-0.93c-0.02-0.03-0.04-0.06-0.06-0.09l-0.65-1.16l-1.98-4.27l-0.33-0.8c0,0,0,0,0,0l-1.59-3.66l-1.2-2.25l-0.85-1.07 l-0.59-0.42l-0.24-0.02l-0.25,0.09l-0.44,0.35l-0.86,1.08l-0.57,1.02l-1.93,4.16l-1.92,4.46l-1.34,2.51 c-0.02,0.03-0.04,0.07-0.07,0.1l-1.03,1.28c-0.02,0.03-0.05,0.05-0.08,0.07l-0.35,0.31c-0.04,0.03-0.07,0.06-0.11,0.09l-0.31,0.21 c-0.05,0.03-0.1,0.06-0.15,0.08L9.9,34.4c-0.06,0.03-0.12,0.05-0.19,0.06l-0.31,0.07c-0.07,0.02-0.15,0.02-0.22,0.02H8.83 c-0.07,0-0.15-0.01-0.22-0.02l-0.31-0.07c-0.06-0.01-0.13-0.04-0.19-0.06l-0.31-0.14c-0.05-0.02-0.1-0.05-0.15-0.08l-0.31-0.21 c-0.04-0.03-0.08-0.06-0.11-0.09l-0.35-0.31c-0.03-0.02-0.05-0.05-0.07-0.07l-0.31-0.35l-0.71-0.93c-0.02-0.03-0.05-0.06-0.06-0.09 l-0.65-1.16L4,28.69v11.98C4,42.51,5.49,44,7.33,44h33.33c1.84,0,3.34-1.49,3.34-3.34V22.64L43.82,22.21z"/>
</g>
</svg>