<?xml version="1.0" encoding="UTF-8" standalone="no"?>
<svg width="100%" height="100%" viewBox="0 0 12 12" version="1.1" xmlns="http://www.w3.org/2000/svg" xmlns:xlink="http://www.w3.org/1999/xlink" xml:space="preserve" xmlns:serif="http://www.serif.com/">
<g fill="#202020">
<path d="M8.36,0.758c0.176,0.007 0.303,0.045 0.433,0.25l2.599,4.502c0.082,0.157 0.112,0.286 0,0.5l-2.6,4.503c-0.136,0.213 -0.231,0.241 -0.433,0.25l-5.199,-0.001c-0.176,-0.007 -0.303,-0.045 -0.433,-0.25l-2.599,-4.502c-0.117,-0.225 -0.093,-0.321 0,-0.5l2.6,-4.503c0.094,-0.148 0.191,-0.239 0.433,-0.25c1.733,0 3.466,0 5.199,0.001Zm-7.222,5.002l2.311,4.002l4.622,0.001l2.311,-4.003l-2.311,-4.002l-4.622,-0.001c-0.77,1.334 -1.54,2.669 -2.311,4.003Z"/>
<path d="M7.5,3.187c0.123,0.011 0.236,0.061 0.326,0.146l0.359,0.359c0.063,0.067 0.075,0.09 0.097,0.137c0.091,0.188 0.075,0.389 -0.096,0.57l-1.359,1.361l1.378,1.38c0.059,0.07 0.07,0.095 0.09,0.142c0.076,0.184 0.056,0.371 -0.109,0.545l-0.36,0.36c-0.066,0.062 -0.09,0.074 -0.136,0.097c-0.189,0.09 -0.39,0.074 -0.571,-0.097l-1.359,-1.36l-1.379,1.379c-0.07,0.059 -0.094,0.07 -0.142,0.089c-0.184,0.077 -0.37,0.057 -0.545,-0.108l-0.359,-0.359c-0.063,-0.067 -0.075,-0.09 -0.097,-0.137c-0.091,-0.188 -0.075,-0.389 0.096,-0.57l1.359,-1.361l-1.378,-1.38c-0.059,-0.07 -0.07,-0.095 -0.09,-0.142c-0.076,-0.184 -0.056,-0.371 0.109,-0.545l0.36,-0.36c0.066,-0.062 0.09,-0.074 0.136,-0.097c0.189,-0.09 0.39,-0.074 0.571,0.097l1.359,1.36l1.379,-1.379c0.101,-0.086 0.162,-0.132 0.361,-0.127Z"/>
</g></svg>