<?xml version="1.0" encoding="UTF-8" standalone="no"?>
<svg version="1.1" xmlns="http://www.w3.org/2000/svg" xmlns:xlink="http://www.w3.org/1999/xlink" x="0px" y="0px" width="48px" height="48px" viewBox="0 0 48 48" enable-background="new 0 0 48 48" xml:space="preserve">
<g fill="#202020">
<path d="M39.881,32.486c-0.063-0.148-0.156-0.283-0.275-0.389l-3.349-2.996l1.759-7.432 c4.894,0,6.512-4.026,6.564-4.166c0.209-0.557-0.073-1.179-0.631-1.388l-3.626-1.357c-0.302-1.166-1.207-2.083-2.354-2.408 l-0.24-2.139c-0.049-0.426-0.345-0.783-0.754-0.91c-0.41-0.127-0.854,0.001-1.136,0.326l-0.655,0.761L34.668,8.74 c-0.141-0.445-0.551-0.751-1.018-0.755c-0.006,0-0.008,0-0.012,0c-0.464,0-0.875,0.296-1.022,0.736l-3.97,11.886l-15.301,1.475 c-2.351,0.257-4.697-0.636-6.275-2.389c-0.398-0.442-1.08-0.479-1.522-0.079c-0.442,0.398-0.479,1.08-0.08,1.521 c1.585,1.761,3.768,2.85,6.082,3.095c-1.083,0.848-2.098,2.124-2.845,4.038l-3.833,0.222c-0.297,0.019-0.574,0.157-0.765,0.387 L0.4,33.316c-0.188,0.227-0.276,0.52-0.243,0.812c0.033,0.293,0.185,0.56,0.418,0.738l0.794,0.604 c0.195,0.148,0.425,0.221,0.652,0.221c0.304,0,0.604-0.127,0.817-0.373l2.871-3.323l4.761,1.016l-2.23,2.074 c-0.232,0.217-0.357,0.522-0.343,0.839l0.28,5.969c0.024,0.521,0.419,0.953,0.938,1.019l1.396,0.183 c0.047,0.008,0.093,0.01,0.139,0.01c0.261,0,0.515-0.095,0.714-0.27c0.232-0.204,0.366-0.503,0.365-0.813l-0.019-4.314l7.307-3.698 c0.032-0.016,0.063-0.032,0.094-0.053c1.125-0.72,1.855-1.618,2.326-2.549c2.784,0.604,6.629,1.385,9.651,1.797l-0.57,3.534 l-4.707,3.943c-0.455,0.381-0.516,1.055-0.139,1.514l0.561,0.68c0.211,0.256,0.52,0.393,0.832,0.393 c0.182,0,0.363-0.047,0.529-0.143l5.756-3.247c0.264-0.149,0.451-0.399,0.521-0.692l1.225-5.177l1.866,1.454l2.916,5.369 c0.188,0.35,0.554,0.564,0.948,0.564h1.146c0.36,0,0.694-0.181,0.897-0.48c0.2-0.3,0.235-0.68,0.096-1.012L39.881,32.486z"/>
<path d="M44.907,4.734c0.004,0.044,0.004,0.088,0.004,0.133c0,0.472-0.181,0.917-0.515,1.251L43.861,6.65 c-0.275,0.277-0.427,0.644-0.427,1.035s0.151,0.759,0.427,1.035c0.276,0.277,0.646,0.428,1.036,0.428 c0.392,0,0.76-0.151,1.036-0.428l0.53-0.532C46.8,7.854,47.243,7.67,47.718,7.67c0.043,0,0.089,0.001,0.132,0.004 c-0.015-0.748-0.305-1.494-0.875-2.064C46.401,5.039,45.655,4.748,44.907,4.734z"/>
<path d="M46.682,8.405l-0.53,0.532c-0.338,0.334-0.781,0.519-1.254,0.519c-0.475,0-0.918-0.185-1.255-0.519 c-0.333-0.334-0.521-0.778-0.521-1.251c0-0.473,0.186-0.917,0.521-1.253l0.534-0.531c0.273-0.277,0.428-0.645,0.428-1.035 c0-0.042-0.003-0.082-0.006-0.123c-0.678,0.057-1.343,0.347-1.862,0.866c-1.168,1.167-1.168,3.064,0,4.232 c1.171,1.169,3.065,1.169,4.233,0c0.52-0.519,0.81-1.182,0.866-1.862c-0.042-0.003-0.081-0.004-0.12-0.004 C47.324,7.978,46.957,8.129,46.682,8.405z"/>
</g>
</svg>