<?xml version="1.0" encoding="UTF-8" standalone="no"?>
<svg width="48px" height="48px" viewBox="0 0 48 48" version="1.1" xmlns="http://www.w3.org/2000/svg" xmlns:xlink="http://www.w3.org/1999/xlink" xml:space="preserve" xmlns:serif="http://www.serif.com/">
<path fill="#202020" d="M13.544,42.546c0,-0.433 -0.373,-0.786 -0.831,-0.786l-10.881,0c-0.459,0 -0.831,0.353 -0.831,0.786l0,3.668c0,0.434 0.372,0.786 0.831,0.786l10.881,0c0.458,0 0.831,-0.352 0.831,-0.786l0,-3.668Zm27.2,0c0,-0.433 -0.373,-0.786 -0.831,-0.786l-10.881,0c-0.459,0 -0.831,0.353 -0.831,0.786l0,3.668c0,0.434 0.372,0.786 0.831,0.786l10.881,0c0.458,0 0.831,-0.352 0.831,-0.786l0,-3.668Zm6.256,-0.786l0,5.24l-4.368,0c-0.459,0 -0.831,-0.352 -0.831,-0.786l0,-3.668c0,-0.433 0.372,-0.786 0.831,-0.786l4.368,0Zm-19.856,0.786c0,-0.433 -0.373,-0.786 -0.831,-0.786l-10.881,0c-0.459,0 -0.831,0.353 -0.831,0.786l0,3.668c0,0.434 0.372,0.786 0.831,0.786l10.881,0c0.458,0 0.831,-0.352 0.831,-0.786l0,-3.668Zm-18.54,-1.629c-0.458,0 -0.83,-0.352 -0.83,-0.786l0,-3.668c0,-0.433 0.372,-0.785 0.83,-0.785l10.882,0c0.458,0 0.83,0.352 0.83,0.785l0,3.668c0,0.431 -0.366,0.781 -0.82,0.786l-10.892,0Zm13.601,0c-0.459,0 -0.831,-0.352 -0.831,-0.786l0,-3.668c0,-0.433 0.372,-0.785 0.831,-0.785l10.881,0c0.458,0 0.831,0.352 0.831,0.785l0,3.668c0,0.431 -0.367,0.781 -0.821,0.786l-10.891,0Zm24.795,-0.058c-0.097,0.037 -0.203,0.058 -0.314,0.058l-10.881,0c-0.459,0 -0.831,-0.352 -0.831,-0.786l-0,-3.668c-0,-0.433 0.372,-0.785 0.831,-0.785l10.881,0c0.111,0 0.217,0.02 0.314,0.058l-0,5.123Zm-46.013,-5.181l4.899,0c0.458,0 0.83,0.352 0.83,0.785l-0,3.668c-0,0.431 -0.366,0.781 -0.82,0.786l-4.909,0l-0,-5.239Zm28.045,-1c-0.459,0 -0.831,-0.353 -0.831,-0.786l-0,-3.668c-0,-0.434 0.372,-0.786 0.831,-0.786l10.881,0c0.458,0 0.831,0.352 0.831,0.786l-0,3.668c-0,0.43 -0.367,0.78 -0.82,0.785l-10.892,0.001Zm17.968,-5.24l-0,5.24l-4.368,0c-0.459,0 -0.831,-0.353 -0.831,-0.786l-0,-3.668c-0,-0.434 0.372,-0.786 0.831,-0.786l4.368,0Zm-45.168,5.24c-0.459,0 -0.831,-0.353 -0.831,-0.786l-0,-3.668c-0,-0.434 0.372,-0.786 0.831,-0.786l10.881,0c0.458,0 0.831,0.352 0.831,0.786l-0,3.668c-0,0.43 -0.367,0.78 -0.821,0.785l-10.891,0.001Zm13.6,0c-0.459,0 -0.831,-0.353 -0.831,-0.786l-0,-3.668c-0,-0.434 0.372,-0.786 0.831,-0.786l10.881,0c0.458,0 0.831,0.352 0.831,0.786l-0,3.668c-0,0.43 -0.367,0.78 -0.82,0.785l-10.892,0.001Zm-14.445,-11.437l4.37,0c0.458,0 0.831,0.352 0.831,0.786l-0,3.668c-0,0.43 -0.367,0.78 -0.82,0.785l-4.381,0.001l-0,-5.24Zm46.001,0.786c-0,-0.434 -0.372,-0.786 -0.831,-0.786l-10.881,0c-0.459,0 -0.831,0.352 -0.831,0.786l-0,3.668c-0,0.433 0.372,0.786 0.831,0.786l10.881,0c0.459,0 0.831,-0.353 0.831,-0.786l-0,-3.668Zm-33.876,-0.786c-0.564,-0.64 -0.965,-1.341 -1.201,-2.101c-0.854,-2.765 0.725,-5.748 2.335,-7.462c1.867,-1.988 0.805,-6.281 0.794,-6.325c-0.014,-0.049 0.004,-0.092 0.049,-0.123c0.042,-0.028 0.094,-0.028 0.139,-0.006c2.847,1.458 3.509,3.714 3.569,5.348c0.035,1.115 -0.185,2.086 -0.366,2.66c0.725,-0.833 2.073,-2.793 1.359,-5.209c-1.966,-5.141 -1.753,-5.839 -0.181,-7.716c1.693,-2.037 4.956,-2.267 5.05,-2.3c0.045,-0.016 0.108,-0.004 0.143,0.03c0.041,0.037 0.045,0.09 0.027,0.136c-4.188,7.027 2.767,9.794 4.234,10.959c-0.673,-4.361 4.666,-6.331 4.722,-6.349c0.062,-0.019 0.129,0 0.16,0.043c0.031,0.049 0.031,0.111 -0.014,0.148c-0.028,0.025 -2.502,2.383 1.335,9.73c1.275,2.691 1.401,5.058 0.39,7.022c-0.536,1.04 -1.342,1.888 -2.268,2.577l-0,3.392c-0,0.43 -0.367,0.78 -0.82,0.785l-10.892,0.001c-0.459,0 -0.831,-0.353 -0.831,-0.786l-0,-3.668c-0,-0.434 0.372,-0.786 0.831,-0.786l8.595,0c-0.147,-0.877 -0.656,-1.697 -1.177,-2.255c-0.791,-0.835 -0.61,-2.367 -0.488,-2.987c-2.199,1.332 -1.241,2.932 -1.195,3.034c0.021,0.052 -0,0.111 -0.049,0.139c-0.052,0.034 -0.122,0.021 -0.167,-0.013c-0.06,-0.052 -1.359,-0.447 -0.861,-2.133c1.499,-3.924 -1.042,-5.635 -2,-6.125c1.944,3.816 -2.338,6.929 -2.38,6.96c-0.042,0.031 -0.098,0.034 -0.15,0.009c-0.049,-0.024 -0.077,-0.077 -0.063,-0.123c0.359,-1.627 -1.07,-2.555 -1.784,-2.913c0.279,0.589 0.53,1.957 -0.857,4.611c-0.341,0.721 -0.592,1.309 -0.753,1.796l0.61,0c0.459,0 0.831,0.352 0.831,0.786l-0,1.949c0.01,0.023 0.012,0.05 0.003,0.076l-0.003,0.008l-0,1.635c-0,0.43 -0.367,0.78 -0.82,0.785l-10.892,0.001c-0.459,0 -0.831,-0.353 -0.831,-0.786l-0,-3.668c-0,-0.434 0.372,-0.786 0.831,-0.786l5.036,0Z"/>
</svg>