<?xml version="1.0" encoding="UTF-8" standalone="no"?>
<svg version="1.1" xmlns="http://www.w3.org/2000/svg" xmlns:xlink="http://www.w3.org/1999/xlink" x="0px" y="0px" width="48px" height="48px" viewBox="0 0 48 48" enable-background="new 0 0 48 48" xml:space="preserve">
<path fill="#505050" d="M27,39.5v-2.545L48,37V6.931c0-0.476-0.387-0.859-0.865-0.859H21.116c-0.882,0.078-0.995-0.039-1.43-0.616 c-0.618-0.821-1.551-3.031-2.159-3.833c-0.488-0.701-0.567-0.62-1.376-0.62L0.865,1.001C0.386,1.001,0,1.384,0,1.86v35.036l21,0.045 V39.5h1V41h-1v1H2v0.75c0.552,0,1,0.56,1,1.25s-0.448,1.25-1,1.25V46h19v1h6v-1h19v-0.75c-0.553,0-1-0.56-1-1.25s0.447-1.25,1-1.25 V42H27v-1h-1v-1.5H27z"/>
</svg>