<svg version="1.1" xmlns="http://www.w3.org/2000/svg" xmlns:xlink="http://www.w3.org/1999/xlink" x="0px" y="0px" width="48px" height="48px" viewBox="0 0 48 48" enable-background="new 0 0 48 48" xml:space="preserve">
<path fill="#202020" d="M44.92,37.11c-2.12-1.26-4.59-1.95-6.98-2.49c0,0-0.79-2.3-1.05-3.1c-0.27-0.82-0.52-1.55-0.94-2.33 c-0.66-1.25-1.49-2.44-2.35-3.57c-0.07-0.09,0.73-1.41,0.79-1.63c0.23-0.99,0.18-2.23-0.03-3.22c-0.3-1.41-1.09-2.68-1.41-4.06 c-0.32-1.39-0.27-3.01-0.33-4.43c-0.04-0.89,0.1-1.69,0.27-2.56c0.24-1.17,0.12-2.01-0.4-3.1c-0.97-2.03-2.71-3.22-4.57-4.38 c-0.77-0.48-1.61-1.1-2.49-1.33c-1.33-0.34-1.08,1.31-0.47,1.92c0.71,0.72,1.5,1.21,1.63,2.3c0.1,0.83-1.03,1.64-1.61,2.08 c-1.1,0.82-2.05,1.51-3.01,2.49c-0.56,0.57-1.19,1.16-1.51,1.91c-0.38,0.92-0.61,1.93-0.78,2.9c-0.16,0.86-0.28,1.72-0.4,2.58 c-0.08,0.61-0.18,0.66-0.63,1.09c-2.74,2.62-4.99,5.83-5.96,9.53c-0.46,1.77-0.83,3.56-1.18,5.35c-0.08,0.41-0.16,0.82-0.24,1.24 c-0.04,0.24-3.02,0.76-3.44,0.88c-2.13,0.61-8.46,2.53-7,5.94c0.5,1.18,1.74,1.97,2.83,2.55c1.77,0.94,3.72,1.53,5.66,2 c5.51,1.34,11.29,1.69,16.95,1.52c5.18-0.15,10.55-0.69,15.47-2.4c1.91-0.66,5.65-2.02,5.65-4.56 C47.39,38.82,46.03,37.78,44.92,37.11z M24.72,37.69c-5.66,0-10.34-1.12-11.91-2.11c3.24,0.93,7.36,1.31,11.91,1.31 c4.56,0,8.77-0.38,12-1.31C35.15,36.57,30.37,37.69,24.72,37.69z"/>
</svg>