<?xml version="1.0" encoding="UTF-8" standalone="no"?>
<svg version="1.1" xmlns="http://www.w3.org/2000/svg" xmlns:xlink="http://www.w3.org/1999/xlink" x="0px" y="0px" width="48px" height="48px" viewBox="0 0 48 48" enable-background="new 0 0 48 48" xml:space="preserve">
<path fill="#202020" d="M24.08,0C10.76,0,0,11.01,0,24.64c0,10.84,6.9,20.04,16.53,23.33c1.28,0.17,1.61-0.49,1.61-1.15v-4.27 c-6.74,1.48-8.19-3.29-8.19-3.29c-1.12-2.79-2.73-3.61-2.73-3.61c-2.25-1.48,0.16-1.48,0.16-1.48c2.41,0.16,3.69,2.46,3.69,2.46 c2.09,3.78,5.62,2.63,7.06,1.97c0.16-1.64,0.8-2.63,1.6-3.29c-5.3-0.66-10.92-2.79-10.92-12.16c0-2.63,0.96-4.93,2.41-6.57 c-0.32-0.66-1.12-3.12,0.16-6.57c0,0,2.09-0.66,6.58,2.46c1.93-0.49,4.01-0.82,6.1-0.82c2.09,0,4.17,0.33,6.1,0.82 c4.65-3.12,6.58-2.46,6.58-2.46c1.28,3.45,0.48,5.91,0.16,6.57c1.61,1.64,2.41,3.94,2.41,6.57c0,9.53-5.62,11.5-10.92,12.16 c0.8,0.82,1.61,2.3,1.61,4.6v6.74c0,0.66,0.48,1.48,1.61,1.15C41.25,44.52,48,35.32,48,24.48C48.16,11.01,37.4,0,24.08,0z"/>
</svg>