<svg width="48px" height="48px" viewBox="0 0 48 48" version="1.1" xmlns="http://www.w3.org/2000/svg" xmlns:xlink="http://www.w3.org/1999/xlink" xml:space="preserve" xmlns:serif="http://www.serif.com/">
<path fill="#202020" d="M48,13.731C48,13.163 47.539,12.701 46.97,12.701L1.03,12.701C0.461,12.701 0,13.163 0,13.731L0,34.269C0,34.837 0.461,35.299 1.03,35.299L46.97,35.299C47.539,35.299 48,34.837 48,34.269L48,13.731ZM8.384,28.115L4,28.115L4,16.887L22.727,16.887L22.727,28.115L18.344,28.115L18.344,31.113L8.384,31.113L8.384,28.115ZM29.657,28.115L25.273,28.115L25.273,16.887L44,16.887L44,28.115L39.616,28.115L39.616,31.113L29.657,31.113L29.657,28.115Z"/>
</svg>