<?xml version="1.0" encoding="UTF-8" standalone="no"?>
<svg version="1.1" xmlns="http://www.w3.org/2000/svg" xmlns:xlink="http://www.w3.org/1999/xlink" x="0px" y="0px" width="48px" height="48px" viewBox="0 0 48 48" enable-background="new 0 0 48 48" xml:space="preserve">
<path fill="#202020" d="M20.19,37.86c0.19,0,0.24-0.1,0.29-0.24l4.42-26.26l-3.74-0.14c0.14-0.72,0.34-1.49,0.48-2.21c1.68,0,3.89,0,5.76,0 c1.82,0,3.79,0,5.38,0c-0.1,0.67-0.29,1.54-0.48,2.21l-3.65,0.14c-0.14,0-0.14,0.1-0.14,0.19l-4.56,26.31L28.01,38 c-0.1,0.67-0.24,1.54-0.48,2.26c-1.54,0-3.65-0.05-5.52-0.05c-1.82,0-3.84,0.05-5.52,0.05c0.14-0.72,0.29-1.54,0.43-2.26 L20.19,37.86z"/>
</svg>