<?xml version="1.0" encoding="UTF-8" standalone="no"?>
<svg width="48px" height="48px" viewBox="0 0 150 150" version="1.1" xmlns="http://www.w3.org/2000/svg" xmlns:xlink="http://www.w3.org/1999/xlink" xml:space="preserve" xmlns:serif="http://www.serif.com/">
<g fill="#202020" transform="matrix(0.1,0,0,-0.1,-0.185328,154)">
<path d="M367,369C337,351 318,299 313,218L307,140L1190,140L1190,209C1190,286 1179,324 1148,358L1127,380L756,380C523,380 379,376 367,369Z"/>
<path d="M660,1380L660,1280L560,1280L560,1100L606,1100C649,1100 652,1098 646,1078C643,1065 640,1052 640,1048C640,1045 619,1049 593,1057C566,1065 509,1072 464,1073C395,1074 375,1070 327,1046C234,1001 181,919 173,806C165,706 191,653 318,516L425,400L755,401L1085,401L1183,507C1304,639 1333,694 1332,789C1331,837 1324,874 1309,910C1281,975 1207,1042 1143,1061C1084,1078 981,1076 917,1056C875,1044 868,1044 864,1056C862,1064 858,1077 855,1085C852,1097 860,1100 895,1100L940,1100L940,1279L893,1282L845,1285L842,1333L839,1380L660,1380ZM585,813L620,796L620,698C620,611 618,600 602,600C584,600 498,683 466,730C417,804 493,857 585,813ZM1040,810C1063,787 1064,777 1048,747C1026,704 926,600 908,600C892,600 890,610 890,700L890,801L923,815C970,836 1016,834 1040,810Z"/>
</g></svg>