<?xml version="1.0" encoding="UTF-8" standalone="no"?>
<svg width="48px" height="48px" viewBox="0 0 150 150" version="1.1" xmlns="http://www.w3.org/2000/svg" xmlns:xlink="http://www.w3.org/1999/xlink" xml:space="preserve" xmlns:serif="http://www.serif.com/">
<g fill="#202020" transform="matrix(0.1,0,0,-0.1,-4.72786,154)">
<path d="M395,354C367,324 356,281 356,200L355,140L1230,140L1230,214C1230,298 1221,329 1189,359C1167,380 1158,380 793,380L419,380L395,354Z"/>
<path d="M556,1321C546,1310 534,1282 529,1258C522,1229 505,1201 476,1170C427,1119 416,1101 389,1023C379,993 341,927 305,875C225,760 216,738 230,694C243,654 286,626 360,607C430,589 445,594 480,645C505,681 515,688 555,693C609,701 647,719 695,762C736,797 745,795 735,751C731,730 700,695 635,635C541,549 487,479 475,428L468,400L1129,400L1144,453C1191,616 1199,709 1175,825C1132,1032 983,1183 782,1225C725,1237 710,1245 666,1289C611,1344 583,1351 556,1321ZM638,1068C653,1053 654,1023 640,1015C625,1006 540,1001 540,1009C540,1012 549,1030 560,1048C581,1082 615,1091 638,1068Z"/>
</g></svg>