<?xml version="1.0" encoding="UTF-8" standalone="no"?>
<svg version="1.1" xmlns="http://www.w3.org/2000/svg" xmlns:xlink="http://www.w3.org/1999/xlink" x="0px" y="0px" width="48px" height="48px" viewBox="0 0 48 48" enable-background="new 0 0 48 48" xml:space="preserve">
<path fill="#C0C0C0" d="M40.17,47.75c-1.557,0-3.021-0.605-4.123-1.704L24.001,34.002L11.96,46.042 c-1.107,1.103-2.571,1.708-4.127,1.708c-1.558,0-3.023-0.605-4.125-1.708l-1.749-1.748c-1.102-1.103-1.708-2.569-1.708-4.127 s0.607-3.024,1.709-4.125L14,24.001L1.959,11.961C0.857,10.858,0.25,9.392,0.25,7.833c0-1.56,0.608-3.026,1.711-4.129l1.745-1.745 c1.102-1.102,2.567-1.71,4.127-1.71c1.559,0,3.024,0.607,4.126,1.709L24.002,14L36.043,1.959c1.104-1.103,2.568-1.709,4.127-1.709 s3.025,0.608,4.127,1.71l1.746,1.747c2.275,2.274,2.276,5.976,0.002,8.253L34.004,24.001l12.04,12.041 c2.274,2.273,2.275,5.975,0.002,8.25l-1.75,1.75C43.192,47.145,41.728,47.75,40.17,47.75z"/>
</svg>