<?xml version="1.0" encoding="UTF-8" standalone="no"?>
<svg version="1.1" xmlns="http://www.w3.org/2000/svg" xmlns:xlink="http://www.w3.org/1999/xlink" x="0px" y="0px" width="48px" height="48px" viewBox="0 0 48 48" enable-background="new 0 0 48 48" xml:space="preserve">
<g fill="#C0C0C0">
<path d="M30.25,20H17.66l6.71-6.71c1.46-1.46,1.46-3.84,0-5.3l-0.35-0.35c-1.46-1.46-3.84-1.46-5.3,0L5.76,20.58 C4.71,21.24,4,22.41,4,23.75v0.5c0,1.34,0.71,2.5,1.76,3.17l12.95,12.95c1.46,1.46,3.84,1.46,5.3,0l0.35-0.35 c1.46-1.46,1.46-3.84,0-5.3L17.66,28h12.59c2.07,0,3.75-1.68,3.75-3.75v-0.5C34,21.68,32.32,20,30.25,20z"/>
<path d="M44,24.04c0,2.19-1.77,3.96-3.96,3.96h-0.08C37.77,28,36,26.23,36,24.04v-0.08c0-2.19,1.77-3.96,3.96-3.96 h0.08c2.19,0,3.96,1.77,3.96,3.96V24.04z"/>
</g></svg>