<svg version="1.1" xmlns="http://www.w3.org/2000/svg" xmlns:xlink="http://www.w3.org/1999/xlink" x="0px" y="0px" width="48px" height="48px" viewBox="0 0 48 48" enable-background="new 0 0 48 48" xml:space="preserve">
<g fill="#C0C0C0">
<path d="M17.75,20h12.59l-6.71-6.71c-1.46-1.46-1.46-3.84,0-5.3l0.35-0.35c1.46-1.46,3.84-1.46,5.3,0l12.95,12.95 c1.06,0.66,1.76,1.83,1.76,3.17v0.5c0,1.34-0.71,2.5-1.76,3.17L29.29,40.37c-1.46,1.46-3.84,1.46-5.3,0l-0.35-0.35 c-1.46-1.46-1.46-3.84,0-5.3L30.34,28H17.75C15.68,28,14,26.32,14,24.25v-0.5C14,21.68,15.68,20,17.75,20z"/>
<path d="M4,24.04C4,26.23,5.77,28,7.96,28h0.08c2.19,0,3.96-1.77,3.96-3.96v-0.08C12,21.77,10.23,20,8.04,20H7.96 C5.77,20,4,21.77,4,23.96V24.04z"/>
</g></svg>