<?xml version="1.0" encoding="UTF-8" standalone="no"?>
<svg version="1.1" xmlns="http://www.w3.org/2000/svg" xmlns:xlink="http://www.w3.org/1999/xlink" x="0px" y="0px" width="48px" height="48px" viewBox="0 0 48 48" enable-background="new 0 0 48 48" xml:space="preserve">
<g fill="#C0C0C0">
<path d="M20,30.25V17.66l-6.71,6.71c-1.46,1.46-3.84,1.46-5.3,0l-0.35-0.35c-1.46-1.46-1.46-3.84,0-5.3L20.58,5.76 C21.24,4.71,22.41,4,23.75,4h0.5c1.34,0,2.5,0.71,3.17,1.76l12.95,12.95c1.46,1.46,1.46,3.84,0,5.3l-0.35,0.35 c-1.46,1.46-3.84,1.46-5.3,0L28,17.66v12.59c0,2.07-1.68,3.75-3.75,3.75h-0.5C21.68,34,20,32.32,20,30.25z"/>
<path d="M24.04,44c2.19,0,3.96-1.77,3.96-3.96v-0.08c0-2.19-1.77-3.96-3.96-3.96h-0.08C21.77,36,20,37.77,20,39.96 v0.08c0,2.19,1.77,3.96,3.96,3.96H24.04z"/>
</g></svg>