<?xml version="1.0" encoding="UTF-8" standalone="no"?>
<svg version="1.1" xmlns="http://www.w3.org/2000/svg" xmlns:xlink="http://www.w3.org/1999/xlink" x="0px" y="0px" width="48px" height="48px" viewBox="0 0 48 48" enable-background="new 0 0 48 48" xml:space="preserve">
<g fill="#C0C0C0">
<path d="M15.145,10.887h30.904c0.528,0,0.951-1.559,0.951-3.5c0-1.945-0.423-3.5-0.951-3.5H15.145 c-0.528,0-0.951,1.555-0.951,3.5C14.194,9.329,14.617,10.887,15.145,10.887z"/>
<path d="M45.996,20.406H15.145c-0.528,0-0.951,1.558-0.951,3.501c0,1.942,0.423,3.499,0.951,3.499h30.904 c0.528,0,0.951-1.557,0.951-3.499C47,21.964,46.523,20.406,45.996,20.406z"/>
<path d="M45.996,36.874H15.145c-0.528,0-0.951,1.556-0.951,3.5s0.423,3.5,0.951,3.5h30.904 c0.528,0,0.951-1.556,0.951-3.5S46.523,36.874,45.996,36.874z"/>
<path d="M10.152,18.941h-8.03c-0.528,0-0.951,0.422-0.951,0.951v8.03c0,0.528,0.423,0.95,0.951,0.95h8.03 c0.528,0,0.951-0.422,0.951-0.95v-8.03C11.05,19.363,10.628,18.941,10.152,18.941z"/>
<path d="M1.911,11.93h8.241c0.317,0,0.634-0.159,0.792-0.476c0.158-0.317,0.158-0.634,0-0.951l-4.12-7.131 C6.666,3.107,6.349,2.896,6.032,2.896c-0.317,0-0.634,0.159-0.793,0.476l-4.121,7.185c-0.158,0.264-0.158,0.634,0,0.951 C1.277,11.824,1.594,11.93,1.911,11.93z"/>
<path d="M6.296,35.038c-2.905,0-5.283,2.378-5.283,5.282c0,2.906,2.377,5.283,5.283,5.283 c2.906,0,5.283-2.377,5.283-5.283C11.579,37.416,9.202,35.038,6.296,35.038z"/>
</g></svg>