<?xml version="1.0" encoding="UTF-8" standalone="no"?>
<svg version="1.1" xmlns="http://www.w3.org/2000/svg" xmlns:xlink="http://www.w3.org/1999/xlink" x="0px" y="0px" width="48px" height="48px" viewBox="0 0 48 48" enable-background="new 0 0 48 48" xml:space="preserve">
<path fill="#C0C0C0" d="M30.166,29.499c0,0,0.161-0.046,0.462-0.131c0.293-0.076,0.767-0.233,1.271-0.334 c0.524-0.121,1.162-0.27,1.818-0.363c0.338-0.057,0.696-0.116,1.074-0.18c0.201-0.043,0.261,0.059,0.287,0.198 c0.031,0.134,0.141,0.193,0.221,0.286c1.384,1.383,3.228,3.227,5.071,5.07s3.688,3.688,5.07,5.071 c0.095,0.077,0.15,0.191,0.279,0.229c0.149,0.016,0.224,0.103,0.168,0.316c-0.063,0.378-0.123,0.736-0.18,1.074 c-0.097,0.658-0.242,1.294-0.355,1.81c-0.097,0.501-0.243,0.965-0.314,1.251c-0.079,0.296-0.121,0.453-0.121,0.453 s-0.157,0.042-0.453,0.121c-0.286,0.071-0.75,0.218-1.251,0.314c-0.516,0.113-1.151,0.259-1.81,0.355 c-0.338,0.057-0.696,0.116-1.074,0.18c-0.214,0.056-0.301-0.019-0.316-0.168c-0.037-0.129-0.151-0.185-0.229-0.279 c-1.384-1.383-3.228-3.227-5.071-5.07s-3.688-3.688-5.07-5.071c-0.093-0.08-0.152-0.189-0.286-0.221 c-0.14-0.026-0.241-0.086-0.198-0.287c0.063-0.378,0.123-0.736,0.18-1.074c0.094-0.656,0.242-1.294,0.363-1.818 c0.101-0.504,0.258-0.978,0.334-1.271C30.12,29.66,30.166,29.499,30.166,29.499z"/>
<circle fill="none" stroke="#C0C0C0" stroke-width="6" stroke-miterlimit="10" cx="19.75" cy="19.75" r="15.681"/>
</svg>