<?xml version="1.0" encoding="UTF-8" standalone="no"?>
<svg version="1.1" xmlns="http://www.w3.org/2000/svg" xmlns:xlink="http://www.w3.org/1999/xlink" x="0px" y="0px" width="48px" height="48px" viewBox="0 0 48 48" enable-background="new 0 0 48 48" xml:space="preserve">
<g fill="#C0C0C0">
<path d="M28.814,29.188c0.531-2.611,1.352-6.666,1.357-6.671c1.55-1.818,2.504-9.325,2.504-12.081 c0-5.555-3.882-10.054-8.676-10.054s-8.677,4.504-8.677,10.054c0,2.755,0.955,10.263,2.504,12.081c0,0,0.826,4.06,1.357,6.671 H28.814z"/>
<path d="M4.347,42.91c-0.037,0-0.075,0-0.112-0.006v2.033c0,1.479,1.201,2.68,2.681,2.68h34.168 c1.48,0,2.682-1.2,2.682-2.68v-2.033c-0.039,0-0.075,0.006-0.114,0.006H4.347z"/>
<path d="M44.58,40.91c0.3-0.112,0.574-0.273,0.814-0.477c0.574-0.494,0.938-1.223,0.938-2.039v-4.687 c0-1.479-1.201-2.681-2.682-2.681H28.445h-8.891H4.347c-1.48,0-2.681,1.201-2.681,2.681v4.687c0,0.816,0.364,1.545,0.938,2.039 c0.242,0.203,0.515,0.364,0.815,0.477c0.258,0.096,0.531,0.15,0.815,0.161c0.038,0,0.075,0.005,0.112,0.005h39.299 c0.038,0,0.075,0,0.113-0.005C44.049,41.061,44.322,41.001,44.58,40.91z"/>
</g>
</svg>