<?xml version="1.0" encoding="utf-8" standalone="no"?>
<svg width="100%" height="100%" viewBox="0 0 12 12" version="1.1" xmlns="http://www.w3.org/2000/svg" xmlns:xlink="http://www.w3.org/1999/xlink" xml:space="preserve" xmlns:serif="http://www.serif.com/">
<g fill="#C0C0C0">
<path d="M9.843,6.121c0.662,0 1.2,0.538 1.2,1.2l0,2.399c0,0.663 -0.538,1.2 -1.2,1.2l-8.166,0c-0.662,0 -1.2,-0.537 -1.2,-1.2l0,-2.399c0,-0.662 0.538,-1.2 1.2,-1.2l8.166,0Zm-6.008,0.481l-1.919,0c-0.529,0 -0.959,0.43 -0.959,0.959l0,1.919c0,0.53 0.43,0.96 0.959,0.96l1.919,0c0.53,0 0.96,-0.43 0.96,-0.96l0,-1.919c0,-0.529 -0.43,-0.959 -0.96,-0.959Z"/>
<path d="M9.843,0.6c0.662,0 1.2,0.537 1.2,1.2l0,2.399c0,0.662 -0.538,1.2 -1.2,1.2l-8.166,0c-0.662,0 -1.2,-0.538 -1.2,-1.2l0,-2.399c0,-0.663 0.538,-1.2 1.2,-1.2l8.166,0Zm-0.239,0.48l-1.919,0c-0.53,0 -0.96,0.43 -0.96,0.96l0,1.919c0,0.529 0.43,0.959 0.96,0.959l1.919,0c0.529,0 0.959,-0.43 0.959,-0.959l0,-1.919c0,-0.53 -0.43,-0.96 -0.959,-0.96Z"/>
</g>
</svg>