<svg version="1.1" xmlns="http://www.w3.org/2000/svg" xmlns:xlink="http://www.w3.org/1999/xlink" x="0px" y="0px" width="48px" height="48px" viewBox="0 0 48 48" enable-background="new 0 0 48 48" xml:space="preserve">
<path fill="#c0c0c0" d="M35.16,24.32c-2.06-1.87-4.95-2.75-6.85-4.76c-0.94-1-1.57-2.31-1.41-3.7c0.14-1.22-0.4-1.04-1.53-1.52 c2.9-4.48,6.48-8.51,10.46-12.07c-3.46,1.17-6.6,3.11-8.76,6.1c1.48-3.09,3.72-5.79,5.94-8.37c-3.21,2.29-6.17,5.04-7.96,8.6 c0.42-1.66,0.84-3.33,1.25-4.99c-1.68,3.02-3.01,6.28-3.53,9.71c-0.84-0.34-1.68-0.68-2.52-1.02c-0.93-0.37,0.6,3.04,0.69,3.59 c0.6,3.69-3.05,4.88-5.58,6.63c-6.4,4.43-9.61,12.63-4.55,19.47c4.89,6.62,15.9,7.75,22.71,3.49 C40.95,40.83,41.52,30.12,35.16,24.32z M28.05,42c-0.22,0.99-0.85,1.9-1.47,2.67c2.08-3.8,2.43-9.22,1.35-13.35 c-0.61-2.36-1.91-4.42-3.02-6.57c-0.92-1.78-0.89-4.46-0.93-6.41c0.05,2.04,0.04,4.19,0.53,6.17c0.55,2.22,2.2,4.11,2.83,6.35 c1.26,4.48,1.1,11.01-1.89,14.82c1.72-2.38,2.16-6.51,1.63-9.34c-0.31-1.66-0.83-3.26-1.65-4.75c-0.95-1.73-1.11-3.05-1.32-5.02 c0.03,1.35-0.14,2.75,0.31,4.05c0.67,1.88,1.76,3.27,2.15,5.33c0.59,3.14,0.13,8.31-2.59,10.39c2.74-3.46,0.67-8.88-0.22-12.56 c0.15,4.17,1.87,8.35-0.18,12.43c-1.73-0.72-2.72-4.01-2.69-5.65c0.05-2.56,2.12-4.07,2.6-6.46c-0.71,2.18-2.65,3.31-2.95,5.75 c-0.26,2.15,0.35,5.19,2.24,6.54c-3.77-1.01-8.11-5.64-6.61-9.86c0.66-1.88,2.16-3.51,3.89-4.48c1.94-1.13,2.67-2.79,3.08-4.9 c-0.61,1.92-1.4,3.73-3.31,4.68c-1.85,1-3.46,2.6-4.08,4.64c-1.35,4.43,2,8.75,6,10.24c-5.04-1.21-10.56-7.89-8.67-13.24 c0.99-2.82,3.03-4.66,5.44-6.29c3.05-2.08,3.8-3.73,4.48-7.32c-0.91,3.13-1.53,4.65-4.2,6.5c-2.17,1.47-4.27,2.98-5.52,5.35 c-2.53,4.78,0.94,12.62,6.01,14.6c-7.63-1.79-12.47-10.94-8.21-17.93c2.91-4.78,14.8-8.18,9.55-15.11c1.3,0.57,2.6,1.14,3.9,1.7 c0.22,0.1,0.03,2.93,0.07,3.37c0.13,1.47,0.7,2.58,1.46,3.82C29.72,28.14,29.57,35.34,28.05,42C27.87,42.8,29.17,37.1,28.05,42z"/>
</svg>