<?xml version="1.0" encoding="UTF-8" standalone="no"?>
<svg version="1.1" xmlns="http://www.w3.org/2000/svg" xmlns:xlink="http://www.w3.org/1999/xlink" x="0px" y="0px" width="48px" height="48px" viewBox="0 0 48 48" enable-background="new 0 0 48 48" xml:space="preserve">
<path fill="#C0C0C0" d="M28.508,38.055c0.439,0.438,0.439,1.151,0,1.591l-4.188,4.188c-5.556,5.556-14.596,5.556-20.153,0 c-5.556-5.558-5.556-14.598,0-20.152l4.188-4.188c0.439-0.44,1.151-0.44,1.591,0l3.712,3.711c0.44,0.439,0.44,1.152,0,1.591 L9.47,28.983c-2.631,2.631-2.631,6.914,0,9.545c2.632,2.635,6.914,2.635,9.547,0l4.187-4.187c0.44-0.439,1.152-0.439,1.591,0 L28.508,38.055z M23.204,13.659c0.44,0.439,1.152,0.439,1.591,0l4.188-4.188c2.631-2.632,6.914-2.632,9.545,0 c2.633,2.632,2.633,6.914,0,9.546l-4.187,4.188c-0.439,0.439-0.439,1.152,0,1.591l3.713,3.712c0.438,0.439,1.149,0.439,1.589,0 l4.189-4.188c5.556-5.557,5.556-14.597,0-20.153c-5.558-5.556-14.598-5.556-20.153,0l-4.188,4.188c-0.44,0.44-0.44,1.152,0,1.591 L23.204,13.659z M45.219,47.341l2.122-2.122c0.878-0.878,0.878-2.302,0-3.18L5.962,0.66C5.083-0.22,3.659-0.22,2.78,0.66 L0.659,2.781c-0.879,0.878-0.879,2.303,0,3.182l41.378,41.378C42.917,48.219,44.341,48.219,45.219,47.341L45.219,47.341z"/>
</svg>