<svg width="48px" height="48px" viewBox="0 0 48 48" version="1.1" xmlns="http://www.w3.org/2000/svg" xmlns:xlink="http://www.w3.org/1999/xlink" xml:space="preserve" xmlns:serif="http://www.serif.com/">
<g fill="#202020">
<path d="M28.799,43.193l-9.598,-0c-1.317,-0 -2.4,-1.083 -2.4,-2.4l0,-7.199l14.398,0l-0,7.199c-0,1.317 -1.083,2.4 -2.4,2.4Z"/>
<path d="M26.184,19.197l-4.392,-0c0.607,3.972 0.944,7.98 1.008,11.998l2.4,-0c0.011,-4.019 0.34,-8.031 0.984,-11.998Z"/>
<path d="M24,0c-7.898,0 -14.398,6.499 -14.398,14.398c0,4.799 1.848,6.886 4.512,12.31c1.031,2.087 0.888,4.487 2.687,4.487l3.6,-0c-0.11,-4.357 -0.511,-8.702 -1.2,-13.006l-0.216,-1.392l10.054,0l-0.24,1.416c-0.743,4.289 -1.144,8.63 -1.2,12.982l3.6,-0c1.799,-0 1.656,-2.4 2.711,-4.487c2.64,-5.424 4.488,-7.511 4.488,-12.31c-0,-7.899 -6.5,-14.398 -14.398,-14.398Z"/>
<path d="M19.489,45.592c0.936,1.577 2.68,2.505 4.511,2.4c1.831,0.105 3.575,-0.823 4.511,-2.4l-9.022,0Z"/>
</g></svg>