<?xml version="1.0" encoding="UTF-8" standalone="no"?>
<svg version="1.1" xmlns="http://www.w3.org/2000/svg" xmlns:xlink="http://www.w3.org/1999/xlink" x="0px" y="0px" width="48px" height="48px" viewBox="0 0 48 48" enable-background="new 0 0 48 48" xml:space="preserve">
<path fill="#202020" d="M41.045,21.915h-1.072v-0.04h-6.429v0.04H16.398v-6.429c0-2.367,0.837-4.387,2.512-6.062 c1.674-1.674,3.695-2.511,6.061-2.511c2.366,0,4.389,0.837,6.063,2.511c1.674,1.675,2.512,3.695,2.512,6.062v6.848h6.43v-6.848 c0-4.108-1.473-7.636-4.42-10.582c-2.947-2.947-6.475-4.42-10.582-4.42c-4.108,0-7.636,1.473-10.583,4.42 c-2.947,2.946-4.421,6.474-4.421,10.582v6.429H8.897c-0.893,0-1.652,0.313-2.277,0.938s-0.938,1.384-0.938,2.277v19.288 c0,0.895,0.313,1.652,0.938,2.277s1.384,0.938,2.277,0.938h32.148c0.895,0,1.65-0.313,2.277-0.938 c0.625-0.625,0.938-1.385,0.938-2.277V25.13c0-0.893-0.313-1.652-0.938-2.277C42.695,22.228,41.938,21.915,41.045,21.915z M29.057,42.912c-0.223,0.29-0.514,0.436-0.869,0.436h-6.432c-0.357,0-0.647-0.146-0.87-0.436c-0.224-0.291-0.279-0.604-0.167-0.938 l2.311-7.67c-0.715-0.379-1.284-0.902-1.708-1.572c-0.424-0.67-0.636-1.418-0.636-2.243c0-1.185,0.418-2.194,1.256-3.03 c0.837-0.838,1.847-1.257,3.031-1.257c1.185,0,2.193,0.419,3.029,1.257c0.838,0.836,1.256,1.846,1.256,3.03 c0,0.825-0.211,1.573-0.636,2.243s-0.994,1.193-1.708,1.572l2.313,7.67C29.335,42.309,29.279,42.621,29.057,42.912z"/>
</svg>