<?xml version="1.0" encoding="UTF-8" standalone="no"?>
<svg version="1.1" xmlns="http://www.w3.org/2000/svg" xmlns:xlink="http://www.w3.org/1999/xlink" x="0px" y="0px" width="48px" height="48px" viewBox="0 0 48 48" enable-background="new 0 0 48 48" xml:space="preserve">
<g fill="#202020">
<path d="M37.002,18.133c-0.047-0.228-0.451-1.424-0.672-1.989c-0.229-0.576-0.816-1.776-1.154-2.367 c-0.92-1.59-2.23-3.259-3.436-4.359c-1.631-1.489-3.148-2.512-5.025-3.389c-1.828-0.854-3.893-1.422-6.027-1.65 c-0.757-0.082-2.704-0.092-3.436-0.021c-1.367,0.133-2.489,0.344-3.679,0.694C9.224,6.335,5.44,9.199,2.977,13.078 C-0.468,18.5-0.954,25.347,1.679,31.259c1.315,2.942,3.473,5.623,6.08,7.533c4.049,2.977,8.959,4.182,13.971,3.431 c4.147-0.622,8.229-2.842,11.032-5.995c1.883-2.122,3.123-4.278,4.008-6.969c0.234-0.705,0.271-0.895,0.205-1.032 c-0.045-0.094-0.092-0.123-0.238-0.153c-0.262-0.055-5.588-0.055-5.814,0c-0.088,0.023-0.193,0.077-0.24,0.128 c-0.045,0.049-0.242,0.407-0.439,0.802c-0.424,0.843-0.703,1.306-1.213,1.989c-1.426,1.907-3.326,3.357-5.537,4.225 c-1.07,0.422-2.026,0.661-3.288,0.814c-0.509,0.064-2.196,0.064-2.712,0c-2.27-0.278-4.131-0.984-5.951-2.257 c-0.632-0.438-1.714-1.424-2.246-2.041c-2.488-2.894-3.582-6.649-3.005-10.35c0.55-3.56,2.585-6.707,5.609-8.675 c3.761-2.453,8.569-2.735,12.577-0.748c2.103,1.044,3.851,2.62,5.121,4.611c0.154,0.246,0.461,0.795,0.674,1.227 c0.334,0.665,0.41,0.787,0.521,0.854c0.127,0.075,0.18,0.075,3.027,0.075c2.703,0,2.91-0.004,3.002-0.063 C36.988,18.553,37.045,18.377,37.002,18.133z"/>
<path d="M40.078,14.013c0.297,0,0.596,0.358,0.65,0.43c0.203,0.19,6.433,7.44,7.025,8.186 c0.213,0.272,0.252,0.545,0.245,0.728c-0.014,0.435-0.279,0.732-0.311,0.765l-6.833,8.149c-0.066,0.09-0.37,0.467-0.659,0.467 c-0.132,0-0.438-0.076-0.438-0.779v-5.23H24.303c-0.023,0.006-0.055,0.013-0.093,0.013c-0.097,0-0.59-0.05-0.59-0.982v-4.963 c0-0.686,0.385-0.869,0.589-0.869H39.58v-4.96C39.58,14.136,39.893,14.013,40.078,14.013z M40.078,14.611v-0.299V14.611 L40.078,14.611z"/>
</g></svg>