<?xml version="1.0" encoding="UTF-8" standalone="no"?>
<svg version="1.1" xmlns="http://www.w3.org/2000/svg" xmlns:xlink="http://www.w3.org/1999/xlink" x="0px" y="0px" width="48px" height="48px" viewBox="0 0 48 48" enable-background="new 0 0 48 48" xml:space="preserve">
<path id="rect3010" fill="#202020" d="M15.599-0.082c-0.88,0-1.755,0.361-2.377,0.983c-0.622,0.622-0.983,1.497-0.983,2.377v41.444 c0,0.879,0.361,1.756,0.983,2.377c0.622,0.623,1.497,0.982,2.377,0.982H32.4c0.881,0,1.754-0.361,2.377-0.982 s0.983-1.498,0.983-2.377V3.278c0-0.88-0.36-1.755-0.983-2.377S33.281-0.082,32.4-0.082H15.599z M22.239,2.158 c0.008,0,0.017,0,0.024,0c0.019,0,0.038,0,0.056,0h3.361c0.31-0.004,0.563,0.243,0.567,0.552c0.004,0.31-0.242,0.563-0.552,0.568 c-0.006,0-0.012,0-0.016,0h-3.361c-0.309,0.022-0.578-0.21-0.601-0.521C21.697,2.449,21.93,2.18,22.239,2.158z M13.359,5.518h21.282 v36.404H13.359V5.518z M24,43.043c0.928,0,1.682,0.752,1.682,1.682c0,0.929-0.754,1.68-1.682,1.68c-0.928,0-1.68-0.751-1.68-1.68 C22.32,43.795,23.072,43.043,24,43.043z"/>
</svg>