<svg version="1.1" xmlns="http://www.w3.org/2000/svg" xmlns:xlink="http://www.w3.org/1999/xlink" x="0px" y="0px" width="48px" height="48px" viewBox="0 0 48 48" enable-background="new 0 0 48 48" xml:space="preserve">
<g fill="#202020">
<path d="M0.819,7.634C0.09,8.034,0.48,9.949,0.48,10.596c0,2.173,0,4.346,0,6.519c0,2.54,0,5.079,0,7.619 c0,4.01,0,8.021,0,12.033c0,0.865-0.321,2.454,0,3.275c0.361,0.925,1.425,0.703,2.172,0.703c13.767,0,27.535,0,41.302,0 c1.188,0,2.377,0,3.565,0c0-2.78,0-5.56,0-8.34c-0.217,0-0.435,0-0.651,0c0-3.127,0-6.254,0-9.381c0.217,0,0.435,0,0.651,0 c0-5.256,0-10.511,0-15.767c-5.169,0-10.337,0-15.506,0c0,0.665,0,1.329,0,1.994C25.194,9.18,18.375,9.08,11.556,9.08 c0-0.378,0.201-1.694-0.211-1.695c-1.017-0.003-2.033-0.007-3.05-0.01C6.872,7.37,5.448,7.356,4.025,7.34 C3.13,7.33,1.495,6.932,0.819,7.634z M46.23,9.08c1.213,0,0.393,3.003-1.03,1.694C44.207,9.815,45.35,9.08,46.23,9.08z M3.855,9.301 c0.752,0.683,0.016,2.291-0.96,1.756C1.465,10.275,2.764,8.393,3.855,9.301C3.999,9.432,3.464,8.976,3.855,9.301z M24.574,10.344 c0.75,0.684,0.017,2.291-0.96,1.756C22.185,11.317,23.483,9.435,24.574,10.344C24.717,10.474,24.183,10.018,24.574,10.344z M43.35,14.749v2.02c-1.347,0-2.692,0-4.039,0c0-1.347,0-2.693,0-4.04c1.347,0,2.692,0,4.039,0V14.749z M15.387,13.133 c0.561,0.213,0.339,1.016,0.339,1.482c0,1.109,0,2.218,0,3.326c0,1.464,0,2.929,0,4.393c0,1.018,0.27,2.068-0.993,2.19 c-2.738,0.265-5.593,0.103-8.338,0.039c-1.452-0.034-2.174,0.139-2.217-1.408c-0.068-2.415-0.048-4.832-0.048-7.247 c0-0.886-0.483-2.705,0.719-2.948c2.437-0.493,5.273-0.11,7.737-0.097C13.33,12.868,14.728,12.625,15.387,13.133z M23.335,16.546 c1.355,0.769,1.316,2.775-0.052,3.492c-0.873,0.469-1.85,0.261-2.515-0.521C19.348,17.837,21.42,15.438,23.335,16.546 C24.69,17.315,21.42,15.438,23.335,16.546z M29.785,16.677c1.245,0.747,1.116,2.628-0.064,3.362c-1.261,0.776-3.05-0.166-3.05-1.668 C26.672,16.69,28.326,15.791,29.785,16.677C30.241,16.95,28.326,15.791,29.785,16.677z M43.455,22.202 c-0.008,0.389,0.162,2.059-0.215,2.059c-0.906,0-1.812,0-2.717,0c-0.121,0-1.146,0.05-1.148-0.041 c-0.009-0.495-0.019-0.99-0.028-1.484c-0.016-0.86-0.032-1.72-0.049-2.58c1.398,0,2.798,0,4.196,0L43.455,22.202z M22.984,22.293 c1.531,1.333-1.367,3.306-2.046,1.329C20.547,22.41,22.006,21.459,22.984,22.293C23.283,22.554,22.006,21.459,22.984,22.293z M29.564,22.488c1.192,1.058-0.261,2.695-1.54,1.9C26.643,23.531,28.282,21.335,29.564,22.488 C29.902,22.788,29.304,22.254,29.564,22.488z M36.705,29.277v1.693c-7.471,0-14.942,0-22.413,0c0-1.129,0-2.259,0-3.388 c7.471,0,14.942,0,22.413,0V29.277L36.705,29.277z M9.927,28.561c0.426,0.407,0.323,1.092,0.326,1.629 c0.002,0.667,0.234,1.966-0.235,2.543c-0.428,0.525-1.631,0.324-2.201,0.324c-0.551,0-1.755,0.207-2.168-0.307 c-0.389-0.482-0.217-1.479-0.217-2.039c0-0.635-0.193-1.653,0.326-2.15c0.487-0.509,1.459-0.326,2.084-0.326 S9.439,28.052,9.927,28.561C10.24,28.859,9.627,28.248,9.927,28.561z M36.705,34.229v1.694c-7.471,0-14.942,0-22.413,0 c0-1.129,0-2.259,0-3.388c7.471,0,14.942,0,22.413,0V34.229L36.705,34.229z M3.933,37.291c0.925,0.895-0.505,2.252-1.429,1.344 C1.554,37.699,3.069,36.366,3.933,37.291C4.337,37.682,3.738,37.082,3.933,37.291z M46.646,37.317 c0.313,0.3,0.287,1.056-0.064,1.433c-0.574,0.6-1.668,0.17-1.668-0.664C44.914,37.135,45.93,36.679,46.646,37.317 C46.96,37.617,45.93,36.679,46.646,37.317z M23.922,38.1c0.759,0.682,0.013,2.288-0.959,1.756 C21.532,39.071,22.833,37.19,23.922,38.1C24.065,38.229,23.531,37.773,23.922,38.1z"/>
<path d="M7.738,16.612c-0.585,0.668-0.385,3.113-0.138,3.93c0.317,1.049,3.477,0.554,4.196,0.448 c0.928-0.136,0.73-3.856,0.214-4.41c-0.435-0.467-2.061-0.204-2.625-0.201C8.97,16.38,8.065,16.237,7.738,16.612 C7.556,16.82,7.92,16.403,7.738,16.612z"/>
<path d="M15.334,29.213v0.586c6.732,0,13.465,0,20.198,0c0-0.392,0-0.782,0-1.174c-6.732,0-13.465,0-20.198,0V29.213 z"/>
<path d="M15.334,34.229v0.652c6.732,0,13.465,0,20.198,0c0-0.435,0-0.868,0-1.303c-6.732,0-13.465,0-20.198,0V34.229 z"/>
</g></svg>