<svg version="1.1" xmlns="http://www.w3.org/2000/svg" xmlns:xlink="http://www.w3.org/1999/xlink" x="0px" y="0px" width="48px" height="48px" viewBox="0 0 48 48" enable-background="new 0 0 48 48" xml:space="preserve">
<path fill="#202020" d="M45.925,23.401c1.183-0.468,1.834-1.754,1.509-2.993l-1.293-4.822c-0.172-0.65-0.592-1.193-1.172-1.528 c-0.49-0.284-1.07-0.394-1.633-0.31L40.8,14.12c-0.766-1.31-1.692-2.528-2.759-3.625l1.042-2.411 c0.506-1.177,0.054-2.545-1.052-3.184l-4.336-2.504c-1.106-0.639-2.516-0.345-3.281,0.683l-1.566,2.106 c-1.521-0.384-3.084-0.579-4.656-0.578L23.21,2.126c-0.208-0.526-0.593-0.972-1.082-1.254c-0.58-0.335-1.258-0.426-1.913-0.256 l-4.833,1.296c-1.236,0.331-2.024,1.537-1.838,2.804l0.411,2.815c-1.23,0.764-2.366,1.664-3.377,2.682l-2.6-1.13 c-1.174-0.507-2.543-0.055-3.181,1.05l-2.504,4.333c-0.638,1.107-0.345,2.519,0.685,3.285l2.415,1.797 C5.096,20.837,4.93,22.153,4.9,23.459l-2.826,1.119c-1.185,0.469-1.833,1.757-1.51,2.995l1.295,4.831 C2.032,33.057,2.45,33.6,3.03,33.936c0.49,0.282,1.071,0.394,1.633,0.313l2.981-0.438c0.709,1.182,1.542,2.283,2.485,3.289 l-1.216,2.815C8.405,41.09,8.858,42.461,9.964,43.1l4.334,2.502c1.105,0.64,2.517,0.347,3.282-0.683l1.756-2.36 c1.424,0.366,2.893,0.573,4.377,0.612l1.072,2.703c0.209,0.526,0.594,0.974,1.082,1.254c0.583,0.337,1.26,0.427,1.912,0.257 l4.835-1.298c1.233-0.33,2.024-1.536,1.836-2.804l-0.408-2.829c1.271-0.755,2.438-1.644,3.474-2.642l2.508,1.088 c1.18,0.509,2.547,0.055,3.186-1.051l2.502-4.336c0.639-1.104,0.346-2.515-0.684-3.281l-2.158-1.605 c0.354-1.372,0.549-2.797,0.587-4.247L45.925,23.401z M33,28h-5.001v5c0,2.209-1.792,4-4,4c-2.209,0-4-1.791-4-4v-5H15 c-2.209,0-4-1.791-4-4c0-2.208,1.791-4,4-4h4.999v-5.001c0-2.209,1.791-4,4-4c2.208,0,4,1.791,4,4V20H33c2.209,0,4,1.792,4,4 C37,26.209,35.209,28,33,28z"/>
</svg>