<?xml version="1.0" encoding="UTF-8" standalone="no"?>
<svg version="1.1" xmlns="http://www.w3.org/2000/svg" xmlns:xlink="http://www.w3.org/1999/xlink" x="0px" y="0px" width="48px" height="48px" viewBox="0 0 48 48" enable-background="new 0 0 48 48" xml:space="preserve">
<g fill="#202020">
<path d="M24,1.386C11.51,1.386,1.385,11.511,1.385,24S11.51,46.614,24,46.614c12.489,0,22.613-10.125,22.613-22.614 S36.489,1.386,24,1.386z M24,42.525C13.769,42.525,5.476,34.231,5.476,24C5.476,13.769,13.769,5.476,24,5.476 c10.231,0,18.525,8.293,18.525,18.524C42.525,34.231,34.231,42.525,24,42.525z"/>
<polygon points="36.628,20.369 27.631,20.369 27.631,11.372 20.369,11.372 20.369,20.369 11.372,20.369 11.372,27.631 20.369,27.631 20.369,36.628 27.631,36.628 27.631,27.631 36.628,27.631 "/>
</g></svg>