<svg version="1.1" xmlns="http://www.w3.org/2000/svg" xmlns:xlink="http://www.w3.org/1999/xlink" x="0px" y="0px" width="48px" height="48px" viewBox="0 0 48 48" enable-background="new 0 0 48 48" xml:space="preserve">
<path fill="#202020" d="M39.17,0H12.03L4.11,8.05V43.2c0,4.7,0.1,4.8,4.72,4.8h30.34c4.75,0,4.721-0.1,4.721-4.8V4.8 C43.891-0.07,43.96,0,39.17,0z M13.91,9.97H6.43l7.48-7.53V9.97z M34.016,29.566l-11.188,8.147c-0.645,0.472-1.41,0.71-2.18,0.71 c-0.573,0-1.146-0.132-1.678-0.399c-1.243-0.626-2.025-1.905-2.025-3.299V18.431c0-1.397,0.783-2.67,2.025-3.303 c1.242-0.627,2.735-0.507,3.858,0.311l11.196,8.149c0.947,0.692,1.516,1.81,1.516,2.986C35.539,27.755,34.971,28.866,34.016,29.566z"/>
</svg>