<svg version="1.1" xmlns="http://www.w3.org/2000/svg" xmlns:xlink="http://www.w3.org/1999/xlink" x="0px" y="0px" width="48px" height="48px" viewBox="0 0 48 48" enable-background="new 0 0 48 48" xml:space="preserve">
<g fill="#202020">
<rect x="14" y="37" width="28" height="4"/>
<rect x="14" y="22" width="28" height="4"/>
<rect x="14" y="7" width="28" height="4"/>
<path d="M8.54,3.263v9.301c0,0.14,0.051,0.242,0.153,0.318c0.14,0.102,0.318,0.153,0.534,0.153h1.45v0.561H5.296 v-0.561H6.53c0.254,0,0.445-0.063,0.573-0.178s0.19-0.281,0.19-0.484V5.349c0-0.14-0.05-0.267-0.164-0.369 C7.014,4.878,6.86,4.828,6.683,4.828H5.028V4.318C5.805,4.217,6.428,4.09,6.912,3.924c0.482-0.166,0.902-0.382,1.272-0.649H8.54 V3.263z"/>
<path d="M5.753,27.301c-0.229,0.292,0.891,0.445,3.372,0.445c0.369,0,0.636-0.102,0.802-0.292 c0.152-0.191,0.344-0.727,0.547-1.617h0.509l-0.242,3.093h-6.68v-0.407l2.176-2.468c1.209-1.313,1.934-2.139,2.176-2.482 c0.343-0.483,0.598-0.955,0.763-1.4c0.166-0.445,0.242-0.853,0.242-1.222c0-0.61-0.166-1.094-0.509-1.438 c-0.344-0.344-0.802-0.522-1.412-0.522c-0.674,0-1.222,0.166-1.654,0.483c-0.433,0.318-0.636,0.662-0.636,1.031 c0,0.127,0.038,0.216,0.101,0.28C5.372,20.85,5.5,20.914,5.69,20.951c0.496,0.114,0.75,0.407,0.75,0.878 c0,0.255-0.089,0.458-0.254,0.636c-0.166,0.178-0.382,0.255-0.649,0.255c-0.305,0-0.573-0.14-0.802-0.42 c-0.229-0.28-0.343-0.649-0.343-1.094c0-0.509,0.127-0.967,0.394-1.387c0.268-0.419,0.649-0.75,1.183-1.018 c0.535-0.268,1.095-0.395,1.706-0.395c0.598,0,1.157,0.127,1.679,0.381c0.522,0.255,0.903,0.598,1.158,1.018 c0.254,0.42,0.381,0.878,0.381,1.375c0,0.343-0.063,0.687-0.191,1.043c-0.127,0.357-0.318,0.687-0.56,0.993 c-0.433,0.535-0.865,0.992-1.323,1.362l-1.985,1.653C6.339,26.651,5.983,27.009,5.753,27.301z"/>
<path d="M8.718,39.015c0.713,0.178,1.26,0.458,1.667,0.865c0.509,0.509,0.764,1.145,0.764,1.896 c0,0.853-0.306,1.538-0.903,2.061c-0.688,0.599-1.591,0.891-2.698,0.891c-0.662,0-1.234-0.114-1.718-0.332 c-0.483-0.216-0.84-0.508-1.082-0.89c-0.242-0.383-0.356-0.789-0.356-1.26c0-0.382,0.088-0.674,0.279-0.89 c0.191-0.216,0.42-0.332,0.687-0.332c0.255,0,0.458,0.09,0.611,0.255c0.153,0.165,0.229,0.396,0.229,0.688 c0,0.178-0.038,0.344-0.115,0.471c-0.076,0.127-0.216,0.241-0.42,0.355c-0.216,0.114-0.318,0.229-0.318,0.33 c0,0.154,0.076,0.318,0.229,0.51c0.153,0.191,0.369,0.33,0.675,0.445c0.305,0.115,0.674,0.166,1.12,0.166 c0.776,0,1.362-0.191,1.73-0.573c0.369-0.381,0.561-1.005,0.561-1.857c0-0.891-0.166-1.526-0.484-1.896 c-0.318-0.368-0.802-0.56-1.425-0.56c-0.166,0-0.382,0.024-0.636,0.063c-0.204,0.026-0.356,0.051-0.445,0.051 c-0.153,0-0.267-0.024-0.344-0.09c-0.076-0.063-0.127-0.139-0.127-0.229c0-0.102,0.038-0.191,0.114-0.24 c0.076-0.053,0.204-0.09,0.382-0.09l0.407,0.013l0.356,0.012c0.636,0,1.106-0.165,1.425-0.483c0.318-0.317,0.484-0.826,0.484-1.502 c0-0.826-0.153-1.411-0.458-1.767c-0.305-0.345-0.75-0.522-1.361-0.522c-0.547,0-0.993,0.103-1.323,0.292 c-0.331,0.204-0.497,0.382-0.497,0.548c0,0.115,0.089,0.254,0.28,0.433c0.267,0.254,0.407,0.509,0.407,0.775 c0,0.204-0.076,0.369-0.229,0.51c-0.153,0.139-0.343,0.204-0.573,0.204c-0.255,0-0.445-0.09-0.611-0.281 c-0.165-0.191-0.229-0.457-0.229-0.788c0-0.521,0.19-0.994,0.573-1.4c0.534-0.572,1.31-0.865,2.303-0.865 c0.929,0,1.679,0.256,2.239,0.751c0.56,0.496,0.84,1.12,0.84,1.858c0,0.534-0.153,0.991-0.446,1.374 C9.991,38.365,9.443,38.723,8.718,39.015z"/>
</g></svg>