<svg version="1.1" xmlns="http://www.w3.org/2000/svg" xmlns:xlink="http://www.w3.org/1999/xlink" x="0px" y="0px" width="48px" height="48px" viewBox="0 0 48 48" enable-background="new 0 0 48 48" xml:space="preserve">
<g fill="#202020">
<path d="M24,44.652C12.612,44.652,3.348,35.389,3.348,24C3.348,12.613,12.612,3.349,24,3.349 c11.389,0,20.652,9.265,20.652,20.652C44.65,35.389,35.389,44.652,24,44.652z M24,9.831c-8.365,0-14.17,5.805-14.17,14.17 s5.805,14.17,14.17,14.17S38.17,32.365,38.17,24S32.363,9.831,24,9.831z"/>
<path d="M21.259,23.316c0,3.485,0,6.97,0,10.456c0,3.324,5.482,3.324,5.482,0c0-3.484,0-6.971,0-10.456 C26.741,19.992,21.259,19.992,21.259,23.316L21.259,23.316z"/>
<circle cx="24" cy="15" r="3"/>
</g></svg>