<?xml version="1.0" encoding="UTF-8" standalone="no"?>
<svg width="48px" height="48px" viewBox="0 0 150 150" version="1.1" xmlns="http://www.w3.org/2000/svg" xmlns:xlink="http://www.w3.org/1999/xlink" xml:space="preserve" xmlns:serif="http://www.serif.com/">
<g fill="#202020" transform="matrix(0.1,0,0,-0.1,0.4,154)">
<path d="M659,1140C548,1081 509,943 576,845C589,825 600,807 600,805C600,803 580,789 555,773C506,743 498,717 522,665C531,644 540,640 577,640C615,640 620,637 620,617C620,576 570,491 522,452C393,347 370,310 354,192L347,140L746,142L1145,145L1142,200C1137,276 1102,349 1050,391C955,468 930,494 906,543C892,571 880,604 880,617C880,637 885,640 919,640C965,640 980,655 987,707C991,743 989,746 946,773C921,789 900,803 900,805C900,807 911,825 924,844C993,946 945,1096 828,1144C778,1165 703,1163 659,1140Z"/>
</g></svg>