<?xml version="1.0" encoding="utf-8" standalone="no"?>
<svg version="1.1" xmlns="http://www.w3.org/2000/svg" xmlns:xlink="http://www.w3.org/1999/xlink" x="0px" y="0px" width="48px" height="48px" viewBox="0 0 48 48" enable-background="new 0 0 48 48" xml:space="preserve">
<path fill="#202020" d="M35.852,0.247H12.146C10.407,0.247,9,1.655,9,3.394v43.214c0,1.738,1.407,1.146,3.146,1.146h23.706 c1.738,0,3.148,0.593,3.148-1.146V3.394C39,1.655,37.59,0.247,35.852,0.247z M23.997,35.059c-1.319,0-2.39-1.071-2.39-2.388 c0-1.321,1.071-2.393,2.39-2.393c1.318,0,2.389,1.071,2.389,2.393C26.386,33.987,25.315,35.059,23.997,35.059z M34.58,22.394 c0,0.941-0.764,1.705-1.705,1.705H15.121c-0.939,0-1.702-0.763-1.702-1.705v-4.046c0-0.941,0.763-1.704,1.702-1.704h17.754 c0.941,0,1.705,0.763,1.705,1.704V22.394L34.58,22.394z M34.58,11.024c0,0.941-0.764,1.704-1.705,1.704H15.121 c-0.939,0-1.702-0.763-1.702-1.704V6.979c0-0.941,0.763-1.704,1.702-1.704h17.754c0.941,0,1.705,0.763,1.705,1.704V11.024 L34.58,11.024z"/>
</svg>