<?xml version="1.0" encoding="UTF-8" standalone="no"?>
<svg width="48px" height="48px" viewBox="0 0 12 12" version="1.1" xmlns="http://www.w3.org/2000/svg" xmlns:xlink="http://www.w3.org/1999/xlink" xml:space="preserve" xmlns:serif="http://www.serif.com/">
<path fill="#202020" d="M8.197,0.446c-0.279,-0.281 -0.734,-0.284 -1.017,-0.002c-0.075,0.074 -0.127,0.164 -0.163,0.254c-0.598,1.25 -1.256,1.952 -2.089,2.368c-0.931,0.462 -1.763,1.021 -3.49,1.021c-0.094,0 -0.186,0.019 -0.274,0.055c-0.176,0.072 -0.315,0.213 -0.39,0.389c-0.072,0.176 -0.072,0.374 0,0.549c0.036,0.088 0.09,0.169 0.156,0.234l2.094,2.095c0,0 -1.623,2.127 -2.66,3.485c-0.057,0.075 -0.05,0.179 0.016,0.246c0.067,0.066 0.171,0.073 0.246,0.016c1.358,-1.037 3.485,-2.66 3.485,-2.66l2.095,2.092c0.065,0.068 0.146,0.119 0.234,0.155c0.088,0.036 0.182,0.057 0.274,0.057c0.095,0 0.187,-0.021 0.275,-0.057c0.176,-0.074 0.317,-0.211 0.389,-0.389c0.036,-0.088 0.057,-0.182 0.057,-0.275c0,-1.726 0.559,-2.558 1.019,-3.476c0.414,-0.831 1.118,-1.49 2.368,-2.089c0.092,-0.036 0.18,-0.088 0.254,-0.162c0.279,-0.284 0.279,-0.736 -0.002,-1.018l-2.877,-2.888Z"/>
</svg>