<?xml version="1.0" encoding="UTF-8" standalone="no"?>
<svg version="1.1" xmlns="http://www.w3.org/2000/svg" xmlns:xlink="http://www.w3.org/1999/xlink" x="0px" y="0px" width="48px" height="48px" viewBox="0 0 48 48" enable-background="new 0 0 48 48" xml:space="preserve">
<g fill="#202020">
<circle cx="6.532" cy="6.784" r="5.054"/>
<path d="M10.166,20.91l17.18,17.178c-2.115-0.035-4.226-0.402-6.218-1.197c-0.8-0.151-4.016-0.672-5.243,0.557 c-2.809,2.807-5.374,6.643-6.78,8.047c-1.403,1.402-3.396,0.818-5.279-1.064c-1.884-1.888-2.426-3.919-1.064-5.28 c1.363-1.359,5.24-3.969,8.05-6.779c1.286-1.289,0.619-4.85,0.516-5.353C10.56,25.057,10.202,22.985,10.166,20.91z M41.413,6.838 c-8.352-8.355-19.331-5.433-26.167,1.404c-2.532,2.529-4.122,5.639-4.777,8.899l20.635,20.641 c3.261-0.656,6.373-2.244,8.901-4.772C46.846,26.169,49.774,15.195,41.413,6.838z"/>
</g></svg>