<svg version="1.1" xmlns="http://www.w3.org/2000/svg" xmlns:xlink="http://www.w3.org/1999/xlink" x="0px" y="0px" width="48px" height="48px" viewBox="0 0 48 48" enable-background="new 0 0 48 48" xml:space="preserve">
<g fill="#202020">
<path d="M29.677,1.709c0.001-0.246,0.2-0.443,0.445-0.443c1.128,0,4.12,0,5.57,0c0.454,0,0.826,0.357,0.846,0.812 c0.109,2.62,0.45,10.791,0.521,12.518c0.01,0.187-0.119,0.353-0.301,0.395c-1.12,0.254-4.938,1.122-6.509,1.479 c-0.166,0.039-0.339-0.002-0.472-0.108c-0.133-0.106-0.209-0.267-0.207-0.437C29.59,13.266,29.66,3.864,29.677,1.709z"/>
<path d="M9.866,1.266c-0.174,0-0.342,0.07-0.464,0.195C9.279,1.585,9.213,1.755,9.217,1.929 c0.055,2.44,0.242,10.92,0.305,13.76c0.005,0.23,0.113,0.447,0.294,0.589c0.181,0.143,0.416,0.198,0.642,0.15 c1.59-0.341,4.834-1.036,6.3-1.35c0.434-0.093,0.738-0.483,0.723-0.926c-0.081-2.436-0.333-9.978-0.408-12.239 c-0.013-0.36-0.309-0.647-0.668-0.647C14.933,1.266,11.353,1.266,9.866,1.266z"/>
<path d="M19.561,2.121c-0.001-0.226,0.086-0.443,0.247-0.604c0.159-0.161,0.376-0.251,0.602-0.251 c1.266,0,3.625,0,4.909,0c0.502,0,0.917,0.388,0.953,0.888c0.155,2.185,0.551,7.789,0.688,9.714 c0.026,0.377-0.234,0.713-0.604,0.783c-1.341,0.25-4.409,0.819-5.875,1.092c-0.201,0.038-0.409-0.016-0.567-0.146 s-0.25-0.324-0.252-0.528C19.64,10.791,19.582,4.435,19.561,2.121z"/>
<path d="M39.465,1.639c0-0.099,0.038-0.194,0.108-0.264c0.067-0.07,0.162-0.109,0.262-0.109c1.008,0,3.811,0,5.33,0 c0.571,0,1.051,0.436,1.105,1.005c0.225,2.34,0.779,8.108,0.972,10.12c0.04,0.405-0.226,0.775-0.622,0.869 c-1.47,0.346-4.897,1.153-6.361,1.498c-0.165,0.038-0.341,0-0.475-0.106c-0.133-0.104-0.211-0.265-0.214-0.435 C39.549,11.744,39.479,3.496,39.465,1.639z"/>
<path d="M20.607,25.787c0,0.09-0.019,0.175-0.021,0.263c2.615-0.447,5.503-0.943,6.672-1.144 c0.311-0.053,0.535-0.32,0.535-0.633c0-1.687,0-6.852,0-8.693c0-0.162-0.072-0.315-0.197-0.418c-0.128-0.102-0.292-0.143-0.451-0.11 c-1.849,0.379-7.316,1.499-12.135,2.487C18.285,18.849,20.607,22.049,20.607,25.787z"/>
<path d="M47.091,16.464c-0.002-0.177-0.086-0.342-0.229-0.447c-0.141-0.104-0.326-0.137-0.495-0.085 c-1.498,0.451-4.916,1.482-6.065,1.828c-0.244,0.073-0.443,0.25-0.545,0.484c-0.561,1.284-2.434,5.575-3.115,7.136 c-0.16,0.367-0.459,0.659-0.829,0.812c-2.156,0.892-9.86,4.075-15.146,6.257c2.417,2.447,3.826,5.77,3.826,9.377 c0,0.514-0.039,0.987-0.096,1.445c9.222,0.081,19.54,0.172,22.24,0.194c0.179,0.003,0.352-0.067,0.474-0.194 c0.128-0.125,0.199-0.296,0.197-0.474C47.275,39.009,47.122,20.438,47.091,16.464z"/>
<circle cx="11.721" cy="25.731" r="7.31"/>
<path d="M17.526,31.813c-1.2,2.129-3.349,2.891-5.807,2.891c-2.458,0-4.606-0.762-5.805-2.89 c-3.231,2.042-5.389,5.737-5.389,9.955c0,6.431,5.012,5.764,11.195,5.764c6.183,0,11.195,0.668,11.195-5.764 C22.916,37.551,20.757,33.854,17.526,31.813z"/>
</g></svg>