<?xml version="1.0" encoding="UTF-8" standalone="no"?>
<svg width="48px" height="48px" viewBox="0 0 150 150" version="1.1" xmlns="http://www.w3.org/2000/svg" xmlns:xlink="http://www.w3.org/1999/xlink" xml:space="preserve" xmlns:serif="http://www.serif.com/">
<g fill="#202020" transform="matrix(0.1,0,0,-0.1,-1.33962,154)">
<path d="M361,360C328,327 318,289 316,201L315.151,140L1190,140L1190,216C1190,304 1173,348 1131,373C1105,388 1064,390 747,390L392,390L361,360Z"/>
<path d="M515,1322C474,1297 459,1277 450,1235C439,1187 454,1138 491,1102L522,1072L514,946C511,877 505,820 503,820C500,820 479,841 456,867C416,910 414,916 423,946C431,971 429,986 414,1016C370,1107 267,1126 203,1057C142,990 154,902 232,851C262,832 275,811 310,726C333,671 372,577 397,518L442,410L1068,410L1156,625C1205,743 1250,840 1257,840C1264,840 1285,855 1303,874C1362,933 1359,1011 1295,1070C1274,1090 1258,1095 1215,1095C1172,1095 1156,1090 1135,1070C1097,1035 1077,985 1085,941C1090,908 1087,901 1047,861L1002,818L988,1070L1024,1110C1055,1144 1060,1157 1060,1198C1060,1307 962,1370 864,1324C796,1291 769,1199 810,1133L829,1101L793,1000C752,885 754,885 710,1016L681,1101L700,1133C772,1250 631,1393 515,1322Z"/>
</g></svg>