<svg version="1.1" xmlns="http://www.w3.org/2000/svg" xmlns:xlink="http://www.w3.org/1999/xlink" x="0px" y="0px" width="48px" height="48px" viewBox="0 0 48 48" enable-background="new 0 0 48 48" xml:space="preserve">
<g fill="#202020">
<path d="M47.895,24.803V13.784c0-1.537-1.244-2.783-2.781-2.783H2.783C1.246,11.001,0,12.247,0,13.784v11.019 c0,1.536,1.246,2.783,2.783,2.783h42.33c1.537,0,2.783-1.247,2.783-2.783H47.895z M9.698,24.094c0,0.741-0.6,1.34-1.34,1.34h-4.82 c-0.74,0-1.34-0.599-1.34-1.34v-9.602c0-0.74,0.6-1.34,1.34-1.34h4.82c0.74,0,1.34,0.6,1.34,1.34V24.094z M18.698,24.094 c0,0.741-0.6,1.34-1.34,1.34h-4.82c-0.74,0-1.34-0.599-1.34-1.34v-9.602c0-0.74,0.6-1.34,1.34-1.34h4.82c0.74,0,1.34,0.6,1.34,1.34 V24.094z M27.697,24.094c0,0.741-0.6,1.34-1.34,1.34h-4.819c-0.74,0-1.34-0.599-1.34-1.34v-9.602c0-0.74,0.6-1.34,1.34-1.34h4.819 c0.74,0,1.34,0.6,1.34,1.34V24.094z M36.697,24.094c0,0.741-0.6,1.34-1.34,1.34h-4.82c-0.738,0-1.34-0.599-1.34-1.34v-9.602 c0-0.74,0.602-1.34,1.34-1.34h4.82c0.74,0,1.34,0.6,1.34,1.34V24.094z M45.697,24.094c0,0.741-0.6,1.34-1.34,1.34h-4.82 c-0.738,0-1.34-0.599-1.34-1.34v-9.602c0-0.74,0.602-1.34,1.34-1.34h4.82c0.74,0,1.34,0.6,1.34,1.34V24.094z"/>
<rect x="2.198" y="27.156" width="29.344" height="2.906"/>
<rect x="33.416" y="27.25" width="12.281" height="2.813"/>
</g></svg>