<svg version="1.1" xmlns="http://www.w3.org/2000/svg" xmlns:xlink="http://www.w3.org/1999/xlink" x="0px" y="0px" width="48px" height="48px" viewBox="0 0 48 48" enable-background="new 0 0 48 48" xml:space="preserve">
<path fill="#202020" d="M44,0H4C1.79,0,0,1.79,0,4v40c0,2.21,1.79,4,4,4h40c2.21,0,4-1.79,4-4V4C48,1.79,46.21,0,44,0z M18.38,35.66 l-6.47,6.47L8.9,39.13l-3.01-3.01l3.46-3.46c1.9-1.9,3.46-3.61,3.46-3.77c0-0.18-1.56-1.86-3.46-3.76l-3.46-3.46l2.92-2.92 c1.63-1.63,3.01-2.95,3.1-2.95c0.3,0,12.94,12.79,12.94,13.09C24.85,29.07,21.93,32.11,18.38,35.66z M39.16,29.25l-2.92,2.95 l-6.62-6.62L23,18.96l6.53-6.53c3.61-3.61,6.59-6.56,6.62-6.56c0.12,0,5.66,5.78,5.75,5.96c0.03,0.12-1.42,1.72-3.25,3.52 c-1.81,1.81-3.31,3.49-3.31,3.76c0,0.24,1.53,1.96,3.37,3.82l3.4,3.4L39.16,29.25z"/>
</svg>