<svg version="1.1" xmlns="http://www.w3.org/2000/svg" xmlns:xlink="http://www.w3.org/1999/xlink" x="0px" y="0px" width="48px" height="48px" viewBox="0 0 48 48" enable-background="new 0 0 48 48" xml:space="preserve">
<path fill="#202020" d="M39.17,48H8.83c-4.62,0-4.72-0.1-4.72-4.8V8.05L12.03,0h27.14c4.79,0,4.721-0.07,4.721,4.8v38.4 C43.891,47.9,43.92,48,39.17,48z M11.668,39.99H6.663v3.04h5.005V39.99z M41.518,39.99H30.578v3.04h10.939V39.99z M28.613,39.99 h-14.98v3.04h14.98V39.99z M11.668,34.925H6.663v3.04h5.005V34.925z M41.518,34.925H30.578v3.04h10.939V34.925z M28.613,34.925 h-14.98v3.04h14.98V34.925z M11.668,29.92H6.663v3.04h5.005V29.92z M41.518,29.92H30.578v3.04h10.939V29.92z M28.613,29.92h-14.98 v3.04h14.98V29.92z M11.668,24.915H6.663v3.04h5.005V24.915z M41.518,24.915H30.578v3.04h10.939V24.915z M28.613,24.915h-14.98v3.04 h14.98V24.915z M11.668,19.91H6.663v3.04h5.005V19.91z M41.518,19.91H30.578v3.04h10.939V19.91z M28.613,19.91h-14.98v3.04h14.98 V19.91z M11.668,14.905H6.663v3.04h5.005V14.905z M41.518,14.905H30.578v3.04h10.939V14.905z M28.613,14.905h-14.98v3.04h14.98 V14.905z M13.91,9.97V2.44L6.43,9.97H13.91z"/>
</svg>