<?xml version="1.0" encoding="utf-8" standalone="no"?>
<svg version="1.1" xmlns="http://www.w3.org/2000/svg" xmlns:xlink="http://www.w3.org/1999/xlink" x="0px" y="0px" width="48px" height="48px" viewBox="0 0 48 48" enable-background="new 0 0 48 48" xml:space="preserve">
<path fill="#202020" d="M40.258,11.175c-0.854-1.063-1.73-1.959-2.879-2.938c-0.396-0.337-1.261-0.955-2.025-1.462 c0.658-0.944,1.317-1.889,1.976-2.833c0.209-0.299,0.015-0.773-0.369-0.784c-2.604-0.081-5.209-0.163-7.813-0.244 c-1.959-0.062-3.338-0.664-4.488,0.989c-1.214,1.74,0.072,3.128,0.854,5.002c0.93,2.226,1.857,4.45,2.786,6.675 c0.097,0.231,0.291,0.307,0.479,0.281c0.14,0.001,0.28-0.054,0.385-0.204c0.734-1.054,1.47-2.108,2.204-3.162 c2.534,1.335,4.339,3.532,5.592,6.631c1.487,3.675,1.345,7.792-0.396,11.344c-1.807,3.697-5.15,6.396-9.213,7.438 c-0.865,0.223-2.459,0.43-3.306,0.432c-2.441,0.002-4.563-0.53-6.784-1.707c-0.504-0.268-2.024-1.327-2.444-1.702 c-1.04-0.937-1.751-1.75-2.451-2.802c-1.447-2.172-2.248-4.674-2.336-7.287c-0.029-0.936,0.006-1.53,0.154-2.555 c0.071-0.48,0.12-0.928,0.11-0.999c-0.01-0.072-0.073-0.191-0.139-0.267c-0.165-0.19-4.967-3.539-5.237-3.652 c-0.152-0.066-0.212-0.068-0.312-0.011c-0.146,0.081-0.23,0.274-0.464,1.059c-0.894,2.979-1.129,5.703-0.766,8.798 c0.543,4.604,2.827,9.172,6.175,12.336c4.045,3.826,9.226,5.826,14.746,5.689c3.55-0.085,7.181-1.146,10.213-2.972 c6.091-3.674,9.954-10.151,10.259-17.201C44.984,20.023,43.374,15.064,40.258,11.175z"/>
</svg>