<?xml version="1.0" encoding="utf-8" standalone="no"?>
<svg version="1.1" xmlns="http://www.w3.org/2000/svg" xmlns:xlink="http://www.w3.org/1999/xlink" x="0px" y="0px" width="48px" height="48px" viewBox="0 0 48 48" enable-background="new 0 0 48 48" xml:space="preserve">
<path fill="#202020" d="M41.005,5.098h-9.89c-0.966-2.74-3.567-4.725-6.648-4.725c-3.084,0-5.682,1.984-6.651,4.725H7.928 c-2.61,0-4.725,2.115-4.725,4.726v33.077c0,2.61,2.115,4.725,4.725,4.725h33.077c2.609,0,4.726-2.114,4.726-4.725V9.824 C45.73,7.213,43.614,5.098,41.005,5.098z M24.467,5.098c1.299,0,2.362,1.051,2.362,2.363c0,1.311-1.063,2.363-2.362,2.363 c-1.3,0-2.362-1.052-2.362-2.363C22.104,6.149,23.167,5.098,24.467,5.098z M19.097,40.504L8.595,28.912l3.978-3.672l6.816,7.598 l18.186-14.962l3.518,4.108"/>
</svg>