<?xml version="1.0" encoding="UTF-8" standalone="no"?>
<svg width="48px" height="48px" viewBox="0 0 150 150" version="1.1" xmlns="http://www.w3.org/2000/svg" xmlns:xlink="http://www.w3.org/1999/xlink" xml:space="preserve" xmlns:serif="http://www.serif.com/">
<g fill="#202020" transform="matrix(0.1,0,0,-0.1,0,154)">
<path d="M361,364C325,334 310,287 310,203L310,140L1190,140L1190,203C1190,287 1175,334 1139,364L1108,390L392,390L361,364Z"/>
<path d="M645,1238C643,1231 637,1196 633,1160C626,1104 622,1095 603,1092C586,1089 581,1095 575,1122C571,1140 564,1172 558,1194L549,1232L500,1226C455,1220 393,1199 380,1186C374,1180 385,1028 395,970C400,947 416,921 444,895L486,855L460,635L435,415L592,412C679,411 821,411 908,412L1066,415L1040,635L1013,855L1056,895C1084,922 1100,947 1105,970C1115,1028 1126,1180 1120,1186C1107,1199 1045,1220 1000,1226L951,1232L942,1194C936,1172 929,1140 925,1122C919,1095 914,1089 897,1092C878,1095 874,1105 865,1170L855,1245L752,1248C676,1250 648,1247 645,1238Z"/>
</g></svg>