<svg width="48px" height="48px" viewBox="0 0 48 48" version="1.1" xmlns="http://www.w3.org/2000/svg" xmlns:xlink="http://www.w3.org/1999/xlink" xml:space="preserve" xmlns:serif="http://www.serif.com/" style="fill-rule:evenodd;clip-rule:evenodd;stroke-linejoin:round;stroke-miterlimit:2;">
<path fill="#202020" d="M24,0c13.246,0 24,10.754 24,24c0,13.246 -10.754,24 -24,24c-13.246,0 -24,-10.754 -24,-24c0,-13.246 10.754,-24 24,-24Zm2.921,36.363c0.037,0.25 0.254,0.433 0.504,0.433l4.067,0c0.187,0 0.35,0.112 0.42,0.283c0.071,0.171 0.034,0.367 -0.095,0.496c-1.659,1.658 -5.521,5.517 -7.125,7.125c-0.4,0.4 -1.05,0.4 -1.446,0c-1.584,-1.583 -5.35,-5.346 -7.046,-7.046c-0.146,-0.142 -0.188,-0.358 -0.108,-0.546c0.075,-0.187 0.258,-0.312 0.462,-0.312l3.929,0c0.267,0 0.496,-0.192 0.534,-0.459c0.229,-1.5 0.954,-5.229 1.17,-6.658c0.038,-0.237 0.242,-0.412 0.48,-0.412l2.545,0c0.271,0 0.5,0.195 0.542,0.462c0.229,1.496 0.946,5.179 1.167,6.633Zm9.983,-9.441c-0.25,0.037 -0.437,0.254 -0.437,0.504l0,4.067c0,0.187 -0.109,0.35 -0.28,0.421c-0.17,0.07 -0.366,0.033 -0.495,-0.096c-1.659,-1.659 -5.521,-5.521 -7.125,-7.125c-0.4,-0.4 -0.4,-1.05 0,-1.446c1.579,-1.583 5.345,-5.35 7.045,-7.046c0.142,-0.146 0.359,-0.187 0.546,-0.108c0.188,0.075 0.309,0.258 0.309,0.462l0,3.929c0,0.267 0.195,0.496 0.462,0.534c1.5,0.229 5.229,0.954 6.658,1.171c0.238,0.037 0.413,0.241 0.413,0.479l0,2.546c0,0.27 -0.196,0.5 -0.463,0.541c-1.5,0.229 -5.183,0.946 -6.633,1.167Zm-25.808,0c0.25,0.037 0.437,0.254 0.437,0.504l0,4.067c0,0.187 0.109,0.35 0.279,0.421c0.171,0.07 0.367,0.033 0.496,-0.096c1.659,-1.659 5.521,-5.521 7.125,-7.125c0.4,-0.4 0.4,-1.05 0,-1.446c-1.579,-1.583 -5.346,-5.35 -7.046,-7.046c-0.141,-0.146 -0.358,-0.187 -0.545,-0.108c-0.188,0.075 -0.309,0.258 -0.309,0.462l0,3.929c0,0.267 -0.196,0.496 -0.462,0.534c-1.5,0.229 -5.229,0.954 -6.659,1.171c-0.237,0.037 -0.412,0.241 -0.412,0.479l0,2.546c0,0.27 0.196,0.5 0.462,0.541c1.5,0.229 5.184,0.946 6.634,1.167Zm9.983,-15.283c-0.037,-0.25 -0.254,-0.434 -0.504,-0.434l-4.067,0c-0.187,0 -0.35,-0.112 -0.421,-0.283c-0.07,-0.171 -0.033,-0.367 0.096,-0.496c1.659,-1.658 5.521,-5.517 7.125,-7.125c0.4,-0.4 1.05,-0.4 1.446,0c1.583,1.583 5.35,5.346 7.046,7.046c0.146,0.142 0.187,0.358 0.108,0.546c-0.075,0.187 -0.258,0.312 -0.462,0.312l-3.929,0c-0.267,0 -0.496,0.192 -0.534,0.459c-0.229,1.5 -0.954,5.229 -1.171,6.658c-0.037,0.237 -0.241,0.412 -0.479,0.412l-2.546,0c-0.27,0 -0.5,-0.195 -0.541,-0.462c-0.229,-1.496 -0.946,-5.179 -1.167,-6.633Z"/>
</svg>