<svg version="1.1" xmlns="http://www.w3.org/2000/svg" xmlns:xlink="http://www.w3.org/1999/xlink" x="0px" y="0px" width="48px" height="48px" viewBox="0 0 48 48" enable-background="new 0 0 48 48" xml:space="preserve">
<g fill="#202020">
<path d="M44.951,17.61H3.048c-1.272,0-2.304,1.031-2.304,2.304v8.171c0,1.272,1.032,2.306,2.304,2.306h41.903 c1.271,0,2.305-1.031,2.305-2.306v-8.171C47.256,18.641,46.223,17.61,44.951,17.61z M12.796,28.297h-1.932v0.844H8.872v-0.844H7 v-3.438h5.796V28.297z M12.796,22.297h-1.932v0.844H8.872v-0.844H7v-3.438h5.796V22.297z M19.559,28.297h-1.932v0.844h-1.993 v-0.844h-1.872v-3.438h5.796L19.559,28.297L19.559,28.297z M19.559,22.297h-1.932v0.844h-1.993v-0.844h-1.872v-3.438h5.796 L19.559,22.297L19.559,22.297z M26.32,28.297h-1.932v0.844h-1.993v-0.844h-1.872v-3.438h5.795v3.438H26.32z M26.32,22.297h-1.932 v0.844h-1.993v-0.844h-1.872v-3.438h5.795v3.438H26.32z M33.083,28.297H31.15v0.844h-1.992v-0.844h-1.871v-3.438h5.796V28.297z  M33.083,22.297H31.15v0.844h-1.992v-0.844h-1.871v-3.438h5.796V22.297z M42,28.391c-0.92,0-1.666-0.746-1.666-1.666 S41.08,25.059,42,25.059s1.666,0.746,1.666,1.666S42.92,28.391,42,28.391z M42,22.942c-0.92,0-1.666-0.746-1.666-1.666 S41.08,19.61,42,19.61s1.666,0.746,1.666,1.666S42.92,22.942,42,22.942z"/>
<path d="M18.744,37.632c0-0.168,0.135-0.307,0.301-0.307c0.653,0,2.222,0,3.156,0c0.122,0,0.231-0.075,0.277-0.191 c0.046-0.114,0.019-0.248-0.068-0.335c-1.335-1.337-4.812-4.82-5.701-5.711c-0.116-0.115-0.302-0.115-0.418,0 c-0.889,0.891-4.366,4.374-5.701,5.711c-0.087,0.087-0.114,0.221-0.068,0.335c0.046,0.116,0.155,0.191,0.277,0.191 c0.934,0,2.503,0,3.156,0c0.166,0,0.3,0.139,0.3,0.307c0,1.188,0,5.485,0,6.907c0,0.123,0.047,0.238,0.131,0.326 C14.471,44.951,14.585,45,14.704,45c0.86,0,2.731,0,3.592,0c0.118,0,0.233-0.049,0.316-0.135c0.085-0.088,0.131-0.203,0.131-0.326 C18.744,43.117,18.744,38.82,18.744,37.632z"/>
<path d="M33.744,31.461c0-0.123-0.049-0.238-0.133-0.326C33.529,31.049,33.414,31,33.296,31 c-0.86,0-2.731,0-3.592,0c-0.119,0-0.233,0.049-0.317,0.135c-0.085,0.088-0.133,0.203-0.133,0.326c0,1.422,0,5.719,0,6.907 c0,0.168-0.134,0.307-0.299,0.307c-0.652,0-2.223,0-3.155,0c-0.122,0-0.231,0.075-0.276,0.191 c-0.047,0.114-0.021,0.248,0.066,0.335c1.335,1.337,4.813,4.82,5.7,5.711c0.117,0.115,0.303,0.115,0.419,0 c0.889-0.891,4.366-4.374,5.701-5.711c0.087-0.087,0.113-0.221,0.068-0.335c-0.047-0.116-0.156-0.191-0.278-0.191 c-0.935,0-2.503,0-3.155,0c-0.166,0-0.301-0.139-0.301-0.307C33.744,37.18,33.744,32.883,33.744,31.461z"/>
<path d="M18.544,2.961c0-0.123-0.046-0.24-0.131-0.327C18.329,2.549,18.214,2.5,18.096,2.5 c-0.861,0-2.732,0-3.592,0c-0.119,0-0.233,0.049-0.317,0.134c-0.084,0.087-0.131,0.204-0.131,0.327c0,1.421,0,5.718,0,6.907 c0,0.168-0.134,0.307-0.3,0.307c-0.652,0-2.222,0-3.156,0c-0.122,0-0.231,0.076-0.277,0.192c-0.046,0.115-0.019,0.248,0.068,0.334 c1.335,1.337,4.812,4.821,5.701,5.711c0.116,0.117,0.302,0.117,0.418,0c0.889-0.891,4.366-4.374,5.701-5.711 c0.087-0.087,0.114-0.22,0.068-0.334c-0.047-0.117-0.157-0.193-0.279-0.193c-0.934,0-2.503,0-3.156,0 c-0.166,0-0.301-0.138-0.301-0.307C18.544,8.679,18.544,4.382,18.544,2.961z"/>
<path d="M33.544,9.132c0-0.168,0.136-0.307,0.302-0.307c0.651,0,2.221,0,3.154,0c0.122,0,0.23-0.076,0.277-0.192 c0.046-0.115,0.02-0.248-0.067-0.334c-1.335-1.337-4.813-4.821-5.701-5.711c-0.116-0.117-0.302-0.117-0.419,0 c-0.889,0.891-4.365,4.374-5.699,5.711c-0.088,0.087-0.115,0.22-0.067,0.334c0.045,0.116,0.155,0.192,0.276,0.192 c0.935,0,2.504,0,3.155,0c0.165,0,0.3,0.138,0.3,0.307c0,1.188,0,5.485,0,6.907c0,0.123,0.047,0.24,0.133,0.327 c0.084,0.085,0.197,0.134,0.316,0.134c0.859,0,2.73,0,3.592,0c0.118,0,0.233-0.049,0.317-0.134 c0.083-0.087,0.131-0.204,0.131-0.327C33.544,14.618,33.544,10.321,33.544,9.132z"/>
</g></svg>