<svg version="1.1" xmlns="http://www.w3.org/2000/svg" xmlns:xlink="http://www.w3.org/1999/xlink" x="0px" y="0px" width="48px" height="48px" viewBox="0 0 48 48" enable-background="new 0 0 48 48" xml:space="preserve">
<g fill="#202020">
<rect x="10.667" y="10.667" width="26.667" height="26.667"/>
<polygon points="7.333,40.667 7.333,34 4,34 4,40.667 4,44 7.333,44 14,44 14,40.667"/>
<polygon points="14,4 7.333,4 4,4 4,7.333 4,14 7.333,14 7.333,7.333 14,7.333"/>
<polygon points="40.667,34 40.667,40.667 34,40.667 34,44 40.667,44 44,44 44,40.667 44,34"/>
<polygon points="40.667,4 34,4 34,7.333 40.667,7.333 40.667,14 44,14 44,7.333 44,4"/>
</g></svg>