<svg version="1.1" xmlns="http://www.w3.org/2000/svg" xmlns:xlink="http://www.w3.org/1999/xlink" x="0px" y="0px" width="48px" height="48px" viewBox="0 0 48 48" enable-background="new 0 0 48 48" xml:space="preserve">
<path fill="#202020" d="M39.17,0H12.03L4.11,8.05V43.2c0,4.7,0.1,4.8,4.72,4.8h30.34c4.75,0,4.721-0.1,4.721-4.8V4.8 C43.891-0.07,43.96,0,39.17,0z M24.04,13.29c-0.25-0.08-0.351-0.22-0.351-0.37c0-0.23,0.19-0.4,0.5-0.4 c0.141,0,0.271,0.03,0.351,0.07l-0.069,0.26c-0.051-0.03-0.16-0.07-0.271-0.07c-0.091,0-0.14,0.04-0.14,0.1s0.049,0.09,0.199,0.14 c0.23,0.08,0.33,0.2,0.33,0.38c0,0.23-0.18,0.4-0.529,0.4c-0.16,0-0.301-0.03-0.4-0.08l0.07-0.27c0.069,0.04,0.22,0.09,0.33,0.09 c0.119,0,0.16-0.04,0.16-0.1S24.18,13.34,24.04,13.29z M25.34,12.57c0.051-0.03,0.131-0.05,0.2-0.05c0.239,0,0.431,0.17,0.431,0.54 v0.72H25.6V13.1c0-0.16-0.06-0.27-0.199-0.27c-0.101,0-0.159,0.06-0.189,0.13c-0.01,0.02-0.01,0.06-0.01,0.08v0.73H24.82V12h0.369 v0.7C25.23,12.65,25.279,12.61,25.34,12.57z M25.4,27.83c-0.11,0-0.17,0.07-0.19,0.141C25.2,28,25.2,28.029,25.2,28.07v0.709h-0.38 V27.95c0-0.15-0.01-0.28-0.01-0.39h0.33l0.02,0.17h0.01c0.051-0.08,0.17-0.201,0.38-0.201c0.25,0,0.44,0.171,0.44,0.531v0.729H25.6 V28.1C25.6,27.939,25.54,27.83,25.4,27.83z M24.311,31.49c0.049,0,0.09,0,0.109-0.01v0.289c-0.05,0.021-0.141,0.029-0.25,0.029 c-0.12,0-0.22-0.04-0.29-0.109c-0.069-0.069-0.101-0.189-0.101-0.359v-0.5H23.62v-0.28h0.159v-0.271L24.15,30.2v0.35h0.27v0.28 h-0.27v0.439C24.16,31.42,24.2,31.49,24.311,31.49z M24.189,28.779v-0.01l-0.02-0.17h-0.01c-0.051,0.08-0.16,0.199-0.381,0.199 c-0.25,0-0.429-0.158-0.429-0.529v-0.721h0.38v0.66c0,0.182,0.06,0.29,0.189,0.29c0.1,0,0.17-0.069,0.189-0.13 c0.011-0.021,0.011-0.051,0.011-0.08v-0.729h0.38v0.83c0,0.158,0.01,0.289,0.01,0.389H24.189z M20.66,22.84v0.21h-0.51v-1.99h0.51 v0.21h-0.24v1.57H20.66z M19.41,28.65l0.08-0.291c0.1,0.061,0.25,0.111,0.42,0.111c0.14,0,0.24-0.052,0.24-0.16 c0-0.09-0.08-0.15-0.27-0.222c-0.27-0.09-0.45-0.21-0.45-0.46c0-0.22,0.15-0.39,0.42-0.449v-0.24h0.25v0.221 c0.17,0.01,0.28,0.04,0.36,0.08l-0.07,0.279c-0.06-0.029-0.18-0.09-0.36-0.09c-0.16,0-0.21,0.069-0.21,0.141 c0,0.08,0.09,0.13,0.3,0.209c0.3,0.111,0.42,0.24,0.42,0.471c0,0.221-0.16,0.41-0.45,0.46v0.25h-0.25v-0.239 C19.67,28.75,19.51,28.7,19.41,28.65z M18.94,22.52c0.13,0,0.23-0.02,0.34-0.05l0.05,0.26c-0.13,0.05-0.28,0.07-0.44,0.07 c-0.42,0-0.65-0.24-0.65-0.62c0-0.31,0.19-0.65,0.62-0.65c0.4,0,0.55,0.31,0.55,0.61c0,0.06-0.01,0.12-0.01,0.15h-0.8 C18.61,22.44,18.76,22.52,18.94,22.52z M18.94,31.5c0.09,0,0.16-0.02,0.22-0.04l0.05,0.28c-0.07,0.029-0.2,0.06-0.34,0.06 c-0.4,0-0.65-0.239-0.65-0.63c0-0.359,0.25-0.65,0.7-0.65c0.1,0,0.21,0.021,0.29,0.051l-0.06,0.279 c-0.05-0.02-0.11-0.039-0.21-0.039c-0.2,0-0.33,0.141-0.33,0.34C18.61,31.38,18.76,31.5,18.94,31.5z M17.86,33.83 c-0.1,0-0.17,0.07-0.19,0.141c-0.01,0.021-0.01,0.059-0.01,0.09v0.709h-0.38v-0.83c0-0.148-0.01-0.278-0.01-0.39h0.33l0.02,0.171 h0.01c0.05-0.08,0.18-0.201,0.38-0.201c0.25,0,0.44,0.17,0.44,0.53v0.729h-0.38V34.1C18.05,33.939,18,33.83,17.86,33.83z  M16.59,34.52c0.13,0,0.23-0.02,0.34-0.049l0.05,0.26c-0.13,0.049-0.28,0.08-0.44,0.08c-0.42,0-0.65-0.24-0.65-0.621 c0-0.31,0.19-0.648,0.62-0.648c0.4,0,0.55,0.311,0.55,0.609c0,0.07-0.01,0.119-0.01,0.149h-0.79 C16.26,34.439,16.41,34.52,16.59,34.52z M14.92,30.55v0.28h-0.24v0.939H14.3V30.83h-0.16v-0.28h0.16V30.5 c0-0.15,0.04-0.311,0.16-0.41c0.09-0.09,0.23-0.119,0.34-0.119c0.09,0,0.15,0.01,0.2,0.029l-0.01,0.29 c-0.03-0.011-0.07-0.021-0.12-0.021c-0.13,0-0.18,0.101-0.18,0.221v0.06H14.92z M14.77,25.77h-0.34l-0.02-0.18H14.4 c-0.08,0.141-0.23,0.21-0.38,0.21c-0.29,0-0.52-0.25-0.52-0.63c0-0.41,0.26-0.65,0.55-0.65c0.15,0,0.27,0.051,0.32,0.142V24h0.38 v1.41C14.76,25.55,14.76,25.689,14.77,25.77z M14.22,28.51c0.13,0,0.24-0.02,0.34-0.05l0.05,0.261 c-0.13,0.049-0.28,0.079-0.44,0.079c-0.42,0-0.65-0.239-0.65-0.62c-0.02-0.31,0.17-0.66,0.6-0.66c0.4,0,0.55,0.312,0.55,0.61 c0,0.07-0.01,0.12-0.01,0.149h-0.79C13.88,28.439,14.04,28.51,14.22,28.51z M13.76,30.4c-0.12,0-0.2-0.08-0.2-0.19 s0.08-0.19,0.2-0.19c0.12,0,0.2,0.08,0.2,0.19S13.88,30.4,13.76,30.4z M13.95,30.55v1.22h-0.38v-1.22H13.95z M13.62,33.55v-0.271 l0.37-0.079v0.35h0.27v0.28h-0.27v0.439c0,0.149,0.04,0.221,0.15,0.221c0.05,0,0.09,0,0.11-0.01v0.289 C14.2,34.79,14.11,34.8,14,34.8c-0.12,0-0.23-0.04-0.29-0.11c-0.07-0.068-0.1-0.188-0.1-0.358v-0.5h-0.16v-0.28L13.62,33.55 L13.62,33.55z M13.57,37.41V36h0.38v0.7c0.07-0.11,0.2-0.171,0.37-0.171c0.29,0,0.51,0.24,0.51,0.621c0,0.438-0.28,0.66-0.56,0.66 c-0.14,0-0.28-0.052-0.37-0.201l-0.02,0.17h-0.32C13.56,37.689,13.57,37.55,13.57,37.41z M14.82,28.17c0-0.359,0.25-0.65,0.7-0.65 c0.1,0,0.21,0.021,0.29,0.051l-0.06,0.279c-0.05-0.02-0.11-0.039-0.21-0.039c-0.2,0-0.33,0.141-0.33,0.34 c0,0.221,0.15,0.341,0.33,0.341c0.09,0,0.16-0.021,0.22-0.04l0.05,0.279c-0.07,0.029-0.2,0.061-0.34,0.061 C15.07,28.8,14.82,28.561,14.82,28.17z M16,21.57c0.06-0.03,0.13-0.05,0.2-0.05c0.24,0,0.43,0.17,0.43,0.54v0.72h-0.38V22.1 c0-0.16-0.06-0.27-0.2-0.27c-0.1,0-0.16,0.06-0.19,0.13c-0.01,0.02-0.01,0.06-0.01,0.08v0.73h-0.38V21h0.38v0.7 C15.89,21.65,15.94,21.61,16,21.57z M16.49,18.56v0.65c0,0.18,0.06,0.29,0.19,0.29c0.1,0,0.17-0.07,0.19-0.13 c0.01-0.02,0.01-0.05,0.01-0.08v-0.73h0.38v0.83c0,0.16,0.01,0.29,0.01,0.39h-0.33l-0.02-0.17h-0.01c-0.05,0.08-0.16,0.2-0.38,0.2 c-0.25,0-0.43-0.15-0.43-0.53v-0.72H16.49z M16.2,16.78v-0.01V15h0.38v1.78H16.2z M16.6,27.83c-0.1,0-0.16,0.07-0.19,0.13 c-0.01,0.021-0.01,0.06-0.01,0.08v0.729h-0.38V27h0.38v0.7c0.04-0.05,0.09-0.091,0.15-0.13c0.06-0.03,0.13-0.051,0.2-0.051 c0.24,0,0.43,0.17,0.43,0.541v0.719H16.8V28.1C16.8,27.939,16.74,27.83,16.6,27.83z M16.93,22.77v-1.22h0.38v1.22H16.93z  M17.12,21.4c-0.12,0-0.2-0.08-0.2-0.19s0.08-0.19,0.2-0.19s0.2,0.08,0.2,0.19S17.24,21.4,17.12,21.4z M17.07,15.4 c-0.12,0-0.2-0.08-0.2-0.19s0.08-0.19,0.2-0.19c0.12,0,0.2,0.08,0.2,0.19C17.28,15.32,17.2,15.4,17.07,15.4z M17.26,15.55v1.22 h-0.38v-1.22H17.26z M15.64,24.52c0.38,0,0.63,0.26,0.63,0.631c0,0.449-0.32,0.649-0.65,0.649c-0.36,0-0.63-0.239-0.63-0.63 S15.25,24.52,15.64,24.52z M15.63,30.061h0.51v0.209H15.9v1.57h0.24v0.21h-0.51V30.061z M16.89,31.65l0.08-0.291 c0.1,0.061,0.25,0.111,0.42,0.111c0.14,0,0.24-0.052,0.24-0.16c0-0.09-0.08-0.15-0.27-0.222c-0.27-0.09-0.45-0.21-0.45-0.46 c0-0.22,0.15-0.39,0.42-0.449v-0.24h0.25v0.221c0.17,0.01,0.28,0.04,0.36,0.08l-0.07,0.279c-0.07-0.029-0.18-0.09-0.36-0.09 c-0.16,0-0.22,0.069-0.22,0.141c0,0.08,0.09,0.13,0.3,0.209c0.3,0.111,0.42,0.24,0.42,0.471c0,0.221-0.16,0.41-0.45,0.46v0.25 h-0.25v-0.239C17.14,31.75,16.98,31.7,16.89,31.65z M18.16,18.83c-0.1,0-0.17,0.07-0.19,0.14c-0.01,0.02-0.01,0.06-0.01,0.1v0.71 h-0.38v-0.83c0-0.15-0.01-0.28-0.01-0.39h0.33l0.02,0.17h0.01c0.05-0.08,0.18-0.19,0.38-0.19c0.25,0,0.44,0.17,0.44,0.53v0.73 h-0.38v-0.7C18.35,18.94,18.29,18.83,18.16,18.83z M18,21v1.78h-0.38V21H18z M18.06,27.52c0.38,0,0.63,0.26,0.63,0.631 c0,0.449-0.32,0.649-0.65,0.649c-0.36,0-0.63-0.239-0.63-0.63S17.67,27.52,18.06,27.52z M21.25,15.55v0.28h-0.27v0.44 c0,0.15,0.04,0.22,0.15,0.22c0.05,0,0.09,0,0.11-0.01v0.29c-0.05,0.02-0.14,0.03-0.25,0.03c-0.12,0-0.23-0.04-0.29-0.1 c-0.07-0.07-0.1-0.19-0.1-0.36v-0.5h-0.16v-0.28h0.16v-0.27l0.37-0.09v0.35H21.25z M21.17,18.73v0.23h-1.29v-0.23H21.17z M20.3,15.96h-1.29v-0.23h1.29V15.96z M20.3,16.25v0.23h-1.29v-0.23H20.3z M19.07,18.55v-0.27l0.37-0.09v0.35h0.27v0.28h-0.27v0.44 c0,0.15,0.04,0.22,0.15,0.22c0.05,0,0.09,0,0.11-0.01v0.29c-0.05,0.02-0.14,0.03-0.25,0.03c-0.11,0.01-0.21-0.03-0.27-0.1 c-0.07-0.07-0.11-0.19-0.11-0.36v-0.5h-0.16v-0.28H19.07z M19.88,19.48v-0.23h1.29v0.23H19.88z M21.45,27.52 c0.1,0,0.21,0.021,0.29,0.051l-0.06,0.279c-0.05-0.02-0.11-0.039-0.21-0.039c-0.2,0-0.33,0.141-0.33,0.34 c0,0.221,0.15,0.341,0.33,0.341c0.09,0,0.16-0.021,0.22-0.04l0.04,0.279c-0.07,0.029-0.19,0.061-0.34,0.061 c-0.4,0-0.65-0.24-0.65-0.63C20.75,27.82,20.99,27.52,21.45,27.52z M21.87,22.09c-0.27-0.09-0.45-0.22-0.45-0.46 c0-0.22,0.15-0.39,0.42-0.45v-0.24h0.25v0.22c0.17,0.01,0.28,0.04,0.36,0.08l-0.07,0.28c-0.06-0.03-0.18-0.08-0.36-0.08 c-0.16,0-0.21,0.07-0.21,0.14c0,0.08,0.09,0.14,0.3,0.22c0.3,0.1,0.42,0.24,0.42,0.47c0,0.22-0.16,0.41-0.45,0.46v0.26h-0.25v-0.24 c-0.17-0.01-0.33-0.05-0.43-0.11l0.08-0.29c0.1,0.06,0.25,0.11,0.42,0.11c0.14,0,0.24-0.05,0.24-0.15 C22.13,22.21,22.05,22.15,21.87,22.09z M20.82,30.55h0.01h0.38v0.66c0,0.181,0.06,0.29,0.19,0.29c0.1,0,0.17-0.07,0.19-0.13 c0.01-0.021,0.01-0.05,0.01-0.08v-0.729h0.38v0.83c0,0.159,0,0.289,0.01,0.389h-0.33l-0.02-0.17h-0.01 c-0.05,0.08-0.16,0.201-0.38,0.201c-0.25,0-0.43-0.16-0.43-0.531V30.55z M21.85,28.17c0-0.391,0.26-0.65,0.65-0.65 c0.38,0,0.63,0.26,0.63,0.631c0,0.449-0.32,0.649-0.65,0.649C22.12,28.8,21.85,28.57,21.85,28.17z M23.12,22.77l-0.45-1.22h0.41 l0.17,0.57c0.03,0.1,0.05,0.2,0.07,0.3h0.01c0.02-0.1,0.04-0.19,0.07-0.3l0.161-0.57h0.399l-0.46,1.22H23.12z M24.43,22.8 c-0.25,0-0.4-0.18-0.4-0.38c0-0.32,0.291-0.47,0.721-0.47v-0.02c0-0.06-0.04-0.16-0.222-0.16c-0.128,0-0.259,0.04-0.339,0.09 l-0.069-0.25c0.09-0.05,0.25-0.11,0.479-0.11c0.41,0,0.541,0.24,0.541,0.53v0.43c0,0.12,0.01,0.23,0.021,0.3H24.82L24.8,22.64 h-0.01C24.7,22.75,24.57,22.8,24.43,22.8z M25.43,22.78v-0.01V21h0.381v1.78H25.43z M24.971,16.14c0,0.06-0.011,0.12-0.011,0.15 h-0.79c0,0.15,0.16,0.23,0.33,0.23c0.13,0,0.24-0.02,0.34-0.05l0.051,0.26c-0.131,0.05-0.281,0.07-0.439,0.07 c-0.421,0-0.65-0.24-0.65-0.62c0-0.31,0.19-0.65,0.62-0.65C24.82,15.53,24.971,15.84,24.971,16.14z M23.57,16.77h-0.33l-0.02-0.17 h-0.01c-0.05,0.08-0.16,0.2-0.38,0.2c-0.25,0-0.43-0.15-0.43-0.53v-0.72h0.38v0.66c0,0.18,0.06,0.29,0.19,0.29 c0.1,0,0.17-0.07,0.19-0.13c0.01-0.02,0.01-0.05,0.01-0.08v-0.73h0.38v0.83C23.561,16.54,23.57,16.67,23.57,16.77z M23.04,12.95 v-0.02c0.01-0.05-0.03-0.15-0.22-0.15c-0.13,0-0.26,0.04-0.34,0.09l-0.07-0.25c0.08-0.05,0.25-0.11,0.48-0.11 c0.41,0,0.54,0.24,0.54,0.53v0.43c0,0.12,0,0.23,0.02,0.3H23.1l-0.02-0.12h-0.01c-0.08,0.1-0.21,0.15-0.35,0.15 c-0.25,0-0.4-0.18-0.4-0.38C22.32,13.1,22.61,12.95,23.04,12.95z M22.23,19.77h-0.37v-1.29h-0.01l-0.31,0.15l-0.06-0.29l0.43-0.2 h0.32V19.77z M22.22,15.89c-0.03-0.01-0.06-0.01-0.1-0.01c-0.14,0-0.24,0.08-0.26,0.19c0,0.02-0.01,0.06-0.01,0.08v0.62h-0.38 v-0.82c0-0.18-0.01-0.3-0.01-0.4h0.33l0.01,0.23h0.01c0.06-0.18,0.21-0.25,0.33-0.25c0.04,0,0.05,0,0.08,0V15.89z M20.91,13.41V12 h0.38v0.7c0.07-0.1,0.2-0.17,0.37-0.17c0.29,0,0.51,0.24,0.51,0.62c0,0.44-0.28,0.66-0.56,0.66c-0.14,0-0.28-0.05-0.37-0.2 l-0.02,0.17H20.9C20.91,13.69,20.91,13.55,20.91,13.41z M20.51,12.06h0.25l-0.54,1.81h-0.25L20.51,12.06z M18.94,12.56v-0.01 l0.02,0.17h0.01c0.05-0.08,0.18-0.19,0.38-0.19c0.25,0,0.44,0.17,0.44,0.53v0.73H19.4V13.1c0-0.16-0.06-0.27-0.19-0.27 c-0.1,0-0.17,0.07-0.19,0.14C19.01,13,19,13.03,19,13.07v0.71h-0.38v-0.83c0-0.15-0.01-0.28-0.01-0.39H18.94z M18.38,15h0.38v1.41 c0,0.14,0,0.28,0.01,0.37h-0.34l-0.02-0.18H18.4c-0.08,0.14-0.23,0.21-0.38,0.21c-0.29,0-0.52-0.25-0.52-0.63 c0-0.41,0.26-0.65,0.55-0.65c0.15-0.01,0.26,0.05,0.33,0.13V15z M17.94,13.77v-1.22h0.38v1.22H17.94z M18.13,12.02 c0.12,0,0.2,0.08,0.2,0.19c0,0.1-0.08,0.19-0.21,0.19c-0.12,0-0.2-0.08-0.2-0.19S18,12.02,18.13,12.02z M16.44,13.41V12h0.38v0.7 c0.07-0.1,0.2-0.17,0.37-0.17c0.29,0,0.51,0.24,0.51,0.62c0,0.44-0.28,0.66-0.56,0.66c-0.14,0-0.28-0.05-0.37-0.2l-0.02,0.17h-0.32 C16.44,13.69,16.44,13.55,16.44,13.41z M16.04,12.06h0.25l-0.54,1.81H15.5L16.04,12.06z M15.32,12.09l-0.06,1.13h-0.29l-0.06-1.13 H15.32z M15.13,13.35c0.13,0,0.22,0.09,0.22,0.23c0,0.13-0.09,0.23-0.22,0.23c-0.14,0-0.23-0.1-0.23-0.23 C14.9,13.44,14.99,13.35,15.13,13.35z M15.52,15.95v-0.02c-0.01-0.05-0.04-0.15-0.23-0.15c-0.13,0-0.26,0.04-0.34,0.09l-0.07-0.25 c0.08-0.05,0.25-0.11,0.48-0.11c0.41,0,0.54,0.24,0.54,0.53v0.43c0,0.12,0,0.23,0.02,0.3h-0.34l-0.02-0.12h-0.01 c-0.08,0.1-0.21,0.15-0.35,0.15c-0.25,0-0.4-0.18-0.4-0.38C14.8,16.1,15.09,15.95,15.52,15.95z M15.25,18.52 c0.38,0,0.63,0.26,0.63,0.63c0,0.45-0.32,0.65-0.65,0.65c-0.36,0-0.63-0.23-0.63-0.63S14.86,18.52,15.25,18.52z M14.27,16.77h-0.38 l-0.45-1.22h0.41l0.17,0.57c0.03,0.1,0.05,0.2,0.07,0.3h0.01c0.02-0.1,0.04-0.19,0.07-0.3l0.16-0.57h0.4L14.27,16.77z M14.22,19.5 c0.09,0,0.16-0.01,0.22-0.04l0.04,0.28c-0.07,0.03-0.19,0.06-0.34,0.06c-0.4,0-0.65-0.24-0.65-0.63c0-0.36,0.25-0.65,0.7-0.65 c0.1,0,0.21,0.02,0.29,0.05l-0.06,0.28c-0.05-0.02-0.11-0.04-0.21-0.04c-0.2,0-0.33,0.14-0.33,0.34 C13.89,19.38,14.04,19.5,14.22,19.5z M14.28,12.59v-0.01l0.06-0.44h0.22l-0.06,0.44h0.2v0.23h-0.24l-0.04,0.28h0.21v0.23h-0.25 l-0.06,0.45H14.1l0.06-0.45h-0.23l-0.06,0.45h-0.23l0.07-0.45h-0.2V13.1h0.24l0.04-0.28h-0.21v-0.23h0.25l0.06-0.44h0.22 l-0.06,0.44H14.28z M6.43,9.97l7.48-7.53v7.53H6.43z M13.83,21.55l0.1,0.5c0.02,0.13,0.05,0.26,0.07,0.4 c0.03-0.14,0.06-0.28,0.09-0.4l0.13-0.5h0.3l0.12,0.49c0.03,0.14,0.07,0.28,0.09,0.42c0.02-0.14,0.04-0.28,0.07-0.42l0.1-0.49h0.37 l-0.38,1.22h-0.36l-0.12-0.43c-0.03-0.12-0.05-0.23-0.08-0.38c-0.02,0.15-0.05,0.27-0.08,0.38l-0.12,0.43H13.8l-0.36-1.22H13.83z M13.45,39.55h0.16V39.5c0-0.34,0.26-0.529,0.64-0.529c0.13,0,0.29,0.029,0.36,0.079l-0.07,0.29c-0.06-0.029-0.16-0.061-0.28-0.061 c-0.2,0-0.27,0.101-0.27,0.24v0.041h0.74v1.219h-0.38V39.84h-0.36v0.939h-0.38V39.84h-0.16V39.55z M14.12,44.061h-0.27 c-0.14-0.189-0.29-0.531-0.29-1.011c0-0.489,0.15-0.819,0.29-1.01h0.27c-0.14,0.229-0.25,0.569-0.25,1.01 C13.86,43.5,13.98,43.83,14.12,44.061z M14.9,44.061h-0.27c-0.14-0.189-0.29-0.531-0.29-1.011c0-0.489,0.15-0.819,0.29-1.01h0.27 c-0.14,0.229-0.25,0.569-0.25,1.01C14.65,43.5,14.76,43.83,14.9,44.061z M14.88,33.96c-0.01,0.021-0.01,0.06-0.01,0.08v0.729h-0.38 V33h0.38v0.7c0.04-0.05,0.09-0.091,0.15-0.13c0.06-0.03,0.13-0.051,0.2-0.051c0.24,0,0.43,0.17,0.43,0.541v0.719h-0.38V34.1 c0-0.16-0.06-0.27-0.2-0.27C14.97,33.83,14.91,33.9,14.88,33.96z M15.38,36.55l0.01,0.229h0.01c0.06-0.18,0.21-0.25,0.33-0.25 c0.04,0,0.05,0,0.08,0v0.361c-0.03,0-0.06-0.012-0.1-0.012c-0.14,0-0.24,0.08-0.26,0.189c0,0.029-0.01,0.061-0.01,0.091v0.618 h-0.38V36.96c0-0.19,0-0.3-0.01-0.41H15.38z M15.79,43.5c0.09,0,0.16-0.02,0.22-0.04l0.04,0.28c-0.07,0.029-0.19,0.06-0.34,0.06 c-0.4,0-0.65-0.239-0.65-0.63c0-0.359,0.25-0.65,0.7-0.65c0.1,0,0.21,0.021,0.29,0.051L16,42.85c-0.05-0.02-0.11-0.039-0.21-0.039 c-0.2,0-0.33,0.141-0.33,0.34C15.46,43.38,15.61,43.5,15.79,43.5z M15.92,37.18c0-0.31,0.19-0.65,0.62-0.65 c0.4,0,0.55,0.312,0.55,0.611c0,0.069-0.01,0.119-0.01,0.149h-0.79c0.01,0.16,0.17,0.229,0.35,0.229c0.13,0,0.23-0.021,0.34-0.049 l0.05,0.26c-0.13,0.049-0.28,0.08-0.44,0.08C16.16,37.8,15.92,37.561,15.92,37.18z M16.8,43.8c-0.36,0-0.63-0.239-0.63-0.63 s0.26-0.65,0.65-0.65c0.38,0,0.63,0.26,0.63,0.631C17.45,43.6,17.13,43.8,16.8,43.8z M17.23,37.43c0-0.32,0.29-0.47,0.72-0.47 v-0.021c0-0.069-0.03-0.16-0.22-0.16c-0.13,0-0.26,0.041-0.34,0.091l-0.07-0.25c0.08-0.05,0.25-0.11,0.48-0.11 c0.41,0,0.54,0.24,0.54,0.53v0.431c0,0.119,0,0.229,0.02,0.299h-0.34L18,37.65h-0.01c-0.08,0.1-0.21,0.148-0.35,0.148 C17.38,37.8,17.23,37.62,17.23,37.43z M18.52,43.779v-0.01L18.5,43.6h-0.01c-0.05,0.08-0.16,0.2-0.38,0.2 c-0.25,0-0.43-0.159-0.43-0.53v-0.72h0.38v0.66c0,0.181,0.06,0.29,0.19,0.29c0.1,0,0.17-0.07,0.19-0.13 c0.01-0.021,0.01-0.05,0.01-0.08v-0.729h0.38v0.83c0,0.159,0.01,0.289,0.01,0.389H18.52L18.52,43.779z M19.01,37.391v0.379h-0.38 V36h0.38v1.07c0.03-0.051,0.06-0.1,0.09-0.15l0.25-0.37h0.46l-0.44,0.5l0.5,0.729H19.4l-0.29-0.5L19.01,37.391z M20.32,43.77H20.3 h-0.38V43.1c0-0.16-0.06-0.27-0.19-0.27c-0.1,0-0.17,0.07-0.19,0.141c-0.01,0.021-0.01,0.059-0.01,0.09v0.709h-0.38v-0.83 c0-0.148-0.01-0.278-0.01-0.39h0.33l0.02,0.171h0.01c0.05-0.08,0.18-0.201,0.38-0.201c0.25,0,0.44,0.17,0.44,0.53V43.77z M19.95,31.8c-0.36,0-0.63-0.239-0.63-0.63s0.26-0.65,0.65-0.65c0.38,0,0.63,0.26,0.63,0.631C20.6,31.6,20.28,31.8,19.95,31.8z M21.28,43.77c-0.05,0.021-0.14,0.03-0.25,0.03c-0.12,0-0.23-0.04-0.29-0.11c-0.07-0.068-0.11-0.188-0.11-0.358v-0.5h-0.16v-0.28 h0.16v-0.271L21,42.2v0.35h0.27v0.28h-0.25v0.439c0,0.149,0.04,0.221,0.15,0.221c0.05,0,0.09,0,0.11-0.01V43.77z M22.75,43.221 h-0.52v0.549h-0.25v-0.549h-0.52v-0.24h0.52v-0.541h0.25v0.541h0.52V43.221z M22.68,30.971c-0.01,0.021-0.01,0.059-0.01,0.09v0.709 h-0.38v-0.83c0-0.148-0.01-0.278-0.01-0.39h0.33l0.02,0.171h0.01c0.05-0.08,0.18-0.201,0.38-0.201c0.25,0,0.44,0.17,0.44,0.53 v0.729h-0.38V31.1c0-0.16-0.06-0.27-0.19-0.27C22.77,30.83,22.71,30.9,22.68,30.971z M24.24,43.221h-0.52v0.549h-0.25v-0.549h-0.52 v-0.24h0.52v-0.541h0.25v0.541h0.52V43.221z M24.689,44.061h-0.271c0.142-0.229,0.25-0.569,0.25-1.011c0-0.44-0.108-0.78-0.25-1.01 h0.271c0.131,0.19,0.291,0.521,0.291,1.01C24.971,43.54,24.82,43.87,24.689,44.061z M25.08,30.99h0.66v0.25h-0.66V30.99z M25.471,44.061H25.2c0.14-0.229,0.25-0.569,0.25-1.011c0-0.44-0.11-0.78-0.25-1.01h0.271c0.129,0.19,0.289,0.521,0.289,1.01 C25.75,43.54,25.6,43.87,25.471,44.061z M27.09,31.279H26.3c0.011,0.16,0.171,0.229,0.351,0.229c0.129,0,0.24-0.02,0.341-0.05 l0.05,0.262C26.91,31.77,26.76,31.8,26.6,31.8c-0.42,0-0.648-0.239-0.648-0.62c0-0.31,0.189-0.65,0.619-0.65 c0.4,0,0.539,0.312,0.539,0.611C27.1,31.2,27.09,31.26,27.09,31.279z M26.96,27.55v0.28h-0.271v0.439 c0,0.149,0.041,0.221,0.149,0.221c0.052,0,0.08,0,0.11-0.01v0.289c-0.051,0.021-0.141,0.029-0.25,0.029 c-0.12,0-0.229-0.04-0.29-0.109C26.34,28.62,26.3,28.5,26.3,28.33v-0.5h-0.159v-0.28H26.3v-0.271l0.37-0.079v0.35H26.96z M27.99,22.78h-0.34L27.63,22.6c-0.08,0.14-0.229,0.21-0.38,0.21c-0.29,0-0.52-0.25-0.52-0.63c0-0.42,0.26-0.66,0.549-0.66 c0.15,0,0.271,0.05,0.32,0.14V21h0.381v1.41C27.98,22.55,27.99,22.69,27.99,22.78z M26.12,22.77v-1.22h0.38v1.22H26.12z M26.3,21.4 c-0.12,0-0.2-0.08-0.2-0.19c0.01-0.11,0.09-0.19,0.211-0.19c0.119,0,0.199,0.08,0.199,0.19C26.51,21.31,26.43,21.4,26.3,21.4z M28.51,30.92v1.35h-0.38V31.62h-0.01c-0.08,0.12-0.2,0.18-0.36,0.18c-0.27,0-0.51-0.229-0.51-0.62c0-0.438,0.279-0.66,0.54-0.66 c0.16,0,0.271,0.062,0.34,0.17h0.011l0.01-0.14h0.369C28.52,30.67,28.51,30.79,28.51,30.92z M26.979,6.325 c-1.301,0-2.354-1.054-2.354-2.355c0-1.301,1.056-2.356,2.354-2.356c1.301,0,2.355,1.055,2.355,2.356 C29.335,5.271,28.279,6.325,26.979,6.325z M29.26,23.05h-0.51v-0.21h0.24v-1.58h-0.24v-0.21h0.51V23.05z M29.721,31.8 c-0.201,0-0.361-0.04-0.451-0.09l0.07-0.29c0.07,0.04,0.221,0.08,0.37,0.08c0.16,0,0.319-0.08,0.319-0.25s-0.129-0.27-0.459-0.27 c-0.09,0-0.15,0-0.221,0.01l0.109-0.85h0.898v0.31H29.73l-0.041,0.25c0.041,0,0.069,0,0.109,0c0.15,0,0.311,0.04,0.432,0.12 c0.119,0.08,0.199,0.22,0.199,0.41C30.42,31.529,30.16,31.8,29.721,31.8z M31.67,32.05h-0.51v-0.21h0.24v-1.58h-0.24v-0.21h0.51 V32.05z M32.1,32.05l-0.25,0.021c0.08-0.221,0.15-0.479,0.18-0.711l0.382-0.02C32.33,31.59,32.221,31.85,32.1,32.05z M32.21,30.99 c-0.13,0-0.229-0.1-0.22-0.23c0-0.13,0.09-0.23,0.22-0.23s0.22,0.092,0.22,0.23C32.43,30.9,32.34,30.99,32.21,30.99z M32.979,6.325 c-1.301,0-2.354-1.054-2.354-2.355c0-1.301,1.056-2.356,2.354-2.356c1.301,0,2.355,1.055,2.355,2.356 C35.335,5.271,34.279,6.325,32.979,6.325z M38.979,6.325c-1.301,0-2.354-1.054-2.354-2.355c0-1.301,1.056-2.356,2.354-2.356 c1.301,0,2.355,1.055,2.355,2.356C41.335,5.271,40.279,6.325,38.979,6.325z"/>
</svg>