<?xml version="1.0" encoding="UTF-8" standalone="no"?>
<svg version="1.1" xmlns="http://www.w3.org/2000/svg" xmlns:xlink="http://www.w3.org/1999/xlink" x="0px" y="0px" width="48px" height="48px" viewBox="0 0 48 48" enable-background="new 0 0 48 48" xml:space="preserve">
<path d="M39.17,48L8.83,48C4.21,48 4.11,47.9 4.11,43.2L4.11,8.05L12.03,0L39.17,0C43.96,0 43.891,-0.07 43.891,4.8L43.891,43.2C43.891,47.9 43.92,48 39.17,48ZM24.693,36.791C24.693,36.791 21.792,37.256 21.26,36.108C21.051,35.657 21.177,35.106 21.349,34.621C22.28,31.986 24.634,29.866 27.057,28.228C28.789,27.079 30.98,25.971 31.57,24.066C32.645,20.599 27.48,19.192 23.488,18.973L23.488,16.418C23.488,15.866 23.04,15.418 22.488,15.418C19.977,15.418 13.432,15.418 10.961,15.418C10.429,15.418 9.997,15.849 9.997,16.381C9.997,17.875 9.997,20.732 9.997,22.247C9.997,22.799 10.445,23.247 10.997,23.247C13.496,23.247 19.99,23.247 22.488,23.247C23.04,23.247 23.488,22.799 23.488,22.247L23.488,19.972C25.875,20.091 28.313,20.57 29.959,22C31.771,23.575 29.677,25.348 27.998,26.46C27.822,26.573 27.822,26.573 27.646,26.684C24.592,28.555 21.061,31.285 20.249,34.823C19.857,36.532 21.279,37.709 22.651,37.836C23.477,37.912 24.693,37.703 24.693,37.703L24.693,39.652C24.693,40.205 25.14,40.652 25.693,40.652C28.191,40.652 34.685,40.652 37.183,40.652C37.735,40.652 38.183,40.205 38.183,39.652C38.183,38.15 38.183,35.326 38.183,33.823C38.183,33.271 37.735,32.823 37.183,32.823C34.672,32.823 28.127,32.823 25.656,32.823C25.124,32.823 24.693,33.255 24.693,33.787L24.693,36.791ZM13.91,9.97L13.91,2.44L6.43,9.97L13.91,9.97Z" style="fill:rgb(32,32,32);fill-rule:nonzero;"/>
</svg>