<svg width="48px" height="48px" viewBox="0 0 48 48" version="1.1" xmlns="http://www.w3.org/2000/svg" xmlns:xlink="http://www.w3.org/1999/xlink" xml:space="preserve" xmlns:serif="http://www.serif.com/">
<path fill="#202002" d="M43.616,12.807c-0.198,-0.011 -0.413,0 -0.634,0.029l-38.185,-0c-3.451,-0 -4.329,2.569 -4.763,6.06c-0.234,3.483 3.753,13.884 3.753,13.884c0.554,1.702 1.682,2.47 3.608,2.396l34.257,-0c1.614,0.086 2.555,-0.722 2.861,-2.079c-0,0 3.831,-11.17 3.462,-14.69c-0.261,-2.046 -1.346,-5.513 -4.359,-5.6Zm-3.351,6.119c0.919,0 1.675,0.759 1.675,1.675c0,0.917 -0.756,1.645 -1.675,1.645c-0.915,0 -1.643,-0.728 -1.643,-1.645c0,-0.916 0.728,-1.675 1.643,-1.675Zm-32.525,0.115c0.916,0 1.645,0.759 1.645,1.674c0,0.917 -0.729,1.646 -1.645,1.646c-0.915,0 -1.673,-0.729 -1.673,-1.646c-0,-0.915 0.758,-1.674 1.673,-1.674Zm8.141,0c0.915,0 1.644,0.759 1.644,1.674c0,0.917 -0.729,1.646 -1.644,1.646c-0.917,0 -1.676,-0.729 -1.676,-1.646c0,-0.915 0.759,-1.674 1.676,-1.674Zm8.138,0c0.913,0 1.646,0.759 1.646,1.674c0,0.917 -0.731,1.646 -1.646,1.646c-0.915,0 -1.673,-0.729 -1.673,-1.646c-0,-0.915 0.758,-1.674 1.673,-1.674Zm8.11,0c0.915,0 1.677,0.759 1.677,1.674c-0,0.917 -0.762,1.646 -1.677,1.646c-0.915,0 -1.643,-0.729 -1.643,-1.646c-0.002,-0.915 0.728,-1.674 1.643,-1.674Zm-19.828,6.698c0.917,-0 1.676,0.758 1.676,1.673c-0,0.919 -0.759,1.645 -1.676,1.645c-0.915,-0 -1.644,-0.726 -1.644,-1.645c-0,-0.915 0.728,-1.673 1.644,-1.673Zm8.139,-0c0.915,-0 1.673,0.758 1.673,1.673c0,0.919 -0.758,1.645 -1.673,1.645c-0.915,-0 -1.645,-0.726 -1.645,-1.645c0,-0.915 0.73,-1.673 1.645,-1.673Zm8.138,-0c0.919,-0 1.647,0.758 1.647,1.673c-0,0.919 -0.728,1.645 -1.647,1.645c-0.915,-0 -1.643,-0.726 -1.643,-1.645c0,-0.915 0.728,-1.673 1.643,-1.673Zm8.14,-0c0.915,-0 1.643,0.758 1.643,1.673c0,0.919 -0.728,1.645 -1.643,1.645c-0.918,-0 -1.675,-0.726 -1.675,-1.645c0.002,-0.915 0.759,-1.673 1.675,-1.673Z"/>
</svg>