<?xml version="1.0" encoding="UTF-8" standalone="no"?>
<svg version="1.1" xmlns="http://www.w3.org/2000/svg" xmlns:xlink="http://www.w3.org/1999/xlink" x="0px" y="0px" width="48px" height="48px" viewBox="0 0 48 48" enable-background="new 0 0 48 48" xml:space="preserve">
<path fill="#202020" d="M2.578,12.56c-1.405,0-2.547,1.159-2.547,2.563v17.769c0,1.405,1.143,2.55,2.547,2.55h42.828 c1.404,0,2.563-1.145,2.563-2.55V15.123c0-1.404-1.158-2.563-2.563-2.563H2.578L2.578,12.56z M2.578,13.585h42.828 c0.854,0,1.537,0.684,1.537,1.538v17.769c0,0.855-0.685,1.522-1.537,1.522H2.578c-0.854,0-1.522-0.667-1.522-1.522V15.123 C1.056,14.269,1.724,13.585,2.578,13.585L2.578,13.585z M34.895,17.783c-0.11-0.006-0.229,0-0.352,0.016H13.345 c-1.916,0-2.403,1.426-2.644,3.364c-0.13,1.934,2.083,7.708,2.083,7.708c0.308,0.945,0.934,1.371,2.003,1.33h19.018 c0.896,0.048,1.418-0.401,1.588-1.154c0,0,2.127-6.201,1.922-8.155C37.17,19.756,36.568,17.831,34.895,17.783L34.895,17.783z M33.035,21.18c0.51,0,0.93,0.421,0.93,0.93c0,0.509-0.42,0.913-0.93,0.913c-0.508,0-0.912-0.404-0.912-0.913 C32.123,21.601,32.527,21.18,33.035,21.18z M14.979,21.244c0.508,0,0.913,0.421,0.913,0.929c0,0.509-0.405,0.914-0.913,0.914 s-0.929-0.405-0.929-0.914C14.05,21.665,14.471,21.244,14.979,21.244z M19.498,21.244c0.508,0,0.913,0.421,0.913,0.929 c0,0.509-0.405,0.914-0.913,0.914c-0.509,0-0.93-0.405-0.93-0.914C18.568,21.665,18.989,21.244,19.498,21.244z M24.016,21.244 c0.507,0,0.914,0.421,0.914,0.929c0,0.509-0.406,0.914-0.914,0.914c-0.508,0-0.929-0.405-0.929-0.914 C23.087,21.665,23.508,21.244,24.016,21.244z M28.518,21.244c0.508,0,0.931,0.421,0.931,0.929c0,0.509-0.423,0.914-0.931,0.914 s-0.912-0.405-0.912-0.914C27.605,21.665,28.01,21.244,28.518,21.244z M6.055,21.549c-1.593,0-2.884,1.291-2.884,2.884 s1.291,2.884,2.884,2.884c1.593,0,2.884-1.291,2.884-2.884S7.648,21.549,6.055,21.549z M42.457,21.549 c-1.592,0-2.883,1.291-2.883,2.884s1.291,2.884,2.883,2.884c1.594,0,2.885-1.291,2.885-2.884S44.051,21.549,42.457,21.549z M17.511,24.962c0.509,0,0.93,0.421,0.93,0.929c0,0.51-0.421,0.913-0.93,0.913c-0.508,0-0.913-0.403-0.913-0.913 C16.598,25.383,17.002,24.962,17.511,24.962z M22.029,24.962c0.508,0,0.929,0.421,0.929,0.929c0,0.51-0.421,0.913-0.929,0.913 c-0.508,0-0.913-0.403-0.913-0.913C21.116,25.383,21.521,24.962,22.029,24.962z M26.547,24.962c0.51,0,0.914,0.421,0.914,0.929 c0,0.51-0.404,0.913-0.914,0.913c-0.508,0-0.912-0.403-0.912-0.913C25.635,25.383,26.039,24.962,26.547,24.962z M31.066,24.962 c0.508,0,0.912,0.421,0.912,0.929c0,0.51-0.404,0.913-0.912,0.913c-0.51,0-0.93-0.403-0.93-0.913 C30.137,25.383,30.557,24.962,31.066,24.962z"/>
</svg>