<svg version="1.1" xmlns="http://www.w3.org/2000/svg" xmlns:xlink="http://www.w3.org/1999/xlink" x="0px" y="0px" width="48px" height="48px" viewBox="0 0 48 48" enable-background="new 0 0 48 48" xml:space="preserve">
<g fill="#202020">
<path d="M44.568,3.428H3.429C1.536,3.428,0,4.96,0,6.854v34.289c0,1.892,1.536,3.428,3.429,3.428h41.139 c1.89,0,3.432-1.536,3.432-3.428V6.854C48,4.96,46.457,3.428,44.568,3.428z M44.568,41.145H3.429V12.035h41.139V41.145z M42.7,10.151c-1.284,0-2.325-1.042-2.325-2.326c0-1.284,1.041-2.325,2.325-2.325s2.325,1.042,2.325,2.326 C45.025,9.11,43.984,10.151,42.7,10.151z"/>
<path d="M35.188,30.621c0.329-0.568,0.178-1.295-0.353-1.69l-1.111-0.827c0.182-0.707,0.282-1.441,0.302-2.189 l1.272-0.504c0.609-0.24,0.945-0.904,0.777-1.542l-0.666-2.485c-0.089-0.335-0.306-0.615-0.604-0.788 c-0.254-0.146-0.553-0.203-0.842-0.16l-1.307,0.192c-0.395-0.675-0.873-1.303-1.422-1.868l0.537-1.242 c0.26-0.606,0.027-1.312-0.543-1.641l-2.234-1.291c-0.569-0.329-1.295-0.178-1.689,0.352l-0.808,1.085 c-0.784-0.198-1.589-0.298-2.399-0.298l-0.506-1.278c-0.107-0.271-0.306-0.501-0.558-0.646c-0.299-0.173-0.648-0.22-0.986-0.132 l-2.49,0.667c-0.637,0.171-1.043,0.792-0.947,1.445l0.212,1.451c-0.634,0.394-1.219,0.857-1.74,1.382l-1.34-0.583 c-0.605-0.261-1.31-0.028-1.639,0.541l-1.29,2.233c-0.329,0.57-0.178,1.298,0.353,1.693l1.244,0.926 c-0.153,0.664-0.238,1.343-0.254,2.016l-1.456,0.577c-0.611,0.24-0.945,0.904-0.778,1.543l0.667,2.489 c0.089,0.336,0.305,0.616,0.604,0.789c0.253,0.146,0.552,0.202,0.842,0.161l1.536-0.226c0.365,0.608,0.794,1.177,1.28,1.694 l-0.626,1.451c-0.262,0.605-0.028,1.313,0.542,1.641L19,36.851c0.569,0.329,1.297,0.179,1.691-0.353l0.905-1.216 c0.733,0.188,1.49,0.296,2.256,0.315l0.552,1.393c0.108,0.271,0.306,0.502,0.558,0.646c0.301,0.174,0.649,0.22,0.985,0.133 l2.491-0.669c0.636-0.17,1.043-0.792,0.946-1.444l-0.21-1.459c0.654-0.389,1.256-0.846,1.789-1.361l1.293,0.561 c0.607,0.263,1.313,0.029,1.642-0.541L35.188,30.621z M27.345,27.65c-1.065,1.847-3.434,2.48-5.278,1.414 c-1.845-1.064-2.48-3.434-1.415-5.279s3.435-2.479,5.28-1.414C27.776,23.437,28.411,25.806,27.345,27.65z"/>
</g></svg>