<svg version="1.1" xmlns="http://www.w3.org/2000/svg" xmlns:xlink="http://www.w3.org/1999/xlink" x="0px" y="0px" width="48px" height="48px" viewBox="0 0 48 48" enable-background="new 0 0 48 48" xml:space="preserve">
<path fill="#202020" d="M30.793,0.5h-20.51c-1.384,0-2.507,1.122-2.507,2.507v41.986c0,1.385,1.123,2.507,2.507,2.507h27.434 c1.384,0,2.507-1.122,2.507-2.507V9.934L30.793,0.5z M21.063,24.375h6.5v5.063h-6.5V24.375z M13.101,24.375h6.5v5.063h-6.5V24.375z M19.601,41.438h-6.5v-5.063h6.5V41.438z M27.563,41.438h-6.5v-5.063h6.5V41.438z M35.487,41.438h-6.5v-5.063h6.5V41.438z M35.487,35.438H13.139v-5.063h22.349V35.438z M35.487,29.438h-6.5v-5.063h6.5V29.438z"/>
</svg>