<svg version="1.1" xmlns="http://www.w3.org/2000/svg" xmlns:xlink="http://www.w3.org/1999/xlink" x="0px" y="0px" width="48px" height="48px" viewBox="0 0 48 48" enable-background="new 0 0 48 48" xml:space="preserve">
<g fill="#202020">
<path d="M47.415,38.13c-0.062-2.121-0.354-4.221-0.882-6.278c-0.189-0.738-0.208-1.857-1.118-1.598 c-0.821,0.233-1.643,0.468-2.463,0.701c-1.681,0.479-3.361,0.958-5.042,1.437c-0.433,0.124,0.086,2.958,0.09,3.376 c0.005,0.567-0.021,1.132-0.047,1.698c0.001,0.02-0.001-0.152,0-0.078c-0.097,1.012-0.218,2.032-0.498,3.013 c1.911,0,3.822,0,5.733,0c1.12,0,2.239,0,3.358,0c0.196,0,0.393,0,0.588,0C47.643,40.4,47.418,38.459,47.415,38.13 C47.412,38.028,47.416,38.232,47.415,38.13z"/>
<path d="M44.897,27.964c0.626-0.256-2.347-4.62-2.652-5.029c-1.282-1.719-2.787-3.241-4.445-4.597 c-0.569-0.468-0.703-0.482-1.104,0.002c-0.429,0.52-0.858,1.039-1.287,1.559c-0.855,1.036-1.711,2.072-2.567,3.108 c-0.403,0.489,0.416,0.983,0.735,1.343c0.688,0.788,1.314,1.62,1.858,2.512c0.38,0.643,0.734,1.297,1.04,1.979 c0.129,0.312,0.671,2.239,1.076,2.076c2.329-0.936,4.658-1.872,6.987-2.809C44.659,28.06,44.778,28.012,44.897,27.964z"/>
<path d="M23.252,18.774c0.731,0.1,0.919,0.374,1.231-0.264c0.317-0.649,0.634-1.297,0.951-1.946 c0.505-1.033,1.011-2.067,1.516-3.1c-1.092-0.173-2.19-0.284-3.296-0.302c-0.784-0.009-0.578,0.769-0.607,1.38 c-0.045,0.934-0.089,1.868-0.134,2.802C22.89,17.816,22.625,18.688,23.252,18.774z"/>
<path d="M30.462,21.587c0.221,0.16,0.875,0.831,1.117,0.461c0.15-0.229,0.3-0.457,0.45-0.685 c0.642-0.979,1.284-1.957,1.926-2.935c0.246-0.374,1.077-1.23,1.108-1.688c0.321-0.496-3.186-1.884-3.589-2.042 c-0.26,1.125-0.519,2.25-0.778,3.375c-0.174,0.755-0.348,1.509-0.521,2.264C30.006,21.071,29.811,21.148,30.462,21.587 C30.534,21.639,30.38,21.532,30.462,21.587z"/>
<path d="M18.549,18.748c0.73-0.095,1.462-0.14,2.198-0.145c0.539-0.003,0.455-0.312,0.429-0.711 c-0.076-1.165-0.153-2.33-0.229-3.495c-0.019-0.285-0.037-0.569-0.056-0.854c-0.032-0.489-1.57-0.053-1.902,0.012 c-1.772,0.337-3.513,0.878-5.149,1.641c-0.722,0.338-1.426,0.704-2.112,1.11c-0.453,0.268-1.96,0.948-2.047,1.459 c-0.046,0.275,0.426,0.746,0.557,0.939c0.353,0.518,0.705,1.037,1.058,1.555c0.116,0.17,0.437,0.869,0.742,0.696 c0.722-0.41,1.468-0.775,2.239-1.083C15.664,19.333,17.076,18.955,18.549,18.748C18.617,18.739,18.414,18.767,18.549,18.748z"/>
<path d="M4.928,22.545c-0.784,1.113-1.471,2.261-2.071,3.484c-0.26,0.527-0.498,1.072-0.707,1.622 C1.973,28.13,1.432,28.91,2.083,29.16c0.447,0.171,0.893,0.343,1.34,0.514c0.62,0.237,0.674-0.107,0.959-0.658 c0.614-1.176,1.329-2.291,2.156-3.329c0.851-1.069,1.814-2.028,2.857-2.91c0.194-0.153,1.099-0.664,0.826-0.983 c-0.245-0.287-0.49-0.574-0.735-0.861c-0.182-0.213-1.38-1.957-1.725-1.625C6.729,20.305,5.755,21.37,4.928,22.545z"/>
<path d="M1.081,31.24c-0.446,2.246-0.577,4.487-0.417,6.767c0.059,0.588-0.016,3.06,1.188,2.394 c0.376,0,0.219-2.622,0.238-3.022c0-0.01,0,0.01,0,0.006c0.096-1.257,0.26-2.504,0.562-3.73c0.114-0.463,0.857-2.032,0.268-2.189 C2.657,31.395,1.174,30.792,1.081,31.24C1.069,31.302,1.109,31.104,1.081,31.24z"/>
<path d="M19.678,39.756c2.167,1.058,4.809-0.221,5.349-2.561c0.146-0.631,0.29-1.262,0.436-1.893 c0.684-2.964,1.366-5.928,2.049-8.892c0.932-4.042,1.863-8.086,2.795-12.129c0.271-1.178,0.543-2.356,0.814-3.534 c0.117-0.512,0.065-1.412-0.743-1.113c-0.427,0.158-0.664,0.983-0.839,1.342c-1.052,2.152-2.104,4.304-3.156,6.456 c-2.055,4.202-4.109,8.404-6.163,12.606C18.866,32.807,15.444,37.685,19.678,39.756C20.212,40.017,17.802,38.838,19.678,39.756z M21.476,34.409c2.391,0,2.39,3.707,0,3.707C19.086,38.116,19.086,34.409,21.476,34.409z"/>
</g></svg>