<svg version="1.1" xmlns="http://www.w3.org/2000/svg" xmlns:xlink="http://www.w3.org/1999/xlink" x="0px" y="0px" width="48px" height="48px" viewBox="0 0 48 48" enable-background="new 0 0 48 48" xml:space="preserve">
<path fill="#202020" d="M44.568,4.428H3.429C1.536,4.428,0,5.96,0,7.854v34.289c0,1.895,1.536,3.428,3.429,3.428h41.139 c1.89,0,3.432-1.533,3.432-3.428V7.854C48,5.96,46.457,4.428,44.568,4.428z M6.168,17.002c-0.133,0.239-0.314,0.433-0.542,0.58 c-0.229,0.148-0.495,0.255-0.797,0.319c-0.304,0.063-0.624,0.096-0.96,0.096c-0.346,0-0.674-0.029-0.987-0.088 C2.57,17.851,2.3,17.763,2.071,17.645v-1.406c0.255,0.215,0.532,0.375,0.831,0.481c0.299,0.107,0.601,0.161,0.905,0.161 c0.179,0,0.334-0.017,0.468-0.049c0.133-0.032,0.244-0.077,0.334-0.134c0.089-0.058,0.156-0.125,0.2-0.202 c0.044-0.078,0.066-0.162,0.066-0.253c0-0.123-0.035-0.233-0.105-0.329c-0.07-0.098-0.167-0.187-0.288-0.269 s-0.266-0.161-0.433-0.237c-0.167-0.076-0.347-0.154-0.541-0.232c-0.492-0.206-0.859-0.456-1.101-0.752 c-0.241-0.296-0.362-0.653-0.362-1.072c0-0.328,0.066-0.61,0.198-0.846c0.132-0.236,0.311-0.43,0.539-0.583 c0.227-0.152,0.49-0.264,0.789-0.336C3.87,11.516,4.186,11.48,4.52,11.48c0.328,0,0.619,0.02,0.873,0.06 c0.253,0.039,0.487,0.1,0.701,0.182v1.314c-0.104-0.073-0.221-0.138-0.345-0.193c-0.124-0.055-0.252-0.102-0.384-0.139 c-0.132-0.036-0.263-0.063-0.393-0.081c-0.131-0.018-0.254-0.026-0.372-0.026c-0.161,0-0.308,0.016-0.439,0.046 c-0.132,0.031-0.243,0.074-0.334,0.13c-0.091,0.056-0.161,0.123-0.211,0.2c-0.05,0.077-0.075,0.165-0.075,0.261 c0,0.105,0.028,0.2,0.083,0.284c0.056,0.083,0.135,0.162,0.237,0.237c0.103,0.074,0.227,0.148,0.374,0.22 c0.147,0.072,0.312,0.146,0.497,0.222c0.252,0.105,0.478,0.218,0.679,0.336c0.2,0.119,0.373,0.253,0.516,0.402 c0.143,0.149,0.253,0.32,0.33,0.512c0.076,0.192,0.114,0.416,0.114,0.67C6.369,16.468,6.302,16.764,6.168,17.002z M11.213,17.002 c-0.133,0.239-0.313,0.433-0.541,0.58c-0.229,0.148-0.496,0.255-0.799,0.319c-0.303,0.063-0.623,0.096-0.959,0.096 c-0.347,0-0.675-0.029-0.988-0.088c-0.312-0.058-0.582-0.146-0.811-0.264v-1.406c0.255,0.215,0.532,0.375,0.831,0.481 c0.299,0.107,0.601,0.161,0.905,0.161c0.178,0,0.334-0.017,0.469-0.049c0.133-0.032,0.244-0.077,0.334-0.134 c0.088-0.058,0.156-0.125,0.199-0.202c0.045-0.078,0.066-0.162,0.066-0.253c0-0.123-0.035-0.233-0.105-0.329 c-0.07-0.098-0.166-0.187-0.289-0.269c-0.121-0.082-0.266-0.161-0.432-0.237c-0.168-0.076-0.348-0.154-0.541-0.232 C8.06,14.97,7.693,14.72,7.451,14.424c-0.241-0.296-0.362-0.653-0.362-1.072c0-0.328,0.066-0.61,0.198-0.846 c0.132-0.236,0.311-0.43,0.539-0.583c0.227-0.152,0.49-0.264,0.789-0.336c0.3-0.071,0.616-0.107,0.95-0.107 c0.326,0,0.617,0.02,0.871,0.06c0.254,0.039,0.486,0.1,0.701,0.182v1.314c-0.105-0.073-0.221-0.138-0.346-0.193 c-0.123-0.056-0.252-0.102-0.383-0.139c-0.133-0.036-0.264-0.063-0.395-0.081c-0.131-0.018-0.254-0.026-0.371-0.026 c-0.162,0-0.307,0.016-0.439,0.046c-0.131,0.031-0.244,0.074-0.334,0.13c-0.092,0.056-0.162,0.123-0.211,0.2 c-0.05,0.078-0.074,0.165-0.074,0.261c0,0.105,0.027,0.2,0.083,0.284c0.056,0.083,0.134,0.162,0.237,0.237 c0.102,0.074,0.227,0.148,0.373,0.22c0.146,0.072,0.313,0.146,0.498,0.222c0.25,0.105,0.477,0.218,0.678,0.336 c0.201,0.119,0.373,0.253,0.518,0.402c0.143,0.149,0.252,0.32,0.328,0.512c0.076,0.192,0.115,0.416,0.115,0.67 C11.414,16.468,11.348,16.764,11.213,17.002z M17.904,17.888H16.48v-2.566h-2.609v2.566h-1.42v-6.302h1.42V14.1h2.609v-2.514h1.424 V17.888z M22.36,19.192h-3.735V18h3.735V19.192z M42.7,11.151c-1.284,0-2.325-1.042-2.325-2.326c0-1.284,1.041-2.325,2.325-2.325 s2.325,1.042,2.325,2.326C45.025,10.11,43.984,11.151,42.7,11.151z"/>
</svg>