<svg version="1.1" xmlns="http://www.w3.org/2000/svg" xmlns:xlink="http://www.w3.org/1999/xlink" x="0px" y="0px" width="48px" height="48px" viewBox="0 0 48 48" enable-background="new 0 0 48 48" xml:space="preserve">
<path fill="#202020" d="M46.554,24.096l-1.644-0.723l1.442-3.287c0.398-0.907-0.014-1.966-0.923-2.365l-3.287-1.442 c-0.908-0.398-1.967,0.015-2.364,0.922l-3.605,8.218l-2.01-0.882c0.219-0.493,1.188-1.952,1.054-2.537 c-0.069-0.304-1.492-0.702-1.779-0.833c-0.299-0.137-1.869-1.029-2.021-0.718c0.003-0.007,0.003-0.008-0.006,0.01 c-0.338,0.808-0.692,1.609-1.049,2.41l-0.667-0.293c0.599-1.309,1.385-3.085,1.238-3.231c-0.666-0.61-1.998-0.837-2.821-1.175 c-0.89-0.365-1.291-0.725-1.61,0.083c-0.328,0.83-0.665,1.656-0.996,2.485l-0.65-0.285c0.492-1.308,1.506-3.616,1.277-3.785 c-0.517-0.43-1.298-0.533-1.928-0.696c-0.535-0.139-1.01-0.399-1.53-0.58c-0.814-0.283-0.879,0.024-1.131,0.767 c-0.278,0.82-0.616,1.635-0.83,2.476l-0.736-0.323c0.121-0.384,1.185-3.4,0.953-3.458c-1.441-0.221-2.775-0.86-4.155-1.298 c-0.194-0.055-0.886,2.708-0.95,2.933l-1.111-0.487l3.606-8.217c0.398-0.908-0.015-1.967-0.922-2.365l-3.288-1.442 C13.202,3.58,12.144,3.992,11.746,4.9l-1.442,3.288L8.66,7.467C7.751,7.068,6.692,7.481,6.294,8.389l-5.77,13.149 c-0.399,0.909,0.014,1.967,0.922,2.366l1.644,0.722l-1.442,3.288c-0.398,0.907,0.014,1.966,0.923,2.365l3.287,1.442 c0.907,0.397,1.966-0.015,2.364-0.924l3.607-8.219l0.893,0.392c-0.471,1.344-1.121,2.711-1.453,4.091 c-0.156,0.651,0.687,1.27,1.063,1.685c0.647,0.714,1.302,1.421,1.951,2.133c1.193,1.311,2.33,2.732,3.638,3.929 c0.729,0.667,0.791,0.998,0.732,1.903C18.593,37.617,17.628,46.949,18.094,47l5.311-0.106L28.21,46.9 c0.243-4.143,1.668-11.846,1.813-16.338l3.265,1.433l-3.607,8.22c-0.397,0.907,0.015,1.966,0.924,2.364l3.285,1.442 c0.909,0.399,1.968-0.015,2.365-0.922l1.443-3.288l1.644,0.722c0.909,0.398,1.968-0.015,2.365-0.923l5.771-13.15 C47.875,25.552,47.463,24.494,46.554,24.096z M24.827,28.536c-1.275-0.332-2.55-0.668-3.825-1.001 c-0.588-0.153-1.176-0.308-1.764-0.461c-0.395-0.104-0.863-0.094-1.214-0.327c-0.05-0.039,0.125-0.675,0.326-1.306l7.898,3.466 C25.774,28.785,25.302,28.659,24.827,28.536C23.669,28.234,25.302,28.659,24.827,28.536z"/>
</svg>