<svg width="48px" height="48px" viewBox="0 0 48 48" version="1.1" xmlns="http://www.w3.org/2000/svg" xmlns:xlink="http://www.w3.org/1999/xlink" xml:space="preserve" xmlns:serif="http://www.serif.com/" style="fill-rule:evenodd;clip-rule:evenodd;stroke-linejoin:round;stroke-miterlimit:2;">
<g transform="matrix(1,0,0,1,0,8)">
<path d="M44.951,8.61L3.048,8.61C1.776,8.61 0.744,9.641 0.744,10.914L0.744,21.085C0.744,22.357 1.776,23.391 3.048,23.391L44.951,23.391C46.222,23.391 47.256,22.36 47.256,21.085L47.256,10.914C47.256,9.641 46.223,8.61 44.951,8.61ZM13.314,17.911L11.382,17.911L11.382,19.755L7.39,19.755L7.39,17.911L5.518,17.911L5.518,13.473L13.314,13.473L13.314,17.911ZM23.077,17.911L21.145,17.911L21.145,19.755L17.152,19.755L17.152,17.911L15.28,17.911L15.28,13.473L23.076,13.473L23.076,17.911L23.077,17.911ZM32.838,17.911L30.906,17.911L30.906,19.755L26.913,19.755L26.913,17.911L25.041,17.911L25.041,13.473L32.837,13.473L32.837,17.911L32.838,17.911ZM42.601,17.911L40.669,17.911L40.669,19.755L36.676,19.755L36.676,17.911L34.805,17.911L34.805,13.473L42.601,13.473L42.601,17.911Z" style="fill:rgb(32,32,32);fill-rule:nonzero;"/>
</g>
</svg>