<?xml version="1.0" encoding="UTF-8" standalone="no"?>
<svg version="1.1" xmlns="http://www.w3.org/2000/svg" xmlns:xlink="http://www.w3.org/1999/xlink" x="0px" y="0px" width="48px" height="48px" viewBox="0 0 48 48" enable-background="new 0 0 48 48" xml:space="preserve">
<path fill="#202020" d="M-0.081,36.4c0,0.882,0.361,1.757,0.983,2.377c0.622,0.623,1.497,0.983,2.377,0.983l41.446-0.001 c0.879,0,1.756-0.359,2.377-0.982c0.623-0.621,0.979-1.496,0.979-2.377V11.6c0-0.881-0.36-1.754-0.979-2.377 C46.48,8.6,45.604,8.239,44.725,8.239H3.279c-0.88,0-1.755,0.361-2.377,0.984s-0.983,1.496-0.983,2.377V36.4z M4.52,38.643V9.36 h38.402v29.283H4.52z M44.043,24c0-0.928,0.752-1.682,1.684-1.682c0.928,0,1.674,0.754,1.674,1.682c0,0.928-0.746,1.68-1.674,1.68 C44.795,25.682,44.043,24.93,44.043,24z"/>
</svg>