<svg version="1.1" xmlns="http://www.w3.org/2000/svg" xmlns:xlink="http://www.w3.org/1999/xlink" x="0px" y="0px" width="48px" height="48px" viewBox="0 0 48 48" enable-background="new 0 0 48 48" xml:space="preserve">
<g fill="#202020">
<path d="M21.534,14.214c-0.223,0-0.415,0.092-0.578,0.277c-0.162,0.185-0.261,0.415-0.296,0.69h1.656 C22.316,14.536,22.056,14.214,21.534,14.214z"/>
<path d="M8.662,14.214c-0.223,0-0.415,0.092-0.578,0.277c-0.162,0.185-0.261,0.415-0.296,0.69h1.657 C9.445,14.536,9.184,14.214,8.662,14.214z"/>
<path d="M44.568,4.428H3.429C1.536,4.428,0,5.96,0,7.854v34.289c0,1.895,1.536,3.428,3.429,3.428h41.139 c1.89,0,3.432-1.533,3.432-3.428V7.854C48,5.96,46.457,4.428,44.568,4.428z M4.989,17.888H3.565v-5.146H1.776v-1.156h5.01v1.156 H4.989V17.888z M10.732,16.033H7.797c0.047,0.653,0.458,0.979,1.234,0.979c0.496,0,0.93-0.116,1.307-0.352v1.002 c-0.418,0.224-0.957,0.334-1.623,0.334c-0.726,0-1.29-0.201-1.691-0.604s-0.602-0.965-0.602-1.686c0-0.747,0.217-1.339,0.65-1.775 c0.433-0.436,0.967-0.655,1.6-0.655c0.656,0,1.164,0.195,1.521,0.584c0.359,0.39,0.539,0.918,0.539,1.586V16.033z M12.947,17.888 h-1.389v-6.662h1.389V17.888z M18.462,17.888h-1.384v-2.5c0-0.698-0.25-1.046-0.748-1.046c-0.24,0-0.438,0.092-0.593,0.277 c-0.155,0.185-0.233,0.419-0.233,0.703v2.566h-1.389v-4.5h1.389V14.1h0.018c0.331-0.548,0.813-0.822,1.446-0.822 c0.996,0,1.494,0.618,1.494,1.854V17.888z M23.604,16.033h-2.936c0.047,0.653,0.459,0.979,1.235,0.979 c0.495,0,0.93-0.116,1.306-0.352v1.002c-0.417,0.224-0.957,0.334-1.622,0.334c-0.727,0-1.291-0.201-1.692-0.604 s-0.602-0.965-0.602-1.686c0-0.747,0.217-1.339,0.65-1.775s0.967-0.655,1.6-0.655c0.656,0,1.164,0.195,1.522,0.584 c0.359,0.39,0.538,0.918,0.538,1.586L23.604,16.033L23.604,16.033z M27.15,14.412h-1.01v1.82c0,0.469,0.186,0.703,0.558,0.703 c0.146,0,0.298-0.043,0.452-0.128v1.028c-0.205,0.108-0.514,0.162-0.928,0.162c-0.979,0-1.467-0.508-1.467-1.524v-2.061h-0.73 v-1.024h0.73v-0.971l1.385-0.396v1.367h1.01V14.412L27.15,14.412z M31.083,19.192h-3.735V18h3.735V19.192z M42.7,11.151 c-1.284,0-2.325-1.042-2.325-2.326c0-1.284,1.041-2.325,2.325-2.325s2.325,1.042,2.325,2.326 C45.025,10.11,43.984,11.151,42.7,11.151z"/>
</g></svg>