<?xml version="1.0" encoding="UTF-8" standalone="no"?>
<svg version="1.1" xmlns="http://www.w3.org/2000/svg" xmlns:xlink="http://www.w3.org/1999/xlink" x="0px" y="0px"  width="48px" height="48px" viewBox="0 0 48 48" enable-background="new 0 0 48 48" xml:space="preserve">
<path fill="#202020" d="M46.52,19.583l-2.879-2.832c-0.24-0.24-0.529-0.288-0.816-0.288l0,0c0,0-1.393,0.288-3.264-1.584 c0,0-0.48-0.336-0.385-1.872c0.096-1.728-0.336-2.256-1.871-3.744c-6.48-6.576-15.168-7.488-20.208-4.416 c0,0-0.384,0.384,0.528,0.384c1.056,0.048,6.384,2.16,9.696,5.76c0,0,1.775,1.728,0.24,3.264c-0.865,0.864-3.36,3.36-5.329,5.328 c-0.816-0.288-1.776-0.096-2.4,0.576L1.88,38.111c-0.912,0.911-0.912,2.399,0,3.312l2.736,2.736c0.912,0.912,2.4,0.912,3.312,0 l17.953-17.952c0.672-0.672,0.814-1.584,0.574-2.399l4.416-4.417c0,0,2.641-2.304,4.561-0.384c1.873,1.872,1.584,3.264,1.584,3.264 l0,0c-0.047,0.288,0.049,0.624,0.289,0.816l2.832,2.832c0.383,0.385,1.055,0.385,1.439,0l4.896-4.896 C46.904,20.639,46.904,20.015,46.52,19.583z"/>
</svg>