<?xml version="1.0" encoding="UTF-8" standalone="no"?>
<svg version="1.1" xmlns="http://www.w3.org/2000/svg" xmlns:xlink="http://www.w3.org/1999/xlink" x="0px" y="0px" width="48px" height="48px" viewBox="0 0 48 48" enable-background="new 0 0 48 48" xml:space="preserve">
<path fill="#202020" d="M1.162,38.616c-1.549,1.548-1.549,4.061,0,5.608l2.453,2.455c1.548,1.547,4.059,1.547,5.609,0l15.914-15.916 c0.568-0.568,0.928-1.27,1.078-2.002c0.426,0.012,0.855-0.145,1.18-0.47c0.631-0.63,0.631-1.651,0-2.282l-1.762-1.76L41.757,8.125 l0.15,0.152l3.033-2.063l3-4.151l-2.068-2.069l-4.123,3.03L39.7,6.067l0.153,0.153L23.73,22.345l-1.835-1.833 c-0.629-0.63-1.649-0.63-2.279,0c-0.304,0.304-0.461,0.7-0.47,1.097c-0.758,0.142-1.484,0.506-2.07,1.092"/>
</svg>