<?xml version="1.0" encoding="UTF-8" standalone="no"?>
<svg version="1.1" xmlns="http://www.w3.org/2000/svg" xmlns:xlink="http://www.w3.org/1999/xlink" x="0px" y="0px" width="48px" height="48px" viewBox="0 0 48 48" enable-background="new 0 0 48 48" xml:space="preserve">
<g fill="#202020">
<path d="M47.225,24.624h-7.892c-0.43,0-0.778,0.351-0.778,0.782v1.829h-6.468v-1.829 c0-0.432-0.349-0.782-0.777-0.782H16.043c-0.43,0-0.775,0.351-0.775,0.782v1.829H9.444v-1.829c0-0.432-0.347-0.782-0.776-0.782 H0.776C0.347,24.624,0,24.975,0,25.406v16.971c0,0.433,0.347,0.783,0.776,0.783h46.448c0.429,0,0.775-0.351,0.775-0.783V25.406 C48,24.975,47.653,24.624,47.225,24.624z"/>
<path d="M2.939,13.84c-0.557,0-2.021,1.465-2.021,2.022c0,6.046,0,2.006,0,8.055h3.576v-6.073h39.097v6.073h3.49 c0-6.049,0-2.008,0-8.055c0-0.677-1.538-2-2.062-1.982"/>
</g></svg>