<svg version="1.1" xmlns="http://www.w3.org/2000/svg" xmlns:xlink="http://www.w3.org/1999/xlink" x="0px" y="0px" width="48px" height="48px" viewBox="0 0 48 48" enable-background="new 0 0 48 48" xml:space="preserve">
<path fill="#202020" d="M16.855,13.311c-0.238,0.054-0.483,0.086-0.738,0.086c-1.822,0-3.301-1.441-3.376-3.248L5.834,8.326 C2.202,12.531,0,18.007,0,24c0,13.255,10.745,24,24,24s24-10.745,24-24S37.255,0,24,0C17.559,0,11.715,2.542,7.404,6.672 l5.845,1.543c0.601-0.958,1.655-1.6,2.868-1.6c1.871,0,3.389,1.518,3.389,3.391c0,0.895-0.354,1.699-0.916,2.307l4.568,7.977 c0.238-0.055,0.485-0.087,0.74-0.087c1.872,0,3.39,1.519,3.39,3.39c0,1.872-1.519,3.391-3.39,3.391 c-1.126,0-2.121-0.558-2.737-1.405l-8.742,2.967c0.001,0.031,0.009,0.06,0.009,0.091c0,0.346-0.066,0.674-0.162,0.987l6.853,4.666 c0.666-0.511,1.489-0.826,2.396-0.826c1.112,0,2.115,0.463,2.834,1.204l9.658-5.469c-0.205-0.584-0.32-1.209-0.32-1.862 c0-3.115,2.524-5.642,5.64-5.642c3.114,0,5.64,2.525,5.64,5.642c0,3.115-2.525,5.64-5.64,5.64c-1.744,0-3.302-0.791-4.336-2.035 l-9.663,5.473c0.086,0.324,0.146,0.658,0.146,1.01c0,2.186-1.773,3.958-3.959,3.958c-2.188,0-3.959-1.772-3.959-3.958 c0-0.555,0.114-1.081,0.32-1.561l-6.732-4.586c-0.58,0.461-1.305,0.75-2.103,0.75c-1.871,0-3.392-1.518-3.392-3.391 s1.521-3.391,3.392-3.391c1.128,0,2.121,0.558,2.735,1.406l8.742-2.966c0-0.031-0.01-0.06-0.01-0.091c0-0.893,0.354-1.7,0.917-2.305 L16.855,13.311z"/>
</svg>