<svg version="1.1" xmlns="http://www.w3.org/2000/svg" xmlns:xlink="http://www.w3.org/1999/xlink" x="0px" y="0px" width="48px" height="48px" viewBox="0 0 48 48" enable-background="new 0 0 48 48" xml:space="preserve">
<g fill="#202020">
<path d="M21.214,0.668c-0.282,0.171-0.261-0.588-0.261,10.076c0,10.639-0.021,9.827,0.261,10.026l0.126,0.09h2.654 h2.653l0.128-0.09c0.28-0.2,0.261,0.612,0.261-10.043V1.105l-0.087-0.171c-0.045-0.098-0.143-0.212-0.216-0.261 c-0.135-0.082-0.191-0.082-2.764-0.082C21.455,0.591,21.336,0.595,21.214,0.668z"/>
<path d="M18.238,6.755c-0.25,0.049-1.564,0.494-2.185,0.739c-0.633,0.249-1.952,0.895-2.601,1.266 c-1.747,1.009-3.581,2.45-4.789,3.776c-1.636,1.792-2.76,3.458-3.723,5.52c-0.938,2.009-1.563,4.278-1.813,6.622 c-0.089,0.832-0.102,2.971-0.024,3.776c0.146,1.502,0.379,2.735,0.763,4.042c1.409,4.78,4.556,8.936,8.818,11.643 c5.956,3.784,13.48,4.318,19.976,1.425c3.232-1.445,6.18-3.817,8.278-6.68c3.27-4.449,4.593-9.843,3.768-15.35 c-0.682-4.556-3.122-9.042-6.588-12.121c-2.331-2.069-4.7-3.433-7.655-4.404c-0.776-0.257-0.983-0.299-1.134-0.225 c-0.104,0.049-0.136,0.099-0.169,0.262c-0.061,0.286-0.061,6.14,0,6.385c0.025,0.098,0.086,0.216,0.14,0.266 c0.053,0.049,0.448,0.265,0.882,0.482c0.926,0.465,1.433,0.775,2.184,1.334c2.094,1.567,3.687,3.654,4.642,6.083 c0.462,1.176,0.724,2.226,0.895,3.613c0.069,0.559,0.069,2.413,0,2.98c-0.307,2.494-1.082,4.539-2.479,6.54 c-0.485,0.694-1.567,1.883-2.245,2.466c-3.177,2.735-7.304,3.936-11.37,3.302c-3.911-0.604-7.369-2.841-9.532-6.163 c-2.695-4.132-3.005-9.415-0.821-13.82c1.147-2.311,2.878-4.229,5.066-5.625c0.27-0.171,0.874-0.506,1.348-0.743 c0.731-0.367,0.865-0.449,0.939-0.571c0.082-0.139,0.082-0.196,0.082-3.327c0-2.968-0.004-3.197-0.069-3.298 C18.699,6.768,18.507,6.707,18.238,6.755z"/>
</g></svg>