<svg version="1.1" xmlns="http://www.w3.org/2000/svg" xmlns:xlink="http://www.w3.org/1999/xlink" x="0px" y="0px" width="48px" height="48px" viewBox="0 0 48 48" enable-background="new 0 0 48 48" xml:space="preserve">
<rect x="10" y="41" width="28" height="3"/>
<path fill="#202020" d="M16.53,25.35c-0.05,4.71,0.67,6.67,1.97,8.35c0.86,1.15,2.45,2.54,5.71,2.54c3.07,0,4.46-1.1,5.57-2.21 c1.15-1.2,2.3-4.03,2.3-8.45c0-4.61,0.05-10.99,0-15.89c0-0.1-0.05-0.19-0.19-0.19l-4.03-0.1c0-0.72,0-1.54,0.05-2.26 c1.63,0,3.6,0,5.57,0c1.78,0,3.55,0,4.99,0c0.05,0.67,0,1.49-0.05,2.26l-3.02,0.14l-0.1,16.08c-0.05,5.23-1.63,8.4-3.41,10.23 c-1.34,1.44-3.94,2.98-7.83,2.98c-3.36,0-6.19-0.82-8.21-2.78c-2.74-2.69-3.17-5.95-3.17-10.32V9.8c0-0.19-0.05-0.29-0.24-0.29 l-2.93-0.1c0-0.77,0-1.54,0.05-2.26c1.54,0,3.46,0,5.18,0c2.16,0,4.22,0,6.14,0c0,0.67,0,1.49-0.1,2.26l-4.22,0.1L16.53,25.35z"/>
</svg>