<svg version="1.1" xmlns="http://www.w3.org/2000/svg" xmlns:xlink="http://www.w3.org/1999/xlink" x="0px" y="0px" width="48px" height="48px" viewBox="0 0 48 48" enable-background="new 0 0 48 48" xml:space="preserve">
<g fill="#202020">
<path d="M25.011,3.422V1.851c0-0.628-0.509-1.137-1.137-1.137h-7.747c-0.628,0-1.138,0.509-1.138,1.137v1.571H25.011 z"/>
<path d="M33.678,4.235H6.322c-0.628,0-1.138,0.509-1.138,1.138v41.061c0,0.627,0.509,1.137,1.138,1.137h27.355 c0.628,0,1.138-0.51,1.138-1.137V5.373C34.814,4.744,34.307,4.235,33.678,4.235z M22.383,42.759h-4.768v-1.353h4.768V42.759z M22.384,11.948h-1.707v1.707h-1.354v-1.707h-1.707v-1.354h1.707V8.888h1.354v1.706h1.707V11.948z"/>
<path d="M43.794,23.892c0.522,0.001,0.947,0.524,0.946,1.17l0.002,2.935c-0.001,0.647-1.396,3.207-1.917,3.208 h-3.001c-0.522,0-1.917-2.563-1.916-3.208l-0.001-2.935c-0.001-0.646,0.424-1.17,0.944-1.17H43.794z"/>
<path d="M39.807,26.186c0.334,0,0.604-0.271,0.604-0.604v-4.378c0-0.333-0.271-0.603-0.604-0.604l0,0 c-0.334,0-0.604,0.271-0.604,0.604v4.377C39.201,25.915,39.473,26.186,39.807,26.186L39.807,26.186z"/>
<path d="M42.807,26.186c0.334-0.002,0.604-0.271,0.604-0.604v-4.377c0-0.333-0.271-0.604-0.604-0.603l0,0 c-0.334,0-0.604,0.27-0.604,0.604v4.376C42.201,25.914,42.473,26.184,42.807,26.186L42.807,26.186z"/>
<rect x="40.409" y="31.204" width="1.792" height="16.366"/>
</g></svg>