<?xml version="1.0" encoding="UTF-8" standalone="no"?>
<svg version="1.1" xmlns="http://www.w3.org/2000/svg" xmlns:xlink="http://www.w3.org/1999/xlink" x="0px" y="0px" width="48px" height="48px" viewBox="0 0 48 48" enable-background="new 0 0 48 48" xml:space="preserve">
<path fill="#202020" d="M44.571,23.715c-2.714-4.215-6.116-7.367-10.205-9.456C35.455,16.116,36,18.125,36,20.286 c0,3.304-1.174,6.129-3.522,8.478c-2.349,2.348-5.174,3.521-8.478,3.521s-6.129-1.174-8.478-3.521C13.174,26.415,12,23.59,12,20.286 c0-2.161,0.544-4.169,1.634-6.027C9.544,16.348,6.143,19.5,3.429,23.715c2.375,3.66,5.353,6.575,8.933,8.745 c3.58,2.169,7.459,3.255,11.638,3.255s8.059-1.086,11.639-3.255C39.219,30.29,42.196,27.375,44.571,23.715z M25.285,13.429 c0-0.357-0.125-0.661-0.375-0.911s-0.553-0.375-0.91-0.375c-2.232,0-4.147,0.799-5.746,2.397s-2.397,3.514-2.397,5.746 c0,0.357,0.125,0.661,0.375,0.911s0.554,0.375,0.911,0.375c0.357,0,0.661-0.125,0.911-0.375s0.375-0.553,0.375-0.911 c0-1.536,0.544-2.848,1.634-3.938s2.402-1.634,3.938-1.634c0.357,0,0.66-0.125,0.91-0.375S25.285,13.786,25.285,13.429z M48,23.715 c0,0.606-0.179,1.223-0.535,1.848c-2.5,4.107-5.862,7.397-10.086,9.871c-4.223,2.473-8.683,3.709-13.379,3.709 s-9.156-1.24-13.379-3.723s-7.585-5.768-10.085-9.857C0.179,24.938,0,24.321,0,23.715c0-0.607,0.179-1.224,0.536-1.849 c2.5-4.089,5.862-7.375,10.085-9.857C14.844,9.527,19.304,8.286,24,8.286s9.156,1.241,13.379,3.723 c4.224,2.482,7.586,5.768,10.086,9.857C47.821,22.491,48,23.107,48,23.715z"/>
</svg>