<svg version="1.1" id="Layer_1" xmlns="http://www.w3.org/2000/svg" xmlns:xlink="http://www.w3.org/1999/xlink" x="0px" y="0px" width="48px" height="48px" viewBox="0 0 48 48" enable-background="new 0 0 48 48" xml:space="preserve">
<g fill="#202020">
<path d="M4.66,29.641c-0.52,0.25-1.27,0.569-1.4-0.229c-0.16-1.08,0.01-2.229-0.05-3.32c-0.1-1.9-0.48-3.8-1.2-5.57 c-0.51-1.26-1.29-2.41-1.71-3.71c-0.96-2.96,1.04-5.66,3.6-6.91c1.32-0.64,2.73-1.05,4.09-1.57c1.03-0.4,2.04-0.83,3.06-1.24 c0.5-0.2,0.83,0.1,0.88,0.63c0.08,0.88-0.42,1.8-1,2.43c-0.87,0.96-1.65,2.12-1.95,3.39c-0.32,1.34-0.19,2.89-0.24,4.26 c-0.06,1.66-0.02,3.36-0.19,5.01C8.3,25.38,7.13,28.46,4.66,29.641C2.05,30.891,5.77,29.109,4.66,29.641z"/>
<path d="M43.34,29.641c0.52,0.25,1.27,0.569,1.4-0.229c0.16-1.08-0.01-2.229,0.05-3.32c0.101-1.9,0.479-3.8,1.2-5.57 c0.51-1.26,1.3-2.41,1.71-3.71c0.96-2.96-1.04-5.66-3.601-6.91c-1.32-0.64-2.729-1.05-4.091-1.57c-1.028-0.4-2.038-0.83-3.06-1.24 c-0.5-0.2-0.83,0.1-0.881,0.63c-0.08,0.88,0.42,1.8,1,2.43c0.869,0.96,1.641,2.12,1.949,3.39c0.32,1.34,0.19,2.89,0.24,4.26 c0.061,1.66,0.02,3.36,0.18,5.01C39.7,25.38,40.87,28.46,43.34,29.641C45.939,30.891,42.23,29.109,43.34,29.641z"/>
<path d="M20.07,41.51c1.28,0.2,2.6,0.44,3.9,0.44c1.309,0,2.65-0.24,3.95-0.44c-0.68-0.029-1.359-0.08-2.04-0.18 c-0.46-0.07-0.94-0.15-1.36-0.35c-0.47-0.222-0.33-0.51-0.52-0.932c0.09,0.19-0.26,0.729-0.46,0.852 c-0.38,0.229-0.86,0.32-1.29,0.398C21.54,41.42,20.81,41.48,20.07,41.51z"/>
<path d="M27.63,32.83c-0.649-1.21-2.96-0.98-4.11-0.95c-0.77,0.021-1.58,0.091-2.31,0.351 c-1.06,0.369-1.33,1.431-1.11,2.471c0.34,1.67,2.58,3.88,4.429,3.38c1.08-0.302,2.15-1.29,2.781-2.181 C28.01,34.92,28.221,33.92,27.63,32.83C27.189,32.01,28.08,33.65,27.63,32.83z M22.55,36.17c-0.63,0.24-1.3-0.43-1.65-0.9 c-0.39-0.528,0.09-0.56,0.45-0.56c0.32,0,0.58-0.01,0.88,0.11C22.69,34.99,23.26,35.9,22.55,36.17 C22.33,36.25,22.76,36.09,22.55,36.17z M27.05,35.18c-0.17,0.471-1.05,1.16-1.569,1.041c-0.601-0.141-0.541-0.99-0.08-1.271 C25.779,34.721,27.35,34.359,27.05,35.18C27,35.33,27.109,35.02,27.05,35.18z"/>
<path d="M13.673,16.079c-1.869,0.098-3.957,0.335-4.251,0.474c-0.168,0.081-0.214,0.249-0.226,0.827l-0.006,0.417 l0.301,0.306c0.445,0.469,0.555,0.763,0.625,1.625c0.179,2.365,1.174,4.412,2.452,5.061c0.815,0.409,1.538,0.536,3.337,0.577 c2.603,0.063,3.806-0.196,4.893-1.046c1.047-0.82,1.561-1.983,2.042-4.633c0.191-1.052,0.255-1.208,0.584-1.37 c0.267-0.139,0.878-0.139,1.145,0c0.33,0.162,0.394,0.317,0.584,1.37c0.48,2.655,0.978,3.782,2.001,4.597 c1.116,0.886,2.308,1.146,4.963,1.082c1.892-0.05,2.659-0.196,3.424-0.654c0.421-0.252,0.71-0.525,1.034-0.975 c0.712-0.995,1.191-2.476,1.302-4.002c0.058-0.856,0.186-1.186,0.637-1.643l0.3-0.312l-0.023-0.532 c-0.017-0.295-0.063-0.573-0.098-0.619c-0.099-0.116-0.497-0.197-1.625-0.324c-1.868-0.208-2.927-0.26-5.522-0.254 c-2.678,0-3.007,0.023-6.131,0.404c-0.943,0.116-2.285,0.082-3.614-0.086c-2.071-0.261-2.823-0.306-5.032-0.324 C15.576,16.033,14.182,16.05,13.673,16.079z M18.994,17.137c1.712,0.272,2.661,0.879,2.782,1.793 c0.058,0.417-0.087,1.955-0.237,2.551c-0.197,0.78-0.485,1.294-1.011,1.827c-0.909,0.915-2.088,1.204-4.627,1.133 c-2.499-0.069-3.447-0.543-4.17-2.094c-0.486-1.029-0.607-3.157-0.226-3.902c0.37-0.729,1.451-1.168,3.47-1.411 C15.483,16.976,18.438,17.05,18.994,17.137z M33.943,17.16c1.063,0.197,1.77,0.469,2.204,0.862c0.468,0.422,0.606,0.954,0.554,2.117 c-0.057,1.255-0.3,2.14-0.78,2.827c-0.74,1.065-1.642,1.412-3.828,1.475c-2.539,0.071-3.719-0.219-4.626-1.133 c-0.532-0.533-0.816-1.046-1.019-1.84c-0.15-0.601-0.289-2.058-0.237-2.515c0.11-0.931,1.094-1.568,2.799-1.805 c0.932-0.133,1.019-0.139,2.707-0.122C33.006,17.039,33.394,17.062,33.943,17.16z"/>
</g></svg>