<svg version="1.1" xmlns="http://www.w3.org/2000/svg" xmlns:xlink="http://www.w3.org/1999/xlink" x="0px" y="0px" width="48px" height="48px" viewBox="0 0 48 48" enable-background="new 0 0 48 48" xml:space="preserve">
<path fill="#202020" d="M36.08,33.24h5.96V18.93l-6.71-6.71l-4.21,4.21l4.97,4.97V33.24L36.08,33.24z M42.06,36.23H21.27l-4.97-4.97 l2.11-2.11l4.1,4.1h8.44l-8.32-8.33l2.12-2.12l8.32,8.32v-8.44l-4.09-4.09l2.09-2.09L20.75,6.12H0l5.94,5.94v0.02h12.33l4.36,4.35 l-6.37,6.37l-4.35-4.36v-3.38H5.94v5.85l10.31,10.31l-4.2,4.2l6.71,6.71H48L42.06,36.23L42.06,36.23z"/>
</svg>