<svg version="1.1" xmlns="http://www.w3.org/2000/svg" xmlns:xlink="http://www.w3.org/1999/xlink" x="0px" y="0px" width="48px" height="48px" viewBox="0 0 48 48" enable-background="new 0 0 48 48" xml:space="preserve">
<g fill="#202020">
<path d="M6.054,46.356l4.775-5.949l2.75,4.705c0.206,0.281,0.553,0.42,0.894,0.357 c0.342-0.064,0.618-0.316,0.71-0.65l4.938-17.801c0.097-0.349-0.023-0.723-0.306-0.949s-0.673-0.264-0.993-0.094l-16.315,8.67 c-0.304,0.162-0.491,0.486-0.479,0.834c0.013,0.348,0.221,0.656,0.541,0.796l5.189,1.667l-4.776,5.949 c-0.15,0.188-0.22,0.426-0.194,0.666c0.026,0.238,0.146,0.457,0.334,0.607l1.658,1.33C5.17,46.808,5.74,46.745,6.054,46.356z"/>
<path d="M25,0.655C12.107,0.655,1.655,11.107,1.655,24c0,3.016,0.578,5.894,1.618,8.539l14.845-7.888 c0.83-0.44,1.905-0.338,2.635,0.248c0.752,0.602,1.071,1.591,0.813,2.52l-4.938,17.802c-0.048,0.174-0.129,0.332-0.213,0.488 c2.658,1.052,5.553,1.637,8.585,1.637c1.578,0,3.119-0.158,4.609-0.457c-0.602-0.285-0.666-2.439-0.073-3.671 c0.662-1.366,2.735-4.832,0.685-5.995c-2.052-1.162-1.48-1.688-2.734-3.031c-1.256-1.346-0.741-1.547-0.822-1.894 c-0.271-1.185,1.209-2.964,1.277-3.146c0.068-0.184,0.068-0.865,0.045-1.071c-0.021-0.205-0.934-0.752-1.161-0.776 c-0.229-0.021-0.343,0.366-0.661,0.389s-1.71-0.842-2.007-1.071c-0.296-0.228-0.433-0.774-0.843-1.185 c-0.411-0.41-0.457-0.092-1.095-0.344c-0.639-0.25-2.69-1.002-4.263-1.641c-1.573-0.639-1.71-1.533-1.732-2.166 c-0.023-0.632-0.958-1.55-1.396-2.211c-0.438-0.661-0.519-1.573-0.679-1.368c-0.16,0.206,0.821,2.599,0.661,2.668 c-0.159,0.068-0.501-0.661-0.958-1.254c-0.456-0.593,0.479-0.274-0.98-3.146c-1.459-2.873,0.456-4.337,0.547-5.836 s1.231,0.547,0.638-0.411c-0.592-0.958,0.046-2.963-0.41-3.693c-0.456-0.729-3.055,0.821-3.055,0.821 c0.069-0.706,2.28-1.915,3.875-3.032c1.596-1.117,2.571-0.251,3.853,0.159c1.283,0.411,1.368,0.273,0.935-0.137 c-0.433-0.41,0.183-0.615,1.186-0.456c1.002,0.16,1.276,1.368,2.804,1.254c1.527-0.114,0.159,0.296,0.365,0.684 c0.205,0.387-0.228,0.342-1.231,1.025c-1.002,0.684,0.023,0.684,1.801,1.983c1.778,1.299,1.231-0.866,1.048-1.824 s1.299-0.205,1.299-0.205c1.095,0.729,0.893,0.04,1.69,0.291s2.96,2.08,2.96,2.08c-2.712,1.482-1.003,1.642-0.547,1.983 c0.456,0.341-0.936,1.003-0.936,1.003c-0.568-0.57-0.66,0.022-1.024,0.228c-0.366,0.205-0.022,0.729-0.022,0.729 c-1.888,0.296-1.459,2.28-1.437,2.758c0.022,0.479-1.208,1.208-1.528,1.893c-0.318,0.684,0.82,2.166,0.229,2.256 c-0.594,0.091-1.186-2.234-4.377-1.368c-0.962,0.262-3.101,1.368-1.961,3.625c1.14,2.257,3.032-0.638,3.67-0.319 c0.638,0.319-0.183,1.755-0.046,1.778c0.137,0.023,1.801,0.063,1.893,2.006c0.091,1.942,2.53,1.778,3.054,1.824 c0.525,0.046,2.28-1.437,2.531-1.505c0.25-0.069,1.254-0.912,3.441,0.342c2.189,1.254,3.307,1.07,4.059,1.596 s0.229,1.573,0.936,1.915c0.707,0.341,3.533-0.112,4.24,1.05c0.705,1.162-2.918,6.998-4.058,7.637 c-1.142,0.638-1.665,2.099-2.805,3.031c-1.14,0.936-2.735,2.092-4.241,2.987c-1.331,0.791-1.571,2.21-2.165,2.657 C40.532,44.468,48.346,35.146,48.346,24C48.346,11.107,37.895,0.655,25,0.655z M30.473,22.564c-0.32,0.091-0.98,0.684-2.601-0.273 c-1.618-0.958-2.735-0.775-2.872-0.935c0,0-0.137-0.388,0.57-0.457c1.451-0.14,3.281,1.346,3.693,1.368 c0.41,0.023,0.615-0.411,1.344-0.175C31.338,22.327,30.791,22.473,30.473,22.564z M23.139,2.501c0.1-0.132,0.025-0.353,0.151-0.479 c0.342-0.341,2.028-0.82,1.699,0.114c-0.329,0.936-1.904,1.027-2.155,0.844C22.675,2.864,22.965,2.731,23.139,2.501z M26.915,5.945 c-0.569-0.023-1.912-0.166-1.665-0.411c0.963-0.958-0.364-1.23-1.185-1.299c-0.821-0.069-1.163-0.525-0.752-0.57 c0.41-0.046,2.052,0.023,2.326,0.251c0.272,0.228,1.754,0.82,1.846,1.254C27.576,5.603,27.484,5.967,26.915,5.945z M31.861,5.785 c-0.455,0.365-2.75-1.309-3.19-1.687c-1.915-1.641-2.942-1.094-3.343-1.368c-0.403-0.273-0.26-0.639,0.355-1.186 c0.615-0.546,2.349,0.183,3.352,0.297c1.004,0.113,2.167,0.889,2.188,1.811C31.246,4.573,32.318,5.42,31.861,5.785z"/>
</g></svg>