<?xml version="1.0" encoding="UTF-8" standalone="no"?>
<svg version="1.1" xmlns="http://www.w3.org/2000/svg" xmlns:xlink="http://www.w3.org/1999/xlink" x="0px" y="0px" width="48px" height="48px" viewBox="0 0 48 48" enable-background="new 0 0 48 48" xml:space="preserve">
<g fill="#202020">
<path d="M48.119,10.772c0,2.832-1.126,5.392-2.938,7.292c-2.57-6.943-8.424-12.284-15.684-14.131 c1.941-2.279,4.797-3.754,8.027-3.754C43.379,0.179,48.119,4.919,48.119,10.772z M18.5,3.933c-1.942-2.279-4.797-3.754-8.026-3.754 c-5.85,0-10.594,4.74-10.594,10.593c0,2.832,1.128,5.392,2.938,7.292C5.387,11.121,11.245,5.78,18.5,3.933z M21.289,0.257 c-0.287,0.175-0.265-0.598-0.265,10.256c0,10.829-0.021,10.002,0.265,10.206l0.129,0.091h2.702h2.7l0.131-0.091 c0.285-0.204,0.265,0.623,0.265-10.223V0.702l-0.088-0.174c-0.047-0.1-0.146-0.215-0.22-0.266c-0.139-0.083-0.195-0.083-2.813-0.083 C21.534,0.179,21.414,0.183,21.289,0.257z M18.26,6.454c-0.254,0.05-1.592,0.503-2.224,0.752c-0.644,0.253-1.986,0.91-2.647,1.288 c-1.778,1.027-3.645,2.493-4.875,3.844c-1.666,1.824-2.81,3.52-3.79,5.618C3.771,20,3.134,22.311,2.881,24.695 c-0.091,0.847-0.104,3.023-0.025,3.845c0.15,1.526,0.386,2.783,0.777,4.114c1.433,4.865,4.637,9.094,8.976,11.85 c6.062,3.854,13.72,4.396,20.333,1.45c3.291-1.472,6.291-3.886,8.428-6.8c3.328-4.527,4.674-10.018,3.835-15.622 c-0.694-4.637-3.179-9.204-6.706-12.337c-2.373-2.106-4.784-3.494-7.793-4.483c-0.789-0.261-1-0.304-1.153-0.23 c-0.104,0.05-0.138,0.102-0.172,0.267c-0.062,0.291-0.062,6.25,0,6.499c0.024,0.099,0.088,0.22,0.144,0.27 c0.054,0.05,0.455,0.27,0.896,0.491c0.941,0.474,1.458,0.79,2.223,1.358c2.133,1.597,3.754,3.72,4.725,6.192 c0.471,1.198,0.736,2.266,0.91,3.677c0.07,0.568,0.07,2.457,0,3.035c-0.312,2.539-1.101,4.619-2.521,6.656 c-0.494,0.706-1.596,1.916-2.285,2.51c-3.234,2.783-7.435,4.006-11.573,3.36c-3.981-0.614-7.5-2.892-9.703-6.272 c-2.743-4.207-3.059-9.584-0.836-14.066c1.167-2.352,2.93-4.305,5.157-5.727c0.275-0.174,0.89-0.516,1.372-0.756 c0.745-0.374,0.881-0.458,0.956-0.582c0.083-0.141,0.083-0.2,0.083-3.386c0-3.022-0.005-3.254-0.071-3.358 C18.729,6.466,18.534,6.404,18.26,6.454z"/>
<path d="M13.5,44.66c0,1.43-0.604,2.59-1.351,2.59H9.851c-0.746,0-1.351-1.16-1.351-2.59v-4.32 c0-1.43,0.605-2.59,1.351-2.59h2.298c0.746,0,1.351,1.16,1.351,2.59V44.66z"/>
<path d="M39.5,44.637c0,1.416-0.604,2.563-1.35,2.563h-2.299c-0.746,0-1.352-1.146-1.352-2.563v-4.273 c0-1.416,0.605-2.563,1.352-2.563h2.299c0.745,0,1.35,1.146,1.35,2.563V44.637z"/>
</g></svg>